<svg width="341" height="85" viewBox="0 0 341 85" fill="none" xmlns="http://www.w3.org/2000/svg">
<path d="M9.66406 20.0556C9.66406 9.20175 18.4628 0.402954 29.3167 0.402954V0.402954V28.8475H9.66406V20.0556Z" fill="#26252A" stroke="#26252A" stroke-width="0.805851"/>
<rect x="9.66406" y="28.8474" width="19.6526" height="2.1217" fill="#26252A" stroke="#26252A" stroke-width="0.805851"/>
<path d="M29.3169 30.9692V59.4136C24.5572 59.4136 20.1931 57.7211 16.7925 54.9058C13.4001 57.1658 7.96139 59.3156 1.38916 58.1206C3.19942 57.3447 10.1809 52.6903 9.92236 43.3813C9.95309 43.4236 9.98772 43.463 10.021 43.5034C9.78742 42.2919 9.66357 41.041 9.66357 39.7612V30.9692H29.3169Z" fill="#26252A"/>
<path d="M29.3169 30.9692H29.7198V30.5663H29.3169V30.9692ZM29.3169 59.4136V59.8165H29.7198V59.4136H29.3169ZM16.7925 54.9058L17.0494 54.5954L16.8185 54.4042L16.5691 54.5704L16.7925 54.9058ZM1.38916 58.1206L1.23043 57.7503L0.000112772 58.2776L1.31708 58.517L1.38916 58.1206ZM9.92236 43.3813L10.2482 43.1444L9.48349 42.0928L9.51959 43.3925L9.92236 43.3813ZM10.021 43.5034L9.71006 43.7597L10.4166 43.4271L10.021 43.5034ZM9.66357 39.7612H9.26065V39.7612H9.66357ZM9.66357 30.9692V30.5663H9.26065V30.9692H9.66357ZM29.3169 30.9692H28.914V59.4136H29.3169H29.7198V30.9692H29.3169ZM29.3169 59.4136V59.0106C24.6545 59.0106 20.3805 57.3532 17.0494 54.5954L16.7925 54.9058L16.5355 55.2161C20.0057 58.0891 24.46 59.8165 29.3169 59.8165V59.4136ZM16.7925 54.9058L16.5691 54.5704C13.2391 56.789 7.90505 58.8958 1.46124 57.7242L1.38916 58.1206L1.31708 58.517C8.01773 59.7353 13.5612 57.5427 17.0159 55.2411L16.7925 54.9058ZM1.38916 58.1206L1.54789 58.4909C2.51474 58.0766 4.76599 56.6779 6.74621 54.2026C8.73435 51.7174 10.4575 48.1359 10.3251 43.3702L9.92236 43.3813L9.51959 43.3925C9.64579 47.9358 8.00749 51.336 6.11695 53.6992C4.21849 56.0723 2.07385 57.3888 1.23043 57.7503L1.38916 58.1206ZM9.92236 43.3813L9.5965 43.6183C9.63679 43.6737 9.68751 43.7323 9.71006 43.7597L10.021 43.5034L10.3319 43.2472C10.2879 43.1938 10.2694 43.1735 10.2482 43.1444L9.92236 43.3813ZM10.021 43.5034L10.4166 43.4271C10.1878 42.2403 10.0665 41.0149 10.0665 39.7612H9.66357H9.26065C9.26065 41.067 9.38702 42.3435 9.62536 43.5797L10.021 43.5034ZM9.66357 39.7612H10.0665V30.9692H9.66357H9.26065V39.7612H9.66357ZM9.66357 30.9692V31.3722H29.3169V30.9692V30.5663H9.66357V30.9692Z" fill="#26252A"/>
<rect x="29.3164" y="0.402954" width="290.877" height="59.0106" fill="#26252A"/>
<rect x="29.3164" y="0.402954" width="290.877" height="59.0106" stroke="#26252A" stroke-width="0.805851"/>
<path d="M47.7716 26.2031H45.3576C45.2149 25.5088 44.965 24.8988 44.6081 24.3732C44.2577 23.8476 43.8294 23.4063 43.3233 23.0494C42.8236 22.686 42.2688 22.4135 41.6588 22.2318C41.0488 22.0501 40.4129 21.9592 39.751 21.9592C38.544 21.9592 37.4506 22.2642 36.4707 22.8742C35.4973 23.4842 34.7219 24.3829 34.1443 25.5704C33.5733 26.758 33.2878 28.2148 33.2878 29.9409C33.2878 31.667 33.5733 33.1238 34.1443 34.3114C34.7219 35.4989 35.4973 36.3976 36.4707 37.0076C37.4506 37.6176 38.544 37.9226 39.751 37.9226C40.4129 37.9226 41.0488 37.8317 41.6588 37.65C42.2688 37.4683 42.8236 37.199 43.3233 36.8421C43.8294 36.4787 44.2577 36.0342 44.6081 35.5086C44.965 34.9765 45.2149 34.3665 45.3576 33.6787H47.7716C47.5899 34.6975 47.259 35.6092 46.7788 36.4138C46.2986 37.2185 45.7016 37.9031 44.9877 38.4677C44.2739 39.0257 43.4725 39.4508 42.5835 39.7428C41.701 40.0348 40.7568 40.1808 39.751 40.1808C38.0508 40.1808 36.5389 39.7655 35.2151 38.9349C33.8913 38.1043 32.8498 36.9232 32.0905 35.3918C31.3313 33.8604 30.9517 32.0434 30.9517 29.9409C30.9517 27.8384 31.3313 26.0214 32.0905 24.49C32.8498 22.9586 33.8913 21.7775 35.2151 20.9469C36.5389 20.1163 38.0508 19.701 39.751 19.701C40.7568 19.701 41.701 19.847 42.5835 20.139C43.4725 20.431 44.2739 20.8593 44.9877 21.4239C45.7016 21.9819 46.2986 22.6633 46.7788 23.468C47.259 24.2661 47.5899 25.1779 47.7716 26.2031ZM53.521 30.9143V39.9083H51.2239V19.9735H53.521V27.2933H53.7157C54.0661 26.5211 54.5918 25.9079 55.2926 25.4536C55.9999 24.9929 56.9408 24.7625 58.1154 24.7625C59.1342 24.7625 60.0264 24.967 60.7922 25.3758C61.5579 25.7781 62.1516 26.3978 62.5734 27.2349C63.0017 28.0655 63.2159 29.1233 63.2159 30.4081V39.9083H60.9187V30.5639C60.9187 29.3763 60.6105 28.4581 59.994 27.8092C59.384 27.1538 58.5372 26.8261 57.4535 26.8261C56.7007 26.8261 56.0259 26.9851 55.4289 27.3031C54.8383 27.621 54.3711 28.085 54.0272 28.695C53.6898 29.305 53.521 30.0447 53.521 30.9143ZM73.5499 40.2197C72.1093 40.2197 70.8666 39.9018 69.8219 39.2658C68.7836 38.6234 67.9822 37.7279 67.4176 36.5793C66.8596 35.4242 66.5805 34.081 66.5805 32.5495C66.5805 31.0181 66.8596 29.6684 67.4176 28.5003C67.9822 27.3258 68.7674 26.4108 69.7732 25.7554C70.7855 25.0935 71.9665 24.7625 73.3163 24.7625C74.095 24.7625 74.8639 24.8923 75.6232 25.1519C76.3824 25.4115 77.0735 25.8333 77.6965 26.4173C78.3194 26.9948 78.8158 27.7605 79.1857 28.7144C79.5556 29.6684 79.7406 30.8429 79.7406 32.2381V33.2114H68.2158V31.2258H77.4045C77.4045 30.3822 77.2357 29.6294 76.8983 28.9675C76.5674 28.3056 76.0936 27.7833 75.4772 27.4004C74.8672 27.0175 74.1469 26.8261 73.3163 26.8261C72.4013 26.8261 71.6096 27.0532 70.9412 27.5075C70.2793 27.9552 69.7699 28.5392 69.413 29.2595C69.0561 29.9798 68.8777 30.752 68.8777 31.5762V32.9C68.8777 34.0291 69.0724 34.9862 69.4617 35.7714C69.8576 36.5501 70.4059 37.1439 71.1067 37.5527C71.8075 37.955 72.6219 38.1562 73.5499 38.1562C74.1534 38.1562 74.6985 38.0718 75.1852 37.9031C75.6783 37.7279 76.1034 37.4683 76.4603 37.1244C76.8172 36.774 77.093 36.3392 77.2876 35.8201L79.5069 36.443C79.2733 37.1958 78.8807 37.8577 78.3292 38.4287C77.7776 38.9933 77.0962 39.4346 76.2851 39.7525C75.4739 40.064 74.5622 40.2197 73.5499 40.2197ZM89.1718 40.2197C87.7701 40.2197 86.5631 39.8888 85.5508 39.2269C84.5385 38.565 83.7598 37.6533 83.2147 36.4917C82.6696 35.3302 82.3971 34.0031 82.3971 32.5106C82.3971 30.9921 82.6761 29.6521 83.2342 28.4906C83.7988 27.3225 84.5839 26.4108 85.5898 25.7554C86.6021 25.0935 87.7831 24.7625 89.1328 24.7625C90.1841 24.7625 91.1315 24.9572 91.9751 25.3466C92.8187 25.7359 93.5098 26.281 94.0484 26.9818C94.587 27.6827 94.9212 28.5003 95.051 29.4347H92.7538C92.5786 28.7534 92.1892 28.1499 91.5858 27.6243C90.9887 27.0922 90.1841 26.8261 89.1718 26.8261C88.2763 26.8261 87.4911 27.0597 86.8162 27.5269C86.1478 27.9877 85.6255 28.6398 85.2491 29.4834C84.8792 30.3205 84.6943 31.3036 84.6943 32.4327C84.6943 33.5878 84.876 34.5936 85.2393 35.4502C85.6092 36.3068 86.1284 36.9719 86.7967 37.4456C87.4716 37.9193 88.2633 38.1562 89.1718 38.1562C89.7688 38.1562 90.3106 38.0524 90.7973 37.8447C91.284 37.6371 91.6961 37.3386 92.0335 36.9492C92.3709 36.5599 92.611 36.0926 92.7538 35.5475H95.051C94.9212 36.4301 94.6 37.225 94.0873 37.9323C93.5812 38.6331 92.9095 39.1912 92.0724 39.6065C91.2418 40.0153 90.2749 40.2197 89.1718 40.2197ZM100.413 34.4574L100.375 31.6151H100.842L107.383 24.9572H110.225L103.256 32.0045H103.061L100.413 34.4574ZM98.2721 39.9083V19.9735H100.569V39.9083H98.2721ZM107.772 39.9083L101.932 32.5106L103.567 30.9143L110.692 39.9083H107.772ZM131.83 24.9572C131.713 23.9709 131.24 23.2051 130.409 22.6601C129.578 22.115 128.56 21.8424 127.353 21.8424C126.47 21.8424 125.698 21.9852 125.036 22.2707C124.38 22.5562 123.868 22.9488 123.498 23.4485C123.135 23.9482 122.953 24.516 122.953 25.1519C122.953 25.684 123.079 26.1415 123.332 26.5244C123.592 26.9007 123.923 27.2154 124.325 27.4685C124.728 27.7151 125.149 27.9195 125.591 28.0818C126.032 28.2375 126.438 28.364 126.807 28.4614L128.832 29.0065C129.351 29.1427 129.929 29.3309 130.565 29.571C131.207 29.8111 131.82 30.1388 132.404 30.5541C132.995 30.9629 133.482 31.4886 133.864 32.131C134.247 32.7734 134.439 33.5619 134.439 34.4963C134.439 35.5735 134.156 36.5469 133.592 37.4164C133.034 38.286 132.216 38.9771 131.139 39.4897C130.068 40.0024 128.767 40.2587 127.236 40.2587C125.808 40.2587 124.572 40.0283 123.527 39.5676C122.489 39.1069 121.671 38.4644 121.074 37.6403C120.484 36.8162 120.15 35.859 120.072 34.7688H122.564C122.628 35.5216 122.881 36.1445 123.323 36.6377C123.771 37.1244 124.335 37.4878 125.016 37.7279C125.704 37.9615 126.444 38.0783 127.236 38.0783C128.157 38.0783 128.985 37.9291 129.718 37.6306C130.451 37.3256 131.032 36.9038 131.46 36.3652C131.888 35.8201 132.103 35.1841 132.103 34.4574C132.103 33.7955 131.918 33.2569 131.548 32.8416C131.178 32.4263 130.691 32.0888 130.088 31.8292C129.484 31.5697 128.832 31.3426 128.131 31.1479L125.678 30.4471C124.121 29.9993 122.888 29.3601 121.979 28.5295C121.071 27.6989 120.617 26.612 120.617 25.2687C120.617 24.1526 120.919 23.1792 121.522 22.3486C122.132 21.5115 122.95 20.8626 123.975 20.4018C125.007 19.9346 126.159 19.701 127.43 19.701C128.715 19.701 129.857 19.9314 130.857 20.3921C131.856 20.8463 132.648 21.4693 133.232 22.261C133.822 23.0526 134.134 23.9514 134.166 24.9572H131.83ZM140.256 30.9143V39.9083H137.959V19.9735H140.256V27.2933H140.451C140.801 26.5211 141.327 25.9079 142.028 25.4536C142.735 24.9929 143.676 24.7625 144.851 24.7625C145.869 24.7625 146.762 24.967 147.527 25.3758C148.293 25.7781 148.887 26.3978 149.309 27.2349C149.737 28.0655 149.951 29.1233 149.951 30.4081V39.9083H147.654V30.5639C147.654 29.3763 147.346 28.4581 146.729 27.8092C146.119 27.1538 145.272 26.8261 144.189 26.8261C143.436 26.8261 142.761 26.9851 142.164 27.3031C141.574 27.621 141.106 28.085 140.762 28.695C140.425 29.305 140.256 30.0447 140.256 30.9143ZM160.285 40.2197C158.845 40.2197 157.602 39.9018 156.557 39.2658C155.519 38.6234 154.717 37.7279 154.153 36.5793C153.595 35.4242 153.316 34.081 153.316 32.5495C153.316 31.0181 153.595 29.6684 154.153 28.5003C154.717 27.3258 155.503 26.4108 156.508 25.7554C157.521 25.0935 158.702 24.7625 160.052 24.7625C160.83 24.7625 161.599 24.8923 162.358 25.1519C163.118 25.4115 163.809 25.8333 164.432 26.4173C165.055 26.9948 165.551 27.7605 165.921 28.7144C166.291 29.6684 166.476 30.8429 166.476 32.2381V33.2114H154.951V31.2258H164.14C164.14 30.3822 163.971 29.6294 163.634 28.9675C163.303 28.3056 162.829 27.7833 162.212 27.4004C161.602 27.0175 160.882 26.8261 160.052 26.8261C159.137 26.8261 158.345 27.0532 157.676 27.5075C157.015 27.9552 156.505 28.5392 156.148 29.2595C155.791 29.9798 155.613 30.752 155.613 31.5762V32.9C155.613 34.0291 155.808 34.9862 156.197 35.7714C156.593 36.5501 157.141 37.1439 157.842 37.5527C158.543 37.955 159.357 38.1562 160.285 38.1562C160.889 38.1562 161.434 38.0718 161.92 37.9031C162.414 37.7279 162.839 37.4683 163.196 37.1244C163.552 36.774 163.828 36.3392 164.023 35.8201L166.242 36.443C166.009 37.1958 165.616 37.8577 165.064 38.4287C164.513 38.9933 163.831 39.4346 163.02 39.7525C162.209 40.064 161.297 40.2197 160.285 40.2197ZM176.102 40.2197C174.661 40.2197 173.418 39.9018 172.374 39.2658C171.335 38.6234 170.534 37.7279 169.969 36.5793C169.411 35.4242 169.132 34.081 169.132 32.5495C169.132 31.0181 169.411 29.6684 169.969 28.5003C170.534 27.3258 171.319 26.4108 172.325 25.7554C173.337 25.0935 174.518 24.7625 175.868 24.7625C176.647 24.7625 177.416 24.8923 178.175 25.1519C178.934 25.4115 179.625 25.8333 180.248 26.4173C180.871 26.9948 181.368 27.7605 181.738 28.7144C182.107 29.6684 182.292 30.8429 182.292 32.2381V33.2114H170.768V31.2258H179.956C179.956 30.3822 179.788 29.6294 179.45 28.9675C179.119 28.3056 178.645 27.7833 178.029 27.4004C177.419 27.0175 176.699 26.8261 175.868 26.8261C174.953 26.8261 174.161 27.0532 173.493 27.5075C172.831 27.9552 172.322 28.5392 171.965 29.2595C171.608 29.9798 171.429 30.752 171.429 31.5762V32.9C171.429 34.0291 171.624 34.9862 172.014 35.7714C172.409 36.5501 172.958 37.1439 173.659 37.5527C174.359 37.955 175.174 38.1562 176.102 38.1562C176.705 38.1562 177.25 38.0718 177.737 37.9031C178.23 37.7279 178.655 37.4683 179.012 37.1244C179.369 36.774 179.645 36.3392 179.839 35.8201L182.059 36.443C181.825 37.1958 181.433 37.8577 180.881 38.4287C180.329 38.9933 179.648 39.4346 178.837 39.7525C178.026 40.064 177.114 40.2197 176.102 40.2197ZM192.152 24.9572V26.904H184.404V24.9572H192.152ZM186.662 21.3752H188.959V35.6254C188.959 36.2743 189.053 36.761 189.241 37.0855C189.436 37.4034 189.683 37.6176 189.981 37.7279C190.286 37.8317 190.607 37.8836 190.945 37.8836C191.198 37.8836 191.406 37.8707 191.568 37.8447C191.73 37.8123 191.86 37.7863 191.957 37.7668L192.424 39.8304C192.269 39.8888 192.051 39.9472 191.772 40.0056C191.493 40.0705 191.14 40.1029 190.711 40.1029C190.062 40.1029 189.426 39.9634 188.803 39.6844C188.187 39.4054 187.674 38.9803 187.266 38.4093C186.863 37.8382 186.662 37.1179 186.662 36.2484V21.3752ZM205.793 28.3056L203.729 28.8897C203.6 28.5457 203.408 28.2115 203.155 27.8871C202.909 27.5561 202.571 27.2836 202.143 27.0694C201.714 26.8553 201.166 26.7482 200.498 26.7482C199.583 26.7482 198.82 26.9591 198.21 27.3809C197.607 27.7962 197.305 28.3251 197.305 28.9675C197.305 29.5386 197.513 29.9896 197.928 30.3205C198.343 30.6515 198.992 30.9273 199.875 31.1479L202.094 31.693C203.431 32.0174 204.427 32.5139 205.082 33.1822C205.738 33.8441 206.065 34.6975 206.065 35.7422C206.065 36.5988 205.819 37.3645 205.326 38.0394C204.839 38.7143 204.158 39.2464 203.282 39.6357C202.406 40.0251 201.387 40.2197 200.225 40.2197C198.7 40.2197 197.438 39.8888 196.439 39.2269C195.439 38.565 194.807 37.5981 194.541 36.3262L196.721 35.7812C196.929 36.5858 197.321 37.1893 197.899 37.5916C198.483 37.994 199.245 38.1951 200.186 38.1951C201.257 38.1951 202.107 37.968 202.737 37.5138C203.372 37.053 203.69 36.5015 203.69 35.859C203.69 35.3399 203.509 34.9051 203.145 34.5547C202.782 34.1978 202.224 33.9317 201.471 33.7565L198.979 33.1725C197.61 32.848 196.604 32.3451 195.962 31.6638C195.326 30.9759 195.008 30.1161 195.008 29.0843C195.008 28.2407 195.245 27.4945 195.719 26.8456C196.199 26.1967 196.851 25.6873 197.675 25.3174C198.506 24.9475 199.447 24.7625 200.498 24.7625C201.977 24.7625 203.139 25.087 203.982 25.7359C204.833 26.3848 205.436 27.2414 205.793 28.3056Z" fill="white"/>
<path d="M339.847 20.0556C339.847 9.20175 331.048 0.402954 320.194 0.402954V0.402954V28.8475H339.847V20.0556Z" fill="#26252A" stroke="#26252A" stroke-width="0.805851"/>
<rect width="19.6526" height="2.12144" transform="matrix(-1 0 0 1 339.847 28.8476)" fill="#26252A" stroke="#26252A" stroke-width="0.805851"/>
<path d="M339.847 39.7609C339.847 50.6148 331.048 59.4136 320.194 59.4136V59.4136V30.969H339.847V39.7609Z" fill="#26252A" stroke="#26252A" stroke-width="0.805851"/>
</svg>
