<svg width="341" height="60" viewBox="0 0 341 60" fill="none" xmlns="http://www.w3.org/2000/svg">
<path d="M0.402832 20.0556C0.402832 9.20175 9.20161 0.402954 20.0555 0.402954V0.402954V28.8475H0.402832V20.0556Z" fill="#278EFF" stroke="#278EFF" stroke-width="0.805851"/>
<rect x="0.402832" y="28.8475" width="19.6526" height="2.12144" fill="#278EFF" stroke="#278EFF" stroke-width="0.805851"/>
<path d="M0.402832 39.7609C0.402832 50.6148 9.20161 59.4136 20.0555 59.4136V59.4136V30.969H0.402832V39.7609Z" fill="#278EFF" stroke="#278EFF" stroke-width="0.805851"/>
<rect x="20.0557" y="0.402954" width="290.877" height="59.0106" fill="#278EFF"/>
<rect x="20.0557" y="0.402954" width="290.877" height="59.0106" stroke="#278EFF" stroke-width="0.805851"/>
<path d="M26.0906 39.9083L20.6397 19.9735H23.0926L27.2586 36.2094H27.4533L31.6972 19.9735H34.4227L38.6666 36.2094H38.8613L43.0273 19.9735H45.4802L40.0293 39.9083H37.5375L33.1378 24.0228H32.9821L28.5824 39.9083H26.0906ZM50.3366 30.9143V39.9083H48.0394V19.9735H50.3366V27.2933H50.5313C50.8817 26.5211 51.4073 25.9079 52.1081 25.4536C52.8155 24.9929 53.7564 24.7625 54.9309 24.7625C55.9497 24.7625 56.842 24.967 57.6077 25.3758C58.3734 25.7781 58.9672 26.3978 59.389 27.2349C59.8173 28.0655 60.0314 29.1233 60.0314 30.4081V39.9083H57.7342V30.5639C57.7342 29.3763 57.426 28.4581 56.8095 27.8092C56.1996 27.1538 55.3527 26.8261 54.269 26.8261C53.5163 26.8261 52.8414 26.9851 52.2444 27.3031C51.6539 27.621 51.1867 28.085 50.8427 28.695C50.5053 29.305 50.3366 30.0447 50.3366 30.9143ZM68.4966 40.2587C67.5491 40.2587 66.6893 40.0802 65.9171 39.7233C65.1449 39.3599 64.5317 38.8376 64.0774 38.1562C63.6232 37.4683 63.3961 36.6377 63.3961 35.6643C63.3961 34.8078 63.5648 34.1134 63.9022 33.5813C64.2397 33.0427 64.6907 32.6209 65.2552 32.3159C65.8198 32.0109 66.4427 31.7838 67.1241 31.6346C67.812 31.4788 68.5031 31.3555 69.1974 31.2647C70.1059 31.1479 70.8424 31.0603 71.407 31.0019C71.978 30.937 72.3933 30.8299 72.6529 30.6807C72.9189 30.5314 73.052 30.2718 73.052 29.902V29.8241C73.052 28.8637 72.7891 28.1174 72.2635 27.5853C71.7444 27.0532 70.956 26.7872 69.8982 26.7872C68.8016 26.7872 67.9417 27.0273 67.3188 27.5075C66.6958 27.9877 66.2578 28.5003 66.0047 29.0454L63.8244 28.2667C64.2137 27.3582 64.7328 26.6509 65.3818 26.1447C66.0372 25.6321 66.751 25.2752 67.5232 25.074C68.3019 24.8664 69.0676 24.7625 69.8204 24.7625C70.3006 24.7625 70.8521 24.8209 71.4751 24.9378C72.1045 25.0481 72.7113 25.2784 73.2953 25.6288C73.8858 25.9793 74.3757 26.5081 74.7651 27.2155C75.1544 27.9228 75.3491 28.8702 75.3491 30.0577V39.9083H73.052V37.8836H72.9352C72.7794 38.2081 72.5198 38.5553 72.1565 38.9252C71.7931 39.295 71.3096 39.6098 70.7061 39.8693C70.1026 40.1289 69.3661 40.2587 68.4966 40.2587ZM68.847 38.1951C69.7555 38.1951 70.5212 38.0167 71.1441 37.6598C71.7736 37.3029 72.2473 36.8421 72.5653 36.2776C72.8897 35.713 73.052 35.1193 73.052 34.4963V32.3938C72.9546 32.5106 72.7405 32.6177 72.4095 32.715C72.0851 32.8059 71.7087 32.887 71.2804 32.9584C70.8586 33.0233 70.4466 33.0817 70.0442 33.1336C69.6484 33.179 69.3272 33.2179 69.0806 33.2504C68.4836 33.3282 67.9255 33.4548 67.4064 33.63C66.8937 33.7987 66.4784 34.055 66.1605 34.399C65.849 34.7364 65.6932 35.1971 65.6932 35.7812C65.6932 36.5793 65.9885 37.1828 66.579 37.5916C67.176 37.994 67.932 38.1951 68.847 38.1951ZM85.907 24.9572V26.904H78.159V24.9572H85.907ZM80.4172 21.3752H82.7144V35.6254C82.7144 36.2743 82.8085 36.761 82.9966 37.0855C83.1913 37.4034 83.4379 37.6176 83.7364 37.7279C84.0414 37.8317 84.3626 37.8836 84.7 37.8836C84.9531 37.8836 85.1608 37.8707 85.323 37.8447C85.4852 37.8123 85.615 37.7863 85.7124 37.7668L86.1796 39.8304C86.0238 39.8888 85.8065 39.9472 85.5274 40.0056C85.2484 40.0705 84.8947 40.1029 84.4664 40.1029C83.8175 40.1029 83.1816 39.9634 82.5586 39.6844C81.9422 39.4054 81.4295 38.9803 81.0207 38.4093C80.6184 37.8382 80.4172 37.1179 80.4172 36.2484V21.3752ZM92.0263 19.9735V21.7256C92.0263 22.2577 91.929 22.8255 91.7343 23.429C91.5462 24.026 91.2671 24.6068 90.8972 25.1714C90.5338 25.7294 90.0926 26.2161 89.5734 26.6314L88.3275 25.6191C88.7363 25.0351 89.09 24.4284 89.3885 23.7989C89.6935 23.163 89.846 22.4848 89.846 21.7645V19.9735H92.0263ZM103.399 28.3056L101.336 28.8897C101.206 28.5457 101.015 28.2115 100.762 27.8871C100.515 27.5561 100.178 27.2836 99.7493 27.0694C99.321 26.8553 98.7727 26.7482 98.1043 26.7482C97.1893 26.7482 96.4269 26.9591 95.8169 27.3809C95.2134 27.7962 94.9116 28.3251 94.9116 28.9675C94.9116 29.5386 95.1193 29.9896 95.5346 30.3205C95.9499 30.6515 96.5988 30.9273 97.4813 31.1479L99.7006 31.693C101.037 32.0174 102.033 32.5139 102.689 33.1822C103.344 33.8441 103.672 34.6975 103.672 35.7422C103.672 36.5988 103.425 37.3645 102.932 38.0394C102.446 38.7143 101.764 39.2464 100.888 39.6357C100.012 40.0251 98.9933 40.2197 97.8318 40.2197C96.3068 40.2197 95.0447 39.8888 94.0453 39.2269C93.046 38.565 92.4133 37.5981 92.1472 36.3262L94.3276 35.7812C94.5353 36.5858 94.9279 37.1893 95.5054 37.5916C96.0894 37.994 96.8519 38.1951 97.7928 38.1951C98.8635 38.1951 99.7136 37.968 100.343 37.5138C100.979 37.053 101.297 36.5015 101.297 35.859C101.297 35.3399 101.115 34.9051 100.752 34.5547C100.388 34.1978 99.8304 33.9317 99.0777 33.7565L96.5858 33.1725C95.2166 32.848 94.2108 32.3451 93.5684 31.6638C92.9324 30.9759 92.6145 30.1161 92.6145 29.0843C92.6145 28.2407 92.8513 27.4945 93.325 26.8456C93.8052 26.1967 94.4574 25.6873 95.2815 25.3174C96.1121 24.9475 97.0531 24.7625 98.1043 24.7625C99.5838 24.7625 100.745 25.087 101.589 25.7359C102.439 26.3848 103.043 27.2414 103.399 28.3056ZM120.639 40.2197C119.289 40.2197 118.105 39.8985 117.086 39.2561C116.074 38.6137 115.282 37.7149 114.711 36.5599C114.146 35.4048 113.864 34.055 113.864 32.5106C113.864 30.9532 114.146 29.5937 114.711 28.4322C115.282 27.2706 116.074 26.3686 117.086 25.7262C118.105 25.0838 119.289 24.7625 120.639 24.7625C121.989 24.7625 123.17 25.0838 124.182 25.7262C125.201 26.3686 125.992 27.2706 126.557 28.4322C127.128 29.5937 127.414 30.9532 127.414 32.5106C127.414 34.055 127.128 35.4048 126.557 36.5599C125.992 37.7149 125.201 38.6137 124.182 39.2561C123.17 39.8985 121.989 40.2197 120.639 40.2197ZM120.639 38.1562C121.664 38.1562 122.508 37.8934 123.17 37.3678C123.831 36.8421 124.321 36.151 124.639 35.2945C124.957 34.4379 125.116 33.5099 125.116 32.5106C125.116 31.5113 124.957 30.5801 124.639 29.717C124.321 28.854 123.831 28.1564 123.17 27.6243C122.508 27.0922 121.664 26.8261 120.639 26.8261C119.614 26.8261 118.77 27.0922 118.108 27.6243C117.446 28.1564 116.956 28.854 116.638 29.717C116.32 30.5801 116.161 31.5113 116.161 32.5106C116.161 33.5099 116.32 34.4379 116.638 35.2945C116.956 36.151 117.446 36.8421 118.108 37.3678C118.77 37.8934 119.614 38.1562 120.639 38.1562ZM140.205 33.7955V24.9572H142.502V39.9083H140.205V37.3775H140.05C139.699 38.1367 139.154 38.7824 138.414 39.3145C137.675 39.8401 136.74 40.1029 135.611 40.1029C134.677 40.1029 133.846 39.8985 133.119 39.4897C132.392 39.0744 131.821 38.4514 131.406 37.6208C130.991 36.7837 130.783 35.7292 130.783 34.4574V24.9572H133.08V34.3016C133.08 35.3918 133.385 36.2614 133.995 36.9103C134.612 37.5592 135.397 37.8836 136.351 37.8836C136.922 37.8836 137.503 37.7376 138.093 37.4456C138.69 37.1536 139.19 36.7059 139.592 36.1024C140.001 35.4989 140.205 34.7299 140.205 33.7955ZM146.573 39.9083V24.9572H148.792V27.2155H148.948C149.22 26.4757 149.714 25.8754 150.427 25.4147C151.141 24.954 151.946 24.7236 152.841 24.7236C153.01 24.7236 153.221 24.7269 153.474 24.7333C153.727 24.7398 153.919 24.7496 154.048 24.7625V27.0986C153.97 27.0792 153.792 27.05 153.513 27.011C153.24 26.9656 152.952 26.9429 152.647 26.9429C151.92 26.9429 151.271 27.0954 150.7 27.4004C150.135 27.6989 149.688 28.1142 149.357 28.6463C149.032 29.1719 148.87 29.7722 148.87 30.4471V39.9083H146.573ZM180.559 26.2031H178.145C178.002 25.5088 177.753 24.8988 177.396 24.3732C177.045 23.8476 176.617 23.4063 176.111 23.0494C175.611 22.686 175.056 22.4135 174.446 22.2318C173.836 22.0501 173.2 21.9592 172.539 21.9592C171.332 21.9592 170.238 22.2642 169.258 22.8742C168.285 23.4842 167.509 24.3829 166.932 25.5704C166.361 26.758 166.075 28.2148 166.075 29.9409C166.075 31.667 166.361 33.1238 166.932 34.3114C167.509 35.4989 168.285 36.3976 169.258 37.0076C170.238 37.6176 171.332 37.9226 172.539 37.9226C173.2 37.9226 173.836 37.8317 174.446 37.65C175.056 37.4683 175.611 37.199 176.111 36.8421C176.617 36.4787 177.045 36.0342 177.396 35.5086C177.753 34.9765 178.002 34.3665 178.145 33.6787H180.559C180.377 34.6975 180.046 35.6092 179.566 36.4138C179.086 37.2185 178.489 37.9031 177.775 38.4677C177.061 39.0257 176.26 39.4508 175.371 39.7428C174.489 40.0348 173.544 40.1808 172.539 40.1808C170.838 40.1808 169.326 39.7655 168.003 38.9349C166.679 38.1043 165.637 36.9232 164.878 35.3918C164.119 33.8604 163.739 32.0434 163.739 29.9409C163.739 27.8384 164.119 26.0214 164.878 24.49C165.637 22.9586 166.679 21.7775 168.003 20.9469C169.326 20.1163 170.838 19.701 172.539 19.701C173.544 19.701 174.489 19.847 175.371 20.139C176.26 20.431 177.061 20.8593 177.775 21.4239C178.489 21.9819 179.086 22.6633 179.566 23.468C180.046 24.2661 180.377 25.1779 180.559 26.2031ZM185.14 39.9083H182.61L189.93 19.9735H192.421L199.741 39.9083H197.21L191.253 23.1273H191.098L185.14 39.9083ZM186.075 32.1213H196.276V34.2627H186.075V32.1213ZM217.814 26.2031H215.4C215.257 25.5088 215.007 24.8988 214.65 24.3732C214.3 23.8476 213.871 23.4063 213.365 23.0494C212.866 22.686 212.311 22.4135 211.701 22.2318C211.091 22.0501 210.455 21.9592 209.793 21.9592C208.586 21.9592 207.492 22.2642 206.513 22.8742C205.539 23.4842 204.764 24.3829 204.186 25.5704C203.615 26.758 203.33 28.2148 203.33 29.9409C203.33 31.667 203.615 33.1238 204.186 34.3114C204.764 35.4989 205.539 36.3976 206.513 37.0076C207.492 37.6176 208.586 37.9226 209.793 37.9226C210.455 37.9226 211.091 37.8317 211.701 37.65C212.311 37.4683 212.866 37.199 213.365 36.8421C213.871 36.4787 214.3 36.0342 214.65 35.5086C215.007 34.9765 215.257 34.3665 215.4 33.6787H217.814C217.632 34.6975 217.301 35.6092 216.821 36.4138C216.34 37.2185 215.743 37.9031 215.03 38.4677C214.316 39.0257 213.514 39.4508 212.625 39.7428C211.743 40.0348 210.799 40.1808 209.793 40.1808C208.093 40.1808 206.581 39.7655 205.257 38.9349C203.933 38.1043 202.892 36.9232 202.132 35.3918C201.373 33.8604 200.994 32.0434 200.994 29.9409C200.994 27.8384 201.373 26.0214 202.132 24.49C202.892 22.9586 203.933 21.7775 205.257 20.9469C206.581 20.1163 208.093 19.701 209.793 19.701C210.799 19.701 211.743 19.847 212.625 20.139C213.514 20.431 214.316 20.8593 215.03 21.4239C215.743 21.9819 216.34 22.6633 216.821 23.468C217.301 24.2661 217.632 25.1779 217.814 26.2031ZM224.264 34.3016V34.1848C224.277 32.9454 224.407 31.959 224.653 31.2258C224.9 30.4925 225.25 29.8987 225.704 29.4445C226.159 28.9902 226.704 28.5717 227.34 28.1888C227.722 27.9552 228.066 27.6794 228.371 27.3615C228.676 27.037 228.917 26.6639 229.092 26.2421C229.273 25.8203 229.364 25.3531 229.364 24.8404C229.364 24.2045 229.215 23.6529 228.917 23.1857C228.618 22.7185 228.219 22.3583 227.719 22.1052C227.22 21.8522 226.665 21.7256 226.055 21.7256C225.523 21.7256 225.01 21.8359 224.517 22.0566C224.024 22.2772 223.612 22.6244 223.281 23.0981C222.95 23.5718 222.758 24.1915 222.706 24.9572H220.253C220.305 23.8541 220.591 22.9099 221.11 22.1247C221.636 21.3395 222.327 20.7393 223.183 20.324C224.046 19.9086 225.004 19.701 226.055 19.701C227.197 19.701 228.19 19.9281 229.033 20.3824C229.883 20.8366 230.539 21.4596 231 22.2512C231.467 23.0429 231.7 23.9449 231.7 24.9572C231.7 25.671 231.59 26.3167 231.369 26.8942C231.155 27.4718 230.844 27.9877 230.435 28.4419C230.033 28.8961 229.546 29.2985 228.975 29.6489C228.404 30.0058 227.946 30.3822 227.602 30.778C227.259 31.1674 227.009 31.6313 226.853 32.1699C226.697 32.7085 226.613 33.3802 226.6 34.1848V34.3016H224.264ZM225.51 40.064C225.029 40.064 224.617 39.892 224.274 39.5481C223.93 39.2042 223.758 38.7921 223.758 38.3119C223.758 37.8317 223.93 37.4197 224.274 37.0757C224.617 36.7318 225.029 36.5599 225.51 36.5599C225.99 36.5599 226.402 36.7318 226.746 37.0757C227.09 37.4197 227.262 37.8317 227.262 38.3119C227.262 38.6299 227.181 38.9219 227.018 39.188C226.863 39.454 226.652 39.6682 226.386 39.8304C226.126 39.9861 225.834 40.064 225.51 40.064Z" fill="white"/>
<path d="M330.585 20.0556C330.585 9.20175 321.787 0.402954 310.933 0.402954V0.402954V28.8475H330.585V20.0556Z" fill="#278EFF" stroke="#278EFF" stroke-width="0.805851"/>
<rect width="19.6526" height="2.1217" transform="matrix(-1 0 0 1 330.585 28.8477)" fill="#278EFF" stroke="#278EFF" stroke-width="0.805851"/>
<path d="M310.933 30.9692V59.4136C315.692 59.4136 320.056 57.7211 323.457 54.9058C326.849 57.1658 332.288 59.3156 338.86 58.1206C337.05 57.3447 330.069 52.6904 330.327 43.3813C330.296 43.4236 330.262 43.463 330.229 43.5034C330.462 42.2919 330.586 41.0409 330.586 39.7612V30.9692H310.933Z" fill="#278EFF"/>
<path d="M310.933 30.9692H310.53V30.5663H310.933V30.9692ZM310.933 59.4136V59.8165H310.53V59.4136H310.933ZM323.457 54.9058L323.2 54.5954L323.431 54.4042L323.68 54.5704L323.457 54.9058ZM338.86 58.1206L339.019 57.7503L340.249 58.2776L338.932 58.517L338.86 58.1206ZM330.327 43.3813L330.001 43.1444L330.766 42.0928L330.73 43.3925L330.327 43.3813ZM330.229 43.5034L330.539 43.7597L329.833 43.4271L330.229 43.5034ZM330.586 39.7612H330.989V39.7612H330.586ZM330.586 30.9692V30.5663H330.989V30.9692H330.586ZM310.933 30.9692H311.336V59.4136H310.933H310.53V30.9692H310.933ZM310.933 59.4136V59.0106C315.595 59.0106 319.869 57.3532 323.2 54.5954L323.457 54.9058L323.714 55.2161C320.244 58.0891 315.79 59.8165 310.933 59.8165V59.4136ZM323.457 54.9058L323.68 54.5704C327.01 56.789 332.344 58.8958 338.788 57.7242L338.86 58.1206L338.932 58.517C332.232 59.7353 326.688 57.5427 323.234 55.2411L323.457 54.9058ZM338.86 58.1206L338.702 58.4909C337.735 58.0766 335.484 56.6779 333.503 54.2026C331.515 51.7174 329.792 48.1359 329.924 43.3702L330.327 43.3813L330.73 43.3925C330.604 47.9358 332.242 51.336 334.133 53.6992C336.031 56.0723 338.176 57.3888 339.019 57.7503L338.86 58.1206ZM330.327 43.3813L330.653 43.6183C330.613 43.6737 330.562 43.7323 330.539 43.7597L330.229 43.5034L329.918 43.2472C329.962 43.1938 329.98 43.1735 330.001 43.1444L330.327 43.3813ZM330.229 43.5034L329.833 43.4271C330.062 42.2403 330.183 41.0149 330.183 39.7612H330.586H330.989C330.989 41.067 330.862 42.3435 330.624 43.5797L330.229 43.5034ZM330.586 39.7612H330.183V30.9692H330.586H330.989V39.7612H330.586ZM330.586 30.9692V31.3722H310.933V30.9692V30.5663H330.586V30.9692Z" fill="#278EFF"/>
</svg>
