<svg width="341" height="90" viewBox="0 0 341 90" fill="none" xmlns="http://www.w3.org/2000/svg">
<path d="M9.66406 20.0556C9.66406 9.20175 18.4628 0.402954 29.3167 0.402954V0.402954V28.8475H9.66406V20.0556Z" fill="#26252A" stroke="#26252A" stroke-width="0.805851"/>
<rect x="9.66406" y="28.8474" width="19.6526" height="32.1217" fill="#26252A" stroke="#26252A" stroke-width="0.805851"/>
<path d="M29.3169 60.9692V89.4136C24.5572 89.4136 20.1931 87.7211 16.7925 84.9058C13.4001 87.1658 7.96139 89.3156 1.38916 88.1206C3.19942 87.3447 10.1809 82.6903 9.92236 73.3813C9.95309 73.4236 9.98772 73.463 10.021 73.5034C9.78742 72.2919 9.66357 71.041 9.66357 69.7612V60.9692H29.3169Z" fill="#26252A"/>
<path d="M29.3169 60.9692H29.7198V60.5663H29.3169V60.9692ZM29.3169 89.4136V89.8165H29.7198V89.4136H29.3169ZM16.7925 84.9058L17.0494 84.5954L16.8185 84.4042L16.5691 84.5704L16.7925 84.9058ZM1.38916 88.1206L1.23043 87.7503L0.000112772 88.2776L1.31708 88.517L1.38916 88.1206ZM9.92236 73.3813L10.2482 73.1444L9.48349 72.0928L9.51959 73.3925L9.92236 73.3813ZM10.021 73.5034L9.71006 73.7597L10.4166 73.4271L10.021 73.5034ZM9.66357 69.7612H9.26065V69.7612H9.66357ZM9.66357 60.9692V60.5663H9.26065V60.9692H9.66357ZM29.3169 60.9692H28.914V89.4136H29.3169H29.7198V60.9692H29.3169ZM29.3169 89.4136V89.0106C24.6545 89.0106 20.3805 87.3532 17.0494 84.5954L16.7925 84.9058L16.5355 85.2161C20.0057 88.0891 24.46 89.8165 29.3169 89.8165V89.4136ZM16.7925 84.9058L16.5691 84.5704C13.2391 86.789 7.90505 88.8958 1.46124 87.7242L1.38916 88.1206L1.31708 88.517C8.01773 89.7353 13.5612 87.5427 17.0159 85.2411L16.7925 84.9058ZM1.38916 88.1206L1.54789 88.4909C2.51474 88.0766 4.76599 86.6779 6.74621 84.2026C8.73435 81.7174 10.4575 78.1359 10.3251 73.3702L9.92236 73.3813L9.51959 73.3925C9.64579 77.9358 8.00749 81.336 6.11695 83.6992C4.21849 86.0723 2.07385 87.3888 1.23043 87.7503L1.38916 88.1206ZM9.92236 73.3813L9.5965 73.6183C9.63679 73.6737 9.68751 73.7323 9.71006 73.7597L10.021 73.5034L10.3319 73.2472C10.2879 73.1938 10.2694 73.1735 10.2482 73.1444L9.92236 73.3813ZM10.021 73.5034L10.4166 73.4271C10.1878 72.2403 10.0665 71.0149 10.0665 69.7612H9.66357H9.26065C9.26065 71.067 9.38702 72.3435 9.62536 73.5797L10.021 73.5034ZM9.66357 69.7612H10.0665V60.9692H9.66357H9.26065V69.7612H9.66357ZM9.66357 60.9692V61.3722H29.3169V60.9692V60.5663H9.66357V60.9692Z" fill="#26252A"/>
<rect x="29.3164" y="0.402954" width="290.877" height="89.0106" fill="#26252A"/>
<rect x="29.3164" y="0.402954" width="290.877" height="89.0106" stroke="#26252A" stroke-width="0.805851"/>
<path d="M37.8821 39.9083H31.7304V19.9735H38.1547C40.0884 19.9735 41.7432 20.3726 43.1189 21.1708C44.4946 21.9625 45.5491 23.1013 46.2823 24.5873C47.0156 26.0669 47.3823 27.8384 47.3823 29.902C47.3823 31.9785 47.0124 33.7663 46.2726 35.2653C45.5328 36.7578 44.4556 37.9064 43.041 38.711C41.6264 39.5092 39.9067 39.9083 37.8821 39.9083ZM34.1443 37.7668H37.7264C39.3746 37.7668 40.7406 37.4489 41.8243 36.8129C42.908 36.177 43.7159 35.2718 44.248 34.0972C44.7801 32.9227 45.0462 31.5243 45.0462 29.902C45.0462 28.2927 44.7833 26.9072 44.2577 25.7457C43.7321 24.5776 42.9469 23.6821 41.9021 23.0591C40.8574 22.4297 39.5563 22.115 37.9989 22.115H34.1443V37.7668ZM55.3826 40.2587C54.4352 40.2587 53.5754 40.0802 52.8032 39.7233C52.031 39.3599 51.4177 38.8376 50.9635 38.1562C50.5093 37.4683 50.2821 36.6377 50.2821 35.6643C50.2821 34.8078 50.4508 34.1134 50.7883 33.5813C51.1257 33.0427 51.5767 32.6209 52.1413 32.3159C52.7058 32.0109 53.3288 31.7838 54.0102 31.6346C54.698 31.4788 55.3891 31.3555 56.0834 31.2647C56.9919 31.1479 57.7285 31.0603 58.293 31.0019C58.8641 30.937 59.2794 30.8299 59.5389 30.6807C59.805 30.5314 59.938 30.2718 59.938 29.902V29.8241C59.938 28.8637 59.6752 28.1174 59.1496 27.5853C58.6304 27.0532 57.842 26.7872 56.7843 26.7872C55.6876 26.7872 54.8278 27.0273 54.2048 27.5075C53.5819 27.9877 53.1439 28.5003 52.8908 29.0454L50.7104 28.2667C51.0998 27.3582 51.6189 26.6509 52.2678 26.1447C52.9232 25.6321 53.637 25.2752 54.4092 25.074C55.1879 24.8664 55.9537 24.7625 56.7064 24.7625C57.1866 24.7625 57.7382 24.8209 58.3611 24.9378C58.9906 25.0481 59.5973 25.2784 60.1814 25.6288C60.7719 25.9793 61.2618 26.5081 61.6512 27.2155C62.0405 27.9228 62.2352 28.8702 62.2352 30.0577V39.9083H59.938V37.8836H59.8212C59.6655 38.2081 59.4059 38.5553 59.0425 38.9252C58.6791 39.295 58.1957 39.6098 57.5922 39.8693C56.9887 40.1289 56.2522 40.2587 55.3826 40.2587ZM55.733 38.1951C56.6415 38.1951 57.4072 38.0167 58.0302 37.6598C58.6596 37.3029 59.1334 36.8421 59.4513 36.2776C59.7758 35.713 59.938 35.1193 59.938 34.4963V32.3938C59.8407 32.5106 59.6265 32.6177 59.2956 32.715C58.9711 32.8059 58.5948 32.887 58.1665 32.9584C57.7447 33.0233 57.3326 33.0817 56.9303 33.1336C56.5344 33.179 56.2132 33.2179 55.9666 33.2504C55.3696 33.3282 54.8116 33.4548 54.2924 33.63C53.7798 33.7987 53.3645 34.055 53.0465 34.399C52.735 34.7364 52.5793 35.1971 52.5793 35.7812C52.5793 36.5793 52.8746 37.1828 53.4651 37.5916C54.0621 37.994 54.8181 38.1951 55.733 38.1951ZM76.8813 28.3056L74.8177 28.8897C74.6879 28.5457 74.4965 28.2115 74.2434 27.8871C73.9968 27.5561 73.6594 27.2836 73.2311 27.0694C72.8028 26.8553 72.2545 26.7482 71.5861 26.7482C70.6711 26.7482 69.9087 26.9591 69.2987 27.3809C68.6952 27.7962 68.3934 28.3251 68.3934 28.9675C68.3934 29.5386 68.6011 29.9896 69.0164 30.3205C69.4317 30.6515 70.0806 30.9273 70.9631 31.1479L73.1824 31.693C74.5192 32.0174 75.5153 32.5139 76.1707 33.1822C76.8261 33.8441 77.1538 34.6975 77.1538 35.7422C77.1538 36.5988 76.9072 37.3645 76.414 38.0394C75.9274 38.7143 75.246 39.2464 74.37 39.6357C73.4939 40.0251 72.4751 40.2197 71.3136 40.2197C69.7886 40.2197 68.5265 39.8888 67.5271 39.2269C66.5278 38.565 65.8951 37.5981 65.629 36.3262L67.8094 35.7812C68.0171 36.5858 68.4097 37.1893 68.9872 37.5916C69.5712 37.994 70.3337 38.1951 71.2746 38.1951C72.3453 38.1951 73.1954 37.968 73.8249 37.5138C74.4608 37.053 74.7788 36.5015 74.7788 35.859C74.7788 35.3399 74.5971 34.9051 74.2337 34.5547C73.8703 34.1978 73.3122 33.9317 72.5595 33.7565L70.0676 33.1725C68.6984 32.848 67.6926 32.3451 67.0502 31.6638C66.4142 30.9759 66.0963 30.1161 66.0963 29.0843C66.0963 28.2407 66.3331 27.4945 66.8068 26.8456C67.287 26.1967 67.9392 25.6873 68.7633 25.3174C69.5939 24.9475 70.5349 24.7625 71.5861 24.7625C73.0656 24.7625 74.2272 25.087 75.0708 25.7359C75.9209 26.3848 76.5244 27.2414 76.8813 28.3056ZM82.7718 30.9143V39.9083H80.4747V19.9735H82.7718V27.2933H82.9665C83.3169 26.5211 83.8426 25.9079 84.5434 25.4536C85.2507 24.9929 86.1916 24.7625 87.3662 24.7625C88.385 24.7625 89.2772 24.967 90.043 25.3758C90.8087 25.7781 91.4024 26.3978 91.8242 27.2349C92.2525 28.0655 92.4667 29.1233 92.4667 30.4081V39.9083H90.1695V30.5639C90.1695 29.3763 89.8613 28.4581 89.2448 27.8092C88.6348 27.1538 87.788 26.8261 86.7043 26.8261C85.9515 26.8261 85.2767 26.9851 84.6797 27.3031C84.0891 27.621 83.6219 28.085 83.278 28.695C82.9406 29.305 82.7718 30.0447 82.7718 30.9143ZM96.8436 39.9083V19.9735H99.1408V27.3323H99.3355C99.5042 27.0727 99.7378 26.7417 100.036 26.3394C100.341 25.9306 100.776 25.5672 101.341 25.2492C101.912 24.9248 102.684 24.7625 103.657 24.7625C104.916 24.7625 106.026 25.0773 106.986 25.7067C107.947 26.3362 108.696 27.2284 109.235 28.3835C109.773 29.5386 110.043 30.9013 110.043 32.4717C110.043 34.055 109.773 35.4275 109.235 36.5891C108.696 37.7441 107.95 38.6396 106.996 39.2756C106.042 39.905 104.942 40.2197 103.696 40.2197C102.736 40.2197 101.967 40.0608 101.389 39.7428C100.812 39.4183 100.367 39.0517 100.056 38.6429C99.7443 38.2276 99.5042 37.8836 99.3355 37.6111H99.0629V39.9083H96.8436ZM99.1019 32.4327C99.1019 33.5619 99.2673 34.5579 99.5983 35.421C99.9292 36.2776 100.413 36.9492 101.049 37.4359C101.685 37.9161 102.463 38.1562 103.385 38.1562C104.345 38.1562 105.147 37.9031 105.789 37.397C106.438 36.8843 106.925 36.1965 107.249 35.3334C107.58 34.4639 107.745 33.497 107.745 32.4327C107.745 31.3815 107.583 30.4341 107.259 29.5905C106.941 28.7404 106.457 28.0688 105.808 27.5756C105.166 27.0759 104.358 26.8261 103.385 26.8261C102.45 26.8261 101.665 27.063 101.029 27.5367C100.393 28.0039 99.913 28.6593 99.5886 29.5029C99.2641 30.34 99.1019 31.3166 99.1019 32.4327ZM119.493 40.2197C118.144 40.2197 116.959 39.8985 115.94 39.2561C114.928 38.6137 114.136 37.7149 113.565 36.5599C113.001 35.4048 112.719 34.055 112.719 32.5106C112.719 30.9532 113.001 29.5937 113.565 28.4322C114.136 27.2706 114.928 26.3686 115.94 25.7262C116.959 25.0838 118.144 24.7625 119.493 24.7625C120.843 24.7625 122.024 25.0838 123.036 25.7262C124.055 26.3686 124.847 27.2706 125.411 28.4322C125.982 29.5937 126.268 30.9532 126.268 32.5106C126.268 34.055 125.982 35.4048 125.411 36.5599C124.847 37.7149 124.055 38.6137 123.036 39.2561C122.024 39.8985 120.843 40.2197 119.493 40.2197ZM119.493 38.1562C120.519 38.1562 121.362 37.8934 122.024 37.3678C122.686 36.8421 123.176 36.151 123.494 35.2945C123.812 34.4379 123.971 33.5099 123.971 32.5106C123.971 31.5113 123.812 30.5801 123.494 29.717C123.176 28.854 122.686 28.1564 122.024 27.6243C121.362 27.0922 120.519 26.8261 119.493 26.8261C118.468 26.8261 117.624 27.0922 116.963 27.6243C116.301 28.1564 115.811 28.854 115.493 29.717C115.175 30.5801 115.016 31.5113 115.016 32.5106C115.016 33.5099 115.175 34.4379 115.493 35.2945C115.811 36.151 116.301 36.8421 116.963 37.3678C117.624 37.8934 118.468 38.1562 119.493 38.1562ZM134.037 40.2587C133.09 40.2587 132.23 40.0802 131.458 39.7233C130.686 39.3599 130.072 38.8376 129.618 38.1562C129.164 37.4683 128.937 36.6377 128.937 35.6643C128.937 34.8078 129.105 34.1134 129.443 33.5813C129.78 33.0427 130.231 32.6209 130.796 32.3159C131.36 32.0109 131.983 31.7838 132.665 31.6346C133.353 31.4788 134.044 31.3555 134.738 31.2647C135.646 31.1479 136.383 31.0603 136.948 31.0019C137.519 30.937 137.934 30.8299 138.193 30.6807C138.46 30.5314 138.593 30.2718 138.593 29.902V29.8241C138.593 28.8637 138.33 28.1174 137.804 27.5853C137.285 27.0532 136.497 26.7872 135.439 26.7872C134.342 26.7872 133.482 27.0273 132.859 27.5075C132.236 27.9877 131.798 28.5003 131.545 29.0454L129.365 28.2667C129.754 27.3582 130.273 26.6509 130.922 26.1447C131.578 25.6321 132.292 25.2752 133.064 25.074C133.843 24.8664 134.608 24.7625 135.361 24.7625C135.841 24.7625 136.393 24.8209 137.016 24.9378C137.645 25.0481 138.252 25.2784 138.836 25.6288C139.426 25.9793 139.916 26.5081 140.306 27.2155C140.695 27.9228 140.89 28.8702 140.89 30.0577V39.9083H138.593V37.8836H138.476C138.32 38.2081 138.06 38.5553 137.697 38.9252C137.334 39.295 136.85 39.6098 136.247 39.8693C135.643 40.1289 134.907 40.2587 134.037 40.2587ZM134.388 38.1951C135.296 38.1951 136.062 38.0167 136.685 37.6598C137.314 37.3029 137.788 36.8421 138.106 36.2776C138.43 35.713 138.593 35.1193 138.593 34.4963V32.3938C138.495 32.5106 138.281 32.6177 137.95 32.715C137.626 32.8059 137.249 32.887 136.821 32.9584C136.399 33.0233 135.987 33.0817 135.585 33.1336C135.189 33.179 134.868 33.2179 134.621 33.2504C134.024 33.3282 133.466 33.4548 132.947 33.63C132.434 33.7987 132.019 34.055 131.701 34.399C131.39 34.7364 131.234 35.1971 131.234 35.7812C131.234 36.5793 131.529 37.1828 132.12 37.5916C132.717 37.994 133.473 38.1951 134.388 38.1951ZM144.946 39.9083V24.9572H147.165V27.2155H147.321C147.593 26.4757 148.086 25.8754 148.8 25.4147C149.514 24.954 150.319 24.7236 151.214 24.7236C151.383 24.7236 151.594 24.7269 151.847 24.7333C152.1 24.7398 152.291 24.7496 152.421 24.7625V27.0986C152.343 27.0792 152.165 27.05 151.886 27.011C151.613 26.9656 151.324 26.9429 151.019 26.9429C150.293 26.9429 149.644 27.0954 149.073 27.4004C148.508 27.6989 148.06 28.1142 147.729 28.6463C147.405 29.1719 147.243 29.7722 147.243 30.4471V39.9083H144.946ZM160.198 40.2197C158.952 40.2197 157.852 39.905 156.898 39.2756C155.944 38.6396 155.198 37.7441 154.659 36.5891C154.12 35.4275 153.851 34.055 153.851 32.4717C153.851 30.9013 154.12 29.5386 154.659 28.3835C155.198 27.2284 155.947 26.3362 156.908 25.7067C157.868 25.0773 158.978 24.7625 160.236 24.7625C161.21 24.7625 161.979 24.9248 162.543 25.2492C163.114 25.5672 163.549 25.9306 163.848 26.3394C164.153 26.7417 164.39 27.0727 164.558 27.3323H164.753V19.9735H167.05V39.9083H164.831V37.6111H164.558C164.39 37.8836 164.149 38.2276 163.838 38.6429C163.526 39.0517 163.082 39.4183 162.504 39.7428C161.927 40.0608 161.158 40.2197 160.198 40.2197ZM160.509 38.1562C161.43 38.1562 162.209 37.9161 162.845 37.4359C163.481 36.9492 163.964 36.2776 164.295 35.421C164.626 34.5579 164.792 33.5619 164.792 32.4327C164.792 31.3166 164.63 30.34 164.305 29.5029C163.981 28.6593 163.501 28.0039 162.865 27.5367C162.229 27.063 161.443 26.8261 160.509 26.8261C159.536 26.8261 158.724 27.0759 158.076 27.5756C157.433 28.0688 156.95 28.7404 156.625 29.5905C156.307 30.4341 156.148 31.3815 156.148 32.4327C156.148 33.497 156.311 34.4639 156.635 35.3334C156.966 36.1965 157.453 36.8843 158.095 37.397C158.744 37.9031 159.549 38.1562 160.509 38.1562ZM179.011 39.9083V24.9572H181.231V27.2933H181.425C181.737 26.4952 182.24 25.8754 182.934 25.4342C183.628 24.9864 184.462 24.7625 185.436 24.7625C186.422 24.7625 187.243 24.9864 187.898 25.4342C188.56 25.8754 189.076 26.4952 189.446 27.2933H189.602C189.984 26.5211 190.559 25.9079 191.325 25.4536C192.09 24.9929 193.008 24.7625 194.079 24.7625C195.416 24.7625 196.509 25.1811 197.359 26.0182C198.21 26.8488 198.635 28.1434 198.635 29.902V39.9083H196.337V29.902C196.337 28.7988 196.036 28.0104 195.432 27.5367C194.829 27.063 194.118 26.8261 193.3 26.8261C192.249 26.8261 191.435 27.1441 190.857 27.78C190.28 28.4095 189.991 29.2076 189.991 30.1745V39.9083H187.655V29.6684C187.655 28.8183 187.379 28.1337 186.828 27.6145C186.276 27.0889 185.565 26.8261 184.696 26.8261C184.099 26.8261 183.541 26.9851 183.022 27.3031C182.509 27.621 182.094 28.0623 181.776 28.6268C181.464 29.1849 181.308 29.8306 181.308 30.5639V39.9083H179.011ZM202.698 39.9083V24.9572H204.995V39.9083H202.698ZM203.866 22.4654C203.418 22.4654 203.032 22.3129 202.707 22.0079C202.389 21.7029 202.23 21.3363 202.23 20.908C202.23 20.4797 202.389 20.1131 202.707 19.8081C203.032 19.5031 203.418 19.3506 203.866 19.3506C204.313 19.3506 204.696 19.5031 205.014 19.8081C205.339 20.1131 205.501 20.4797 205.501 20.908C205.501 21.3363 205.339 21.7029 205.014 22.0079C204.696 22.3129 204.313 22.4654 203.866 22.4654ZM215.1 45.8264C213.99 45.8264 213.037 45.6836 212.238 45.3981C211.44 45.1191 210.775 44.7492 210.243 44.2885C209.717 43.8342 209.299 43.3475 208.987 42.8284L210.817 41.5435C211.025 41.8161 211.288 42.1276 211.606 42.478C211.924 42.8349 212.358 43.1431 212.91 43.4027C213.468 43.6687 214.198 43.8018 215.1 43.8018C216.307 43.8018 217.303 43.5098 218.088 42.9257C218.874 42.3417 219.266 41.4267 219.266 40.1808V37.1439H219.071C218.903 37.4164 218.663 37.7539 218.351 38.1562C218.046 38.552 217.605 38.9057 217.027 39.2172C216.456 39.5222 215.684 39.6747 214.711 39.6747C213.504 39.6747 212.42 39.3891 211.46 38.8181C210.506 38.247 209.75 37.4164 209.192 36.3262C208.64 35.2361 208.364 33.9123 208.364 32.3549C208.364 30.8234 208.634 29.4899 209.172 28.3543C209.711 27.2122 210.46 26.3297 211.421 25.7067C212.381 25.0773 213.491 24.7625 214.75 24.7625C215.723 24.7625 216.495 24.9248 217.066 25.2492C217.644 25.5672 218.085 25.9306 218.39 26.3394C218.702 26.7417 218.942 27.0727 219.11 27.3323H219.344V24.9572H221.563V40.3365C221.563 41.6214 221.271 42.6662 220.687 43.4708C220.11 44.282 219.331 44.8757 218.351 45.2521C217.378 45.635 216.294 45.8264 215.1 45.8264ZM215.022 37.6111C215.944 37.6111 216.722 37.4002 217.358 36.9784C217.994 36.5566 218.478 35.9499 218.809 35.1582C219.14 34.3665 219.305 33.4191 219.305 32.3159C219.305 31.2387 219.143 30.2881 218.818 29.4639C218.494 28.6398 218.014 27.9942 217.378 27.5269C216.742 27.0597 215.957 26.8261 215.022 26.8261C214.049 26.8261 213.238 27.0727 212.589 27.5659C211.946 28.059 211.463 28.7209 211.138 29.5516C210.82 30.3822 210.661 31.3036 210.661 32.3159C210.661 33.3542 210.824 34.2724 211.148 35.0706C211.479 35.8623 211.966 36.4852 212.608 36.9395C213.257 37.3872 214.062 37.6111 215.022 37.6111ZM227.928 30.9143V39.9083H225.631V19.9735H227.928V27.2933H228.123C228.473 26.5211 228.999 25.9079 229.7 25.4536C230.407 24.9929 231.348 24.7625 232.523 24.7625C233.542 24.7625 234.434 24.967 235.199 25.3758C235.965 25.7781 236.559 26.3978 236.981 27.2349C237.409 28.0655 237.623 29.1233 237.623 30.4081V39.9083H235.326V30.5639C235.326 29.3763 235.018 28.4581 234.401 27.8092C233.791 27.1538 232.945 26.8261 231.861 26.8261C231.108 26.8261 230.433 26.9851 229.836 27.3031C229.246 27.621 228.778 28.085 228.435 28.695C228.097 29.305 227.928 30.0447 227.928 30.9143ZM248.191 24.9572V26.904H240.443V24.9572H248.191ZM242.701 21.3752H244.998V35.6254C244.998 36.2743 245.092 36.761 245.28 37.0855C245.475 37.4034 245.722 37.6176 246.02 37.7279C246.325 37.8317 246.646 37.8836 246.984 37.8836C247.237 37.8836 247.445 37.8707 247.607 37.8447C247.769 37.8123 247.899 37.7863 247.996 37.7668L248.463 39.8304C248.308 39.8888 248.09 39.9472 247.811 40.0056C247.532 40.0705 247.179 40.1029 246.75 40.1029C246.101 40.1029 245.465 39.9634 244.842 39.6844C244.226 39.4054 243.713 38.9803 243.304 38.4093C242.902 37.8382 242.701 37.1179 242.701 36.2484V21.3752ZM261.379 30.9143V39.9083H259.081V19.9735H261.379V27.2933H261.573C261.924 26.5211 262.449 25.9079 263.15 25.4536C263.857 24.9929 264.798 24.7625 265.973 24.7625C266.992 24.7625 267.884 24.967 268.65 25.3758C269.415 25.7781 270.009 26.3978 270.431 27.2349C270.859 28.0655 271.073 29.1233 271.073 30.4081V39.9083H268.776V30.5639C268.776 29.3763 268.468 28.4581 267.851 27.8092C267.241 27.1538 266.395 26.8261 265.311 26.8261C264.558 26.8261 263.883 26.9851 263.286 27.3031C262.696 27.621 262.229 28.085 261.885 28.695C261.547 29.305 261.379 30.0447 261.379 30.9143ZM279.538 40.2587C278.591 40.2587 277.731 40.0802 276.959 39.7233C276.187 39.3599 275.574 38.8376 275.119 38.1562C274.665 37.4683 274.438 36.6377 274.438 35.6643C274.438 34.8078 274.607 34.1134 274.944 33.5813C275.282 33.0427 275.733 32.6209 276.297 32.3159C276.862 32.0109 277.485 31.7838 278.166 31.6346C278.854 31.4788 279.545 31.3555 280.239 31.2647C281.148 31.1479 281.884 31.0603 282.449 31.0019C283.02 30.937 283.435 30.8299 283.695 30.6807C283.961 30.5314 284.094 30.2718 284.094 29.902V29.8241C284.094 28.8637 283.831 28.1174 283.305 27.5853C282.786 27.0532 281.998 26.7872 280.94 26.7872C279.843 26.7872 278.984 27.0273 278.361 27.5075C277.738 27.9877 277.3 28.5003 277.047 29.0454L274.866 28.2667C275.256 27.3582 275.775 26.6509 276.424 26.1447C277.079 25.6321 277.793 25.2752 278.565 25.074C279.344 24.8664 280.11 24.7625 280.862 24.7625C281.342 24.7625 281.894 24.8209 282.517 24.9378C283.146 25.0481 283.753 25.2784 284.337 25.6288C284.928 25.9793 285.418 26.5081 285.807 27.2155C286.196 27.9228 286.391 28.8702 286.391 30.0577V39.9083H284.094V37.8836H283.977C283.821 38.2081 283.562 38.5553 283.198 38.9252C282.835 39.295 282.352 39.6098 281.748 39.8693C281.145 40.1289 280.408 40.2587 279.538 40.2587ZM279.889 38.1951C280.797 38.1951 281.563 38.0167 282.186 37.6598C282.816 37.3029 283.289 36.8421 283.607 36.2776C283.932 35.713 284.094 35.1193 284.094 34.4963V32.3938C283.997 32.5106 283.782 32.6177 283.451 32.715C283.127 32.8059 282.751 32.887 282.322 32.9584C281.901 33.0233 281.488 33.0817 281.086 33.1336C280.69 33.179 280.369 33.2179 280.123 33.2504C279.526 33.3282 278.967 33.4548 278.448 33.63C277.936 33.7987 277.52 34.055 277.202 34.399C276.891 34.7364 276.735 35.1971 276.735 35.7812C276.735 36.5793 277.03 37.1828 277.621 37.5916C278.218 37.994 278.974 38.1951 279.889 38.1951ZM302.137 24.9572L296.608 39.9083H294.272L288.743 24.9572H291.235L295.362 36.8713H295.518L299.645 24.9572H302.137ZM310.765 40.2197C309.325 40.2197 308.082 39.9018 307.037 39.2658C305.999 38.6234 305.198 37.7279 304.633 36.5793C304.075 35.4242 303.796 34.081 303.796 32.5495C303.796 31.0181 304.075 29.6684 304.633 28.5003C305.198 27.3258 305.983 26.4108 306.989 25.7554C308.001 25.0935 309.182 24.7625 310.532 24.7625C311.31 24.7625 312.079 24.8923 312.839 25.1519C313.598 25.4115 314.289 25.8333 314.912 26.4173C315.535 26.9948 316.031 27.7605 316.401 28.7144C316.771 29.6684 316.956 30.8429 316.956 32.2381V33.2114H305.431V31.2258H314.62C314.62 30.3822 314.451 29.6294 314.114 28.9675C313.783 28.3056 313.309 27.7833 312.693 27.4004C312.083 27.0175 311.362 26.8261 310.532 26.8261C309.617 26.8261 308.825 27.0532 308.157 27.5075C307.495 27.9552 306.985 28.5392 306.628 29.2595C306.271 29.9798 306.093 30.752 306.093 31.5762V32.9C306.093 34.0291 306.288 34.9862 306.677 35.7714C307.073 36.5501 307.621 37.1439 308.322 37.5527C309.023 37.955 309.837 38.1562 310.765 38.1562C311.369 38.1562 311.914 38.0718 312.4 37.9031C312.894 37.7279 313.319 37.4683 313.676 37.1244C314.033 36.774 314.308 36.3392 314.503 35.8201L316.722 36.443C316.489 37.1958 316.096 37.8577 315.544 38.4287C314.993 38.9933 314.312 39.4346 313.5 39.7525C312.689 40.064 311.778 40.2197 310.765 40.2197ZM31.4189 69.9083V54.9572H33.7161V69.9083H31.4189ZM32.5869 52.4654C32.1392 52.4654 31.7531 52.3129 31.4286 52.0079C31.1107 51.7029 30.9517 51.3363 30.9517 50.908C30.9517 50.4797 31.1107 50.1131 31.4286 49.8081C31.7531 49.5031 32.1392 49.3506 32.5869 49.3506C33.0347 49.3506 33.4176 49.5031 33.7355 49.8081C34.06 50.1131 34.2222 50.4797 34.2222 50.908C34.2222 51.3363 34.06 51.7029 33.7355 52.0079C33.4176 52.3129 33.0347 52.4654 32.5869 52.4654ZM44.2886 54.9572V56.904H36.5405V54.9572H44.2886ZM38.7987 51.3752H41.0959V65.6254C41.0959 66.2743 41.19 66.761 41.3782 67.0855C41.5729 67.4034 41.8194 67.6176 42.1179 67.7279C42.4229 67.8317 42.7442 67.8836 43.0816 67.8836C43.3347 67.8836 43.5423 67.8707 43.7045 67.8447C43.8668 67.8123 43.9966 67.7863 44.0939 67.7668L44.5611 69.8304C44.4054 69.8888 44.188 69.9472 43.909 70.0056C43.6299 70.0705 43.2763 70.1029 42.848 70.1029C42.1991 70.1029 41.5631 69.9634 40.9402 69.6844C40.3237 69.4054 39.811 68.9803 39.4022 68.4093C38.9999 67.8382 38.7987 67.1179 38.7987 66.2484V51.3752Z" fill="white"/>
<path d="M339.847 20.0556C339.847 9.20175 331.048 0.402954 320.194 0.402954V0.402954V28.8475H339.847V20.0556Z" fill="#26252A" stroke="#26252A" stroke-width="0.805851"/>
<rect width="19.6526" height="32.1214" transform="matrix(-1 0 0 1 339.847 28.8476)" fill="#26252A" stroke="#26252A" stroke-width="0.805851"/>
<path d="M339.847 69.7609C339.847 80.6148 331.048 89.4136 320.194 89.4136V89.4136V60.969H339.847V69.7609Z" fill="#26252A" stroke="#26252A" stroke-width="0.805851"/>
</svg>
