<svg width="341" height="90" viewBox="0 0 341 90" fill="none" xmlns="http://www.w3.org/2000/svg">
<path d="M9.66455 20.0556C9.66455 9.20175 18.4633 0.402954 29.3172 0.402954V0.402954V28.8475H9.66455V20.0556Z" fill="#26252A" stroke="#26252A" stroke-width="0.805851"/>
<rect x="9.66455" y="28.8475" width="19.6526" height="32.1217" fill="#26252A" stroke="#26252A" stroke-width="0.805851"/>
<path d="M29.3169 60.9692V89.4136C24.5574 89.4136 20.193 87.7219 16.7925 84.9067C13.4001 87.1667 7.96104 89.3155 1.38916 88.1206C3.19927 87.3448 10.181 82.6905 9.92236 73.3813C9.95307 73.4236 9.98774 73.4631 10.021 73.5034C9.78742 72.2919 9.66455 71.0409 9.66455 69.7612V60.9692H29.3169Z" fill="#26252A"/>
<path d="M29.3169 60.9692H29.7198V60.5663H29.3169V60.9692ZM29.3169 89.4136V89.8165H29.7198V89.4136H29.3169ZM16.7925 84.9067L17.0494 84.5964L16.8185 84.4052L16.5691 84.5714L16.7925 84.9067ZM1.38916 88.1206L1.23044 87.7503L4.59179e-05 88.2776L1.31708 88.517L1.38916 88.1206ZM9.92236 73.3813L10.2482 73.1444L9.48349 72.0929L9.51959 73.3925L9.92236 73.3813ZM10.021 73.5034L9.71004 73.7597L10.4166 73.4271L10.021 73.5034ZM9.66455 60.9692V60.5663H9.26163V60.9692H9.66455ZM29.3169 60.9692H28.914V89.4136H29.3169H29.7198V60.9692H29.3169ZM29.3169 89.4136V89.0106C24.6546 89.0106 20.3804 87.3539 17.0494 84.5964L16.7925 84.9067L16.5355 85.2171C20.0057 88.0899 24.4602 89.8165 29.3169 89.8165V89.4136ZM16.7925 84.9067L16.5691 84.5714C13.2391 86.7898 7.90474 88.8957 1.46124 87.7242L1.38916 88.1206L1.31708 88.517C8.01733 89.7353 13.5611 87.5436 17.0159 85.2421L16.7925 84.9067ZM1.38916 88.1206L1.54788 88.491C2.51466 88.0766 4.76591 86.678 6.74616 84.2027C8.73431 81.7175 10.4575 78.1359 10.3251 73.3702L9.92236 73.3813L9.51959 73.3925C9.6458 77.9359 8.00746 81.3361 6.11689 83.6993C4.21841 86.0724 2.07377 87.3888 1.23044 87.7503L1.38916 88.1206ZM9.92236 73.3813L9.5965 73.6183C9.63676 73.6737 9.68755 73.7324 9.71004 73.7597L10.021 73.5034L10.3319 73.2472C10.2879 73.1938 10.2694 73.1734 10.2482 73.1444L9.92236 73.3813ZM10.021 73.5034L10.4166 73.4271C10.1879 72.2405 10.0675 71.0151 10.0675 69.7612H9.66455H9.26163C9.26163 71.0668 9.38698 72.3433 9.62536 73.5797L10.021 73.5034ZM9.66455 69.7612H10.0675V60.9692H9.66455H9.26163V69.7612H9.66455ZM9.66455 60.9692V61.3722H29.3169V60.9692V60.5663H9.66455V60.9692Z" fill="#26252A"/>
<rect x="29.3164" y="0.402954" width="290.877" height="89.0106" fill="#26252A"/>
<rect x="29.3164" y="0.402954" width="290.877" height="89.0106" stroke="#26252A" stroke-width="0.805851"/>
<path d="M32.548 39.9083H30.0172L37.337 19.9736H39.8289L47.1486 39.9083H44.6179L38.6608 23.1273H38.5051L32.548 39.9083ZM33.4825 32.1213H43.6834V34.2627H33.4825V32.1213ZM55.879 40.2198C54.4774 40.2198 53.2704 39.8889 52.2581 39.227C51.2458 38.5651 50.4671 37.6533 49.922 36.4918C49.3769 35.3302 49.1043 34.0032 49.1043 32.5107C49.1043 30.9922 49.3834 29.6522 49.9414 28.4906C50.506 27.3226 51.2912 26.4109 52.297 25.7554C53.3093 25.0936 54.4904 24.7626 55.8401 24.7626C56.8913 24.7626 57.8388 24.9573 58.6824 25.3466C59.526 25.736 60.217 26.2811 60.7556 26.9819C61.2942 27.6827 61.6284 28.5004 61.7582 29.4348H59.4611C59.2859 28.7534 58.8965 28.15 58.293 27.6243C57.696 27.0922 56.8913 26.8262 55.879 26.8262C54.9835 26.8262 54.1983 27.0598 53.5235 27.527C52.8551 27.9877 52.3327 28.6399 51.9563 29.4835C51.5865 30.3206 51.4015 31.3037 51.4015 32.4328C51.4015 33.5879 51.5832 34.5937 51.9466 35.4503C52.3165 36.3068 52.8356 36.972 53.504 37.4457C54.1789 37.9194 54.9706 38.1562 55.879 38.1562C56.476 38.1562 57.0179 38.0524 57.5046 37.8448C57.9913 37.6371 58.4033 37.3386 58.7408 36.9493C59.0782 36.5599 59.3183 36.0927 59.4611 35.5476H61.7582C61.6284 36.4301 61.3072 37.2251 60.7946 37.9324C60.2884 38.6332 59.6168 39.1913 58.7797 39.6066C57.9491 40.0154 56.9822 40.2198 55.879 40.2198ZM71.4815 24.9573V26.904H63.7334V24.9573H71.4815ZM65.9916 21.3753H68.2888V35.6255C68.2888 36.2744 68.3829 36.7611 68.5711 37.0855C68.7657 37.4035 69.0123 37.6176 69.3108 37.728C69.6158 37.8318 69.937 37.8837 70.2745 37.8837C70.5276 37.8837 70.7352 37.8707 70.8974 37.8448C71.0597 37.8123 71.1895 37.7864 71.2868 37.7669L71.754 39.8305C71.5983 39.8889 71.3809 39.9473 71.1018 40.0057C70.8228 40.0706 70.4692 40.103 70.0409 40.103C69.392 40.103 68.756 39.9635 68.1331 39.6844C67.5166 39.4054 67.0039 38.9804 66.5951 38.4093C66.1928 37.8383 65.9916 37.118 65.9916 36.2484V21.3753ZM84.2222 33.7955V24.9573H86.5193V39.9083H84.2222V37.3775H84.0664C83.716 38.1368 83.1709 38.7825 82.4312 39.3146C81.6914 39.8402 80.757 40.103 79.6278 40.103C78.6934 40.103 77.8628 39.8986 77.136 39.4898C76.4092 39.0745 75.8382 38.4515 75.4229 37.6209C75.0076 36.7838 74.7999 35.7293 74.7999 34.4574V24.9573H77.0971V34.3017C77.0971 35.3919 77.4021 36.2614 78.012 36.9103C78.6285 37.5592 79.4137 37.8837 80.3676 37.8837C80.9387 37.8837 81.5194 37.7377 82.1099 37.4457C82.7069 37.1537 83.2066 36.7059 83.6089 36.1024C84.0178 35.4989 84.2222 34.73 84.2222 33.7955ZM94.9894 40.2587C94.0419 40.2587 93.1821 40.0803 92.4099 39.7234C91.6377 39.36 91.0245 38.8376 90.5702 38.1562C90.116 37.4684 89.8889 36.6378 89.8889 35.6644C89.8889 34.8078 90.0576 34.1135 90.395 33.5814C90.7325 33.0428 91.1835 32.621 91.748 32.316C92.3126 32.011 92.9355 31.7839 93.6169 31.6346C94.3047 31.4789 94.9958 31.3556 95.6902 31.2648C96.5987 31.1479 97.3352 31.0603 97.8997 31.0019C98.4708 30.937 98.8861 30.83 99.1457 30.6807C99.4117 30.5315 99.5448 30.2719 99.5448 29.902V29.8242C99.5448 28.8638 99.2819 28.1175 98.7563 27.5854C98.2372 27.0533 97.4488 26.7872 96.391 26.7872C95.2943 26.7872 94.4345 27.0273 93.8116 27.5075C93.1886 27.9877 92.7506 28.5004 92.4975 29.0455L90.3172 28.2668C90.7065 27.3583 91.2256 26.651 91.8746 26.1448C92.53 25.6322 93.2438 25.2752 94.016 25.0741C94.7947 24.8664 95.5604 24.7626 96.3131 24.7626C96.7933 24.7626 97.3449 24.821 97.9679 24.9378C98.5973 25.0481 99.2041 25.2785 99.7881 25.6289C100.379 25.9793 100.869 26.5082 101.258 27.2155C101.647 27.9228 101.842 28.8702 101.842 30.0578V39.9083H99.5448V37.8837H99.4279C99.2722 38.2082 99.0126 38.5553 98.6492 38.9252C98.2859 39.2951 97.8024 39.6098 97.1989 39.8694C96.5954 40.129 95.8589 40.2587 94.9894 40.2587ZM95.3398 38.1952C96.2483 38.1952 97.014 38.0167 97.6369 37.6598C98.2664 37.3029 98.7401 36.8422 99.0581 36.2776C99.3825 35.7131 99.5448 35.1193 99.5448 34.4964V32.3939C99.4474 32.5107 99.2333 32.6177 98.9023 32.7151C98.5779 32.8059 98.2015 32.887 97.7732 32.9584C97.3514 33.0233 96.9394 33.0817 96.537 33.1336C96.1412 33.1791 95.82 33.218 95.5734 33.2504C94.9764 33.3283 94.4183 33.4548 93.8992 33.6301C93.3865 33.7988 92.9712 34.0551 92.6533 34.399C92.3418 34.7365 92.186 35.1972 92.186 35.7812C92.186 36.5794 92.4813 37.1829 93.0718 37.5917C93.6688 37.994 94.4248 38.1952 95.3398 38.1952ZM108.195 19.9736V39.9083H105.898V19.9736H108.195ZM114.562 19.9736V39.9083H112.265V19.9736H114.562ZM120.112 45.515C119.723 45.515 119.376 45.4825 119.071 45.4176C118.766 45.3592 118.555 45.3008 118.438 45.2424L119.022 43.2178C119.58 43.3606 120.073 43.4125 120.502 43.3735C120.93 43.3346 121.31 43.1432 121.64 42.7992C121.978 42.4618 122.286 41.9135 122.565 41.1542L122.993 39.9862L117.465 24.9573H119.957L124.084 36.8714H124.239L128.366 24.9573H130.858L124.512 42.0887C124.226 42.8609 123.873 43.5001 123.451 44.0062C123.029 44.5189 122.539 44.8985 121.981 45.1451C121.43 45.3917 120.807 45.515 120.112 45.515ZM136.243 37.1829L136.087 38.2341C135.977 38.9739 135.808 39.7656 135.581 40.6092C135.36 41.4527 135.13 42.2477 134.89 42.9939C134.65 43.7402 134.452 44.3339 134.296 44.7752H132.544C132.628 44.3599 132.739 43.8116 132.875 43.1302C133.011 42.4488 133.147 41.6864 133.284 40.8428C133.426 40.0057 133.543 39.1491 133.634 38.2731L133.751 37.1829H136.243ZM147.934 39.9083V24.9573H150.231V39.9083H147.934ZM149.102 22.4654C148.654 22.4654 148.268 22.3129 147.944 22.008C147.626 21.703 147.467 21.3363 147.467 20.908C147.467 20.4798 147.626 20.1131 147.944 19.8081C148.268 19.5031 148.654 19.3506 149.102 19.3506C149.55 19.3506 149.933 19.5031 150.25 19.8081C150.575 20.1131 150.737 20.4798 150.737 20.908C150.737 21.3363 150.575 21.703 150.25 22.008C149.933 22.3129 149.55 22.4654 149.102 22.4654ZM160.804 24.9573V26.904H153.055V24.9573H160.804ZM155.314 21.3753H157.611V35.6255C157.611 36.2744 157.705 36.7611 157.893 37.0855C158.088 37.4035 158.334 37.6176 158.633 37.728C158.938 37.8318 159.259 37.8837 159.597 37.8837C159.85 37.8837 160.057 37.8707 160.22 37.8448C160.382 37.8123 160.512 37.7864 160.609 37.7669L161.076 39.8305C160.92 39.8889 160.703 39.9473 160.424 40.0057C160.145 40.0706 159.791 40.103 159.363 40.103C158.714 40.103 158.078 39.9635 157.455 39.6844C156.839 39.4054 156.326 38.9804 155.917 38.4093C155.515 37.8383 155.314 37.118 155.314 36.2484V21.3753ZM166.923 19.9736V21.7257C166.923 22.2578 166.826 22.8256 166.631 23.4291C166.443 24.0261 166.164 24.6069 165.794 25.1714C165.43 25.7295 164.989 26.2162 164.47 26.6315L163.224 25.6192C163.633 25.0352 163.987 24.4284 164.285 23.799C164.59 23.163 164.742 22.4849 164.742 21.7646V19.9736H166.923ZM178.296 28.3057L176.232 28.8897C176.103 28.5458 175.911 28.2116 175.658 27.8871C175.412 27.5562 175.074 27.2836 174.646 27.0695C174.218 26.8554 173.669 26.7483 173.001 26.7483C172.086 26.7483 171.323 26.9592 170.713 27.381C170.11 27.7963 169.808 28.3252 169.808 28.9676C169.808 29.5386 170.016 29.9896 170.431 30.3206C170.846 30.6515 171.495 30.9273 172.378 31.1479L174.597 31.693C175.934 32.0175 176.93 32.5139 177.585 33.1823C178.241 33.8442 178.569 34.6975 178.569 35.7423C178.569 36.5988 178.322 37.3646 177.829 38.0394C177.342 38.7143 176.661 39.2464 175.785 39.6358C174.909 40.0251 173.89 40.2198 172.728 40.2198C171.203 40.2198 169.941 39.8889 168.942 39.227C167.942 38.5651 167.31 37.5982 167.044 36.3263L169.224 35.7812C169.432 36.5859 169.824 37.1894 170.402 37.5917C170.986 37.994 171.748 38.1952 172.689 38.1952C173.76 38.1952 174.61 37.9681 175.24 37.5138C175.876 37.0531 176.193 36.5015 176.193 35.8591C176.193 35.34 176.012 34.9052 175.648 34.5548C175.285 34.1979 174.727 33.9318 173.974 33.7566L171.482 33.1726C170.113 32.8481 169.107 32.3452 168.465 31.6638C167.829 30.976 167.511 30.1162 167.511 29.0844C167.511 28.2408 167.748 27.4945 168.222 26.8456C168.702 26.1967 169.354 25.6873 170.178 25.3174C171.009 24.9475 171.95 24.7626 173.001 24.7626C174.48 24.7626 175.642 25.0871 176.485 25.736C177.336 26.3849 177.939 27.2415 178.296 28.3057ZM189.461 39.9083V24.9573H191.759V39.9083H189.461ZM190.63 22.4654C190.182 22.4654 189.796 22.3129 189.471 22.008C189.153 21.703 188.994 21.3363 188.994 20.908C188.994 20.4798 189.153 20.1131 189.471 19.8081C189.796 19.5031 190.182 19.3506 190.63 19.3506C191.077 19.3506 191.46 19.5031 191.778 19.8081C192.103 20.1131 192.265 20.4798 192.265 20.908C192.265 21.3363 192.103 21.703 191.778 22.008C191.46 22.3129 191.077 22.4654 190.63 22.4654ZM198.126 30.9143V39.9083H195.829V24.9573H198.048V27.2934H198.243C198.593 26.5341 199.125 25.9242 199.839 25.4634C200.553 24.9962 201.475 24.7626 202.604 24.7626C203.616 24.7626 204.502 24.9703 205.261 25.3856C206.02 25.7944 206.611 26.4173 207.033 27.2544C207.454 28.0851 207.665 29.1363 207.665 30.4082V39.9083H205.368V30.5639C205.368 29.3894 205.063 28.4744 204.453 27.819C203.843 27.1571 203.006 26.8262 201.942 26.8262C201.209 26.8262 200.553 26.9851 199.976 27.3031C199.405 27.6211 198.954 28.0851 198.623 28.695C198.292 29.305 198.126 30.0448 198.126 30.9143ZM42.0092 58.3057L39.9457 58.8897C39.8159 58.5458 39.6245 58.2116 39.3714 57.8871C39.1248 57.5562 38.7873 57.2836 38.3591 57.0695C37.9308 56.8554 37.3824 56.7483 36.7141 56.7483C35.7991 56.7483 35.0366 56.9592 34.4266 57.381C33.8231 57.7963 33.5214 58.3252 33.5214 58.9676C33.5214 59.5386 33.729 59.9896 34.1443 60.3206C34.5597 60.6515 35.2086 60.9273 36.0911 61.1479L38.3104 61.693C39.6472 62.0175 40.6433 62.5139 41.2987 63.1823C41.9541 63.8442 42.2818 64.6975 42.2818 65.7423C42.2818 66.5988 42.0352 67.3646 41.542 68.0394C41.0553 68.7143 40.3739 69.2464 39.4979 69.6358C38.6219 70.0251 37.6031 70.2198 36.4415 70.2198C34.9166 70.2198 33.6544 69.8889 32.6551 69.227C31.6558 68.5651 31.0231 67.5982 30.757 66.3263L32.9374 65.7812C33.145 66.5859 33.5376 67.1894 34.1151 67.5917C34.6992 67.994 35.4616 68.1952 36.4026 68.1952C37.4733 68.1952 38.3234 67.9681 38.9528 67.5138C39.5888 67.0531 39.9067 66.5015 39.9067 65.8591C39.9067 65.34 39.725 64.9052 39.3616 64.5548C38.9982 64.1979 38.4402 63.9318 37.6874 63.7566L35.1956 63.1726C33.8264 62.8481 32.8206 62.3452 32.1781 61.6638C31.5422 60.976 31.2242 60.1162 31.2242 59.0844C31.2242 58.2408 31.4611 57.4945 31.9348 56.8456C32.415 56.1967 33.0671 55.6873 33.8913 55.3174C34.7219 54.9475 35.6628 54.7626 36.7141 54.7626C38.1936 54.7626 39.3552 55.0871 40.1987 55.736C41.0488 56.3849 41.6523 57.2415 42.0092 58.3057ZM51.6765 70.2198C50.3267 70.2198 49.1425 69.8986 48.1237 69.2562C47.1114 68.6137 46.3197 67.715 45.7486 66.5599C45.1841 65.4048 44.9018 64.0551 44.9018 62.5107C44.9018 60.9533 45.1841 59.5938 45.7486 58.4322C46.3197 57.2707 47.1114 56.3687 48.1237 55.7262C49.1425 55.0838 50.3267 54.7626 51.6765 54.7626C53.0262 54.7626 54.2073 55.0838 55.2196 55.7262C56.2384 56.3687 57.0301 57.2707 57.5946 58.4322C58.1657 59.5938 58.4512 60.9533 58.4512 62.5107C58.4512 64.0551 58.1657 65.4048 57.5946 66.5599C57.0301 67.715 56.2384 68.6137 55.2196 69.2562C54.2073 69.8986 53.0262 70.2198 51.6765 70.2198ZM51.6765 68.1562C52.7018 68.1562 53.5454 67.8934 54.2073 67.3678C54.8692 66.8422 55.3591 66.1511 55.6771 65.2945C55.995 64.438 56.154 63.51 56.154 62.5107C56.154 61.5113 55.995 60.5801 55.6771 59.7171C55.3591 58.854 54.8692 58.1564 54.2073 57.6243C53.5454 57.0922 52.7018 56.8262 51.6765 56.8262C50.6512 56.8262 49.8076 57.0922 49.1457 57.6243C48.4838 58.1564 47.9939 58.854 47.6759 59.7171C47.3579 60.5801 47.199 61.5113 47.199 62.5107C47.199 63.51 47.3579 64.438 47.6759 65.2945C47.9939 66.1511 48.4838 66.8422 49.1457 67.3678C49.8076 67.8934 50.6512 68.1562 51.6765 68.1562ZM61.8207 69.9083V54.9573H64.04V57.2934H64.2347C64.5462 56.4952 65.0491 55.8755 65.7434 55.4342C66.4378 54.9865 67.2716 54.7626 68.245 54.7626C69.2313 54.7626 70.0522 54.9865 70.7076 55.4342C71.3695 55.8755 71.8854 56.4952 72.2553 57.2934H72.411C72.7939 56.5212 73.3682 55.9079 74.1339 55.4537C74.8996 54.993 75.8179 54.7626 76.8886 54.7626C78.2253 54.7626 79.3188 55.1812 80.1688 56.0183C81.0189 56.8489 81.444 58.1435 81.444 59.902V69.9083H79.1468V59.902C79.1468 58.7989 78.845 58.0104 78.2416 57.5367C77.6381 57.063 76.9275 56.8262 76.1099 56.8262C75.0586 56.8262 74.2442 57.1441 73.6667 57.7801C73.0892 58.4095 72.8004 59.2077 72.8004 60.1746V69.9083H70.4643V59.6684C70.4643 58.8183 70.1885 58.1337 69.6369 57.6146C69.0853 57.089 68.3748 56.8262 67.5052 56.8262C66.9082 56.8262 66.3502 56.9851 65.831 57.3031C65.3184 57.6211 64.9031 58.0623 64.5851 58.6269C64.2736 59.185 64.1179 59.8306 64.1179 60.5639V69.9083H61.8207ZM91.7756 70.2198C90.335 70.2198 89.0923 69.9018 88.0475 69.2659C87.0093 68.6235 86.2079 67.728 85.6433 66.5794C85.0852 65.4243 84.8062 64.0811 84.8062 62.5496C84.8062 61.0182 85.0852 59.6684 85.6433 58.5004C86.2079 57.3258 86.993 56.4109 87.9989 55.7554C89.0112 55.0936 90.1922 54.7626 91.542 54.7626C92.3207 54.7626 93.0896 54.8924 93.8489 55.152C94.6081 55.4115 95.2992 55.8333 95.9221 56.4173C96.5451 56.9949 97.0415 57.7606 97.4114 58.7145C97.7813 59.6684 97.9662 60.843 97.9662 62.2381V63.2115H86.4415V61.2258H95.6301C95.6301 60.3822 95.4614 59.6295 95.124 58.9676C94.793 58.3057 94.3193 57.7833 93.7028 57.4005C93.0929 57.0176 92.3726 56.8262 91.542 56.8262C90.627 56.8262 89.8353 57.0533 89.1669 57.5075C88.505 57.9553 87.9956 58.5393 87.6387 59.2596C87.2818 59.9799 87.1034 60.7521 87.1034 61.5762V62.9C87.1034 64.0291 87.298 64.9863 87.6874 65.7715C88.0832 66.5502 88.6316 67.1439 89.3324 67.5528C90.0332 67.9551 90.8476 68.1562 91.7756 68.1562C92.3791 68.1562 92.9241 68.0719 93.4108 67.9032C93.904 67.728 94.3291 67.4684 94.686 67.1245C95.0429 66.7741 95.3187 66.3393 95.5133 65.8201L97.7326 66.4431C97.499 67.1959 97.1064 67.8577 96.5548 68.4288C96.0033 68.9934 95.3219 69.4346 94.5107 69.7526C93.6996 70.0641 92.7879 70.2198 91.7756 70.2198ZM107.397 70.2198C106.048 70.2198 104.863 69.8986 103.845 69.2562C102.832 68.6137 102.041 67.715 101.47 66.5599C100.905 65.4048 100.623 64.0551 100.623 62.5107C100.623 60.9533 100.905 59.5938 101.47 58.4322C102.041 57.2707 102.832 56.3687 103.845 55.7262C104.863 55.0838 106.048 54.7626 107.397 54.7626C108.747 54.7626 109.928 55.0838 110.941 55.7262C111.959 56.3687 112.751 57.2707 113.316 58.4322C113.887 59.5938 114.172 60.9533 114.172 62.5107C114.172 64.0551 113.887 65.4048 113.316 66.5599C112.751 67.715 111.959 68.6137 110.941 69.2562C109.928 69.8986 108.747 70.2198 107.397 70.2198ZM107.397 68.1562C108.423 68.1562 109.266 67.8934 109.928 67.3678C110.59 66.8422 111.08 66.1511 111.398 65.2945C111.716 64.438 111.875 63.51 111.875 62.5107C111.875 61.5113 111.716 60.5801 111.398 59.7171C111.08 58.854 110.59 58.1564 109.928 57.6243C109.266 57.0922 108.423 56.8262 107.397 56.8262C106.372 56.8262 105.529 57.0922 104.867 57.6243C104.205 58.1564 103.715 58.854 103.397 59.7171C103.079 60.5801 102.92 61.5113 102.92 62.5107C102.92 63.51 103.079 64.438 103.397 65.2945C103.715 66.1511 104.205 66.8422 104.867 67.3678C105.529 67.8934 106.372 68.1562 107.397 68.1562ZM119.839 60.9143V69.9083H117.542V54.9573H119.761V57.2934H119.956C120.306 56.5341 120.838 55.9242 121.552 55.4634C122.266 54.9962 123.187 54.7626 124.316 54.7626C125.329 54.7626 126.214 54.9703 126.974 55.3856C127.733 55.7944 128.323 56.4173 128.745 57.2544C129.167 58.0851 129.378 59.1363 129.378 60.4082V69.9083H127.081V60.5639C127.081 59.3894 126.776 58.4744 126.166 57.819C125.556 57.1571 124.719 56.8262 123.654 56.8262C122.921 56.8262 122.266 56.9851 121.688 57.3031C121.117 57.6211 120.666 58.0851 120.335 58.695C120.004 59.305 119.839 60.0448 119.839 60.9143ZM139.707 70.2198C138.266 70.2198 137.024 69.9018 135.979 69.2659C134.941 68.6235 134.139 67.728 133.575 66.5794C133.017 65.4243 132.738 64.0811 132.738 62.5496C132.738 61.0182 133.017 59.6684 133.575 58.5004C134.139 57.3258 134.925 56.4109 135.93 55.7554C136.943 55.0936 138.124 54.7626 139.473 54.7626C140.252 54.7626 141.021 54.8924 141.78 55.152C142.54 55.4115 143.231 55.8333 143.854 56.4173C144.477 56.9949 144.973 57.7606 145.343 58.7145C145.713 59.6684 145.898 60.843 145.898 62.2381V63.2115H134.373V61.2258H143.562C143.562 60.3822 143.393 59.6295 143.056 58.9676C142.725 58.3057 142.251 57.7833 141.634 57.4005C141.024 57.0176 140.304 56.8262 139.473 56.8262C138.559 56.8262 137.767 57.0533 137.098 57.5075C136.437 57.9553 135.927 58.5393 135.57 59.2596C135.213 59.9799 135.035 60.7521 135.035 61.5762V62.9C135.035 64.0291 135.23 64.9863 135.619 65.7715C136.015 66.5502 136.563 67.1439 137.264 67.5528C137.965 67.9551 138.779 68.1562 139.707 68.1562C140.311 68.1562 140.856 68.0719 141.342 67.9032C141.836 67.728 142.261 67.4684 142.617 67.1245C142.974 66.7741 143.25 66.3393 143.445 65.8201L145.664 66.4431C145.431 67.1959 145.038 67.8577 144.486 68.4288C143.935 68.9934 143.253 69.4346 142.442 69.7526C141.631 70.0641 140.719 70.2198 139.707 70.2198ZM151.28 49.9736V51.7257C151.28 52.2578 151.182 52.8256 150.988 53.4291C150.8 54.0261 150.521 54.6069 150.151 55.1714C149.787 55.7295 149.346 56.2162 148.827 56.6315L147.581 55.6192C147.99 55.0352 148.343 54.4284 148.642 53.799C148.947 53.163 149.099 52.4849 149.099 51.7646V49.9736H151.28ZM162.653 58.3057L160.589 58.8897C160.46 58.5458 160.268 58.2116 160.015 57.8871C159.768 57.5562 159.431 57.2836 159.003 57.0695C158.574 56.8554 158.026 56.7483 157.358 56.7483C156.443 56.7483 155.68 56.9592 155.07 57.381C154.467 57.7963 154.165 58.3252 154.165 58.9676C154.165 59.5386 154.373 59.9896 154.788 60.3206C155.203 60.6515 155.852 60.9273 156.735 61.1479L158.954 61.693C160.291 62.0175 161.287 62.5139 161.942 63.1823C162.598 63.8442 162.925 64.6975 162.925 65.7423C162.925 66.5988 162.679 67.3646 162.186 68.0394C161.699 68.7143 161.018 69.2464 160.142 69.6358C159.266 70.0251 158.247 70.2198 157.085 70.2198C155.56 70.2198 154.298 69.8889 153.299 69.227C152.299 68.5651 151.667 67.5982 151.401 66.3263L153.581 65.7812C153.789 66.5859 154.181 67.1894 154.759 67.5917C155.343 67.994 156.105 68.1952 157.046 68.1952C158.117 68.1952 158.967 67.9681 159.596 67.5138C160.232 67.0531 160.55 66.5015 160.55 65.8591C160.55 65.34 160.369 64.9052 160.005 64.5548C159.642 64.1979 159.084 63.9318 158.331 63.7566L155.839 63.1726C154.47 62.8481 153.464 62.3452 152.822 61.6638C152.186 60.976 151.868 60.1162 151.868 59.0844C151.868 58.2408 152.105 57.4945 152.578 56.8456C153.059 56.1967 153.711 55.6873 154.535 55.3174C155.366 54.9475 156.306 54.7626 157.358 54.7626C158.837 54.7626 159.999 55.0871 160.842 55.736C161.692 56.3849 162.296 57.2415 162.653 58.3057ZM173.818 69.9083V54.9573H176.116V69.9083H173.818ZM174.986 52.4654C174.539 52.4654 174.153 52.3129 173.828 52.008C173.51 51.703 173.351 51.3363 173.351 50.908C173.351 50.4798 173.51 50.1131 173.828 49.8081C174.153 49.5031 174.539 49.3506 174.986 49.3506C175.434 49.3506 175.817 49.5031 176.135 49.8081C176.459 50.1131 176.622 50.4798 176.622 50.908C176.622 51.3363 176.459 51.703 176.135 52.008C175.817 52.3129 175.434 52.4654 174.986 52.4654ZM182.483 60.9143V69.9083H180.186V54.9573H182.405V57.2934H182.6C182.95 56.5341 183.482 55.9242 184.196 55.4634C184.91 54.9962 185.831 54.7626 186.961 54.7626C187.973 54.7626 188.859 54.9703 189.618 55.3856C190.377 55.7944 190.968 56.4173 191.389 57.2544C191.811 58.0851 192.022 59.1363 192.022 60.4082V69.9083H189.725V60.5639C189.725 59.3894 189.42 58.4744 188.81 57.819C188.2 57.1571 187.363 56.8262 186.299 56.8262C185.565 56.8262 184.91 56.9851 184.332 57.3031C183.761 57.6211 183.31 58.0851 182.979 58.695C182.649 59.305 182.483 60.0448 182.483 60.9143ZM196.394 69.9083V49.9736H198.691V57.3323H198.886C199.055 57.0727 199.288 56.7418 199.587 56.3395C199.892 55.9307 200.327 55.5673 200.891 55.2493C201.462 54.9248 202.234 54.7626 203.208 54.7626C204.467 54.7626 205.576 55.0773 206.537 55.7068C207.497 56.3362 208.247 57.2285 208.785 58.3836C209.324 59.5386 209.593 60.9014 209.593 62.4717C209.593 64.0551 209.324 65.4276 208.785 66.5891C208.247 67.7442 207.5 68.6397 206.547 69.2756C205.593 69.9051 204.493 70.2198 203.247 70.2198C202.286 70.2198 201.517 70.0608 200.94 69.7429C200.362 69.4184 199.918 69.0518 199.606 68.6429C199.295 68.2276 199.055 67.8837 198.886 67.6112H198.614V69.9083H196.394ZM198.652 62.4328C198.652 63.5619 198.818 64.558 199.149 65.4211C199.48 66.2776 199.963 66.9493 200.599 67.436C201.235 67.9162 202.014 68.1562 202.935 68.1562C203.896 68.1562 204.697 67.9032 205.34 67.397C205.988 66.8844 206.475 66.1965 206.8 65.3335C207.131 64.4639 207.296 63.497 207.296 62.4328C207.296 61.3816 207.134 60.4341 206.809 59.5905C206.491 58.7405 206.008 58.0688 205.359 57.5757C204.717 57.076 203.909 56.8262 202.935 56.8262C202.001 56.8262 201.216 57.063 200.58 57.5367C199.944 58.0039 199.464 58.6594 199.139 59.5029C198.815 60.34 198.652 61.3167 198.652 62.4328ZM219.044 70.2198C217.694 70.2198 216.51 69.8986 215.491 69.2562C214.479 68.6137 213.687 67.715 213.116 66.5599C212.551 65.4048 212.269 64.0551 212.269 62.5107C212.269 60.9533 212.551 59.5938 213.116 58.4322C213.687 57.2707 214.479 56.3687 215.491 55.7262C216.51 55.0838 217.694 54.7626 219.044 54.7626C220.394 54.7626 221.575 55.0838 222.587 55.7262C223.606 56.3687 224.397 57.2707 224.962 58.4322C225.533 59.5938 225.819 60.9533 225.819 62.5107C225.819 64.0551 225.533 65.4048 224.962 66.5599C224.397 67.715 223.606 68.6137 222.587 69.2562C221.575 69.8986 220.394 70.2198 219.044 70.2198ZM219.044 68.1562C220.069 68.1562 220.913 67.8934 221.575 67.3678C222.237 66.8422 222.726 66.1511 223.044 65.2945C223.362 64.438 223.521 63.51 223.521 62.5107C223.521 61.5113 223.362 60.5801 223.044 59.7171C222.726 58.854 222.237 58.1564 221.575 57.6243C220.913 57.0922 220.069 56.8262 219.044 56.8262C218.019 56.8262 217.175 57.0922 216.513 57.6243C215.851 58.1564 215.361 58.854 215.043 59.7171C214.725 60.5801 214.566 61.5113 214.566 62.5107C214.566 63.51 214.725 64.438 215.043 65.2945C215.361 66.1511 215.851 66.8422 216.513 67.3678C217.175 67.8934 218.019 68.1562 219.044 68.1562ZM230.286 54.9573L233.868 61.0701L237.45 54.9573H240.097L235.269 62.4328L240.097 69.9083H237.45L233.868 64.107L230.286 69.9083H227.638L232.388 62.4328L227.638 54.9573H230.286ZM244.912 70.0641C244.432 70.0641 244.02 69.8921 243.676 69.5482C243.332 69.2043 243.16 68.7922 243.16 68.312C243.16 67.8318 243.332 67.4197 243.676 67.0758C244.02 66.7319 244.432 66.5599 244.912 66.5599C245.392 66.5599 245.804 66.7319 246.148 67.0758C246.492 67.4197 246.664 67.8318 246.664 68.312C246.664 68.63 246.583 68.922 246.421 69.188C246.265 69.4541 246.054 69.6682 245.788 69.8305C245.529 69.9862 245.237 70.0641 244.912 70.0641Z" fill="white"/>
<path d="M339.847 20.0556C339.847 9.20175 331.048 0.402954 320.194 0.402954V0.402954V28.8475H339.847V20.0556Z" fill="#26252A" stroke="#26252A" stroke-width="0.805851"/>
<rect width="19.6526" height="32.1214" transform="matrix(-1 0 0 1 339.847 28.8477)" fill="#26252A" stroke="#26252A" stroke-width="0.805851"/>
<path d="M339.847 69.7609C339.847 80.6148 331.048 89.4136 320.194 89.4136V89.4136V60.969H339.847V69.7609Z" fill="#26252A" stroke="#26252A" stroke-width="0.805851"/>
</svg>
