<svg width="341" height="60" viewBox="0 0 341 60" fill="none" xmlns="http://www.w3.org/2000/svg">
<path d="M0.402832 20.0556C0.402832 9.20175 9.20161 0.402954 20.0555 0.402954V0.402954V28.8475H0.402832V20.0556Z" fill="#278EFF" stroke="#278EFF" stroke-width="0.805851"/>
<rect x="0.402832" y="28.8475" width="19.6526" height="2.12144" fill="#278EFF" stroke="#278EFF" stroke-width="0.805851"/>
<path d="M0.402832 39.7609C0.402832 50.6148 9.20161 59.4136 20.0555 59.4136V59.4136V30.969H0.402832V39.7609Z" fill="#278EFF" stroke="#278EFF" stroke-width="0.805851"/>
<rect x="20.0557" y="0.402954" width="290.877" height="59.0106" fill="#278EFF"/>
<rect x="20.0557" y="0.402954" width="290.877" height="59.0106" stroke="#278EFF" stroke-width="0.805851"/>
<path d="M26.0906 39.9082L20.6397 19.9735H23.0926L27.2586 36.2094H27.4533L31.6972 19.9735H34.4227L38.6666 36.2094H38.8613L43.0273 19.9735H45.4802L40.0293 39.9082H37.5375L33.1378 24.0227H32.9821L28.5824 39.9082H26.0906ZM50.3366 30.9142V39.9082H48.0394V19.9735H50.3366V27.2933H50.5313C50.8817 26.521 51.4073 25.9078 52.1081 25.4536C52.8155 24.9928 53.7564 24.7625 54.9309 24.7625C55.9497 24.7625 56.842 24.9669 57.6077 25.3757C58.3734 25.778 58.9672 26.3978 59.389 27.2349C59.8173 28.0655 60.0314 29.1232 60.0314 30.4081V39.9082H57.7342V30.5638C57.7342 29.3763 57.426 28.4581 56.8095 27.8091C56.1996 27.1537 55.3527 26.826 54.269 26.826C53.5163 26.826 52.8414 26.985 52.2444 27.303C51.6539 27.621 51.1867 28.0849 50.8427 28.6949C50.5053 29.3049 50.3366 30.0447 50.3366 30.9142ZM70.3654 40.2197C68.9248 40.2197 67.6822 39.9017 66.6374 39.2658C65.5991 38.6233 64.7977 37.7278 64.2332 36.5793C63.6751 35.4242 63.3961 34.0809 63.3961 32.5495C63.3961 31.018 63.6751 29.6683 64.2332 28.5002C64.7977 27.3257 65.5829 26.4107 66.5887 25.7553C67.6011 25.0934 68.7821 24.7625 70.1318 24.7625C70.9105 24.7625 71.6795 24.8923 72.4387 25.1518C73.198 25.4114 73.8891 25.8332 74.512 26.4172C75.135 26.9948 75.6314 27.7605 76.0013 28.7144C76.3712 29.6683 76.5561 30.8428 76.5561 32.238V33.2114H65.0313V31.2257H74.22C74.22 30.3821 74.0513 29.6294 73.7139 28.9675C73.3829 28.3056 72.9092 27.7832 72.2927 27.4003C71.6827 27.0175 70.9624 26.826 70.1318 26.826C69.2169 26.826 68.4252 27.0532 67.7568 27.5074C67.0949 27.9552 66.5855 28.5392 66.2286 29.2595C65.8717 29.9798 65.6932 30.752 65.6932 31.5761V32.8999C65.6932 34.029 65.8879 34.9862 66.2773 35.7714C66.6731 36.5501 67.2214 37.1438 67.9223 37.5526C68.6231 37.955 69.4375 38.1561 70.3654 38.1561C70.9689 38.1561 71.514 38.0718 72.0007 37.903C72.4939 37.7278 72.9189 37.4683 73.2758 37.1243C73.6327 36.7739 73.9085 36.3392 74.1032 35.82L76.3225 36.443C76.0889 37.1957 75.6963 37.8576 75.1447 38.4287C74.5931 38.9932 73.9118 39.4345 73.1006 39.7525C72.2895 40.0639 71.3778 40.2197 70.3654 40.2197ZM79.9135 39.9082V24.9572H82.1328V27.2154H82.2885C82.5611 26.4756 83.0542 25.8754 83.768 25.4146C84.4819 24.9539 85.2865 24.7235 86.182 24.7235C86.3507 24.7235 86.5616 24.7268 86.8147 24.7333C87.0678 24.7398 87.2592 24.7495 87.389 24.7625V27.0986C87.3111 27.0791 87.1327 27.0499 86.8536 27.011C86.5811 26.9656 86.2923 26.9428 85.9873 26.9428C85.2606 26.9428 84.6116 27.0953 84.0406 27.4003C83.476 27.6988 83.0283 28.1141 82.6973 28.6463C82.3729 29.1719 82.2106 29.7721 82.2106 30.447V39.9082H79.9135ZM95.7884 40.2197C94.3479 40.2197 93.1052 39.9017 92.0604 39.2658C91.0222 38.6233 90.2207 37.7278 89.6562 36.5793C89.0981 35.4242 88.8191 34.0809 88.8191 32.5495C88.8191 31.018 89.0981 29.6683 89.6562 28.5002C90.2207 27.3257 91.0059 26.4107 92.0118 25.7553C93.0241 25.0934 94.2051 24.7625 95.5548 24.7625C96.3335 24.7625 97.1025 24.8923 97.8617 25.1518C98.621 25.4114 99.3121 25.8332 99.935 26.4172C100.558 26.9948 101.054 27.7605 101.424 28.7144C101.794 29.6683 101.979 30.8428 101.979 32.238V33.2114H90.4544V31.2257H99.643C99.643 30.3821 99.4743 29.6294 99.1369 28.9675C98.8059 28.3056 98.3322 27.7832 97.7157 27.4003C97.1057 27.0175 96.3855 26.826 95.5548 26.826C94.6399 26.826 93.8482 27.0532 93.1798 27.5074C92.5179 27.9552 92.0085 28.5392 91.6516 29.2595C91.2947 29.9798 91.1162 30.752 91.1162 31.5761V32.8999C91.1162 34.029 91.3109 34.9862 91.7003 35.7714C92.0961 36.5501 92.6444 37.1438 93.3453 37.5526C94.0461 37.955 94.8605 38.1561 95.7884 38.1561C96.3919 38.1561 96.937 38.0718 97.4237 37.903C97.9169 37.7278 98.3419 37.4683 98.6988 37.1243C99.0557 36.7739 99.3315 36.3392 99.5262 35.82L101.746 36.443C101.512 37.1957 101.119 37.8576 100.568 38.4287C100.016 38.9932 99.3348 39.4345 98.5236 39.7525C97.7125 40.0639 96.8008 40.2197 95.7884 40.2197ZM107.361 19.9735V21.7256C107.361 22.2577 107.264 22.8255 107.069 23.429C106.881 24.026 106.602 24.6067 106.232 25.1713C105.869 25.7294 105.427 26.2161 104.908 26.6314L103.662 25.6191C104.071 25.035 104.425 24.4283 104.723 23.7988C105.028 23.1629 105.181 22.4848 105.181 21.7645V19.9735H107.361ZM118.734 28.3056L116.671 28.8896C116.541 28.5457 116.349 28.2115 116.096 27.887C115.85 27.5561 115.512 27.2835 115.084 27.0694C114.656 26.8552 114.107 26.7482 113.439 26.7482C112.524 26.7482 111.762 26.9591 111.152 27.3809C110.548 27.7962 110.246 28.325 110.246 28.9675C110.246 29.5385 110.454 29.9895 110.869 30.3205C111.285 30.6514 111.934 30.9272 112.816 31.1478L115.035 31.6929C116.372 32.0174 117.368 32.5138 118.024 33.1822C118.679 33.8441 119.007 34.6974 119.007 35.7422C119.007 36.5987 118.76 37.3644 118.267 38.0393C117.78 38.7142 117.099 39.2463 116.223 39.6357C115.347 40.025 114.328 40.2197 113.167 40.2197C111.642 40.2197 110.379 39.8887 109.38 39.2268C108.381 38.5649 107.748 37.5981 107.482 36.3262L109.662 35.7811C109.87 36.5857 110.263 37.1892 110.84 37.5916C111.424 37.9939 112.187 38.1951 113.128 38.1951C114.198 38.1951 115.048 37.9679 115.678 37.5137C116.314 37.053 116.632 36.5014 116.632 35.859C116.632 35.3398 116.45 34.9051 116.087 34.5546C115.723 34.1977 115.165 33.9317 114.412 33.7565L111.921 33.1724C110.551 32.848 109.546 32.3451 108.903 31.6637C108.267 30.9759 107.949 30.116 107.949 29.0843C107.949 28.2407 108.186 27.4944 108.66 26.8455C109.14 26.1966 109.792 25.6872 110.616 25.3173C111.447 24.9474 112.388 24.7625 113.439 24.7625C114.919 24.7625 116.08 25.0869 116.924 25.7359C117.774 26.3848 118.377 27.2413 118.734 28.3056ZM136.402 24.9572V26.9039H128.654V24.9572H136.402ZM130.912 21.3751H133.209V35.6254C133.209 36.2743 133.303 36.761 133.491 37.0854C133.686 37.4034 133.933 37.6175 134.231 37.7278C134.536 37.8317 134.857 37.8836 135.195 37.8836C135.448 37.8836 135.656 37.8706 135.818 37.8446C135.98 37.8122 136.11 37.7862 136.207 37.7668L136.674 39.8303C136.519 39.8887 136.301 39.9471 136.022 40.0055C135.743 40.0704 135.39 40.1029 134.961 40.1029C134.312 40.1029 133.676 39.9634 133.053 39.6843C132.437 39.4053 131.924 38.9803 131.516 38.4092C131.113 37.8382 130.912 37.1179 130.912 36.2483V21.3751ZM142.339 30.9142V39.9082H140.041V19.9735H142.339V27.2933H142.533C142.884 26.521 143.409 25.9078 144.11 25.4536C144.818 24.9928 145.758 24.7625 146.933 24.7625C147.952 24.7625 148.844 24.9669 149.61 25.3757C150.375 25.778 150.969 26.3978 151.391 27.2349C151.819 28.0655 152.033 29.1232 152.033 30.4081V39.9082H149.736V30.5638C149.736 29.3763 149.428 28.4581 148.812 27.8091C148.202 27.1537 147.355 26.826 146.271 26.826C145.518 26.826 144.843 26.985 144.246 27.303C143.656 27.621 143.189 28.0849 142.845 28.6949C142.507 29.3049 142.339 30.0447 142.339 30.9142ZM160.499 40.2586C159.551 40.2586 158.691 40.0802 157.919 39.7233C157.147 39.3599 156.534 38.8375 156.079 38.1561C155.625 37.4683 155.398 36.6377 155.398 35.6643C155.398 34.8077 155.567 34.1134 155.904 33.5813C156.242 33.0427 156.693 32.6209 157.257 32.3159C157.822 32.0109 158.445 31.7838 159.126 31.6345C159.814 31.4788 160.505 31.3555 161.199 31.2646C162.108 31.1478 162.844 31.0602 163.409 31.0018C163.98 30.9369 164.395 30.8299 164.655 30.6806C164.921 30.5314 165.054 30.2718 165.054 29.9019V29.824C165.054 28.8636 164.791 28.1174 164.266 27.5853C163.746 27.0532 162.958 26.7871 161.9 26.7871C160.804 26.7871 159.944 27.0272 159.321 27.5074C158.698 27.9876 158.26 28.5002 158.007 29.0453L155.826 28.2666C156.216 27.3582 156.735 26.6508 157.384 26.1447C158.039 25.632 158.753 25.2751 159.525 25.074C160.304 24.8663 161.07 24.7625 161.822 24.7625C162.303 24.7625 162.854 24.8209 163.477 24.9377C164.107 25.048 164.713 25.2784 165.297 25.6288C165.888 25.9792 166.378 26.5081 166.767 27.2154C167.157 27.9227 167.351 28.8701 167.351 30.0576V39.9082H165.054V37.8836H164.937C164.781 38.208 164.522 38.5552 164.159 38.9251C163.795 39.295 163.312 39.6097 162.708 39.8693C162.105 40.1288 161.368 40.2586 160.499 40.2586ZM160.849 38.1951C161.758 38.1951 162.523 38.0166 163.146 37.6597C163.776 37.3028 164.249 36.8421 164.567 36.2775C164.892 35.713 165.054 35.1192 165.054 34.4962V32.3937C164.957 32.5106 164.743 32.6176 164.412 32.715C164.087 32.8058 163.711 32.8869 163.282 32.9583C162.861 33.0232 162.449 33.0816 162.046 33.1335C161.65 33.1789 161.329 33.2179 161.083 33.2503C160.486 33.3282 159.928 33.4547 159.408 33.6299C158.896 33.7987 158.48 34.055 158.163 34.3989C157.851 34.7363 157.695 35.1971 157.695 35.7811C157.695 36.5793 157.991 37.1828 158.581 37.5916C159.178 37.9939 159.934 38.1951 160.849 38.1951ZM177.909 24.9572V26.9039H170.161V24.9572H177.909ZM172.419 21.3751H174.716V35.6254C174.716 36.2743 174.811 36.761 174.999 37.0854C175.193 37.4034 175.44 37.6175 175.738 37.7278C176.043 37.8317 176.365 37.8836 176.702 37.8836C176.955 37.8836 177.163 37.8706 177.325 37.8446C177.487 37.8122 177.617 37.7862 177.714 37.7668L178.182 39.8303C178.026 39.8887 177.809 39.9471 177.529 40.0055C177.25 40.0704 176.897 40.1029 176.469 40.1029C175.82 40.1029 175.184 39.9634 174.561 39.6843C173.944 39.4053 173.432 38.9803 173.023 38.4092C172.62 37.8382 172.419 37.1179 172.419 36.2483V21.3751ZM188.8 39.9082V24.9572H191.019V27.2154H191.175C191.447 26.4756 191.94 25.8754 192.654 25.4146C193.368 24.9539 194.173 24.7235 195.068 24.7235C195.237 24.7235 195.448 24.7268 195.701 24.7333C195.954 24.7398 196.145 24.7495 196.275 24.7625V27.0986C196.197 27.0791 196.019 27.0499 195.74 27.011C195.467 26.9656 195.178 26.9428 194.873 26.9428C194.147 26.9428 193.498 27.0953 192.927 27.4003C192.362 27.6988 191.914 28.1141 191.583 28.6463C191.259 29.1719 191.097 29.7721 191.097 30.447V39.9082H188.8ZM204.675 40.2197C203.234 40.2197 201.991 39.9017 200.947 39.2658C199.908 38.6233 199.107 37.7278 198.542 36.5793C197.984 35.4242 197.705 34.0809 197.705 32.5495C197.705 31.018 197.984 29.6683 198.542 28.5002C199.107 27.3257 199.892 26.4107 200.898 25.7553C201.91 25.0934 203.091 24.7625 204.441 24.7625C205.22 24.7625 205.989 24.8923 206.748 25.1518C207.507 25.4114 208.198 25.8332 208.821 26.4172C209.444 26.9948 209.941 27.7605 210.31 28.7144C210.68 29.6683 210.865 30.8428 210.865 32.238V33.2114H199.34V31.2257H208.529C208.529 30.3821 208.36 29.6294 208.023 28.9675C207.692 28.3056 207.218 27.7832 206.602 27.4003C205.992 27.0175 205.272 26.826 204.441 26.826C203.526 26.826 202.734 27.0532 202.066 27.5074C201.404 27.9552 200.895 28.5392 200.538 29.2595C200.181 29.9798 200.002 30.752 200.002 31.5761V32.8999C200.002 34.029 200.197 34.9862 200.586 35.7714C200.982 36.5501 201.531 37.1438 202.231 37.5526C202.932 37.955 203.747 38.1561 204.675 38.1561C205.278 38.1561 205.823 38.0718 206.31 37.903C206.803 37.7278 207.228 37.4683 207.585 37.1243C207.942 36.7739 208.218 36.3392 208.412 35.82L210.632 36.443C210.398 37.1957 210.005 37.8576 209.454 38.4287C208.902 38.9932 208.221 39.4345 207.41 39.7525C206.599 40.0639 205.687 40.2197 204.675 40.2197ZM214.223 45.5148V24.9572H216.442V27.3322H216.714C216.883 27.0726 217.117 26.7417 217.415 26.3394C217.72 25.9305 218.155 25.5671 218.72 25.2492C219.291 24.9247 220.063 24.7625 221.036 24.7625C222.295 24.7625 223.405 25.0772 224.365 25.7067C225.326 26.3361 226.075 27.2284 226.614 28.3834C227.152 29.5385 227.422 30.9012 227.422 32.4716C227.422 34.055 227.152 35.4274 226.614 36.589C226.075 37.7441 225.329 38.6396 224.375 39.2755C223.421 39.905 222.321 40.2197 221.075 40.2197C220.115 40.2197 219.346 40.0607 218.768 39.7427C218.191 39.4183 217.746 39.0516 217.435 38.6428C217.123 38.2275 216.883 37.8836 216.714 37.611H216.52V45.5148H214.223ZM216.481 32.4327C216.481 33.5618 216.646 34.5579 216.977 35.4209C217.308 36.2775 217.792 36.9491 218.428 37.4358C219.064 37.916 219.842 38.1561 220.764 38.1561C221.724 38.1561 222.526 37.9031 223.168 37.3969C223.817 36.8843 224.304 36.1964 224.628 35.3333C224.959 34.4638 225.124 33.4969 225.124 32.4327C225.124 31.3814 224.962 30.434 224.638 29.5904C224.32 28.7403 223.836 28.0687 223.187 27.5755C222.545 27.0759 221.737 26.826 220.764 26.826C219.829 26.826 219.044 27.0629 218.408 27.5366C217.772 28.0038 217.292 28.6592 216.968 29.5028C216.643 30.3399 216.481 31.3165 216.481 32.4327ZM236.863 40.2197C235.513 40.2197 234.329 39.8985 233.31 39.256C232.297 38.6136 231.506 37.7149 230.935 36.5598C230.37 35.4047 230.088 34.055 230.088 32.5106C230.088 30.9532 230.37 29.5937 230.935 28.4321C231.506 27.2705 232.297 26.3686 233.31 25.7261C234.329 25.0837 235.513 24.7625 236.863 24.7625C238.212 24.7625 239.393 25.0837 240.406 25.7261C241.424 26.3686 242.216 27.2705 242.781 28.4321C243.352 29.5937 243.637 30.9532 243.637 32.5106C243.637 34.055 243.352 35.4047 242.781 36.5598C242.216 37.7149 241.424 38.6136 240.406 39.256C239.393 39.8985 238.212 40.2197 236.863 40.2197ZM236.863 38.1561C237.888 38.1561 238.731 37.8933 239.393 37.3677C240.055 36.8421 240.545 36.151 240.863 35.2944C241.181 34.4378 241.34 33.5099 241.34 32.5106C241.34 31.5112 241.181 30.58 240.863 29.717C240.545 28.8539 240.055 28.1563 239.393 27.6242C238.731 27.0921 237.888 26.826 236.863 26.826C235.837 26.826 234.994 27.0921 234.332 27.6242C233.67 28.1563 233.18 28.8539 232.862 29.717C232.544 30.58 232.385 31.5112 232.385 32.5106C232.385 33.5099 232.544 34.4378 232.862 35.2944C233.18 36.151 233.67 36.8421 234.332 37.3677C234.994 37.8933 235.837 38.1561 236.863 38.1561ZM247.007 39.9082V24.9572H249.226V27.2154H249.382C249.654 26.4756 250.148 25.8754 250.861 25.4146C251.575 24.9539 252.38 24.7235 253.275 24.7235C253.444 24.7235 253.655 24.7268 253.908 24.7333C254.161 24.7398 254.353 24.7495 254.482 24.7625V27.0986C254.404 27.0791 254.226 27.0499 253.947 27.011C253.674 26.9656 253.386 26.9428 253.081 26.9428C252.354 26.9428 251.705 27.0953 251.134 27.4003C250.569 27.6988 250.122 28.1141 249.791 28.6463C249.466 29.1719 249.304 29.7721 249.304 30.447V39.9082H247.007ZM264.507 24.9572V26.9039H256.759V24.9572H264.507ZM259.017 21.3751H261.315V35.6254C261.315 36.2743 261.409 36.761 261.597 37.0854C261.792 37.4034 262.038 37.6175 262.337 37.7278C262.642 37.8317 262.963 37.8836 263.3 37.8836C263.553 37.8836 263.761 37.8706 263.923 37.8446C264.085 37.8122 264.215 37.7862 264.313 37.7668L264.78 39.8303C264.624 39.8887 264.407 39.9471 264.128 40.0055C263.849 40.0704 263.495 40.1029 263.067 40.1029C262.418 40.1029 261.782 39.9634 261.159 39.6843C260.542 39.4053 260.03 38.9803 259.621 38.4092C259.219 37.8382 259.017 37.1179 259.017 36.2483V21.3751ZM270.824 34.3016V34.1848C270.837 32.9453 270.966 31.959 271.213 31.2257C271.46 30.4924 271.81 29.8987 272.264 29.4444C272.719 28.9902 273.264 28.5716 273.9 28.1888C274.282 27.9552 274.626 27.6794 274.931 27.3614C275.236 27.0369 275.476 26.6638 275.652 26.242C275.833 25.8202 275.924 25.353 275.924 24.8404C275.924 24.2044 275.775 23.6528 275.476 23.1856C275.178 22.7184 274.779 22.3582 274.279 22.1052C273.78 21.8521 273.225 21.7256 272.615 21.7256C272.083 21.7256 271.57 21.8359 271.077 22.0565C270.584 22.2771 270.172 22.6243 269.841 23.098C269.51 23.5717 269.318 24.1914 269.266 24.9572H266.813C266.865 23.854 267.151 22.9098 267.67 22.1246C268.196 21.3394 268.887 20.7392 269.743 20.3239C270.606 19.9086 271.563 19.7009 272.615 19.7009C273.757 19.7009 274.75 19.9281 275.593 20.3823C276.443 20.8365 277.099 21.4595 277.559 22.2512C278.027 23.0429 278.26 23.9448 278.26 24.9572C278.26 25.671 278.15 26.3166 277.929 26.8942C277.715 27.4717 277.404 27.9876 276.995 28.4418C276.593 28.8961 276.106 29.2984 275.535 29.6488C274.964 30.0057 274.506 30.3821 274.162 30.7779C273.818 31.1673 273.569 31.6313 273.413 32.1699C273.257 32.7085 273.173 33.3801 273.16 34.1848V34.3016H270.824ZM272.07 40.0639C271.589 40.0639 271.177 39.892 270.833 39.5481C270.49 39.2041 270.318 38.7921 270.318 38.3119C270.318 37.8317 270.49 37.4196 270.833 37.0757C271.177 36.7318 271.589 36.5598 272.07 36.5598C272.55 36.5598 272.962 36.7318 273.306 37.0757C273.65 37.4196 273.822 37.8317 273.822 38.3119C273.822 38.6298 273.741 38.9218 273.578 39.1879C273.423 39.454 273.212 39.6681 272.946 39.8303C272.686 39.9861 272.394 40.0639 272.07 40.0639Z" fill="white"/>
<path d="M330.585 20.0556C330.585 9.20175 321.787 0.402954 310.933 0.402954V0.402954V28.8475H330.585V20.0556Z" fill="#278EFF" stroke="#278EFF" stroke-width="0.805851"/>
<rect width="19.6526" height="2.1217" transform="matrix(-1 0 0 1 330.585 28.8477)" fill="#278EFF" stroke="#278EFF" stroke-width="0.805851"/>
<path d="M310.933 30.9692V59.4136C315.692 59.4136 320.056 57.7211 323.457 54.9058C326.849 57.1658 332.288 59.3156 338.86 58.1206C337.05 57.3447 330.069 52.6904 330.327 43.3813C330.296 43.4236 330.262 43.463 330.229 43.5034C330.462 42.2919 330.586 41.0409 330.586 39.7612V30.9692H310.933Z" fill="#278EFF"/>
<path d="M310.933 30.9692H310.53V30.5663H310.933V30.9692ZM310.933 59.4136V59.8165H310.53V59.4136H310.933ZM323.457 54.9058L323.2 54.5954L323.431 54.4042L323.68 54.5704L323.457 54.9058ZM338.86 58.1206L339.019 57.7503L340.249 58.2776L338.932 58.517L338.86 58.1206ZM330.327 43.3813L330.001 43.1444L330.766 42.0929L330.73 43.3925L330.327 43.3813ZM330.229 43.5034L330.539 43.7597L329.833 43.4271L330.229 43.5034ZM330.586 39.7612L330.989 39.7612L330.989 39.7612L330.586 39.7612ZM330.586 30.9692V30.5663H330.989V30.9692H330.586ZM310.933 30.9692H311.336V59.4136H310.933H310.53V30.9692H310.933ZM310.933 59.4136V59.0106C315.595 59.0106 319.869 57.3532 323.2 54.5954L323.457 54.9058L323.714 55.2161C320.244 58.0891 315.79 59.8165 310.933 59.8165V59.4136ZM323.457 54.9058L323.68 54.5704C327.01 56.789 332.344 58.8958 338.788 57.7242L338.86 58.1206L338.932 58.517C332.232 59.7353 326.688 57.5427 323.234 55.2411L323.457 54.9058ZM338.86 58.1206L338.702 58.4909C337.735 58.0766 335.484 56.6779 333.503 54.2026C331.515 51.7174 329.792 48.1359 329.924 43.3702L330.327 43.3813L330.73 43.3925C330.604 47.9358 332.242 51.336 334.133 53.6992C336.031 56.0723 338.176 57.3888 339.019 57.7503L338.86 58.1206ZM330.327 43.3813L330.653 43.6183C330.613 43.6737 330.562 43.7323 330.539 43.7597L330.229 43.5034L329.918 43.2472C329.962 43.1938 329.98 43.1735 330.001 43.1444L330.327 43.3813ZM330.229 43.5034L329.833 43.4271C330.062 42.2403 330.183 41.0149 330.183 39.7612L330.586 39.7612L330.989 39.7612C330.989 41.067 330.862 42.3435 330.624 43.5797L330.229 43.5034ZM330.586 39.7612H330.183V30.9692H330.586H330.989V39.7612H330.586ZM330.586 30.9692V31.3722H310.933V30.9692V30.5663H330.586V30.9692Z" fill="#278EFF"/>
</svg>
