<svg width="341" height="85" viewBox="0 0 341 85" fill="none" xmlns="http://www.w3.org/2000/svg">
<path d="M9.66455 20.0556C9.66455 9.20175 18.4633 0.402954 29.3172 0.402954V0.402954V28.8475H9.66455V20.0556Z" fill="#26252A" stroke="#26252A" stroke-width="0.805851"/>
<rect x="9.66455" y="28.8475" width="19.6526" height="2.1217" fill="#26252A" stroke="#26252A" stroke-width="0.805851"/>
<path d="M29.3169 30.9692V59.4136C24.5574 59.4136 20.193 57.7219 16.7925 54.9067C13.4001 57.1667 7.96104 59.3155 1.38916 58.1206C3.19927 57.3448 10.181 52.6905 9.92236 43.3813C9.95307 43.4236 9.98774 43.4631 10.021 43.5034C9.78742 42.2919 9.66455 41.0409 9.66455 39.7612V30.9692H29.3169Z" fill="#26252A"/>
<path d="M29.3169 30.9692H29.7198V30.5663H29.3169V30.9692ZM29.3169 59.4136V59.8165H29.7198V59.4136H29.3169ZM16.7925 54.9067L17.0494 54.5964L16.8185 54.4052L16.5691 54.5714L16.7925 54.9067ZM1.38916 58.1206L1.23044 57.7503L4.59179e-05 58.2776L1.31708 58.517L1.38916 58.1206ZM9.92236 43.3813L10.2482 43.1444L9.48349 42.0929L9.51959 43.3925L9.92236 43.3813ZM10.021 43.5034L9.71004 43.7597L10.4166 43.4271L10.021 43.5034ZM9.66455 30.9692V30.5663H9.26163V30.9692H9.66455ZM29.3169 30.9692H28.914V59.4136H29.3169H29.7198V30.9692H29.3169ZM29.3169 59.4136V59.0106C24.6546 59.0106 20.3804 57.3539 17.0494 54.5964L16.7925 54.9067L16.5355 55.2171C20.0057 58.0899 24.4602 59.8165 29.3169 59.8165V59.4136ZM16.7925 54.9067L16.5691 54.5714C13.2391 56.7898 7.90474 58.8957 1.46124 57.7242L1.38916 58.1206L1.31708 58.517C8.01733 59.7353 13.5611 57.5436 17.0159 55.2421L16.7925 54.9067ZM1.38916 58.1206L1.54788 58.491C2.51466 58.0766 4.76591 56.678 6.74616 54.2027C8.73431 51.7175 10.4575 48.1359 10.3251 43.3702L9.92236 43.3813L9.51959 43.3925C9.6458 47.9359 8.00746 51.3361 6.11689 53.6993C4.21841 56.0724 2.07377 57.3888 1.23044 57.7503L1.38916 58.1206ZM9.92236 43.3813L9.5965 43.6183C9.63676 43.6737 9.68755 43.7324 9.71004 43.7597L10.021 43.5034L10.3319 43.2472C10.2879 43.1938 10.2694 43.1734 10.2482 43.1444L9.92236 43.3813ZM10.021 43.5034L10.4166 43.4271C10.1879 42.2405 10.0675 41.0151 10.0675 39.7612H9.66455H9.26163C9.26163 41.0668 9.38698 42.3433 9.62536 43.5797L10.021 43.5034ZM9.66455 39.7612H10.0675V30.9692H9.66455H9.26163V39.7612H9.66455ZM9.66455 30.9692V31.3722H29.3169V30.9692V30.5663H9.66455V30.9692Z" fill="#26252A"/>
<rect x="29.3164" y="0.402954" width="290.877" height="59.0106" fill="#26252A"/>
<rect x="29.3164" y="0.402954" width="290.877" height="59.0106" stroke="#26252A" stroke-width="0.805851"/>
<path d="M47.7716 26.2032H45.3576C45.2149 25.5089 44.965 24.8989 44.6081 24.3733C44.2577 23.8476 43.8294 23.4064 43.3233 23.0495C42.8236 22.6861 42.2688 22.4135 41.6588 22.2318C41.0488 22.0501 40.4129 21.9593 39.751 21.9593C38.544 21.9593 37.4506 22.2643 36.4707 22.8743C35.4973 23.4842 34.7219 24.383 34.1443 25.5705C33.5733 26.758 33.2878 28.2148 33.2878 29.941C33.2878 31.6671 33.5733 33.1239 34.1443 34.3114C34.7219 35.4989 35.4973 36.3977 36.4707 37.0077C37.4506 37.6176 38.544 37.9226 39.751 37.9226C40.4129 37.9226 41.0488 37.8318 41.6588 37.6501C42.2688 37.4684 42.8236 37.1991 43.3233 36.8422C43.8294 36.4788 44.2577 36.0343 44.6081 35.5087C44.965 34.9766 45.2149 34.3666 45.3576 33.6787H47.7716C47.5899 34.6975 47.259 35.6093 46.7788 36.4139C46.2986 37.2186 45.7016 37.9032 44.9877 38.4677C44.2739 39.0258 43.4725 39.4508 42.5835 39.7429C41.701 40.0349 40.7568 40.1809 39.751 40.1809C38.0508 40.1809 36.5389 39.7656 35.2151 38.9349C33.8913 38.1043 32.8498 36.9233 32.0905 35.3919C31.3313 33.8604 30.9517 32.0435 30.9517 29.941C30.9517 27.8385 31.3313 26.0215 32.0905 24.4901C32.8498 22.9586 33.8913 21.7776 35.2151 20.947C36.5389 20.1164 38.0508 19.7011 39.751 19.7011C40.7568 19.7011 41.701 19.8471 42.5835 20.1391C43.4725 20.4311 44.2739 20.8594 44.9877 21.4239C45.7016 21.982 46.2986 22.6634 46.7788 23.468C47.259 24.2662 47.5899 25.1779 47.7716 26.2032ZM53.521 30.9143V39.9083H51.2239V19.9736H53.521V27.2934H53.7157C54.0661 26.5212 54.5918 25.9079 55.2926 25.4537C55.9999 24.993 56.9408 24.7626 58.1154 24.7626C59.1342 24.7626 60.0264 24.967 60.7922 25.3758C61.5579 25.7782 62.1516 26.3979 62.5734 27.235C63.0017 28.0656 63.2159 29.1233 63.2159 30.4082V39.9083H60.9187V30.5639C60.9187 29.3764 60.6105 28.4582 59.994 27.8093C59.384 27.1539 58.5372 26.8262 57.4535 26.8262C56.7007 26.8262 56.0259 26.9851 55.4289 27.3031C54.8383 27.6211 54.3711 28.0851 54.0272 28.695C53.6898 29.305 53.521 30.0448 53.521 30.9143ZM73.5499 40.2198C72.1093 40.2198 70.8666 39.9018 69.8219 39.2659C68.7836 38.6235 67.9822 37.728 67.4176 36.5794C66.8596 35.4243 66.5805 34.0811 66.5805 32.5496C66.5805 31.0182 66.8596 29.6684 67.4176 28.5004C67.9822 27.3258 68.7674 26.4109 69.7732 25.7554C70.7855 25.0936 71.9665 24.7626 73.3163 24.7626C74.095 24.7626 74.8639 24.8924 75.6232 25.152C76.3824 25.4115 77.0735 25.8333 77.6965 26.4173C78.3194 26.9949 78.8158 27.7606 79.1857 28.7145C79.5556 29.6684 79.7406 30.843 79.7406 32.2381V33.2115H68.2158V31.2258H77.4045C77.4045 30.3822 77.2357 29.6295 76.8983 28.9676C76.5674 28.3057 76.0936 27.7833 75.4772 27.4005C74.8672 27.0176 74.1469 26.8262 73.3163 26.8262C72.4013 26.8262 71.6096 27.0533 70.9412 27.5075C70.2793 27.9553 69.7699 28.5393 69.413 29.2596C69.0561 29.9799 68.8777 30.7521 68.8777 31.5762V32.9C68.8777 34.0291 69.0724 34.9863 69.4617 35.7715C69.8576 36.5502 70.4059 37.1439 71.1067 37.5528C71.8075 37.9551 72.6219 38.1562 73.5499 38.1562C74.1534 38.1562 74.6985 38.0719 75.1852 37.9032C75.6783 37.728 76.1034 37.4684 76.4603 37.1245C76.8172 36.7741 77.093 36.3393 77.2876 35.8201L79.5069 36.4431C79.2733 37.1959 78.8807 37.8577 78.3292 38.4288C77.7776 38.9934 77.0962 39.4346 76.2851 39.7526C75.4739 40.0641 74.5622 40.2198 73.5499 40.2198ZM89.1718 40.2198C87.7701 40.2198 86.5631 39.8889 85.5508 39.227C84.5385 38.5651 83.7598 37.6533 83.2147 36.4918C82.6696 35.3302 82.3971 34.0032 82.3971 32.5107C82.3971 30.9922 82.6761 29.6522 83.2342 28.4906C83.7988 27.3226 84.5839 26.4109 85.5898 25.7554C86.6021 25.0936 87.7831 24.7626 89.1328 24.7626C90.1841 24.7626 91.1315 24.9573 91.9751 25.3466C92.8187 25.736 93.5098 26.2811 94.0484 26.9819C94.587 27.6827 94.9212 28.5004 95.051 29.4348H92.7538C92.5786 28.7534 92.1892 28.15 91.5858 27.6243C90.9887 27.0922 90.1841 26.8262 89.1718 26.8262C88.2763 26.8262 87.4911 27.0598 86.8162 27.527C86.1478 27.9877 85.6255 28.6399 85.2491 29.4835C84.8792 30.3206 84.6943 31.3037 84.6943 32.4328C84.6943 33.5879 84.876 34.5937 85.2393 35.4503C85.6092 36.3068 86.1284 36.972 86.7967 37.4457C87.4716 37.9194 88.2633 38.1562 89.1718 38.1562C89.7688 38.1562 90.3106 38.0524 90.7973 37.8448C91.284 37.6371 91.6961 37.3386 92.0335 36.9493C92.3709 36.5599 92.611 36.0927 92.7538 35.5476H95.051C94.9212 36.4301 94.6 37.2251 94.0873 37.9324C93.5812 38.6332 92.9095 39.1913 92.0724 39.6066C91.2418 40.0154 90.2749 40.2198 89.1718 40.2198ZM100.413 34.4574L100.375 31.6152H100.842L107.383 24.9573H110.225L103.256 32.0045H103.061L100.413 34.4574ZM98.2721 39.9083V19.9736H100.569V39.9083H98.2721ZM107.772 39.9083L101.932 32.5107L103.567 30.9143L110.692 39.9083H107.772ZM131.83 24.9573C131.713 23.9709 131.24 23.2052 130.409 22.6601C129.578 22.115 128.56 21.8425 127.353 21.8425C126.47 21.8425 125.698 21.9852 125.036 22.2708C124.38 22.5563 123.868 22.9489 123.498 23.4485C123.135 23.9482 122.953 24.516 122.953 25.152C122.953 25.6841 123.079 26.1416 123.332 26.5244C123.592 26.9008 123.923 27.2155 124.325 27.4686C124.728 27.7152 125.149 27.9196 125.591 28.0818C126.032 28.2376 126.438 28.3641 126.807 28.4614L128.832 29.0065C129.351 29.1428 129.929 29.331 130.565 29.5711C131.207 29.8112 131.82 30.1389 132.404 30.5542C132.995 30.963 133.482 31.4886 133.864 32.1311C134.247 32.7735 134.439 33.5619 134.439 34.4964C134.439 35.5736 134.156 36.5469 133.592 37.4165C133.034 38.286 132.216 38.9771 131.139 39.4898C130.068 40.0024 128.767 40.2587 127.236 40.2587C125.808 40.2587 124.572 40.0284 123.527 39.5676C122.489 39.1069 121.671 38.4645 121.074 37.6404C120.484 36.8162 120.15 35.8591 120.072 34.7689H122.564C122.628 35.5216 122.881 36.1446 123.323 36.6378C123.771 37.1245 124.335 37.4879 125.016 37.728C125.704 37.9616 126.444 38.0784 127.236 38.0784C128.157 38.0784 128.985 37.9291 129.718 37.6306C130.451 37.3256 131.032 36.9038 131.46 36.3652C131.888 35.8201 132.103 35.1842 132.103 34.4574C132.103 33.7955 131.918 33.2569 131.548 32.8416C131.178 32.4263 130.691 32.0889 130.088 31.8293C129.484 31.5697 128.832 31.3426 128.131 31.1479L125.678 30.4471C124.121 29.9994 122.888 29.3602 121.979 28.5296C121.071 27.699 120.617 26.612 120.617 25.2688C120.617 24.1526 120.919 23.1792 121.522 22.3486C122.132 21.5115 122.95 20.8626 123.975 20.4019C125.007 19.9347 126.159 19.7011 127.43 19.7011C128.715 19.7011 129.857 19.9314 130.857 20.3921C131.856 20.8464 132.648 21.4694 133.232 22.261C133.822 23.0527 134.134 23.9515 134.166 24.9573H131.83ZM140.256 19.9736V39.9083H137.959V19.9736H140.256ZM148.726 40.2587C147.779 40.2587 146.919 40.0803 146.147 39.7234C145.375 39.36 144.761 38.8376 144.307 38.1562C143.853 37.4684 143.626 36.6378 143.626 35.6644C143.626 34.8078 143.795 34.1135 144.132 33.5814C144.469 33.0428 144.92 32.621 145.485 32.316C146.05 32.011 146.672 31.7839 147.354 31.6346C148.042 31.4789 148.733 31.3556 149.427 31.2648C150.336 31.1479 151.072 31.0603 151.637 31.0019C152.208 30.937 152.623 30.83 152.883 30.6807C153.149 30.5315 153.282 30.2719 153.282 29.902V29.8242C153.282 28.8638 153.019 28.1175 152.493 27.5854C151.974 27.0533 151.186 26.7872 150.128 26.7872C149.031 26.7872 148.171 27.0273 147.549 27.5075C146.926 27.9877 146.488 28.5004 146.234 29.0455L144.054 28.2668C144.443 27.3583 144.963 26.651 145.611 26.1448C146.267 25.6322 146.981 25.2752 147.753 25.0741C148.532 24.8664 149.297 24.7626 150.05 24.7626C150.53 24.7626 151.082 24.821 151.705 24.9378C152.334 25.0481 152.941 25.2785 153.525 25.6289C154.116 25.9793 154.605 26.5082 154.995 27.2155C155.384 27.9228 155.579 28.8702 155.579 30.0578V39.9083H153.282V37.8837H153.165C153.009 38.2082 152.75 38.5553 152.386 38.9252C152.023 39.2951 151.539 39.6098 150.936 39.8694C150.332 40.129 149.596 40.2587 148.726 40.2587ZM149.077 38.1952C149.985 38.1952 150.751 38.0167 151.374 37.6598C152.003 37.3029 152.477 36.8422 152.795 36.2776C153.119 35.7131 153.282 35.1193 153.282 34.4964V32.3939C153.184 32.5107 152.97 32.6177 152.639 32.7151C152.315 32.8059 151.938 32.887 151.51 32.9584C151.088 33.0233 150.676 33.0817 150.274 33.1336C149.878 33.1791 149.557 33.218 149.31 33.2504C148.713 33.3283 148.155 33.4548 147.636 33.6301C147.123 33.7988 146.708 34.0551 146.39 34.399C146.079 34.7365 145.923 35.1972 145.923 35.7812C145.923 36.5794 146.218 37.1829 146.809 37.5917C147.406 37.994 148.162 38.1952 149.077 38.1952ZM165.708 40.2198C164.307 40.2198 163.1 39.8889 162.088 39.227C161.075 38.5651 160.297 37.6533 159.751 36.4918C159.206 35.3302 158.934 34.0032 158.934 32.5107C158.934 30.9922 159.213 29.6522 159.771 28.4906C160.335 27.3226 161.121 26.4109 162.126 25.7554C163.139 25.0936 164.32 24.7626 165.67 24.7626C166.721 24.7626 167.668 24.9573 168.512 25.3466C169.355 25.736 170.046 26.2811 170.585 26.9819C171.124 27.6827 171.458 28.5004 171.588 29.4348H169.29C169.115 28.7534 168.726 28.15 168.122 27.6243C167.525 27.0922 166.721 26.8262 165.708 26.8262C164.813 26.8262 164.028 27.0598 163.353 27.527C162.685 27.9877 162.162 28.6399 161.786 29.4835C161.416 30.3206 161.231 31.3037 161.231 32.4328C161.231 33.5879 161.413 34.5937 161.776 35.4503C162.146 36.3068 162.665 36.972 163.333 37.4457C164.008 37.9194 164.8 38.1562 165.708 38.1562C166.305 38.1562 166.847 38.0524 167.334 37.8448C167.821 37.6371 168.233 37.3386 168.57 36.9493C168.908 36.5599 169.148 36.0927 169.29 35.5476H171.588C171.458 36.4301 171.137 37.2251 170.624 37.9324C170.118 38.6332 169.446 39.1913 168.609 39.6066C167.779 40.0154 166.812 40.2198 165.708 40.2198ZM176.95 34.4574L176.911 31.6152H177.378L183.92 24.9573H186.762L179.792 32.0045H179.598L176.95 34.4574ZM174.809 39.9083V19.9736H177.106V39.9083H174.809ZM184.309 39.9083L178.469 32.5107L180.104 30.9143L187.229 39.9083H184.309ZM191.256 40.0641C190.775 40.0641 190.363 39.8921 190.019 39.5482C189.675 39.2043 189.504 38.7922 189.504 38.312C189.504 37.8318 189.675 37.4197 190.019 37.0758C190.363 36.7319 190.775 36.5599 191.256 36.5599C191.736 36.5599 192.148 36.7319 192.492 37.0758C192.836 37.4197 193.008 37.8318 193.008 38.312C193.008 38.63 192.927 38.922 192.764 39.188C192.609 39.4541 192.398 39.6682 192.132 39.8305C191.872 39.9862 191.58 40.0641 191.256 40.0641Z" fill="white"/>
<path d="M339.847 20.0556C339.847 9.20175 331.048 0.402954 320.194 0.402954V0.402954V28.8475H339.847V20.0556Z" fill="#26252A" stroke="#26252A" stroke-width="0.805851"/>
<rect width="19.6526" height="2.12144" transform="matrix(-1 0 0 1 339.847 28.8477)" fill="#26252A" stroke="#26252A" stroke-width="0.805851"/>
<path d="M339.847 39.7609C339.847 50.6148 331.048 59.4136 320.194 59.4136V59.4136V30.969H339.847V39.7609Z" fill="#26252A" stroke="#26252A" stroke-width="0.805851"/>
</svg>
