<svg width="341" height="85" viewBox="0 0 341 85" fill="none" xmlns="http://www.w3.org/2000/svg">
<path d="M9.66455 20.0556C9.66455 9.20175 18.4633 0.402954 29.3172 0.402954V0.402954V28.8475H9.66455V20.0556Z" fill="#26252A" stroke="#26252A" stroke-width="0.805851"/>
<rect x="9.66455" y="28.8475" width="19.6526" height="2.1217" fill="#26252A" stroke="#26252A" stroke-width="0.805851"/>
<path d="M29.3169 30.9692V59.4136C24.5574 59.4136 20.193 57.7219 16.7925 54.9067C13.4001 57.1667 7.96104 59.3155 1.38916 58.1206C3.19927 57.3448 10.181 52.6905 9.92236 43.3813C9.95307 43.4236 9.98774 43.4631 10.021 43.5034C9.78742 42.2919 9.66455 41.0409 9.66455 39.7612V30.9692H29.3169Z" fill="#26252A"/>
<path d="M29.3169 30.9692H29.7198V30.5663H29.3169V30.9692ZM29.3169 59.4136V59.8165H29.7198V59.4136H29.3169ZM16.7925 54.9067L17.0494 54.5964L16.8185 54.4052L16.5691 54.5714L16.7925 54.9067ZM1.38916 58.1206L1.23044 57.7503L4.59179e-05 58.2776L1.31708 58.517L1.38916 58.1206ZM9.92236 43.3813L10.2482 43.1444L9.48349 42.0929L9.51959 43.3925L9.92236 43.3813ZM10.021 43.5034L9.71004 43.7597L10.4166 43.4271L10.021 43.5034ZM9.66455 30.9692V30.5663H9.26163V30.9692H9.66455ZM29.3169 30.9692H28.914V59.4136H29.3169H29.7198V30.9692H29.3169ZM29.3169 59.4136V59.0106C24.6546 59.0106 20.3804 57.3539 17.0494 54.5964L16.7925 54.9067L16.5355 55.2171C20.0057 58.0899 24.4602 59.8165 29.3169 59.8165V59.4136ZM16.7925 54.9067L16.5691 54.5714C13.2391 56.7898 7.90474 58.8957 1.46124 57.7242L1.38916 58.1206L1.31708 58.517C8.01733 59.7353 13.5611 57.5436 17.0159 55.2421L16.7925 54.9067ZM1.38916 58.1206L1.54788 58.491C2.51466 58.0766 4.76591 56.678 6.74616 54.2027C8.73431 51.7175 10.4575 48.1359 10.3251 43.3702L9.92236 43.3813L9.51959 43.3925C9.6458 47.9359 8.00746 51.3361 6.11689 53.6993C4.21841 56.0724 2.07377 57.3888 1.23044 57.7503L1.38916 58.1206ZM9.92236 43.3813L9.5965 43.6183C9.63676 43.6737 9.68755 43.7324 9.71004 43.7597L10.021 43.5034L10.3319 43.2472C10.2879 43.1938 10.2694 43.1734 10.2482 43.1444L9.92236 43.3813ZM10.021 43.5034L10.4166 43.4271C10.1879 42.2405 10.0675 41.0151 10.0675 39.7612H9.66455H9.26163C9.26163 41.0668 9.38698 42.3433 9.62536 43.5797L10.021 43.5034ZM9.66455 39.7612H10.0675V30.9692H9.66455H9.26163V39.7612H9.66455ZM9.66455 30.9692V31.3722H29.3169V30.9692V30.5663H9.66455V30.9692Z" fill="#26252A"/>
<rect x="29.3164" y="0.402954" width="290.877" height="59.0106" fill="#26252A"/>
<rect x="29.3164" y="0.402954" width="290.877" height="59.0106" stroke="#26252A" stroke-width="0.805851"/>
<path d="M48.5503 29.941C48.5503 32.0435 48.1707 33.8604 47.4115 35.3919C46.6522 36.9233 45.6107 38.1043 44.2869 38.9349C42.9631 39.7656 41.4512 40.1809 39.751 40.1809C38.0508 40.1809 36.5389 39.7656 35.2151 38.9349C33.8913 38.1043 32.8498 36.9233 32.0905 35.3919C31.3313 33.8604 30.9517 32.0435 30.9517 29.941C30.9517 27.8385 31.3313 26.0215 32.0905 24.4901C32.8498 22.9586 33.8913 21.7776 35.2151 20.947C36.5389 20.1164 38.0508 19.7011 39.751 19.7011C41.4512 19.7011 42.9631 20.1164 44.2869 20.947C45.6107 21.7776 46.6522 22.9586 47.4115 24.4901C48.1707 26.0215 48.5503 27.8385 48.5503 29.941ZM46.2142 29.941C46.2142 28.2148 45.9254 26.758 45.3479 25.5705C44.7769 24.383 44.0014 23.4842 43.0215 22.8743C42.0482 22.2643 40.958 21.9593 39.751 21.9593C38.544 21.9593 37.4506 22.2643 36.4707 22.8743C35.4973 23.4842 34.7219 24.383 34.1443 25.5705C33.5733 26.758 33.2878 28.2148 33.2878 29.941C33.2878 31.6671 33.5733 33.1239 34.1443 34.3114C34.7219 35.4989 35.4973 36.3977 36.4707 37.0077C37.4506 37.6176 38.544 37.9226 39.751 37.9226C40.958 37.9226 42.0482 37.6176 43.0215 37.0077C44.0014 36.3977 44.7769 35.4989 45.3479 34.3114C45.9254 33.1239 46.2142 31.6671 46.2142 29.941ZM52.1607 39.9083V24.9573H54.38V27.2155H54.5358C54.8083 26.4757 55.3015 25.8755 56.0153 25.4148C56.7291 24.954 57.5338 24.7237 58.4293 24.7237C58.598 24.7237 58.8089 24.7269 59.062 24.7334C59.3151 24.7399 59.5065 24.7496 59.6363 24.7626V27.0987C59.5584 27.0792 59.3799 27.05 59.1009 27.0111C58.8284 26.9657 58.5396 26.943 58.2346 26.943C57.5078 26.943 56.8589 27.0955 56.2879 27.4005C55.7233 27.699 55.2755 28.1143 54.9446 28.6464C54.6201 29.172 54.4579 29.7722 54.4579 30.4471V39.9083H52.1607ZM69.7943 39.9083V24.9573H72.0136V27.2934H72.2083C72.5198 26.4952 73.0227 25.8755 73.717 25.4342C74.4114 24.9865 75.2452 24.7626 76.2186 24.7626C77.2049 24.7626 78.0258 24.9865 78.6812 25.4342C79.3431 25.8755 79.859 26.4952 80.2289 27.2934H80.3846C80.7675 26.5212 81.3418 25.9079 82.1075 25.4537C82.8732 24.993 83.7915 24.7626 84.8622 24.7626C86.1989 24.7626 87.2924 25.1812 88.1424 26.0183C88.9925 26.8489 89.4176 28.1435 89.4176 29.902V39.9083H87.1204V29.902C87.1204 28.7989 86.8186 28.0104 86.2152 27.5367C85.6117 27.063 84.9011 26.8262 84.0835 26.8262C83.0322 26.8262 82.2178 27.1441 81.6403 27.7801C81.0628 28.4095 80.774 29.2077 80.774 30.1746V39.9083H78.4379V29.6684C78.4379 28.8183 78.1621 28.1337 77.6105 27.6146C77.0589 27.089 76.3484 26.8262 75.4788 26.8262C74.8818 26.8262 74.3238 26.9851 73.8046 27.3031C73.292 27.6211 72.8767 28.0623 72.5587 28.6269C72.2472 29.185 72.0915 29.8306 72.0915 30.5639V39.9083H69.7943ZM97.8803 40.2587C96.9329 40.2587 96.073 40.0803 95.3008 39.7234C94.5286 39.36 93.9154 38.8376 93.4612 38.1562C93.0069 37.4684 92.7798 36.6378 92.7798 35.6644C92.7798 34.8078 92.9485 34.1135 93.286 33.5814C93.6234 33.0428 94.0744 32.621 94.6389 32.316C95.2035 32.011 95.8265 31.7839 96.5078 31.6346C97.1957 31.4789 97.8868 31.3556 98.5811 31.2648C99.4896 31.1479 100.226 31.0603 100.791 31.0019C101.362 30.937 101.777 30.83 102.037 30.6807C102.303 30.5315 102.436 30.2719 102.436 29.902V29.8242C102.436 28.8638 102.173 28.1175 101.647 27.5854C101.128 27.0533 100.34 26.7872 99.2819 26.7872C98.1853 26.7872 97.3255 27.0273 96.7025 27.5075C96.0795 27.9877 95.6415 28.5004 95.3884 29.0455L93.2081 28.2668C93.5974 27.3583 94.1166 26.651 94.7655 26.1448C95.4209 25.6322 96.1347 25.2752 96.9069 25.0741C97.6856 24.8664 98.4513 24.7626 99.2041 24.7626C99.6843 24.7626 100.236 24.821 100.859 24.9378C101.488 25.0481 102.095 25.2785 102.679 25.6289C103.27 25.9793 103.759 26.5082 104.149 27.2155C104.538 27.9228 104.733 28.8702 104.733 30.0578V39.9083H102.436V37.8837H102.319C102.163 38.2082 101.904 38.5553 101.54 38.9252C101.177 39.2951 100.693 39.6098 100.09 39.8694C99.4864 40.129 98.7498 40.2587 97.8803 40.2587ZM98.2307 38.1952C99.1392 38.1952 99.9049 38.0167 100.528 37.6598C101.157 37.3029 101.631 36.8422 101.949 36.2776C102.273 35.7131 102.436 35.1193 102.436 34.4964V32.3939C102.338 32.5107 102.124 32.6177 101.793 32.7151C101.469 32.8059 101.092 32.887 100.664 32.9584C100.242 33.0233 99.8303 33.0817 99.4279 33.1336C99.0321 33.1791 98.7109 33.218 98.4643 33.2504C97.8673 33.3283 97.3092 33.4548 96.7901 33.6301C96.2775 33.7988 95.8622 34.0551 95.5442 34.399C95.2327 34.7365 95.077 35.1972 95.077 35.7812C95.077 36.5794 95.3722 37.1829 95.9627 37.5917C96.5597 37.994 97.3157 38.1952 98.2307 38.1952ZM109.733 45.515C109.343 45.515 108.996 45.4825 108.691 45.4176C108.386 45.3592 108.175 45.3008 108.059 45.2424L108.643 43.2178C109.201 43.3606 109.694 43.4125 110.122 43.3735C110.55 43.3346 110.93 43.1432 111.261 42.7992C111.598 42.4618 111.907 41.9135 112.186 41.1542L112.614 39.9862L107.085 24.9573H109.577L113.704 36.8714H113.86L117.987 24.9573H120.479L114.132 42.0887C113.847 42.8609 113.493 43.5001 113.071 44.0062C112.65 44.5189 112.16 44.8985 111.602 45.1451C111.05 45.3917 110.427 45.515 109.733 45.515ZM123.685 39.9083V19.9736H125.982V27.3323H126.177C126.346 27.0727 126.58 26.7418 126.878 26.3395C127.183 25.9307 127.618 25.5673 128.182 25.2493C128.753 24.9248 129.526 24.7626 130.499 24.7626C131.758 24.7626 132.868 25.0773 133.828 25.7068C134.788 26.3362 135.538 27.2285 136.076 28.3836C136.615 29.5386 136.884 30.9014 136.884 32.4717C136.884 34.0551 136.615 35.4276 136.076 36.5891C135.538 37.7442 134.792 38.6397 133.838 39.2756C132.884 39.9051 131.784 40.2198 130.538 40.2198C129.577 40.2198 128.809 40.0608 128.231 39.7429C127.653 39.4184 127.209 39.0518 126.897 38.6429C126.586 38.2276 126.346 37.8837 126.177 37.6112H125.905V39.9083H123.685ZM125.944 32.4328C125.944 33.5619 126.109 34.558 126.44 35.4211C126.771 36.2776 127.254 36.9493 127.89 37.436C128.526 37.9162 129.305 38.1562 130.226 38.1562C131.187 38.1562 131.988 37.9032 132.631 37.397C133.28 36.8844 133.766 36.1965 134.091 35.3335C134.422 34.4639 134.587 33.497 134.587 32.4328C134.587 31.3816 134.425 30.4341 134.1 29.5905C133.782 28.7405 133.299 28.0688 132.65 27.5757C132.008 27.076 131.2 26.8262 130.226 26.8262C129.292 26.8262 128.507 27.063 127.871 27.5367C127.235 28.0039 126.755 28.6594 126.43 29.5029C126.106 30.34 125.944 31.3167 125.944 32.4328ZM146.53 40.2198C145.089 40.2198 143.846 39.9018 142.802 39.2659C141.763 38.6235 140.962 37.728 140.397 36.5794C139.839 35.4243 139.56 34.0811 139.56 32.5496C139.56 31.0182 139.839 29.6684 140.397 28.5004C140.962 27.3258 141.747 26.4109 142.753 25.7554C143.765 25.0936 144.946 24.7626 146.296 24.7626C147.075 24.7626 147.844 24.8924 148.603 25.152C149.362 25.4115 150.053 25.8333 150.676 26.4173C151.299 26.9949 151.796 27.7606 152.166 28.7145C152.535 29.6684 152.72 30.843 152.72 32.2381V33.2115H141.196V31.2258H150.384C150.384 30.3822 150.216 29.6295 149.878 28.9676C149.547 28.3057 149.073 27.7833 148.457 27.4005C147.847 27.0176 147.127 26.8262 146.296 26.8262C145.381 26.8262 144.589 27.0533 143.921 27.5075C143.259 27.9553 142.75 28.5393 142.393 29.2596C142.036 29.9799 141.857 30.7521 141.857 31.5762V32.9C141.857 34.0291 142.052 34.9863 142.441 35.7715C142.837 36.5502 143.386 37.1439 144.087 37.5528C144.787 37.9551 145.602 38.1562 146.53 38.1562C147.133 38.1562 147.678 38.0719 148.165 37.9032C148.658 37.728 149.083 37.4684 149.44 37.1245C149.797 36.7741 150.073 36.3393 150.267 35.8201L152.487 36.4431C152.253 37.1959 151.861 37.8577 151.309 38.4288C150.757 38.9934 150.076 39.4346 149.265 39.7526C148.454 40.0641 147.542 40.2198 146.53 40.2198ZM179.769 19.9736V39.9083H177.433L166.57 24.2565H166.375V39.9083H163.961V19.9736H166.297L177.199 35.6644H177.394V19.9736H179.769ZM190.225 40.2198C188.875 40.2198 187.691 39.8986 186.672 39.2562C185.659 38.6137 184.868 37.715 184.297 36.5599C183.732 35.4048 183.45 34.0551 183.45 32.5107C183.45 30.9533 183.732 29.5938 184.297 28.4322C184.868 27.2707 185.659 26.3687 186.672 25.7262C187.691 25.0838 188.875 24.7626 190.225 24.7626C191.574 24.7626 192.755 25.0838 193.768 25.7262C194.786 26.3687 195.578 27.2707 196.143 28.4322C196.714 29.5938 196.999 30.9533 196.999 32.5107C196.999 34.0551 196.714 35.4048 196.143 36.5599C195.578 37.715 194.786 38.6137 193.768 39.2562C192.755 39.8986 191.574 40.2198 190.225 40.2198ZM190.225 38.1562C191.25 38.1562 192.093 37.8934 192.755 37.3678C193.417 36.8422 193.907 36.1511 194.225 35.2945C194.543 34.438 194.702 33.51 194.702 32.5107C194.702 31.5113 194.543 30.5801 194.225 29.7171C193.907 28.854 193.417 28.1564 192.755 27.6243C192.093 27.0922 191.25 26.8262 190.225 26.8262C189.199 26.8262 188.356 27.0922 187.694 27.6243C187.032 28.1564 186.542 28.854 186.224 29.7171C185.906 30.5801 185.747 31.5113 185.747 32.5107C185.747 33.51 185.906 34.438 186.224 35.2945C186.542 36.1511 187.032 36.8422 187.694 37.3678C188.356 37.8934 189.199 38.1562 190.225 38.1562ZM206.871 24.9573V26.904H199.123V24.9573H206.871ZM201.381 21.3753H203.678V35.6255C203.678 36.2744 203.772 36.7611 203.961 37.0855C204.155 37.4035 204.402 37.6176 204.7 37.728C205.005 37.8318 205.327 37.8837 205.664 37.8837C205.917 37.8837 206.125 37.8707 206.287 37.8448C206.449 37.8123 206.579 37.7864 206.676 37.7669L207.144 39.8305C206.988 39.8889 206.77 39.9473 206.491 40.0057C206.212 40.0706 205.859 40.103 205.43 40.103C204.781 40.103 204.146 39.9635 203.523 39.6844C202.906 39.4054 202.393 38.9804 201.985 38.4093C201.582 37.8383 201.381 37.118 201.381 36.2484V21.3753ZM210.189 39.9083V24.9573H212.487V39.9083H210.189ZM211.357 22.4654C210.91 22.4654 210.524 22.3129 210.199 22.008C209.881 21.703 209.722 21.3363 209.722 20.908C209.722 20.4798 209.881 20.1131 210.199 19.8081C210.524 19.5031 210.91 19.3506 211.357 19.3506C211.805 19.3506 212.188 19.5031 212.506 19.8081C212.83 20.1131 212.993 20.4798 212.993 20.908C212.993 21.3363 212.83 21.703 212.506 22.008C212.188 22.3129 211.805 22.4654 211.357 22.4654ZM222.631 40.2198C221.281 40.2198 220.097 39.8986 219.078 39.2562C218.066 38.6137 217.274 37.715 216.703 36.5599C216.138 35.4048 215.856 34.0551 215.856 32.5107C215.856 30.9533 216.138 29.5938 216.703 28.4322C217.274 27.2707 218.066 26.3687 219.078 25.7262C220.097 25.0838 221.281 24.7626 222.631 24.7626C223.981 24.7626 225.162 25.0838 226.174 25.7262C227.193 26.3687 227.984 27.2707 228.549 28.4322C229.12 29.5938 229.405 30.9533 229.405 32.5107C229.405 34.0551 229.12 35.4048 228.549 36.5599C227.984 37.715 227.193 38.6137 226.174 39.2562C225.162 39.8986 223.981 40.2198 222.631 40.2198ZM222.631 38.1562C223.656 38.1562 224.5 37.8934 225.162 37.3678C225.823 36.8422 226.313 36.1511 226.631 35.2945C226.949 34.438 227.108 33.51 227.108 32.5107C227.108 31.5113 226.949 30.5801 226.631 29.7171C226.313 28.854 225.823 28.1564 225.162 27.6243C224.5 27.0922 223.656 26.8262 222.631 26.8262C221.606 26.8262 220.762 27.0922 220.1 27.6243C219.438 28.1564 218.948 28.854 218.63 29.7171C218.312 30.5801 218.153 31.5113 218.153 32.5107C218.153 33.51 218.312 34.438 218.63 35.2945C218.948 36.1511 219.438 36.8422 220.1 37.3678C220.762 37.8934 221.606 38.1562 222.631 38.1562ZM235.072 30.9143V39.9083H232.775V24.9573H234.994V27.2934H235.189C235.539 26.5341 236.072 25.9242 236.785 25.4634C237.499 24.9962 238.421 24.7626 239.55 24.7626C240.562 24.7626 241.448 24.9703 242.207 25.3856C242.966 25.7944 243.557 26.4173 243.979 27.2544C244.4 28.0851 244.611 29.1363 244.611 30.4082V39.9083H242.314V30.5639C242.314 29.3894 242.009 28.4744 241.399 27.819C240.789 27.1571 239.952 26.8262 238.888 26.8262C238.155 26.8262 237.499 26.9851 236.922 27.3031C236.351 27.6211 235.9 28.0851 235.569 28.695C235.238 29.305 235.072 30.0448 235.072 30.9143ZM250.346 40.0641C249.866 40.0641 249.454 39.8921 249.11 39.5482C248.766 39.2043 248.594 38.7922 248.594 38.312C248.594 37.8318 248.766 37.4197 249.11 37.0758C249.454 36.7319 249.866 36.5599 250.346 36.5599C250.826 36.5599 251.238 36.7319 251.582 37.0758C251.926 37.4197 252.098 37.8318 252.098 38.312C252.098 38.63 252.017 38.922 251.855 39.188C251.699 39.4541 251.488 39.6682 251.222 39.8305C250.963 39.9862 250.671 40.0641 250.346 40.0641Z" fill="white"/>
<path d="M339.847 20.0556C339.847 9.20175 331.048 0.402954 320.194 0.402954V0.402954V28.8475H339.847V20.0556Z" fill="#26252A" stroke="#26252A" stroke-width="0.805851"/>
<rect width="19.6526" height="2.12144" transform="matrix(-1 0 0 1 339.847 28.8477)" fill="#26252A" stroke="#26252A" stroke-width="0.805851"/>
<path d="M339.847 39.7609C339.847 50.6148 331.048 59.4136 320.194 59.4136V59.4136V30.969H339.847V39.7609Z" fill="#26252A" stroke="#26252A" stroke-width="0.805851"/>
</svg>
