<svg width="341" height="60" viewBox="0 0 341 60" fill="none" xmlns="http://www.w3.org/2000/svg">
<path d="M0.402832 20.0556C0.402832 9.20175 9.20161 0.402954 20.0555 0.402954V0.402954V28.8475H0.402832V20.0556Z" fill="#278EFF" stroke="#278EFF" stroke-width="0.805851"/>
<rect x="0.402832" y="28.8475" width="19.6526" height="2.12144" fill="#278EFF" stroke="#278EFF" stroke-width="0.805851"/>
<path d="M0.402832 39.7611C0.402832 50.6149 9.20161 59.4137 20.0555 59.4137V59.4137V30.9691H0.402832V39.7611Z" fill="#278EFF" stroke="#278EFF" stroke-width="0.805851"/>
<rect x="20.0557" y="0.402954" width="290.877" height="59.0106" fill="#278EFF"/>
<rect x="20.0557" y="0.402954" width="290.877" height="59.0106" stroke="#278EFF" stroke-width="0.805851"/>
<path d="M23.2873 39.9082H20.7565L28.0763 19.9735H30.5681L37.8879 39.9082H35.3571L29.4001 23.1272H29.2443L23.2873 39.9082ZM24.2217 32.1212H34.4227V34.2626H24.2217V32.1212ZM40.8559 39.9082V19.9735H47.5917C49.1491 19.9735 50.4274 20.2395 51.4268 20.7716C52.4261 21.2973 53.1659 22.0208 53.6461 22.9423C54.1263 23.8637 54.3664 24.9117 54.3664 26.0863C54.3664 27.2608 54.1263 28.3023 53.6461 29.2108C53.1659 30.1193 52.4293 30.8331 51.4365 31.3522C50.4437 31.8649 49.175 32.1212 47.6306 32.1212H42.1797V29.9408H47.5527C48.617 29.9408 49.4735 29.7851 50.1224 29.4736C50.7779 29.1621 51.2516 28.7209 51.5436 28.1498C51.8421 27.5723 51.9913 26.8844 51.9913 26.0863C51.9913 25.2881 51.8421 24.5905 51.5436 23.9935C51.2451 23.3965 50.7681 22.9358 50.1127 22.6113C49.4573 22.2804 48.591 22.1149 47.5138 22.1149H43.2699V39.9082H40.8559ZM50.2393 30.9532L55.1451 39.9082H52.3417L47.5138 30.9532H50.2393ZM71.879 26.2031C71.6649 25.5477 71.3826 24.9604 71.0322 24.4413C70.6883 23.9156 70.2762 23.4679 69.796 23.098C69.3223 22.7281 68.7837 22.4458 68.1802 22.2512C67.5767 22.0565 66.9148 21.9592 66.1945 21.9592C65.0135 21.9592 63.9395 22.2642 62.9727 22.8741C62.0058 23.4841 61.2368 24.3829 60.6658 25.5704C60.0947 26.7579 59.8092 28.2147 59.8092 29.9408C59.8092 31.667 60.098 33.1238 60.6755 34.3113C61.253 35.4988 62.035 36.3976 63.0213 37.0075C64.0077 37.6175 65.1173 37.9225 66.3503 37.9225C67.4924 37.9225 68.4982 37.6792 69.3677 37.1925C70.2438 36.6993 70.9251 36.005 71.4118 35.1095C71.905 34.2075 72.1516 33.1465 72.1516 31.9265L72.8914 32.0823H66.8954V29.9408H74.4877V32.0823C74.4877 33.724 74.1373 35.1516 73.4364 36.3651C72.7421 37.5786 71.7817 38.5195 70.5552 39.1879C69.3353 39.8498 67.9336 40.1807 66.3503 40.1807C64.5852 40.1807 63.0343 39.7654 61.6975 38.9348C60.3673 38.1042 59.329 36.9232 58.5827 35.3917C57.843 33.8603 57.4731 32.0433 57.4731 29.9408C57.4731 28.364 57.684 26.9461 58.1058 25.6872C58.5341 24.4218 59.1376 23.3446 59.9163 22.4556C60.695 21.5666 61.6164 20.8852 62.6806 20.4115C63.7449 19.9378 64.9162 19.7009 66.1945 19.7009C67.2458 19.7009 68.2256 19.8599 69.1341 20.1779C70.0491 20.4894 70.8635 20.9339 71.5773 21.5114C72.2976 22.0825 72.8978 22.7671 73.378 23.5652C73.8582 24.3569 74.1892 25.2362 74.3709 26.2031H71.879ZM78.485 39.9082V19.9735H80.899V28.8507H91.5283V19.9735H93.9422V39.9082H91.5283V30.9921H80.899V39.9082H78.485ZM98.638 39.9082V19.9735H101.052V28.8507H111.681V19.9735H114.095V39.9082H111.681V30.9921H101.052V39.9082H98.638ZM118.791 39.9082V19.9735H121.205V28.8507H131.834V19.9735H134.248V39.9082H131.834V30.9921H121.205V39.9082H118.791ZM138.944 39.9082V19.9735H141.358V28.8507H151.987V19.9735H154.401V39.9082H151.987V30.9921H141.358V39.9082H138.944ZM161.783 34.3016V34.1848C161.796 32.9453 161.926 31.959 162.173 31.2257C162.419 30.4924 162.77 29.8987 163.224 29.4444C163.678 28.9902 164.223 28.5716 164.859 28.1888C165.242 27.9552 165.586 27.6794 165.891 27.3614C166.196 27.0369 166.436 26.6638 166.611 26.242C166.793 25.8202 166.884 25.353 166.884 24.8404C166.884 24.2044 166.735 23.6528 166.436 23.1856C166.138 22.7184 165.739 22.3582 165.239 22.1052C164.739 21.8521 164.184 21.7256 163.574 21.7256C163.042 21.7256 162.53 21.8359 162.036 22.0565C161.543 22.2771 161.131 22.6243 160.8 23.098C160.469 23.5717 160.278 24.1914 160.226 24.9572H157.773C157.825 23.854 158.111 22.9098 158.63 22.1246C159.155 21.3394 159.846 20.7392 160.703 20.3239C161.566 19.9086 162.523 19.7009 163.574 19.7009C164.716 19.7009 165.709 19.9281 166.553 20.3823C167.403 20.8365 168.058 21.4595 168.519 22.2512C168.986 23.0429 169.22 23.9448 169.22 24.9572C169.22 25.671 169.11 26.3166 168.889 26.8942C168.675 27.4717 168.363 27.9876 167.955 28.4418C167.552 28.8961 167.066 29.2984 166.495 29.6488C165.923 30.0057 165.466 30.3821 165.122 30.7779C164.778 31.1673 164.528 31.6313 164.373 32.1699C164.217 32.7085 164.132 33.3801 164.119 34.1848V34.3016H161.783ZM163.029 40.0639C162.549 40.0639 162.137 39.892 161.793 39.5481C161.449 39.2041 161.277 38.7921 161.277 38.3119C161.277 37.8317 161.449 37.4196 161.793 37.0757C162.137 36.7318 162.549 36.5598 163.029 36.5598C163.51 36.5598 163.922 36.7318 164.266 37.0757C164.609 37.4196 164.781 37.8317 164.781 38.3119C164.781 38.6298 164.7 38.9218 164.538 39.1879C164.382 39.454 164.171 39.6681 163.905 39.8303C163.646 39.9861 163.354 40.0639 163.029 40.0639ZM175.539 34.3016V34.1848C175.552 32.9453 175.682 31.959 175.928 31.2257C176.175 30.4924 176.525 29.8987 176.979 29.4444C177.434 28.9902 177.979 28.5716 178.615 28.1888C178.998 27.9552 179.341 27.6794 179.646 27.3614C179.951 27.0369 180.192 26.6638 180.367 26.242C180.548 25.8202 180.639 25.353 180.639 24.8404C180.639 24.2044 180.49 23.6528 180.192 23.1856C179.893 22.7184 179.494 22.3582 178.994 22.1052C178.495 21.8521 177.94 21.7256 177.33 21.7256C176.798 21.7256 176.285 21.8359 175.792 22.0565C175.299 22.2771 174.887 22.6243 174.556 23.098C174.225 23.5717 174.033 24.1914 173.981 24.9572H171.529C171.58 23.854 171.866 22.9098 172.385 22.1246C172.911 21.3394 173.602 20.7392 174.458 20.3239C175.321 19.9086 176.279 19.7009 177.33 19.7009C178.472 19.7009 179.465 19.9281 180.308 20.3823C181.158 20.8365 181.814 21.4595 182.275 22.2512C182.742 23.0429 182.975 23.9448 182.975 24.9572C182.975 25.671 182.865 26.3166 182.644 26.8942C182.43 27.4717 182.119 27.9876 181.71 28.4418C181.308 28.8961 180.821 29.2984 180.25 29.6488C179.679 30.0057 179.221 30.3821 178.878 30.7779C178.534 31.1673 178.284 31.6313 178.128 32.1699C177.972 32.7085 177.888 33.3801 177.875 34.1848V34.3016H175.539ZM176.785 40.0639C176.305 40.0639 175.893 39.892 175.549 39.5481C175.205 39.2041 175.033 38.7921 175.033 38.3119C175.033 37.8317 175.205 37.4196 175.549 37.0757C175.893 36.7318 176.305 36.5598 176.785 36.5598C177.265 36.5598 177.677 36.7318 178.021 37.0757C178.365 37.4196 178.537 37.8317 178.537 38.3119C178.537 38.6298 178.456 38.9218 178.293 39.1879C178.138 39.454 177.927 39.6681 177.661 39.8303C177.401 39.9861 177.109 40.0639 176.785 40.0639ZM189.333 19.9735L189.139 34.3016H186.88L186.686 19.9735H189.333ZM188.009 40.0639C187.529 40.0639 187.117 39.892 186.773 39.5481C186.429 39.2041 186.257 38.7921 186.257 38.3119C186.257 37.8317 186.429 37.4196 186.773 37.0757C187.117 36.7318 187.529 36.5598 188.009 36.5598C188.49 36.5598 188.902 36.7318 189.246 37.0757C189.59 37.4196 189.762 37.8317 189.762 38.3119C189.762 38.6298 189.68 38.9218 189.518 39.1879C189.362 39.454 189.152 39.6681 188.885 39.8303C188.626 39.9861 188.334 40.0639 188.009 40.0639ZM196.825 19.9735L196.63 34.3016H194.372L194.177 19.9735H196.825ZM195.501 40.0639C195.021 40.0639 194.609 39.892 194.265 39.5481C193.921 39.2041 193.749 38.7921 193.749 38.3119C193.749 37.8317 193.921 37.4196 194.265 37.0757C194.609 36.7318 195.021 36.5598 195.501 36.5598C195.981 36.5598 196.393 36.7318 196.737 37.0757C197.081 37.4196 197.253 37.8317 197.253 38.3119C197.253 38.6298 197.172 38.9218 197.01 39.1879C196.854 39.454 196.643 39.6681 196.377 39.8303C196.118 39.9861 195.826 40.0639 195.501 40.0639ZM204.317 19.9735L204.122 34.3016H201.864L201.669 19.9735H204.317ZM202.993 40.0639C202.513 40.0639 202.101 39.892 201.757 39.5481C201.413 39.2041 201.241 38.7921 201.241 38.3119C201.241 37.8317 201.413 37.4196 201.757 37.0757C202.101 36.7318 202.513 36.5598 202.993 36.5598C203.473 36.5598 203.885 36.7318 204.229 37.0757C204.573 37.4196 204.745 37.8317 204.745 38.3119C204.745 38.6298 204.664 38.9218 204.502 39.1879C204.346 39.454 204.135 39.6681 203.869 39.8303C203.609 39.9861 203.317 40.0639 202.993 40.0639ZM211.809 19.9735L211.614 34.3016H209.356L209.161 19.9735H211.809ZM210.485 40.0639C210.005 40.0639 209.592 39.892 209.249 39.5481C208.905 39.2041 208.733 38.7921 208.733 38.3119C208.733 37.8317 208.905 37.4196 209.249 37.0757C209.592 36.7318 210.005 36.5598 210.485 36.5598C210.965 36.5598 211.377 36.7318 211.721 37.0757C212.065 37.4196 212.237 37.8317 212.237 38.3119C212.237 38.6298 212.156 38.9218 211.993 39.1879C211.838 39.454 211.627 39.6681 211.361 39.8303C211.101 39.9861 210.809 40.0639 210.485 40.0639ZM221.909 40.1807C220.598 40.1807 219.469 39.9406 218.522 39.4605C217.574 38.9803 216.844 38.3216 216.332 37.4845C215.819 36.6474 215.563 35.6902 215.563 34.613C215.563 33.7824 215.738 33.0459 216.088 32.4035C216.445 31.7546 216.935 31.1543 217.558 30.6027C218.187 30.0447 218.911 29.4866 219.729 28.9285L222.61 26.7871C223.174 26.4172 223.625 26.0214 223.963 25.5996C224.307 25.1778 224.479 24.6262 224.479 23.9448C224.479 23.4387 224.255 22.9488 223.807 22.4751C223.366 22.0013 222.785 21.7645 222.065 21.7645C221.559 21.7645 221.111 21.8943 220.721 22.1538C220.339 22.4069 220.037 22.7314 219.816 23.1272C219.602 23.5166 219.495 23.9189 219.495 24.3342C219.495 24.8014 219.622 25.2751 219.875 25.7553C220.134 26.229 220.462 26.7157 220.858 27.2154C221.26 27.7086 221.675 28.2147 222.104 28.7339L231.253 39.9082H228.489L220.936 30.7974C220.235 29.9538 219.599 29.1881 219.028 28.5002C218.457 27.8124 218.002 27.1343 217.665 26.4659C217.328 25.7975 217.159 25.074 217.159 24.2953C217.159 23.3998 217.357 22.6146 217.753 21.9397C218.155 21.2583 218.716 20.7295 219.437 20.3531C220.163 19.9702 221.013 19.7788 221.987 19.7788C222.986 19.7788 223.846 19.9735 224.566 20.3628C225.287 20.7457 225.841 21.2551 226.231 21.891C226.62 22.5205 226.815 23.2051 226.815 23.9448C226.815 24.8988 226.578 25.7261 226.104 26.427C225.631 27.1278 224.985 27.7799 224.167 28.3834L220.196 31.3425C219.3 32.0044 218.694 32.6468 218.376 33.2698C218.058 33.8927 217.899 34.3405 217.899 34.613C217.899 35.236 218.061 35.8168 218.385 36.3554C218.71 36.894 219.167 37.3288 219.758 37.6597C220.348 37.9907 221.039 38.1561 221.831 38.1561C222.584 38.1561 223.317 37.9971 224.031 37.6792C224.745 37.3547 225.39 36.8875 225.968 36.2775C226.552 35.6675 227.013 34.9343 227.35 34.0777C227.694 33.2211 227.866 32.2575 227.866 31.1868H230.085C230.085 32.5106 229.933 33.591 229.628 34.4281C229.323 35.2652 228.979 35.9206 228.596 36.3943C228.213 36.868 227.905 37.2217 227.671 37.4553C227.593 37.5526 227.522 37.65 227.457 37.7473C227.392 37.8446 227.321 37.942 227.243 38.0393C226.601 38.7596 225.789 39.2982 224.81 39.6551C223.83 40.0055 222.863 40.1807 221.909 40.1807ZM237.475 31.1868L237.631 26.9039L234.01 29.2011L233.075 27.5658L236.891 25.5801L233.075 23.5944L234.01 21.9592L237.631 24.2563L237.475 19.9735H239.344L239.188 24.2563L242.809 21.9592L243.743 23.5944L239.928 25.5801L243.743 27.5658L242.809 29.2011L239.188 26.9039L239.344 31.1868H237.475ZM251.936 40.1807C250.625 40.1807 249.496 39.9406 248.549 39.4605C247.601 38.9803 246.871 38.3216 246.359 37.4845C245.846 36.6474 245.59 35.6902 245.59 34.613C245.59 33.7824 245.765 33.0459 246.115 32.4035C246.472 31.7546 246.962 31.1543 247.585 30.6027C248.215 30.0447 248.938 29.4866 249.756 28.9285L252.637 26.7871C253.201 26.4172 253.652 26.0214 253.99 25.5996C254.334 25.1778 254.506 24.6262 254.506 23.9448C254.506 23.4387 254.282 22.9488 253.834 22.4751C253.393 22.0013 252.812 21.7645 252.092 21.7645C251.586 21.7645 251.138 21.8943 250.749 22.1538C250.366 22.4069 250.064 22.7314 249.843 23.1272C249.629 23.5166 249.522 23.9189 249.522 24.3342C249.522 24.8014 249.649 25.2751 249.902 25.7553C250.161 26.229 250.489 26.7157 250.885 27.2154C251.287 27.7086 251.702 28.2147 252.131 28.7339L261.28 39.9082H258.516L250.963 30.7974C250.262 29.9538 249.626 29.1881 249.055 28.5002C248.484 27.8124 248.03 27.1343 247.692 26.4659C247.355 25.7975 247.186 25.074 247.186 24.2953C247.186 23.3998 247.384 22.6146 247.78 21.9397C248.182 21.2583 248.743 20.7295 249.464 20.3531C250.19 19.9702 251.041 19.7788 252.014 19.7788C253.013 19.7788 253.873 19.9735 254.593 20.3628C255.314 20.7457 255.868 21.2551 256.258 21.891C256.647 22.5205 256.842 23.2051 256.842 23.9448C256.842 24.8988 256.605 25.7261 256.131 26.427C255.658 27.1278 255.012 27.7799 254.194 28.3834L250.223 31.3425C249.327 32.0044 248.721 32.6468 248.403 33.2698C248.085 33.8927 247.926 34.3405 247.926 34.613C247.926 35.236 248.088 35.8168 248.412 36.3554C248.737 36.894 249.194 37.3288 249.785 37.6597C250.375 37.9907 251.066 38.1561 251.858 38.1561C252.611 38.1561 253.344 37.9971 254.058 37.6792C254.772 37.3547 255.417 36.8875 255.995 36.2775C256.579 35.6675 257.04 34.9343 257.377 34.0777C257.721 33.2211 257.893 32.2575 257.893 31.1868H260.112C260.112 32.5106 259.96 33.591 259.655 34.4281C259.35 35.2652 259.006 35.9206 258.623 36.3943C258.24 36.868 257.932 37.2217 257.698 37.4553C257.621 37.5526 257.549 37.65 257.484 37.7473C257.419 37.8446 257.348 37.942 257.27 38.0393C256.628 38.7596 255.817 39.2982 254.837 39.6551C253.857 40.0055 252.89 40.1807 251.936 40.1807ZM275.172 42.2443C273.186 42.2443 271.431 41.9718 269.906 41.4267C268.381 40.8881 267.1 40.0931 266.061 39.0419C265.023 37.9907 264.238 36.7026 263.706 35.1776C263.174 33.6526 262.908 31.9071 262.908 29.9408C262.908 28.0395 263.177 26.3394 263.716 24.8404C264.261 23.3414 265.049 22.0695 266.081 21.0247C267.119 19.9735 268.378 19.1721 269.858 18.6205C271.344 18.0689 273.024 17.7931 274.9 17.7931C276.723 17.7931 278.319 18.0916 279.689 18.6886C281.064 19.2791 282.213 20.0805 283.134 21.0929C284.062 22.0987 284.757 23.231 285.217 24.4899C285.685 25.7488 285.918 27.0467 285.918 28.3834C285.918 29.3244 285.873 30.2783 285.782 31.2452C285.691 32.212 285.5 33.1011 285.208 33.9122C284.916 34.7169 284.465 35.3658 283.855 35.859C283.251 36.3521 282.434 36.5987 281.402 36.5987C280.948 36.5987 280.448 36.5273 279.903 36.3846C279.358 36.2418 278.874 36.005 278.452 35.674C278.031 35.3431 277.781 34.8986 277.703 34.3405H277.586C277.43 34.7169 277.19 35.0738 276.866 35.4112C276.548 35.7486 276.129 36.0179 275.61 36.2191C275.098 36.4203 274.471 36.5079 273.732 36.4819C272.888 36.4495 272.145 36.2613 271.503 35.9174C270.86 35.5669 270.322 35.0932 269.887 34.4962C269.458 33.8927 269.134 33.1952 268.913 32.4035C268.699 31.6053 268.592 30.7455 268.592 29.824C268.592 28.948 268.722 28.1466 268.981 27.4198C269.241 26.693 269.601 26.0571 270.062 25.512C270.529 24.9669 271.074 24.5321 271.697 24.2077C272.327 23.8767 273.005 23.6723 273.732 23.5944C274.38 23.5295 274.971 23.5587 275.503 23.682C276.035 23.7988 276.473 23.9773 276.817 24.2174C277.161 24.451 277.378 24.7106 277.469 24.9961H277.586V23.9059H279.65V32.7052C279.65 33.2503 279.802 33.7305 280.107 34.1458C280.412 34.5611 280.857 34.7688 281.441 34.7688C282.103 34.7688 282.609 34.5417 282.959 34.0874C283.316 33.6332 283.559 32.9323 283.689 31.9849C283.825 31.0375 283.894 29.824 283.894 28.3445C283.894 27.475 283.774 26.6184 283.533 25.7748C283.3 24.9247 282.943 24.1298 282.463 23.39C281.989 22.6503 281.389 21.9981 280.662 21.4335C279.935 20.869 279.082 20.4277 278.102 20.1097C277.129 19.7853 276.022 19.6231 274.783 19.6231C273.258 19.6231 271.892 19.8599 270.685 20.3336C269.484 20.8008 268.462 21.4855 267.619 22.3874C266.782 23.283 266.142 24.3731 265.701 25.658C265.266 26.9364 265.049 28.3899 265.049 30.0187C265.049 31.6734 265.266 33.1432 265.701 34.4281C266.142 35.713 266.791 36.7966 267.648 37.6792C268.511 38.5617 269.579 39.2333 270.85 39.6941C272.122 40.1483 273.589 40.3754 275.25 40.3754C275.964 40.3754 276.668 40.3073 277.362 40.171C278.057 40.0347 278.67 39.8855 279.202 39.7233C279.734 39.561 280.117 39.441 280.351 39.3631L280.896 41.1541C280.493 41.3228 279.968 41.4916 279.319 41.6603C278.676 41.829 277.988 41.9685 277.255 42.0788C276.528 42.1891 275.834 42.2443 275.172 42.2443ZM274.043 34.4962C274.913 34.4962 275.617 34.321 276.155 33.9706C276.694 33.6202 277.086 33.0913 277.333 32.384C277.58 31.6767 277.703 30.7844 277.703 29.7072C277.703 28.617 277.567 27.767 277.294 27.157C277.022 26.547 276.619 26.1187 276.087 25.8721C275.555 25.6255 274.9 25.5022 274.121 25.5022C273.381 25.5022 272.748 25.6969 272.223 26.0863C271.704 26.4691 271.305 26.9818 271.026 27.6242C270.753 28.2601 270.617 28.9545 270.617 29.7072C270.617 30.5378 270.727 31.3198 270.948 32.0531C271.168 32.7799 271.528 33.3704 272.028 33.8246C272.528 34.2724 273.199 34.4962 274.043 34.4962ZM296.656 39.9082L299.927 19.9735H301.873L298.603 39.9082H296.656ZM287.584 34.3794L287.896 32.4327H302.769L302.458 34.3794H287.584ZM289.648 39.9082L292.918 19.9735H294.865L291.595 39.9082H289.648ZM288.752 27.449L289.064 25.5022H303.937L303.626 27.449H288.752Z" fill="white"/>
<path d="M330.585 20.0556C330.585 9.20175 321.787 0.402954 310.933 0.402954V0.402954V28.8475H330.585V20.0556Z" fill="#278EFF" stroke="#278EFF" stroke-width="0.805851"/>
<rect width="19.6526" height="2.1217" transform="matrix(-1 0 0 1 330.585 28.8477)" fill="#278EFF" stroke="#278EFF" stroke-width="0.805851"/>
<path d="M310.933 30.9692V59.4136C315.692 59.4136 320.056 57.7211 323.457 54.9058C326.849 57.1658 332.288 59.3156 338.86 58.1206C337.05 57.3447 330.069 52.6904 330.327 43.3813C330.296 43.4236 330.262 43.463 330.229 43.5034C330.462 42.2919 330.586 41.0409 330.586 39.7612V30.9692H310.933Z" fill="#278EFF"/>
<path d="M310.933 30.9692H310.53V30.5663H310.933V30.9692ZM310.933 59.4136V59.8165H310.53V59.4136H310.933ZM323.457 54.9058L323.2 54.5954L323.431 54.4042L323.68 54.5704L323.457 54.9058ZM338.86 58.1206L339.019 57.7503L340.249 58.2776L338.932 58.517L338.86 58.1206ZM330.327 43.3813L330.001 43.1444L330.766 42.0929L330.73 43.3925L330.327 43.3813ZM330.229 43.5034L330.539 43.7597L329.833 43.4271L330.229 43.5034ZM330.586 39.7612L330.989 39.7612L330.989 39.7612L330.586 39.7612ZM330.586 30.9692V30.5663H330.989V30.9692H330.586ZM310.933 30.9692H311.336V59.4136H310.933H310.53V30.9692H310.933ZM310.933 59.4136V59.0106C315.595 59.0106 319.869 57.3532 323.2 54.5954L323.457 54.9058L323.714 55.2161C320.244 58.0891 315.79 59.8165 310.933 59.8165V59.4136ZM323.457 54.9058L323.68 54.5704C327.01 56.789 332.344 58.8958 338.788 57.7242L338.86 58.1206L338.932 58.517C332.232 59.7353 326.688 57.5427 323.234 55.2411L323.457 54.9058ZM338.86 58.1206L338.702 58.4909C337.735 58.0766 335.484 56.6779 333.503 54.2026C331.515 51.7174 329.792 48.1359 329.924 43.3702L330.327 43.3813L330.73 43.3925C330.604 47.9358 332.242 51.336 334.133 53.6992C336.031 56.0723 338.176 57.3888 339.019 57.7503L338.86 58.1206ZM330.327 43.3813L330.653 43.6183C330.613 43.6737 330.562 43.7323 330.539 43.7597L330.229 43.5034L329.918 43.2472C329.962 43.1938 329.98 43.1735 330.001 43.1444L330.327 43.3813ZM330.229 43.5034L329.833 43.4271C330.062 42.2403 330.183 41.0149 330.183 39.7612L330.586 39.7612L330.989 39.7612C330.989 41.067 330.862 42.3435 330.624 43.5797L330.229 43.5034ZM330.586 39.7612H330.183V30.9692H330.586H330.989V39.7612H330.586ZM330.586 30.9692V31.3722H310.933V30.9692V30.5663H330.586V30.9692Z" fill="#278EFF"/>
</svg>
