<svg width="341" height="85" viewBox="0 0 341 85" fill="none" xmlns="http://www.w3.org/2000/svg">
<path d="M9.66406 20.0556C9.66406 9.20175 18.4628 0.402954 29.3167 0.402954V0.402954V28.8475H9.66406V20.0556Z" fill="#26252A" stroke="#26252A" stroke-width="0.805851"/>
<rect x="9.66406" y="28.8474" width="19.6526" height="2.1217" fill="#26252A" stroke="#26252A" stroke-width="0.805851"/>
<path d="M29.3169 30.9692V59.4136C24.5572 59.4136 20.1931 57.7211 16.7925 54.9058C13.4001 57.1658 7.96139 59.3156 1.38916 58.1206C3.19942 57.3447 10.1809 52.6903 9.92236 43.3813C9.95309 43.4236 9.98772 43.463 10.021 43.5034C9.78742 42.2919 9.66357 41.041 9.66357 39.7612V30.9692H29.3169Z" fill="#26252A"/>
<path d="M29.3169 30.9692H29.7198V30.5663H29.3169V30.9692ZM29.3169 59.4136V59.8165H29.7198V59.4136H29.3169ZM16.7925 54.9058L17.0494 54.5954L16.8185 54.4042L16.5691 54.5704L16.7925 54.9058ZM1.38916 58.1206L1.23043 57.7503L0.000112772 58.2776L1.31708 58.517L1.38916 58.1206ZM9.92236 43.3813L10.2482 43.1444L9.48349 42.0928L9.51959 43.3925L9.92236 43.3813ZM10.021 43.5034L9.71006 43.7597L10.4166 43.4271L10.021 43.5034ZM9.66357 39.7612H9.26065V39.7612H9.66357ZM9.66357 30.9692V30.5663H9.26065V30.9692H9.66357ZM29.3169 30.9692H28.914V59.4136H29.3169H29.7198V30.9692H29.3169ZM29.3169 59.4136V59.0106C24.6545 59.0106 20.3805 57.3532 17.0494 54.5954L16.7925 54.9058L16.5355 55.2161C20.0057 58.0891 24.46 59.8165 29.3169 59.8165V59.4136ZM16.7925 54.9058L16.5691 54.5704C13.2391 56.789 7.90505 58.8958 1.46124 57.7242L1.38916 58.1206L1.31708 58.517C8.01773 59.7353 13.5612 57.5427 17.0159 55.2411L16.7925 54.9058ZM1.38916 58.1206L1.54789 58.4909C2.51474 58.0766 4.76599 56.6779 6.74621 54.2026C8.73435 51.7174 10.4575 48.1359 10.3251 43.3702L9.92236 43.3813L9.51959 43.3925C9.64579 47.9358 8.00749 51.336 6.11695 53.6992C4.21849 56.0723 2.07385 57.3888 1.23043 57.7503L1.38916 58.1206ZM9.92236 43.3813L9.5965 43.6183C9.63679 43.6737 9.68751 43.7323 9.71006 43.7597L10.021 43.5034L10.3319 43.2472C10.2879 43.1938 10.2694 43.1735 10.2482 43.1444L9.92236 43.3813ZM10.021 43.5034L10.4166 43.4271C10.1878 42.2403 10.0665 41.0149 10.0665 39.7612H9.66357H9.26065C9.26065 41.067 9.38702 42.3435 9.62536 43.5797L10.021 43.5034ZM9.66357 39.7612H10.0665V30.9692H9.66357H9.26065V39.7612H9.66357ZM9.66357 30.9692V31.3722H29.3169V30.9692V30.5663H9.66357V30.9692Z" fill="#26252A"/>
<rect x="29.3164" y="0.402954" width="290.877" height="59.0106" fill="#26252A"/>
<rect x="29.3164" y="0.402954" width="290.877" height="59.0106" stroke="#26252A" stroke-width="0.805851"/>
<path d="M32.548 39.9083H30.0172L37.337 19.9735H39.8289L47.1486 39.9083H44.6179L38.6608 23.1273H38.5051L32.548 39.9083ZM33.4825 32.1213H43.6834V34.2627H33.4825V32.1213ZM60.3955 28.3056L58.3319 28.8897C58.2022 28.5457 58.0107 28.2115 57.7577 27.8871C57.5111 27.5561 57.1736 27.2836 56.7453 27.0694C56.3171 26.8553 55.7687 26.7482 55.1003 26.7482C54.1854 26.7482 53.4229 26.9591 52.8129 27.3809C52.2094 27.7962 51.9077 28.3251 51.9077 28.9675C51.9077 29.5386 52.1153 29.9896 52.5306 30.3205C52.9459 30.6515 53.5949 30.9273 54.4774 31.1479L56.6967 31.693C58.0334 32.0174 59.0295 32.5139 59.6849 33.1822C60.3403 33.8441 60.668 34.6975 60.668 35.7422C60.668 36.5988 60.4215 37.3645 59.9283 38.0394C59.4416 38.7143 58.7602 39.2464 57.8842 39.6357C57.0082 40.0251 55.9894 40.2197 54.8278 40.2197C53.3028 40.2197 52.0407 39.8888 51.0414 39.2269C50.042 38.565 49.4093 37.5981 49.1433 36.3262L51.3236 35.7812C51.5313 36.5858 51.9239 37.1893 52.5014 37.5916C53.0855 37.994 53.8479 38.1951 54.7889 38.1951C55.8596 38.1951 56.7097 37.968 57.3391 37.5138C57.975 37.053 58.293 36.5015 58.293 35.859C58.293 35.3399 58.1113 34.9051 57.7479 34.5547C57.3845 34.1978 56.8265 33.9317 56.0737 33.7565L53.5819 33.1725C52.2127 32.848 51.2068 32.3451 50.5644 31.6638C49.9285 30.9759 49.6105 30.1161 49.6105 29.0843C49.6105 28.2407 49.8474 27.4945 50.3211 26.8456C50.8013 26.1967 51.4534 25.6873 52.2776 25.3174C53.1082 24.9475 54.0491 24.7625 55.1003 24.7625C56.5799 24.7625 57.7414 25.087 58.585 25.7359C59.4351 26.3848 60.0386 27.2414 60.3955 28.3056ZM66.1303 34.4574L66.0914 31.6151H66.5586L73.0997 24.9572H75.942L68.9726 32.0045H68.7779L66.1303 34.4574ZM63.9889 39.9083V19.9735H66.2861V39.9083H63.9889ZM73.4891 39.9083L67.6488 32.5106L69.2841 30.9143L76.4092 39.9083H73.4891ZM92.9915 24.9572V26.904H84.932V24.9572H92.9915ZM87.3459 39.9083V22.8937C87.3459 22.0371 87.5471 21.3233 87.9494 20.7522C88.3517 20.1812 88.8741 19.7529 89.5166 19.4674C90.159 19.1819 90.8371 19.0391 91.5509 19.0391C92.1155 19.0391 92.5762 19.0845 92.9331 19.1754C93.29 19.2662 93.5561 19.3506 93.7313 19.4284L93.0694 21.4141C92.9526 21.3752 92.7903 21.3265 92.5827 21.2681C92.3815 21.2097 92.1155 21.1805 91.7845 21.1805C91.0253 21.1805 90.4769 21.372 90.1395 21.7548C89.8086 22.1377 89.6431 22.699 89.6431 23.4388V39.9083H87.3459ZM96.0739 39.9083V24.9572H98.3711V39.9083H96.0739ZM97.2419 22.4654C96.7942 22.4654 96.4081 22.3129 96.0836 22.0079C95.7657 21.7029 95.6067 21.3363 95.6067 20.908C95.6067 20.4797 95.7657 20.1131 96.0836 19.8081C96.4081 19.5031 96.7942 19.3506 97.2419 19.3506C97.6897 19.3506 98.0726 19.5031 98.3905 19.8081C98.715 20.1131 98.8772 20.4797 98.8772 20.908C98.8772 21.3363 98.715 21.7029 98.3905 22.0079C98.0726 22.3129 97.6897 22.4654 97.2419 22.4654ZM104.739 30.9143V39.9083H102.441V24.9572H104.661V27.2933H104.855C105.206 26.5341 105.738 25.9241 106.452 25.4634C107.166 24.9962 108.087 24.7625 109.216 24.7625C110.228 24.7625 111.114 24.9702 111.873 25.3855C112.633 25.7943 113.223 26.4173 113.645 27.2544C114.067 28.085 114.278 29.1362 114.278 30.4081V39.9083H111.98V30.5639C111.98 29.3893 111.676 28.4743 111.066 27.8189C110.456 27.157 109.618 26.8261 108.554 26.8261C107.821 26.8261 107.166 26.9851 106.588 27.3031C106.017 27.621 105.566 28.085 105.235 28.695C104.904 29.305 104.739 30.0447 104.739 30.9143ZM122.738 40.2587C121.791 40.2587 120.931 40.0802 120.159 39.7233C119.386 39.3599 118.773 38.8376 118.319 38.1562C117.865 37.4683 117.637 36.6377 117.637 35.6643C117.637 34.8078 117.806 34.1134 118.144 33.5813C118.481 33.0427 118.932 32.6209 119.497 32.3159C120.061 32.0109 120.684 31.7838 121.365 31.6346C122.053 31.4788 122.744 31.3555 123.439 31.2647C124.347 31.1479 125.084 31.0603 125.648 31.0019C126.219 30.937 126.635 30.8299 126.894 30.6807C127.16 30.5314 127.293 30.2718 127.293 29.902V29.8241C127.293 28.8637 127.031 28.1174 126.505 27.5853C125.986 27.0532 125.197 26.7872 124.14 26.7872C123.043 26.7872 122.183 27.0273 121.56 27.5075C120.937 27.9877 120.499 28.5003 120.246 29.0454L118.066 28.2667C118.455 27.3582 118.974 26.6509 119.623 26.1447C120.279 25.6321 120.992 25.2752 121.765 25.074C122.543 24.8664 123.309 24.7625 124.062 24.7625C124.542 24.7625 125.094 24.8209 125.716 24.9378C126.346 25.0481 126.953 25.2784 127.537 25.6288C128.127 25.9793 128.617 26.5081 129.006 27.2155C129.396 27.9228 129.591 28.8702 129.591 30.0577V39.9083H127.293V37.8836H127.177C127.021 38.2081 126.761 38.5553 126.398 38.9252C126.034 39.295 125.551 39.6098 124.948 39.8693C124.344 40.1289 123.607 40.2587 122.738 40.2587ZM123.088 38.1951C123.997 38.1951 124.763 38.0167 125.386 37.6598C126.015 37.3029 126.489 36.8421 126.807 36.2776C127.131 35.713 127.293 35.1193 127.293 34.4963V32.3938C127.196 32.5106 126.982 32.6177 126.651 32.715C126.326 32.8059 125.95 32.887 125.522 32.9584C125.1 33.0233 124.688 33.0817 124.286 33.1336C123.89 33.179 123.569 33.2179 123.322 33.2504C122.725 33.3282 122.167 33.4548 121.648 33.63C121.135 33.7987 120.72 34.055 120.402 34.399C120.09 34.7364 119.935 35.1971 119.935 35.7812C119.935 36.5793 120.23 37.1828 120.82 37.5916C121.417 37.994 122.173 38.1951 123.088 38.1951ZM135.943 30.9143V39.9083H133.646V24.9572H135.866V27.2933H136.06C136.411 26.5341 136.943 25.9241 137.657 25.4634C138.37 24.9962 139.292 24.7625 140.421 24.7625C141.433 24.7625 142.319 24.9702 143.078 25.3855C143.838 25.7943 144.428 26.4173 144.85 27.2544C145.272 28.085 145.483 29.1362 145.483 30.4081V39.9083H143.185V30.5639C143.185 29.3893 142.88 28.4743 142.27 27.8189C141.66 27.157 140.823 26.8261 139.759 26.8261C139.026 26.8261 138.37 26.9851 137.793 27.3031C137.222 27.621 136.771 28.085 136.44 28.695C136.109 29.305 135.943 30.0447 135.943 30.9143ZM155.617 40.2197C154.215 40.2197 153.008 39.8888 151.996 39.2269C150.984 38.565 150.205 37.6533 149.66 36.4917C149.115 35.3302 148.842 34.0031 148.842 32.5106C148.842 30.9921 149.121 29.6521 149.679 28.4906C150.244 27.3225 151.029 26.4108 152.035 25.7554C153.047 25.0935 154.228 24.7625 155.578 24.7625C156.629 24.7625 157.577 24.9572 158.42 25.3466C159.264 25.7359 159.955 26.281 160.494 26.9818C161.032 27.6827 161.366 28.5003 161.496 29.4347H159.199C159.024 28.7534 158.634 28.1499 158.031 27.6243C157.434 27.0922 156.629 26.8261 155.617 26.8261C154.721 26.8261 153.936 27.0597 153.261 27.5269C152.593 27.9877 152.071 28.6398 151.694 29.4834C151.324 30.3205 151.139 31.3036 151.139 32.4327C151.139 33.5878 151.321 34.5936 151.685 35.4502C152.054 36.3068 152.574 36.9719 153.242 37.4456C153.917 37.9193 154.709 38.1562 155.617 38.1562C156.214 38.1562 156.756 38.0524 157.243 37.8447C157.729 37.6371 158.141 37.3386 158.479 36.9492C158.816 36.5599 159.056 36.0926 159.199 35.5475H161.496C161.366 36.4301 161.045 37.225 160.533 37.9323C160.026 38.6331 159.355 39.1912 158.518 39.6065C157.687 40.0153 156.72 40.2197 155.617 40.2197ZM170.986 40.2197C169.545 40.2197 168.303 39.9018 167.258 39.2658C166.22 38.6234 165.418 37.7279 164.854 36.5793C164.295 35.4242 164.016 34.081 164.016 32.5495C164.016 31.0181 164.295 29.6684 164.854 28.5003C165.418 27.3258 166.203 26.4108 167.209 25.7554C168.221 25.0935 169.402 24.7625 170.752 24.7625C171.531 24.7625 172.3 24.8923 173.059 25.1519C173.818 25.4115 174.509 25.8333 175.132 26.4173C175.755 26.9948 176.252 27.7605 176.622 28.7144C176.992 29.6684 177.176 30.8429 177.176 32.2381V33.2114H165.652V31.2258H174.84C174.84 30.3822 174.672 29.6294 174.334 28.9675C174.003 28.3056 173.53 27.7833 172.913 27.4004C172.303 27.0175 171.583 26.8261 170.752 26.8261C169.837 26.8261 169.046 27.0532 168.377 27.5075C167.715 27.9552 167.206 28.5392 166.849 29.2595C166.492 29.9798 166.314 30.752 166.314 31.5762V32.9C166.314 34.0291 166.508 34.9862 166.898 35.7714C167.293 36.5501 167.842 37.1439 168.543 37.5527C169.243 37.955 170.058 38.1562 170.986 38.1562C171.589 38.1562 172.134 38.0718 172.621 37.9031C173.114 37.7279 173.539 37.4683 173.896 37.1244C174.253 36.774 174.529 36.3392 174.724 35.8201L176.943 36.443C176.709 37.1958 176.317 37.8577 175.765 38.4287C175.214 38.9933 174.532 39.4346 173.721 39.7525C172.91 40.064 171.998 40.2197 170.986 40.2197ZM183.532 34.3016V34.1848C183.545 32.9454 183.675 31.959 183.921 31.2258C184.168 30.4925 184.518 29.8987 184.972 29.4445C185.427 28.9902 185.972 28.5717 186.608 28.1888C186.991 27.9552 187.335 27.6794 187.639 27.3615C187.944 27.037 188.185 26.6639 188.36 26.2421C188.541 25.8203 188.632 25.3531 188.632 24.8404C188.632 24.2045 188.483 23.6529 188.185 23.1857C187.886 22.7185 187.487 22.3583 186.987 22.1052C186.488 21.8522 185.933 21.7256 185.323 21.7256C184.791 21.7256 184.278 21.8359 183.785 22.0566C183.292 22.2772 182.88 22.6244 182.549 23.0981C182.218 23.5718 182.026 24.1915 181.974 24.9572H179.522C179.573 23.8541 179.859 22.9099 180.378 22.1247C180.904 21.3395 181.595 20.7393 182.451 20.324C183.314 19.9086 184.272 19.701 185.323 19.701C186.465 19.701 187.458 19.9281 188.301 20.3824C189.151 20.8366 189.807 21.4596 190.268 22.2512C190.735 23.0429 190.968 23.9449 190.968 24.9572C190.968 25.671 190.858 26.3167 190.637 26.8942C190.423 27.4718 190.112 27.9877 189.703 28.4419C189.301 28.8961 188.814 29.2985 188.243 29.6489C187.672 30.0058 187.214 30.3822 186.871 30.778C186.527 31.1674 186.277 31.6313 186.121 32.1699C185.965 32.7085 185.881 33.3802 185.868 34.1848V34.3016H183.532ZM184.778 40.064C184.298 40.064 183.886 39.892 183.542 39.5481C183.198 39.2042 183.026 38.7921 183.026 38.3119C183.026 37.8317 183.198 37.4197 183.542 37.0757C183.886 36.7318 184.298 36.5599 184.778 36.5599C185.258 36.5599 185.67 36.7318 186.014 37.0757C186.358 37.4197 186.53 37.8317 186.53 38.3119C186.53 38.6299 186.449 38.9219 186.287 39.188C186.131 39.454 185.92 39.6682 185.654 39.8304C185.394 39.9861 185.102 40.064 184.778 40.064Z" fill="white"/>
<path d="M339.847 20.0556C339.847 9.20175 331.048 0.402954 320.194 0.402954V0.402954V28.8475H339.847V20.0556Z" fill="#26252A" stroke="#26252A" stroke-width="0.805851"/>
<rect width="19.6526" height="2.12144" transform="matrix(-1 0 0 1 339.847 28.8476)" fill="#26252A" stroke="#26252A" stroke-width="0.805851"/>
<path d="M339.847 39.7609C339.847 50.6148 331.048 59.4136 320.194 59.4136V59.4136V30.969H339.847V39.7609Z" fill="#26252A" stroke="#26252A" stroke-width="0.805851"/>
</svg>
