<svg width="341" height="120" viewBox="0 0 341 120" fill="none" xmlns="http://www.w3.org/2000/svg">
<path d="M0.402832 20.0556C0.402832 9.20175 9.20161 0.402954 20.0555 0.402954V0.402954V28.8475H0.402832V20.0556Z" fill="#278EFF" stroke="#278EFF" stroke-width="0.805851"/>
<rect x="0.402832" y="28.8475" width="19.6526" height="62.1214" fill="#278EFF" stroke="#278EFF" stroke-width="0.805851"/>
<path d="M0.402832 99.7609C0.402832 110.615 9.20161 119.414 20.0555 119.414V119.414V90.969H0.402832V99.7609Z" fill="#278EFF" stroke="#278EFF" stroke-width="0.805851"/>
<rect x="20.0557" y="0.402954" width="290.877" height="119.011" fill="#278EFF"/>
<rect x="20.0557" y="0.402954" width="290.877" height="119.011" stroke="#278EFF" stroke-width="0.805851"/>
<path d="M24.8836 19.9735V39.9082H22.4696V19.9735H24.8836ZM35.9331 24.9572V26.9039H27.8735V24.9572H35.9331ZM30.2875 39.9082V22.8936C30.2875 22.037 30.4887 21.3232 30.891 20.7522C31.2933 20.1811 31.8157 19.7528 32.4581 19.4673C33.1005 19.1818 33.7787 19.039 34.4925 19.039C35.057 19.039 35.5178 19.0845 35.8747 19.1753C36.2316 19.2662 36.4976 19.3505 36.6728 19.4284L36.0109 21.4141C35.8941 21.3751 35.7319 21.3265 35.5243 21.2681C35.3231 21.2097 35.057 21.1805 34.7261 21.1805C33.9669 21.1805 33.4185 21.3719 33.0811 21.7548C32.7501 22.1376 32.5847 22.6989 32.5847 23.4387V39.9082H30.2875ZM49.9749 39.9082L45.4195 24.9572H47.8335L51.0651 36.4041H51.2208L54.4135 24.9572H56.8664L60.0201 36.3651H60.1759L63.4075 24.9572H65.8214L61.266 39.9082H59.0078L55.7373 28.4224H55.5037L52.2331 39.9082H49.9749ZM74.4813 40.2197C73.0407 40.2197 71.798 39.9017 70.7532 39.2658C69.715 38.6233 68.9136 37.7278 68.349 36.5793C67.7909 35.4242 67.5119 34.0809 67.5119 32.5495C67.5119 31.018 67.7909 29.6683 68.349 28.5002C68.9136 27.3257 69.6987 26.4107 70.7046 25.7553C71.7169 25.0934 72.8979 24.7625 74.2477 24.7625C75.0264 24.7625 75.7953 24.8923 76.5546 25.1518C77.3138 25.4114 78.0049 25.8332 78.6278 26.4172C79.2508 26.9948 79.7472 27.7605 80.1171 28.7144C80.487 29.6683 80.6719 30.8428 80.6719 32.238V33.2114H69.1472V31.2257H78.3358C78.3358 30.3821 78.1671 29.6294 77.8297 28.9675C77.4987 28.3056 77.025 27.7832 76.4085 27.4003C75.7986 27.0175 75.0783 26.826 74.2477 26.826C73.3327 26.826 72.541 27.0532 71.8726 27.5074C71.2107 27.9552 70.7013 28.5392 70.3444 29.2595C69.9875 29.9798 69.8091 30.752 69.8091 31.5761V32.8999C69.8091 34.029 70.0037 34.9862 70.3931 35.7714C70.7889 36.5501 71.3373 37.1438 72.0381 37.5526C72.7389 37.955 73.5533 38.1561 74.4813 38.1561C75.0848 38.1561 75.6298 38.0718 76.1165 37.903C76.6097 37.7278 77.0347 37.4683 77.3917 37.1243C77.7486 36.7739 78.0243 36.3392 78.219 35.82L80.4383 36.443C80.2047 37.1957 79.8121 37.8576 79.2605 38.4287C78.709 38.9932 78.0276 39.4345 77.2164 39.7525C76.4053 40.0639 75.4936 40.2197 74.4813 40.2197ZM91.6014 39.9082V24.9572H93.8985V39.9082H91.6014ZM92.7694 22.4653C92.3217 22.4653 91.9356 22.3128 91.6111 22.0078C91.2931 21.7028 91.1342 21.3362 91.1342 20.9079C91.1342 20.4796 91.2931 20.113 91.6111 19.808C91.9356 19.503 92.3217 19.3505 92.7694 19.3505C93.2172 19.3505 93.6 19.503 93.918 19.808C94.2425 20.113 94.4047 20.4796 94.4047 20.9079C94.4047 21.3362 94.2425 21.7028 93.918 22.0078C93.6 22.3128 93.2172 22.4653 92.7694 22.4653ZM100.266 30.9142V39.9082H97.9689V24.9572H100.188V27.2933H100.383C100.733 26.534 101.265 25.924 101.979 25.4633C102.693 24.9961 103.614 24.7625 104.744 24.7625C105.756 24.7625 106.642 24.9701 107.401 25.3854C108.16 25.7943 108.751 26.4172 109.172 27.2543C109.594 28.0849 109.805 29.1362 109.805 30.4081V39.9082H107.508V30.5638C107.508 29.3893 107.203 28.4743 106.593 27.8189C105.983 27.157 105.146 26.826 104.082 26.826C103.348 26.826 102.693 26.985 102.115 27.303C101.544 27.621 101.093 28.0849 100.762 28.6949C100.432 29.3049 100.266 30.0447 100.266 30.9142ZM119.94 40.2197C118.538 40.2197 117.331 39.8887 116.319 39.2268C115.306 38.5649 114.528 37.6532 113.983 36.4917C113.437 35.3301 113.165 34.0031 113.165 32.5106C113.165 30.9921 113.444 29.6521 114.002 28.4905C114.567 27.3225 115.352 26.4107 116.358 25.7553C117.37 25.0934 118.551 24.7625 119.901 24.7625C120.952 24.7625 121.899 24.9572 122.743 25.3465C123.587 25.7359 124.278 26.2809 124.816 26.9818C125.355 27.6826 125.689 28.5002 125.819 29.4347H123.522C123.346 28.7533 122.957 28.1498 122.354 27.6242C121.757 27.0921 120.952 26.826 119.94 26.826C119.044 26.826 118.259 27.0596 117.584 27.5269C116.916 27.9876 116.393 28.6398 116.017 29.4834C115.647 30.3205 115.462 31.3036 115.462 32.4327C115.462 33.5878 115.644 34.5936 116.007 35.4501C116.377 36.3067 116.896 36.9719 117.565 37.4456C118.239 37.9193 119.031 38.1561 119.94 38.1561C120.537 38.1561 121.078 38.0523 121.565 37.8446C122.052 37.637 122.464 37.3385 122.801 36.9491C123.139 36.5598 123.379 36.0926 123.522 35.5475H125.819C125.689 36.43 125.368 37.2249 124.855 37.9323C124.349 38.6331 123.677 39.1911 122.84 39.6065C122.01 40.0153 121.043 40.2197 119.94 40.2197ZM129.04 39.9082V24.9572H131.259V27.2154H131.415C131.688 26.4756 132.181 25.8754 132.894 25.4146C133.608 24.9539 134.413 24.7235 135.308 24.7235C135.477 24.7235 135.688 24.7268 135.941 24.7333C136.194 24.7398 136.386 24.7495 136.515 24.7625V27.0986C136.438 27.0791 136.259 27.0499 135.98 27.011C135.708 26.9656 135.419 26.9428 135.114 26.9428C134.387 26.9428 133.738 27.0953 133.167 27.4003C132.602 27.6988 132.155 28.1141 131.824 28.6463C131.499 29.1719 131.337 29.7721 131.337 30.447V39.9082H129.04ZM144.915 40.2197C143.474 40.2197 142.232 39.9017 141.187 39.2658C140.149 38.6233 139.347 37.7278 138.783 36.5793C138.225 35.4242 137.946 34.0809 137.946 32.5495C137.946 31.018 138.225 29.6683 138.783 28.5002C139.347 27.3257 140.132 26.4107 141.138 25.7553C142.151 25.0934 143.332 24.7625 144.681 24.7625C145.46 24.7625 146.229 24.8923 146.988 25.1518C147.747 25.4114 148.439 25.8332 149.061 26.4172C149.684 26.9948 150.181 27.7605 150.551 28.7144C150.921 29.6683 151.106 30.8428 151.106 32.238V33.2114H139.581V31.2257H148.769C148.769 30.3821 148.601 29.6294 148.263 28.9675C147.932 28.3056 147.459 27.7832 146.842 27.4003C146.232 27.0175 145.512 26.826 144.681 26.826C143.766 26.826 142.975 27.0532 142.306 27.5074C141.644 27.9552 141.135 28.5392 140.778 29.2595C140.421 29.9798 140.243 30.752 140.243 31.5761V32.8999C140.243 34.029 140.437 34.9862 140.827 35.7714C141.223 36.5501 141.771 37.1438 142.472 37.5526C143.173 37.955 143.987 38.1561 144.915 38.1561C145.518 38.1561 146.063 38.0718 146.55 37.903C147.043 37.7278 147.468 37.4683 147.825 37.1243C148.182 36.7739 148.458 36.3392 148.653 35.82L150.872 36.443C150.638 37.1957 150.246 37.8576 149.694 38.4287C149.143 38.9932 148.461 39.4345 147.65 39.7525C146.839 40.0639 145.927 40.2197 144.915 40.2197ZM158.863 40.2586C157.915 40.2586 157.055 40.0802 156.283 39.7233C155.511 39.3599 154.898 38.8375 154.443 38.1561C153.989 37.4683 153.762 36.6377 153.762 35.6643C153.762 34.8077 153.931 34.1134 154.268 33.5813C154.606 33.0427 155.057 32.6209 155.621 32.3159C156.186 32.0109 156.809 31.7838 157.49 31.6345C158.178 31.4788 158.869 31.3555 159.563 31.2646C160.472 31.1478 161.208 31.0602 161.773 31.0018C162.344 30.9369 162.759 30.8299 163.019 30.6806C163.285 30.5314 163.418 30.2718 163.418 29.9019V29.824C163.418 28.8636 163.155 28.1174 162.63 27.5853C162.11 27.0532 161.322 26.7871 160.264 26.7871C159.168 26.7871 158.308 27.0272 157.685 27.5074C157.062 27.9876 156.624 28.5002 156.371 29.0453L154.19 28.2666C154.58 27.3582 155.099 26.6508 155.748 26.1447C156.403 25.632 157.117 25.2751 157.889 25.074C158.668 24.8663 159.434 24.7625 160.186 24.7625C160.667 24.7625 161.218 24.8209 161.841 24.9377C162.471 25.048 163.077 25.2784 163.661 25.6288C164.252 25.9792 164.742 26.5081 165.131 27.2154C165.52 27.9227 165.715 28.8701 165.715 30.0576V39.9082H163.418V37.8836H163.301C163.145 38.208 162.886 38.5552 162.522 38.9251C162.159 39.295 161.676 39.6097 161.072 39.8693C160.469 40.1288 159.732 40.2586 158.863 40.2586ZM159.213 38.1951C160.121 38.1951 160.887 38.0166 161.51 37.6597C162.14 37.3028 162.613 36.8421 162.931 36.2775C163.256 35.713 163.418 35.1192 163.418 34.4962V32.3937C163.321 32.5106 163.106 32.6176 162.776 32.715C162.451 32.8058 162.075 32.8869 161.646 32.9583C161.225 33.0232 160.813 33.0816 160.41 33.1335C160.014 33.1789 159.693 33.2179 159.447 33.2503C158.85 33.3282 158.292 33.4547 157.772 33.6299C157.26 33.7987 156.844 34.055 156.526 34.3989C156.215 34.7363 156.059 35.1971 156.059 35.7811C156.059 36.5793 156.355 37.1828 156.945 37.5916C157.542 37.9939 158.298 38.1951 159.213 38.1951ZM180.361 28.3056L178.298 28.8896C178.168 28.5457 177.976 28.2115 177.723 27.887C177.477 27.5561 177.139 27.2835 176.711 27.0694C176.283 26.8552 175.734 26.7482 175.066 26.7482C174.151 26.7482 173.389 26.9591 172.779 27.3809C172.175 27.7962 171.873 28.325 171.873 28.9675C171.873 29.5385 172.081 29.9895 172.496 30.3205C172.912 30.6514 173.561 30.9272 174.443 31.1478L176.662 31.6929C177.999 32.0174 178.995 32.5138 179.651 33.1822C180.306 33.8441 180.634 34.6974 180.634 35.7422C180.634 36.5987 180.387 37.3644 179.894 38.0393C179.407 38.7142 178.726 39.2463 177.85 39.6357C176.974 40.025 175.955 40.2197 174.794 40.2197C173.269 40.2197 172.006 39.8887 171.007 39.2268C170.008 38.5649 169.375 37.5981 169.109 36.3262L171.289 35.7811C171.497 36.5857 171.89 37.1892 172.467 37.5916C173.051 37.9939 173.814 38.1951 174.755 38.1951C175.825 38.1951 176.675 37.9679 177.305 37.5137C177.941 37.053 178.259 36.5014 178.259 35.859C178.259 35.3398 178.077 34.9051 177.714 34.5546C177.35 34.1977 176.792 33.9317 176.039 33.7565L173.548 33.1724C172.178 32.848 171.173 32.3451 170.53 31.6637C169.894 30.9759 169.576 30.116 169.576 29.0843C169.576 28.2407 169.813 27.4944 170.287 26.8455C170.767 26.1966 171.419 25.6872 172.243 25.3173C173.074 24.9474 174.015 24.7625 175.066 24.7625C176.546 24.7625 177.707 25.0869 178.551 25.7359C179.401 26.3848 180.004 27.2413 180.361 28.3056ZM190.223 40.2197C188.783 40.2197 187.54 39.9017 186.495 39.2658C185.457 38.6233 184.655 37.7278 184.091 36.5793C183.533 35.4242 183.254 34.0809 183.254 32.5495C183.254 31.018 183.533 29.6683 184.091 28.5002C184.655 27.3257 185.441 26.4107 186.446 25.7553C187.459 25.0934 188.64 24.7625 189.99 24.7625C190.768 24.7625 191.537 24.8923 192.296 25.1518C193.056 25.4114 193.747 25.8332 194.37 26.4172C194.993 26.9948 195.489 27.7605 195.859 28.7144C196.229 29.6683 196.414 30.8428 196.414 32.238V33.2114H184.889V31.2257H194.078C194.078 30.3821 193.909 29.6294 193.572 28.9675C193.241 28.3056 192.767 27.7832 192.15 27.4003C191.54 27.0175 190.82 26.826 189.99 26.826C189.075 26.826 188.283 27.0532 187.615 27.5074C186.953 27.9552 186.443 28.5392 186.086 29.2595C185.729 29.9798 185.551 30.752 185.551 31.5761V32.8999C185.551 34.029 185.746 34.9862 186.135 35.7714C186.531 36.5501 187.079 37.1438 187.78 37.5526C188.481 37.955 189.295 38.1561 190.223 38.1561C190.827 38.1561 191.372 38.0718 191.858 37.903C192.352 37.7278 192.777 37.4683 193.134 37.1243C193.49 36.7739 193.766 36.3392 193.961 35.82L196.18 36.443C195.947 37.1957 195.554 37.8576 195.002 38.4287C194.451 38.9932 193.77 39.4345 192.958 39.7525C192.147 40.0639 191.235 40.2197 190.223 40.2197ZM207.343 45.5148V24.9572H209.563V27.3322H209.835C210.004 27.0726 210.237 26.7417 210.536 26.3394C210.841 25.9305 211.276 25.5671 211.84 25.2492C212.411 24.9247 213.184 24.7625 214.157 24.7625C215.416 24.7625 216.525 25.0772 217.486 25.7067C218.446 26.3361 219.196 27.2284 219.734 28.3834C220.273 29.5385 220.542 30.9012 220.542 32.4716C220.542 34.055 220.273 35.4274 219.734 36.589C219.196 37.7441 218.45 38.6396 217.496 39.2755C216.542 39.905 215.442 40.2197 214.196 40.2197C213.235 40.2197 212.466 40.0607 211.889 39.7427C211.311 39.4183 210.867 39.0516 210.555 38.6428C210.244 38.2275 210.004 37.8836 209.835 37.611H209.64V45.5148H207.343ZM209.602 32.4327C209.602 33.5618 209.767 34.5579 210.098 35.4209C210.429 36.2775 210.912 36.9491 211.548 37.4358C212.184 37.916 212.963 38.1561 213.884 38.1561C214.845 38.1561 215.646 37.9031 216.289 37.3969C216.938 36.8843 217.424 36.1964 217.749 35.3333C218.08 34.4638 218.245 33.4969 218.245 32.4327C218.245 31.3814 218.083 30.434 217.758 29.5904C217.44 28.7403 216.957 28.0687 216.308 27.5755C215.666 27.0759 214.858 26.826 213.884 26.826C212.95 26.826 212.165 27.0629 211.529 27.5366C210.893 28.0038 210.413 28.6592 210.088 29.5028C209.764 30.3399 209.602 31.3165 209.602 32.4327ZM223.909 39.9082V24.9572H226.129V27.2154H226.284C226.557 26.4756 227.05 25.8754 227.764 25.4146C228.478 24.9539 229.282 24.7235 230.178 24.7235C230.347 24.7235 230.558 24.7268 230.811 24.7333C231.064 24.7398 231.255 24.7495 231.385 24.7625V27.0986C231.307 27.0791 231.129 27.0499 230.85 27.011C230.577 26.9656 230.288 26.9428 229.983 26.9428C229.256 26.9428 228.608 27.0953 228.036 27.4003C227.472 27.6988 227.024 28.1141 226.693 28.6463C226.369 29.1719 226.207 29.7721 226.207 30.447V39.9082H223.909ZM233.971 39.9082V24.9572H236.268V39.9082H233.971ZM235.139 22.4653C234.691 22.4653 234.305 22.3128 233.981 22.0078C233.663 21.7028 233.504 21.3362 233.504 20.9079C233.504 20.4796 233.663 20.113 233.981 19.808C234.305 19.503 234.691 19.3505 235.139 19.3505C235.587 19.3505 235.97 19.503 236.287 19.808C236.612 20.113 236.774 20.4796 236.774 20.9079C236.774 21.3362 236.612 21.7028 236.287 22.0078C235.97 22.3128 235.587 22.4653 235.139 22.4653ZM246.412 40.2197C245.011 40.2197 243.804 39.8887 242.791 39.2268C241.779 38.5649 241 37.6532 240.455 36.4917C239.91 35.3301 239.638 34.0031 239.638 32.5106C239.638 30.9921 239.917 29.6521 240.475 28.4905C241.039 27.3225 241.824 26.4107 242.83 25.7553C243.843 25.0934 245.024 24.7625 246.373 24.7625C247.425 24.7625 248.372 24.9572 249.216 25.3465C250.059 25.7359 250.75 26.2809 251.289 26.9818C251.827 27.6826 252.162 28.5002 252.291 29.4347H249.994C249.819 28.7533 249.43 28.1498 248.826 27.6242C248.229 27.0921 247.425 26.826 246.412 26.826C245.517 26.826 244.732 27.0596 244.057 27.5269C243.388 27.9876 242.866 28.6398 242.49 29.4834C242.12 30.3205 241.935 31.3036 241.935 32.4327C241.935 33.5878 242.116 34.5936 242.48 35.4501C242.85 36.3067 243.369 36.9719 244.037 37.4456C244.712 37.9193 245.504 38.1561 246.412 38.1561C247.009 38.1561 247.551 38.0523 248.038 37.8446C248.524 37.637 248.937 37.3385 249.274 36.9491C249.611 36.5598 249.851 36.0926 249.994 35.5475H252.291C252.162 36.43 251.84 37.2249 251.328 37.9323C250.822 38.6331 250.15 39.1911 249.313 39.6065C248.482 40.0153 247.515 40.2197 246.412 40.2197ZM261.781 40.2197C260.34 40.2197 259.098 39.9017 258.053 39.2658C257.015 38.6233 256.213 37.7278 255.649 36.5793C255.091 35.4242 254.812 34.0809 254.812 32.5495C254.812 31.018 255.091 29.6683 255.649 28.5002C256.213 27.3257 256.999 26.4107 258.004 25.7553C259.017 25.0934 260.198 24.7625 261.547 24.7625C262.326 24.7625 263.095 24.8923 263.854 25.1518C264.614 25.4114 265.305 25.8332 265.928 26.4172C266.551 26.9948 267.047 27.7605 267.417 28.7144C267.787 29.6683 267.972 30.8428 267.972 32.238V33.2114H256.447V31.2257H265.636C265.636 30.3821 265.467 29.6294 265.129 28.9675C264.799 28.3056 264.325 27.7832 263.708 27.4003C263.098 27.0175 262.378 26.826 261.547 26.826C260.632 26.826 259.841 27.0532 259.172 27.5074C258.511 27.9552 258.001 28.5392 257.644 29.2595C257.287 29.9798 257.109 30.752 257.109 31.5761V32.8999C257.109 34.029 257.304 34.9862 257.693 35.7714C258.089 36.5501 258.637 37.1438 259.338 37.5526C260.039 37.955 260.853 38.1561 261.781 38.1561C262.385 38.1561 262.93 38.0718 263.416 37.903C263.909 37.7278 264.335 37.4683 264.691 37.1243C265.048 36.7739 265.324 36.3392 265.519 35.82L267.738 36.443C267.504 37.1957 267.112 37.8576 266.56 38.4287C266.009 38.9932 265.327 39.4345 264.516 39.7525C263.705 40.0639 262.793 40.2197 261.781 40.2197ZM279.213 39.9082V19.9735H281.51V27.3322H281.704C281.873 27.0726 282.107 26.7417 282.405 26.3394C282.71 25.9305 283.145 25.5671 283.71 25.2492C284.281 24.9247 285.053 24.7625 286.026 24.7625C287.285 24.7625 288.395 25.0772 289.355 25.7067C290.316 26.3361 291.065 27.2284 291.604 28.3834C292.142 29.5385 292.412 30.9012 292.412 32.4716C292.412 34.055 292.142 35.4274 291.604 36.589C291.065 37.7441 290.319 38.6396 289.365 39.2755C288.411 39.905 287.311 40.2197 286.065 40.2197C285.105 40.2197 284.336 40.0607 283.758 39.7427C283.181 39.4183 282.736 39.0516 282.425 38.6428C282.113 38.2275 281.873 37.8836 281.704 37.611H281.432V39.9082H279.213ZM281.471 32.4327C281.471 33.5618 281.636 34.5579 281.967 35.4209C282.298 36.2775 282.782 36.9491 283.418 37.4358C284.054 37.916 284.832 38.1561 285.754 38.1561C286.714 38.1561 287.516 37.9031 288.158 37.3969C288.807 36.8843 289.294 36.1964 289.618 35.3333C289.949 34.4638 290.114 33.4969 290.114 32.4327C290.114 31.3814 289.952 30.434 289.628 29.5904C289.31 28.7403 288.826 28.0687 288.177 27.5755C287.535 27.0759 286.727 26.826 285.754 26.826C284.819 26.826 284.034 27.0629 283.398 27.5366C282.762 28.0038 282.282 28.6592 281.958 29.5028C281.633 30.3399 281.471 31.3165 281.471 32.4327ZM296.733 45.5148C296.343 45.5148 295.996 45.4824 295.691 45.4175C295.386 45.3591 295.175 45.3007 295.058 45.2423L295.642 43.2177C296.201 43.3604 296.694 43.4124 297.122 43.3734C297.55 43.3345 297.93 43.1431 298.261 42.7991C298.598 42.4617 298.906 41.9134 299.186 41.1541L299.614 39.9861L294.085 24.9572H296.577L300.704 36.8713H300.86L304.987 24.9572H307.479L301.132 42.0886C300.847 42.8608 300.493 43.5 300.071 44.0061C299.65 44.5188 299.16 44.8984 298.602 45.145C298.05 45.3916 297.427 45.5148 296.733 45.5148ZM28.3488 70.1807C27.2067 70.1807 26.1782 69.9536 25.2632 69.4994C24.3482 69.0451 23.615 68.4222 23.0634 67.6305C22.5118 66.8388 22.2101 65.9368 22.1582 64.9245H24.4943C24.5851 65.8265 24.9939 66.5728 25.7207 67.1633C26.454 67.7473 27.33 68.0393 28.3488 68.0393C29.1665 68.0393 29.8932 67.8479 30.5292 67.465C31.1716 67.0822 31.6745 66.5565 32.0379 65.8882C32.4078 65.2133 32.5927 64.4508 32.5927 63.6007C32.5927 62.7312 32.4013 61.9557 32.0184 61.2744C31.6421 60.5865 31.1229 60.0447 30.461 59.6488C29.7992 59.253 29.0432 59.0518 28.1931 59.0453C27.5831 59.0388 26.9569 59.1329 26.3145 59.3276C25.672 59.5158 25.1432 59.7591 24.7279 60.0576L22.4696 59.7851L23.6766 49.9735H34.0333V52.1149H25.7012L25.0004 57.9941H25.1172C25.526 57.6696 26.0387 57.4003 26.6551 57.1862C27.2716 56.972 27.914 56.865 28.5824 56.865C29.8024 56.865 30.8893 57.157 31.8432 57.741C32.8036 58.3185 33.5564 59.1102 34.1015 60.116C34.653 61.1219 34.9288 62.2705 34.9288 63.5618C34.9288 64.8337 34.6433 65.9693 34.0723 66.9686C33.5077 67.9615 32.729 68.7466 31.7362 69.3242C30.7433 69.8952 29.6142 70.1807 28.3488 70.1807ZM48.8206 66.1704V65.1192C48.8206 64.3924 48.9698 63.7273 49.2683 63.1238C49.5733 62.5138 50.0146 62.0271 50.5921 61.6637C51.1761 61.2938 51.8834 61.1089 52.7141 61.1089C53.5577 61.1089 54.265 61.2938 54.836 61.6637C55.4071 62.0271 55.8386 62.5138 56.1306 63.1238C56.4226 63.7273 56.5686 64.3924 56.5686 65.1192V66.1704C56.5686 66.8972 56.4194 67.5656 56.1209 68.1756C55.8289 68.7791 55.3941 69.2658 54.8166 69.6357C54.2455 69.9991 53.5447 70.1807 52.7141 70.1807C51.8705 70.1807 51.1599 69.9991 50.5824 69.6357C50.0048 69.2658 49.5668 68.7791 49.2683 68.1756C48.9698 67.5656 48.8206 66.8972 48.8206 66.1704ZM50.8062 65.1192V66.1704C50.8062 66.7739 50.949 67.3158 51.2345 67.796C51.5201 68.2697 52.0132 68.5065 52.7141 68.5065C53.3954 68.5065 53.8756 68.2697 54.1547 67.796C54.4402 67.3158 54.5829 66.7739 54.5829 66.1704V65.1192C54.5829 64.5157 54.4467 63.9771 54.1741 63.5034C53.9016 63.0232 53.4149 62.7831 52.7141 62.7831C52.0327 62.7831 51.5428 63.0232 51.2443 63.5034C50.9523 63.9771 50.8062 64.5157 50.8062 65.1192ZM38.8921 54.7625V53.7112C38.8921 52.9845 39.0414 52.3193 39.3399 51.7158C39.6449 51.1058 40.0861 50.6191 40.6637 50.2558C41.2477 49.8859 41.955 49.7009 42.7856 49.7009C43.6292 49.7009 44.3365 49.8859 44.9076 50.2558C45.4786 50.6191 45.9102 51.1058 46.2022 51.7158C46.4942 52.3193 46.6402 52.9845 46.6402 53.7112V54.7625C46.6402 55.4893 46.4909 56.1577 46.1924 56.7676C45.9004 57.3711 45.4657 57.8578 44.8881 58.2277C44.3171 58.5911 43.6162 58.7728 42.7856 58.7728C41.942 58.7728 41.2315 58.5911 40.6539 58.2277C40.0764 57.8578 39.6384 57.3711 39.3399 56.7676C39.0414 56.1577 38.8921 55.4893 38.8921 54.7625ZM40.8778 53.7112V54.7625C40.8778 55.366 41.0206 55.9078 41.3061 56.388C41.5916 56.8617 42.0848 57.0986 42.7856 57.0986C43.467 57.0986 43.9472 56.8617 44.2262 56.388C44.5118 55.9078 44.6545 55.366 44.6545 54.7625V53.7112C44.6545 53.1077 44.5182 52.5691 44.2457 52.0954C43.9731 51.6152 43.4865 51.3751 42.7856 51.3751C42.1043 51.3751 41.6143 51.6152 41.3158 52.0954C41.0238 52.5691 40.8778 53.1077 40.8778 53.7112ZM39.6319 69.9082L53.337 49.9735H55.5563L41.8512 69.9082H39.6319ZM72.803 70.2586C71.8555 70.2586 70.9957 70.0802 70.2235 69.7233C69.4513 69.3599 68.8381 68.8375 68.3838 68.1561C67.9296 67.4683 67.7025 66.6377 67.7025 65.6643C67.7025 64.8077 67.8712 64.1134 68.2086 63.5813C68.5461 63.0427 68.9971 62.6209 69.5616 62.3159C70.1262 62.0109 70.7491 61.7838 71.4305 61.6345C72.1184 61.4788 72.8095 61.3555 73.5038 61.2646C74.4123 61.1478 75.1488 61.0602 75.7134 61.0018C76.2844 60.9369 76.6997 60.8299 76.9593 60.6806C77.2253 60.5314 77.3584 60.2718 77.3584 59.9019V59.824C77.3584 58.8636 77.0956 58.1174 76.5699 57.5853C76.0508 57.0532 75.2624 56.7871 74.2046 56.7871C73.108 56.7871 72.2481 57.0272 71.6252 57.5074C71.0022 57.9876 70.5642 58.5002 70.3111 59.0453L68.1308 58.2666C68.5201 57.3582 69.0392 56.6508 69.6882 56.1447C70.3436 55.632 71.0574 55.2751 71.8296 55.074C72.6083 54.8663 73.374 54.7625 74.1268 54.7625C74.607 54.7625 75.1585 54.8209 75.7815 54.9377C76.4109 55.048 77.0177 55.2784 77.6017 55.6288C78.1922 55.9792 78.6822 56.5081 79.0715 57.2154C79.4609 57.9227 79.6555 58.8701 79.6555 60.0576V69.9082H77.3584V67.8836H77.2416C77.0858 68.208 76.8263 68.5552 76.4629 68.9251C76.0995 69.295 75.616 69.6097 75.0125 69.8693C74.409 70.1288 73.6725 70.2586 72.803 70.2586ZM73.1534 68.1951C74.0619 68.1951 74.8276 68.0166 75.4505 67.6597C76.08 67.3028 76.5537 66.8421 76.8717 66.2775C77.1961 65.713 77.3584 65.1192 77.3584 64.4962V62.3937C77.261 62.5106 77.0469 62.6176 76.7159 62.715C76.3915 62.8058 76.0151 62.8869 75.5868 62.9583C75.165 63.0232 74.753 63.0816 74.3506 63.1335C73.9548 63.1789 73.6336 63.2179 73.387 63.2503C72.79 63.3282 72.2319 63.4547 71.7128 63.6299C71.2001 63.7987 70.7848 64.055 70.4669 64.3989C70.1554 64.7363 69.9996 65.1971 69.9996 65.7811C69.9996 66.5793 70.2949 67.1828 70.8854 67.5916C71.4824 67.9939 72.2384 68.1951 73.1534 68.1951ZM86.0085 60.9142V69.9082H83.7113V54.9572H85.9306V57.2933H86.1253C86.4757 56.534 87.0078 55.924 87.7216 55.4633C88.4354 54.9961 89.3569 54.7625 90.486 54.7625C91.4983 54.7625 92.3841 54.9701 93.1433 55.3854C93.9025 55.7943 94.493 56.4172 94.9148 57.2543C95.3366 58.0849 95.5475 59.1362 95.5475 60.4081V69.9082H93.2504V60.5638C93.2504 59.3893 92.9454 58.4743 92.3354 57.8189C91.7254 57.157 90.8883 56.826 89.8241 56.826C89.0908 56.826 88.4354 56.985 87.8579 57.303C87.2868 57.621 86.8358 58.0849 86.5049 58.6949C86.1739 59.3049 86.0085 60.0447 86.0085 60.9142ZM105.254 70.2197C104.008 70.2197 102.908 69.905 101.954 69.2755C101 68.6396 100.254 67.7441 99.7152 66.589C99.1766 65.4274 98.9073 64.055 98.9073 62.4716C98.9073 60.9012 99.1766 59.5385 99.7152 58.3834C100.254 57.2284 101.003 56.3361 101.964 55.7067C102.924 55.0772 104.034 54.7625 105.293 54.7625C106.266 54.7625 107.035 54.9247 107.6 55.2492C108.171 55.5671 108.605 55.9305 108.904 56.3394C109.209 56.7417 109.446 57.0726 109.614 57.3322H109.809V49.9735H112.106V69.9082H109.887V67.611H109.614C109.446 67.8836 109.206 68.2275 108.894 68.6428C108.583 69.0516 108.138 69.4183 107.561 69.7427C106.983 70.0607 106.214 70.2197 105.254 70.2197ZM105.565 68.1561C106.487 68.1561 107.265 67.916 107.901 67.4358C108.537 66.9491 109.021 66.2775 109.352 65.4209C109.683 64.5579 109.848 63.5618 109.848 62.4327C109.848 61.3165 109.686 60.3399 109.361 59.5028C109.037 58.6592 108.557 58.0038 107.921 57.5366C107.285 57.0629 106.5 56.826 105.565 56.826C104.592 56.826 103.781 57.0759 103.132 57.5755C102.489 58.0687 102.006 58.7403 101.681 59.5904C101.363 60.434 101.205 61.3814 101.205 62.4327C101.205 63.4969 101.367 64.4638 101.691 65.3333C102.022 66.1964 102.509 66.8843 103.151 67.3969C103.8 67.9031 104.605 68.1561 105.565 68.1561ZM136.293 54.9572L130.764 69.9082H128.428L122.899 54.9572H125.391L129.518 66.8713H129.674L133.801 54.9572H136.293ZM144.727 70.2197C143.377 70.2197 142.193 69.8985 141.174 69.256C140.162 68.6136 139.37 67.7149 138.799 66.5598C138.234 65.4047 137.952 64.055 137.952 62.5106C137.952 60.9532 138.234 59.5937 138.799 58.4321C139.37 57.2705 140.162 56.3686 141.174 55.7261C142.193 55.0837 143.377 54.7625 144.727 54.7625C146.076 54.7625 147.257 55.0837 148.27 55.7261C149.289 56.3686 150.08 57.2705 150.645 58.4321C151.216 59.5937 151.501 60.9532 151.501 62.5106C151.501 64.055 151.216 65.4047 150.645 66.5598C150.08 67.7149 149.289 68.6136 148.27 69.256C147.257 69.8985 146.076 70.2197 144.727 70.2197ZM144.727 68.1561C145.752 68.1561 146.596 67.8933 147.257 67.3677C147.919 66.8421 148.409 66.151 148.727 65.2944C149.045 64.4378 149.204 63.5099 149.204 62.5106C149.204 61.5112 149.045 60.58 148.727 59.717C148.409 58.8539 147.919 58.1563 147.257 57.6242C146.596 57.0921 145.752 56.826 144.727 56.826C143.701 56.826 142.858 57.0921 142.196 57.6242C141.534 58.1563 141.044 58.8539 140.726 59.717C140.408 60.58 140.249 61.5112 140.249 62.5106C140.249 63.5099 140.408 64.4378 140.726 65.2944C141.044 66.151 141.534 66.8421 142.196 67.3677C142.858 67.8933 143.701 68.1561 144.727 68.1561ZM157.168 49.9735V69.9082H154.871V49.9735H157.168ZM170.661 63.7954V54.9572H172.958V69.9082H170.661V67.3774H170.505C170.155 68.1367 169.609 68.7823 168.87 69.3144C168.13 69.8401 167.195 70.1029 166.066 70.1029C165.132 70.1029 164.301 69.8985 163.575 69.4897C162.848 69.0743 162.277 68.4514 161.861 67.6208C161.446 66.7837 161.238 65.7292 161.238 64.4573V54.9572H163.536V64.3016C163.536 65.3917 163.841 66.2613 164.451 66.9102C165.067 67.5591 165.852 67.8836 166.806 67.8836C167.377 67.8836 167.958 67.7376 168.548 67.4456C169.145 67.1536 169.645 66.7058 170.047 66.1023C170.456 65.4988 170.661 64.7298 170.661 63.7954ZM177.028 69.9082V54.9572H179.247V57.2933H179.442C179.754 56.4951 180.257 55.8754 180.951 55.4341C181.645 54.9864 182.479 54.7625 183.452 54.7625C184.439 54.7625 185.26 54.9864 185.915 55.4341C186.577 55.8754 187.093 56.4951 187.463 57.2933H187.619C188.001 56.521 188.576 55.9078 189.341 55.4536C190.107 54.9928 191.025 54.7625 192.096 54.7625C193.433 54.7625 194.526 55.181 195.376 56.0181C196.226 56.8488 196.651 58.1433 196.651 59.9019V69.9082H194.354V59.9019C194.354 58.7987 194.053 58.0103 193.449 57.5366C192.846 57.0629 192.135 56.826 191.317 56.826C190.266 56.826 189.452 57.144 188.874 57.7799C188.297 58.4094 188.008 59.2076 188.008 60.1744V69.9082H185.672V59.6683C185.672 58.8182 185.396 58.1336 184.844 57.6145C184.293 57.0889 183.582 56.826 182.713 56.826C182.116 56.826 181.558 56.985 181.039 57.303C180.526 57.621 180.111 58.0622 179.793 58.6268C179.481 59.1849 179.325 59.8305 179.325 60.5638V69.9082H177.028ZM206.983 70.2197C205.542 70.2197 204.3 69.9017 203.255 69.2658C202.217 68.6233 201.415 67.7278 200.851 66.5793C200.293 65.4242 200.014 64.0809 200.014 62.5495C200.014 61.018 200.293 59.6683 200.851 58.5002C201.415 57.3257 202.201 56.4107 203.206 55.7553C204.219 55.0934 205.4 54.7625 206.749 54.7625C207.528 54.7625 208.297 54.8923 209.056 55.1518C209.816 55.4114 210.507 55.8332 211.13 56.4172C211.753 56.9948 212.249 57.7605 212.619 58.7144C212.989 59.6683 213.174 60.8428 213.174 62.238V63.2114H201.649V61.2257H210.838C210.838 60.3821 210.669 59.6294 210.331 58.9675C210.001 58.3056 209.527 57.7832 208.91 57.4003C208.3 57.0175 207.58 56.826 206.749 56.826C205.834 56.826 205.043 57.0532 204.374 57.5074C203.713 57.9552 203.203 58.5392 202.846 59.2595C202.489 59.9798 202.311 60.752 202.311 61.5761V62.8999C202.311 64.029 202.506 64.9862 202.895 65.7714C203.291 66.5501 203.839 67.1438 204.54 67.5526C205.241 67.955 206.055 68.1561 206.983 68.1561C207.587 68.1561 208.132 68.0718 208.618 67.903C209.111 67.7278 209.537 67.4683 209.893 67.1243C210.25 66.7739 210.526 66.3392 210.721 65.82L212.94 66.443C212.706 67.1957 212.314 67.8576 211.762 68.4287C211.211 68.9932 210.529 69.4345 209.718 69.7525C208.907 70.0639 207.995 70.2197 206.983 70.2197ZM229.749 70.2197C228.503 70.2197 227.403 69.905 226.449 69.2755C225.495 68.6396 224.749 67.7441 224.21 66.589C223.672 65.4274 223.402 64.055 223.402 62.4716C223.402 60.9012 223.672 59.5385 224.21 58.3834C224.749 57.2284 225.498 56.3361 226.459 55.7067C227.419 55.0772 228.529 54.7625 229.788 54.7625C230.761 54.7625 231.53 54.9247 232.095 55.2492C232.666 55.5671 233.1 55.9305 233.399 56.3394C233.704 56.7417 233.941 57.0726 234.109 57.3322H234.304V49.9735H236.601V69.9082H234.382V67.611H234.109C233.941 67.8836 233.701 68.2275 233.389 68.6428C233.078 69.0516 232.633 69.4183 232.056 69.7427C231.478 70.0607 230.709 70.2197 229.749 70.2197ZM230.06 68.1561C230.982 68.1561 231.76 67.916 232.396 67.4358C233.032 66.9491 233.516 66.2775 233.847 65.4209C234.178 64.5579 234.343 63.5618 234.343 62.4327C234.343 61.3165 234.181 60.3399 233.856 59.5028C233.532 58.6592 233.052 58.0038 232.416 57.5366C231.78 57.0629 230.995 56.826 230.06 56.826C229.087 56.826 228.276 57.0759 227.627 57.5755C226.984 58.0687 226.501 58.7403 226.176 59.5904C225.858 60.434 225.699 61.3814 225.699 62.4327C225.699 63.4969 225.862 64.4638 226.186 65.3333C226.517 66.1964 227.004 66.8843 227.646 67.3969C228.295 67.9031 229.1 68.1561 230.06 68.1561ZM240.99 69.9082V54.9572H243.21V57.2154H243.365C243.638 56.4756 244.131 55.8754 244.845 55.4146C245.559 54.9539 246.363 54.7235 247.259 54.7235C247.428 54.7235 247.639 54.7268 247.892 54.7333C248.145 54.7398 248.336 54.7495 248.466 54.7625V57.0986C248.388 57.0791 248.21 57.0499 247.931 57.011C247.658 56.9656 247.369 56.9428 247.064 56.9428C246.338 56.9428 245.689 57.0953 245.118 57.4003C244.553 57.6988 244.105 58.1141 243.774 58.6463C243.45 59.1719 243.288 59.7721 243.288 60.447V69.9082H240.99ZM256.671 70.2197C255.321 70.2197 254.137 69.8985 253.118 69.256C252.106 68.6136 251.314 67.7149 250.743 66.5598C250.178 65.4047 249.896 64.055 249.896 62.5106C249.896 60.9532 250.178 59.5937 250.743 58.4321C251.314 57.2705 252.106 56.3686 253.118 55.7261C254.137 55.0837 255.321 54.7625 256.671 54.7625C258.02 54.7625 259.202 55.0837 260.214 55.7261C261.233 56.3686 262.024 57.2705 262.589 58.4321C263.16 59.5937 263.445 60.9532 263.445 62.5106C263.445 64.055 263.16 65.4047 262.589 66.5598C262.024 67.7149 261.233 68.6136 260.214 69.256C259.202 69.8985 258.02 70.2197 256.671 70.2197ZM256.671 68.1561C257.696 68.1561 258.54 67.8933 259.202 67.3677C259.863 66.8421 260.353 66.151 260.671 65.2944C260.989 64.4378 261.148 63.5099 261.148 62.5106C261.148 61.5112 260.989 60.58 260.671 59.717C260.353 58.8539 259.863 58.1563 259.202 57.6242C258.54 57.0921 257.696 56.826 256.671 56.826C255.645 56.826 254.802 57.0921 254.14 57.6242C253.478 58.1563 252.988 58.8539 252.67 59.717C252.352 60.58 252.193 61.5112 252.193 62.5106C252.193 63.5099 252.352 64.4378 252.67 65.2944C252.988 66.151 253.478 66.8421 254.14 67.3677C254.802 67.8933 255.645 68.1561 256.671 68.1561ZM266.815 75.5148V54.9572H269.034V57.3322H269.307C269.476 57.0726 269.709 56.7417 270.008 56.3394C270.313 55.9305 270.747 55.5671 271.312 55.2492C271.883 54.9247 272.655 54.7625 273.629 54.7625C274.887 54.7625 275.997 55.0772 276.958 55.7067C277.918 56.3361 278.667 57.2284 279.206 58.3834C279.745 59.5385 280.014 60.9012 280.014 62.4716C280.014 64.055 279.745 65.4274 279.206 66.589C278.667 67.7441 277.921 68.6396 276.967 69.2755C276.013 69.905 274.913 70.2197 273.668 70.2197C272.707 70.2197 271.938 70.0607 271.361 69.7427C270.783 69.4183 270.339 69.0516 270.027 68.6428C269.716 68.2275 269.476 67.8836 269.307 67.611H269.112V75.5148H266.815ZM269.073 62.4327C269.073 63.5618 269.239 64.5579 269.57 65.4209C269.901 66.2775 270.384 66.9491 271.02 67.4358C271.656 67.916 272.435 68.1561 273.356 68.1561C274.316 68.1561 275.118 67.9031 275.76 67.3969C276.409 66.8843 276.896 66.1964 277.22 65.3333C277.551 64.4638 277.717 63.4969 277.717 62.4327C277.717 61.3814 277.555 60.434 277.23 59.5904C276.912 58.7403 276.429 58.0687 275.78 57.5755C275.137 57.0759 274.329 56.826 273.356 56.826C272.422 56.826 271.636 57.0629 271 57.5366C270.365 58.0038 269.884 58.6592 269.56 59.5028C269.235 60.3399 269.073 61.3165 269.073 62.4327ZM293.971 58.3056L291.908 58.8896C291.778 58.5457 291.587 58.2115 291.334 57.887C291.087 57.5561 290.749 57.2835 290.321 57.0694C289.893 56.8552 289.345 56.7482 288.676 56.7482C287.761 56.7482 286.999 56.9591 286.389 57.3809C285.785 57.7962 285.484 58.325 285.484 58.9675C285.484 59.5385 285.691 59.9895 286.106 60.3205C286.522 60.6514 287.171 60.9272 288.053 61.1478L290.273 61.6929C291.609 62.0174 292.605 62.5138 293.261 63.1822C293.916 63.8441 294.244 64.6974 294.244 65.7422C294.244 66.5987 293.997 67.3644 293.504 68.0393C293.017 68.7142 292.336 69.2463 291.46 69.6357C290.584 70.025 289.565 70.2197 288.404 70.2197C286.879 70.2197 285.617 69.8887 284.617 69.2268C283.618 68.5649 282.985 67.5981 282.719 66.3262L284.899 65.7811C285.107 66.5857 285.5 67.1892 286.077 67.5916C286.661 67.9939 287.424 68.1951 288.365 68.1951C289.435 68.1951 290.286 67.9679 290.915 67.5137C291.551 67.053 291.869 66.5014 291.869 65.859C291.869 65.3398 291.687 64.9051 291.324 64.5546C290.96 64.1977 290.402 63.9317 289.65 63.7565L287.158 63.1724C285.789 62.848 284.783 62.3451 284.14 61.6637C283.504 60.9759 283.186 60.116 283.186 59.0843C283.186 58.2407 283.423 57.4944 283.897 56.8455C284.377 56.1966 285.029 55.6872 285.853 55.3173C286.684 54.9474 287.625 54.7625 288.676 54.7625C290.156 54.7625 291.317 55.0869 292.161 55.7359C293.011 56.3848 293.614 57.2413 293.971 58.3056ZM28.855 100.181C27.5701 100.181 26.4248 99.9601 25.419 99.5189C24.4196 99.0776 23.6247 98.4644 23.0342 97.6792C22.4502 96.8875 22.1322 95.9693 22.0803 94.9245H24.5332C24.5851 95.5669 24.8057 96.1218 25.1951 96.589C25.5844 97.0497 26.0938 97.4066 26.7233 97.6597C27.3527 97.9128 28.0503 98.0393 28.816 98.0393C29.6726 98.0393 30.4318 97.8901 31.0937 97.5916C31.7556 97.2931 32.2748 96.8778 32.6511 96.3456C33.0275 95.8135 33.2157 95.1971 33.2157 94.4962C33.2157 93.763 33.034 93.1173 32.6706 92.5592C32.3072 91.9947 31.7751 91.5534 31.0743 91.2354C30.3734 90.9175 29.5169 90.7585 28.5046 90.7585H26.9082V88.617H28.5046C29.2962 88.617 29.9906 88.4743 30.5876 88.1888C31.1911 87.9032 31.6615 87.5009 31.999 86.9818C32.3429 86.4626 32.5149 85.8527 32.5149 85.1518C32.5149 84.477 32.3656 83.8897 32.0671 83.39C31.7686 82.8904 31.3468 82.501 30.8017 82.222C30.2631 81.9429 29.6272 81.8034 28.8939 81.8034C28.2061 81.8034 27.5571 81.93 26.9472 82.183C26.3437 82.4296 25.8505 82.7898 25.4676 83.2635C25.0848 83.7307 24.8771 84.2953 24.8447 84.9572H22.5086C22.5475 83.9124 22.8622 82.9974 23.4527 82.2122C24.0433 81.4206 24.8155 80.8041 25.7694 80.3628C26.7298 79.9216 27.7843 79.7009 28.9328 79.7009C30.1658 79.7009 31.2235 79.9508 32.1061 80.4504C32.9886 80.9436 33.6667 81.5958 34.1404 82.4069C34.6141 83.2181 34.851 84.0941 34.851 85.035C34.851 86.1577 34.5557 87.1148 33.9652 87.9065C33.3812 88.6982 32.5862 89.2465 31.5804 89.5515V89.7072C32.8393 89.9149 33.8224 90.4502 34.5298 91.3133C35.2371 92.1699 35.5907 93.2308 35.5907 94.4962C35.5907 95.5799 35.2955 96.5533 34.705 97.4164C34.1209 98.2729 33.3228 98.9478 32.3105 99.441C31.2981 99.9342 30.1463 100.181 28.855 100.181ZM49.5968 96.1704V95.1192C49.5968 94.3924 49.7461 93.7273 50.0446 93.1238C50.3496 92.5138 50.7908 92.0271 51.3684 91.6637C51.9524 91.2938 52.6597 91.1089 53.4903 91.1089C54.3339 91.1089 55.0412 91.2938 55.6123 91.6637C56.1833 92.0271 56.6149 92.5138 56.9069 93.1238C57.1989 93.7273 57.3449 94.3924 57.3449 95.1192V96.1704C57.3449 96.8972 57.1956 97.5656 56.8971 98.1756C56.6051 98.7791 56.1704 99.2658 55.5928 99.6357C55.0218 99.9991 54.3209 100.181 53.4903 100.181C52.6467 100.181 51.9362 99.9991 51.3586 99.6357C50.7811 99.2658 50.3431 98.7791 50.0446 98.1756C49.7461 97.5656 49.5968 96.8972 49.5968 96.1704ZM51.5825 95.1192V96.1704C51.5825 96.7739 51.7253 97.3158 52.0108 97.796C52.2963 98.2697 52.7895 98.5065 53.4903 98.5065C54.1717 98.5065 54.6519 98.2697 54.9309 97.796C55.2164 97.3158 55.3592 96.7739 55.3592 96.1704V95.1192C55.3592 94.5157 55.2229 93.9771 54.9504 93.5034C54.6778 93.0232 54.1912 92.7831 53.4903 92.7831C52.809 92.7831 52.319 93.0232 52.0205 93.5034C51.7285 93.9771 51.5825 94.5157 51.5825 95.1192ZM39.6684 84.7625V83.7112C39.6684 82.9845 39.8176 82.3193 40.1162 81.7158C40.4211 81.1058 40.8624 80.6191 41.4399 80.2558C42.024 79.8859 42.7313 79.7009 43.5619 79.7009C44.4055 79.7009 45.1128 79.8859 45.6839 80.2558C46.2549 80.6191 46.6864 81.1058 46.9784 81.7158C47.2705 82.3193 47.4165 82.9845 47.4165 83.7112V84.7625C47.4165 85.4893 47.2672 86.1577 46.9687 86.7676C46.6767 87.3711 46.2419 87.8578 45.6644 88.2277C45.0933 88.5911 44.3925 88.7728 43.5619 88.7728C42.7183 88.7728 42.0077 88.5911 41.4302 88.2277C40.8527 87.8578 40.4147 87.3711 40.1162 86.7676C39.8176 86.1577 39.6684 85.4893 39.6684 84.7625ZM41.6541 83.7112V84.7625C41.6541 85.366 41.7968 85.9078 42.0824 86.388C42.3679 86.8617 42.8611 87.0986 43.5619 87.0986C44.2433 87.0986 44.7235 86.8617 45.0025 86.388C45.288 85.9078 45.4308 85.366 45.4308 84.7625V83.7112C45.4308 83.1077 45.2945 82.5691 45.022 82.0954C44.7494 81.6152 44.2627 81.3751 43.5619 81.3751C42.8805 81.3751 42.3906 81.6152 42.0921 82.0954C41.8001 82.5691 41.6541 83.1077 41.6541 83.7112ZM40.4082 99.9082L54.1133 79.9735H56.3326L42.6275 99.9082H40.4082ZM65.0338 97.1828L64.878 98.234C64.7677 98.9738 64.599 99.7654 64.3719 100.609C64.1513 101.453 63.9209 102.248 63.6808 102.994C63.4407 103.74 63.2428 104.334 63.087 104.775H61.335C61.4193 104.36 61.5296 103.811 61.6659 103.13C61.8022 102.449 61.9384 101.686 62.0747 100.843C62.2175 100.006 62.3343 99.149 62.4251 98.2729L62.5419 97.1828H65.0338ZM80.1122 99.9082L75.5568 84.9572H77.9708L81.2024 96.4041H81.3582L84.5508 84.9572H87.0037L90.1575 96.3651H90.3132L93.5448 84.9572H95.9588L91.4034 99.9082H89.1452L85.8746 88.4224H85.641L82.3705 99.9082H80.1122ZM101.156 90.9142V99.9082H98.8587V79.9735H101.156V87.2933H101.351C101.701 86.521 102.227 85.9078 102.927 85.4536C103.635 84.9928 104.576 84.7625 105.75 84.7625C106.769 84.7625 107.661 84.9669 108.427 85.3757C109.193 85.778 109.786 86.3978 110.208 87.2349C110.637 88.0655 110.851 89.1232 110.851 90.4081V99.9082H108.553V90.5638C108.553 89.3763 108.245 88.4581 107.629 87.8091C107.019 87.1537 106.172 86.826 105.088 86.826C104.336 86.826 103.661 86.985 103.064 87.303C102.473 87.621 102.006 88.0849 101.662 88.6949C101.325 89.3049 101.156 90.0447 101.156 90.9142ZM119.316 100.259C118.368 100.259 117.509 100.08 116.736 99.7233C115.964 99.3599 115.351 98.8375 114.897 98.1561C114.442 97.4683 114.215 96.6377 114.215 95.6643C114.215 94.8077 114.384 94.1134 114.721 93.5813C115.059 93.0427 115.51 92.6209 116.074 92.3159C116.639 92.0109 117.262 91.7838 117.943 91.6345C118.631 91.4788 119.322 91.3555 120.017 91.2646C120.925 91.1478 121.662 91.0602 122.226 91.0018C122.797 90.9369 123.213 90.8299 123.472 90.6806C123.738 90.5314 123.871 90.2718 123.871 89.9019V89.824C123.871 88.8636 123.608 88.1174 123.083 87.5853C122.564 87.0532 121.775 86.7871 120.717 86.7871C119.621 86.7871 118.761 87.0272 118.138 87.5074C117.515 87.9876 117.077 88.5002 116.824 89.0453L114.644 88.2666C115.033 87.3582 115.552 86.6508 116.201 86.1447C116.856 85.632 117.57 85.2751 118.342 85.074C119.121 84.8663 119.887 84.7625 120.64 84.7625C121.12 84.7625 121.671 84.8209 122.294 84.9377C122.924 85.048 123.531 85.2784 124.115 85.6288C124.705 85.9792 125.195 86.5081 125.584 87.2154C125.974 87.9227 126.168 88.8701 126.168 90.0576V99.9082H123.871V97.8836H123.754C123.599 98.208 123.339 98.5552 122.976 98.9251C122.612 99.295 122.129 99.6097 121.525 99.8693C120.922 100.129 120.185 100.259 119.316 100.259ZM119.666 98.1951C120.575 98.1951 121.34 98.0166 121.963 97.6597C122.593 97.3028 123.067 96.8421 123.385 96.2775C123.709 95.713 123.871 95.1192 123.871 94.4962V92.3937C123.774 92.5106 123.56 92.6176 123.229 92.715C122.904 92.8058 122.528 92.8869 122.1 92.9583C121.678 93.0232 121.266 93.0816 120.863 93.1335C120.468 93.1789 120.146 93.2179 119.9 93.2503C119.303 93.3282 118.745 93.4547 118.226 93.6299C117.713 93.7987 117.298 94.055 116.98 94.3989C116.668 94.7363 116.512 95.1971 116.512 95.7811C116.512 96.5793 116.808 97.1828 117.398 97.5916C117.995 97.9939 118.751 98.1951 119.666 98.1951ZM136.726 84.9572V86.9039H128.978V84.9572H136.726ZM131.236 81.3751H133.534V95.6254C133.534 96.2743 133.628 96.761 133.816 97.0854C134.011 97.4034 134.257 97.6175 134.556 97.7278C134.861 97.8317 135.182 97.8836 135.519 97.8836C135.772 97.8836 135.98 97.8706 136.142 97.8446C136.304 97.8122 136.434 97.7862 136.532 97.7668L136.999 99.8303C136.843 99.8887 136.626 99.9471 136.347 100.006C136.068 100.07 135.714 100.103 135.286 100.103C134.637 100.103 134.001 99.9634 133.378 99.6843C132.761 99.4053 132.249 98.9803 131.84 98.4092C131.438 97.8382 131.236 97.1179 131.236 96.2483V81.3751ZM149.914 90.9142V99.9082H147.617V79.9735H149.914V87.2933H150.109C150.459 86.521 150.985 85.9078 151.685 85.4536C152.393 84.9928 153.334 84.7625 154.508 84.7625C155.527 84.7625 156.419 84.9669 157.185 85.3757C157.951 85.778 158.545 86.3978 158.966 87.2349C159.395 88.0655 159.609 89.1232 159.609 90.4081V99.9082H157.312V90.5638C157.312 89.3763 157.003 88.4581 156.387 87.8091C155.777 87.1537 154.93 86.826 153.846 86.826C153.094 86.826 152.419 86.985 151.822 87.303C151.231 87.621 150.764 88.0849 150.42 88.6949C150.083 89.3049 149.914 90.0447 149.914 90.9142ZM168.074 100.259C167.127 100.259 166.267 100.08 165.494 99.7233C164.722 99.3599 164.109 98.8375 163.655 98.1561C163.201 97.4683 162.973 96.6377 162.973 95.6643C162.973 94.8077 163.142 94.1134 163.48 93.5813C163.817 93.0427 164.268 92.6209 164.833 92.3159C165.397 92.0109 166.02 91.7838 166.701 91.6345C167.389 91.4788 168.08 91.3555 168.775 91.2646C169.683 91.1478 170.42 91.0602 170.984 91.0018C171.555 90.9369 171.971 90.8299 172.23 90.6806C172.496 90.5314 172.629 90.2718 172.629 89.9019V89.824C172.629 88.8636 172.367 88.1174 171.841 87.5853C171.322 87.0532 170.533 86.7871 169.476 86.7871C168.379 86.7871 167.519 87.0272 166.896 87.5074C166.273 87.9876 165.835 88.5002 165.582 89.0453L163.402 88.2666C163.791 87.3582 164.31 86.6508 164.959 86.1447C165.615 85.632 166.328 85.2751 167.101 85.074C167.879 84.8663 168.645 84.7625 169.398 84.7625C169.878 84.7625 170.429 84.8209 171.052 84.9377C171.682 85.048 172.289 85.2784 172.873 85.6288C173.463 85.9792 173.953 86.5081 174.342 87.2154C174.732 87.9227 174.926 88.8701 174.926 90.0576V99.9082H172.629V97.8836H172.513C172.357 98.208 172.097 98.5552 171.734 98.9251C171.37 99.295 170.887 99.6097 170.283 99.8693C169.68 100.129 168.943 100.259 168.074 100.259ZM168.424 98.1951C169.333 98.1951 170.099 98.0166 170.722 97.6597C171.351 97.3028 171.825 96.8421 172.143 96.2775C172.467 95.713 172.629 95.1192 172.629 94.4962V92.3937C172.532 92.5106 172.318 92.6176 171.987 92.715C171.662 92.8058 171.286 92.8869 170.858 92.9583C170.436 93.0232 170.024 93.0816 169.622 93.1335C169.226 93.1789 168.905 93.2179 168.658 93.2503C168.061 93.3282 167.503 93.4547 166.984 93.6299C166.471 93.7987 166.056 94.055 165.738 94.3989C165.426 94.7363 165.271 95.1971 165.271 95.7811C165.271 96.5793 165.566 97.1828 166.156 97.5916C166.753 97.9939 167.509 98.1951 168.424 98.1951ZM178.982 105.515V84.9572H181.202V87.3322H181.474C181.643 87.0726 181.876 86.7417 182.175 86.3394C182.48 85.9305 182.915 85.5671 183.479 85.2492C184.05 84.9247 184.823 84.7625 185.796 84.7625C187.055 84.7625 188.164 85.0772 189.125 85.7067C190.085 86.3361 190.835 87.2284 191.373 88.3834C191.912 89.5385 192.181 90.9012 192.181 92.4716C192.181 94.055 191.912 95.4274 191.373 96.589C190.835 97.7441 190.088 98.6396 189.135 99.2755C188.181 99.905 187.081 100.22 185.835 100.22C184.874 100.22 184.105 100.061 183.528 99.7427C182.95 99.4183 182.506 99.0516 182.194 98.6428C181.883 98.2275 181.643 97.8836 181.474 97.611H181.279V105.515H178.982ZM181.24 92.4327C181.24 93.5618 181.406 94.5579 181.737 95.4209C182.068 96.2775 182.551 96.9491 183.187 97.4358C183.823 97.916 184.602 98.1561 185.523 98.1561C186.484 98.1561 187.285 97.9031 187.928 97.3969C188.576 96.8843 189.063 96.1964 189.388 95.3333C189.719 94.4638 189.884 93.4969 189.884 92.4327C189.884 91.3814 189.722 90.434 189.397 89.5904C189.079 88.7403 188.596 88.0687 187.947 87.5755C187.305 87.0759 186.497 86.826 185.523 86.826C184.589 86.826 183.804 87.0629 183.168 87.5366C182.532 88.0038 182.052 88.6592 181.727 89.5028C181.403 90.3399 181.24 91.3165 181.24 92.4327ZM195.548 105.515V84.9572H197.768V87.3322H198.04C198.209 87.0726 198.442 86.7417 198.741 86.3394C199.046 85.9305 199.481 85.5671 200.045 85.2492C200.616 84.9247 201.389 84.7625 202.362 84.7625C203.621 84.7625 204.73 85.0772 205.691 85.7067C206.651 86.3361 207.401 87.2284 207.939 88.3834C208.478 89.5385 208.747 90.9012 208.747 92.4716C208.747 94.055 208.478 95.4274 207.939 96.589C207.401 97.7441 206.655 98.6396 205.701 99.2755C204.747 99.905 203.647 100.22 202.401 100.22C201.44 100.22 200.672 100.061 200.094 99.7427C199.516 99.4183 199.072 99.0516 198.76 98.6428C198.449 98.2275 198.209 97.8836 198.04 97.611H197.845V105.515H195.548ZM197.807 92.4327C197.807 93.5618 197.972 94.5579 198.303 95.4209C198.634 96.2775 199.117 96.9491 199.753 97.4358C200.389 97.916 201.168 98.1561 202.089 98.1561C203.05 98.1561 203.851 97.9031 204.494 97.3969C205.143 96.8843 205.629 96.1964 205.954 95.3333C206.285 94.4638 206.45 93.4969 206.45 92.4327C206.45 91.3814 206.288 90.434 205.963 89.5904C205.645 88.7403 205.162 88.0687 204.513 87.5755C203.871 87.0759 203.063 86.826 202.089 86.826C201.155 86.826 200.37 87.0629 199.734 87.5366C199.098 88.0038 198.618 88.6592 198.293 89.5028C197.969 90.3399 197.807 91.3165 197.807 92.4327ZM218.383 100.22C216.942 100.22 215.7 99.9017 214.655 99.2658C213.617 98.6233 212.815 97.7278 212.251 96.5793C211.693 95.4242 211.414 94.0809 211.414 92.5495C211.414 91.018 211.693 89.6683 212.251 88.5002C212.815 87.3257 213.6 86.4107 214.606 85.7553C215.619 85.0934 216.8 84.7625 218.149 84.7625C218.928 84.7625 219.697 84.8923 220.456 85.1518C221.215 85.4114 221.907 85.8332 222.529 86.4172C223.152 86.9948 223.649 87.7605 224.019 88.7144C224.389 89.6683 224.574 90.8428 224.574 92.238V93.2114H213.049V91.2257H222.237C222.237 90.3821 222.069 89.6294 221.731 88.9675C221.4 88.3056 220.927 87.7832 220.31 87.4003C219.7 87.0175 218.98 86.826 218.149 86.826C217.234 86.826 216.443 87.0532 215.774 87.5074C215.112 87.9552 214.603 88.5392 214.246 89.2595C213.889 89.9798 213.711 90.752 213.711 91.5761V92.8999C213.711 94.029 213.905 94.9862 214.295 95.7714C214.691 96.5501 215.239 97.1438 215.94 97.5526C216.641 97.955 217.455 98.1561 218.383 98.1561C218.986 98.1561 219.531 98.0718 220.018 97.903C220.511 97.7278 220.936 97.4683 221.293 97.1243C221.65 96.7739 221.926 96.3392 222.121 95.82L224.34 96.443C224.106 97.1957 223.714 97.8576 223.162 98.4287C222.611 98.9932 221.929 99.4345 221.118 99.7525C220.307 100.064 219.395 100.22 218.383 100.22ZM230.228 90.9142V99.9082H227.931V84.9572H230.15V87.2933H230.345C230.695 86.534 231.227 85.924 231.941 85.4633C232.655 84.9961 233.577 84.7625 234.706 84.7625C235.718 84.7625 236.604 84.9701 237.363 85.3854C238.122 85.7943 238.713 86.4172 239.135 87.2543C239.556 88.0849 239.767 89.1362 239.767 90.4081V99.9082H237.47V90.5638C237.47 89.3893 237.165 88.4743 236.555 87.8189C235.945 87.157 235.108 86.826 234.044 86.826C233.31 86.826 232.655 86.985 232.078 87.303C231.506 87.621 231.055 88.0849 230.725 88.6949C230.394 89.3049 230.228 90.0447 230.228 90.9142ZM254.418 88.3056L252.355 88.8896C252.225 88.5457 252.033 88.2115 251.78 87.887C251.534 87.5561 251.196 87.2835 250.768 87.0694C250.34 86.8552 249.791 86.7482 249.123 86.7482C248.208 86.7482 247.446 86.9591 246.836 87.3809C246.232 87.7962 245.93 88.325 245.93 88.9675C245.93 89.5385 246.138 89.9895 246.553 90.3205C246.969 90.6514 247.618 90.9272 248.5 91.1478L250.719 91.6929C252.056 92.0174 253.052 92.5138 253.708 93.1822C254.363 93.8441 254.691 94.6974 254.691 95.7422C254.691 96.5987 254.444 97.3644 253.951 98.0393C253.464 98.7142 252.783 99.2463 251.907 99.6357C251.031 100.025 250.012 100.22 248.85 100.22C247.325 100.22 246.063 99.8887 245.064 99.2268C244.065 98.5649 243.432 97.5981 243.166 96.3262L245.346 95.7811C245.554 96.5857 245.947 97.1892 246.524 97.5916C247.108 97.9939 247.871 98.1951 248.812 98.1951C249.882 98.1951 250.732 97.9679 251.362 97.5137C251.998 97.053 252.316 96.5014 252.316 95.859C252.316 95.3398 252.134 94.9051 251.771 94.5546C251.407 94.1977 250.849 93.9317 250.096 93.7565L247.605 93.1724C246.235 92.848 245.229 92.3451 244.587 91.6637C243.951 90.9759 243.633 90.116 243.633 89.0843C243.633 88.2407 243.87 87.4944 244.344 86.8455C244.824 86.1966 245.476 85.6872 246.3 85.3173C247.131 84.9474 248.072 84.7625 249.123 84.7625C250.603 84.7625 251.764 85.0869 252.608 85.7359C253.458 86.3848 254.061 87.2413 254.418 88.3056ZM261.01 94.3016V94.1848C261.023 92.9453 261.152 91.959 261.399 91.2257C261.645 90.4924 261.996 89.8987 262.45 89.4444C262.904 88.9902 263.449 88.5716 264.085 88.1888C264.468 87.9552 264.812 87.6794 265.117 87.3614C265.422 87.0369 265.662 86.6638 265.838 86.242C266.019 85.8202 266.11 85.353 266.11 84.8404C266.11 84.2044 265.961 83.6528 265.662 83.1856C265.364 82.7184 264.965 82.3582 264.465 82.1052C263.965 81.8521 263.411 81.7256 262.801 81.7256C262.268 81.7256 261.756 81.8359 261.263 82.0565C260.769 82.2771 260.357 82.6243 260.026 83.098C259.696 83.5717 259.504 84.1914 259.452 84.9572H256.999C257.051 83.854 257.337 82.9098 257.856 82.1246C258.381 81.3394 259.073 80.7392 259.929 80.3239C260.792 79.9086 261.749 79.7009 262.801 79.7009C263.943 79.7009 264.936 79.9281 265.779 80.3823C266.629 80.8365 267.285 81.4595 267.745 82.2512C268.213 83.0429 268.446 83.9448 268.446 84.9572C268.446 85.671 268.336 86.3166 268.115 86.8942C267.901 87.4717 267.59 87.9876 267.181 88.4418C266.778 88.8961 266.292 89.2984 265.721 89.6488C265.15 90.0057 264.692 90.3821 264.348 90.7779C264.004 91.1673 263.754 91.6313 263.599 92.1699C263.443 92.7085 263.359 93.3801 263.346 94.1848V94.3016H261.01ZM262.255 100.064C261.775 100.064 261.363 99.892 261.019 99.5481C260.675 99.2041 260.503 98.7921 260.503 98.3119C260.503 97.8317 260.675 97.4196 261.019 97.0757C261.363 96.7318 261.775 96.5598 262.255 96.5598C262.736 96.5598 263.148 96.7318 263.492 97.0757C263.836 97.4196 264.008 97.8317 264.008 98.3119C264.008 98.6298 263.926 98.9218 263.764 99.1879C263.608 99.454 263.398 99.6681 263.132 99.8303C262.872 99.9861 262.58 100.064 262.255 100.064Z" fill="white"/>
<path d="M330.585 20.0556C330.585 9.20175 321.787 0.402954 310.933 0.402954V0.402954V28.8475H330.585V20.0556Z" fill="#278EFF" stroke="#278EFF" stroke-width="0.805851"/>
<rect width="19.6526" height="62.1217" transform="matrix(-1 0 0 1 330.585 28.8477)" fill="#278EFF" stroke="#278EFF" stroke-width="0.805851"/>
<path d="M310.933 90.9692V119.414C315.692 119.414 320.056 117.721 323.457 114.906C326.849 117.166 332.288 119.316 338.86 118.121C337.05 117.345 330.069 112.69 330.327 103.381C330.296 103.424 330.262 103.463 330.229 103.503C330.462 102.292 330.586 101.041 330.586 99.7612V90.9692H310.933Z" fill="#278EFF"/>
<path d="M310.933 90.9692H310.53V90.5663H310.933V90.9692ZM310.933 119.414V119.816H310.53V119.414H310.933ZM323.457 114.906L323.2 114.595L323.431 114.404L323.68 114.57L323.457 114.906ZM338.86 118.121L339.019 117.75L340.249 118.278L338.932 118.517L338.86 118.121ZM330.327 103.381L330.001 103.144L330.766 102.093L330.73 103.393L330.327 103.381ZM330.229 103.503L330.539 103.76L329.833 103.427L330.229 103.503ZM330.586 99.7612H330.989V99.7612H330.586ZM330.586 90.9692V90.5663H330.989V90.9692H330.586ZM310.933 90.9692H311.336V119.414H310.933H310.53V90.9692H310.933ZM310.933 119.414V119.011C315.595 119.011 319.869 117.353 323.2 114.595L323.457 114.906L323.714 115.216C320.244 118.089 315.79 119.816 310.933 119.816V119.414ZM323.457 114.906L323.68 114.57C327.01 116.789 332.344 118.896 338.788 117.724L338.86 118.121L338.932 118.517C332.232 119.735 326.688 117.543 323.234 115.241L323.457 114.906ZM338.86 118.121L338.702 118.491C337.735 118.077 335.484 116.678 333.503 114.203C331.515 111.717 329.792 108.136 329.924 103.37L330.327 103.381L330.73 103.393C330.604 107.936 332.242 111.336 334.133 113.699C336.031 116.072 338.176 117.389 339.019 117.75L338.86 118.121ZM330.327 103.381L330.653 103.618C330.613 103.674 330.562 103.732 330.539 103.76L330.229 103.503L329.918 103.247C329.962 103.194 329.98 103.173 330.001 103.144L330.327 103.381ZM330.229 103.503L329.833 103.427C330.062 102.24 330.183 101.015 330.183 99.7612H330.586H330.989C330.989 101.067 330.862 102.343 330.624 103.58L330.229 103.503ZM330.586 99.7612H330.183V90.9692H330.586H330.989V99.7612H330.586ZM330.586 90.9692V91.3722H310.933V90.9692V90.5663H330.586V90.9692Z" fill="#278EFF"/>
</svg>
