<svg width="341" height="90" viewBox="0 0 341 90" fill="none" xmlns="http://www.w3.org/2000/svg">
<path d="M0.402832 20.0556C0.402832 9.20175 9.20161 0.402954 20.0555 0.402954V0.402954V28.8475H0.402832V20.0556Z" fill="#278EFF" stroke="#278EFF" stroke-width="0.805851"/>
<rect x="0.402832" y="28.8475" width="19.6526" height="32.1214" fill="#278EFF" stroke="#278EFF" stroke-width="0.805851"/>
<path d="M0.402832 69.7609C0.402832 80.6148 9.20161 89.4136 20.0555 89.4136V89.4136V60.969H0.402832V69.7609Z" fill="#278EFF" stroke="#278EFF" stroke-width="0.805851"/>
<rect x="20.0557" y="0.402954" width="290.877" height="89.0106" fill="#278EFF"/>
<rect x="20.0557" y="0.402954" width="290.877" height="89.0106" stroke="#278EFF" stroke-width="0.805851"/>
<path d="M26.0906 39.9082L20.6397 19.9735H23.0926L27.2586 36.2094H27.4533L31.6972 19.9735H34.4227L38.6666 36.2094H38.8613L43.0273 19.9735H45.4802L40.0293 39.9082H37.5375L33.1378 24.0227H32.9821L28.5824 39.9082H26.0906ZM50.3366 30.9142V39.9082H48.0394V19.9735H50.3366V27.2933H50.5313C50.8817 26.521 51.4073 25.9078 52.1081 25.4536C52.8155 24.9928 53.7564 24.7625 54.9309 24.7625C55.9497 24.7625 56.842 24.9669 57.6077 25.3757C58.3734 25.778 58.9672 26.3978 59.389 27.2349C59.8173 28.0655 60.0314 29.1232 60.0314 30.4081V39.9082H57.7342V30.5638C57.7342 29.3763 57.426 28.4581 56.8095 27.8091C56.1996 27.1537 55.3527 26.826 54.269 26.826C53.5163 26.826 52.8414 26.985 52.2444 27.303C51.6539 27.621 51.1867 28.0849 50.8427 28.6949C50.5053 29.3049 50.3366 30.0447 50.3366 30.9142ZM68.4966 40.2586C67.5491 40.2586 66.6893 40.0802 65.9171 39.7233C65.1449 39.3599 64.5317 38.8375 64.0774 38.1561C63.6232 37.4683 63.3961 36.6377 63.3961 35.6643C63.3961 34.8077 63.5648 34.1134 63.9022 33.5813C64.2397 33.0427 64.6907 32.6209 65.2552 32.3159C65.8198 32.0109 66.4427 31.7838 67.1241 31.6345C67.812 31.4788 68.5031 31.3555 69.1974 31.2646C70.1059 31.1478 70.8424 31.0602 71.407 31.0018C71.978 30.9369 72.3933 30.8299 72.6529 30.6806C72.9189 30.5314 73.052 30.2718 73.052 29.9019V29.824C73.052 28.8636 72.7891 28.1174 72.2635 27.5853C71.7444 27.0532 70.956 26.7871 69.8982 26.7871C68.8016 26.7871 67.9417 27.0272 67.3188 27.5074C66.6958 27.9876 66.2578 28.5002 66.0047 29.0453L63.8244 28.2666C64.2137 27.3582 64.7328 26.6508 65.3818 26.1447C66.0372 25.632 66.751 25.2751 67.5232 25.074C68.3019 24.8663 69.0676 24.7625 69.8204 24.7625C70.3006 24.7625 70.8521 24.8209 71.4751 24.9377C72.1045 25.048 72.7113 25.2784 73.2953 25.6288C73.8858 25.9792 74.3757 26.5081 74.7651 27.2154C75.1544 27.9227 75.3491 28.8701 75.3491 30.0576V39.9082H73.052V37.8836H72.9352C72.7794 38.208 72.5198 38.5552 72.1565 38.9251C71.7931 39.295 71.3096 39.6097 70.7061 39.8693C70.1026 40.1288 69.3661 40.2586 68.4966 40.2586ZM68.847 38.1951C69.7555 38.1951 70.5212 38.0166 71.1441 37.6597C71.7736 37.3028 72.2473 36.8421 72.5653 36.2775C72.8897 35.713 73.052 35.1192 73.052 34.4962V32.3937C72.9546 32.5106 72.7405 32.6176 72.4095 32.715C72.0851 32.8058 71.7087 32.8869 71.2804 32.9583C70.8586 33.0232 70.4466 33.0816 70.0442 33.1335C69.6484 33.1789 69.3272 33.2179 69.0806 33.2503C68.4836 33.3282 67.9255 33.4547 67.4064 33.6299C66.8937 33.7987 66.4784 34.055 66.1605 34.3989C65.849 34.7363 65.6932 35.1971 65.6932 35.7811C65.6932 36.5793 65.9885 37.1828 66.579 37.5916C67.176 37.9939 67.932 38.1951 68.847 38.1951ZM85.907 24.9572V26.9039H78.159V24.9572H85.907ZM80.4172 21.3751H82.7144V35.6254C82.7144 36.2743 82.8085 36.761 82.9966 37.0854C83.1913 37.4034 83.4379 37.6175 83.7364 37.7278C84.0414 37.8317 84.3626 37.8836 84.7 37.8836C84.9531 37.8836 85.1608 37.8706 85.323 37.8446C85.4852 37.8122 85.615 37.7862 85.7124 37.7668L86.1796 39.8303C86.0238 39.8887 85.8065 39.9471 85.5274 40.0055C85.2484 40.0704 84.8947 40.1029 84.4664 40.1029C83.8175 40.1029 83.1816 39.9634 82.5586 39.6843C81.9422 39.4053 81.4295 38.9803 81.0207 38.4092C80.6184 37.8382 80.4172 37.1179 80.4172 36.2483V21.3751ZM92.0263 19.9735V21.7256C92.0263 22.2577 91.929 22.8255 91.7343 23.429C91.5462 24.026 91.2671 24.6067 90.8972 25.1713C90.5338 25.7294 90.0926 26.2161 89.5734 26.6314L88.3275 25.6191C88.7363 25.035 89.09 24.4283 89.3885 23.7988C89.6935 23.1629 89.846 22.4848 89.846 21.7645V19.9735H92.0263ZM103.399 28.3056L101.336 28.8896C101.206 28.5457 101.015 28.2115 100.762 27.887C100.515 27.5561 100.178 27.2835 99.7493 27.0694C99.321 26.8552 98.7727 26.7482 98.1043 26.7482C97.1893 26.7482 96.4269 26.9591 95.8169 27.3809C95.2134 27.7962 94.9116 28.325 94.9116 28.9675C94.9116 29.5385 95.1193 29.9895 95.5346 30.3205C95.9499 30.6514 96.5988 30.9272 97.4813 31.1478L99.7006 31.6929C101.037 32.0174 102.033 32.5138 102.689 33.1822C103.344 33.8441 103.672 34.6974 103.672 35.7422C103.672 36.5987 103.425 37.3644 102.932 38.0393C102.446 38.7142 101.764 39.2463 100.888 39.6357C100.012 40.025 98.9933 40.2197 97.8318 40.2197C96.3068 40.2197 95.0447 39.8887 94.0453 39.2268C93.046 38.5649 92.4133 37.5981 92.1472 36.3262L94.3276 35.7811C94.5353 36.5857 94.9279 37.1892 95.5054 37.5916C96.0894 37.9939 96.8519 38.1951 97.7928 38.1951C98.8635 38.1951 99.7136 37.9679 100.343 37.5137C100.979 37.053 101.297 36.5014 101.297 35.859C101.297 35.3398 101.115 34.9051 100.752 34.5546C100.388 34.1977 99.8304 33.9317 99.0777 33.7565L96.5858 33.1724C95.2166 32.848 94.2108 32.3451 93.5684 31.6637C92.9324 30.9759 92.6145 30.116 92.6145 29.0843C92.6145 28.2407 92.8513 27.4944 93.325 26.8455C93.8052 26.1966 94.4574 25.6872 95.2815 25.3173C96.1121 24.9474 97.0531 24.7625 98.1043 24.7625C99.5838 24.7625 100.745 25.0869 101.589 25.7359C102.439 26.3848 103.043 27.2413 103.399 28.3056ZM121.067 24.9572V26.9039H113.319V24.9572H121.067ZM115.577 21.3751H117.874V35.6254C117.874 36.2743 117.969 36.761 118.157 37.0854C118.351 37.4034 118.598 37.6175 118.896 37.7278C119.201 37.8317 119.523 37.8836 119.86 37.8836C120.113 37.8836 120.321 37.8706 120.483 37.8446C120.645 37.8122 120.775 37.7862 120.872 37.7668L121.34 39.8303C121.184 39.8887 120.967 39.9471 120.687 40.0055C120.408 40.0704 120.055 40.1029 119.627 40.1029C118.978 40.1029 118.342 39.9634 117.719 39.6843C117.102 39.4053 116.59 38.9803 116.181 38.4092C115.778 37.8382 115.577 37.1179 115.577 36.2483V21.3751ZM127.004 30.9142V39.9082H124.707V19.9735H127.004V27.2933H127.199C127.549 26.521 128.075 25.9078 128.775 25.4536C129.483 24.9928 130.424 24.7625 131.598 24.7625C132.617 24.7625 133.509 24.9669 134.275 25.3757C135.041 25.778 135.635 26.3978 136.056 27.2349C136.485 28.0655 136.699 29.1232 136.699 30.4081V39.9082H134.402V30.5638C134.402 29.3763 134.093 28.4581 133.477 27.8091C132.867 27.1537 132.02 26.826 130.936 26.826C130.184 26.826 129.509 26.985 128.912 27.303C128.321 27.621 127.854 28.0849 127.51 28.6949C127.173 29.3049 127.004 30.0447 127.004 30.9142ZM147.033 40.2197C145.592 40.2197 144.349 39.9017 143.305 39.2658C142.266 38.6233 141.465 37.7278 140.9 36.5793C140.342 35.4242 140.063 34.0809 140.063 32.5495C140.063 31.018 140.342 29.6683 140.9 28.5002C141.465 27.3257 142.25 26.4107 143.256 25.7553C144.268 25.0934 145.449 24.7625 146.799 24.7625C147.578 24.7625 148.347 24.8923 149.106 25.1518C149.865 25.4114 150.556 25.8332 151.179 26.4172C151.802 26.9948 152.299 27.7605 152.669 28.7144C153.038 29.6683 153.223 30.8428 153.223 32.238V33.2114H141.699V31.2257H150.887C150.887 30.3821 150.719 29.6294 150.381 28.9675C150.05 28.3056 149.577 27.7832 148.96 27.4003C148.35 27.0175 147.63 26.826 146.799 26.826C145.884 26.826 145.093 27.0532 144.424 27.5074C143.762 27.9552 143.253 28.5392 142.896 29.2595C142.539 29.9798 142.361 30.752 142.361 31.5761V32.8999C142.361 34.029 142.555 34.9862 142.945 35.7714C143.34 36.5501 143.889 37.1438 144.59 37.5526C145.29 37.955 146.105 38.1561 147.033 38.1561C147.636 38.1561 148.181 38.0718 148.668 37.903C149.161 37.7278 149.586 37.4683 149.943 37.1243C150.3 36.7739 150.576 36.3392 150.771 35.82L152.99 36.443C152.756 37.1957 152.364 37.8576 151.812 38.4287C151.26 38.9932 150.579 39.4345 149.768 39.7525C148.957 40.0639 148.045 40.2197 147.033 40.2197ZM166.45 19.9735V39.9082H164.153V19.9735H166.45ZM174.92 40.2586C173.973 40.2586 173.113 40.0802 172.341 39.7233C171.568 39.3599 170.955 38.8375 170.501 38.1561C170.047 37.4683 169.82 36.6377 169.82 35.6643C169.82 34.8077 169.988 34.1134 170.326 33.5813C170.663 33.0427 171.114 32.6209 171.679 32.3159C172.243 32.0109 172.866 31.7838 173.548 31.6345C174.235 31.4788 174.927 31.3555 175.621 31.2646C176.529 31.1478 177.266 31.0602 177.83 31.0018C178.401 30.9369 178.817 30.8299 179.076 30.6806C179.342 30.5314 179.475 30.2718 179.475 29.9019V29.824C179.475 28.8636 179.213 28.1174 178.687 27.5853C178.168 27.0532 177.379 26.7871 176.322 26.7871C175.225 26.7871 174.365 27.0272 173.742 27.5074C173.119 27.9876 172.681 28.5002 172.428 29.0453L170.248 28.2666C170.637 27.3582 171.156 26.6508 171.805 26.1447C172.461 25.632 173.174 25.2751 173.947 25.074C174.725 24.8663 175.491 24.7625 176.244 24.7625C176.724 24.7625 177.276 24.8209 177.899 24.9377C178.528 25.048 179.135 25.2784 179.719 25.6288C180.309 25.9792 180.799 26.5081 181.189 27.2154C181.578 27.9227 181.773 28.8701 181.773 30.0576V39.9082H179.475V37.8836H179.359C179.203 38.208 178.943 38.5552 178.58 38.9251C178.217 39.295 177.733 39.6097 177.13 39.8693C176.526 40.1288 175.79 40.2586 174.92 40.2586ZM175.27 38.1951C176.179 38.1951 176.945 38.0166 177.568 37.6597C178.197 37.3028 178.671 36.8421 178.989 36.2775C179.313 35.713 179.475 35.1192 179.475 34.4962V32.3937C179.378 32.5106 179.164 32.6176 178.833 32.715C178.509 32.8058 178.132 32.8869 177.704 32.9583C177.282 33.0232 176.87 33.0816 176.468 33.1335C176.072 33.1789 175.751 33.2179 175.504 33.2503C174.907 33.3282 174.349 33.4547 173.83 33.6299C173.317 33.7987 172.902 34.055 172.584 34.3989C172.272 34.7363 172.117 35.1971 172.117 35.7811C172.117 36.5793 172.412 37.1828 173.003 37.5916C173.6 37.9939 174.355 38.1951 175.27 38.1951ZM192.331 24.9572V26.9039H184.582V24.9572H192.331ZM186.841 21.3751H189.138V35.6254C189.138 36.2743 189.232 36.761 189.42 37.0854C189.615 37.4034 189.861 37.6175 190.16 37.7278C190.465 37.8317 190.786 37.8836 191.124 37.8836C191.377 37.8836 191.584 37.8706 191.747 37.8446C191.909 37.8122 192.039 37.7862 192.136 37.7668L192.603 39.8303C192.447 39.8887 192.23 39.9471 191.951 40.0055C191.672 40.0704 191.318 40.1029 190.89 40.1029C190.241 40.1029 189.605 39.9634 188.982 39.6843C188.366 39.4053 187.853 38.9803 187.444 38.4092C187.042 37.8382 186.841 37.1179 186.841 36.2483V21.3751ZM201.757 40.2197C200.316 40.2197 199.074 39.9017 198.029 39.2658C196.991 38.6233 196.189 37.7278 195.625 36.5793C195.067 35.4242 194.788 34.0809 194.788 32.5495C194.788 31.018 195.067 29.6683 195.625 28.5002C196.189 27.3257 196.974 26.4107 197.98 25.7553C198.993 25.0934 200.174 24.7625 201.523 24.7625C202.302 24.7625 203.071 24.8923 203.83 25.1518C204.589 25.4114 205.281 25.8332 205.903 26.4172C206.526 26.9948 207.023 27.7605 207.393 28.7144C207.763 29.6683 207.948 30.8428 207.948 32.238V33.2114H196.423V31.2257H205.611C205.611 30.3821 205.443 29.6294 205.105 28.9675C204.774 28.3056 204.301 27.7832 203.684 27.4003C203.074 27.0175 202.354 26.826 201.523 26.826C200.608 26.826 199.817 27.0532 199.148 27.5074C198.486 27.9552 197.977 28.5392 197.62 29.2595C197.263 29.9798 197.085 30.752 197.085 31.5761V32.8999C197.085 34.029 197.279 34.9862 197.669 35.7714C198.065 36.5501 198.613 37.1438 199.314 37.5526C200.015 37.955 200.829 38.1561 201.757 38.1561C202.36 38.1561 202.905 38.0718 203.392 37.903C203.885 37.7278 204.31 37.4683 204.667 37.1243C205.024 36.7739 205.3 36.3392 205.495 35.82L207.714 36.443C207.48 37.1957 207.088 37.8576 206.536 38.4287C205.985 38.9932 205.303 39.4345 204.492 39.7525C203.681 40.0639 202.769 40.2197 201.757 40.2197ZM221.895 28.3056L219.832 28.8896C219.702 28.5457 219.51 28.2115 219.257 27.887C219.011 27.5561 218.673 27.2835 218.245 27.0694C217.817 26.8552 217.268 26.7482 216.6 26.7482C215.685 26.7482 214.923 26.9591 214.313 27.3809C213.709 27.7962 213.407 28.325 213.407 28.9675C213.407 29.5385 213.615 29.9895 214.03 30.3205C214.446 30.6514 215.095 30.9272 215.977 31.1478L218.196 31.6929C219.533 32.0174 220.529 32.5138 221.185 33.1822C221.84 33.8441 222.168 34.6974 222.168 35.7422C222.168 36.5987 221.921 37.3644 221.428 38.0393C220.941 38.7142 220.26 39.2463 219.384 39.6357C218.508 40.025 217.489 40.2197 216.328 40.2197C214.803 40.2197 213.54 39.8887 212.541 39.2268C211.542 38.5649 210.909 37.5981 210.643 36.3262L212.823 35.7811C213.031 36.5857 213.424 37.1892 214.001 37.5916C214.585 37.9939 215.348 38.1951 216.289 38.1951C217.359 38.1951 218.209 37.9679 218.839 37.5137C219.475 37.053 219.793 36.5014 219.793 35.859C219.793 35.3398 219.611 34.9051 219.248 34.5546C218.884 34.1977 218.326 33.9317 217.573 33.7565L215.082 33.1724C213.712 32.848 212.707 32.3451 212.064 31.6637C211.428 30.9759 211.11 30.116 211.11 29.0843C211.11 28.2407 211.347 27.4944 211.821 26.8455C212.301 26.1966 212.953 25.6872 213.777 25.3173C214.608 24.9474 215.549 24.7625 216.6 24.7625C218.08 24.7625 219.241 25.0869 220.085 25.7359C220.935 26.3848 221.538 27.2413 221.895 28.3056ZM231.991 24.9572V26.9039H224.243V24.9572H231.991ZM226.501 21.3751H228.798V35.6254C228.798 36.2743 228.892 36.761 229.08 37.0854C229.275 37.4034 229.522 37.6175 229.82 37.7278C230.125 37.8317 230.446 37.8836 230.784 37.8836C231.037 37.8836 231.245 37.8706 231.407 37.8446C231.569 37.8122 231.699 37.7862 231.796 37.7668L232.263 39.8303C232.108 39.8887 231.89 39.9471 231.611 40.0055C231.332 40.0704 230.978 40.1029 230.55 40.1029C229.901 40.1029 229.265 39.9634 228.642 39.6843C228.026 39.4053 227.513 38.9803 227.104 38.4092C226.702 37.8382 226.501 37.1179 226.501 36.2483V21.3751ZM34.3837 54.9572L28.855 69.9082H26.5189L20.9901 54.9572H23.4819L27.6091 66.8713H27.7648L31.8919 54.9572H34.3837ZM43.0119 70.2197C41.5713 70.2197 40.3287 69.9017 39.2839 69.2658C38.2456 68.6233 37.4442 67.7278 36.8797 66.5793C36.3216 65.4242 36.0426 64.0809 36.0426 62.5495C36.0426 61.018 36.3216 59.6683 36.8797 58.5002C37.4442 57.3257 38.2294 56.4107 39.2352 55.7553C40.2476 55.0934 41.4286 54.7625 42.7783 54.7625C43.557 54.7625 44.326 54.8923 45.0852 55.1518C45.8445 55.4114 46.5356 55.8332 47.1585 56.4172C47.7815 56.9948 48.2779 57.7605 48.6478 58.7144C49.0177 59.6683 49.2026 60.8428 49.2026 62.238V63.2114H37.6778V61.2257H46.8665C46.8665 60.3821 46.6978 59.6294 46.3604 58.9675C46.0294 58.3056 45.5557 57.7832 44.9392 57.4003C44.3292 57.0175 43.6089 56.826 42.7783 56.826C41.8634 56.826 41.0717 57.0532 40.4033 57.5074C39.7414 57.9552 39.232 58.5392 38.8751 59.2595C38.5182 59.9798 38.3397 60.752 38.3397 61.5761V62.8999C38.3397 64.029 38.5344 64.9862 38.9238 65.7714C39.3196 66.5501 39.8679 67.1438 40.5688 67.5526C41.2696 67.955 42.084 68.1561 43.0119 68.1561C43.6154 68.1561 44.1605 68.0718 44.6472 67.903C45.1404 67.7278 45.5654 67.4683 45.9223 67.1243C46.2792 66.7739 46.555 66.3392 46.7497 65.82L48.969 66.443C48.7354 67.1957 48.3428 67.8576 47.7912 68.4287C47.2396 68.9932 46.5583 69.4345 45.7471 69.7525C44.936 70.0639 44.0243 70.2197 43.0119 70.2197ZM52.56 69.9082V54.9572H54.7793V57.2154H54.935C55.2076 56.4756 55.7007 55.8754 56.4145 55.4146C57.1283 54.9539 57.933 54.7235 58.8285 54.7235C58.9972 54.7235 59.2081 54.7268 59.4612 54.7333C59.7143 54.7398 59.9057 54.7495 60.0355 54.7625V57.0986C59.9576 57.0791 59.7792 57.0499 59.5001 57.011C59.2276 56.9656 58.9388 56.9428 58.6338 56.9428C57.907 56.9428 57.2581 57.0953 56.6871 57.4003C56.1225 57.6988 55.6748 58.1141 55.3438 58.6463C55.0194 59.1719 54.8571 59.7721 54.8571 60.447V69.9082H52.56ZM73.2118 58.3056L71.1482 58.8896C71.0184 58.5457 70.827 58.2115 70.5739 57.887C70.3274 57.5561 69.9899 57.2835 69.5616 57.0694C69.1333 56.8552 68.585 56.7482 67.9166 56.7482C67.0017 56.7482 66.2392 56.9591 65.6292 57.3809C65.0257 57.7962 64.724 58.325 64.724 58.9675C64.724 59.5385 64.9316 59.9895 65.3469 60.3205C65.7622 60.6514 66.4111 60.9272 67.2937 61.1478L69.513 61.6929C70.8497 62.0174 71.8458 62.5138 72.5012 63.1822C73.1566 63.8441 73.4843 64.6974 73.4843 65.7422C73.4843 66.5987 73.2377 67.3644 72.7446 68.0393C72.2579 68.7142 71.5765 69.2463 70.7005 69.6357C69.8244 70.025 68.8056 70.2197 67.6441 70.2197C66.1191 70.2197 64.857 69.8887 63.8577 69.2268C62.8583 68.5649 62.2256 67.5981 61.9596 66.3262L64.1399 65.7811C64.3476 66.5857 64.7402 67.1892 65.3177 67.5916C65.9017 67.9939 66.6642 68.1951 67.6051 68.1951C68.6759 68.1951 69.5259 67.9679 70.1554 67.5137C70.7913 67.053 71.1093 66.5014 71.1093 65.859C71.1093 65.3398 70.9276 64.9051 70.5642 64.5546C70.2008 64.1977 69.6427 63.9317 68.89 63.7565L66.3982 63.1724C65.0289 62.848 64.0231 62.3451 63.3807 61.6637C62.7448 60.9759 62.4268 60.116 62.4268 59.0843C62.4268 58.2407 62.6636 57.4944 63.1374 56.8455C63.6176 56.1966 64.2697 55.6872 65.0938 55.3173C65.9245 54.9474 66.8654 54.7625 67.9166 54.7625C69.3962 54.7625 70.5577 55.0869 71.4013 55.7359C72.2514 56.3848 72.8549 57.2413 73.2118 58.3056ZM76.8052 69.9082V54.9572H79.1024V69.9082H76.8052ZM77.9732 52.4653C77.5255 52.4653 77.1394 52.3128 76.8149 52.0078C76.497 51.7028 76.338 51.3362 76.338 50.9079C76.338 50.4796 76.497 50.113 76.8149 49.808C77.1394 49.503 77.5255 49.3505 77.9732 49.3505C78.421 49.3505 78.8039 49.503 79.1218 49.808C79.4463 50.113 79.6085 50.4796 79.6085 50.9079C79.6085 51.3362 79.4463 51.7028 79.1218 52.0078C78.8039 52.3128 78.421 52.4653 77.9732 52.4653ZM89.2466 70.2197C87.8968 70.2197 86.7126 69.8985 85.6938 69.256C84.6815 68.6136 83.8898 67.7149 83.3187 66.5598C82.7542 65.4047 82.4719 64.055 82.4719 62.5106C82.4719 60.9532 82.7542 59.5937 83.3187 58.4321C83.8898 57.2705 84.6815 56.3686 85.6938 55.7261C86.7126 55.0837 87.8968 54.7625 89.2466 54.7625C90.5963 54.7625 91.7774 55.0837 92.7897 55.7261C93.8085 56.3686 94.6001 57.2705 95.1647 58.4321C95.7358 59.5937 96.0213 60.9532 96.0213 62.5106C96.0213 64.055 95.7358 65.4047 95.1647 66.5598C94.6001 67.7149 93.8085 68.6136 92.7897 69.256C91.7774 69.8985 90.5963 70.2197 89.2466 70.2197ZM89.2466 68.1561C90.2719 68.1561 91.1155 67.8933 91.7774 67.3677C92.4393 66.8421 92.9292 66.151 93.2472 65.2944C93.5651 64.4378 93.7241 63.5099 93.7241 62.5106C93.7241 61.5112 93.5651 60.58 93.2472 59.717C92.9292 58.8539 92.4393 58.1563 91.7774 57.6242C91.1155 57.0921 90.2719 56.826 89.2466 56.826C88.2213 56.826 87.3777 57.0921 86.7158 57.6242C86.0539 58.1563 85.564 58.8539 85.246 59.717C84.928 60.58 84.7691 61.5112 84.7691 62.5106C84.7691 63.5099 84.928 64.4378 85.246 65.2944C85.564 66.151 86.0539 66.8421 86.7158 67.3677C87.3777 67.8933 88.2213 68.1561 89.2466 68.1561ZM101.688 60.9142V69.9082H99.3908V54.9572H101.61V57.2933H101.805C102.155 56.534 102.687 55.924 103.401 55.4633C104.115 54.9961 105.036 54.7625 106.166 54.7625C107.178 54.7625 108.064 54.9701 108.823 55.3854C109.582 55.7943 110.173 56.4172 110.594 57.2543C111.016 58.0849 111.227 59.1362 111.227 60.4081V69.9082H108.93V60.5638C108.93 59.3893 108.625 58.4743 108.015 57.8189C107.405 57.157 106.568 56.826 105.504 56.826C104.77 56.826 104.115 56.985 103.537 57.303C102.966 57.621 102.515 58.0849 102.184 58.6949C101.853 59.3049 101.688 60.0447 101.688 60.9142ZM118.286 64.3016V64.1848C118.299 62.9453 118.428 61.959 118.675 61.2257C118.922 60.4924 119.272 59.8987 119.726 59.4444C120.181 58.9902 120.726 58.5716 121.362 58.1888C121.744 57.9552 122.088 57.6794 122.393 57.3614C122.698 57.0369 122.938 56.6638 123.114 56.242C123.295 55.8202 123.386 55.353 123.386 54.8404C123.386 54.2044 123.237 53.6528 122.938 53.1856C122.64 52.7184 122.241 52.3582 121.741 52.1052C121.241 51.8521 120.687 51.7256 120.077 51.7256C119.545 51.7256 119.032 51.8359 118.539 52.0565C118.046 52.2771 117.634 52.6243 117.303 53.098C116.972 53.5717 116.78 54.1914 116.728 54.9572H114.275C114.327 53.854 114.613 52.9098 115.132 52.1246C115.658 51.3394 116.349 50.7392 117.205 50.3239C118.068 49.9086 119.025 49.7009 120.077 49.7009C121.219 49.7009 122.212 49.9281 123.055 50.3823C123.905 50.8365 124.561 51.4595 125.021 52.2512C125.489 53.0429 125.722 53.9448 125.722 54.9572C125.722 55.671 125.612 56.3166 125.391 56.8942C125.177 57.4717 124.866 57.9876 124.457 58.4418C124.055 58.8961 123.568 59.2984 122.997 59.6488C122.426 60.0057 121.968 60.3821 121.624 60.7779C121.28 61.1673 121.031 61.6313 120.875 62.1699C120.719 62.7085 120.635 63.3801 120.622 64.1848V64.3016H118.286ZM119.532 70.0639C119.051 70.0639 118.639 69.892 118.295 69.5481C117.951 69.2041 117.78 68.7921 117.78 68.3119C117.78 67.8317 117.951 67.4196 118.295 67.0757C118.639 66.7318 119.051 66.5598 119.532 66.5598C120.012 66.5598 120.424 66.7318 120.768 67.0757C121.112 67.4196 121.284 67.8317 121.284 68.3119C121.284 68.6298 121.203 68.9218 121.04 69.1879C120.885 69.454 120.674 69.6681 120.408 69.8303C120.148 69.9861 119.856 70.0639 119.532 70.0639Z" fill="white"/>
<path d="M330.585 20.0556C330.585 9.20175 321.787 0.402954 310.933 0.402954V0.402954V28.8475H330.585V20.0556Z" fill="#278EFF" stroke="#278EFF" stroke-width="0.805851"/>
<rect width="19.6526" height="32.1217" transform="matrix(-1 0 0 1 330.585 28.8477)" fill="#278EFF" stroke="#278EFF" stroke-width="0.805851"/>
<path d="M310.933 60.9692V89.4136C315.692 89.4136 320.056 87.7211 323.457 84.9058C326.849 87.1658 332.288 89.3156 338.86 88.1206C337.05 87.3447 330.069 82.6904 330.327 73.3813C330.296 73.4236 330.262 73.463 330.229 73.5034C330.462 72.2919 330.586 71.0409 330.586 69.7612V60.9692H310.933Z" fill="#278EFF"/>
<path d="M310.933 60.9692H310.53V60.5663H310.933V60.9692ZM310.933 89.4136V89.8165H310.53V89.4136H310.933ZM323.457 84.9058L323.2 84.5954L323.431 84.4042L323.68 84.5704L323.457 84.9058ZM338.86 88.1206L339.019 87.7503L340.249 88.2776L338.932 88.517L338.86 88.1206ZM330.327 73.3813L330.001 73.1444L330.766 72.0929L330.73 73.3925L330.327 73.3813ZM330.229 73.5034L330.539 73.7597L329.833 73.4271L330.229 73.5034ZM330.586 69.7612L330.989 69.7612L330.989 69.7612L330.586 69.7612ZM330.586 60.9692V60.5663H330.989V60.9692H330.586ZM310.933 60.9692H311.336V89.4136H310.933H310.53V60.9692H310.933ZM310.933 89.4136V89.0106C315.595 89.0106 319.869 87.3532 323.2 84.5954L323.457 84.9058L323.714 85.2161C320.244 88.0891 315.79 89.8165 310.933 89.8165V89.4136ZM323.457 84.9058L323.68 84.5704C327.01 86.789 332.344 88.8958 338.788 87.7242L338.86 88.1206L338.932 88.517C332.232 89.7353 326.688 87.5427 323.234 85.2411L323.457 84.9058ZM338.86 88.1206L338.702 88.4909C337.735 88.0766 335.484 86.6779 333.503 84.2026C331.515 81.7174 329.792 78.1359 329.924 73.3702L330.327 73.3813L330.73 73.3925C330.604 77.9358 332.242 81.336 334.133 83.6992C336.031 86.0723 338.176 87.3888 339.019 87.7503L338.86 88.1206ZM330.327 73.3813L330.653 73.6183C330.613 73.6737 330.562 73.7323 330.539 73.7597L330.229 73.5034L329.918 73.2472C329.962 73.1938 329.98 73.1735 330.001 73.1444L330.327 73.3813ZM330.229 73.5034L329.833 73.4271C330.062 72.2403 330.183 71.0149 330.183 69.7612L330.586 69.7612L330.989 69.7612C330.989 71.067 330.862 72.3435 330.624 73.5797L330.229 73.5034ZM330.586 69.7612H330.183V60.9692H330.586H330.989V69.7612H330.586ZM330.586 60.9692V61.3722H310.933V60.9692V60.5663H330.586V60.9692Z" fill="#278EFF"/>
</svg>
