<svg width="341" height="90" viewBox="0 0 341 90" fill="none" xmlns="http://www.w3.org/2000/svg">
<path d="M0.402832 20.0555C0.402832 9.20163 9.20161 0.402832 20.0555 0.402832V0.402832V28.8474H0.402832V20.0555Z" fill="#278EFF" stroke="#278EFF" stroke-width="0.805851"/>
<rect x="0.402832" y="28.8474" width="19.6526" height="32.1214" fill="#278EFF" stroke="#278EFF" stroke-width="0.805851"/>
<path d="M0.402832 69.7609C0.402832 80.6148 9.20161 89.4136 20.0555 89.4136V89.4136V60.969H0.402832V69.7609Z" fill="#278EFF" stroke="#278EFF" stroke-width="0.805851"/>
<rect x="20.0557" y="0.402832" width="290.877" height="89.0106" fill="#278EFF"/>
<rect x="20.0557" y="0.402832" width="290.877" height="89.0106" stroke="#278EFF" stroke-width="0.805851"/>
<path d="M33.3714 24.9572C33.2546 23.9708 32.7809 23.2051 31.9503 22.66C31.1197 22.1149 30.1009 21.8424 28.8939 21.8424C28.0114 21.8424 27.2392 21.9851 26.5773 22.2706C25.9219 22.5562 25.4092 22.9488 25.0393 23.4484C24.676 23.9481 24.4943 24.5159 24.4943 25.1518C24.4943 25.6839 24.6208 26.1414 24.8739 26.5243C25.1334 26.9007 25.4644 27.2154 25.8667 27.4685C26.269 27.7151 26.6908 27.9195 27.1321 28.0817C27.5734 28.2374 27.9789 28.364 28.3488 28.4613L30.3734 29.0064C30.8926 29.1427 31.4701 29.3309 32.1061 29.571C32.7485 29.8111 33.3617 30.1388 33.9457 30.5541C34.5362 30.9629 35.0229 31.4885 35.4058 32.1309C35.7887 32.7734 35.9801 33.5618 35.9801 34.4962C35.9801 35.5734 35.6978 36.5468 35.1332 37.4164C34.5752 38.2859 33.7575 38.977 32.6803 39.4897C31.6096 40.0023 30.3086 40.2586 28.7771 40.2586C27.3495 40.2586 26.1133 40.0283 25.0685 39.5675C24.0303 39.1068 23.2126 38.4644 22.6156 37.6402C22.0251 36.8161 21.6909 35.859 21.6131 34.7688H24.1049C24.1698 35.5215 24.4229 36.1445 24.8641 36.6377C25.3119 37.1243 25.8764 37.4877 26.5578 37.7278C27.2457 37.9615 27.9854 38.0783 28.7771 38.0783C29.6986 38.0783 30.5259 37.929 31.2592 37.6305C31.9925 37.3255 32.5733 36.9037 33.0016 36.3651C33.4298 35.82 33.644 35.1841 33.644 34.4573C33.644 33.7954 33.459 33.2568 33.0892 32.8415C32.7193 32.4262 32.2326 32.0888 31.6291 31.8292C31.0256 31.5696 30.3734 31.3425 29.6726 31.1478L27.2197 30.447C25.6623 29.9992 24.4294 29.3601 23.5209 28.5294C22.6124 27.6988 22.1582 26.6119 22.1582 25.2686C22.1582 24.1525 22.4599 23.1791 23.0634 22.3485C23.6734 21.5114 24.491 20.8625 25.5163 20.4018C26.5481 19.9345 27.6999 19.7009 28.9718 19.7009C30.2566 19.7009 31.3987 19.9313 32.3981 20.392C33.3974 20.8463 34.1891 21.4692 34.7731 22.2609C35.3636 23.0526 35.6751 23.9513 35.7075 24.9572H33.3714ZM41.7977 30.9142V39.9082H39.5005V19.9735H41.7977V27.2933H41.9923C42.3427 26.521 42.8684 25.9078 43.5692 25.4536C44.2765 24.9928 45.2174 24.7625 46.392 24.7625C47.4108 24.7625 48.303 24.9669 49.0688 25.3757C49.8345 25.778 50.4283 26.3978 50.85 27.2349C51.2783 28.0655 51.4925 29.1232 51.4925 30.4081V39.9082H49.1953V30.5638C49.1953 29.3763 48.8871 28.4581 48.2706 27.8091C47.6606 27.1537 46.8138 26.826 45.7301 26.826C44.9773 26.826 44.3025 26.985 43.7055 27.303C43.115 27.621 42.6477 28.0849 42.3038 28.6949C41.9664 29.3049 41.7977 30.0447 41.7977 30.9142ZM61.6318 40.2197C60.2821 40.2197 59.0978 39.8985 58.079 39.256C57.0667 38.6136 56.275 37.7149 55.704 36.5598C55.1394 35.4047 54.8571 34.055 54.8571 32.5106C54.8571 30.9532 55.1394 29.5937 55.704 28.4321C56.275 27.2705 57.0667 26.3686 58.079 25.7261C59.0978 25.0837 60.2821 24.7625 61.6318 24.7625C62.9816 24.7625 64.1626 25.0837 65.1749 25.7261C66.1937 26.3686 66.9854 27.2705 67.55 28.4321C68.121 29.5937 68.4065 30.9532 68.4065 32.5106C68.4065 34.055 68.121 35.4047 67.55 36.5598C66.9854 37.7149 66.1937 38.6136 65.1749 39.256C64.1626 39.8985 62.9816 40.2197 61.6318 40.2197ZM61.6318 38.1561C62.6571 38.1561 63.5007 37.8933 64.1626 37.3677C64.8245 36.8421 65.3144 36.151 65.6324 35.2944C65.9504 34.4378 66.1094 33.5099 66.1094 32.5106C66.1094 31.5112 65.9504 30.58 65.6324 29.717C65.3144 28.8539 64.8245 28.1563 64.1626 27.6242C63.5007 27.0921 62.6571 26.826 61.6318 26.826C60.6065 26.826 59.763 27.0921 59.1011 27.6242C58.4392 28.1563 57.9492 28.8539 57.6313 29.717C57.3133 30.58 57.1543 31.5112 57.1543 32.5106C57.1543 33.5099 57.3133 34.4378 57.6313 35.2944C57.9492 36.151 58.4392 36.8421 59.1011 37.3677C59.763 37.8933 60.6065 38.1561 61.6318 38.1561ZM74.6548 39.9082L70.0994 24.9572H72.5134L75.745 36.4041H75.9007L79.0934 24.9572H81.5463L84.7 36.3651H84.8558L88.0874 24.9572H90.5014L85.946 39.9082H83.6877L80.4172 28.4224H80.1836L76.913 39.9082H74.6548ZM100.973 39.9082V24.9572H103.193V27.2933H103.387C103.699 26.4951 104.202 25.8754 104.896 25.4341C105.59 24.9864 106.424 24.7625 107.398 24.7625C108.384 24.7625 109.205 24.9864 109.86 25.4341C110.522 25.8754 111.038 26.4951 111.408 27.2933H111.564C111.947 26.521 112.521 25.9078 113.287 25.4536C114.052 24.9928 114.97 24.7625 116.041 24.7625C117.378 24.7625 118.471 25.181 119.321 26.0181C120.172 26.8488 120.597 28.1433 120.597 29.9019V39.9082H118.299V29.9019C118.299 28.7987 117.998 28.0103 117.394 27.5366C116.791 27.0629 116.08 26.826 115.262 26.826C114.211 26.826 113.397 27.144 112.819 27.7799C112.242 28.4094 111.953 29.2076 111.953 30.1744V39.9082H109.617V29.6683C109.617 28.8182 109.341 28.1336 108.79 27.6145C108.238 27.0889 107.527 26.826 106.658 26.826C106.061 26.826 105.503 26.985 104.984 27.303C104.471 27.621 104.056 28.0622 103.738 28.6268C103.426 29.1849 103.27 29.8305 103.27 30.5638V39.9082H100.973ZM130.928 40.2197C129.488 40.2197 128.245 39.9017 127.2 39.2658C126.162 38.6233 125.36 37.7278 124.796 36.5793C124.238 35.4242 123.959 34.0809 123.959 32.5495C123.959 31.018 124.238 29.6683 124.796 28.5002C125.36 27.3257 126.146 26.4107 127.151 25.7553C128.164 25.0934 129.345 24.7625 130.695 24.7625C131.473 24.7625 132.242 24.8923 133.001 25.1518C133.761 25.4114 134.452 25.8332 135.075 26.4172C135.698 26.9948 136.194 27.7605 136.564 28.7144C136.934 29.6683 137.119 30.8428 137.119 32.238V33.2114H125.594V31.2257H134.783C134.783 30.3821 134.614 29.6294 134.277 28.9675C133.946 28.3056 133.472 27.7832 132.855 27.4003C132.245 27.0175 131.525 26.826 130.695 26.826C129.78 26.826 128.988 27.0532 128.32 27.5074C127.658 27.9552 127.148 28.5392 126.791 29.2595C126.434 29.9798 126.256 30.752 126.256 31.5761V32.8999C126.256 34.029 126.451 34.9862 126.84 35.7714C127.236 36.5501 127.784 37.1438 128.485 37.5526C129.186 37.955 130 38.1561 130.928 38.1561C131.532 38.1561 132.077 38.0718 132.563 37.903C133.057 37.7278 133.482 37.4683 133.839 37.1243C134.195 36.7739 134.471 36.3392 134.666 35.82L136.885 36.443C136.652 37.1957 136.259 37.8576 135.707 38.4287C135.156 38.9932 134.475 39.4345 133.663 39.7525C132.852 40.0639 131.94 40.2197 130.928 40.2197ZM154.55 24.9572V26.9039H146.802V24.9572H154.55ZM149.061 21.3751H151.358V35.6254C151.358 36.2743 151.452 36.761 151.64 37.0854C151.835 37.4034 152.081 37.6175 152.38 37.7278C152.685 37.8317 153.006 37.8836 153.343 37.8836C153.597 37.8836 153.804 37.8706 153.966 37.8446C154.129 37.8122 154.258 37.7862 154.356 37.7668L154.823 39.8303C154.667 39.8887 154.45 39.9471 154.171 40.0055C153.892 40.0704 153.538 40.1029 153.11 40.1029C152.461 40.1029 151.825 39.9634 151.202 39.6843C150.586 39.4053 150.073 38.9803 149.664 38.4092C149.262 37.8382 149.061 37.1179 149.061 36.2483V21.3751ZM160.487 30.9142V39.9082H158.19V19.9735H160.487V27.2933H160.682C161.032 26.521 161.558 25.9078 162.259 25.4536C162.966 24.9928 163.907 24.7625 165.082 24.7625C166.1 24.7625 166.993 24.9669 167.758 25.3757C168.524 25.778 169.118 26.3978 169.54 27.2349C169.968 28.0655 170.182 29.1232 170.182 30.4081V39.9082H167.885V30.5638C167.885 29.3763 167.577 28.4581 166.96 27.8091C166.35 27.1537 165.503 26.826 164.42 26.826C163.667 26.826 162.992 26.985 162.395 27.303C161.805 27.621 161.337 28.0849 160.993 28.6949C160.656 29.3049 160.487 30.0447 160.487 30.9142ZM180.516 40.2197C179.075 40.2197 177.833 39.9017 176.788 39.2658C175.75 38.6233 174.948 37.7278 174.384 36.5793C173.826 35.4242 173.547 34.0809 173.547 32.5495C173.547 31.018 173.826 29.6683 174.384 28.5002C174.948 27.3257 175.734 26.4107 176.739 25.7553C177.752 25.0934 178.933 24.7625 180.282 24.7625C181.061 24.7625 181.83 24.8923 182.589 25.1518C183.349 25.4114 184.04 25.8332 184.663 26.4172C185.286 26.9948 185.782 27.7605 186.152 28.7144C186.522 29.6683 186.707 30.8428 186.707 32.238V33.2114H175.182V31.2257H184.371C184.371 30.3821 184.202 29.6294 183.865 28.9675C183.534 28.3056 183.06 27.7832 182.443 27.4003C181.833 27.0175 181.113 26.826 180.282 26.826C179.368 26.826 178.576 27.0532 177.907 27.5074C177.246 27.9552 176.736 28.5392 176.379 29.2595C176.022 29.9798 175.844 30.752 175.844 31.5761V32.8999C175.844 34.029 176.039 34.9862 176.428 35.7714C176.824 36.5501 177.372 37.1438 178.073 37.5526C178.774 37.955 179.588 38.1561 180.516 38.1561C181.12 38.1561 181.665 38.0718 182.151 37.903C182.645 37.7278 183.07 37.4683 183.426 37.1243C183.783 36.7739 184.059 36.3392 184.254 35.82L186.473 36.443C186.24 37.1957 185.847 37.8576 185.295 38.4287C184.744 38.9932 184.062 39.4345 183.251 39.7525C182.44 40.0639 181.528 40.2197 180.516 40.2197ZM199.933 19.9735V39.9082H197.636V19.9735H199.933ZM208.403 40.2586C207.456 40.2586 206.596 40.0802 205.824 39.7233C205.052 39.3599 204.439 38.8375 203.984 38.1561C203.53 37.4683 203.303 36.6377 203.303 35.6643C203.303 34.8077 203.472 34.1134 203.809 33.5813C204.146 33.0427 204.597 32.6209 205.162 32.3159C205.727 32.0109 206.35 31.7838 207.031 31.6345C207.719 31.4788 208.41 31.3555 209.104 31.2646C210.013 31.1478 210.749 31.0602 211.314 31.0018C211.885 30.9369 212.3 30.8299 212.56 30.6806C212.826 30.5314 212.959 30.2718 212.959 29.9019V29.824C212.959 28.8636 212.696 28.1174 212.17 27.5853C211.651 27.0532 210.863 26.7871 209.805 26.7871C208.708 26.7871 207.849 27.0272 207.226 27.5074C206.603 27.9876 206.165 28.5002 205.912 29.0453L203.731 28.2666C204.121 27.3582 204.64 26.6508 205.289 26.1447C205.944 25.632 206.658 25.2751 207.43 25.074C208.209 24.8663 208.974 24.7625 209.727 24.7625C210.207 24.7625 210.759 24.8209 211.382 24.9377C212.011 25.048 212.618 25.2784 213.202 25.6288C213.793 25.9792 214.283 26.5081 214.672 27.2154C215.061 27.9227 215.256 28.8701 215.256 30.0576V39.9082H212.959V37.8836H212.842C212.686 38.208 212.427 38.5552 212.063 38.9251C211.7 39.295 211.216 39.6097 210.613 39.8693C210.009 40.1288 209.273 40.2586 208.403 40.2586ZM208.754 38.1951C209.662 38.1951 210.428 38.0166 211.051 37.6597C211.68 37.3028 212.154 36.8421 212.472 36.2775C212.797 35.713 212.959 35.1192 212.959 34.4962V32.3937C212.861 32.5106 212.647 32.6176 212.316 32.715C211.992 32.8058 211.616 32.8869 211.187 32.9583C210.765 33.0232 210.353 33.0816 209.951 33.1335C209.555 33.1789 209.234 33.2179 208.987 33.2503C208.39 33.3282 207.832 33.4547 207.313 33.6299C206.801 33.7987 206.385 34.055 206.067 34.3989C205.756 34.7363 205.6 35.1971 205.6 35.7811C205.6 36.5793 205.895 37.1828 206.486 37.5916C207.083 37.9939 207.839 38.1951 208.754 38.1951ZM225.814 24.9572V26.9039H218.066V24.9572H225.814ZM220.324 21.3751H222.621V35.6254C222.621 36.2743 222.715 36.761 222.903 37.0854C223.098 37.4034 223.345 37.6175 223.643 37.7278C223.948 37.8317 224.269 37.8836 224.607 37.8836C224.86 37.8836 225.068 37.8706 225.23 37.8446C225.392 37.8122 225.522 37.7862 225.619 37.7668L226.086 39.8303C225.931 39.8887 225.713 39.9471 225.434 40.0055C225.155 40.0704 224.802 40.1029 224.373 40.1029C223.724 40.1029 223.088 39.9634 222.465 39.6843C221.849 39.4053 221.336 38.9803 220.928 38.4092C220.525 37.8382 220.324 37.1179 220.324 36.2483V21.3751ZM235.24 40.2197C233.8 40.2197 232.557 39.9017 231.512 39.2658C230.474 38.6233 229.673 37.7278 229.108 36.5793C228.55 35.4242 228.271 34.0809 228.271 32.5495C228.271 31.018 228.55 29.6683 229.108 28.5002C229.673 27.3257 230.458 26.4107 231.464 25.7553C232.476 25.0934 233.657 24.7625 235.007 24.7625C235.785 24.7625 236.554 24.8923 237.314 25.1518C238.073 25.4114 238.764 25.8332 239.387 26.4172C240.01 26.9948 240.506 27.7605 240.876 28.7144C241.246 29.6683 241.431 30.8428 241.431 32.238V33.2114H229.906V31.2257H239.095C239.095 30.3821 238.926 29.6294 238.589 28.9675C238.258 28.3056 237.784 27.7832 237.168 27.4003C236.558 27.0175 235.837 26.826 235.007 26.826C234.092 26.826 233.3 27.0532 232.632 27.5074C231.97 27.9552 231.46 28.5392 231.103 29.2595C230.746 29.9798 230.568 30.752 230.568 31.5761V32.8999C230.568 34.029 230.763 34.9862 231.152 35.7714C231.548 36.5501 232.096 37.1438 232.797 37.5526C233.498 37.955 234.312 38.1561 235.24 38.1561C235.844 38.1561 236.389 38.0718 236.876 37.903C237.369 37.7278 237.794 37.4683 238.151 37.1243C238.508 36.7739 238.783 36.3392 238.978 35.82L241.197 36.443C240.964 37.1957 240.571 37.8576 240.02 38.4287C239.468 38.9932 238.787 39.4345 237.975 39.7525C237.164 40.0639 236.253 40.2197 235.24 40.2197ZM255.379 28.3056L253.315 28.8896C253.185 28.5457 252.994 28.2115 252.741 27.887C252.494 27.5561 252.157 27.2835 251.728 27.0694C251.3 26.8552 250.752 26.7482 250.083 26.7482C249.168 26.7482 248.406 26.9591 247.796 27.3809C247.192 27.7962 246.891 28.325 246.891 28.9675C246.891 29.5385 247.098 29.9895 247.514 30.3205C247.929 30.6514 248.578 30.9272 249.46 31.1478L251.68 31.6929C253.017 32.0174 254.013 32.5138 254.668 33.1822C255.323 33.8441 255.651 34.6974 255.651 35.7422C255.651 36.5987 255.405 37.3644 254.911 38.0393C254.425 38.7142 253.743 39.2463 252.867 39.6357C251.991 40.025 250.972 40.2197 249.811 40.2197C248.286 40.2197 247.024 39.8887 246.024 39.2268C245.025 38.5649 244.392 37.5981 244.126 36.3262L246.307 35.7811C246.514 36.5857 246.907 37.1892 247.485 37.5916C248.069 37.9939 248.831 38.1951 249.772 38.1951C250.843 38.1951 251.693 37.9679 252.322 37.5137C252.958 37.053 253.276 36.5014 253.276 35.859C253.276 35.3398 253.094 34.9051 252.731 34.5546C252.368 34.1977 251.81 33.9317 251.057 33.7565L248.565 33.1724C247.196 32.848 246.19 32.3451 245.547 31.6637C244.912 30.9759 244.594 30.116 244.594 29.0843C244.594 28.2407 244.83 27.4944 245.304 26.8455C245.784 26.1966 246.437 25.6872 247.261 25.3173C248.091 24.9474 249.032 24.7625 250.083 24.7625C251.563 24.7625 252.725 25.0869 253.568 25.7359C254.418 26.3848 255.022 27.2413 255.379 28.3056ZM265.474 24.9572V26.9039H257.726V24.9572H265.474ZM259.984 21.3751H262.281V35.6254C262.281 36.2743 262.376 36.761 262.564 37.0854C262.758 37.4034 263.005 37.6175 263.304 37.7278C263.608 37.8317 263.93 37.8836 264.267 37.8836C264.52 37.8836 264.728 37.8706 264.89 37.8446C265.052 37.8122 265.182 37.7862 265.279 37.7668L265.747 39.8303C265.591 39.8887 265.374 39.9471 265.095 40.0055C264.815 40.0704 264.462 40.1029 264.034 40.1029C263.385 40.1029 262.749 39.9634 262.126 39.6843C261.509 39.4053 260.997 38.9803 260.588 38.4092C260.185 37.8382 259.984 37.1179 259.984 36.2483V21.3751ZM32.7485 58.3056L30.6849 58.8896C30.5551 58.5457 30.3637 58.2115 30.1106 57.887C29.864 57.5561 29.5266 57.2835 29.0983 57.0694C28.67 56.8552 28.1217 56.7482 27.4533 56.7482C26.5383 56.7482 25.7759 56.9591 25.1659 57.3809C24.5624 57.7962 24.2606 58.325 24.2606 58.9675C24.2606 59.5385 24.4683 59.9895 24.8836 60.3205C25.2989 60.6514 25.9478 60.9272 26.8304 61.1478L29.0497 61.6929C30.3864 62.0174 31.3825 62.5138 32.0379 63.1822C32.6933 63.8441 33.021 64.6974 33.021 65.7422C33.021 66.5987 32.7744 67.3644 32.2813 68.0393C31.7946 68.7142 31.1132 69.2463 30.2372 69.6357C29.3611 70.025 28.3423 70.2197 27.1808 70.2197C25.6558 70.2197 24.3937 69.8887 23.3943 69.2268C22.395 68.5649 21.7623 67.5981 21.4963 66.3262L23.6766 65.7811C23.8843 66.5857 24.2769 67.1892 24.8544 67.5916C25.4384 67.9939 26.2009 68.1951 27.1418 68.1951C28.2125 68.1951 29.0626 67.9679 29.6921 67.5137C30.328 67.053 30.646 66.5014 30.646 65.859C30.646 65.3398 30.4643 64.9051 30.1009 64.5546C29.7375 64.1977 29.1794 63.9317 28.4267 63.7565L25.9349 63.1724C24.5656 62.848 23.5598 62.3451 22.9174 61.6637C22.2814 60.9759 21.9635 60.116 21.9635 59.0843C21.9635 58.2407 22.2003 57.4944 22.674 56.8455C23.1542 56.1966 23.8064 55.6872 24.6305 55.3173C25.4611 54.9474 26.4021 54.7625 27.4533 54.7625C28.9328 54.7625 30.0944 55.0869 30.938 55.7359C31.7881 56.3848 32.3916 57.2413 32.7485 58.3056ZM40.7415 70.2586C39.7941 70.2586 38.9343 70.0802 38.1621 69.7233C37.3899 69.3599 36.7767 68.8375 36.3224 68.1561C35.8682 67.4683 35.6411 66.6377 35.6411 65.6643C35.6411 64.8077 35.8098 64.1134 36.1472 63.5813C36.4846 63.0427 36.9356 62.6209 37.5002 62.3159C38.0648 62.0109 38.6877 61.7838 39.3691 61.6345C40.0569 61.4788 40.748 61.3555 41.4424 61.2646C42.3509 61.1478 43.0874 61.0602 43.6519 61.0018C44.223 60.9369 44.6383 60.8299 44.8979 60.6806C45.1639 60.5314 45.2969 60.2718 45.2969 59.9019V59.824C45.2969 58.8636 45.0341 58.1174 44.5085 57.5853C43.9894 57.0532 43.2009 56.7871 42.1432 56.7871C41.0465 56.7871 40.1867 57.0272 39.5638 57.5074C38.9408 57.9876 38.5028 58.5002 38.2497 59.0453L36.0693 58.2666C36.4587 57.3582 36.9778 56.6508 37.6267 56.1447C38.2821 55.632 38.996 55.2751 39.7682 55.074C40.5469 54.8663 41.3126 54.7625 42.0653 54.7625C42.5455 54.7625 43.0971 54.8209 43.7201 54.9377C44.3495 55.048 44.9563 55.2784 45.5403 55.6288C46.1308 55.9792 46.6207 56.5081 47.0101 57.2154C47.3994 57.9227 47.5941 58.8701 47.5941 60.0576V69.9082H45.2969V67.8836H45.1801C45.0244 68.208 44.7648 68.5552 44.4014 68.9251C44.038 69.295 43.5546 69.6097 42.9511 69.8693C42.3476 70.1288 41.6111 70.2586 40.7415 70.2586ZM41.092 68.1951C42.0004 68.1951 42.7662 68.0166 43.3891 67.6597C44.0186 67.3028 44.4923 66.8421 44.8103 66.2775C45.1347 65.713 45.2969 65.1192 45.2969 64.4962V62.3937C45.1996 62.5106 44.9855 62.6176 44.6545 62.715C44.3301 62.8058 43.9537 62.8869 43.5254 62.9583C43.1036 63.0232 42.6915 63.0816 42.2892 63.1335C41.8934 63.1789 41.5722 63.2179 41.3256 63.2503C40.7286 63.3282 40.1705 63.4547 39.6514 63.6299C39.1387 63.7987 38.7234 64.055 38.4054 64.3989C38.094 64.7363 37.9382 65.1971 37.9382 65.7811C37.9382 66.5793 38.2335 67.1828 38.824 67.5916C39.421 67.9939 40.177 68.1951 41.092 68.1951ZM53.947 49.9735V69.9082H51.6499V49.9735H53.947ZM64.2859 70.2197C62.8453 70.2197 61.6027 69.9017 60.5579 69.2658C59.5196 68.6233 58.7182 67.7278 58.1537 66.5793C57.5956 65.4242 57.3166 64.0809 57.3166 62.5495C57.3166 61.018 57.5956 59.6683 58.1537 58.5002C58.7182 57.3257 59.5034 56.4107 60.5092 55.7553C61.5215 55.0934 62.7026 54.7625 64.0523 54.7625C64.831 54.7625 65.6 54.8923 66.3592 55.1518C67.1185 55.4114 67.8096 55.8332 68.4325 56.4172C69.0555 56.9948 69.5519 57.7605 69.9218 58.7144C70.2917 59.6683 70.4766 60.8428 70.4766 62.238V63.2114H58.9518V61.2257H68.1405C68.1405 60.3821 67.9718 59.6294 67.6343 58.9675C67.3034 58.3056 66.8297 57.7832 66.2132 57.4003C65.6032 57.0175 64.8829 56.826 64.0523 56.826C63.1374 56.826 62.3457 57.0532 61.6773 57.5074C61.0154 57.9552 60.506 58.5392 60.1491 59.2595C59.7922 59.9798 59.6137 60.752 59.6137 61.5761V62.8999C59.6137 64.029 59.8084 64.9862 60.1978 65.7714C60.5936 66.5501 61.1419 67.1438 61.8428 67.5526C62.5436 67.955 63.358 68.1561 64.2859 68.1561C64.8894 68.1561 65.4345 68.0718 65.9212 67.903C66.4144 67.7278 66.8394 67.4683 67.1963 67.1243C67.5532 66.7739 67.829 66.3392 68.0237 65.82L70.243 66.443C70.0094 67.1957 69.6168 67.8576 69.0652 68.4287C68.5136 68.9932 67.8323 69.4345 67.0211 69.7525C66.21 70.0639 65.2982 70.2197 64.2859 70.2197ZM84.4243 58.3056L82.3607 58.8896C82.231 58.5457 82.0395 58.2115 81.7864 57.887C81.5399 57.5561 81.2024 57.2835 80.7741 57.0694C80.3458 56.8552 79.7975 56.7482 79.1291 56.7482C78.2142 56.7482 77.4517 56.9591 76.8417 57.3809C76.2382 57.7962 75.9365 58.325 75.9365 58.9675C75.9365 59.5385 76.1441 59.9895 76.5594 60.3205C76.9747 60.6514 77.6236 60.9272 78.5062 61.1478L80.7255 61.6929C82.0622 62.0174 83.0583 62.5138 83.7137 63.1822C84.3691 63.8441 84.6968 64.6974 84.6968 65.7422C84.6968 66.5987 84.4502 67.3644 83.9571 68.0393C83.4704 68.7142 82.789 69.2463 81.913 69.6357C81.0369 70.025 80.0181 70.2197 78.8566 70.2197C77.3316 70.2197 76.0695 69.8887 75.0702 69.2268C74.0708 68.5649 73.4381 67.5981 73.1721 66.3262L75.3524 65.7811C75.5601 66.5857 75.9527 67.1892 76.5302 67.5916C77.1142 67.9939 77.8767 68.1951 78.8176 68.1951C79.8884 68.1951 80.7384 67.9679 81.3679 67.5137C82.0038 67.053 82.3218 66.5014 82.3218 65.859C82.3218 65.3398 82.1401 64.9051 81.7767 64.5546C81.4133 64.1977 80.8552 63.9317 80.1025 63.7565L77.6107 63.1724C76.2414 62.848 75.2356 62.3451 74.5932 61.6637C73.9573 60.9759 73.6393 60.116 73.6393 59.0843C73.6393 58.2407 73.8761 57.4944 74.3499 56.8455C74.8301 56.1966 75.4822 55.6872 76.3063 55.3173C77.137 54.9474 78.0779 54.7625 79.1291 54.7625C80.6087 54.7625 81.7702 55.0869 82.6138 55.7359C83.4639 56.3848 84.0674 57.2413 84.4243 58.3056ZM95.5898 69.9082V54.9572H97.8091V57.2154H97.9648C98.2374 56.4756 98.7305 55.8754 99.4443 55.4146C100.158 54.9539 100.963 54.7235 101.858 54.7235C102.027 54.7235 102.238 54.7268 102.491 54.7333C102.744 54.7398 102.936 54.7495 103.065 54.7625V57.0986C102.987 57.0791 102.809 57.0499 102.53 57.011C102.257 56.9656 101.969 56.9428 101.664 56.9428C100.937 56.9428 100.288 57.0953 99.7169 57.4003C99.1523 57.6988 98.7046 58.1141 98.3736 58.6463C98.0492 59.1719 97.8869 59.7721 97.8869 60.447V69.9082H95.5898ZM111.465 70.2197C110.024 70.2197 108.781 69.9017 107.737 69.2658C106.698 68.6233 105.897 67.7278 105.332 66.5793C104.774 65.4242 104.495 64.0809 104.495 62.5495C104.495 61.018 104.774 59.6683 105.332 58.5002C105.897 57.3257 106.682 56.4107 107.688 55.7553C108.7 55.0934 109.881 54.7625 111.231 54.7625C112.01 54.7625 112.779 54.8923 113.538 55.1518C114.297 55.4114 114.988 55.8332 115.611 56.4172C116.234 56.9948 116.731 57.7605 117.101 58.7144C117.47 59.6683 117.655 60.8428 117.655 62.238V63.2114H106.131V61.2257H115.319C115.319 60.3821 115.151 59.6294 114.813 58.9675C114.482 58.3056 114.009 57.7832 113.392 57.4003C112.782 57.0175 112.062 56.826 111.231 56.826C110.316 56.826 109.524 57.0532 108.856 57.5074C108.194 57.9552 107.685 58.5392 107.328 59.2595C106.971 59.9798 106.793 60.752 106.793 61.5761V62.8999C106.793 64.029 106.987 64.9862 107.377 65.7714C107.772 66.5501 108.321 67.1438 109.022 67.5526C109.722 67.955 110.537 68.1561 111.465 68.1561C112.068 68.1561 112.613 68.0718 113.1 67.903C113.593 67.7278 114.018 67.4683 114.375 67.1243C114.732 66.7739 115.008 66.3392 115.203 65.82L117.422 66.443C117.188 67.1957 116.796 67.8576 116.244 68.4287C115.692 68.9932 115.011 69.4345 114.2 69.7525C113.389 70.0639 112.477 70.2197 111.465 70.2197ZM121.013 75.5148V54.9572H123.232V57.3322H123.505C123.673 57.0726 123.907 56.7417 124.205 56.3394C124.51 55.9305 124.945 55.5671 125.51 55.2492C126.081 54.9247 126.853 54.7625 127.826 54.7625C129.085 54.7625 130.195 55.0772 131.155 55.7067C132.116 56.3361 132.865 57.2284 133.404 58.3834C133.942 59.5385 134.212 60.9012 134.212 62.4716C134.212 64.055 133.942 65.4274 133.404 66.589C132.865 67.7441 132.119 68.6396 131.165 69.2755C130.211 69.905 129.111 70.2197 127.865 70.2197C126.905 70.2197 126.136 70.0607 125.558 69.7427C124.981 69.4183 124.536 69.0516 124.225 68.6428C123.913 68.2275 123.673 67.8836 123.505 67.611H123.31V75.5148H121.013ZM123.271 62.4327C123.271 63.5618 123.436 64.5579 123.767 65.4209C124.098 66.2775 124.582 66.9491 125.218 67.4358C125.854 67.916 126.632 68.1561 127.554 68.1561C128.514 68.1561 129.316 67.9031 129.958 67.3969C130.607 66.8843 131.094 66.1964 131.418 65.3333C131.749 64.4638 131.915 63.4969 131.915 62.4327C131.915 61.3814 131.752 60.434 131.428 59.5904C131.11 58.7403 130.626 58.0687 129.978 57.5755C129.335 57.0759 128.527 56.826 127.554 56.826C126.619 56.826 125.834 57.0629 125.198 57.5366C124.562 58.0038 124.082 58.6592 123.758 59.5028C123.433 60.3399 123.271 61.3165 123.271 62.4327ZM143.653 70.2197C142.303 70.2197 141.119 69.8985 140.1 69.256C139.088 68.6136 138.296 67.7149 137.725 66.5598C137.16 65.4047 136.878 64.055 136.878 62.5106C136.878 60.9532 137.16 59.5937 137.725 58.4321C138.296 57.2705 139.088 56.3686 140.1 55.7261C141.119 55.0837 142.303 54.7625 143.653 54.7625C145.002 54.7625 146.183 55.0837 147.196 55.7261C148.215 56.3686 149.006 57.2705 149.571 58.4321C150.142 59.5937 150.427 60.9532 150.427 62.5106C150.427 64.055 150.142 65.4047 149.571 66.5598C149.006 67.7149 148.215 68.6136 147.196 69.256C146.183 69.8985 145.002 70.2197 143.653 70.2197ZM143.653 68.1561C144.678 68.1561 145.522 67.8933 146.183 67.3677C146.845 66.8421 147.335 66.151 147.653 65.2944C147.971 64.4378 148.13 63.5099 148.13 62.5106C148.13 61.5112 147.971 60.58 147.653 59.717C147.335 58.8539 146.845 58.1563 146.183 57.6242C145.522 57.0921 144.678 56.826 143.653 56.826C142.627 56.826 141.784 57.0921 141.122 57.6242C140.46 58.1563 139.97 58.8539 139.652 59.717C139.334 60.58 139.175 61.5112 139.175 62.5106C139.175 63.5099 139.334 64.4378 139.652 65.2944C139.97 66.151 140.46 66.8421 141.122 67.3677C141.784 67.8933 142.627 68.1561 143.653 68.1561ZM153.797 69.9082V54.9572H156.016V57.2154H156.172C156.445 56.4756 156.938 55.8754 157.651 55.4146C158.365 54.9539 159.17 54.7235 160.065 54.7235C160.234 54.7235 160.445 54.7268 160.698 54.7333C160.951 54.7398 161.143 54.7495 161.272 54.7625V57.0986C161.195 57.0791 161.016 57.0499 160.737 57.011C160.465 56.9656 160.176 56.9428 159.871 56.9428C159.144 56.9428 158.495 57.0953 157.924 57.4003C157.359 57.6988 156.912 58.1141 156.581 58.6463C156.256 59.1719 156.094 59.7721 156.094 60.447V69.9082H153.797ZM171.297 54.9572V56.9039H163.549V54.9572H171.297ZM165.808 51.3751H168.105V65.6254C168.105 66.2743 168.199 66.761 168.387 67.0854C168.582 67.4034 168.828 67.6175 169.127 67.7278C169.432 67.8317 169.753 67.8836 170.09 67.8836C170.344 67.8836 170.551 67.8706 170.713 67.8446C170.876 67.8122 171.005 67.7862 171.103 67.7668L171.57 69.8303C171.414 69.8887 171.197 69.9471 170.918 70.0055C170.639 70.0704 170.285 70.1029 169.857 70.1029C169.208 70.1029 168.572 69.9634 167.949 69.6843C167.333 69.4053 166.82 68.9803 166.411 68.4092C166.009 67.8382 165.808 67.1179 165.808 66.2483V51.3751Z" fill="white"/>
<path d="M330.585 20.0555C330.585 9.20163 321.787 0.402832 310.933 0.402832V0.402832V28.8474H330.585V20.0555Z" fill="#278EFF" stroke="#278EFF" stroke-width="0.805851"/>
<rect width="19.6526" height="32.1217" transform="matrix(-1 0 0 1 330.585 28.8477)" fill="#278EFF" stroke="#278EFF" stroke-width="0.805851"/>
<path d="M310.933 60.9692V89.4136C315.692 89.4136 320.056 87.7211 323.457 84.9058C326.849 87.1658 332.288 89.3156 338.86 88.1206C337.05 87.3447 330.069 82.6904 330.327 73.3813C330.296 73.4236 330.262 73.463 330.229 73.5034C330.462 72.2919 330.586 71.0409 330.586 69.7612V60.9692H310.933Z" fill="#278EFF"/>
<path d="M310.933 60.9692H310.53V60.5663H310.933V60.9692ZM310.933 89.4136V89.8165H310.53V89.4136H310.933ZM323.457 84.9058L323.2 84.5954L323.431 84.4042L323.68 84.5704L323.457 84.9058ZM338.86 88.1206L339.019 87.7503L340.249 88.2776L338.932 88.517L338.86 88.1206ZM330.327 73.3813L330.001 73.1444L330.766 72.0929L330.73 73.3925L330.327 73.3813ZM330.229 73.5034L330.539 73.7597L329.833 73.4271L330.229 73.5034ZM330.586 69.7612L330.989 69.7612L330.989 69.7612L330.586 69.7612ZM330.586 60.9692V60.5663H330.989V60.9692H330.586ZM310.933 60.9692H311.336V89.4136H310.933H310.53V60.9692H310.933ZM310.933 89.4136V89.0106C315.595 89.0106 319.869 87.3532 323.2 84.5954L323.457 84.9058L323.714 85.2161C320.244 88.0891 315.79 89.8165 310.933 89.8165V89.4136ZM323.457 84.9058L323.68 84.5704C327.01 86.789 332.344 88.8958 338.788 87.7242L338.86 88.1206L338.932 88.517C332.232 89.7353 326.688 87.5427 323.234 85.2411L323.457 84.9058ZM338.86 88.1206L338.702 88.4909C337.735 88.0766 335.484 86.6779 333.503 84.2026C331.515 81.7174 329.792 78.1359 329.924 73.3702L330.327 73.3813L330.73 73.3925C330.604 77.9358 332.242 81.336 334.133 83.6992C336.031 86.0723 338.176 87.3888 339.019 87.7503L338.86 88.1206ZM330.327 73.3813L330.653 73.6183C330.613 73.6737 330.562 73.7323 330.539 73.7597L330.229 73.5034L329.918 73.2472C329.962 73.1938 329.98 73.1735 330.001 73.1444L330.327 73.3813ZM330.229 73.5034L329.833 73.4271C330.062 72.2403 330.183 71.0149 330.183 69.7612L330.586 69.7612L330.989 69.7612C330.989 71.067 330.862 72.3435 330.624 73.5797L330.229 73.5034ZM330.586 69.7612H330.183V60.9692H330.586H330.989V69.7612H330.586ZM330.586 60.9692V61.3722H310.933V60.9692V60.5663H330.586V60.9692Z" fill="#278EFF"/>
</svg>
