<svg width="341" height="120" viewBox="0 0 341 120" fill="none" xmlns="http://www.w3.org/2000/svg">
<path d="M9.66455 20.0555C9.66455 9.20163 18.4633 0.402832 29.3172 0.402832V0.402832V28.8474H9.66455V20.0555Z" fill="#26252A" stroke="#26252A" stroke-width="0.805851"/>
<rect x="9.66406" y="28.8477" width="19.6526" height="62.1217" fill="#26252A" stroke="#26252A" stroke-width="0.805851"/>
<path d="M29.3169 90.9692V119.414C24.5574 119.414 20.193 117.722 16.7925 114.907C13.4001 117.167 7.961 119.315 1.38916 118.121C3.19927 117.345 10.181 112.69 9.92236 103.381C9.95309 103.424 9.98772 103.463 10.021 103.503C9.78741 102.292 9.66456 101.041 9.66455 99.7612V90.9692H29.3169Z" fill="#26252A"/>
<path d="M29.3169 90.9692H29.7198V90.5663H29.3169V90.9692ZM29.3169 119.414V119.816H29.7198V119.414H29.3169ZM16.7925 114.907L17.0494 114.596L16.8185 114.405L16.5691 114.571L16.7925 114.907ZM1.38916 118.121L1.23044 117.75L4.59179e-05 118.278L1.31708 118.517L1.38916 118.121ZM9.92236 103.381L10.2482 103.144L9.48349 102.093L9.51959 103.393L9.92236 103.381ZM10.021 103.503L9.71005 103.76L10.4166 103.427L10.021 103.503ZM9.66455 99.7612L9.26163 99.7612L9.26163 99.7612L9.66455 99.7612ZM9.66455 90.9692V90.5663H9.26163V90.9692H9.66455ZM29.3169 90.9692H28.914V119.414H29.3169H29.7198V90.9692H29.3169ZM29.3169 119.414V119.011C24.6547 119.011 20.3803 117.354 17.0494 114.596L16.7925 114.907L16.5355 115.217C20.0057 118.09 24.4602 119.816 29.3169 119.816V119.414ZM16.7925 114.907L16.5691 114.571C13.2391 116.79 7.9047 118.896 1.46124 117.724L1.38916 118.121L1.31708 118.517C8.0173 119.735 13.5611 117.544 17.0159 115.242L16.7925 114.907ZM1.38916 118.121L1.54788 118.491C2.51466 118.077 4.76591 116.678 6.74616 114.203C8.73431 111.718 10.4575 108.136 10.3251 103.37L9.92236 103.381L9.51959 103.393C9.6458 107.936 8.00746 111.336 6.11689 113.699C4.21841 116.072 2.07377 117.389 1.23044 117.75L1.38916 118.121ZM9.92236 103.381L9.5965 103.618C9.63678 103.674 9.68752 103.732 9.71005 103.76L10.021 103.503L10.3319 103.247C10.2879 103.194 10.2694 103.173 10.2482 103.144L9.92236 103.381ZM10.021 103.503L10.4166 103.427C10.1879 102.241 10.0675 101.015 10.0675 99.7612L9.66455 99.7612L9.26163 99.7612C9.26163 101.067 9.38698 102.343 9.62536 103.58L10.021 103.503ZM9.66455 99.7612H10.0675V90.9692H9.66455H9.26163V99.7612H9.66455ZM9.66455 90.9692V91.3722H29.3169V90.9692V90.5663H9.66455V90.9692Z" fill="#26252A"/>
<rect x="29.3164" y="0.402832" width="290.877" height="119.011" fill="#26252A"/>
<rect x="29.3164" y="0.402832" width="290.877" height="119.011" stroke="#26252A" stroke-width="0.805851"/>
<path d="M37.8821 39.9082H31.7304V19.9735H38.1547C40.0884 19.9735 41.7432 20.3726 43.1189 21.1707C44.4946 21.9624 45.5491 23.1013 46.2823 24.5873C47.0156 26.0668 47.3823 27.8383 47.3823 29.9019C47.3823 31.9784 47.0124 33.7662 46.2726 35.2652C45.5328 36.7577 44.4556 37.9063 43.041 38.711C41.6264 39.5091 39.9067 39.9082 37.8821 39.9082ZM34.1443 37.7668H37.7264C39.3746 37.7668 40.7406 37.4488 41.8243 36.8129C42.908 36.1769 43.7159 35.2717 44.248 34.0972C44.7801 32.9226 45.0462 31.5242 45.0462 29.9019C45.0462 28.2926 44.7833 26.9072 44.2577 25.7456C43.7321 24.5775 42.9469 23.682 41.9021 23.0591C40.8574 22.4296 39.5563 22.1149 37.9989 22.1149H34.1443V37.7668ZM57.2515 40.2197C55.8109 40.2197 54.5682 39.9017 53.5235 39.2658C52.4852 38.6233 51.6838 37.7278 51.1192 36.5793C50.5612 35.4242 50.2821 34.0809 50.2821 32.5495C50.2821 31.018 50.5612 29.6683 51.1192 28.5002C51.6838 27.3257 52.469 26.4107 53.4748 25.7553C54.4871 25.0934 55.6681 24.7625 57.0179 24.7625C57.7966 24.7625 58.5656 24.8923 59.3248 25.1518C60.084 25.4114 60.7751 25.8332 61.3981 26.4172C62.021 26.9948 62.5175 27.7605 62.8873 28.7144C63.2572 29.6683 63.4422 30.8428 63.4422 32.238V33.2114H51.9174V31.2257H61.1061C61.1061 30.3821 60.9373 29.6294 60.5999 28.9675C60.269 28.3056 59.7953 27.7832 59.1788 27.4003C58.5688 27.0175 57.8485 26.826 57.0179 26.826C56.1029 26.826 55.3112 27.0532 54.6429 27.5074C53.981 27.9552 53.4716 28.5392 53.1147 29.2595C52.7577 29.9798 52.5793 30.752 52.5793 31.5761V32.8999C52.5793 34.029 52.774 34.9862 53.1633 35.7714C53.5592 36.5501 54.1075 37.1438 54.8083 37.5526C55.5092 37.955 56.3235 38.1561 57.2515 38.1561C57.855 38.1561 58.4001 38.0718 58.8868 37.903C59.3799 37.7278 59.805 37.4683 60.1619 37.1243C60.5188 36.7739 60.7946 36.3392 60.9893 35.82L63.2086 36.443C62.9749 37.1957 62.5823 37.8576 62.0308 38.4287C61.4792 38.9932 60.7978 39.4345 59.9867 39.7525C59.1755 40.0639 58.2638 40.2197 57.2515 40.2197ZM72.8734 40.2197C71.4717 40.2197 70.2647 39.8887 69.2524 39.2268C68.2401 38.5649 67.4614 37.6532 66.9163 36.4917C66.3712 35.3301 66.0987 34.0031 66.0987 32.5106C66.0987 30.9921 66.3777 29.6521 66.9358 28.4905C67.5004 27.3225 68.2856 26.4107 69.2914 25.7553C70.3037 25.0934 71.4847 24.7625 72.8345 24.7625C73.8857 24.7625 74.8331 24.9572 75.6767 25.3465C76.5203 25.7359 77.2114 26.2809 77.75 26.9818C78.2886 27.6826 78.6228 28.5002 78.7526 29.4347H76.4554C76.2802 28.7533 75.8909 28.1498 75.2874 27.6242C74.6904 27.0921 73.8857 26.826 72.8734 26.826C71.9779 26.826 71.1927 27.0596 70.5178 27.5269C69.8494 27.9876 69.3271 28.6398 68.9507 29.4834C68.5808 30.3205 68.3959 31.3036 68.3959 32.4327C68.3959 33.5878 68.5776 34.5936 68.941 35.4501C69.3108 36.3067 69.83 36.9719 70.4984 37.4456C71.1732 37.9193 71.9649 38.1561 72.8734 38.1561C73.4704 38.1561 74.0122 38.0523 74.4989 37.8446C74.9856 37.637 75.3977 37.3385 75.7351 36.9491C76.0726 36.5598 76.3127 36.0926 76.4554 35.5475H78.7526C78.6228 36.43 78.3016 37.2249 77.7889 37.9323C77.2828 38.6331 76.6112 39.1911 75.7741 39.6065C74.9434 40.0153 73.9766 40.2197 72.8734 40.2197ZM81.9737 39.9082V24.9572H84.2708V39.9082H81.9737ZM83.1417 22.4653C82.694 22.4653 82.3079 22.3128 81.9834 22.0078C81.6654 21.7028 81.5065 21.3362 81.5065 20.9079C81.5065 20.4796 81.6654 20.113 81.9834 19.808C82.3079 19.503 82.694 19.3505 83.1417 19.3505C83.5895 19.3505 83.9723 19.503 84.2903 19.808C84.6148 20.113 84.777 20.4796 84.777 20.9079C84.777 21.3362 84.6148 21.7028 84.2903 22.0078C83.9723 22.3128 83.5895 22.4653 83.1417 22.4653ZM98.9315 28.3056L96.868 28.8896C96.7382 28.5457 96.5468 28.2115 96.2937 27.887C96.0471 27.5561 95.7097 27.2835 95.2814 27.0694C94.8531 26.8552 94.3047 26.7482 93.6364 26.7482C92.7214 26.7482 91.9589 26.9591 91.3489 27.3809C90.7454 27.7962 90.4437 28.325 90.4437 28.9675C90.4437 29.5385 90.6513 29.9895 91.0667 30.3205C91.482 30.6514 92.1309 30.9272 93.0134 31.1478L95.2327 31.6929C96.5695 32.0174 97.5656 32.5138 98.221 33.1822C98.8764 33.8441 99.2041 34.6974 99.2041 35.7422C99.2041 36.5987 98.9575 37.3644 98.4643 38.0393C97.9776 38.7142 97.2963 39.2463 96.4202 39.6357C95.5442 40.025 94.5254 40.2197 93.3638 40.2197C91.8389 40.2197 90.5767 39.8887 89.5774 39.2268C88.5781 38.5649 87.9454 37.5981 87.6793 36.3262L89.8597 35.7811C90.0673 36.5857 90.4599 37.1892 91.0375 37.5916C91.6215 37.9939 92.384 38.1951 93.3249 38.1951C94.3956 38.1951 95.2457 37.9679 95.8751 37.5137C96.5111 37.053 96.829 36.5014 96.829 35.859C96.829 35.3398 96.6473 34.9051 96.2839 34.5546C95.9206 34.1977 95.3625 33.9317 94.6097 33.7565L92.1179 33.1724C90.7487 32.848 89.7429 32.3451 89.1004 31.6637C88.4645 30.9759 88.1465 30.116 88.1465 29.0843C88.1465 28.2407 88.3834 27.4944 88.8571 26.8455C89.3373 26.1966 89.9895 25.6872 90.8136 25.3173C91.6442 24.9474 92.5851 24.7625 93.6364 24.7625C95.1159 24.7625 96.2775 25.0869 97.121 25.7359C97.9711 26.3848 98.5746 27.2413 98.9315 28.3056ZM102.525 39.9082V24.9572H104.822V39.9082H102.525ZM103.693 22.4653C103.245 22.4653 102.859 22.3128 102.535 22.0078C102.217 21.7028 102.058 21.3362 102.058 20.9079C102.058 20.4796 102.217 20.113 102.535 19.808C102.859 19.503 103.245 19.3505 103.693 19.3505C104.141 19.3505 104.524 19.503 104.842 19.808C105.166 20.113 105.328 20.4796 105.328 20.9079C105.328 21.3362 105.166 21.7028 104.842 22.0078C104.524 22.3128 104.141 22.4653 103.693 22.4653ZM114.966 40.2197C113.617 40.2197 112.432 39.8985 111.414 39.256C110.401 38.6136 109.61 37.7149 109.038 36.5598C108.474 35.4047 108.192 34.055 108.192 32.5106C108.192 30.9532 108.474 29.5937 109.038 28.4321C109.61 27.2705 110.401 26.3686 111.414 25.7261C112.432 25.0837 113.617 24.7625 114.966 24.7625C116.316 24.7625 117.497 25.0837 118.509 25.7261C119.528 26.3686 120.32 27.2705 120.884 28.4321C121.455 29.5937 121.741 30.9532 121.741 32.5106C121.741 34.055 121.455 35.4047 120.884 36.5598C120.32 37.7149 119.528 38.6136 118.509 39.256C117.497 39.8985 116.316 40.2197 114.966 40.2197ZM114.966 38.1561C115.992 38.1561 116.835 37.8933 117.497 37.3677C118.159 36.8421 118.649 36.151 118.967 35.2944C119.285 34.4378 119.444 33.5099 119.444 32.5106C119.444 31.5112 119.285 30.58 118.967 29.717C118.649 28.8539 118.159 28.1563 117.497 27.6242C116.835 27.0921 115.992 26.826 114.966 26.826C113.941 26.826 113.097 27.0921 112.436 27.6242C111.774 28.1563 111.284 28.8539 110.966 29.717C110.648 30.58 110.489 31.5112 110.489 32.5106C110.489 33.5099 110.648 34.4378 110.966 35.2944C111.284 36.151 111.774 36.8421 112.436 37.3677C113.097 37.8933 113.941 38.1561 114.966 38.1561ZM127.408 30.9142V39.9082H125.111V24.9572H127.33V27.2933H127.525C127.875 26.534 128.407 25.924 129.121 25.4633C129.835 24.9961 130.756 24.7625 131.885 24.7625C132.898 24.7625 133.783 24.9701 134.543 25.3854C135.302 25.7943 135.892 26.4172 136.314 27.2543C136.736 28.0849 136.947 29.1362 136.947 30.4081V39.9082H134.65V30.5638C134.65 29.3893 134.345 28.4743 133.735 27.8189C133.125 27.157 132.288 26.826 131.223 26.826C130.49 26.826 129.835 26.985 129.257 27.303C128.686 27.621 128.235 28.0849 127.904 28.6949C127.573 29.3049 127.408 30.0447 127.408 30.9142ZM142.682 40.0639C142.201 40.0639 141.789 39.892 141.445 39.5481C141.102 39.2041 140.93 38.7921 140.93 38.3119C140.93 37.8317 141.102 37.4196 141.445 37.0757C141.789 36.7318 142.201 36.5598 142.682 36.5598C143.162 36.5598 143.574 36.7318 143.918 37.0757C144.262 37.4196 144.434 37.8317 144.434 38.3119C144.434 38.6298 144.353 38.9218 144.19 39.1879C144.035 39.454 143.824 39.6681 143.558 39.8303C143.298 39.9861 143.006 40.0639 142.682 40.0639ZM142.682 28.9675C142.201 28.9675 141.789 28.7955 141.445 28.4516C141.102 28.1077 140.93 27.6956 140.93 27.2154C140.93 26.7352 141.102 26.3231 141.445 25.9792C141.789 25.6353 142.201 25.4633 142.682 25.4633C143.162 25.4633 143.574 25.6353 143.918 25.9792C144.262 26.3231 144.434 26.7352 144.434 27.2154C144.434 27.5334 144.353 27.8254 144.19 28.0914C144.035 28.3575 143.824 28.5716 143.558 28.7339C143.298 28.8896 143.006 28.9675 142.682 28.9675ZM167.944 24.6846L167.282 26.9428H154.667L155.329 24.6846H167.944ZM162.026 39.9082L154.901 31.1868L154.862 29.5515H158.405C159.326 29.5515 160.112 29.4217 160.761 29.1621C161.409 28.8961 161.906 28.5002 162.25 27.9746C162.594 27.4425 162.766 26.7741 162.766 25.9695C162.766 24.782 162.409 23.8508 161.695 23.1759C160.981 22.4945 159.884 22.1538 158.405 22.1538H154.667L155.329 19.9735H158.405C159.988 19.9735 161.286 20.2363 162.298 20.7619C163.317 21.281 164.07 21.9949 164.557 22.9033C165.05 23.8053 165.296 24.8274 165.296 25.9695C165.296 27.0012 165.069 27.9519 164.615 28.8215C164.167 29.6845 163.447 30.3789 162.454 30.9045C161.468 31.4301 160.164 31.6929 158.541 31.6929H158.483L165.063 39.7525V39.9082H162.026ZM167.944 19.9735L167.282 22.2317L157.354 22.1538L158.016 19.9735H167.944ZM170.15 35.82V33.8343L178.911 19.9735H180.351V23.0493H179.378L172.759 33.5229V33.6786H184.556V35.82H170.15ZM179.534 39.9082V35.2165V34.2918V19.9735H181.831V39.9082H179.534ZM194.413 19.7009C195.231 19.7074 196.049 19.8632 196.866 20.1682C197.684 20.4731 198.43 20.9793 199.105 21.6866C199.78 22.3874 200.322 23.3446 200.731 24.5581C201.139 25.7715 201.344 27.2933 201.344 29.1232C201.344 30.8947 201.175 32.4684 200.838 33.8441C200.507 35.2133 200.027 36.3684 199.397 37.3093C198.774 38.2502 198.015 38.964 197.119 39.4507C196.23 39.9374 195.225 40.1807 194.102 40.1807C192.986 40.1807 191.99 39.9601 191.114 39.5189C190.244 39.0711 189.53 38.4514 188.972 37.6597C188.421 36.8615 188.067 35.9368 187.911 34.8856H190.286C190.5 35.8006 190.925 36.5565 191.561 37.1536C192.204 37.7441 193.051 38.0393 194.102 38.0393C195.64 38.0393 196.853 37.3677 197.742 36.0244C198.638 34.6812 199.086 32.7831 199.086 30.3302H198.93C198.566 30.8753 198.135 31.3457 197.635 31.7416C197.136 32.1374 196.581 32.4424 195.971 32.6566C195.361 32.8707 194.712 32.9778 194.024 32.9778C192.882 32.9778 191.834 32.6955 190.88 32.1309C189.933 31.5599 189.173 30.7779 188.602 29.7851C188.038 28.7858 187.756 27.6437 187.756 26.3588C187.756 25.1389 188.028 24.0227 188.573 23.0104C189.125 21.9916 189.897 21.1805 190.89 20.577C191.889 19.9735 193.064 19.6815 194.413 19.7009ZM194.413 21.8424C193.596 21.8424 192.859 22.0468 192.204 22.4556C191.555 22.8579 191.039 23.403 190.656 24.0909C190.28 24.7722 190.092 25.5282 190.092 26.3588C190.092 27.1894 190.273 27.9454 190.637 28.6268C191.007 29.3017 191.51 29.8403 192.145 30.2426C192.788 30.6384 193.518 30.8363 194.336 30.8363C194.952 30.8363 195.526 30.7163 196.058 30.4762C196.591 30.2296 197.055 29.8954 197.45 29.4736C197.853 29.0453 198.167 28.5619 198.395 28.0233C198.622 27.4782 198.735 26.9104 198.735 26.3199C198.735 25.5412 198.547 24.8112 198.171 24.1298C197.801 23.4484 197.288 22.8968 196.633 22.4751C195.984 22.0533 195.244 21.8424 194.413 21.8424ZM211.381 19.7009C212.199 19.7074 213.016 19.8632 213.834 20.1682C214.652 20.4731 215.398 20.9793 216.073 21.6866C216.748 22.3874 217.289 23.3446 217.698 24.5581C218.107 25.7715 218.311 27.2933 218.311 29.1232C218.311 30.8947 218.143 32.4684 217.805 33.8441C217.474 35.2133 216.994 36.3684 216.365 37.3093C215.742 38.2502 214.982 38.964 214.087 39.4507C213.198 39.9374 212.192 40.1807 211.07 40.1807C209.953 40.1807 208.957 39.9601 208.081 39.5189C207.212 39.0711 206.498 38.4514 205.94 37.6597C205.388 36.8615 205.035 35.9368 204.879 34.8856H207.254C207.468 35.8006 207.893 36.5565 208.529 37.1536C209.171 37.7441 210.018 38.0393 211.07 38.0393C212.607 38.0393 213.821 37.3677 214.71 36.0244C215.605 34.6812 216.053 32.7831 216.053 30.3302H215.897C215.534 30.8753 215.103 31.3457 214.603 31.7416C214.103 32.1374 213.548 32.4424 212.938 32.6566C212.328 32.8707 211.68 32.9778 210.992 32.9778C209.85 32.9778 208.802 32.6955 207.848 32.1309C206.9 31.5599 206.141 30.7779 205.57 29.7851C205.005 28.7858 204.723 27.6437 204.723 26.3588C204.723 25.1389 204.996 24.0227 205.541 23.0104C206.092 21.9916 206.865 21.1805 207.857 20.577C208.857 19.9735 210.031 19.6815 211.381 19.7009ZM211.381 21.8424C210.563 21.8424 209.827 22.0468 209.171 22.4556C208.523 22.8579 208.007 23.403 207.624 24.0909C207.247 24.7722 207.059 25.5282 207.059 26.3588C207.059 27.1894 207.241 27.9454 207.604 28.6268C207.974 29.3017 208.477 29.8403 209.113 30.2426C209.755 30.6384 210.485 30.8363 211.303 30.8363C211.92 30.8363 212.494 30.7163 213.026 30.4762C213.558 30.2296 214.022 29.8954 214.418 29.4736C214.82 29.0453 215.135 28.5619 215.362 28.0233C215.589 27.4782 215.703 26.9104 215.703 26.3199C215.703 25.5412 215.515 24.8112 215.138 24.1298C214.768 23.4484 214.256 22.8968 213.6 22.4751C212.951 22.0533 212.212 21.8424 211.381 21.8424ZM229.925 39.9082V19.9735H232.222V27.3322H232.417C232.585 27.0726 232.819 26.7417 233.117 26.3394C233.422 25.9305 233.857 25.5671 234.422 25.2492C234.993 24.9247 235.765 24.7625 236.738 24.7625C237.997 24.7625 239.107 25.0772 240.067 25.7067C241.028 26.3361 241.777 27.2284 242.316 28.3834C242.854 29.5385 243.124 30.9012 243.124 32.4716C243.124 34.055 242.854 35.4274 242.316 36.589C241.777 37.7441 241.031 38.6396 240.077 39.2755C239.123 39.905 238.023 40.2197 236.777 40.2197C235.817 40.2197 235.048 40.0607 234.47 39.7427C233.893 39.4183 233.448 39.0516 233.137 38.6428C232.825 38.2275 232.585 37.8836 232.417 37.611H232.144V39.9082H229.925ZM232.183 32.4327C232.183 33.5618 232.348 34.5579 232.679 35.4209C233.01 36.2775 233.494 36.9491 234.13 37.4358C234.766 37.916 235.544 38.1561 236.466 38.1561C237.426 38.1561 238.228 37.9031 238.87 37.3969C239.519 36.8843 240.006 36.1964 240.33 35.3333C240.661 34.4638 240.826 33.4969 240.826 32.4327C240.826 31.3814 240.664 30.434 240.34 29.5904C240.022 28.7403 239.538 28.0687 238.889 27.5755C238.247 27.0759 237.439 26.826 236.466 26.826C235.531 26.826 234.746 27.0629 234.11 27.5366C233.474 28.0038 232.994 28.6592 232.67 29.5028C232.345 30.3399 232.183 31.3165 232.183 32.4327ZM250.9 40.2586C249.953 40.2586 249.093 40.0802 248.321 39.7233C247.548 39.3599 246.935 38.8375 246.481 38.1561C246.027 37.4683 245.8 36.6377 245.8 35.6643C245.8 34.8077 245.968 34.1134 246.306 33.5813C246.643 33.0427 247.094 32.6209 247.659 32.3159C248.223 32.0109 248.846 31.7838 249.528 31.6345C250.216 31.4788 250.907 31.3555 251.601 31.2646C252.509 31.1478 253.246 31.0602 253.811 31.0018C254.382 30.9369 254.797 30.8299 255.056 30.6806C255.322 30.5314 255.456 30.2718 255.456 29.9019V29.824C255.456 28.8636 255.193 28.1174 254.667 27.5853C254.148 27.0532 253.36 26.7871 252.302 26.7871C251.205 26.7871 250.345 27.0272 249.722 27.5074C249.099 27.9876 248.661 28.5002 248.408 29.0453L246.228 28.2666C246.617 27.3582 247.136 26.6508 247.785 26.1447C248.441 25.632 249.155 25.2751 249.927 25.074C250.705 24.8663 251.471 24.7625 252.224 24.7625C252.704 24.7625 253.256 24.8209 253.879 24.9377C254.508 25.048 255.115 25.2784 255.699 25.6288C256.289 25.9792 256.779 26.5081 257.169 27.2154C257.558 27.9227 257.753 28.8701 257.753 30.0576V39.9082H255.456V37.8836H255.339C255.183 38.208 254.923 38.5552 254.56 38.9251C254.197 39.295 253.713 39.6097 253.11 39.8693C252.506 40.1288 251.77 40.2586 250.9 40.2586ZM251.251 38.1951C252.159 38.1951 252.925 38.0166 253.548 37.6597C254.177 37.3028 254.651 36.8421 254.969 36.2775C255.293 35.713 255.456 35.1192 255.456 34.4962V32.3937C255.358 32.5106 255.144 32.6176 254.813 32.715C254.489 32.8058 254.112 32.8869 253.684 32.9583C253.262 33.0232 252.85 33.0816 252.448 33.1335C252.052 33.1789 251.731 33.2179 251.484 33.2503C250.887 33.3282 250.329 33.4547 249.81 33.6299C249.297 33.7987 248.882 34.055 248.564 34.3989C248.253 34.7363 248.097 35.1971 248.097 35.7811C248.097 36.5793 248.392 37.1828 248.983 37.5916C249.58 37.9939 250.336 38.1951 251.251 38.1951ZM272.399 28.3056L270.335 28.8896C270.205 28.5457 270.014 28.2115 269.761 27.887C269.514 27.5561 269.177 27.2835 268.749 27.0694C268.32 26.8552 267.772 26.7482 267.104 26.7482C266.189 26.7482 265.426 26.9591 264.816 27.3809C264.213 27.7962 263.911 28.325 263.911 28.9675C263.911 29.5385 264.119 29.9895 264.534 30.3205C264.949 30.6514 265.598 30.9272 266.481 31.1478L268.7 31.6929C270.037 32.0174 271.033 32.5138 271.688 33.1822C272.344 33.8441 272.671 34.6974 272.671 35.7422C272.671 36.5987 272.425 37.3644 271.932 38.0393C271.445 38.7142 270.764 39.2463 269.887 39.6357C269.011 40.025 267.993 40.2197 266.831 40.2197C265.306 40.2197 264.044 39.8887 263.045 39.2268C262.045 38.5649 261.413 37.5981 261.147 36.3262L263.327 35.7811C263.535 36.5857 263.927 37.1892 264.505 37.5916C265.089 37.9939 265.851 38.1951 266.792 38.1951C267.863 38.1951 268.713 37.9679 269.342 37.5137C269.978 37.053 270.296 36.5014 270.296 35.859C270.296 35.3398 270.115 34.9051 269.751 34.5546C269.388 34.1977 268.83 33.9317 268.077 33.7565L265.585 33.1724C264.216 32.848 263.21 32.3451 262.568 31.6637C261.932 30.9759 261.614 30.116 261.614 29.0843C261.614 28.2407 261.851 27.4944 262.324 26.8455C262.805 26.1966 263.457 25.6872 264.281 25.3173C265.111 24.9474 266.052 24.7625 267.104 24.7625C268.583 24.7625 269.745 25.0869 270.588 25.7359C271.438 26.3848 272.042 27.2413 272.399 28.3056ZM282.261 40.2197C280.82 40.2197 279.577 39.9017 278.533 39.2658C277.494 38.6233 276.693 37.7278 276.128 36.5793C275.57 35.4242 275.291 34.0809 275.291 32.5495C275.291 31.018 275.57 29.6683 276.128 28.5002C276.693 27.3257 277.478 26.4107 278.484 25.7553C279.496 25.0934 280.677 24.7625 282.027 24.7625C282.806 24.7625 283.575 24.8923 284.334 25.1518C285.093 25.4114 285.784 25.8332 286.407 26.4172C287.03 26.9948 287.527 27.7605 287.897 28.7144C288.266 29.6683 288.451 30.8428 288.451 32.238V33.2114H276.927V31.2257H286.115C286.115 30.3821 285.947 29.6294 285.609 28.9675C285.278 28.3056 284.804 27.7832 284.188 27.4003C283.578 27.0175 282.858 26.826 282.027 26.826C281.112 26.826 280.32 27.0532 279.652 27.5074C278.99 27.9552 278.481 28.5392 278.124 29.2595C277.767 29.9798 277.589 30.752 277.589 31.5761V32.8999C277.589 34.029 277.783 34.9862 278.173 35.7714C278.568 36.5501 279.117 37.1438 279.818 37.5526C280.518 37.955 281.333 38.1561 282.261 38.1561C282.864 38.1561 283.409 38.0718 283.896 37.903C284.389 37.7278 284.814 37.4683 285.171 37.1243C285.528 36.7739 285.804 36.3392 285.998 35.82L288.218 36.443C287.984 37.1957 287.592 37.8576 287.04 38.4287C286.488 38.9932 285.807 39.4345 284.996 39.7525C284.185 40.0639 283.273 40.2197 282.261 40.2197ZM31.4189 75.5148V54.9572H33.6382V57.3322H33.9107C34.0795 57.0726 34.3131 56.7417 34.6116 56.3394C34.9166 55.9305 35.3513 55.5671 35.9159 55.2492C36.4869 54.9247 37.2591 54.7625 38.2325 54.7625C39.4914 54.7625 40.6011 55.0772 41.5615 55.7067C42.5219 56.3361 43.2714 57.2284 43.81 58.3834C44.3486 59.5385 44.6179 60.9012 44.6179 62.4716C44.6179 64.055 44.3486 65.4274 43.81 66.589C43.2714 67.7441 42.5251 68.6396 41.5712 69.2755C40.6173 69.905 39.5174 70.2197 38.2715 70.2197C37.3111 70.2197 36.5421 70.0607 35.9646 69.7427C35.387 69.4183 34.9425 69.0516 34.631 68.6428C34.3196 68.2275 34.0795 67.8836 33.9107 67.611H33.7161V75.5148H31.4189ZM33.6771 62.4327C33.6771 63.5618 33.8426 64.5579 34.1735 65.4209C34.5045 66.2775 34.9879 66.9491 35.6239 67.4358C36.2598 67.916 37.0385 68.1561 37.96 68.1561C38.9204 68.1561 39.7218 67.9031 40.3642 67.3969C41.0131 66.8843 41.4998 66.1964 41.8243 65.3333C42.1552 64.4638 42.3207 63.4969 42.3207 62.4327C42.3207 61.3814 42.1585 60.434 41.834 59.5904C41.516 58.7403 41.0326 58.0687 40.3837 57.5755C39.7413 57.0759 38.9334 56.826 37.96 56.826C37.0255 56.826 36.2403 57.0629 35.6044 57.5366C34.9685 58.0038 34.4883 58.6592 34.1638 59.5028C33.8394 60.3399 33.6771 61.3165 33.6771 62.4327ZM50.2821 49.9735V69.9082H47.985V49.9735H50.2821ZM58.7522 70.2586C57.8047 70.2586 56.9449 70.0802 56.1727 69.7233C55.4005 69.3599 54.7873 68.8375 54.333 68.1561C53.8788 67.4683 53.6517 66.6377 53.6517 65.6643C53.6517 64.8077 53.8204 64.1134 54.1578 63.5813C54.4953 63.0427 54.9463 62.6209 55.5108 62.3159C56.0754 62.0109 56.6983 61.7838 57.3797 61.6345C58.0675 61.4788 58.7586 61.3555 59.453 61.2646C60.3615 61.1478 61.098 61.0602 61.6625 61.0018C62.2336 60.9369 62.6489 60.8299 62.9085 60.6806C63.1745 60.5314 63.3075 60.2718 63.3075 59.9019V59.824C63.3075 58.8636 63.0447 58.1174 62.5191 57.5853C62 57.0532 61.2115 56.7871 60.1538 56.7871C59.0571 56.7871 58.1973 57.0272 57.5744 57.5074C56.9514 57.9876 56.5134 58.5002 56.2603 59.0453L54.0799 58.2666C54.4693 57.3582 54.9884 56.6508 55.6373 56.1447C56.2928 55.632 57.0066 55.2751 57.7788 55.074C58.5575 54.8663 59.3232 54.7625 60.0759 54.7625C60.5561 54.7625 61.1077 54.8209 61.7307 54.9377C62.3601 55.048 62.9669 55.2784 63.5509 55.6288C64.1414 55.9792 64.6313 56.5081 65.0207 57.2154C65.41 57.9227 65.6047 58.8701 65.6047 60.0576V69.9082H63.3075V67.8836H63.1907C63.035 68.208 62.7754 68.5552 62.412 68.9251C62.0486 69.295 61.5652 69.6097 60.9617 69.8693C60.3582 70.1288 59.6217 70.2586 58.7522 70.2586ZM59.1026 68.1951C60.011 68.1951 60.7768 68.0166 61.3997 67.6597C62.0292 67.3028 62.5029 66.8421 62.8209 66.2775C63.1453 65.713 63.3075 65.1192 63.3075 64.4962V62.3937C63.2102 62.5106 62.9961 62.6176 62.6651 62.715C62.3407 62.8058 61.9643 62.8869 61.536 62.9583C61.1142 63.0232 60.7021 63.0816 60.2998 63.1335C59.904 63.1789 59.5828 63.2179 59.3362 63.2503C58.7392 63.3282 58.1811 63.4547 57.662 63.6299C57.1493 63.7987 56.734 64.055 56.4161 64.3989C56.1046 64.7363 55.9488 65.1971 55.9488 65.7811C55.9488 66.5793 56.2441 67.1828 56.8346 67.5916C57.4316 67.9939 58.1876 68.1951 59.1026 68.1951ZM71.9576 60.9142V69.9082H69.6605V54.9572H71.8798V57.2933H72.0744C72.4249 56.534 72.957 55.924 73.6708 55.4633C74.3846 54.9961 75.3061 54.7625 76.4352 54.7625C77.4475 54.7625 78.3332 54.9701 79.0925 55.3854C79.8517 55.7943 80.4422 56.4172 80.864 57.2543C81.2858 58.0849 81.4967 59.1362 81.4967 60.4081V69.9082H79.1996V60.5638C79.1996 59.3893 78.8946 58.4743 78.2846 57.8189C77.6746 57.157 76.8375 56.826 75.7733 56.826C75.04 56.826 74.3846 56.985 73.8071 57.303C73.236 57.621 72.785 58.0849 72.4541 58.6949C72.1231 59.3049 71.9576 60.0447 71.9576 60.9142ZM88.9836 67.1828L88.8279 68.234C88.7176 68.9738 88.5489 69.7654 88.3217 70.609C88.1011 71.4526 87.8707 72.2475 87.6306 72.9938C87.3905 73.7401 87.1926 74.3338 87.0369 74.7751H85.2848C85.3692 74.3598 85.4795 73.8114 85.6157 73.1301C85.752 72.4487 85.8883 71.6862 86.0246 70.8426C86.1673 70.0055 86.2841 69.149 86.375 68.2729L86.4918 67.1828H88.9836ZM106.749 70.2197C105.347 70.2197 104.14 69.8887 103.128 69.2268C102.115 68.5649 101.337 67.6532 100.792 66.4917C100.246 65.3301 99.9739 64.0031 99.9739 62.5106C99.9739 60.9921 100.253 59.6521 100.811 58.4905C101.376 57.3225 102.161 56.4107 103.167 55.7553C104.179 55.0934 105.36 54.7625 106.71 54.7625C107.761 54.7625 108.708 54.9572 109.552 55.3465C110.396 55.7359 111.087 56.2809 111.625 56.9818C112.164 57.6826 112.498 58.5002 112.628 59.4347H110.331C110.155 58.7533 109.766 58.1498 109.163 57.6242C108.566 57.0921 107.761 56.826 106.749 56.826C105.853 56.826 105.068 57.0596 104.393 57.5269C103.725 57.9876 103.202 58.6398 102.826 59.4834C102.456 60.3205 102.271 61.3036 102.271 62.4327C102.271 63.5878 102.453 64.5936 102.816 65.4501C103.186 66.3067 103.705 66.9719 104.374 67.4456C105.048 67.9193 105.84 68.1561 106.749 68.1561C107.346 68.1561 107.887 68.0523 108.374 67.8446C108.861 67.637 109.273 67.3385 109.61 66.9491C109.948 66.5598 110.188 66.0926 110.331 65.5475H112.628C112.498 66.43 112.177 67.2249 111.664 67.9323C111.158 68.6331 110.486 69.1911 109.649 69.6065C108.819 70.0153 107.852 70.2197 106.749 70.2197ZM121.923 70.2197C120.573 70.2197 119.389 69.8985 118.37 69.256C117.358 68.6136 116.566 67.7149 115.995 66.5598C115.43 65.4047 115.148 64.055 115.148 62.5106C115.148 60.9532 115.43 59.5937 115.995 58.4321C116.566 57.2705 117.358 56.3686 118.37 55.7261C119.389 55.0837 120.573 54.7625 121.923 54.7625C123.272 54.7625 124.454 55.0837 125.466 55.7261C126.485 56.3686 127.276 57.2705 127.841 58.4321C128.412 59.5937 128.697 60.9532 128.697 62.5106C128.697 64.055 128.412 65.4047 127.841 66.5598C127.276 67.7149 126.485 68.6136 125.466 69.256C124.454 69.8985 123.272 70.2197 121.923 70.2197ZM121.923 68.1561C122.948 68.1561 123.792 67.8933 124.454 67.3677C125.115 66.8421 125.605 66.151 125.923 65.2944C126.241 64.4378 126.4 63.5099 126.4 62.5106C126.4 61.5112 126.241 60.58 125.923 59.717C125.605 58.8539 125.115 58.1563 124.454 57.6242C123.792 57.0921 122.948 56.826 121.923 56.826C120.897 56.826 120.054 57.0921 119.392 57.6242C118.73 58.1563 118.24 58.8539 117.922 59.717C117.604 60.58 117.445 61.5112 117.445 62.5106C117.445 63.5099 117.604 64.4378 117.922 65.2944C118.24 66.151 118.73 66.8421 119.392 67.3677C120.054 67.8933 120.897 68.1561 121.923 68.1561ZM134.364 60.9142V69.9082H132.067V54.9572H134.286V57.2933H134.481C134.831 56.534 135.363 55.924 136.077 55.4633C136.791 54.9961 137.713 54.7625 138.842 54.7625C139.854 54.7625 140.74 54.9701 141.499 55.3854C142.258 55.7943 142.849 56.4172 143.271 57.2543C143.692 58.0849 143.903 59.1362 143.903 60.4081V69.9082H141.606V60.5638C141.606 59.3893 141.301 58.4743 140.691 57.8189C140.081 57.157 139.244 56.826 138.18 56.826C137.446 56.826 136.791 56.985 136.214 57.303C135.643 57.621 135.192 58.0849 134.861 58.6949C134.53 59.3049 134.364 60.0447 134.364 60.9142ZM154.622 54.9572V56.9039H146.562V54.9572H154.622ZM148.976 69.9082V52.8936C148.976 52.037 149.177 51.3232 149.58 50.7522C149.982 50.1811 150.504 49.7528 151.147 49.4673C151.789 49.1818 152.467 49.039 153.181 49.039C153.746 49.039 154.206 49.0845 154.563 49.1753C154.92 49.2662 155.186 49.3505 155.361 49.4284L154.7 51.4141C154.583 51.3751 154.421 51.3265 154.213 51.2681C154.012 51.2097 153.746 51.1805 153.415 51.1805C152.656 51.1805 152.107 51.3719 151.77 51.7548C151.439 52.1376 151.273 52.6989 151.273 53.4387V69.9082H148.976ZM157.704 69.9082V54.9572H160.001V69.9082H157.704ZM158.872 52.4653C158.424 52.4653 158.038 52.3128 157.714 52.0078C157.396 51.7028 157.237 51.3362 157.237 50.9079C157.237 50.4796 157.396 50.113 157.714 49.808C158.038 49.503 158.424 49.3505 158.872 49.3505C159.32 49.3505 159.703 49.503 160.021 49.808C160.345 50.113 160.507 50.4796 160.507 50.9079C160.507 51.3362 160.345 51.7028 160.021 52.0078C159.703 52.3128 159.32 52.4653 158.872 52.4653ZM164.072 69.9082V54.9572H166.291V57.2154H166.447C166.719 56.4756 167.212 55.8754 167.926 55.4146C168.64 54.9539 169.445 54.7235 170.34 54.7235C170.509 54.7235 170.72 54.7268 170.973 54.7333C171.226 54.7398 171.417 54.7495 171.547 54.7625V57.0986C171.469 57.0791 171.291 57.0499 171.012 57.011C170.739 56.9656 170.451 56.9428 170.146 56.9428C169.419 56.9428 168.77 57.0953 168.199 57.4003C167.634 57.6988 167.186 58.1141 166.856 58.6463C166.531 59.1719 166.369 59.7721 166.369 60.447V69.9082H164.072ZM174.133 69.9082V54.9572H176.352V57.2933H176.547C176.859 56.4951 177.361 55.8754 178.056 55.4341C178.75 54.9864 179.584 54.7625 180.557 54.7625C181.544 54.7625 182.365 54.9864 183.02 55.4341C183.682 55.8754 184.198 56.4951 184.568 57.2933H184.723C185.106 56.521 185.681 55.9078 186.446 55.4536C187.212 54.9928 188.13 54.7625 189.201 54.7625C190.538 54.7625 191.631 55.181 192.481 56.0181C193.331 56.8488 193.756 58.1433 193.756 59.9019V69.9082H191.459V59.9019C191.459 58.7987 191.157 58.0103 190.554 57.5366C189.95 57.0629 189.24 56.826 188.422 56.826C187.371 56.826 186.557 57.144 185.979 57.7799C185.402 58.4094 185.113 59.2076 185.113 60.1744V69.9082H182.777V59.6683C182.777 58.8182 182.501 58.1336 181.949 57.6145C181.398 57.0889 180.687 56.826 179.818 56.826C179.221 56.826 178.663 56.985 178.143 57.303C177.631 57.621 177.215 58.0622 176.898 58.6268C176.586 59.1849 176.43 59.8305 176.43 60.5638V69.9082H174.133ZM204.088 70.2197C202.647 70.2197 201.405 69.9017 200.36 69.2658C199.322 68.6233 198.52 67.7278 197.956 66.5793C197.398 65.4242 197.119 64.0809 197.119 62.5495C197.119 61.018 197.398 59.6683 197.956 58.5002C198.52 57.3257 199.305 56.4107 200.311 55.7553C201.324 55.0934 202.505 54.7625 203.854 54.7625C204.633 54.7625 205.402 54.8923 206.161 55.1518C206.92 55.4114 207.612 55.8332 208.235 56.4172C208.858 56.9948 209.354 57.7605 209.724 58.7144C210.094 59.6683 210.279 60.8428 210.279 62.238V63.2114H198.754V61.2257H207.943C207.943 60.3821 207.774 59.6294 207.436 58.9675C207.105 58.3056 206.632 57.7832 206.015 57.4003C205.405 57.0175 204.685 56.826 203.854 56.826C202.939 56.826 202.148 57.0532 201.479 57.5074C200.817 57.9552 200.308 58.5392 199.951 59.2595C199.594 59.9798 199.416 60.752 199.416 61.5761V62.8999C199.416 64.029 199.61 64.9862 200 65.7714C200.396 66.5501 200.944 67.1438 201.645 67.5526C202.346 67.955 203.16 68.1561 204.088 68.1561C204.691 68.1561 205.237 68.0718 205.723 67.903C206.216 67.7278 206.641 67.4683 206.998 67.1243C207.355 66.7739 207.631 66.3392 207.826 65.82L210.045 66.443C209.811 67.1957 209.419 67.8576 208.867 68.4287C208.316 68.9932 207.634 69.4345 206.823 69.7525C206.012 70.0639 205.1 70.2197 204.088 70.2197ZM219.282 70.2197C218.036 70.2197 216.936 69.905 215.982 69.2755C215.028 68.6396 214.282 67.7441 213.743 66.589C213.204 65.4274 212.935 64.055 212.935 62.4716C212.935 60.9012 213.204 59.5385 213.743 58.3834C214.282 57.2284 215.031 56.3361 215.992 55.7067C216.952 55.0772 218.062 54.7625 219.321 54.7625C220.294 54.7625 221.063 54.9247 221.627 55.2492C222.198 55.5671 222.633 55.9305 222.932 56.3394C223.237 56.7417 223.474 57.0726 223.642 57.3322H223.837V49.9735H226.134V69.9082H223.915V67.611H223.642C223.474 67.8836 223.233 68.2275 222.922 68.6428C222.611 69.0516 222.166 69.4183 221.588 69.7427C221.011 70.0607 220.242 70.2197 219.282 70.2197ZM219.593 68.1561C220.515 68.1561 221.293 67.916 221.929 67.4358C222.565 66.9491 223.049 66.2775 223.38 65.4209C223.71 64.5579 223.876 63.5618 223.876 62.4327C223.876 61.3165 223.714 60.3399 223.389 59.5028C223.065 58.6592 222.585 58.0038 221.949 57.5366C221.313 57.0629 220.528 56.826 219.593 56.826C218.62 56.826 217.809 57.0759 217.16 57.5755C216.517 58.0687 216.034 58.7403 215.709 59.5904C215.391 60.434 215.232 61.3814 215.232 62.4327C215.232 63.4969 215.395 64.4638 215.719 65.3333C216.05 66.1964 216.537 66.8843 217.179 67.3969C217.828 67.9031 218.633 68.1561 219.593 68.1561ZM238.095 69.9082V54.9572H240.393V69.9082H238.095ZM239.263 52.4653C238.816 52.4653 238.43 52.3128 238.105 52.0078C237.787 51.7028 237.628 51.3362 237.628 50.9079C237.628 50.4796 237.787 50.113 238.105 49.808C238.43 49.503 238.816 49.3505 239.263 49.3505C239.711 49.3505 240.094 49.503 240.412 49.808C240.736 50.113 240.899 50.4796 240.899 50.9079C240.899 51.3362 240.736 51.7028 240.412 52.0078C240.094 52.3128 239.711 52.4653 239.263 52.4653ZM246.76 60.9142V69.9082H244.463V54.9572H246.682V57.2933H246.877C247.227 56.534 247.759 55.924 248.473 55.4633C249.187 54.9961 250.108 54.7625 251.238 54.7625C252.25 54.7625 253.136 54.9701 253.895 55.3854C254.654 55.7943 255.245 56.4172 255.666 57.2543C256.088 58.0849 256.299 59.1362 256.299 60.4081V69.9082H254.002V60.5638C254.002 59.3893 253.697 58.4743 253.087 57.8189C252.477 57.157 251.64 56.826 250.576 56.826C249.842 56.826 249.187 56.985 248.609 57.303C248.038 57.621 247.587 58.0849 247.256 58.6949C246.926 59.3049 246.76 60.0447 246.76 60.9142ZM31.7304 99.9082V79.9735H38.4661C40.03 79.9735 41.3084 80.2558 42.3012 80.8203C43.3006 81.3784 44.0403 82.1344 44.5205 83.0883C45.0007 84.0422 45.2408 85.1064 45.2408 86.2809C45.2408 87.4555 45.0007 88.523 44.5205 89.4834C44.0468 90.4438 43.3135 91.2095 42.3207 91.7805C41.3279 92.3451 40.056 92.6274 38.5051 92.6274H33.6771V90.4859H38.4272C39.4979 90.4859 40.3577 90.301 41.0066 89.9311C41.6556 89.5612 42.126 89.0616 42.418 88.4321C42.7165 87.7962 42.8658 87.0791 42.8658 86.2809C42.8658 85.4828 42.7165 84.769 42.418 84.1395C42.126 83.5101 41.6523 83.0169 40.9969 82.66C40.3415 82.2966 39.472 82.1149 38.3883 82.1149H34.1443V99.9082H31.7304ZM48.6809 99.9082V84.9572H50.9002V87.2154H51.056C51.3285 86.4756 51.8217 85.8754 52.5355 85.4146C53.2493 84.9539 54.054 84.7235 54.9495 84.7235C55.1182 84.7235 55.3291 84.7268 55.5822 84.7333C55.8352 84.7398 56.0267 84.7495 56.1565 84.7625V87.0986C56.0786 87.0791 55.9001 87.0499 55.6211 87.011C55.3485 86.9656 55.0598 86.9428 54.7548 86.9428C54.028 86.9428 53.3791 87.0953 52.808 87.4003C52.2435 87.6988 51.7957 88.1141 51.4648 88.6463C51.1403 89.1719 50.9781 89.7721 50.9781 90.447V99.9082H48.6809ZM64.3612 100.22C63.0115 100.22 61.8272 99.8985 60.8084 99.256C59.7961 98.6136 59.0044 97.7149 58.4334 96.5598C57.8688 95.4047 57.5865 94.055 57.5865 92.5106C57.5865 90.9532 57.8688 89.5937 58.4334 88.4321C59.0044 87.2705 59.7961 86.3686 60.8084 85.7261C61.8272 85.0837 63.0115 84.7625 64.3612 84.7625C65.711 84.7625 66.892 85.0837 67.9043 85.7261C68.9231 86.3686 69.7148 87.2705 70.2793 88.4321C70.8504 89.5937 71.1359 90.9532 71.1359 92.5106C71.1359 94.055 70.8504 95.4047 70.2793 96.5598C69.7148 97.7149 68.9231 98.6136 67.9043 99.256C66.892 99.8985 65.711 100.22 64.3612 100.22ZM64.3612 98.1561C65.3865 98.1561 66.2301 97.8933 66.892 97.3677C67.5539 96.8421 68.0438 96.151 68.3618 95.2944C68.6798 94.4378 68.8388 93.5099 68.8388 92.5106C68.8388 91.5112 68.6798 90.58 68.3618 89.717C68.0438 88.8539 67.5539 88.1563 66.892 87.6242C66.2301 87.0921 65.3865 86.826 64.3612 86.826C63.3359 86.826 62.4923 87.0921 61.8304 87.6242C61.1686 88.1563 60.6786 88.8539 60.3607 89.717C60.0427 90.58 59.8837 91.5112 59.8837 92.5106C59.8837 93.5099 60.0427 94.4378 60.3607 95.2944C60.6786 96.151 61.1686 96.8421 61.8304 97.3677C62.4923 97.8933 63.3359 98.1561 64.3612 98.1561ZM80.151 100.22C78.9051 100.22 77.8052 99.905 76.8513 99.2755C75.8974 98.6396 75.1511 97.7441 74.6125 96.589C74.0739 95.4274 73.8046 94.055 73.8046 92.4716C73.8046 90.9012 74.0739 89.5385 74.6125 88.3834C75.1511 87.2284 75.9006 86.3361 76.861 85.7067C77.8214 85.0772 78.9311 84.7625 80.19 84.7625C81.1633 84.7625 81.9323 84.9247 82.4969 85.2492C83.0679 85.5671 83.5027 85.9305 83.8012 86.3394C84.1062 86.7417 84.343 87.0726 84.5118 87.3322H84.7064V79.9735H87.0036V99.9082H84.7843V97.611H84.5118C84.343 97.8836 84.1029 98.2275 83.7915 98.6428C83.48 99.0516 83.0355 99.4183 82.4579 99.7427C81.8804 100.061 81.1114 100.22 80.151 100.22ZM80.4625 98.1561C81.384 98.1561 82.1627 97.916 82.7986 97.4358C83.4345 96.9491 83.918 96.2775 84.2489 95.4209C84.5799 94.5579 84.7454 93.5618 84.7454 92.4327C84.7454 91.3165 84.5831 90.3399 84.2587 89.5028C83.9342 88.6592 83.454 88.0038 82.8181 87.5366C82.1821 87.0629 81.3969 86.826 80.4625 86.826C79.4891 86.826 78.678 87.0759 78.0291 87.5755C77.3866 88.0687 76.9032 88.7403 76.5787 89.5904C76.2608 90.434 76.1018 91.3814 76.1018 92.4327C76.1018 93.4969 76.264 94.4638 76.5885 95.3333C76.9194 96.1964 77.4061 96.8843 78.0485 97.3969C78.6975 97.9031 79.5021 98.1561 80.4625 98.1561ZM100.815 93.7954V84.9572H103.112V99.9082H100.815V97.3774H100.659C100.309 98.1367 99.7638 98.7823 99.024 99.3144C98.2842 99.8401 97.3498 100.103 96.2207 100.103C95.2862 100.103 94.4556 99.8985 93.7288 99.4897C93.002 99.0743 92.431 98.4514 92.0157 97.6208C91.6004 96.7837 91.3927 95.7292 91.3927 94.4573V84.9572H93.6899V94.3016C93.6899 95.3917 93.9949 96.2613 94.6049 96.9102C95.2213 97.5591 96.0065 97.8836 96.9604 97.8836C97.5315 97.8836 98.1123 97.7376 98.7028 97.4456C99.2998 97.1536 99.7994 96.7058 100.202 96.1023C100.611 95.4988 100.815 94.7298 100.815 93.7954ZM113.256 100.22C111.855 100.22 110.648 99.8887 109.635 99.2268C108.623 98.5649 107.844 97.6532 107.299 96.4917C106.754 95.3301 106.482 94.0031 106.482 92.5106C106.482 90.9921 106.761 89.6521 107.319 88.4905C107.883 87.3225 108.669 86.4107 109.674 85.7553C110.687 85.0934 111.868 84.7625 113.217 84.7625C114.269 84.7625 115.216 84.9572 116.06 85.3465C116.903 85.7359 117.594 86.2809 118.133 86.9818C118.672 87.6826 119.006 88.5002 119.136 89.4347H116.838C116.663 88.7533 116.274 88.1498 115.67 87.6242C115.073 87.0921 114.269 86.826 113.256 86.826C112.361 86.826 111.576 87.0596 110.901 87.5269C110.232 87.9876 109.71 88.6398 109.334 89.4834C108.964 90.3205 108.779 91.3036 108.779 92.4327C108.779 93.5878 108.961 94.5936 109.324 95.4501C109.694 96.3067 110.213 96.9719 110.881 97.4456C111.556 97.9193 112.348 98.1561 113.256 98.1561C113.853 98.1561 114.395 98.0523 114.882 97.8446C115.369 97.637 115.781 97.3385 116.118 96.9491C116.456 96.5598 116.696 96.0926 116.838 95.5475H119.136C119.006 96.43 118.685 97.2249 118.172 97.9323C117.666 98.6331 116.994 99.1911 116.157 99.6065C115.326 100.015 114.36 100.22 113.256 100.22ZM128.859 84.9572V86.9039H121.111V84.9572H128.859ZM123.369 81.3751H125.666V95.6254C125.666 96.2743 125.76 96.761 125.948 97.0854C126.143 97.4034 126.39 97.6175 126.688 97.7278C126.993 97.8317 127.314 97.8836 127.652 97.8836C127.905 97.8836 128.113 97.8706 128.275 97.8446C128.437 97.8122 128.567 97.7862 128.664 97.7668L129.131 99.8303C128.976 99.8887 128.758 99.9471 128.479 100.006C128.2 100.07 127.847 100.103 127.418 100.103C126.769 100.103 126.133 99.9634 125.51 99.6843C124.894 99.4053 124.381 98.9803 123.972 98.4092C123.57 97.8382 123.369 97.1179 123.369 96.2483V81.3751ZM150.963 84.9572C150.846 83.9708 150.372 83.2051 149.541 82.66C148.711 82.1149 147.692 81.8424 146.485 81.8424C145.603 81.8424 144.83 81.9851 144.168 82.2706C143.513 82.5562 143 82.9488 142.631 83.4484C142.267 83.9481 142.085 84.5159 142.085 85.1518C142.085 85.6839 142.212 86.1414 142.465 86.5243C142.725 86.9007 143.056 87.2154 143.458 87.4685C143.86 87.7151 144.282 87.9195 144.723 88.0817C145.165 88.2374 145.57 88.364 145.94 88.4613L147.965 89.0064C148.484 89.1427 149.061 89.3309 149.697 89.571C150.34 89.8111 150.953 90.1388 151.537 90.5541C152.127 90.9629 152.614 91.4885 152.997 92.1309C153.38 92.7734 153.571 93.5618 153.571 94.4962C153.571 95.5734 153.289 96.5468 152.724 97.4164C152.166 98.2859 151.349 98.977 150.272 99.4897C149.201 100.002 147.9 100.259 146.368 100.259C144.941 100.259 143.704 100.028 142.66 99.5675C141.621 99.1068 140.804 98.4644 140.207 97.6402C139.616 96.8161 139.282 95.859 139.204 94.7688H141.696C141.761 95.5215 142.014 96.1445 142.455 96.6377C142.903 97.1243 143.468 97.4877 144.149 97.7278C144.837 97.9615 145.577 98.0783 146.368 98.0783C147.29 98.0783 148.117 97.929 148.85 97.6305C149.584 97.3255 150.164 96.9037 150.593 96.3651C151.021 95.82 151.235 95.1841 151.235 94.4573C151.235 93.7954 151.05 93.2568 150.68 92.8415C150.31 92.4262 149.824 92.0888 149.22 91.8292C148.617 91.5696 147.965 91.3425 147.264 91.1478L144.811 90.447C143.253 89.9992 142.021 89.3601 141.112 88.5294C140.204 87.6988 139.749 86.6119 139.749 85.2686C139.749 84.1525 140.051 83.1791 140.655 82.3485C141.265 81.5114 142.082 80.8625 143.107 80.4018C144.139 79.9345 145.291 79.7009 146.563 79.7009C147.848 79.7009 148.99 79.9313 149.989 80.392C150.989 80.8463 151.78 81.4692 152.364 82.2609C152.955 83.0526 153.266 83.9513 153.299 84.9572H150.963ZM158.571 105.515C158.182 105.515 157.835 105.482 157.53 105.418C157.225 105.359 157.014 105.301 156.897 105.242L157.481 103.218C158.039 103.36 158.532 103.412 158.961 103.373C159.389 103.334 159.768 103.143 160.099 102.799C160.437 102.462 160.745 101.913 161.024 101.154L161.452 99.9861L155.924 84.9572H158.415L162.543 96.8713H162.698L166.825 84.9572H169.317L162.971 102.089C162.685 102.861 162.332 103.5 161.91 104.006C161.488 104.519 160.998 104.898 160.44 105.145C159.889 105.392 159.266 105.515 158.571 105.515ZM174.509 90.9142V99.9082H172.212V84.9572H174.432V87.2933H174.626C174.977 86.534 175.509 85.924 176.223 85.4633C176.936 84.9961 177.858 84.7625 178.987 84.7625C179.999 84.7625 180.885 84.9701 181.644 85.3854C182.404 85.7943 182.994 86.4172 183.416 87.2543C183.838 88.0849 184.049 89.1362 184.049 90.4081V99.9082H181.751V90.5638C181.751 89.3893 181.446 88.4743 180.836 87.8189C180.226 87.157 179.389 86.826 178.325 86.826C177.592 86.826 176.936 86.985 176.359 87.303C175.788 87.621 175.337 88.0849 175.006 88.6949C174.675 89.3049 174.509 90.0447 174.509 90.9142ZM194.183 100.22C192.781 100.22 191.574 99.8887 190.562 99.2268C189.55 98.5649 188.771 97.6532 188.226 96.4917C187.681 95.3301 187.408 94.0031 187.408 92.5106C187.408 90.9921 187.687 89.6521 188.245 88.4905C188.81 87.3225 189.595 86.4107 190.601 85.7553C191.613 85.0934 192.794 84.7625 194.144 84.7625C195.195 84.7625 196.143 84.9572 196.986 85.3465C197.83 85.7359 198.521 86.2809 199.06 86.9818C199.598 87.6826 199.932 88.5002 200.062 89.4347H197.765C197.59 88.7533 197.2 88.1498 196.597 87.6242C196 87.0921 195.195 86.826 194.183 86.826C193.288 86.826 192.502 87.0596 191.827 87.5269C191.159 87.9876 190.637 88.6398 190.26 89.4834C189.89 90.3205 189.705 91.3036 189.705 92.4327C189.705 93.5878 189.887 94.5936 190.251 95.4501C190.62 96.3067 191.14 96.9719 191.808 97.4456C192.483 97.9193 193.275 98.1561 194.183 98.1561C194.78 98.1561 195.322 98.0523 195.809 97.8446C196.295 97.637 196.707 97.3385 197.045 96.9491C197.382 96.5598 197.622 96.0926 197.765 95.5475H200.062C199.932 96.43 199.611 97.2249 199.099 97.9323C198.592 98.6331 197.921 99.1911 197.084 99.6065C196.253 100.015 195.286 100.22 194.183 100.22ZM226.974 79.9735V99.9082H224.638L213.776 84.2563H213.581V99.9082H211.167V79.9735H213.503L224.405 95.6643H224.599V79.9735H226.974ZM237.43 100.22C236.08 100.22 234.896 99.8985 233.877 99.256C232.865 98.6136 232.073 97.7149 231.502 96.5598C230.938 95.4047 230.655 94.055 230.655 92.5106C230.655 90.9532 230.938 89.5937 231.502 88.4321C232.073 87.2705 232.865 86.3686 233.877 85.7261C234.896 85.0837 236.08 84.7625 237.43 84.7625C238.78 84.7625 239.961 85.0837 240.973 85.7261C241.992 86.3686 242.784 87.2705 243.348 88.4321C243.919 89.5937 244.205 90.9532 244.205 92.5106C244.205 94.055 243.919 95.4047 243.348 96.5598C242.784 97.7149 241.992 98.6136 240.973 99.256C239.961 99.8985 238.78 100.22 237.43 100.22ZM237.43 98.1561C238.455 98.1561 239.299 97.8933 239.961 97.3677C240.623 96.8421 241.113 96.151 241.431 95.2944C241.749 94.4378 241.908 93.5099 241.908 92.5106C241.908 91.5112 241.749 90.58 241.431 89.717C241.113 88.8539 240.623 88.1563 239.961 87.6242C239.299 87.0921 238.455 86.826 237.43 86.826C236.405 86.826 235.561 87.0921 234.899 87.6242C234.237 88.1563 233.748 88.8539 233.43 89.717C233.112 90.58 232.953 91.5112 232.953 92.5106C232.953 93.5099 233.112 94.4378 233.43 95.2944C233.748 96.151 234.237 96.8421 234.899 97.3677C235.561 97.8933 236.405 98.1561 237.43 98.1561ZM254.077 84.9572V86.9039H246.328V84.9572H254.077ZM248.587 81.3751H250.884V95.6254C250.884 96.2743 250.978 96.761 251.166 97.0854C251.361 97.4034 251.607 97.6175 251.906 97.7278C252.211 97.8317 252.532 97.8836 252.87 97.8836C253.123 97.8836 253.33 97.8706 253.493 97.8446C253.655 97.8122 253.785 97.7862 253.882 97.7668L254.349 99.8303C254.193 99.8887 253.976 99.9471 253.697 100.006C253.418 100.07 253.064 100.103 252.636 100.103C251.987 100.103 251.351 99.9634 250.728 99.6843C250.112 99.4053 249.599 98.9803 249.19 98.4092C248.788 97.8382 248.587 97.1179 248.587 96.2483V81.3751ZM263.503 100.22C262.062 100.22 260.82 99.9017 259.775 99.2658C258.737 98.6233 257.935 97.7278 257.371 96.5793C256.813 95.4242 256.534 94.0809 256.534 92.5495C256.534 91.018 256.813 89.6683 257.371 88.5002C257.935 87.3257 258.72 86.4107 259.726 85.7553C260.739 85.0934 261.92 84.7625 263.269 84.7625C264.048 84.7625 264.817 84.8923 265.576 85.1518C266.335 85.4114 267.027 85.8332 267.649 86.4172C268.272 86.9948 268.769 87.7605 269.139 88.7144C269.509 89.6683 269.694 90.8428 269.694 92.238V93.2114H258.169V91.2257H267.357C267.357 90.3821 267.189 89.6294 266.851 88.9675C266.52 88.3056 266.047 87.7832 265.43 87.4003C264.82 87.0175 264.1 86.826 263.269 86.826C262.354 86.826 261.563 87.0532 260.894 87.5074C260.232 87.9552 259.723 88.5392 259.366 89.2595C259.009 89.9798 258.831 90.752 258.831 91.5761V92.8999C258.831 94.029 259.025 94.9862 259.415 95.7714C259.811 96.5501 260.359 97.1438 261.06 97.5526C261.761 97.955 262.575 98.1561 263.503 98.1561C264.106 98.1561 264.651 98.0718 265.138 97.903C265.631 97.7278 266.056 97.4683 266.413 97.1243C266.77 96.7739 267.046 96.3392 267.241 95.82L269.46 96.443C269.226 97.1957 268.834 97.8576 268.282 98.4287C267.731 98.9932 267.049 99.4345 266.238 99.7525C265.427 100.064 264.515 100.22 263.503 100.22ZM283.641 88.3056L281.578 88.8896C281.448 88.5457 281.257 88.2115 281.003 87.887C280.757 87.5561 280.419 87.2835 279.991 87.0694C279.563 86.8552 279.014 86.7482 278.346 86.7482C277.431 86.7482 276.669 86.9591 276.059 87.3809C275.455 87.7962 275.153 88.325 275.153 88.9675C275.153 89.5385 275.361 89.9895 275.776 90.3205C276.192 90.6514 276.841 90.9272 277.723 91.1478L279.942 91.6929C281.279 92.0174 282.275 92.5138 282.931 93.1822C283.586 93.8441 283.914 94.6974 283.914 95.7422C283.914 96.5987 283.667 97.3644 283.174 98.0393C282.687 98.7142 282.006 99.2463 281.13 99.6357C280.254 100.025 279.235 100.22 278.074 100.22C276.549 100.22 275.286 99.8887 274.287 99.2268C273.288 98.5649 272.655 97.5981 272.389 96.3262L274.569 95.7811C274.777 96.5857 275.17 97.1892 275.747 97.5916C276.331 97.9939 277.094 98.1951 278.035 98.1951C279.105 98.1951 279.955 97.9679 280.585 97.5137C281.221 97.053 281.539 96.5014 281.539 95.859C281.539 95.3398 281.357 94.9051 280.994 94.5546C280.63 94.1977 280.072 93.9317 279.319 93.7565L276.828 93.1724C275.458 92.848 274.453 92.3451 273.81 91.6637C273.174 90.9759 272.856 90.116 272.856 89.0843C272.856 88.2407 273.093 87.4944 273.567 86.8455C274.047 86.1966 274.699 85.6872 275.523 85.3173C276.354 84.9474 277.295 84.7625 278.346 84.7625C279.826 84.7625 280.987 85.0869 281.831 85.7359C282.681 86.3848 283.284 87.2413 283.641 88.3056ZM288.909 100.064C288.429 100.064 288.017 99.892 287.673 99.5481C287.329 99.2041 287.157 98.7921 287.157 98.3119C287.157 97.8317 287.329 97.4196 287.673 97.0757C288.017 96.7318 288.429 96.5598 288.909 96.5598C289.389 96.5598 289.801 96.7318 290.145 97.0757C290.489 97.4196 290.661 97.8317 290.661 98.3119C290.661 98.6298 290.58 98.9218 290.418 99.1879C290.262 99.454 290.051 99.6681 289.785 99.8303C289.525 99.9861 289.233 100.064 288.909 100.064Z" fill="white"/>
<path d="M339.847 20.0555C339.847 9.20163 331.048 0.402832 320.194 0.402832V0.402832V28.8474H339.847V20.0555Z" fill="#26252A" stroke="#26252A" stroke-width="0.805851"/>
<rect width="19.6526" height="62.1214" transform="matrix(-1 0 0 1 339.847 28.8474)" fill="#26252A" stroke="#26252A" stroke-width="0.805851"/>
<path d="M339.847 99.7609C339.847 110.615 331.048 119.414 320.194 119.414V119.414V90.969H339.847V99.7609Z" fill="#26252A" stroke="#26252A" stroke-width="0.805851"/>
</svg>
