<svg width="341" height="60" viewBox="0 0 341 60" fill="none" xmlns="http://www.w3.org/2000/svg">
<path d="M0.402832 20.0556C0.402832 9.20175 9.20161 0.402954 20.0555 0.402954V0.402954V28.8475H0.402832V20.0556Z" fill="#278EFF" stroke="#278EFF" stroke-width="0.805851"/>
<rect x="0.402832" y="28.8475" width="19.6526" height="2.12144" fill="#278EFF" stroke="#278EFF" stroke-width="0.805851"/>
<path d="M0.402832 39.7611C0.402832 50.6149 9.20161 59.4137 20.0555 59.4137V59.4137V30.9691H0.402832V39.7611Z" fill="#278EFF" stroke="#278EFF" stroke-width="0.805851"/>
<rect x="20.0557" y="0.402954" width="290.877" height="59.0106" fill="#278EFF"/>
<rect x="20.0557" y="0.402954" width="290.877" height="59.0106" stroke="#278EFF" stroke-width="0.805851"/>
<path d="M26.0906 39.9082L20.6397 19.9735H23.0926L27.2586 36.2094H27.4533L31.6972 19.9735H34.4227L38.6666 36.2094H38.8613L43.0273 19.9735H45.4802L40.0293 39.9082H37.5375L33.1378 24.0227H32.9821L28.5824 39.9082H26.0906ZM50.3366 30.9142V39.9082H48.0394V19.9735H50.3366V27.2933H50.5313C50.8817 26.521 51.4073 25.9078 52.1081 25.4536C52.8155 24.9928 53.7564 24.7625 54.9309 24.7625C55.9497 24.7625 56.842 24.9669 57.6077 25.3757C58.3734 25.778 58.9672 26.3978 59.389 27.2349C59.8173 28.0655 60.0314 29.1232 60.0314 30.4081V39.9082H57.7342V30.5638C57.7342 29.3763 57.426 28.4581 56.8095 27.8091C56.1996 27.1537 55.3527 26.826 54.269 26.826C53.5163 26.826 52.8414 26.985 52.2444 27.303C51.6539 27.621 51.1867 28.0849 50.8427 28.6949C50.5053 29.3049 50.3366 30.0447 50.3366 30.9142ZM70.1708 40.2197C68.821 40.2197 67.6367 39.8985 66.6179 39.256C65.6056 38.6136 64.814 37.7149 64.2429 36.5598C63.6784 35.4047 63.3961 34.055 63.3961 32.5106C63.3961 30.9532 63.6784 29.5937 64.2429 28.4321C64.814 27.2705 65.6056 26.3686 66.6179 25.7261C67.6367 25.0837 68.821 24.7625 70.1708 24.7625C71.5205 24.7625 72.7015 25.0837 73.7139 25.7261C74.7327 26.3686 75.5243 27.2705 76.0889 28.4321C76.6599 29.5937 76.9455 30.9532 76.9455 32.5106C76.9455 34.055 76.6599 35.4047 76.0889 36.5598C75.5243 37.7149 74.7327 38.6136 73.7139 39.256C72.7015 39.8985 71.5205 40.2197 70.1708 40.2197ZM70.1708 38.1561C71.1961 38.1561 72.0396 37.8933 72.7015 37.3677C73.3634 36.8421 73.8534 36.151 74.1713 35.2944C74.4893 34.4378 74.6483 33.5099 74.6483 32.5106C74.6483 31.5112 74.4893 30.58 74.1713 29.717C73.8534 28.8539 73.3634 28.1563 72.7015 27.6242C72.0396 27.0921 71.1961 26.826 70.1708 26.826C69.1455 26.826 68.3019 27.0921 67.64 27.6242C66.9781 28.1563 66.4882 28.8539 66.1702 29.717C65.8522 30.58 65.6932 31.5112 65.6932 32.5106C65.6932 33.5099 65.8522 34.4378 66.1702 35.2944C66.4882 36.151 66.9781 36.8421 67.64 37.3677C68.3019 37.8933 69.1455 38.1561 70.1708 38.1561ZM92.2867 40.2586C91.3393 40.2586 90.4795 40.0802 89.7073 39.7233C88.9351 39.3599 88.3218 38.8375 87.8676 38.1561C87.4134 37.4683 87.1862 36.6377 87.1862 35.6643C87.1862 34.8077 87.355 34.1134 87.6924 33.5813C88.0298 33.0427 88.4808 32.6209 89.0454 32.3159C89.6099 32.0109 90.2329 31.7838 90.9143 31.6345C91.6021 31.4788 92.2932 31.3555 92.9876 31.2646C93.896 31.1478 94.6326 31.0602 95.1971 31.0018C95.7682 30.9369 96.1835 30.8299 96.443 30.6806C96.7091 30.5314 96.8421 30.2718 96.8421 29.9019V29.824C96.8421 28.8636 96.5793 28.1174 96.0537 27.5853C95.5346 27.0532 94.7461 26.7871 93.6884 26.7871C92.5917 26.7871 91.7319 27.0272 91.1089 27.5074C90.486 27.9876 90.048 28.5002 89.7949 29.0453L87.6145 28.2666C88.0039 27.3582 88.523 26.6508 89.1719 26.1447C89.8273 25.632 90.5411 25.2751 91.3134 25.074C92.0921 24.8663 92.8578 24.7625 93.6105 24.7625C94.0907 24.7625 94.6423 24.8209 95.2653 24.9377C95.8947 25.048 96.5014 25.2784 97.0855 25.6288C97.676 25.9792 98.1659 26.5081 98.5553 27.2154C98.9446 27.9227 99.1393 28.8701 99.1393 30.0576V39.9082H96.8421V37.8836H96.7253C96.5696 38.208 96.31 38.5552 95.9466 38.9251C95.5832 39.295 95.0998 39.6097 94.4963 39.8693C93.8928 40.1288 93.1563 40.2586 92.2867 40.2586ZM92.6371 38.1951C93.5456 38.1951 94.3114 38.0166 94.9343 37.6597C95.5638 37.3028 96.0375 36.8421 96.3554 36.2775C96.6799 35.713 96.8421 35.1192 96.8421 34.4962V32.3937C96.7448 32.5106 96.5306 32.6176 96.1997 32.715C95.8752 32.8058 95.4989 32.8869 95.0706 32.9583C94.6488 33.0232 94.2367 33.0816 93.8344 33.1335C93.4386 33.1789 93.1173 33.2179 92.8708 33.2503C92.2738 33.3282 91.7157 33.4547 91.1966 33.6299C90.6839 33.7987 90.2686 34.055 89.9506 34.3989C89.6392 34.7363 89.4834 35.1971 89.4834 35.7811C89.4834 36.5793 89.7787 37.1828 90.3692 37.5916C90.9662 37.9939 91.7222 38.1951 92.6371 38.1951ZM103.195 45.5148V24.9572H105.414V27.3322H105.687C105.856 27.0726 106.089 26.7417 106.388 26.3394C106.693 25.9305 107.127 25.5671 107.692 25.2492C108.263 24.9247 109.035 24.7625 110.009 24.7625C111.268 24.7625 112.377 25.0772 113.338 25.7067C114.298 26.3361 115.048 27.2284 115.586 28.3834C116.125 29.5385 116.394 30.9012 116.394 32.4716C116.394 34.055 116.125 35.4274 115.586 36.589C115.048 37.7441 114.301 38.6396 113.347 39.2755C112.393 39.905 111.294 40.2197 110.048 40.2197C109.087 40.2197 108.318 40.0607 107.741 39.7427C107.163 39.4183 106.719 39.0516 106.407 38.6428C106.096 38.2275 105.856 37.8836 105.687 37.611H105.492V45.5148H103.195ZM105.453 32.4327C105.453 33.5618 105.619 34.5579 105.95 35.4209C106.281 36.2775 106.764 36.9491 107.4 37.4358C108.036 37.916 108.815 38.1561 109.736 38.1561C110.697 38.1561 111.498 37.9031 112.14 37.3969C112.789 36.8843 113.276 36.1964 113.6 35.3333C113.931 34.4638 114.097 33.4969 114.097 32.4327C114.097 31.3814 113.935 30.434 113.61 29.5904C113.292 28.7403 112.809 28.0687 112.16 27.5755C111.517 27.0759 110.71 26.826 109.736 26.826C108.802 26.826 108.017 27.0629 107.381 27.5366C106.745 28.0038 106.264 28.6592 105.94 29.5028C105.616 30.3399 105.453 31.3165 105.453 32.4327ZM119.761 45.5148V24.9572H121.98V27.3322H122.253C122.422 27.0726 122.655 26.7417 122.954 26.3394C123.259 25.9305 123.694 25.5671 124.258 25.2492C124.829 24.9247 125.601 24.7625 126.575 24.7625C127.834 24.7625 128.943 25.0772 129.904 25.7067C130.864 26.3361 131.614 27.2284 132.152 28.3834C132.691 29.5385 132.96 30.9012 132.96 32.4716C132.96 34.055 132.691 35.4274 132.152 36.589C131.614 37.7441 130.867 38.6396 129.913 39.2755C128.96 39.905 127.86 40.2197 126.614 40.2197C125.653 40.2197 124.884 40.0607 124.307 39.7427C123.729 39.4183 123.285 39.0516 122.973 38.6428C122.662 38.2275 122.422 37.8836 122.253 37.611H122.058V45.5148H119.761ZM122.019 32.4327C122.019 33.5618 122.185 34.5579 122.516 35.4209C122.847 36.2775 123.33 36.9491 123.966 37.4358C124.602 37.916 125.381 38.1561 126.302 38.1561C127.263 38.1561 128.064 37.9031 128.706 37.3969C129.355 36.8843 129.842 36.1964 130.167 35.3333C130.497 34.4638 130.663 33.4969 130.663 32.4327C130.663 31.3814 130.501 30.434 130.176 29.5904C129.858 28.7403 129.375 28.0687 128.726 27.5755C128.083 27.0759 127.276 26.826 126.302 26.826C125.368 26.826 124.583 27.0629 123.947 27.5366C123.311 28.0038 122.83 28.6592 122.506 29.5028C122.182 30.3399 122.019 31.3165 122.019 32.4327ZM136.327 39.9082V24.9572H138.546V27.2154H138.702C138.975 26.4756 139.468 25.8754 140.182 25.4146C140.896 24.9539 141.7 24.7235 142.596 24.7235C142.764 24.7235 142.975 24.7268 143.228 24.7333C143.482 24.7398 143.673 24.7495 143.803 24.7625V27.0986C143.725 27.0791 143.546 27.0499 143.267 27.011C142.995 26.9656 142.706 26.9428 142.401 26.9428C141.674 26.9428 141.025 27.0953 140.454 27.4003C139.89 27.6988 139.442 28.1141 139.111 28.6463C138.787 29.1719 138.624 29.7721 138.624 30.447V39.9082H136.327ZM152.007 40.2197C150.658 40.2197 149.473 39.8985 148.455 39.256C147.442 38.6136 146.651 37.7149 146.08 36.5598C145.515 35.4047 145.233 34.055 145.233 32.5106C145.233 30.9532 145.515 29.5937 146.08 28.4321C146.651 27.2705 147.442 26.3686 148.455 25.7261C149.473 25.0837 150.658 24.7625 152.007 24.7625C153.357 24.7625 154.538 25.0837 155.551 25.7261C156.569 26.3686 157.361 27.2705 157.926 28.4321C158.497 29.5937 158.782 30.9532 158.782 32.5106C158.782 34.055 158.497 35.4047 157.926 36.5598C157.361 37.7149 156.569 38.6136 155.551 39.256C154.538 39.8985 153.357 40.2197 152.007 40.2197ZM152.007 38.1561C153.033 38.1561 153.876 37.8933 154.538 37.3677C155.2 36.8421 155.69 36.151 156.008 35.2944C156.326 34.4378 156.485 33.5099 156.485 32.5106C156.485 31.5112 156.326 30.58 156.008 29.717C155.69 28.8539 155.2 28.1563 154.538 27.6242C153.876 27.0921 153.033 26.826 152.007 26.826C150.982 26.826 150.139 27.0921 149.477 27.6242C148.815 28.1563 148.325 28.8539 148.007 29.717C147.689 30.58 147.53 31.5112 147.53 32.5106C147.53 33.5099 147.689 34.4378 148.007 35.2944C148.325 36.151 148.815 36.8421 149.477 37.3677C150.139 37.8933 150.982 38.1561 152.007 38.1561ZM173.842 24.9572L168.313 39.9082H165.977L160.448 24.9572H162.94L167.067 36.8713H167.223L171.35 24.9572H173.842ZM182.47 40.2197C181.03 40.2197 179.787 39.9017 178.742 39.2658C177.704 38.6233 176.902 37.7278 176.338 36.5793C175.78 35.4242 175.501 34.0809 175.501 32.5495C175.501 31.018 175.78 29.6683 176.338 28.5002C176.902 27.3257 177.688 26.4107 178.693 25.7553C179.706 25.0934 180.887 24.7625 182.237 24.7625C183.015 24.7625 183.784 24.8923 184.543 25.1518C185.303 25.4114 185.994 25.8332 186.617 26.4172C187.24 26.9948 187.736 27.7605 188.106 28.7144C188.476 29.6683 188.661 30.8428 188.661 32.238V33.2114H177.136V31.2257H186.325C186.325 30.3821 186.156 29.6294 185.819 28.9675C185.488 28.3056 185.014 27.7832 184.397 27.4003C183.787 27.0175 183.067 26.826 182.237 26.826C181.322 26.826 180.53 27.0532 179.862 27.5074C179.2 27.9552 178.69 28.5392 178.333 29.2595C177.976 29.9798 177.798 30.752 177.798 31.5761V32.8999C177.798 34.029 177.993 34.9862 178.382 35.7714C178.778 36.5501 179.326 37.1438 180.027 37.5526C180.728 37.955 181.542 38.1561 182.47 38.1561C183.074 38.1561 183.619 38.0718 184.105 37.903C184.599 37.7278 185.024 37.4683 185.381 37.1243C185.737 36.7739 186.013 36.3392 186.208 35.82L188.427 36.443C188.194 37.1957 187.801 37.8576 187.249 38.4287C186.698 38.9932 186.016 39.4345 185.205 39.7525C184.394 40.0639 183.482 40.2197 182.47 40.2197ZM197.664 40.2197C196.418 40.2197 195.318 39.905 194.364 39.2755C193.41 38.6396 192.664 37.7441 192.125 36.589C191.587 35.4274 191.317 34.055 191.317 32.4716C191.317 30.9012 191.587 29.5385 192.125 28.3834C192.664 27.2284 193.413 26.3361 194.374 25.7067C195.334 25.0772 196.444 24.7625 197.703 24.7625C198.676 24.7625 199.445 24.9247 200.01 25.2492C200.581 25.5671 201.015 25.9305 201.314 26.3394C201.619 26.7417 201.856 27.0726 202.024 27.3322H202.219V19.9735H204.516V39.9082H202.297V37.611H202.024C201.856 37.8836 201.616 38.2275 201.304 38.6428C200.993 39.0516 200.548 39.4183 199.971 39.7427C199.393 40.0607 198.624 40.2197 197.664 40.2197ZM197.975 38.1561C198.897 38.1561 199.675 37.916 200.311 37.4358C200.947 36.9491 201.431 36.2775 201.762 35.4209C202.093 34.5579 202.258 33.5618 202.258 32.4327C202.258 31.3165 202.096 30.3399 201.771 29.5028C201.447 28.6592 200.967 28.0038 200.331 27.5366C199.695 27.0629 198.91 26.826 197.975 26.826C197.002 26.826 196.191 27.0759 195.542 27.5755C194.899 28.0687 194.416 28.7403 194.091 29.5904C193.773 30.434 193.615 31.3814 193.615 32.4327C193.615 33.4969 193.777 34.4638 194.101 35.3333C194.432 36.1964 194.919 36.8843 195.561 37.3969C196.21 37.9031 197.015 38.1561 197.975 38.1561ZM222.98 24.9572V26.9039H215.232V24.9572H222.98ZM217.49 21.3751H219.787V35.6254C219.787 36.2743 219.881 36.761 220.069 37.0854C220.264 37.4034 220.511 37.6175 220.809 37.7278C221.114 37.8317 221.435 37.8836 221.773 37.8836C222.026 37.8836 222.233 37.8706 222.396 37.8446C222.558 37.8122 222.688 37.7862 222.785 37.7668L223.252 39.8303C223.096 39.8887 222.879 39.9471 222.6 40.0055C222.321 40.0704 221.967 40.1029 221.539 40.1029C220.89 40.1029 220.254 39.9634 219.631 39.6843C219.015 39.4053 218.502 38.9803 218.093 38.4092C217.691 37.8382 217.49 37.1179 217.49 36.2483V21.3751ZM228.917 30.9142V39.9082H226.619V19.9735H228.917V27.2933H229.111C229.462 26.521 229.987 25.9078 230.688 25.4536C231.395 24.9928 232.336 24.7625 233.511 24.7625C234.53 24.7625 235.422 24.9669 236.188 25.3757C236.953 25.778 237.547 26.3978 237.969 27.2349C238.397 28.0655 238.611 29.1232 238.611 30.4081V39.9082H236.314V30.5638C236.314 29.3763 236.006 28.4581 235.389 27.8091C234.779 27.1537 233.933 26.826 232.849 26.826C232.096 26.826 231.421 26.985 230.824 27.303C230.234 27.621 229.767 28.0849 229.423 28.6949C229.085 29.3049 228.917 30.0447 228.917 30.9142ZM242.677 39.9082V24.9572H244.974V39.9082H242.677ZM243.845 22.4653C243.397 22.4653 243.011 22.3128 242.687 22.0078C242.369 21.7028 242.21 21.3362 242.21 20.9079C242.21 20.4796 242.369 20.113 242.687 19.808C243.011 19.503 243.397 19.3505 243.845 19.3505C244.293 19.3505 244.675 19.503 244.993 19.808C245.318 20.113 245.48 20.4796 245.48 20.9079C245.48 21.3362 245.318 21.7028 244.993 22.0078C244.675 22.3128 244.293 22.4653 243.845 22.4653ZM259.635 28.3056L257.571 28.8896C257.441 28.5457 257.25 28.2115 256.997 27.887C256.75 27.5561 256.413 27.2835 255.985 27.0694C255.556 26.8552 255.008 26.7482 254.34 26.7482C253.425 26.7482 252.662 26.9591 252.052 27.3809C251.449 27.7962 251.147 28.325 251.147 28.9675C251.147 29.5385 251.354 29.9895 251.77 30.3205C252.185 30.6514 252.834 30.9272 253.717 31.1478L255.936 31.6929C257.273 32.0174 258.269 32.5138 258.924 33.1822C259.58 33.8441 259.907 34.6974 259.907 35.7422C259.907 36.5987 259.661 37.3644 259.167 38.0393C258.681 38.7142 257.999 39.2463 257.123 39.6357C256.247 40.025 255.229 40.2197 254.067 40.2197C252.542 40.2197 251.28 39.8887 250.281 39.2268C249.281 38.5649 248.649 37.5981 248.382 36.3262L250.563 35.7811C250.77 36.5857 251.163 37.1892 251.741 37.5916C252.325 37.9939 253.087 38.1951 254.028 38.1951C255.099 38.1951 255.949 37.9679 256.578 37.5137C257.214 37.053 257.532 36.5014 257.532 35.859C257.532 35.3398 257.35 34.9051 256.987 34.5546C256.624 34.1977 256.066 33.9317 255.313 33.7565L252.821 33.1724C251.452 32.848 250.446 32.3451 249.804 31.6637C249.168 30.9759 248.85 30.116 248.85 29.0843C248.85 28.2407 249.087 27.4944 249.56 26.8455C250.04 26.1966 250.693 25.6872 251.517 25.3173C252.347 24.9474 253.288 24.7625 254.34 24.7625C255.819 24.7625 256.981 25.0869 257.824 25.7359C258.674 26.3848 259.278 27.2413 259.635 28.3056ZM266.226 34.3016V34.1848C266.239 32.9453 266.369 31.959 266.615 31.2257C266.862 30.4924 267.212 29.8987 267.667 29.4444C268.121 28.9902 268.666 28.5716 269.302 28.1888C269.685 27.9552 270.029 27.6794 270.334 27.3614C270.639 27.0369 270.879 26.6638 271.054 26.242C271.236 25.8202 271.327 25.353 271.327 24.8404C271.327 24.2044 271.177 23.6528 270.879 23.1856C270.58 22.7184 270.181 22.3582 269.682 22.1052C269.182 21.8521 268.627 21.7256 268.017 21.7256C267.485 21.7256 266.972 21.8359 266.479 22.0565C265.986 22.2771 265.574 22.6243 265.243 23.098C264.912 23.5717 264.721 24.1914 264.669 24.9572H262.216C262.268 23.854 262.553 22.9098 263.072 22.1246C263.598 21.3394 264.289 20.7392 265.146 20.3239C266.009 19.9086 266.966 19.7009 268.017 19.7009C269.159 19.7009 270.152 19.9281 270.996 20.3823C271.846 20.8365 272.501 21.4595 272.962 22.2512C273.429 23.0429 273.663 23.9448 273.663 24.9572C273.663 25.671 273.552 26.3166 273.332 26.8942C273.118 27.4717 272.806 27.9876 272.397 28.4418C271.995 28.8961 271.508 29.2984 270.937 29.6488C270.366 30.0057 269.909 30.3821 269.565 30.7779C269.221 31.1673 268.971 31.6313 268.815 32.1699C268.66 32.7085 268.575 33.3801 268.562 34.1848V34.3016H266.226ZM267.472 40.0639C266.992 40.0639 266.58 39.892 266.236 39.5481C265.892 39.2041 265.72 38.7921 265.72 38.3119C265.72 37.8317 265.892 37.4196 266.236 37.0757C266.58 36.7318 266.992 36.5598 267.472 36.5598C267.952 36.5598 268.364 36.7318 268.708 37.0757C269.052 37.4196 269.224 37.8317 269.224 38.3119C269.224 38.6298 269.143 38.9218 268.981 39.1879C268.825 39.454 268.614 39.6681 268.348 39.8303C268.088 39.9861 267.796 40.0639 267.472 40.0639Z" fill="white"/>
<path d="M330.585 20.0556C330.585 9.20175 321.787 0.402954 310.933 0.402954V0.402954V28.8475H330.585V20.0556Z" fill="#278EFF" stroke="#278EFF" stroke-width="0.805851"/>
<rect width="19.6526" height="2.1217" transform="matrix(-1 0 0 1 330.585 28.8477)" fill="#278EFF" stroke="#278EFF" stroke-width="0.805851"/>
<path d="M310.933 30.9692V59.4136C315.692 59.4136 320.056 57.7211 323.457 54.9058C326.849 57.1658 332.288 59.3156 338.86 58.1206C337.05 57.3447 330.069 52.6904 330.327 43.3813C330.296 43.4236 330.262 43.463 330.229 43.5034C330.462 42.2919 330.586 41.0409 330.586 39.7612V30.9692H310.933Z" fill="#278EFF"/>
<path d="M310.933 30.9692H310.53V30.5663H310.933V30.9692ZM310.933 59.4136V59.8165H310.53V59.4136H310.933ZM323.457 54.9058L323.2 54.5954L323.431 54.4042L323.68 54.5704L323.457 54.9058ZM338.86 58.1206L339.019 57.7503L340.249 58.2776L338.932 58.517L338.86 58.1206ZM330.327 43.3813L330.001 43.1444L330.766 42.0928L330.73 43.3925L330.327 43.3813ZM330.229 43.5034L330.539 43.7597L329.833 43.4271L330.229 43.5034ZM330.586 39.7612H330.989V39.7612H330.586ZM330.586 30.9692V30.5663H330.989V30.9692H330.586ZM310.933 30.9692H311.336V59.4136H310.933H310.53V30.9692H310.933ZM310.933 59.4136V59.0106C315.595 59.0106 319.869 57.3532 323.2 54.5954L323.457 54.9058L323.714 55.2161C320.244 58.0891 315.79 59.8165 310.933 59.8165V59.4136ZM323.457 54.9058L323.68 54.5704C327.01 56.789 332.344 58.8958 338.788 57.7242L338.86 58.1206L338.932 58.517C332.232 59.7353 326.688 57.5427 323.234 55.2411L323.457 54.9058ZM338.86 58.1206L338.702 58.4909C337.735 58.0766 335.484 56.6779 333.503 54.2026C331.515 51.7174 329.792 48.1359 329.924 43.3702L330.327 43.3813L330.73 43.3925C330.604 47.9358 332.242 51.336 334.133 53.6992C336.031 56.0723 338.176 57.3888 339.019 57.7503L338.86 58.1206ZM330.327 43.3813L330.653 43.6183C330.613 43.6737 330.562 43.7323 330.539 43.7597L330.229 43.5034L329.918 43.2472C329.962 43.1938 329.98 43.1735 330.001 43.1444L330.327 43.3813ZM330.229 43.5034L329.833 43.4271C330.062 42.2403 330.183 41.0149 330.183 39.7612H330.586H330.989C330.989 41.067 330.862 42.3435 330.624 43.5797L330.229 43.5034ZM330.586 39.7612H330.183V30.9692H330.586H330.989V39.7612H330.586ZM330.586 30.9692V31.3722H310.933V30.9692V30.5663H330.586V30.9692Z" fill="#278EFF"/>
</svg>
