<svg width="341" height="120" viewBox="0 0 341 120" fill="none" xmlns="http://www.w3.org/2000/svg">
<path d="M9.66455 20.0555C9.66455 9.20163 18.4633 0.402832 29.3172 0.402832V0.402832V28.8474H9.66455V20.0555Z" fill="#26252A" stroke="#26252A" stroke-width="0.805851"/>
<rect x="9.66406" y="28.8477" width="19.6526" height="62.1217" fill="#26252A" stroke="#26252A" stroke-width="0.805851"/>
<path d="M29.3169 90.9692V119.414C24.5574 119.414 20.193 117.722 16.7925 114.907C13.4001 117.167 7.961 119.315 1.38916 118.121C3.19927 117.345 10.181 112.69 9.92236 103.381C9.95309 103.424 9.98772 103.463 10.021 103.503C9.78741 102.292 9.66456 101.041 9.66455 99.7612V90.9692H29.3169Z" fill="#26252A"/>
<path d="M29.3169 90.9692H29.7198V90.5663H29.3169V90.9692ZM29.3169 119.414V119.816H29.7198V119.414H29.3169ZM16.7925 114.907L17.0494 114.596L16.8185 114.405L16.5691 114.571L16.7925 114.907ZM1.38916 118.121L1.23044 117.75L4.59179e-05 118.278L1.31708 118.517L1.38916 118.121ZM9.92236 103.381L10.2482 103.144L9.48349 102.093L9.51959 103.393L9.92236 103.381ZM10.021 103.503L9.71005 103.76L10.4166 103.427L10.021 103.503ZM9.66455 99.7612L9.26163 99.7612L9.26163 99.7612L9.66455 99.7612ZM9.66455 90.9692V90.5663H9.26163V90.9692H9.66455ZM29.3169 90.9692H28.914V119.414H29.3169H29.7198V90.9692H29.3169ZM29.3169 119.414V119.011C24.6547 119.011 20.3803 117.354 17.0494 114.596L16.7925 114.907L16.5355 115.217C20.0057 118.09 24.4602 119.816 29.3169 119.816V119.414ZM16.7925 114.907L16.5691 114.571C13.2391 116.79 7.9047 118.896 1.46124 117.724L1.38916 118.121L1.31708 118.517C8.0173 119.735 13.5611 117.544 17.0159 115.242L16.7925 114.907ZM1.38916 118.121L1.54788 118.491C2.51466 118.077 4.76591 116.678 6.74616 114.203C8.73431 111.718 10.4575 108.136 10.3251 103.37L9.92236 103.381L9.51959 103.393C9.6458 107.936 8.00746 111.336 6.11689 113.699C4.21841 116.072 2.07377 117.389 1.23044 117.75L1.38916 118.121ZM9.92236 103.381L9.5965 103.618C9.63678 103.674 9.68752 103.732 9.71005 103.76L10.021 103.503L10.3319 103.247C10.2879 103.194 10.2694 103.173 10.2482 103.144L9.92236 103.381ZM10.021 103.503L10.4166 103.427C10.1879 102.241 10.0675 101.015 10.0675 99.7612L9.66455 99.7612L9.26163 99.7612C9.26163 101.067 9.38698 102.343 9.62536 103.58L10.021 103.503ZM9.66455 99.7612H10.0675V90.9692H9.66455H9.26163V99.7612H9.66455ZM9.66455 90.9692V91.3722H29.3169V90.9692V90.5663H9.66455V90.9692Z" fill="#26252A"/>
<rect x="29.3164" y="0.402832" width="290.877" height="119.011" fill="#26252A"/>
<rect x="29.3164" y="0.402832" width="290.877" height="119.011" stroke="#26252A" stroke-width="0.805851"/>
<path d="M45.3576 26.2031C45.1435 25.5477 44.8612 24.9604 44.5108 24.4413C44.1669 23.9156 43.7548 23.4679 43.2746 23.098C42.8009 22.7281 42.2623 22.4458 41.6588 22.2512C41.0553 22.0565 40.3934 21.9592 39.6731 21.9592C38.4921 21.9592 37.4181 22.2642 36.4512 22.8741C35.4844 23.4841 34.7154 24.3829 34.1443 25.5704C33.5733 26.7579 33.2878 28.2147 33.2878 29.9408C33.2878 31.667 33.5765 33.1238 34.1541 34.3113C34.7316 35.4988 35.5136 36.3976 36.4999 37.0075C37.4863 37.6175 38.5959 37.9225 39.8289 37.9225C40.971 37.9225 41.9768 37.6792 42.8463 37.1925C43.7224 36.6993 44.4037 36.005 44.8904 35.1095C45.3836 34.2075 45.6302 33.1465 45.6302 31.9265L46.3699 32.0823H40.3739V29.9408H47.9663V32.0823C47.9663 33.724 47.6159 35.1516 46.915 36.3651C46.2207 37.5786 45.2603 38.5195 44.0338 39.1879C42.8139 39.8498 41.4122 40.1807 39.8289 40.1807C38.0638 40.1807 36.5129 39.7654 35.1761 38.9348C33.8458 38.1042 32.8076 36.9232 32.0613 35.3917C31.3216 33.8603 30.9517 32.0433 30.9517 29.9408C30.9517 28.364 31.1626 26.9461 31.5844 25.6872C32.0127 24.4218 32.6161 23.3446 33.3948 22.4556C34.1735 21.5666 35.095 20.8852 36.1592 20.4115C37.2235 19.9378 38.3948 19.7009 39.6731 19.7009C40.7244 19.7009 41.7042 19.8599 42.6127 20.1779C43.5277 20.4894 44.3421 20.9339 45.0559 21.5114C45.7762 22.0825 46.3764 22.7671 46.8566 23.5652C47.3368 24.3569 47.6678 25.2362 47.8495 26.2031H45.3576ZM57.726 40.2197C56.3763 40.2197 55.192 39.8985 54.1732 39.256C53.1609 38.6136 52.3692 37.7149 51.7982 36.5598C51.2336 35.4047 50.9513 34.055 50.9513 32.5106C50.9513 30.9532 51.2336 29.5937 51.7982 28.4321C52.3692 27.2705 53.1609 26.3686 54.1732 25.7261C55.192 25.0837 56.3763 24.7625 57.726 24.7625C59.0758 24.7625 60.2568 25.0837 61.2691 25.7261C62.2879 26.3686 63.0796 27.2705 63.6441 28.4321C64.2152 29.5937 64.5007 30.9532 64.5007 32.5106C64.5007 34.055 64.2152 35.4047 63.6441 36.5598C63.0796 37.7149 62.2879 38.6136 61.2691 39.256C60.2568 39.8985 59.0758 40.2197 57.726 40.2197ZM57.726 38.1561C58.7513 38.1561 59.5949 37.8933 60.2568 37.3677C60.9187 36.8421 61.4086 36.151 61.7266 35.2944C62.0446 34.4378 62.2035 33.5099 62.2035 32.5106C62.2035 31.5112 62.0446 30.58 61.7266 29.717C61.4086 28.8539 60.9187 28.1563 60.2568 27.6242C59.5949 27.0921 58.7513 26.826 57.726 26.826C56.7007 26.826 55.8571 27.0921 55.1952 27.6242C54.5333 28.1563 54.0434 28.8539 53.7254 29.717C53.4075 30.58 53.2485 31.5112 53.2485 32.5106C53.2485 33.5099 53.4075 34.4378 53.7254 35.2944C54.0434 36.151 54.5333 36.8421 55.1952 37.3677C55.8571 37.8933 56.7007 38.1561 57.726 38.1561ZM74.3724 24.9572V26.9039H66.6243V24.9572H74.3724ZM68.8826 21.3751H71.1797V35.6254C71.1797 36.2743 71.2738 36.761 71.462 37.0854C71.6567 37.4034 71.9033 37.6175 72.2018 37.7278C72.5068 37.8317 72.828 37.8836 73.1654 37.8836C73.4185 37.8836 73.6261 37.8706 73.7884 37.8446C73.9506 37.8122 74.0804 37.7862 74.1777 37.7668L74.6449 39.8303C74.4892 39.8887 74.2718 39.9471 73.9928 40.0055C73.7137 40.0704 73.3601 40.1029 72.9318 40.1029C72.2829 40.1029 71.6469 39.9634 71.024 39.6843C70.4075 39.4053 69.8949 38.9803 69.486 38.4092C69.0837 37.8382 68.8826 37.1179 68.8826 36.2483V21.3751ZM85.2629 39.9082V24.9572H87.5601V39.9082H85.2629ZM86.431 22.4653C85.9832 22.4653 85.5971 22.3128 85.2726 22.0078C84.9547 21.7028 84.7957 21.3362 84.7957 20.9079C84.7957 20.4796 84.9547 20.113 85.2726 19.808C85.5971 19.503 85.9832 19.3505 86.431 19.3505C86.8787 19.3505 87.2616 19.503 87.5795 19.808C87.904 20.113 88.0662 20.4796 88.0662 20.9079C88.0662 21.3362 87.904 21.7028 87.5795 22.0078C87.2616 22.3128 86.8787 22.4653 86.431 22.4653ZM98.1326 24.9572V26.9039H90.3845V24.9572H98.1326ZM92.6427 21.3751H94.9399V35.6254C94.9399 36.2743 95.034 36.761 95.2222 37.0854C95.4169 37.4034 95.6635 37.6175 95.962 37.7278C96.2669 37.8317 96.5882 37.8836 96.9256 37.8836C97.1787 37.8836 97.3863 37.8706 97.5486 37.8446C97.7108 37.8122 97.8406 37.7862 97.9379 37.7668L98.4051 39.8303C98.2494 39.8887 98.032 39.9471 97.753 40.0055C97.4739 40.0704 97.1203 40.1029 96.692 40.1029C96.0431 40.1029 95.4071 39.9634 94.7842 39.6843C94.1677 39.4053 93.6551 38.9803 93.2462 38.4092C92.8439 37.8382 92.6427 37.1179 92.6427 36.2483V21.3751ZM134.331 28.8701V31.0116H106.921V28.8701H134.331ZM151.422 33.6786H154.069L156.289 36.5987L156.873 37.3774L160.182 41.7771H157.535L155.354 38.857L154.809 38.1172L151.422 33.6786ZM161 29.9408C161 32.0433 160.62 33.8603 159.861 35.3917C159.102 36.9232 158.06 38.1042 156.736 38.9348C155.413 39.7654 153.901 40.1807 152.2 40.1807C150.5 40.1807 148.988 39.7654 147.665 38.9348C146.341 38.1042 145.299 36.9232 144.54 35.3917C143.781 33.8603 143.401 32.0433 143.401 29.9408C143.401 27.8383 143.781 26.0214 144.54 24.4899C145.299 22.9585 146.341 21.7775 147.665 20.9469C148.988 20.1162 150.5 19.7009 152.2 19.7009C153.901 19.7009 155.413 20.1162 156.736 20.9469C158.06 21.7775 159.102 22.9585 159.861 24.4899C160.62 26.0214 161 27.8383 161 29.9408ZM158.664 29.9408C158.664 28.2147 158.375 26.7579 157.797 25.5704C157.226 24.3829 156.451 23.4841 155.471 22.8741C154.498 22.2642 153.407 21.9592 152.2 21.9592C150.993 21.9592 149.9 22.2642 148.92 22.8741C147.947 23.4841 147.171 24.3829 146.594 25.5704C146.023 26.7579 145.737 28.2147 145.737 29.9408C145.737 31.667 146.023 33.1238 146.594 34.3113C147.171 35.4988 147.947 36.3976 148.92 37.0075C149.9 37.6175 150.993 37.9225 152.2 37.9225C153.407 37.9225 154.498 37.6175 155.471 37.0075C156.451 36.3976 157.226 35.4988 157.797 34.3113C158.375 33.1238 158.664 31.667 158.664 29.9408ZM171.307 40.1807C170.022 40.1807 168.877 39.9601 167.871 39.5189C166.872 39.0776 166.077 38.4644 165.486 37.6792C164.902 36.8875 164.584 35.9693 164.532 34.9245H166.985C167.037 35.5669 167.258 36.1218 167.647 36.589C168.036 37.0497 168.546 37.4066 169.175 37.6597C169.805 37.9128 170.502 38.0393 171.268 38.0393C172.125 38.0393 172.884 37.8901 173.546 37.5916C174.208 37.2931 174.727 36.8778 175.103 36.3456C175.48 35.8135 175.668 35.1971 175.668 34.4962C175.668 33.763 175.486 33.1173 175.123 32.5592C174.759 31.9947 174.227 31.5534 173.526 31.2354C172.825 30.9175 171.969 30.7585 170.957 30.7585H169.36V28.617H170.957C171.748 28.617 172.443 28.4743 173.04 28.1888C173.643 27.9032 174.114 27.5009 174.451 26.9818C174.795 26.4626 174.967 25.8527 174.967 25.1518C174.967 24.477 174.818 23.8897 174.519 23.39C174.221 22.8904 173.799 22.501 173.254 22.222C172.715 21.9429 172.079 21.8034 171.346 21.8034C170.658 21.8034 170.009 21.93 169.399 22.183C168.796 22.4296 168.303 22.7898 167.92 23.2635C167.537 23.7307 167.329 24.2953 167.297 24.9572H164.961C165 23.9124 165.314 22.9974 165.905 22.2122C166.495 21.4206 167.268 20.8041 168.221 20.3628C169.182 19.9216 170.236 19.7009 171.385 19.7009C172.618 19.7009 173.676 19.9508 174.558 20.4504C175.441 20.9436 176.119 21.5958 176.592 22.4069C177.066 23.2181 177.303 24.0941 177.303 25.035C177.303 26.1577 177.008 27.1148 176.417 27.9065C175.833 28.6982 175.038 29.2465 174.032 29.5515V29.7072C175.291 29.9149 176.274 30.4502 176.982 31.3133C177.689 32.1699 178.043 33.2308 178.043 34.4962C178.043 35.5799 177.748 36.5533 177.157 37.4164C176.573 38.2729 175.775 38.9478 174.763 39.441C173.75 39.9342 172.598 40.1807 171.307 40.1807ZM189.498 39.9082V24.9572H191.717V27.2154H191.873C192.145 26.4756 192.639 25.8754 193.352 25.4146C194.066 24.9539 194.871 24.7235 195.766 24.7235C195.935 24.7235 196.146 24.7268 196.399 24.7333C196.652 24.7398 196.844 24.7495 196.973 24.7625V27.0986C196.896 27.0791 196.717 27.0499 196.438 27.011C196.165 26.9656 195.877 26.9428 195.572 26.9428C194.845 26.9428 194.196 27.0953 193.625 27.4003C193.06 27.6988 192.613 28.1141 192.282 28.6463C191.957 29.1719 191.795 29.7721 191.795 30.447V39.9082H189.498ZM205.373 40.2197C203.932 40.2197 202.69 39.9017 201.645 39.2658C200.607 38.6233 199.805 37.7278 199.241 36.5793C198.683 35.4242 198.403 34.0809 198.403 32.5495C198.403 31.018 198.683 29.6683 199.241 28.5002C199.805 27.3257 200.59 26.4107 201.596 25.7553C202.608 25.0934 203.789 24.7625 205.139 24.7625C205.918 24.7625 206.687 24.8923 207.446 25.1518C208.205 25.4114 208.896 25.8332 209.519 26.4172C210.142 26.9948 210.639 27.7605 211.009 28.7144C211.379 29.6683 211.564 30.8428 211.564 32.238V33.2114H200.039V31.2257H209.227C209.227 30.3821 209.059 29.6294 208.721 28.9675C208.39 28.3056 207.917 27.7832 207.3 27.4003C206.69 27.0175 205.97 26.826 205.139 26.826C204.224 26.826 203.433 27.0532 202.764 27.5074C202.102 27.9552 201.593 28.5392 201.236 29.2595C200.879 29.9798 200.701 30.752 200.701 31.5761V32.8999C200.701 34.029 200.895 34.9862 201.285 35.7714C201.681 36.5501 202.229 37.1438 202.93 37.5526C203.631 37.955 204.445 38.1561 205.373 38.1561C205.976 38.1561 206.521 38.0718 207.008 37.903C207.501 37.7278 207.926 37.4683 208.283 37.1243C208.64 36.7739 208.916 36.3392 209.111 35.82L211.33 36.443C211.096 37.1957 210.704 37.8576 210.152 38.4287C209.601 38.9932 208.919 39.4345 208.108 39.7525C207.297 40.0639 206.385 40.2197 205.373 40.2197ZM214.921 45.5148V24.9572H217.14V27.3322H217.413C217.581 27.0726 217.815 26.7417 218.114 26.3394C218.419 25.9305 218.853 25.5671 219.418 25.2492C219.989 24.9247 220.761 24.7625 221.735 24.7625C222.993 24.7625 224.103 25.0772 225.063 25.7067C226.024 26.3361 226.773 27.2284 227.312 28.3834C227.851 29.5385 228.12 30.9012 228.12 32.4716C228.12 34.055 227.851 35.4274 227.312 36.589C226.773 37.7441 226.027 38.6396 225.073 39.2755C224.119 39.905 223.019 40.2197 221.773 40.2197C220.813 40.2197 220.044 40.0607 219.467 39.7427C218.889 39.4183 218.444 39.0516 218.133 38.6428C217.822 38.2275 217.581 37.8836 217.413 37.611H217.218V45.5148H214.921ZM217.179 32.4327C217.179 33.5618 217.345 34.5579 217.676 35.4209C218.006 36.2775 218.49 36.9491 219.126 37.4358C219.762 37.916 220.541 38.1561 221.462 38.1561C222.422 38.1561 223.224 37.9031 223.866 37.3969C224.515 36.8843 225.002 36.1964 225.326 35.3333C225.657 34.4638 225.823 33.4969 225.823 32.4327C225.823 31.3814 225.66 30.434 225.336 29.5904C225.018 28.7403 224.535 28.0687 223.886 27.5755C223.243 27.0759 222.435 26.826 221.462 26.826C220.528 26.826 219.742 27.0629 219.106 27.5366C218.47 28.0038 217.99 28.6592 217.666 29.5028C217.341 30.3399 217.179 31.3165 217.179 32.4327ZM237.561 40.2197C236.211 40.2197 235.027 39.8985 234.008 39.256C232.996 38.6136 232.204 37.7149 231.633 36.5598C231.068 35.4047 230.786 34.055 230.786 32.5106C230.786 30.9532 231.068 29.5937 231.633 28.4321C232.204 27.2705 232.996 26.3686 234.008 25.7261C235.027 25.0837 236.211 24.7625 237.561 24.7625C238.911 24.7625 240.092 25.0837 241.104 25.7261C242.123 26.3686 242.914 27.2705 243.479 28.4321C244.05 29.5937 244.335 30.9532 244.335 32.5106C244.335 34.055 244.05 35.4047 243.479 36.5598C242.914 37.7149 242.123 38.6136 241.104 39.256C240.092 39.8985 238.911 40.2197 237.561 40.2197ZM237.561 38.1561C238.586 38.1561 239.43 37.8933 240.092 37.3677C240.753 36.8421 241.243 36.151 241.561 35.2944C241.879 34.4378 242.038 33.5099 242.038 32.5106C242.038 31.5112 241.879 30.58 241.561 29.717C241.243 28.8539 240.753 28.1563 240.092 27.6242C239.43 27.0921 238.586 26.826 237.561 26.826C236.536 26.826 235.692 27.0921 235.03 27.6242C234.368 28.1563 233.878 28.8539 233.56 29.717C233.242 30.58 233.083 31.5112 233.083 32.5106C233.083 33.5099 233.242 34.4378 233.56 35.2944C233.878 36.151 234.368 36.8421 235.03 37.3677C235.692 37.8933 236.536 38.1561 237.561 38.1561ZM247.705 39.9082V24.9572H249.924V27.2154H250.08C250.353 26.4756 250.846 25.8754 251.56 25.4146C252.273 24.9539 253.078 24.7235 253.974 24.7235C254.142 24.7235 254.353 24.7268 254.606 24.7333C254.859 24.7398 255.051 24.7495 255.181 24.7625V27.0986C255.103 27.0791 254.924 27.0499 254.645 27.011C254.373 26.9656 254.084 26.9428 253.779 26.9428C253.052 26.9428 252.403 27.0953 251.832 27.4003C251.268 27.6988 250.82 28.1141 250.489 28.6463C250.164 29.1719 250.002 29.7721 250.002 30.447V39.9082H247.705ZM265.206 24.9572V26.9039H257.457V24.9572H265.206ZM259.716 21.3751H262.013V35.6254C262.013 36.2743 262.107 36.761 262.295 37.0854C262.49 37.4034 262.736 37.6175 263.035 37.7278C263.34 37.8317 263.661 37.8836 263.999 37.8836C264.252 37.8836 264.459 37.8706 264.622 37.8446C264.784 37.8122 264.914 37.7862 265.011 37.7668L265.478 39.8303C265.322 39.8887 265.105 39.9471 264.826 40.0055C264.547 40.0704 264.193 40.1029 263.765 40.1029C263.116 40.1029 262.48 39.9634 261.857 39.6843C261.241 39.4053 260.728 38.9803 260.319 38.4092C259.917 37.8382 259.716 37.1179 259.716 36.2483V21.3751ZM38.0768 54.9572V56.9039H30.0172V54.9572H38.0768ZM32.4312 69.9082V52.8936C32.4312 52.037 32.6324 51.3232 33.0347 50.7522C33.437 50.1811 33.9594 49.7528 34.6018 49.4673C35.2443 49.1818 35.9224 49.039 36.6362 49.039C37.2007 49.039 37.6615 49.0845 38.0184 49.1753C38.3753 49.2662 38.6413 49.3505 38.8165 49.4284L38.1547 51.4141C38.0378 51.3751 37.8756 51.3265 37.668 51.2681C37.4668 51.2097 37.2007 51.1805 36.8698 51.1805C36.1106 51.1805 35.5622 51.3719 35.2248 51.7548C34.8938 52.1376 34.7284 52.6989 34.7284 53.4387V69.9082H32.4312ZM41.1592 69.9082V54.9572H43.3785V57.2154H43.5342C43.8068 56.4756 44.2999 55.8754 45.0137 55.4146C45.7275 54.9539 46.5322 54.7235 47.4277 54.7235C47.5964 54.7235 47.8073 54.7268 48.0604 54.7333C48.3135 54.7398 48.5049 54.7495 48.6347 54.7625V57.0986C48.5568 57.0791 48.3784 57.0499 48.0993 57.011C47.8268 56.9656 47.538 56.9428 47.233 56.9428C46.5062 56.9428 45.8573 57.0953 45.2863 57.4003C44.7217 57.6988 44.274 58.1141 43.943 58.6463C43.6186 59.1719 43.4563 59.7721 43.4563 60.447V69.9082H41.1592ZM56.8395 70.2197C55.4897 70.2197 54.3054 69.8985 53.2866 69.256C52.2743 68.6136 51.4827 67.7149 50.9116 66.5598C50.3471 65.4047 50.0648 64.055 50.0648 62.5106C50.0648 60.9532 50.3471 59.5937 50.9116 58.4321C51.4827 57.2705 52.2743 56.3686 53.2866 55.7261C54.3054 55.0837 55.4897 54.7625 56.8395 54.7625C58.1892 54.7625 59.3702 55.0837 60.3826 55.7261C61.4014 56.3686 62.193 57.2705 62.7576 58.4321C63.3286 59.5937 63.6142 60.9532 63.6142 62.5106C63.6142 64.055 63.3286 65.4047 62.7576 66.5598C62.193 67.7149 61.4014 68.6136 60.3826 69.256C59.3702 69.8985 58.1892 70.2197 56.8395 70.2197ZM56.8395 68.1561C57.8648 68.1561 58.7083 67.8933 59.3702 67.3677C60.0321 66.8421 60.5221 66.151 60.84 65.2944C61.158 64.4378 61.317 63.5099 61.317 62.5106C61.317 61.5112 61.158 60.58 60.84 59.717C60.5221 58.8539 60.0321 58.1563 59.3702 57.6242C58.7083 57.0921 57.8648 56.826 56.8395 56.826C55.8142 56.826 54.9706 57.0921 54.3087 57.6242C53.6468 58.1563 53.1569 58.8539 52.8389 59.717C52.5209 60.58 52.3619 61.5112 52.3619 62.5106C52.3619 63.5099 52.5209 64.4378 52.8389 65.2944C53.1569 66.151 53.6468 66.8421 54.3087 67.3677C54.9706 67.8933 55.8142 68.1561 56.8395 68.1561ZM66.9837 69.9082V54.9572H69.203V57.2933H69.3977C69.7091 56.4951 70.2121 55.8754 70.9064 55.4341C71.6007 54.9864 72.4346 54.7625 73.408 54.7625C74.3943 54.7625 75.2152 54.9864 75.8706 55.4341C76.5325 55.8754 77.0484 56.4951 77.4183 57.2933H77.574C77.9569 56.521 78.5312 55.9078 79.2969 55.4536C80.0626 54.9928 80.9808 54.7625 82.0515 54.7625C83.3883 54.7625 84.4817 55.181 85.3318 56.0181C86.1819 56.8488 86.6069 58.1433 86.6069 59.9019V69.9082H84.3098V59.9019C84.3098 58.7987 84.008 58.0103 83.4045 57.5366C82.801 57.0629 82.0905 56.826 81.2728 56.826C80.2216 56.826 79.4072 57.144 78.8297 57.7799C78.2521 58.4094 77.9634 59.2076 77.9634 60.1744V69.9082H75.6273V59.6683C75.6273 58.8182 75.3515 58.1336 74.7999 57.6145C74.2483 57.0889 73.5378 56.826 72.6682 56.826C72.0712 56.826 71.5131 56.985 70.994 57.303C70.4814 57.621 70.066 58.0622 69.7481 58.6268C69.4366 59.1849 69.2809 59.8305 69.2809 60.5638V69.9082H66.9837ZM104.705 69.9082H98.5536V49.9735H104.978C106.912 49.9735 108.566 50.3726 109.942 51.1707C111.318 51.9624 112.372 53.1013 113.106 54.5873C113.839 56.0668 114.205 57.8383 114.205 59.9019C114.205 61.9784 113.836 63.7662 113.096 65.2652C112.356 66.7577 111.279 67.9063 109.864 68.711C108.45 69.5091 106.73 69.9082 104.705 69.9082ZM100.968 67.7668H104.55C106.198 67.7668 107.564 67.4488 108.647 66.8129C109.731 66.1769 110.539 65.2717 111.071 64.0972C111.603 62.9226 111.869 61.5242 111.869 59.9019C111.869 58.2926 111.607 56.9072 111.081 55.7456C110.555 54.5775 109.77 53.682 108.725 53.0591C107.681 52.4296 106.38 52.1149 104.822 52.1149H100.968V67.7668ZM117.806 69.9082V54.9572H120.025V57.2154H120.181C120.454 56.4756 120.947 55.8754 121.661 55.4146C122.375 54.9539 123.179 54.7235 124.075 54.7235C124.243 54.7235 124.454 54.7268 124.707 54.7333C124.96 54.7398 125.152 54.7495 125.282 54.7625V57.0986C125.204 57.0791 125.025 57.0499 124.746 57.011C124.474 56.9656 124.185 56.9428 123.88 56.9428C123.153 56.9428 122.504 57.0953 121.933 57.4003C121.369 57.6988 120.921 58.1141 120.59 58.6463C120.266 59.1719 120.103 59.7721 120.103 60.447V69.9082H117.806ZM127.868 69.9082V54.9572H130.165V69.9082H127.868ZM129.036 52.4653C128.588 52.4653 128.202 52.3128 127.877 52.0078C127.559 51.7028 127.4 51.3362 127.4 50.9079C127.4 50.4796 127.559 50.113 127.877 49.808C128.202 49.503 128.588 49.3505 129.036 49.3505C129.483 49.3505 129.866 49.503 130.184 49.808C130.509 50.113 130.671 50.4796 130.671 50.9079C130.671 51.3362 130.509 51.7028 130.184 52.0078C129.866 52.3128 129.483 52.4653 129.036 52.4653ZM146.461 54.9572L140.932 69.9082H138.596L133.067 54.9572H135.559L139.686 66.8713H139.842L143.969 54.9572H146.461ZM155.089 70.2197C153.648 70.2197 152.406 69.9017 151.361 69.2658C150.323 68.6233 149.521 67.7278 148.957 66.5793C148.399 65.4242 148.12 64.0809 148.12 62.5495C148.12 61.018 148.399 59.6683 148.957 58.5002C149.521 57.3257 150.306 56.4107 151.312 55.7553C152.325 55.0934 153.506 54.7625 154.855 54.7625C155.634 54.7625 156.403 54.8923 157.162 55.1518C157.921 55.4114 158.613 55.8332 159.236 56.4172C159.858 56.9948 160.355 57.7605 160.725 58.7144C161.095 59.6683 161.28 60.8428 161.28 62.238V63.2114H149.755V61.2257H158.944C158.944 60.3821 158.775 59.6294 158.437 58.9675C158.106 58.3056 157.633 57.7832 157.016 57.4003C156.406 57.0175 155.686 56.826 154.855 56.826C153.94 56.826 153.149 57.0532 152.48 57.5074C151.818 57.9552 151.309 58.5392 150.952 59.2595C150.595 59.9798 150.417 60.752 150.417 61.5761V62.8999C150.417 64.029 150.611 64.9862 151.001 65.7714C151.397 66.5501 151.945 67.1438 152.646 67.5526C153.347 67.955 154.161 68.1561 155.089 68.1561C155.692 68.1561 156.238 68.0718 156.724 67.903C157.217 67.7278 157.642 67.4683 157.999 67.1243C158.356 66.7739 158.632 66.3392 158.827 65.82L161.046 66.443C160.812 67.1957 160.42 67.8576 159.868 68.4287C159.317 68.9932 158.635 69.4345 157.824 69.7525C157.013 70.0639 156.101 70.2197 155.089 70.2197ZM168.063 67.1828L167.908 68.234C167.797 68.9738 167.628 69.7654 167.401 70.609C167.181 71.4526 166.95 72.2475 166.71 72.9938C166.47 73.7401 166.272 74.3338 166.117 74.7751H164.364C164.449 74.3598 164.559 73.8114 164.695 73.1301C164.832 72.4487 164.968 71.6862 165.104 70.8426C165.247 70.0055 165.364 69.149 165.455 68.2729L165.571 67.1828H168.063ZM189.177 63.7954V54.9572H191.474V69.9082H189.177V67.3774H189.021C188.67 68.1367 188.125 68.7823 187.386 69.3144C186.646 69.8401 185.711 70.1029 184.582 70.1029C183.648 70.1029 182.817 69.8985 182.09 69.4897C181.364 69.0743 180.793 68.4514 180.377 67.6208C179.962 66.7837 179.754 65.7292 179.754 64.4573V54.9572H182.052V64.3016C182.052 65.3917 182.357 66.2613 182.967 66.9102C183.583 67.5591 184.368 67.8836 185.322 67.8836C185.893 67.8836 186.474 67.7376 187.064 67.4456C187.661 67.1536 188.161 66.7058 188.563 66.1023C188.972 65.4988 189.177 64.7298 189.177 63.7954ZM195.544 75.5148V54.9572H197.763V57.3322H198.036C198.205 57.0726 198.438 56.7417 198.737 56.3394C199.042 55.9305 199.477 55.5671 200.041 55.2492C200.612 54.9247 201.384 54.7625 202.358 54.7625C203.617 54.7625 204.726 55.0772 205.687 55.7067C206.647 56.3361 207.397 57.2284 207.935 58.3834C208.474 59.5385 208.743 60.9012 208.743 62.4716C208.743 64.055 208.474 65.4274 207.935 66.589C207.397 67.7441 206.65 68.6396 205.696 69.2755C204.743 69.905 203.643 70.2197 202.397 70.2197C201.436 70.2197 200.667 70.0607 200.09 69.7427C199.512 69.4183 199.068 69.0516 198.756 68.6428C198.445 68.2275 198.205 67.8836 198.036 67.611H197.841V75.5148H195.544ZM197.802 62.4327C197.802 63.5618 197.968 64.5579 198.299 65.4209C198.63 66.2775 199.113 66.9491 199.749 67.4358C200.385 67.916 201.164 68.1561 202.085 68.1561C203.046 68.1561 203.847 67.9031 204.49 67.3969C205.138 66.8843 205.625 66.1964 205.95 65.3333C206.281 64.4638 206.446 63.4969 206.446 62.4327C206.446 61.3814 206.284 60.434 205.959 59.5904C205.641 58.7403 205.158 58.0687 204.509 57.5755C203.867 57.0759 203.059 56.826 202.085 56.826C201.151 56.826 200.366 57.0629 199.73 57.5366C199.094 58.0038 198.614 58.6592 198.289 59.5028C197.965 60.3399 197.802 61.3165 197.802 62.4327ZM217.756 70.2197C216.51 70.2197 215.41 69.905 214.456 69.2755C213.502 68.6396 212.756 67.7441 212.217 66.589C211.679 65.4274 211.409 64.055 211.409 62.4716C211.409 60.9012 211.679 59.5385 212.217 58.3834C212.756 57.2284 213.505 56.3361 214.466 55.7067C215.426 55.0772 216.536 54.7625 217.795 54.7625C218.768 54.7625 219.537 54.9247 220.102 55.2492C220.673 55.5671 221.107 55.9305 221.406 56.3394C221.711 56.7417 221.948 57.0726 222.117 57.3322H222.311V49.9735H224.608V69.9082H222.389V67.611H222.117C221.948 67.8836 221.708 68.2275 221.396 68.6428C221.085 69.0516 220.64 69.4183 220.063 69.7427C219.485 70.0607 218.716 70.2197 217.756 70.2197ZM218.067 68.1561C218.989 68.1561 219.767 67.916 220.403 67.4358C221.039 66.9491 221.523 66.2775 221.854 65.4209C222.185 64.5579 222.35 63.5618 222.35 62.4327C222.35 61.3165 222.188 60.3399 221.863 59.5028C221.539 58.6592 221.059 58.0038 220.423 57.5366C219.787 57.0629 219.002 56.826 218.067 56.826C217.094 56.826 216.283 57.0759 215.634 57.5755C214.991 58.0687 214.508 58.7403 214.184 59.5904C213.866 60.434 213.707 61.3814 213.707 62.4327C213.707 63.4969 213.869 64.4638 214.193 65.3333C214.524 66.1964 215.011 66.8843 215.653 67.3969C216.302 67.9031 217.107 68.1561 218.067 68.1561ZM233.397 70.2586C232.45 70.2586 231.59 70.0802 230.818 69.7233C230.046 69.3599 229.432 68.8375 228.978 68.1561C228.524 67.4683 228.297 66.6377 228.297 65.6643C228.297 64.8077 228.465 64.1134 228.803 63.5813C229.14 63.0427 229.591 62.6209 230.156 62.3159C230.72 62.0109 231.343 61.7838 232.025 61.6345C232.713 61.4788 233.404 61.3555 234.098 61.2646C235.006 61.1478 235.743 61.0602 236.308 61.0018C236.879 60.9369 237.294 60.8299 237.553 60.6806C237.82 60.5314 237.953 60.2718 237.953 59.9019V59.824C237.953 58.8636 237.69 58.1174 237.164 57.5853C236.645 57.0532 235.857 56.7871 234.799 56.7871C233.702 56.7871 232.842 57.0272 232.219 57.5074C231.596 57.9876 231.158 58.5002 230.905 59.0453L228.725 58.2666C229.114 57.3582 229.633 56.6508 230.282 56.1447C230.938 55.632 231.652 55.2751 232.424 55.074C233.203 54.8663 233.968 54.7625 234.721 54.7625C235.201 54.7625 235.753 54.8209 236.376 54.9377C237.005 55.048 237.612 55.2784 238.196 55.6288C238.786 55.9792 239.276 56.5081 239.666 57.2154C240.055 57.9227 240.25 58.8701 240.25 60.0576V69.9082H237.953V67.8836H237.836C237.68 68.208 237.42 68.5552 237.057 68.9251C236.694 69.295 236.21 69.6097 235.607 69.8693C235.003 70.1288 234.267 70.2586 233.397 70.2586ZM233.748 68.1951C234.656 68.1951 235.422 68.0166 236.045 67.6597C236.674 67.3028 237.148 66.8421 237.466 66.2775C237.79 65.713 237.953 65.1192 237.953 64.4962V62.3937C237.855 62.5106 237.641 62.6176 237.31 62.715C236.986 62.8058 236.609 62.8869 236.181 62.9583C235.759 63.0232 235.347 63.0816 234.945 63.1335C234.549 63.1789 234.228 63.2179 233.981 63.2503C233.384 63.3282 232.826 63.4547 232.307 63.6299C231.794 63.7987 231.379 64.055 231.061 64.3989C230.75 64.7363 230.594 65.1971 230.594 65.7811C230.594 66.5793 230.889 67.1828 231.48 67.5916C232.077 67.9939 232.833 68.1951 233.748 68.1951ZM250.808 54.9572V56.9039H243.06V54.9572H250.808ZM245.318 51.3751H247.615V65.6254C247.615 66.2743 247.709 66.761 247.897 67.0854C248.092 67.4034 248.339 67.6175 248.637 67.7278C248.942 67.8317 249.263 67.8836 249.601 67.8836C249.854 67.8836 250.061 67.8706 250.224 67.8446C250.386 67.8122 250.516 67.7862 250.613 67.7668L251.08 69.8303C250.924 69.8887 250.707 69.9471 250.428 70.0055C250.149 70.0704 249.795 70.1029 249.367 70.1029C248.718 70.1029 248.082 69.9634 247.459 69.6843C246.843 69.4053 246.33 68.9803 245.921 68.4092C245.519 67.8382 245.318 67.1179 245.318 66.2483V51.3751ZM260.234 70.2197C258.793 70.2197 257.551 69.9017 256.506 69.2658C255.468 68.6233 254.666 67.7278 254.102 66.5793C253.544 65.4242 253.265 64.0809 253.265 62.5495C253.265 61.018 253.544 59.6683 254.102 58.5002C254.666 57.3257 255.452 56.4107 256.457 55.7553C257.47 55.0934 258.651 54.7625 260 54.7625C260.779 54.7625 261.548 54.8923 262.307 55.1518C263.067 55.4114 263.758 55.8332 264.381 56.4172C265.004 56.9948 265.5 57.7605 265.87 58.7144C266.24 59.6683 266.425 60.8428 266.425 62.238V63.2114H254.9V61.2257H264.089C264.089 60.3821 263.92 59.6294 263.582 58.9675C263.251 58.3056 262.778 57.7832 262.161 57.4003C261.551 57.0175 260.831 56.826 260 56.826C259.085 56.826 258.294 57.0532 257.625 57.5074C256.963 57.9552 256.454 58.5392 256.097 59.2595C255.74 59.9798 255.562 60.752 255.562 61.5761V62.8999C255.562 64.029 255.756 64.9862 256.146 65.7714C256.542 66.5501 257.09 67.1438 257.791 67.5526C258.492 67.955 259.306 68.1561 260.234 68.1561C260.838 68.1561 261.383 68.0718 261.869 67.903C262.362 67.7278 262.788 67.4683 263.144 67.1243C263.501 66.7739 263.777 66.3392 263.972 65.82L266.191 66.443C265.957 67.1957 265.565 67.8576 265.013 68.4287C264.462 68.9932 263.78 69.4345 262.969 69.7525C262.158 70.0639 261.246 70.2197 260.234 70.2197ZM275.428 70.2197C274.182 70.2197 273.082 69.905 272.128 69.2755C271.174 68.6396 270.428 67.7441 269.889 66.589C269.351 65.4274 269.081 64.055 269.081 62.4716C269.081 60.9012 269.351 59.5385 269.889 58.3834C270.428 57.2284 271.177 56.3361 272.138 55.7067C273.098 55.0772 274.208 54.7625 275.467 54.7625C276.44 54.7625 277.209 54.9247 277.773 55.2492C278.345 55.5671 278.779 55.9305 279.078 56.3394C279.383 56.7417 279.62 57.0726 279.788 57.3322H279.983V49.9735H282.28V69.9082H280.061V67.611H279.788C279.62 67.8836 279.38 68.2275 279.068 68.6428C278.757 69.0516 278.312 69.4183 277.735 69.7427C277.157 70.0607 276.388 70.2197 275.428 70.2197ZM275.739 68.1561C276.661 68.1561 277.439 67.916 278.075 67.4358C278.711 66.9491 279.195 66.2775 279.526 65.4209C279.856 64.5579 280.022 63.5618 280.022 62.4327C280.022 61.3165 279.86 60.3399 279.535 59.5028C279.211 58.6592 278.731 58.0038 278.095 57.5366C277.459 57.0629 276.674 56.826 275.739 56.826C274.766 56.826 273.955 57.0759 273.306 57.5755C272.663 58.0687 272.18 58.7403 271.855 59.5904C271.537 60.434 271.378 61.3814 271.378 62.4327C271.378 63.4969 271.541 64.4638 271.865 65.3333C272.196 66.1964 272.683 66.8843 273.325 67.3969C273.974 67.9031 274.779 68.1561 275.739 68.1561ZM294.202 69.9082V68.1561L300.782 60.9532C301.555 60.1096 302.191 59.3763 302.69 58.7533C303.19 58.1239 303.56 57.5334 303.8 56.9818C304.047 56.4237 304.17 55.8397 304.17 55.2297C304.17 54.5289 304.001 53.9221 303.664 53.4095C303.333 52.8968 302.878 52.501 302.301 52.222C301.723 51.9429 301.075 51.8034 300.354 51.8034C299.588 51.8034 298.92 51.9624 298.349 52.2804C297.784 52.5919 297.346 53.0299 297.035 53.5944C296.73 54.159 296.578 54.8209 296.578 55.5801H294.28C294.28 54.4121 294.55 53.3868 295.088 52.5043C295.627 51.6217 296.36 50.9339 297.288 50.4407C298.223 49.9475 299.271 49.7009 300.432 49.7009C301.6 49.7009 302.635 49.9475 303.537 50.4407C304.439 50.9339 305.146 51.599 305.659 52.4361C306.172 53.2732 306.428 54.2044 306.428 55.2297C306.428 55.963 306.295 56.68 306.029 57.3809C305.769 58.0752 305.315 58.8507 304.666 59.7072C304.024 60.5573 303.132 61.5956 301.989 62.822L297.512 67.611V67.7668H306.778V69.9082H294.202ZM33.7161 90.9142V99.9082H31.4189V79.9735H33.7161V87.2933H33.9107C34.2612 86.521 34.7868 85.9078 35.4876 85.4536C36.1949 84.9928 37.1359 84.7625 38.3104 84.7625C39.3292 84.7625 40.2215 84.9669 40.9872 85.3757C41.7529 85.778 42.3467 86.3978 42.7685 87.2349C43.1967 88.0655 43.4109 89.1232 43.4109 90.4081V99.9082H41.1137V90.5638C41.1137 89.3763 40.8055 88.4581 40.189 87.8091C39.579 87.1537 38.7322 86.826 37.6485 86.826C36.8958 86.826 36.2209 86.985 35.6239 87.303C35.0334 87.621 34.5661 88.0849 34.2222 88.6949C33.8848 89.3049 33.7161 90.0447 33.7161 90.9142ZM53.5502 100.22C52.2005 100.22 51.0162 99.8985 49.9974 99.256C48.9851 98.6136 48.1934 97.7149 47.6224 96.5598C47.0578 95.4047 46.7755 94.055 46.7755 92.5106C46.7755 90.9532 47.0578 89.5937 47.6224 88.4321C48.1934 87.2705 48.9851 86.3686 49.9974 85.7261C51.0162 85.0837 52.2005 84.7625 53.5502 84.7625C54.9 84.7625 56.081 85.0837 57.0933 85.7261C58.1121 86.3686 58.9038 87.2705 59.4684 88.4321C60.0394 89.5937 60.3249 90.9532 60.3249 92.5106C60.3249 94.055 60.0394 95.4047 59.4684 96.5598C58.9038 97.7149 58.1121 98.6136 57.0933 99.256C56.081 99.8985 54.9 100.22 53.5502 100.22ZM53.5502 98.1561C54.5755 98.1561 55.4191 97.8933 56.081 97.3677C56.7429 96.8421 57.2328 96.151 57.5508 95.2944C57.8688 94.4378 58.0278 93.5099 58.0278 92.5106C58.0278 91.5112 57.8688 90.58 57.5508 89.717C57.2328 88.8539 56.7429 88.1563 56.081 87.6242C55.4191 87.0921 54.5755 86.826 53.5502 86.826C52.5249 86.826 51.6814 87.0921 51.0195 87.6242C50.3576 88.1563 49.8676 88.8539 49.5497 89.717C49.2317 90.58 49.0727 91.5112 49.0727 92.5106C49.0727 93.5099 49.2317 94.4378 49.5497 95.2944C49.8676 96.151 50.3576 96.8421 51.0195 97.3677C51.6814 97.8933 52.5249 98.1561 53.5502 98.1561ZM73.1167 93.7954V84.9572H75.4139V99.9082H73.1167V97.3774H72.961C72.6106 98.1367 72.0655 98.7823 71.3257 99.3144C70.586 99.8401 69.6515 100.103 68.5224 100.103C67.588 100.103 66.7574 99.8985 66.0306 99.4897C65.3038 99.0743 64.7327 98.4514 64.3174 97.6208C63.9021 96.7837 63.6945 95.7292 63.6945 94.4573V84.9572H65.9916V94.3016C65.9916 95.3917 66.2966 96.2613 66.9066 96.9102C67.5231 97.5591 68.3083 97.8836 69.2622 97.8836C69.8332 97.8836 70.414 97.7376 71.0045 97.4456C71.6015 97.1536 72.1012 96.7058 72.5035 96.1023C72.9123 95.4988 73.1167 94.7298 73.1167 93.7954ZM79.4843 99.9082V84.9572H81.7036V87.2154H81.8593C82.1318 86.4756 82.625 85.8754 83.3388 85.4146C84.0526 84.9539 84.8573 84.7235 85.7528 84.7235C85.9215 84.7235 86.1324 84.7268 86.3855 84.7333C86.6386 84.7398 86.83 84.7495 86.9598 84.7625V87.0986C86.8819 87.0791 86.7035 87.0499 86.4244 87.011C86.1519 86.9656 85.8631 86.9428 85.5581 86.9428C84.8313 86.9428 84.1824 87.0953 83.6114 87.4003C83.0468 87.6988 82.5991 88.1141 82.2681 88.6463C81.9437 89.1719 81.7814 89.7721 81.7814 90.447V99.9082H79.4843ZM100.136 88.3056L98.0725 88.8896C97.9427 88.5457 97.7513 88.2115 97.4982 87.887C97.2516 87.5561 96.9142 87.2835 96.4859 87.0694C96.0576 86.8552 95.5093 86.7482 94.8409 86.7482C93.9259 86.7482 93.1635 86.9591 92.5535 87.3809C91.95 87.7962 91.6482 88.325 91.6482 88.9675C91.6482 89.5385 91.8559 89.9895 92.2712 90.3205C92.6865 90.6514 93.3354 90.9272 94.218 91.1478L96.4373 91.6929C97.774 92.0174 98.7701 92.5138 99.4255 93.1822C100.081 93.8441 100.409 94.6974 100.409 95.7422C100.409 96.5987 100.162 97.3644 99.6689 98.0393C99.1822 98.7142 98.5008 99.2463 97.6248 99.6357C96.7487 100.025 95.7299 100.22 94.5684 100.22C93.0434 100.22 91.7813 99.8887 90.7819 99.2268C89.7826 98.5649 89.1499 97.5981 88.8839 96.3262L91.0642 95.7811C91.2719 96.5857 91.6645 97.1892 92.242 97.5916C92.826 97.9939 93.5885 98.1951 94.5294 98.1951C95.6001 98.1951 96.4502 97.9679 97.0797 97.5137C97.7156 97.053 98.0336 96.5014 98.0336 95.859C98.0336 95.3398 97.8519 94.9051 97.4885 94.5546C97.1251 94.1977 96.567 93.9317 95.8143 93.7565L93.3225 93.1724C91.9532 92.848 90.9474 92.3451 90.305 91.6637C89.669 90.9759 89.3511 90.116 89.3511 89.0843C89.3511 88.2407 89.5879 87.4944 90.0616 86.8455C90.5418 86.1966 91.194 85.6872 92.0181 85.3173C92.8487 84.9474 93.7897 84.7625 94.8409 84.7625C96.3204 84.7625 97.482 85.0869 98.3256 85.7359C99.1757 86.3848 99.7792 87.2413 100.136 88.3056ZM115.701 100.259C114.754 100.259 113.894 100.08 113.122 99.7233C112.35 99.3599 111.736 98.8375 111.282 98.1561C110.828 97.4683 110.601 96.6377 110.601 95.6643C110.601 94.8077 110.769 94.1134 111.107 93.5813C111.444 93.0427 111.895 92.6209 112.46 92.3159C113.024 92.0109 113.647 91.7838 114.329 91.6345C115.017 91.4788 115.708 91.3555 116.402 91.2646C117.311 91.1478 118.047 91.0602 118.612 91.0018C119.183 90.9369 119.598 90.8299 119.858 90.6806C120.124 90.5314 120.257 90.2718 120.257 89.9019V89.824C120.257 88.8636 119.994 88.1174 119.468 87.5853C118.949 87.0532 118.161 86.7871 117.103 86.7871C116.006 86.7871 115.146 87.0272 114.523 87.5074C113.9 87.9876 113.462 88.5002 113.209 89.0453L111.029 88.2666C111.418 87.3582 111.938 86.6508 112.586 86.1447C113.242 85.632 113.956 85.2751 114.728 85.074C115.507 84.8663 116.272 84.7625 117.025 84.7625C117.505 84.7625 118.057 84.8209 118.68 84.9377C119.309 85.048 119.916 85.2784 120.5 85.6288C121.09 85.9792 121.58 86.5081 121.97 87.2154C122.359 87.9227 122.554 88.8701 122.554 90.0576V99.9082H120.257V97.8836H120.14C119.984 98.208 119.725 98.5552 119.361 98.9251C118.998 99.295 118.514 99.6097 117.911 99.8693C117.307 100.129 116.571 100.259 115.701 100.259ZM116.052 98.1951C116.96 98.1951 117.726 98.0166 118.349 97.6597C118.978 97.3028 119.452 96.8421 119.77 96.2775C120.094 95.713 120.257 95.1192 120.257 94.4962V92.3937C120.159 92.5106 119.945 92.6176 119.614 92.715C119.29 92.8058 118.913 92.8869 118.485 92.9583C118.063 93.0232 117.651 93.0816 117.249 93.1335C116.853 93.1789 116.532 93.2179 116.285 93.2503C115.688 93.3282 115.13 93.4547 114.611 93.6299C114.098 93.7987 113.683 94.055 113.365 94.3989C113.054 94.7363 112.898 95.1971 112.898 95.7811C112.898 96.5793 113.193 97.1828 113.784 97.5916C114.381 97.9939 115.137 98.1951 116.052 98.1951ZM132.644 105.826C131.535 105.826 130.581 105.684 129.783 105.398C128.985 105.119 128.319 104.749 127.787 104.288C127.262 103.834 126.843 103.347 126.532 102.828L128.362 101.543C128.569 101.816 128.832 102.127 129.15 102.478C129.468 102.835 129.903 103.143 130.454 103.403C131.012 103.669 131.742 103.802 132.644 103.802C133.851 103.802 134.848 103.51 135.633 102.926C136.418 102.342 136.811 101.427 136.811 100.181V97.1438H136.616C136.447 97.4164 136.207 97.7538 135.896 98.1561C135.591 98.552 135.149 98.9056 134.572 99.2171C134.001 99.5221 133.228 99.6746 132.255 99.6746C131.048 99.6746 129.964 99.3891 129.004 98.818C128.05 98.247 127.294 97.4164 126.736 96.3262C126.185 95.236 125.909 93.9122 125.909 92.3548C125.909 90.8234 126.178 89.4898 126.717 88.3542C127.255 87.2121 128.005 86.3296 128.965 85.7067C129.926 85.0772 131.035 84.7625 132.294 84.7625C133.267 84.7625 134.04 84.9247 134.611 85.2492C135.188 85.5671 135.629 85.9305 135.934 86.3394C136.246 86.7417 136.486 87.0726 136.655 87.3322H136.888V84.9572H139.108V100.336C139.108 101.621 138.816 102.666 138.232 103.471C137.654 104.282 136.875 104.876 135.896 105.252C134.922 105.635 133.838 105.826 132.644 105.826ZM132.567 97.611C133.488 97.611 134.267 97.4001 134.903 96.9783C135.539 96.5565 136.022 95.9498 136.353 95.1581C136.684 94.3665 136.849 93.419 136.849 92.3159C136.849 91.2387 136.687 90.288 136.363 89.4639C136.038 88.6398 135.558 87.9941 134.922 87.5269C134.286 87.0596 133.501 86.826 132.567 86.826C131.593 86.826 130.782 87.0726 130.133 87.5658C129.491 88.059 129.007 88.7209 128.683 89.5515C128.365 90.3821 128.206 91.3036 128.206 92.3159C128.206 93.3541 128.368 94.2724 128.693 95.0705C129.024 95.8622 129.51 96.4852 130.153 96.9394C130.802 97.3872 131.606 97.611 132.567 97.611ZM149.249 100.22C147.9 100.22 146.715 99.8985 145.697 99.256C144.684 98.6136 143.893 97.7149 143.322 96.5598C142.757 95.4047 142.475 94.055 142.475 92.5106C142.475 90.9532 142.757 89.5937 143.322 88.4321C143.893 87.2705 144.684 86.3686 145.697 85.7261C146.715 85.0837 147.9 84.7625 149.249 84.7625C150.599 84.7625 151.78 85.0837 152.793 85.7261C153.811 86.3686 154.603 87.2705 155.168 88.4321C155.739 89.5937 156.024 90.9532 156.024 92.5106C156.024 94.055 155.739 95.4047 155.168 96.5598C154.603 97.7149 153.811 98.6136 152.793 99.256C151.78 99.8985 150.599 100.22 149.249 100.22ZM149.249 98.1561C150.275 98.1561 151.118 97.8933 151.78 97.3677C152.442 96.8421 152.932 96.151 153.25 95.2944C153.568 94.4378 153.727 93.5099 153.727 92.5106C153.727 91.5112 153.568 90.58 153.25 89.717C152.932 88.8539 152.442 88.1563 151.78 87.6242C151.118 87.0921 150.275 86.826 149.249 86.826C148.224 86.826 147.381 87.0921 146.719 87.6242C146.057 88.1563 145.567 88.8539 145.249 89.717C144.931 90.58 144.772 91.5112 144.772 92.5106C144.772 93.5099 144.931 94.4378 145.249 95.2944C145.567 96.151 146.057 96.8421 146.719 97.3677C147.381 97.8933 148.224 98.1561 149.249 98.1561ZM167.277 99.9082V79.9735H169.574V87.3322H169.769C169.938 87.0726 170.171 86.7417 170.47 86.3394C170.775 85.9305 171.21 85.5671 171.774 85.2492C172.345 84.9247 173.118 84.7625 174.091 84.7625C175.35 84.7625 176.459 85.0772 177.42 85.7067C178.38 86.3361 179.13 87.2284 179.668 88.3834C180.207 89.5385 180.476 90.9012 180.476 92.4716C180.476 94.055 180.207 95.4274 179.668 96.589C179.13 97.7441 178.383 98.6396 177.43 99.2755C176.476 99.905 175.376 100.22 174.13 100.22C173.169 100.22 172.4 100.061 171.823 99.7427C171.245 99.4183 170.801 99.0516 170.489 98.6428C170.178 98.2275 169.938 97.8836 169.769 97.611H169.497V99.9082H167.277ZM169.535 92.4327C169.535 93.5618 169.701 94.5579 170.032 95.4209C170.363 96.2775 170.846 96.9491 171.482 97.4358C172.118 97.916 172.897 98.1561 173.818 98.1561C174.779 98.1561 175.58 97.9031 176.223 97.3969C176.872 96.8843 177.358 96.1964 177.683 95.3333C178.014 94.4638 178.179 93.4969 178.179 92.4327C178.179 91.3814 178.017 90.434 177.692 89.5904C177.374 88.7403 176.891 88.0687 176.242 87.5755C175.6 87.0759 174.792 86.826 173.818 86.826C172.884 86.826 172.099 87.0629 171.463 87.5366C170.827 88.0038 170.347 88.6592 170.022 89.5028C169.698 90.3399 169.535 91.3165 169.535 92.4327ZM184.797 105.515C184.408 105.515 184.061 105.482 183.756 105.418C183.451 105.359 183.24 105.301 183.123 105.242L183.707 103.218C184.265 103.36 184.758 103.412 185.187 103.373C185.615 103.334 185.994 103.143 186.325 102.799C186.663 102.462 186.971 101.913 187.25 101.154L187.678 99.9861L182.15 84.9572H184.642L188.769 96.8713H188.924L193.051 84.9572H195.543L189.197 102.089C188.911 102.861 188.558 103.5 188.136 104.006C187.714 104.519 187.224 104.898 186.666 105.145C186.115 105.392 185.492 105.515 184.797 105.515ZM206.322 99.9082V79.9735H213.058C214.615 79.9735 215.893 80.2395 216.893 80.7716C217.892 81.2973 218.632 82.0208 219.112 82.9423C219.592 83.8637 219.832 84.9117 219.832 86.0863C219.832 87.2608 219.592 88.3023 219.112 89.2108C218.632 90.1193 217.895 90.8331 216.902 91.3522C215.91 91.8649 214.641 92.1212 213.097 92.1212H207.646V89.9408H213.019C214.083 89.9408 214.939 89.7851 215.588 89.4736C216.244 89.1621 216.718 88.7209 217.01 88.1498C217.308 87.5723 217.457 86.8844 217.457 86.0863C217.457 85.2881 217.308 84.5905 217.01 83.9935C216.711 83.3965 216.234 82.9358 215.579 82.6113C214.923 82.2804 214.057 82.1149 212.98 82.1149H208.736V99.9082H206.322ZM215.705 90.9532L220.611 99.9082H217.808L212.98 90.9532H215.705ZM223.406 99.9082V84.9572H225.703V99.9082H223.406ZM224.574 82.4653C224.127 82.4653 223.74 82.3128 223.416 82.0078C223.098 81.7028 222.939 81.3362 222.939 80.9079C222.939 80.4796 223.098 80.113 223.416 79.808C223.74 79.503 224.127 79.3505 224.574 79.3505C225.022 79.3505 225.405 79.503 225.723 79.808C226.047 80.113 226.21 80.4796 226.21 80.9079C226.21 81.3362 226.047 81.7028 225.723 82.0078C225.405 82.3128 225.022 82.4653 224.574 82.4653ZM231.253 105.515C230.864 105.515 230.517 105.482 230.212 105.418C229.907 105.359 229.696 105.301 229.579 105.242L230.163 103.218C230.721 103.36 231.214 103.412 231.643 103.373C232.071 103.334 232.451 103.143 232.782 102.799C233.119 102.462 233.427 101.913 233.706 101.154L234.135 99.9861L228.606 84.9572H231.098L235.225 96.8713H235.38L239.508 84.9572H241.999L235.653 102.089C235.367 102.861 235.014 103.5 234.592 104.006C234.17 104.519 233.68 104.898 233.122 105.145C232.571 105.392 231.948 105.515 231.253 105.515ZM248.839 100.259C247.892 100.259 247.032 100.08 246.26 99.7233C245.487 99.3599 244.874 98.8375 244.42 98.1561C243.966 97.4683 243.739 96.6377 243.739 95.6643C243.739 94.8077 243.907 94.1134 244.245 93.5813C244.582 93.0427 245.033 92.6209 245.598 92.3159C246.162 92.0109 246.785 91.7838 247.467 91.6345C248.154 91.4788 248.846 91.3555 249.54 91.2646C250.448 91.1478 251.185 91.0602 251.749 91.0018C252.32 90.9369 252.736 90.8299 252.995 90.6806C253.261 90.5314 253.394 90.2718 253.394 89.9019V89.824C253.394 88.8636 253.132 88.1174 252.606 87.5853C252.087 87.0532 251.298 86.7871 250.241 86.7871C249.144 86.7871 248.284 87.0272 247.661 87.5074C247.038 87.9876 246.6 88.5002 246.347 89.0453L244.167 88.2666C244.556 87.3582 245.075 86.6508 245.724 86.1447C246.38 85.632 247.093 85.2751 247.866 85.074C248.644 84.8663 249.41 84.7625 250.163 84.7625C250.643 84.7625 251.195 84.8209 251.818 84.9377C252.447 85.048 253.054 85.2784 253.638 85.6288C254.228 85.9792 254.718 86.5081 255.108 87.2154C255.497 87.9227 255.692 88.8701 255.692 90.0576V99.9082H253.394V97.8836H253.278C253.122 98.208 252.862 98.5552 252.499 98.9251C252.136 99.295 251.652 99.6097 251.049 99.8693C250.445 100.129 249.709 100.259 248.839 100.259ZM249.189 98.1951C250.098 98.1951 250.864 98.0166 251.487 97.6597C252.116 97.3028 252.59 96.8421 252.908 96.2775C253.232 95.713 253.394 95.1192 253.394 94.4962V92.3937C253.297 92.5106 253.083 92.6176 252.752 92.715C252.428 92.8058 252.051 92.8869 251.623 92.9583C251.201 93.0232 250.789 93.0816 250.387 93.1335C249.991 93.1789 249.67 93.2179 249.423 93.2503C248.826 93.3282 248.268 93.4547 247.749 93.6299C247.236 93.7987 246.821 94.055 246.503 94.3989C246.191 94.7363 246.036 95.1971 246.036 95.7811C246.036 96.5793 246.331 97.1828 246.921 97.5916C247.518 97.9939 248.274 98.1951 249.189 98.1951ZM261.422 100.064C260.941 100.064 260.529 99.892 260.185 99.5481C259.841 99.2041 259.669 98.7921 259.669 98.3119C259.669 97.8317 259.841 97.4196 260.185 97.0757C260.529 96.7318 260.941 96.5598 261.422 96.5598C261.902 96.5598 262.314 96.7318 262.658 97.0757C263.002 97.4196 263.174 97.8317 263.174 98.3119C263.174 98.6298 263.092 98.9218 262.93 99.1879C262.775 99.454 262.564 99.6681 262.298 99.8303C262.038 99.9861 261.746 100.064 261.422 100.064Z" fill="white"/>
<path d="M339.847 20.0555C339.847 9.20163 331.048 0.402832 320.194 0.402832V0.402832V28.8474H339.847V20.0555Z" fill="#26252A" stroke="#26252A" stroke-width="0.805851"/>
<rect width="19.6526" height="62.1214" transform="matrix(-1 0 0 1 339.847 28.8474)" fill="#26252A" stroke="#26252A" stroke-width="0.805851"/>
<path d="M339.847 99.7609C339.847 110.615 331.048 119.414 320.194 119.414V119.414V90.969H339.847V99.7609Z" fill="#26252A" stroke="#26252A" stroke-width="0.805851"/>
</svg>
