<svg width="341" height="90" viewBox="0 0 341 90" fill="none" xmlns="http://www.w3.org/2000/svg">
<path d="M0.402832 20.0555C0.402832 9.20163 9.20161 0.402832 20.0555 0.402832V0.402832V28.8474H0.402832V20.0555Z" fill="#278EFF" stroke="#278EFF" stroke-width="0.805851"/>
<rect x="0.402832" y="28.8474" width="19.6526" height="32.1214" fill="#278EFF" stroke="#278EFF" stroke-width="0.805851"/>
<path d="M0.402832 69.7609C0.402832 80.6148 9.20161 89.4136 20.0555 89.4136V89.4136V60.969H0.402832V69.7609Z" fill="#278EFF" stroke="#278EFF" stroke-width="0.805851"/>
<rect x="20.0557" y="0.402832" width="290.877" height="89.0106" fill="#278EFF"/>
<rect x="20.0557" y="0.402832" width="290.877" height="89.0106" stroke="#278EFF" stroke-width="0.805851"/>
<path d="M24.8836 19.9735V39.9082H22.4696V19.9735H24.8836ZM39.8655 28.3056L37.802 28.8896C37.6722 28.5457 37.4807 28.2115 37.2277 27.887C36.9811 27.5561 36.6436 27.2835 36.2153 27.0694C35.7871 26.8552 35.2387 26.7482 34.5703 26.7482C33.6554 26.7482 32.8929 26.9591 32.2829 27.3809C31.6794 27.7962 31.3777 28.325 31.3777 28.9675C31.3777 29.5385 31.5853 29.9895 32.0006 30.3205C32.4159 30.6514 33.0649 30.9272 33.9474 31.1478L36.1667 31.6929C37.5034 32.0174 38.4995 32.5138 39.1549 33.1822C39.8103 33.8441 40.1381 34.6974 40.1381 35.7422C40.1381 36.5987 39.8915 37.3644 39.3983 38.0393C38.9116 38.7142 38.2302 39.2463 37.3542 39.6357C36.4782 40.025 35.4594 40.2197 34.2978 40.2197C32.7728 40.2197 31.5107 39.8887 30.5114 39.2268C29.512 38.5649 28.8793 37.5981 28.6133 36.3262L30.7936 35.7811C31.0013 36.5857 31.3939 37.1892 31.9714 37.5916C32.5555 37.9939 33.3179 38.1951 34.2589 38.1951C35.3296 38.1951 36.1797 37.9679 36.8091 37.5137C37.445 37.053 37.763 36.5014 37.763 35.859C37.763 35.3398 37.5813 34.9051 37.2179 34.5546C36.8545 34.1977 36.2965 33.9317 35.5437 33.7565L33.0519 33.1724C31.6827 32.848 30.6768 32.3451 30.0344 31.6637C29.3985 30.9759 29.0805 30.116 29.0805 29.0843C29.0805 28.2407 29.3174 27.4944 29.7911 26.8455C30.2713 26.1966 30.9234 25.6872 31.7476 25.3173C32.5782 24.9474 33.5191 24.7625 34.5703 24.7625C36.0499 24.7625 37.2114 25.0869 38.055 25.7359C38.9051 26.3848 39.5086 27.2413 39.8655 28.3056ZM57.5331 24.9572V26.9039H49.7851V24.9572H57.5331ZM52.0433 21.3751H54.3405V35.6254C54.3405 36.2743 54.4346 36.761 54.6228 37.0854C54.8174 37.4034 55.064 37.6175 55.3625 37.7278C55.6675 37.8317 55.9887 37.8836 56.3262 37.8836C56.5792 37.8836 56.7869 37.8706 56.9491 37.8446C57.1113 37.8122 57.2411 37.7862 57.3385 37.7668L57.8057 39.8303C57.6499 39.8887 57.4326 39.9471 57.1535 40.0055C56.8745 40.0704 56.5208 40.1029 56.0925 40.1029C55.4436 40.1029 54.8077 39.9634 54.1847 39.6843C53.5683 39.4053 53.0556 38.9803 52.6468 38.4092C52.2445 37.8382 52.0433 37.1179 52.0433 36.2483V21.3751ZM63.47 30.9142V39.9082H61.1728V19.9735H63.47V27.2933H63.6646C64.015 26.521 64.5407 25.9078 65.2415 25.4536C65.9488 24.9928 66.8897 24.7625 68.0643 24.7625C69.0831 24.7625 69.9753 24.9669 70.7411 25.3757C71.5068 25.778 72.1005 26.3978 72.5223 27.2349C72.9506 28.0655 73.1648 29.1232 73.1648 30.4081V39.9082H70.8676V30.5638C70.8676 29.3763 70.5594 28.4581 69.9429 27.8091C69.3329 27.1537 68.4861 26.826 67.4024 26.826C66.6496 26.826 65.9748 26.985 65.3778 27.303C64.7873 27.621 64.32 28.0849 63.9761 28.6949C63.6387 29.3049 63.47 30.0447 63.47 30.9142ZM77.2303 39.9082V24.9572H79.5274V39.9082H77.2303ZM78.3983 22.4653C77.9506 22.4653 77.5645 22.3128 77.24 22.0078C76.922 21.7028 76.763 21.3362 76.763 20.9079C76.763 20.4796 76.922 20.113 77.24 19.808C77.5645 19.503 77.9506 19.3505 78.3983 19.3505C78.8461 19.3505 79.2289 19.503 79.5469 19.808C79.8714 20.113 80.0336 20.4796 80.0336 20.9079C80.0336 21.3362 79.8714 21.7028 79.5469 22.0078C79.2289 22.3128 78.8461 22.4653 78.3983 22.4653ZM94.1881 28.3056L92.1246 28.8896C91.9948 28.5457 91.8033 28.2115 91.5503 27.887C91.3037 27.5561 90.9662 27.2835 90.538 27.0694C90.1097 26.8552 89.5613 26.7482 88.893 26.7482C87.978 26.7482 87.2155 26.9591 86.6055 27.3809C86.002 27.7962 85.7003 28.325 85.7003 28.9675C85.7003 29.5385 85.9079 29.9895 86.3232 30.3205C86.7386 30.6514 87.3875 30.9272 88.27 31.1478L90.4893 31.6929C91.8261 32.0174 92.8221 32.5138 93.4776 33.1822C94.133 33.8441 94.4607 34.6974 94.4607 35.7422C94.4607 36.5987 94.2141 37.3644 93.7209 38.0393C93.2342 38.7142 92.5528 39.2463 91.6768 39.6357C90.8008 40.025 89.782 40.2197 88.6204 40.2197C87.0955 40.2197 85.8333 39.8887 84.834 39.2268C83.8346 38.5649 83.202 37.5981 82.9359 36.3262L85.1163 35.7811C85.3239 36.5857 85.7165 37.1892 86.294 37.5916C86.8781 37.9939 87.6405 38.1951 88.5815 38.1951C89.6522 38.1951 90.5023 37.9679 91.1317 37.5137C91.7677 37.053 92.0856 36.5014 92.0856 35.859C92.0856 35.3398 91.9039 34.9051 91.5405 34.5546C91.1771 34.1977 90.6191 33.9317 89.8663 33.7565L87.3745 33.1724C86.0053 32.848 84.9995 32.3451 84.357 31.6637C83.7211 30.9759 83.4031 30.116 83.4031 29.0843C83.4031 28.2407 83.64 27.4944 84.1137 26.8455C84.5939 26.1966 85.246 25.6872 86.0702 25.3173C86.9008 24.9474 87.8417 24.7625 88.893 24.7625C90.3725 24.7625 91.534 25.0869 92.3776 25.7359C93.2277 26.3848 93.8312 27.2413 94.1881 28.3056ZM111.856 24.9572V26.9039H104.108V24.9572H111.856ZM106.366 21.3751H108.663V35.6254C108.663 36.2743 108.757 36.761 108.945 37.0854C109.14 37.4034 109.387 37.6175 109.685 37.7278C109.99 37.8317 110.311 37.8836 110.649 37.8836C110.902 37.8836 111.11 37.8706 111.272 37.8446C111.434 37.8122 111.564 37.7862 111.661 37.7668L112.128 39.8303C111.973 39.8887 111.755 39.9471 111.476 40.0055C111.197 40.0704 110.843 40.1029 110.415 40.1029C109.766 40.1029 109.13 39.9634 108.507 39.6843C107.891 39.4053 107.378 38.9803 106.969 38.4092C106.567 37.8382 106.366 37.1179 106.366 36.2483V21.3751ZM117.793 30.9142V39.9082H115.495V19.9735H117.793V27.2933H117.987C118.338 26.521 118.863 25.9078 119.564 25.4536C120.271 24.9928 121.212 24.7625 122.387 24.7625C123.406 24.7625 124.298 24.9669 125.064 25.3757C125.829 25.778 126.423 26.3978 126.845 27.2349C127.273 28.0655 127.487 29.1232 127.487 30.4081V39.9082H125.19V30.5638C125.19 29.3763 124.882 28.4581 124.266 27.8091C123.656 27.1537 122.809 26.826 121.725 26.826C120.972 26.826 120.297 26.985 119.7 27.303C119.11 27.621 118.643 28.0849 118.299 28.6949C117.961 29.3049 117.793 30.0447 117.793 30.9142ZM137.821 40.2197C136.381 40.2197 135.138 39.9017 134.093 39.2658C133.055 38.6233 132.254 37.7278 131.689 36.5793C131.131 35.4242 130.852 34.0809 130.852 32.5495C130.852 31.018 131.131 29.6683 131.689 28.5002C132.254 27.3257 133.039 26.4107 134.045 25.7553C135.057 25.0934 136.238 24.7625 137.588 24.7625C138.367 24.7625 139.135 24.8923 139.895 25.1518C140.654 25.4114 141.345 25.8332 141.968 26.4172C142.591 26.9948 143.087 27.7605 143.457 28.7144C143.827 29.6683 144.012 30.8428 144.012 32.238V33.2114H132.487V31.2257H141.676C141.676 30.3821 141.507 29.6294 141.17 28.9675C140.839 28.3056 140.365 27.7832 139.749 27.4003C139.139 27.0175 138.418 26.826 137.588 26.826C136.673 26.826 135.881 27.0532 135.213 27.5074C134.551 27.9552 134.041 28.5392 133.685 29.2595C133.328 29.9798 133.149 30.752 133.149 31.5761V32.8999C133.149 34.029 133.344 34.9862 133.733 35.7714C134.129 36.5501 134.677 37.1438 135.378 37.5526C136.079 37.955 136.893 38.1561 137.821 38.1561C138.425 38.1561 138.97 38.0718 139.457 37.903C139.95 37.7278 140.375 37.4683 140.732 37.1243C141.089 36.7739 141.365 36.3392 141.559 35.82L143.778 36.443C143.545 37.1957 143.152 37.8576 142.601 38.4287C142.049 38.9932 141.368 39.4345 140.557 39.7525C139.745 40.0639 138.834 40.2197 137.821 40.2197ZM161.599 24.9572V26.9039H153.54V24.9572H161.599ZM155.954 39.9082V22.8936C155.954 22.037 156.155 21.3232 156.557 20.7522C156.96 20.1811 157.482 19.7528 158.124 19.4673C158.767 19.1818 159.445 19.039 160.159 19.039C160.723 19.039 161.184 19.0845 161.541 19.1753C161.898 19.2662 162.164 19.3505 162.339 19.4284L161.677 21.4141C161.56 21.3751 161.398 21.3265 161.191 21.2681C160.989 21.2097 160.723 21.1805 160.392 21.1805C159.633 21.1805 159.085 21.3719 158.747 21.7548C158.416 22.1376 158.251 22.6989 158.251 23.4387V39.9082H155.954ZM164.682 39.9082V24.9572H166.979V39.9082H164.682ZM165.85 22.4653C165.402 22.4653 165.016 22.3128 164.692 22.0078C164.374 21.7028 164.215 21.3362 164.215 20.9079C164.215 20.4796 164.374 20.113 164.692 19.808C165.016 19.503 165.402 19.3505 165.85 19.3505C166.298 19.3505 166.68 19.503 166.998 19.808C167.323 20.113 167.485 20.4796 167.485 20.9079C167.485 21.3362 167.323 21.7028 166.998 22.0078C166.68 22.3128 166.298 22.4653 165.85 22.4653ZM173.346 30.9142V39.9082H171.049V24.9572H173.269V27.2933H173.463C173.814 26.534 174.346 25.924 175.06 25.4633C175.773 24.9961 176.695 24.7625 177.824 24.7625C178.836 24.7625 179.722 24.9701 180.481 25.3854C181.241 25.7943 181.831 26.4172 182.253 27.2543C182.675 28.0849 182.886 29.1362 182.886 30.4081V39.9082H180.588V30.5638C180.588 29.3893 180.283 28.4743 179.673 27.8189C179.063 27.157 178.226 26.826 177.162 26.826C176.429 26.826 175.773 26.985 175.196 27.303C174.625 27.621 174.174 28.0849 173.843 28.6949C173.512 29.3049 173.346 30.0447 173.346 30.9142ZM191.346 40.2586C190.398 40.2586 189.539 40.0802 188.766 39.7233C187.994 39.3599 187.381 38.8375 186.927 38.1561C186.473 37.4683 186.245 36.6377 186.245 35.6643C186.245 34.8077 186.414 34.1134 186.752 33.5813C187.089 33.0427 187.54 32.6209 188.105 32.3159C188.669 32.0109 189.292 31.7838 189.973 31.6345C190.661 31.4788 191.352 31.3555 192.047 31.2646C192.955 31.1478 193.692 31.0602 194.256 31.0018C194.827 30.9369 195.243 30.8299 195.502 30.6806C195.768 30.5314 195.901 30.2718 195.901 29.9019V29.824C195.901 28.8636 195.638 28.1174 195.113 27.5853C194.594 27.0532 193.805 26.7871 192.748 26.7871C191.651 26.7871 190.791 27.0272 190.168 27.5074C189.545 27.9876 189.107 28.5002 188.854 29.0453L186.674 28.2666C187.063 27.3582 187.582 26.6508 188.231 26.1447C188.886 25.632 189.6 25.2751 190.372 25.074C191.151 24.8663 191.917 24.7625 192.67 24.7625C193.15 24.7625 193.701 24.8209 194.324 24.9377C194.954 25.048 195.561 25.2784 196.145 25.6288C196.735 25.9792 197.225 26.5081 197.614 27.2154C198.004 27.9227 198.198 28.8701 198.198 30.0576V39.9082H195.901V37.8836H195.784C195.629 38.208 195.369 38.5552 195.006 38.9251C194.642 39.295 194.159 39.6097 193.555 39.8693C192.952 40.1288 192.215 40.2586 191.346 40.2586ZM191.696 38.1951C192.605 38.1951 193.37 38.0166 193.993 37.6597C194.623 37.3028 195.097 36.8421 195.415 36.2775C195.739 35.713 195.901 35.1192 195.901 34.4962V32.3937C195.804 32.5106 195.59 32.6176 195.259 32.715C194.934 32.8058 194.558 32.8869 194.13 32.9583C193.708 33.0232 193.296 33.0816 192.894 33.1335C192.498 33.1789 192.176 33.2179 191.93 33.2503C191.333 33.3282 190.775 33.4547 190.256 33.6299C189.743 33.7987 189.328 34.055 189.01 34.3989C188.698 34.7363 188.543 35.1971 188.543 35.7811C188.543 36.5793 188.838 37.1828 189.428 37.5916C190.025 37.9939 190.781 38.1951 191.696 38.1951ZM204.551 19.9735V39.9082H202.254V19.9735H204.551ZM34.3837 54.9572L28.855 69.9082H26.5189L20.9901 54.9572H23.4819L27.6091 66.8713H27.7648L31.8919 54.9572H34.3837ZM43.0119 70.2197C41.5713 70.2197 40.3287 69.9017 39.2839 69.2658C38.2456 68.6233 37.4442 67.7278 36.8797 66.5793C36.3216 65.4242 36.0426 64.0809 36.0426 62.5495C36.0426 61.018 36.3216 59.6683 36.8797 58.5002C37.4442 57.3257 38.2294 56.4107 39.2352 55.7553C40.2476 55.0934 41.4286 54.7625 42.7783 54.7625C43.557 54.7625 44.326 54.8923 45.0852 55.1518C45.8445 55.4114 46.5356 55.8332 47.1585 56.4172C47.7815 56.9948 48.2779 57.7605 48.6478 58.7144C49.0177 59.6683 49.2026 60.8428 49.2026 62.238V63.2114H37.6778V61.2257H46.8665C46.8665 60.3821 46.6978 59.6294 46.3604 58.9675C46.0294 58.3056 45.5557 57.7832 44.9392 57.4003C44.3292 57.0175 43.6089 56.826 42.7783 56.826C41.8634 56.826 41.0717 57.0532 40.4033 57.5074C39.7414 57.9552 39.232 58.5392 38.8751 59.2595C38.5182 59.9798 38.3397 60.752 38.3397 61.5761V62.8999C38.3397 64.029 38.5344 64.9862 38.9238 65.7714C39.3196 66.5501 39.8679 67.1438 40.5688 67.5526C41.2696 67.955 42.084 68.1561 43.0119 68.1561C43.6154 68.1561 44.1605 68.0718 44.6472 67.903C45.1404 67.7278 45.5654 67.4683 45.9223 67.1243C46.2792 66.7739 46.555 66.3392 46.7497 65.82L48.969 66.443C48.7354 67.1957 48.3428 67.8576 47.7912 68.4287C47.2396 68.9932 46.5583 69.4345 45.7471 69.7525C44.936 70.0639 44.0243 70.2197 43.0119 70.2197ZM52.56 69.9082V54.9572H54.7793V57.2154H54.935C55.2076 56.4756 55.7007 55.8754 56.4145 55.4146C57.1283 54.9539 57.933 54.7235 58.8285 54.7235C58.9972 54.7235 59.2081 54.7268 59.4612 54.7333C59.7143 54.7398 59.9057 54.7495 60.0355 54.7625V57.0986C59.9576 57.0791 59.7792 57.0499 59.5001 57.011C59.2276 56.9656 58.9388 56.9428 58.6338 56.9428C57.907 56.9428 57.2581 57.0953 56.6871 57.4003C56.1225 57.6988 55.6748 58.1141 55.3438 58.6463C55.0194 59.1719 54.8571 59.7721 54.8571 60.447V69.9082H52.56ZM73.2118 58.3056L71.1482 58.8896C71.0184 58.5457 70.827 58.2115 70.5739 57.887C70.3274 57.5561 69.9899 57.2835 69.5616 57.0694C69.1333 56.8552 68.585 56.7482 67.9166 56.7482C67.0017 56.7482 66.2392 56.9591 65.6292 57.3809C65.0257 57.7962 64.724 58.325 64.724 58.9675C64.724 59.5385 64.9316 59.9895 65.3469 60.3205C65.7622 60.6514 66.4111 60.9272 67.2937 61.1478L69.513 61.6929C70.8497 62.0174 71.8458 62.5138 72.5012 63.1822C73.1566 63.8441 73.4843 64.6974 73.4843 65.7422C73.4843 66.5987 73.2377 67.3644 72.7446 68.0393C72.2579 68.7142 71.5765 69.2463 70.7005 69.6357C69.8244 70.025 68.8056 70.2197 67.6441 70.2197C66.1191 70.2197 64.857 69.8887 63.8577 69.2268C62.8583 68.5649 62.2256 67.5981 61.9596 66.3262L64.1399 65.7811C64.3476 66.5857 64.7402 67.1892 65.3177 67.5916C65.9017 67.9939 66.6642 68.1951 67.6051 68.1951C68.6759 68.1951 69.5259 67.9679 70.1554 67.5137C70.7913 67.053 71.1093 66.5014 71.1093 65.859C71.1093 65.3398 70.9276 64.9051 70.5642 64.5546C70.2008 64.1977 69.6427 63.9317 68.89 63.7565L66.3982 63.1724C65.0289 62.848 64.0231 62.3451 63.3807 61.6637C62.7448 60.9759 62.4268 60.116 62.4268 59.0843C62.4268 58.2407 62.6636 57.4944 63.1374 56.8455C63.6176 56.1966 64.2697 55.6872 65.0938 55.3173C65.9245 54.9474 66.8654 54.7625 67.9166 54.7625C69.3962 54.7625 70.5577 55.0869 71.4013 55.7359C72.2514 56.3848 72.8549 57.2413 73.2118 58.3056ZM76.8052 69.9082V54.9572H79.1024V69.9082H76.8052ZM77.9732 52.4653C77.5255 52.4653 77.1394 52.3128 76.8149 52.0078C76.497 51.7028 76.338 51.3362 76.338 50.9079C76.338 50.4796 76.497 50.113 76.8149 49.808C77.1394 49.503 77.5255 49.3505 77.9732 49.3505C78.421 49.3505 78.8039 49.503 79.1218 49.808C79.4463 50.113 79.6085 50.4796 79.6085 50.9079C79.6085 51.3362 79.4463 51.7028 79.1218 52.0078C78.8039 52.3128 78.421 52.4653 77.9732 52.4653ZM89.2466 70.2197C87.8968 70.2197 86.7126 69.8985 85.6938 69.256C84.6815 68.6136 83.8898 67.7149 83.3187 66.5598C82.7542 65.4047 82.4719 64.055 82.4719 62.5106C82.4719 60.9532 82.7542 59.5937 83.3187 58.4321C83.8898 57.2705 84.6815 56.3686 85.6938 55.7261C86.7126 55.0837 87.8968 54.7625 89.2466 54.7625C90.5963 54.7625 91.7774 55.0837 92.7897 55.7261C93.8085 56.3686 94.6001 57.2705 95.1647 58.4321C95.7358 59.5937 96.0213 60.9532 96.0213 62.5106C96.0213 64.055 95.7358 65.4047 95.1647 66.5598C94.6001 67.7149 93.8085 68.6136 92.7897 69.256C91.7774 69.8985 90.5963 70.2197 89.2466 70.2197ZM89.2466 68.1561C90.2719 68.1561 91.1155 67.8933 91.7774 67.3677C92.4393 66.8421 92.9292 66.151 93.2472 65.2944C93.5651 64.4378 93.7241 63.5099 93.7241 62.5106C93.7241 61.5112 93.5651 60.58 93.2472 59.717C92.9292 58.8539 92.4393 58.1563 91.7774 57.6242C91.1155 57.0921 90.2719 56.826 89.2466 56.826C88.2213 56.826 87.3777 57.0921 86.7158 57.6242C86.0539 58.1563 85.564 58.8539 85.246 59.717C84.928 60.58 84.7691 61.5112 84.7691 62.5106C84.7691 63.5099 84.928 64.4378 85.246 65.2944C85.564 66.151 86.0539 66.8421 86.7158 67.3677C87.3777 67.8933 88.2213 68.1561 89.2466 68.1561ZM101.688 60.9142V69.9082H99.3908V54.9572H101.61V57.2933H101.805C102.155 56.534 102.687 55.924 103.401 55.4633C104.115 54.9961 105.036 54.7625 106.166 54.7625C107.178 54.7625 108.064 54.9701 108.823 55.3854C109.582 55.7943 110.173 56.4172 110.594 57.2543C111.016 58.0849 111.227 59.1362 111.227 60.4081V69.9082H108.93V60.5638C108.93 59.3893 108.625 58.4743 108.015 57.8189C107.405 57.157 106.568 56.826 105.504 56.826C104.77 56.826 104.115 56.985 103.537 57.303C102.966 57.621 102.515 58.0849 102.184 58.6949C101.853 59.3049 101.688 60.0447 101.688 60.9142ZM118.286 64.3016V64.1848C118.299 62.9453 118.428 61.959 118.675 61.2257C118.922 60.4924 119.272 59.8987 119.726 59.4444C120.181 58.9902 120.726 58.5716 121.362 58.1888C121.744 57.9552 122.088 57.6794 122.393 57.3614C122.698 57.0369 122.938 56.6638 123.114 56.242C123.295 55.8202 123.386 55.353 123.386 54.8404C123.386 54.2044 123.237 53.6528 122.938 53.1856C122.64 52.7184 122.241 52.3582 121.741 52.1052C121.241 51.8521 120.687 51.7256 120.077 51.7256C119.545 51.7256 119.032 51.8359 118.539 52.0565C118.046 52.2771 117.634 52.6243 117.303 53.098C116.972 53.5717 116.78 54.1914 116.728 54.9572H114.275C114.327 53.854 114.613 52.9098 115.132 52.1246C115.658 51.3394 116.349 50.7392 117.205 50.3239C118.068 49.9086 119.025 49.7009 120.077 49.7009C121.219 49.7009 122.212 49.9281 123.055 50.3823C123.905 50.8365 124.561 51.4595 125.021 52.2512C125.489 53.0429 125.722 53.9448 125.722 54.9572C125.722 55.671 125.612 56.3166 125.391 56.8942C125.177 57.4717 124.866 57.9876 124.457 58.4418C124.055 58.8961 123.568 59.2984 122.997 59.6488C122.426 60.0057 121.968 60.3821 121.624 60.7779C121.28 61.1673 121.031 61.6313 120.875 62.1699C120.719 62.7085 120.635 63.3801 120.622 64.1848V64.3016H118.286ZM119.532 70.0639C119.051 70.0639 118.639 69.892 118.295 69.5481C117.951 69.2041 117.78 68.7921 117.78 68.3119C117.78 67.8317 117.951 67.4196 118.295 67.0757C118.639 66.7318 119.051 66.5598 119.532 66.5598C120.012 66.5598 120.424 66.7318 120.768 67.0757C121.112 67.4196 121.284 67.8317 121.284 68.3119C121.284 68.6298 121.203 68.9218 121.04 69.1879C120.885 69.454 120.674 69.6681 120.408 69.8303C120.148 69.9861 119.856 70.0639 119.532 70.0639Z" fill="white"/>
<path d="M330.585 20.0555C330.585 9.20163 321.787 0.402832 310.933 0.402832V0.402832V28.8474H330.585V20.0555Z" fill="#278EFF" stroke="#278EFF" stroke-width="0.805851"/>
<rect width="19.6526" height="32.1217" transform="matrix(-1 0 0 1 330.585 28.8477)" fill="#278EFF" stroke="#278EFF" stroke-width="0.805851"/>
<path d="M310.933 60.9692V89.4136C315.692 89.4136 320.056 87.7211 323.457 84.9058C326.849 87.1658 332.288 89.3156 338.86 88.1206C337.05 87.3447 330.069 82.6904 330.327 73.3813C330.296 73.4236 330.262 73.463 330.229 73.5034C330.462 72.2919 330.586 71.0409 330.586 69.7612V60.9692H310.933Z" fill="#278EFF"/>
<path d="M310.933 60.9692H310.53V60.5663H310.933V60.9692ZM310.933 89.4136V89.8165H310.53V89.4136H310.933ZM323.457 84.9058L323.2 84.5954L323.431 84.4042L323.68 84.5704L323.457 84.9058ZM338.86 88.1206L339.019 87.7503L340.249 88.2776L338.932 88.517L338.86 88.1206ZM330.327 73.3813L330.001 73.1444L330.766 72.0928L330.73 73.3925L330.327 73.3813ZM330.229 73.5034L330.539 73.7597L329.833 73.4271L330.229 73.5034ZM330.586 69.7612H330.989V69.7612H330.586ZM330.586 60.9692V60.5663H330.989V60.9692H330.586ZM310.933 60.9692H311.336V89.4136H310.933H310.53V60.9692H310.933ZM310.933 89.4136V89.0106C315.595 89.0106 319.869 87.3532 323.2 84.5954L323.457 84.9058L323.714 85.2161C320.244 88.0891 315.79 89.8165 310.933 89.8165V89.4136ZM323.457 84.9058L323.68 84.5704C327.01 86.789 332.344 88.8958 338.788 87.7242L338.86 88.1206L338.932 88.517C332.232 89.7353 326.688 87.5427 323.234 85.2411L323.457 84.9058ZM338.86 88.1206L338.702 88.4909C337.735 88.0766 335.484 86.6779 333.503 84.2026C331.515 81.7174 329.792 78.1359 329.924 73.3702L330.327 73.3813L330.73 73.3925C330.604 77.9358 332.242 81.336 334.133 83.6992C336.031 86.0723 338.176 87.3888 339.019 87.7503L338.86 88.1206ZM330.327 73.3813L330.653 73.6183C330.613 73.6737 330.562 73.7323 330.539 73.7597L330.229 73.5034L329.918 73.2472C329.962 73.1938 329.98 73.1735 330.001 73.1444L330.327 73.3813ZM330.229 73.5034L329.833 73.4271C330.062 72.2403 330.183 71.0149 330.183 69.7612H330.586H330.989C330.989 71.067 330.862 72.3435 330.624 73.5797L330.229 73.5034ZM330.586 69.7612H330.183V60.9692H330.586H330.989V69.7612H330.586ZM330.586 60.9692V61.3722H310.933V60.9692V60.5663H330.586V60.9692Z" fill="#278EFF"/>
</svg>
