<svg width="341" height="90" viewBox="0 0 341 90" fill="none" xmlns="http://www.w3.org/2000/svg">
<path d="M0.402832 20.0555C0.402832 9.20163 9.20161 0.402832 20.0555 0.402832V0.402832V28.8474H0.402832V20.0555Z" fill="#278EFF" stroke="#278EFF" stroke-width="0.805851"/>
<rect x="0.402832" y="28.8474" width="19.6526" height="32.1214" fill="#278EFF" stroke="#278EFF" stroke-width="0.805851"/>
<path d="M0.402832 69.7609C0.402832 80.6148 9.20161 89.4136 20.0555 89.4136V89.4136V60.969H0.402832V69.7609Z" fill="#278EFF" stroke="#278EFF" stroke-width="0.805851"/>
<rect x="20.0557" y="0.402832" width="290.877" height="89.0106" fill="#278EFF"/>
<rect x="20.0557" y="0.402832" width="290.877" height="89.0106" stroke="#278EFF" stroke-width="0.805851"/>
<path d="M26.0906 39.9082L20.6397 19.9735H23.0926L27.2586 36.2094H27.4533L31.6972 19.9735H34.4227L38.6666 36.2094H38.8613L43.0273 19.9735H45.4802L40.0293 39.9082H37.5375L33.1378 24.0227H32.9821L28.5824 39.9082H26.0906ZM50.3366 30.9142V39.9082H48.0394V19.9735H50.3366V27.2933H50.5313C50.8817 26.521 51.4073 25.9078 52.1081 25.4536C52.8155 24.9928 53.7564 24.7625 54.9309 24.7625C55.9497 24.7625 56.842 24.9669 57.6077 25.3757C58.3734 25.778 58.9672 26.3978 59.389 27.2349C59.8173 28.0655 60.0314 29.1232 60.0314 30.4081V39.9082H57.7342V30.5638C57.7342 29.3763 57.426 28.4581 56.8095 27.8091C56.1996 27.1537 55.3527 26.826 54.269 26.826C53.5163 26.826 52.8414 26.985 52.2444 27.303C51.6539 27.621 51.1867 28.0849 50.8427 28.6949C50.5053 29.3049 50.3366 30.0447 50.3366 30.9142ZM68.4966 40.2586C67.5491 40.2586 66.6893 40.0802 65.9171 39.7233C65.1449 39.3599 64.5317 38.8375 64.0774 38.1561C63.6232 37.4683 63.3961 36.6377 63.3961 35.6643C63.3961 34.8077 63.5648 34.1134 63.9022 33.5813C64.2397 33.0427 64.6907 32.6209 65.2552 32.3159C65.8198 32.0109 66.4427 31.7838 67.1241 31.6345C67.812 31.4788 68.5031 31.3555 69.1974 31.2646C70.1059 31.1478 70.8424 31.0602 71.407 31.0018C71.978 30.9369 72.3933 30.8299 72.6529 30.6806C72.9189 30.5314 73.052 30.2718 73.052 29.9019V29.824C73.052 28.8636 72.7891 28.1174 72.2635 27.5853C71.7444 27.0532 70.956 26.7871 69.8982 26.7871C68.8016 26.7871 67.9417 27.0272 67.3188 27.5074C66.6958 27.9876 66.2578 28.5002 66.0047 29.0453L63.8244 28.2666C64.2137 27.3582 64.7328 26.6508 65.3818 26.1447C66.0372 25.632 66.751 25.2751 67.5232 25.074C68.3019 24.8663 69.0676 24.7625 69.8204 24.7625C70.3006 24.7625 70.8521 24.8209 71.4751 24.9377C72.1045 25.048 72.7113 25.2784 73.2953 25.6288C73.8858 25.9792 74.3757 26.5081 74.7651 27.2154C75.1544 27.9227 75.3491 28.8701 75.3491 30.0576V39.9082H73.052V37.8836H72.9352C72.7794 38.208 72.5198 38.5552 72.1565 38.9251C71.7931 39.295 71.3096 39.6097 70.7061 39.8693C70.1026 40.1288 69.3661 40.2586 68.4966 40.2586ZM68.847 38.1951C69.7555 38.1951 70.5212 38.0166 71.1441 37.6597C71.7736 37.3028 72.2473 36.8421 72.5653 36.2775C72.8897 35.713 73.052 35.1192 73.052 34.4962V32.3937C72.9546 32.5106 72.7405 32.6176 72.4095 32.715C72.0851 32.8058 71.7087 32.8869 71.2804 32.9583C70.8586 33.0232 70.4466 33.0816 70.0442 33.1335C69.6484 33.1789 69.3272 33.2179 69.0806 33.2503C68.4836 33.3282 67.9255 33.4547 67.4064 33.6299C66.8937 33.7987 66.4784 34.055 66.1605 34.3989C65.849 34.7363 65.6932 35.1971 65.6932 35.7811C65.6932 36.5793 65.9885 37.1828 66.579 37.5916C67.176 37.9939 67.932 38.1951 68.847 38.1951ZM85.907 24.9572V26.9039H78.159V24.9572H85.907ZM80.4172 21.3751H82.7144V35.6254C82.7144 36.2743 82.8085 36.761 82.9966 37.0854C83.1913 37.4034 83.4379 37.6175 83.7364 37.7278C84.0414 37.8317 84.3626 37.8836 84.7 37.8836C84.9531 37.8836 85.1608 37.8706 85.323 37.8446C85.4852 37.8122 85.615 37.7862 85.7124 37.7668L86.1796 39.8303C86.0238 39.8887 85.8065 39.9471 85.5274 40.0055C85.2484 40.0704 84.8947 40.1029 84.4664 40.1029C83.8175 40.1029 83.1816 39.9634 82.5586 39.6843C81.9422 39.4053 81.4295 38.9803 81.0207 38.4092C80.6184 37.8382 80.4172 37.1179 80.4172 36.2483V21.3751ZM102.443 40.2197C101.197 40.2197 100.097 39.905 99.1434 39.2755C98.1895 38.6396 97.4432 37.7441 96.9046 36.589C96.366 35.4274 96.0967 34.055 96.0967 32.4716C96.0967 30.9012 96.366 29.5385 96.9046 28.3834C97.4432 27.2284 98.1927 26.3361 99.1531 25.7067C100.114 25.0772 101.223 24.7625 102.482 24.7625C103.455 24.7625 104.224 24.9247 104.789 25.2492C105.36 25.5671 105.795 25.9305 106.093 26.3394C106.398 26.7417 106.635 27.0726 106.804 27.3322H106.999V19.9735H109.296V39.9082H107.076V37.611H106.804C106.635 37.8836 106.395 38.2275 106.084 38.6428C105.772 39.0516 105.328 39.4183 104.75 39.7427C104.172 40.0607 103.404 40.2197 102.443 40.2197ZM102.755 38.1561C103.676 38.1561 104.455 37.916 105.091 37.4358C105.727 36.9491 106.21 36.2775 106.541 35.4209C106.872 34.5579 107.037 33.5618 107.037 32.4327C107.037 31.3165 106.875 30.3399 106.551 29.5028C106.226 28.6592 105.746 28.0038 105.11 27.5366C104.474 27.0629 103.689 26.826 102.755 26.826C101.781 26.826 100.97 27.0759 100.321 27.5755C99.6787 28.0687 99.1953 28.7403 98.8708 29.5904C98.5529 30.434 98.3939 31.3814 98.3939 32.4327C98.3939 33.4969 98.5561 34.4638 98.8806 35.3333C99.2115 36.1964 99.6982 36.8843 100.341 37.3969C100.99 37.9031 101.794 38.1561 102.755 38.1561ZM113.685 39.9082V24.9572H115.982V39.9082H113.685ZM114.853 22.4653C114.405 22.4653 114.019 22.3128 113.695 22.0078C113.377 21.7028 113.218 21.3362 113.218 20.9079C113.218 20.4796 113.377 20.113 113.695 19.808C114.019 19.503 114.405 19.3505 114.853 19.3505C115.301 19.3505 115.683 19.503 116.001 19.808C116.326 20.113 116.488 20.4796 116.488 20.9079C116.488 21.3362 116.326 21.7028 116.001 22.0078C115.683 22.3128 115.301 22.4653 114.853 22.4653ZM125.698 40.2197C124.452 40.2197 123.352 39.905 122.398 39.2755C121.444 38.6396 120.698 37.7441 120.159 36.589C119.621 35.4274 119.352 34.055 119.352 32.4716C119.352 30.9012 119.621 29.5385 120.159 28.3834C120.698 27.2284 121.448 26.3361 122.408 25.7067C123.368 25.0772 124.478 24.7625 125.737 24.7625C126.71 24.7625 127.479 24.9247 128.044 25.2492C128.615 25.5671 129.05 25.9305 129.348 26.3394C129.653 26.7417 129.89 27.0726 130.059 27.3322H130.253V19.9735H132.55V39.9082H130.331V37.611H130.059C129.89 37.8836 129.65 38.2275 129.338 38.6428C129.027 39.0516 128.582 39.4183 128.005 39.7427C127.427 40.0607 126.658 40.2197 125.698 40.2197ZM126.009 38.1561C126.931 38.1561 127.71 37.916 128.346 37.4358C128.981 36.9491 129.465 36.2775 129.796 35.4209C130.127 34.5579 130.292 33.5618 130.292 32.4327C130.292 31.3165 130.13 30.3399 129.806 29.5028C129.481 28.6592 129.001 28.0038 128.365 27.5366C127.729 27.0629 126.944 26.826 126.009 26.826C125.036 26.826 124.225 27.0759 123.576 27.5755C122.934 28.0687 122.45 28.7403 122.126 29.5904C121.808 30.434 121.649 31.3814 121.649 32.4327C121.649 33.4969 121.811 34.4638 122.135 35.3333C122.466 36.1964 122.953 36.8843 123.595 37.3969C124.244 37.9031 125.049 38.1561 126.009 38.1561ZM147.899 39.9082L143.344 24.9572H145.758L148.989 36.4041H149.145L152.338 24.9572H154.791L157.944 36.3651H158.1L161.332 24.9572H163.746L159.19 39.9082H156.932L153.661 28.4224H153.428L150.157 39.9082H147.899ZM172.405 40.2197C170.965 40.2197 169.722 39.9017 168.677 39.2658C167.639 38.6233 166.838 37.7278 166.273 36.5793C165.715 35.4242 165.436 34.0809 165.436 32.5495C165.436 31.018 165.715 29.6683 166.273 28.5002C166.838 27.3257 167.623 26.4107 168.629 25.7553C169.641 25.0934 170.822 24.7625 172.172 24.7625C172.951 24.7625 173.719 24.8923 174.479 25.1518C175.238 25.4114 175.929 25.8332 176.552 26.4172C177.175 26.9948 177.671 27.7605 178.041 28.7144C178.411 29.6683 178.596 30.8428 178.596 32.238V33.2114H167.071V31.2257H176.26C176.26 30.3821 176.091 29.6294 175.754 28.9675C175.423 28.3056 174.949 27.7832 174.333 27.4003C173.723 27.0175 173.002 26.826 172.172 26.826C171.257 26.826 170.465 27.0532 169.797 27.5074C169.135 27.9552 168.625 28.5392 168.269 29.2595C167.912 29.9798 167.733 30.752 167.733 31.5761V32.8999C167.733 34.029 167.928 34.9862 168.317 35.7714C168.713 36.5501 169.261 37.1438 169.962 37.5526C170.663 37.955 171.477 38.1561 172.405 38.1561C173.009 38.1561 173.554 38.0718 174.041 37.903C174.534 37.7278 174.959 37.4683 175.316 37.1243C175.673 36.7739 175.949 36.3392 176.143 35.82L178.362 36.443C178.129 37.1957 177.736 37.8576 177.185 38.4287C176.633 38.9932 175.952 39.4345 175.141 39.7525C174.329 40.0639 173.418 40.2197 172.405 40.2197ZM195.171 40.2197C193.925 40.2197 192.825 39.905 191.871 39.2755C190.917 38.6396 190.171 37.7441 189.633 36.589C189.094 35.4274 188.825 34.055 188.825 32.4716C188.825 30.9012 189.094 29.5385 189.633 28.3834C190.171 27.2284 190.921 26.3361 191.881 25.7067C192.842 25.0772 193.951 24.7625 195.21 24.7625C196.183 24.7625 196.952 24.9247 197.517 25.2492C198.088 25.5671 198.523 25.9305 198.821 26.3394C199.126 26.7417 199.363 27.0726 199.532 27.3322H199.727V19.9735H202.024V39.9082H199.804V37.611H199.532C199.363 37.8836 199.123 38.2275 198.812 38.6428C198.5 39.0516 198.056 39.4183 197.478 39.7427C196.9 40.0607 196.132 40.2197 195.171 40.2197ZM195.483 38.1561C196.404 38.1561 197.183 37.916 197.819 37.4358C198.455 36.9491 198.938 36.2775 199.269 35.4209C199.6 34.5579 199.765 33.5618 199.765 32.4327C199.765 31.3165 199.603 30.3399 199.279 29.5028C198.954 28.6592 198.474 28.0038 197.838 27.5366C197.202 27.0629 196.417 26.826 195.483 26.826C194.509 26.826 193.698 27.0759 193.049 27.5755C192.407 28.0687 191.923 28.7403 191.599 29.5904C191.281 30.434 191.122 31.3814 191.122 32.4327C191.122 33.4969 191.284 34.4638 191.609 35.3333C191.94 36.1964 192.426 36.8843 193.069 37.3969C193.718 37.9031 194.522 38.1561 195.483 38.1561ZM212.681 40.2197C211.241 40.2197 209.998 39.9017 208.953 39.2658C207.915 38.6233 207.114 37.7278 206.549 36.5793C205.991 35.4242 205.712 34.0809 205.712 32.5495C205.712 31.018 205.991 29.6683 206.549 28.5002C207.114 27.3257 207.899 26.4107 208.905 25.7553C209.917 25.0934 211.098 24.7625 212.448 24.7625C213.226 24.7625 213.995 24.8923 214.755 25.1518C215.514 25.4114 216.205 25.8332 216.828 26.4172C217.451 26.9948 217.947 27.7605 218.317 28.7144C218.687 29.6683 218.872 30.8428 218.872 32.238V33.2114H207.347V31.2257H216.536C216.536 30.3821 216.367 29.6294 216.03 28.9675C215.699 28.3056 215.225 27.7832 214.609 27.4003C213.999 27.0175 213.278 26.826 212.448 26.826C211.533 26.826 210.741 27.0532 210.073 27.5074C209.411 27.9552 208.901 28.5392 208.545 29.2595C208.188 29.9798 208.009 30.752 208.009 31.5761V32.8999C208.009 34.029 208.204 34.9862 208.593 35.7714C208.989 36.5501 209.537 37.1438 210.238 37.5526C210.939 37.955 211.753 38.1561 212.681 38.1561C213.285 38.1561 213.83 38.0718 214.317 37.903C214.81 37.7278 215.235 37.4683 215.592 37.1243C215.949 36.7739 216.224 36.3392 216.419 35.82L218.638 36.443C218.405 37.1957 218.012 37.8576 217.461 38.4287C216.909 38.9932 216.228 39.4345 215.417 39.7525C214.605 40.0639 213.694 40.2197 212.681 40.2197ZM228.303 40.2197C226.902 40.2197 225.695 39.8887 224.682 39.2268C223.67 38.5649 222.891 37.6532 222.346 36.4917C221.801 35.3301 221.529 34.0031 221.529 32.5106C221.529 30.9921 221.808 29.6521 222.366 28.4905C222.93 27.3225 223.715 26.4107 224.721 25.7553C225.734 25.0934 226.915 24.7625 228.264 24.7625C229.316 24.7625 230.263 24.9572 231.107 25.3465C231.95 25.7359 232.641 26.2809 233.18 26.9818C233.718 27.6826 234.053 28.5002 234.182 29.4347H231.885C231.71 28.7533 231.321 28.1498 230.717 27.6242C230.12 27.0921 229.316 26.826 228.303 26.826C227.408 26.826 226.623 27.0596 225.948 27.5269C225.279 27.9876 224.757 28.6398 224.381 29.4834C224.011 30.3205 223.826 31.3036 223.826 32.4327C223.826 33.5878 224.007 34.5936 224.371 35.4501C224.741 36.3067 225.26 36.9719 225.928 37.4456C226.603 37.9193 227.395 38.1561 228.303 38.1561C228.9 38.1561 229.442 38.0523 229.929 37.8446C230.415 37.637 230.828 37.3385 231.165 36.9491C231.502 36.5598 231.743 36.0926 231.885 35.5475H234.182C234.053 36.43 233.731 37.2249 233.219 37.9323C232.713 38.6331 232.041 39.1911 231.204 39.6065C230.373 40.0153 229.406 40.2197 228.303 40.2197ZM237.404 39.9082V24.9572H239.701V39.9082H237.404ZM238.572 22.4653C238.124 22.4653 237.738 22.3128 237.413 22.0078C237.095 21.7028 236.936 21.3362 236.936 20.9079C236.936 20.4796 237.095 20.113 237.413 19.808C237.738 19.503 238.124 19.3505 238.572 19.3505C239.019 19.3505 239.402 19.503 239.72 19.808C240.045 20.113 240.207 20.4796 240.207 20.9079C240.207 21.3362 240.045 21.7028 239.72 22.0078C239.402 22.3128 239.019 22.4653 238.572 22.4653ZM249.417 40.2197C248.171 40.2197 247.071 39.905 246.117 39.2755C245.163 38.6396 244.417 37.7441 243.878 36.589C243.34 35.4274 243.07 34.055 243.07 32.4716C243.07 30.9012 243.34 29.5385 243.878 28.3834C244.417 27.2284 245.166 26.3361 246.127 25.7067C247.087 25.0772 248.197 24.7625 249.456 24.7625C250.429 24.7625 251.198 24.9247 251.762 25.2492C252.334 25.5671 252.768 25.9305 253.067 26.3394C253.372 26.7417 253.609 27.0726 253.777 27.3322H253.972V19.9735H256.269V39.9082H254.05V37.611H253.777C253.609 37.8836 253.369 38.2275 253.057 38.6428C252.746 39.0516 252.301 39.4183 251.724 39.7427C251.146 40.0607 250.377 40.2197 249.417 40.2197ZM249.728 38.1561C250.65 38.1561 251.428 37.916 252.064 37.4358C252.7 36.9491 253.184 36.2775 253.515 35.4209C253.846 34.5579 254.011 33.5618 254.011 32.4327C254.011 31.3165 253.849 30.3399 253.524 29.5028C253.2 28.6592 252.72 28.0038 252.084 27.5366C251.448 27.0629 250.663 26.826 249.728 26.826C248.755 26.826 247.944 27.0759 247.295 27.5755C246.652 28.0687 246.169 28.7403 245.844 29.5904C245.526 30.434 245.367 31.3814 245.367 32.4327C245.367 33.4969 245.53 34.4638 245.854 35.3333C246.185 36.1964 246.672 36.8843 247.314 37.3969C247.963 37.9031 248.768 38.1561 249.728 38.1561ZM266.927 40.2197C265.486 40.2197 264.244 39.9017 263.199 39.2658C262.161 38.6233 261.359 37.7278 260.795 36.5793C260.237 35.4242 259.958 34.0809 259.958 32.5495C259.958 31.018 260.237 29.6683 260.795 28.5002C261.359 27.3257 262.144 26.4107 263.15 25.7553C264.163 25.0934 265.344 24.7625 266.693 24.7625C267.472 24.7625 268.241 24.8923 269 25.1518C269.759 25.4114 270.451 25.8332 271.073 26.4172C271.696 26.9948 272.193 27.7605 272.563 28.7144C272.933 29.6683 273.118 30.8428 273.118 32.238V33.2114H261.593V31.2257H270.781C270.781 30.3821 270.613 29.6294 270.275 28.9675C269.944 28.3056 269.471 27.7832 268.854 27.4003C268.244 27.0175 267.524 26.826 266.693 26.826C265.778 26.826 264.987 27.0532 264.318 27.5074C263.656 27.9552 263.147 28.5392 262.79 29.2595C262.433 29.9798 262.255 30.752 262.255 31.5761V32.8999C262.255 34.029 262.449 34.9862 262.839 35.7714C263.235 36.5501 263.783 37.1438 264.484 37.5526C265.185 37.955 265.999 38.1561 266.927 38.1561C267.53 38.1561 268.075 38.0718 268.562 37.903C269.055 37.7278 269.48 37.4683 269.837 37.1243C270.194 36.7739 270.47 36.3392 270.665 35.82L272.884 36.443C272.65 37.1957 272.258 37.8576 271.706 38.4287C271.155 38.9932 270.473 39.4345 269.662 39.7525C268.851 40.0639 267.939 40.2197 266.927 40.2197ZM28.232 70.2197C26.8823 70.2197 25.698 69.8985 24.6792 69.256C23.6669 68.6136 22.8752 67.7149 22.3042 66.5598C21.7396 65.4047 21.4573 64.055 21.4573 62.5106C21.4573 60.9532 21.7396 59.5937 22.3042 58.4321C22.8752 57.2705 23.6669 56.3686 24.6792 55.7261C25.698 55.0837 26.8823 54.7625 28.232 54.7625C29.5818 54.7625 30.7628 55.0837 31.7751 55.7261C32.7939 56.3686 33.5856 57.2705 34.1501 58.4321C34.7212 59.5937 35.0067 60.9532 35.0067 62.5106C35.0067 64.055 34.7212 65.4047 34.1501 66.5598C33.5856 67.7149 32.7939 68.6136 31.7751 69.256C30.7628 69.8985 29.5818 70.2197 28.232 70.2197ZM28.232 68.1561C29.2573 68.1561 30.1009 67.8933 30.7628 67.3677C31.4247 66.8421 31.9146 66.151 32.2326 65.2944C32.5506 64.4378 32.7095 63.5099 32.7095 62.5106C32.7095 61.5112 32.5506 60.58 32.2326 59.717C31.9146 58.8539 31.4247 58.1563 30.7628 57.6242C30.1009 57.0921 29.2573 56.826 28.232 56.826C27.2067 56.826 26.3631 57.0921 25.7012 57.6242C25.0393 58.1563 24.5494 58.8539 24.2314 59.717C23.9135 60.58 23.7545 61.5112 23.7545 62.5106C23.7545 63.5099 23.9135 64.4378 24.2314 65.2944C24.5494 66.151 25.0393 66.8421 25.7012 67.3677C26.3631 67.8933 27.2067 68.1561 28.232 68.1561ZM40.6734 60.9142V69.9082H38.3762V54.9572H40.5955V57.2933H40.7902C41.1406 56.534 41.6727 55.924 42.3865 55.4633C43.1004 54.9961 44.0218 54.7625 45.1509 54.7625C46.1632 54.7625 47.049 54.9701 47.8082 55.3854C48.5675 55.7943 49.158 56.4172 49.5798 57.2543C50.0016 58.0849 50.2125 59.1362 50.2125 60.4081V69.9082H47.9153V60.5638C47.9153 59.3893 47.6103 58.4743 47.0003 57.8189C46.3904 57.157 45.5533 56.826 44.489 56.826C43.7558 56.826 43.1004 56.985 42.5228 57.303C41.9518 57.621 41.5008 58.0849 41.1698 58.6949C40.8389 59.3049 40.6734 60.0447 40.6734 60.9142ZM61.8452 75.5148V54.9572H64.0645V57.3322H64.337C64.5058 57.0726 64.7394 56.7417 65.0379 56.3394C65.3429 55.9305 65.7776 55.5671 66.3422 55.2492C66.9132 54.9247 67.6854 54.7625 68.6588 54.7625C69.9177 54.7625 71.0274 55.0772 71.9878 55.7067C72.9482 56.3361 73.6977 57.2284 74.2363 58.3834C74.7749 59.5385 75.0442 60.9012 75.0442 62.4716C75.0442 64.055 74.7749 65.4274 74.2363 66.589C73.6977 67.7441 72.9514 68.6396 71.9975 69.2755C71.0436 69.905 69.9437 70.2197 68.6978 70.2197C67.7374 70.2197 66.9684 70.0607 66.3909 69.7427C65.8133 69.4183 65.3688 69.0516 65.0573 68.6428C64.7459 68.2275 64.5058 67.8836 64.337 67.611H64.1424V75.5148H61.8452ZM64.1034 62.4327C64.1034 63.5618 64.2689 64.5579 64.5998 65.4209C64.9308 66.2775 65.4142 66.9491 66.0502 67.4358C66.6861 67.916 67.4648 68.1561 68.3863 68.1561C69.3467 68.1561 70.1481 67.9031 70.7905 67.3969C71.4394 66.8843 71.9261 66.1964 72.2506 65.3333C72.5815 64.4638 72.747 63.4969 72.747 62.4327C72.747 61.3814 72.5848 60.434 72.2603 59.5904C71.9423 58.7403 71.4589 58.0687 70.81 57.5755C70.1676 57.0759 69.3597 56.826 68.3863 56.826C67.4518 56.826 66.6666 57.0629 66.0307 57.5366C65.3948 58.0038 64.9146 58.6592 64.5901 59.5028C64.2657 60.3399 64.1034 61.3165 64.1034 62.4327ZM78.4113 69.9082V54.9572H80.6306V57.2154H80.7863C81.0588 56.4756 81.552 55.8754 82.2658 55.4146C82.9796 54.9539 83.7843 54.7235 84.6798 54.7235C84.8485 54.7235 85.0594 54.7268 85.3125 54.7333C85.5656 54.7398 85.757 54.7495 85.8868 54.7625V57.0986C85.8089 57.0791 85.6305 57.0499 85.3514 57.011C85.0789 56.9656 84.7901 56.9428 84.4851 56.9428C83.7583 56.9428 83.1094 57.0953 82.5384 57.4003C81.9738 57.6988 81.5261 58.1141 81.1951 58.6463C80.8707 59.1719 80.7084 59.7721 80.7084 60.447V69.9082H78.4113ZM88.4728 69.9082V54.9572H90.7699V69.9082H88.4728ZM89.6408 52.4653C89.1931 52.4653 88.8069 52.3128 88.4825 52.0078C88.1645 51.7028 88.0055 51.3362 88.0055 50.9079C88.0055 50.4796 88.1645 50.113 88.4825 49.808C88.8069 49.503 89.1931 49.3505 89.6408 49.3505C90.0886 49.3505 90.4714 49.503 90.7894 49.808C91.1138 50.113 91.2761 50.4796 91.2761 50.9079C91.2761 51.3362 91.1138 51.7028 90.7894 52.0078C90.4714 52.3128 90.0886 52.4653 89.6408 52.4653ZM100.914 70.2197C99.5125 70.2197 98.3055 69.8887 97.2932 69.2268C96.2809 68.5649 95.5022 67.6532 94.9571 66.4917C94.412 65.3301 94.1395 64.0031 94.1395 62.5106C94.1395 60.9921 94.4185 59.6521 94.9766 58.4905C95.5411 57.3225 96.3263 56.4107 97.3321 55.7553C98.3444 55.0934 99.5255 54.7625 100.875 54.7625C101.926 54.7625 102.874 54.9572 103.717 55.3465C104.561 55.7359 105.252 56.2809 105.791 56.9818C106.329 57.6826 106.664 58.5002 106.793 59.4347H104.496C104.321 58.7533 103.932 58.1498 103.328 57.6242C102.731 57.0921 101.926 56.826 100.914 56.826C100.019 56.826 99.2335 57.0596 98.5586 57.5269C97.8902 57.9876 97.3678 58.6398 96.9914 59.4834C96.6216 60.3205 96.4366 61.3036 96.4366 62.4327C96.4366 63.5878 96.6183 64.5936 96.9817 65.4501C97.3516 66.3067 97.8707 66.9719 98.5391 67.4456C99.214 67.9193 100.006 68.1561 100.914 68.1561C101.511 68.1561 102.053 68.0523 102.54 67.8446C103.026 67.637 103.438 67.3385 103.776 66.9491C104.113 66.5598 104.353 66.0926 104.496 65.5475H106.793C106.664 66.43 106.342 67.2249 105.83 67.9323C105.324 68.6331 104.652 69.1911 103.815 69.6065C102.984 70.0153 102.017 70.2197 100.914 70.2197ZM110.014 69.9082V54.9572H112.312V69.9082H110.014ZM111.182 52.4653C110.735 52.4653 110.349 52.3128 110.024 52.0078C109.706 51.7028 109.547 51.3362 109.547 50.9079C109.547 50.4796 109.706 50.113 110.024 49.808C110.349 49.503 110.735 49.3505 111.182 49.3505C111.63 49.3505 112.013 49.503 112.331 49.808C112.656 50.113 112.818 50.4796 112.818 50.9079C112.818 51.3362 112.656 51.7028 112.331 52.0078C112.013 52.3128 111.63 52.4653 111.182 52.4653ZM118.679 60.9142V69.9082H116.382V54.9572H118.601V57.2933H118.796C119.146 56.534 119.678 55.924 120.392 55.4633C121.106 54.9961 122.028 54.7625 123.157 54.7625C124.169 54.7625 125.055 54.9701 125.814 55.3854C126.573 55.7943 127.164 56.4172 127.586 57.2543C128.007 58.0849 128.218 59.1362 128.218 60.4081V69.9082H125.921V60.5638C125.921 59.3893 125.616 58.4743 125.006 57.8189C124.396 57.157 123.559 56.826 122.495 56.826C121.761 56.826 121.106 56.985 120.529 57.303C119.957 57.621 119.506 58.0849 119.176 58.6949C118.845 59.3049 118.679 60.0447 118.679 60.9142ZM138.314 75.8263C137.204 75.8263 136.25 75.6836 135.452 75.398C134.654 75.119 133.989 74.7491 133.457 74.2884C132.931 73.8342 132.512 73.3475 132.201 72.8283L134.031 71.5435C134.239 71.816 134.501 72.1275 134.819 72.4779C135.137 72.8348 135.572 73.1431 136.124 73.4026C136.682 73.6687 137.412 73.8017 138.314 73.8017C139.521 73.8017 140.517 73.5097 141.302 72.9257C142.087 72.3416 142.48 71.4267 142.48 70.1807V67.1438H142.285C142.116 67.4164 141.876 67.7538 141.565 68.1561C141.26 68.552 140.819 68.9056 140.241 69.2171C139.67 69.5221 138.898 69.6746 137.924 69.6746C136.717 69.6746 135.634 69.3891 134.673 68.818C133.719 68.247 132.963 67.4164 132.405 66.3262C131.854 65.236 131.578 63.9122 131.578 62.3548C131.578 60.8234 131.847 59.4898 132.386 58.3542C132.925 57.2121 133.674 56.3296 134.634 55.7067C135.595 55.0772 136.704 54.7625 137.963 54.7625C138.937 54.7625 139.709 54.9247 140.28 55.2492C140.858 55.5671 141.299 55.9305 141.604 56.3394C141.915 56.7417 142.155 57.0726 142.324 57.3322H142.558V54.9572H144.777V70.3365C144.777 71.6213 144.485 72.6661 143.901 73.4708C143.323 74.2819 142.545 74.8757 141.565 75.252C140.591 75.6349 139.508 75.8263 138.314 75.8263ZM138.236 67.611C139.157 67.611 139.936 67.4001 140.572 66.9783C141.208 66.5565 141.691 65.9498 142.022 65.1581C142.353 64.3665 142.519 63.419 142.519 62.3159C142.519 61.2387 142.357 60.288 142.032 59.4639C141.708 58.6398 141.227 57.9941 140.591 57.5269C139.956 57.0596 139.17 56.826 138.236 56.826C137.263 56.826 136.451 57.0726 135.802 57.5658C135.16 58.059 134.677 58.7209 134.352 59.5515C134.034 60.3821 133.875 61.3036 133.875 62.3159C133.875 63.3541 134.037 64.2724 134.362 65.0705C134.693 65.8622 135.179 66.4852 135.822 66.9394C136.471 67.3872 137.275 67.611 138.236 67.611ZM158.714 49.9735V69.9082H156.417V49.9735H158.714ZM167.184 70.2586C166.237 70.2586 165.377 70.0802 164.605 69.7233C163.832 69.3599 163.219 68.8375 162.765 68.1561C162.311 67.4683 162.084 66.6377 162.084 65.6643C162.084 64.8077 162.252 64.1134 162.59 63.5813C162.927 63.0427 163.378 62.6209 163.943 62.3159C164.507 62.0109 165.13 61.7838 165.812 61.6345C166.5 61.4788 167.191 61.3555 167.885 61.2646C168.793 61.1478 169.53 61.0602 170.095 61.0018C170.666 60.9369 171.081 60.8299 171.34 60.6806C171.607 60.5314 171.74 60.2718 171.74 59.9019V59.824C171.74 58.8636 171.477 58.1174 170.951 57.5853C170.432 57.0532 169.644 56.7871 168.586 56.7871C167.489 56.7871 166.629 57.0272 166.006 57.5074C165.383 57.9876 164.945 58.5002 164.692 59.0453L162.512 58.2666C162.901 57.3582 163.42 56.6508 164.069 56.1447C164.725 55.632 165.439 55.2751 166.211 55.074C166.989 54.8663 167.755 54.7625 168.508 54.7625C168.988 54.7625 169.54 54.8209 170.163 54.9377C170.792 55.048 171.399 55.2784 171.983 55.6288C172.573 55.9792 173.063 56.5081 173.453 57.2154C173.842 57.9227 174.037 58.8701 174.037 60.0576V69.9082H171.74V67.8836H171.623C171.467 68.208 171.207 68.5552 170.844 68.9251C170.481 69.295 169.997 69.6097 169.394 69.8693C168.79 70.1288 168.054 70.2586 167.184 70.2586ZM167.535 68.1951C168.443 68.1951 169.209 68.0166 169.832 67.6597C170.461 67.3028 170.935 66.8421 171.253 66.2775C171.577 65.713 171.74 65.1192 171.74 64.4962V62.3937C171.642 62.5106 171.428 62.6176 171.097 62.715C170.773 62.8058 170.396 62.8869 169.968 62.9583C169.546 63.0232 169.134 63.0816 168.732 63.1335C168.336 63.1789 168.015 63.2179 167.768 63.2503C167.171 63.3282 166.613 63.4547 166.094 63.6299C165.581 63.7987 165.166 64.055 164.848 64.3989C164.537 64.7363 164.381 65.1971 164.381 65.7811C164.381 66.5793 164.676 67.1828 165.267 67.5916C165.864 67.9939 166.62 68.1951 167.535 68.1951ZM188.683 58.3056L186.619 58.8896C186.489 58.5457 186.298 58.2115 186.045 57.887C185.798 57.5561 185.461 57.2835 185.033 57.0694C184.604 56.8552 184.056 56.7482 183.388 56.7482C182.473 56.7482 181.71 56.9591 181.1 57.3809C180.497 57.7962 180.195 58.325 180.195 58.9675C180.195 59.5385 180.403 59.9895 180.818 60.3205C181.233 60.6514 181.882 60.9272 182.765 61.1478L184.984 61.6929C186.321 62.0174 187.317 62.5138 187.972 63.1822C188.628 63.8441 188.955 64.6974 188.955 65.7422C188.955 66.5987 188.709 67.3644 188.216 68.0393C187.729 68.7142 187.048 69.2463 186.171 69.6357C185.295 70.025 184.277 70.2197 183.115 70.2197C181.59 70.2197 180.328 69.8887 179.329 69.2268C178.329 68.5649 177.697 67.5981 177.431 66.3262L179.611 65.7811C179.819 66.5857 180.211 67.1892 180.789 67.5916C181.373 67.9939 182.135 68.1951 183.076 68.1951C184.147 68.1951 184.997 67.9679 185.626 67.5137C186.262 67.053 186.58 66.5014 186.58 65.859C186.58 65.3398 186.399 64.9051 186.035 64.5546C185.672 64.1977 185.114 63.9317 184.361 63.7565L181.869 63.1724C180.5 62.848 179.494 62.3451 178.852 61.6637C178.216 60.9759 177.898 60.116 177.898 59.0843C177.898 58.2407 178.135 57.4944 178.608 56.8455C179.089 56.1966 179.741 55.6872 180.565 55.3173C181.395 54.9474 182.336 54.7625 183.388 54.7625C184.867 54.7625 186.029 55.0869 186.872 55.7359C187.722 56.3848 188.326 57.2413 188.683 58.3056ZM198.778 54.9572V56.9039H191.03V54.9572H198.778ZM193.289 51.3751H195.586V65.6254C195.586 66.2743 195.68 66.761 195.868 67.0854C196.063 67.4034 196.309 67.6175 196.608 67.7278C196.913 67.8317 197.234 67.8836 197.571 67.8836C197.824 67.8836 198.032 67.8706 198.194 67.8446C198.357 67.8122 198.486 67.7862 198.584 67.7668L199.051 69.8303C198.895 69.8887 198.678 69.9471 198.399 70.0055C198.12 70.0704 197.766 70.1029 197.338 70.1029C196.689 70.1029 196.053 69.9634 195.43 69.6843C194.813 69.4053 194.301 68.9803 193.892 68.4092C193.49 67.8382 193.289 67.1179 193.289 66.2483V51.3751ZM213.056 69.9082L208.501 54.9572H210.915L214.146 66.4041H214.302L217.495 54.9572H219.948L223.101 66.3651H223.257L226.489 54.9572H228.903L224.347 69.9082H222.089L218.819 58.4224H218.585L215.314 69.9082H213.056ZM237.563 70.2197C236.122 70.2197 234.879 69.9017 233.835 69.2658C232.796 68.6233 231.995 67.7278 231.43 66.5793C230.872 65.4242 230.593 64.0809 230.593 62.5495C230.593 61.018 230.872 59.6683 231.43 58.5002C231.995 57.3257 232.78 56.4107 233.786 55.7553C234.798 55.0934 235.979 54.7625 237.329 54.7625C238.108 54.7625 238.877 54.8923 239.636 55.1518C240.395 55.4114 241.086 55.8332 241.709 56.4172C242.332 56.9948 242.829 57.7605 243.198 58.7144C243.568 59.6683 243.753 60.8428 243.753 62.238V63.2114H232.229V61.2257H241.417C241.417 60.3821 241.248 59.6294 240.911 58.9675C240.58 58.3056 240.106 57.7832 239.49 57.4003C238.88 57.0175 238.16 56.826 237.329 56.826C236.414 56.826 235.622 57.0532 234.954 57.5074C234.292 57.9552 233.783 58.5392 233.426 59.2595C233.069 59.9798 232.89 60.752 232.89 61.5761V62.8999C232.89 64.029 233.085 64.9862 233.474 65.7714C233.87 66.5501 234.419 67.1438 235.119 67.5526C235.82 67.955 236.635 68.1561 237.563 68.1561C238.166 68.1561 238.711 68.0718 239.198 67.903C239.691 67.7278 240.116 67.4683 240.473 67.1243C240.83 66.7739 241.106 66.3392 241.3 65.82L243.52 66.443C243.286 67.1957 242.893 67.8576 242.342 68.4287C241.79 68.9932 241.109 69.4345 240.298 69.7525C239.487 70.0639 238.575 70.2197 237.563 70.2197ZM253.379 70.2197C251.939 70.2197 250.696 69.9017 249.651 69.2658C248.613 68.6233 247.811 67.7278 247.247 66.5793C246.689 65.4242 246.41 64.0809 246.41 62.5495C246.41 61.018 246.689 59.6683 247.247 58.5002C247.811 57.3257 248.597 56.4107 249.602 55.7553C250.615 55.0934 251.796 54.7625 253.146 54.7625C253.924 54.7625 254.693 54.8923 255.452 55.1518C256.212 55.4114 256.903 55.8332 257.526 56.4172C258.149 56.9948 258.645 57.7605 259.015 58.7144C259.385 59.6683 259.57 60.8428 259.57 62.238V63.2114H248.045V61.2257H257.234C257.234 60.3821 257.065 59.6294 256.728 58.9675C256.397 58.3056 255.923 57.7832 255.306 57.4003C254.696 57.0175 253.976 56.826 253.146 56.826C252.231 56.826 251.439 57.0532 250.771 57.5074C250.109 57.9552 249.599 58.5392 249.242 59.2595C248.885 59.9798 248.707 60.752 248.707 61.5761V62.8999C248.707 64.029 248.902 64.9862 249.291 65.7714C249.687 66.5501 250.235 67.1438 250.936 67.5526C251.637 67.955 252.451 68.1561 253.379 68.1561C253.983 68.1561 254.528 68.0718 255.014 67.903C255.508 67.7278 255.933 67.4683 256.29 67.1243C256.646 66.7739 256.922 66.3392 257.117 65.82L259.336 66.443C259.103 67.1957 258.71 67.8576 258.158 68.4287C257.607 68.9932 256.926 69.4345 256.114 69.7525C255.303 70.0639 254.391 70.2197 253.379 70.2197ZM265.069 64.4573L265.03 61.615H265.497L272.038 54.9572H274.88L267.911 62.0044H267.716L265.069 64.4573ZM262.927 69.9082V49.9735H265.224V69.9082H262.927ZM272.427 69.9082L266.587 62.5106L268.222 60.9142L275.347 69.9082H272.427ZM280.698 64.3016V64.1848C280.711 62.9453 280.841 61.959 281.087 61.2257C281.334 60.4924 281.684 59.8987 282.138 59.4444C282.593 58.9902 283.138 58.5716 283.774 58.1888C284.157 57.9552 284.5 57.6794 284.805 57.3614C285.11 57.0369 285.351 56.6638 285.526 56.242C285.707 55.8202 285.798 55.353 285.798 54.8404C285.798 54.2044 285.649 53.6528 285.351 53.1856C285.052 52.7184 284.653 52.3582 284.153 52.1052C283.654 51.8521 283.099 51.7256 282.489 51.7256C281.957 51.7256 281.444 51.8359 280.951 52.0565C280.458 52.2771 280.046 52.6243 279.715 53.098C279.384 53.5717 279.192 54.1914 279.14 54.9572H276.688C276.739 53.854 277.025 52.9098 277.544 52.1246C278.07 51.3394 278.761 50.7392 279.617 50.3239C280.48 49.9086 281.438 49.7009 282.489 49.7009C283.631 49.7009 284.624 49.9281 285.467 50.3823C286.317 50.8365 286.973 51.4595 287.434 52.2512C287.901 53.0429 288.134 53.9448 288.134 54.9572C288.134 55.671 288.024 56.3166 287.803 56.8942C287.589 57.4717 287.278 57.9876 286.869 58.4418C286.467 58.8961 285.98 59.2984 285.409 59.6488C284.838 60.0057 284.38 60.3821 284.036 60.7779C283.693 61.1673 283.443 61.6313 283.287 62.1699C283.131 62.7085 283.047 63.3801 283.034 64.1848V64.3016H280.698ZM281.944 70.0639C281.464 70.0639 281.051 69.892 280.708 69.5481C280.364 69.2041 280.192 68.7921 280.192 68.3119C280.192 67.8317 280.364 67.4196 280.708 67.0757C281.051 66.7318 281.464 66.5598 281.944 66.5598C282.424 66.5598 282.836 66.7318 283.18 67.0757C283.524 67.4196 283.696 67.8317 283.696 68.3119C283.696 68.6298 283.615 68.9218 283.452 69.1879C283.297 69.454 283.086 69.6681 282.82 69.8303C282.56 69.9861 282.268 70.0639 281.944 70.0639Z" fill="white"/>
<path d="M330.585 20.0555C330.585 9.20163 321.787 0.402832 310.933 0.402832V0.402832V28.8474H330.585V20.0555Z" fill="#278EFF" stroke="#278EFF" stroke-width="0.805851"/>
<rect width="19.6526" height="32.1217" transform="matrix(-1 0 0 1 330.585 28.8477)" fill="#278EFF" stroke="#278EFF" stroke-width="0.805851"/>
<path d="M310.933 60.9692V89.4136C315.692 89.4136 320.056 87.7211 323.457 84.9058C326.849 87.1658 332.288 89.3156 338.86 88.1206C337.05 87.3447 330.069 82.6904 330.327 73.3813C330.296 73.4236 330.262 73.463 330.229 73.5034C330.462 72.2919 330.586 71.0409 330.586 69.7612V60.9692H310.933Z" fill="#278EFF"/>
<path d="M310.933 60.9692H310.53V60.5663H310.933V60.9692ZM310.933 89.4136V89.8165H310.53V89.4136H310.933ZM323.457 84.9058L323.2 84.5954L323.431 84.4042L323.68 84.5704L323.457 84.9058ZM338.86 88.1206L339.019 87.7503L340.249 88.2776L338.932 88.517L338.86 88.1206ZM330.327 73.3813L330.001 73.1444L330.766 72.0929L330.73 73.3925L330.327 73.3813ZM330.229 73.5034L330.539 73.7597L329.833 73.4271L330.229 73.5034ZM330.586 69.7612L330.989 69.7612L330.989 69.7612L330.586 69.7612ZM330.586 60.9692V60.5663H330.989V60.9692H330.586ZM310.933 60.9692H311.336V89.4136H310.933H310.53V60.9692H310.933ZM310.933 89.4136V89.0106C315.595 89.0106 319.869 87.3532 323.2 84.5954L323.457 84.9058L323.714 85.2161C320.244 88.0891 315.79 89.8165 310.933 89.8165V89.4136ZM323.457 84.9058L323.68 84.5704C327.01 86.789 332.344 88.8958 338.788 87.7242L338.86 88.1206L338.932 88.517C332.232 89.7353 326.688 87.5427 323.234 85.2411L323.457 84.9058ZM338.86 88.1206L338.702 88.4909C337.735 88.0766 335.484 86.6779 333.503 84.2026C331.515 81.7174 329.792 78.1359 329.924 73.3702L330.327 73.3813L330.73 73.3925C330.604 77.9358 332.242 81.336 334.133 83.6992C336.031 86.0723 338.176 87.3888 339.019 87.7503L338.86 88.1206ZM330.327 73.3813L330.653 73.6183C330.613 73.6737 330.562 73.7323 330.539 73.7597L330.229 73.5034L329.918 73.2472C329.962 73.1938 329.98 73.1735 330.001 73.1444L330.327 73.3813ZM330.229 73.5034L329.833 73.4271C330.062 72.2403 330.183 71.0149 330.183 69.7612L330.586 69.7612L330.989 69.7612C330.989 71.067 330.862 72.3435 330.624 73.5797L330.229 73.5034ZM330.586 69.7612H330.183V60.9692H330.586H330.989V69.7612H330.586ZM330.586 60.9692V61.3722H310.933V60.9692V60.5663H330.586V60.9692Z" fill="#278EFF"/>
</svg>
