<svg width="341" height="90" viewBox="0 0 341 90" fill="none" xmlns="http://www.w3.org/2000/svg">
<path d="M9.66455 20.0556C9.66455 9.20175 18.4633 0.402954 29.3172 0.402954V0.402954V28.8475H9.66455V20.0556Z" fill="#278EFF" stroke="#278EFF" stroke-width="0.805851"/>
<rect x="9.66455" y="28.8475" width="19.6526" height="32.1217" fill="#278EFF" stroke="#278EFF" stroke-width="0.805851"/>
<path d="M29.3169 60.9692V89.4136C24.5574 89.4136 20.193 87.7219 16.7925 84.9067C13.4001 87.1667 7.96104 89.3155 1.38916 88.1206C3.19927 87.3448 10.181 82.6905 9.92236 73.3813C9.95307 73.4236 9.98774 73.4631 10.021 73.5034C9.78742 72.2919 9.66455 71.0409 9.66455 69.7612V60.9692H29.3169Z" fill="#278EFF"/>
<path d="M29.3169 60.9692H29.7198V60.5663H29.3169V60.9692ZM29.3169 89.4136V89.8165H29.7198V89.4136H29.3169ZM16.7925 84.9067L17.0494 84.5964L16.8185 84.4052L16.5691 84.5714L16.7925 84.9067ZM1.38916 88.1206L1.23044 87.7503L4.59179e-05 88.2776L1.31708 88.517L1.38916 88.1206ZM9.92236 73.3813L10.2482 73.1444L9.48349 72.0929L9.51959 73.3925L9.92236 73.3813ZM10.021 73.5034L9.71004 73.7597L10.4166 73.4271L10.021 73.5034ZM9.66455 60.9692V60.5663H9.26163V60.9692H9.66455ZM29.3169 60.9692H28.914V89.4136H29.3169H29.7198V60.9692H29.3169ZM29.3169 89.4136V89.0106C24.6546 89.0106 20.3804 87.3539 17.0494 84.5964L16.7925 84.9067L16.5355 85.2171C20.0057 88.0899 24.4602 89.8165 29.3169 89.8165V89.4136ZM16.7925 84.9067L16.5691 84.5714C13.2391 86.7898 7.90474 88.8957 1.46124 87.7242L1.38916 88.1206L1.31708 88.517C8.01733 89.7353 13.5611 87.5436 17.0159 85.2421L16.7925 84.9067ZM1.38916 88.1206L1.54788 88.491C2.51466 88.0766 4.76591 86.678 6.74616 84.2027C8.73431 81.7175 10.4575 78.1359 10.3251 73.3702L9.92236 73.3813L9.51959 73.3925C9.6458 77.9359 8.00746 81.3361 6.11689 83.6993C4.21841 86.0724 2.07377 87.3888 1.23044 87.7503L1.38916 88.1206ZM9.92236 73.3813L9.5965 73.6183C9.63676 73.6737 9.68755 73.7324 9.71004 73.7597L10.021 73.5034L10.3319 73.2472C10.2879 73.1938 10.2694 73.1734 10.2482 73.1444L9.92236 73.3813ZM10.021 73.5034L10.4166 73.4271C10.1879 72.2405 10.0675 71.0151 10.0675 69.7612H9.66455H9.26163C9.26163 71.0668 9.38698 72.3433 9.62536 73.5797L10.021 73.5034ZM9.66455 69.7612H10.0675V60.9692H9.66455H9.26163V69.7612H9.66455ZM9.66455 60.9692V61.3722H29.3169V60.9692V60.5663H9.66455V60.9692Z" fill="#278EFF"/>
<rect x="29.3164" y="0.402954" width="290.877" height="89.0106" fill="#278EFF"/>
<rect x="29.3164" y="0.402954" width="290.877" height="89.0106" stroke="#278EFF" stroke-width="0.805851"/>
<path d="M47.7716 26.2032H45.3576C45.2149 25.5089 44.965 24.8989 44.6081 24.3733C44.2577 23.8476 43.8294 23.4064 43.3233 23.0495C42.8236 22.6861 42.2688 22.4135 41.6588 22.2318C41.0488 22.0501 40.4129 21.9593 39.751 21.9593C38.544 21.9593 37.4506 22.2643 36.4707 22.8743C35.4973 23.4842 34.7219 24.383 34.1443 25.5705C33.5733 26.758 33.2878 28.2148 33.2878 29.941C33.2878 31.6671 33.5733 33.1239 34.1443 34.3114C34.7219 35.4989 35.4973 36.3977 36.4707 37.0077C37.4506 37.6176 38.544 37.9226 39.751 37.9226C40.4129 37.9226 41.0488 37.8318 41.6588 37.6501C42.2688 37.4684 42.8236 37.1991 43.3233 36.8422C43.8294 36.4788 44.2577 36.0343 44.6081 35.5087C44.965 34.9766 45.2149 34.3666 45.3576 33.6787H47.7716C47.5899 34.6975 47.259 35.6093 46.7788 36.4139C46.2986 37.2186 45.7016 37.9032 44.9877 38.4677C44.2739 39.0258 43.4725 39.4508 42.5835 39.7429C41.701 40.0349 40.7568 40.1809 39.751 40.1809C38.0508 40.1809 36.5389 39.7656 35.2151 38.9349C33.8913 38.1043 32.8498 36.9233 32.0905 35.3919C31.3313 33.8604 30.9517 32.0435 30.9517 29.941C30.9517 27.8385 31.3313 26.0215 32.0905 24.4901C32.8498 22.9586 33.8913 21.7776 35.2151 20.947C36.5389 20.1164 38.0508 19.7011 39.751 19.7011C40.7568 19.7011 41.701 19.8471 42.5835 20.1391C43.4725 20.4311 44.2739 20.8594 44.9877 21.4239C45.7016 21.982 46.2986 22.6634 46.7788 23.468C47.259 24.2662 47.5899 25.1779 47.7716 26.2032ZM55.6235 40.2587C54.6761 40.2587 53.8163 40.0803 53.0441 39.7234C52.2719 39.36 51.6586 38.8376 51.2044 38.1562C50.7502 37.4684 50.523 36.6378 50.523 35.6644C50.523 34.8078 50.6918 34.1135 51.0292 33.5814C51.3666 33.0428 51.8176 32.621 52.3822 32.316C52.9467 32.011 53.5697 31.7839 54.2511 31.6346C54.9389 31.4789 55.63 31.3556 56.3244 31.2648C57.2328 31.1479 57.9694 31.0603 58.5339 31.0019C59.105 30.937 59.5203 30.83 59.7798 30.6807C60.0459 30.5315 60.1789 30.2719 60.1789 29.902V29.8242C60.1789 28.8638 59.9161 28.1175 59.3905 27.5854C58.8714 27.0533 58.0829 26.7872 57.0252 26.7872C55.9285 26.7872 55.0687 27.0273 54.4457 27.5075C53.8228 27.9877 53.3848 28.5004 53.1317 29.0455L50.9513 28.2668C51.3407 27.3583 51.8598 26.651 52.5087 26.1448C53.1641 25.6322 53.8779 25.2752 54.6502 25.0741C55.4289 24.8664 56.1946 24.7626 56.9473 24.7626C57.4275 24.7626 57.9791 24.821 58.6021 24.9378C59.2315 25.0481 59.8382 25.2785 60.4223 25.6289C61.0128 25.9793 61.5027 26.5082 61.8921 27.2155C62.2814 27.9228 62.4761 28.8702 62.4761 30.0578V39.9083H60.1789V37.8837H60.0621C59.9064 38.2082 59.6468 38.5553 59.2834 38.9252C58.92 39.2951 58.4366 39.6098 57.8331 39.8694C57.2296 40.129 56.4931 40.2587 55.6235 40.2587ZM55.9739 38.1952C56.8824 38.1952 57.6481 38.0167 58.2711 37.6598C58.9006 37.3029 59.3743 36.8422 59.6922 36.2776C60.0167 35.7131 60.1789 35.1193 60.1789 34.4964V32.3939C60.0816 32.5107 59.8674 32.6177 59.5365 32.7151C59.212 32.8059 58.8357 32.887 58.4074 32.9584C57.9856 33.0233 57.5735 33.0817 57.1712 33.1336C56.7754 33.1791 56.4541 33.218 56.2076 33.2504C55.6106 33.3283 55.0525 33.4548 54.5333 33.6301C54.0207 33.7988 53.6054 34.0551 53.2874 34.399C52.9759 34.7365 52.8202 35.1972 52.8202 35.7812C52.8202 36.5794 53.1155 37.1829 53.706 37.5917C54.303 37.994 55.059 38.1952 55.9739 38.1952ZM68.829 30.9143V39.9083H66.5319V24.9573H68.7511V27.2934H68.9458C69.2962 26.5341 69.8284 25.9242 70.5422 25.4634C71.256 24.9962 72.1774 24.7626 73.3065 24.7626C74.3189 24.7626 75.2046 24.9703 75.9639 25.3856C76.7231 25.7944 77.3136 26.4173 77.7354 27.2544C78.1572 28.0851 78.3681 29.1363 78.3681 30.4082V39.9083H76.0709V30.5639C76.0709 29.3894 75.7659 28.4744 75.156 27.819C74.546 27.1571 73.7089 26.8262 72.6447 26.8262C71.9114 26.8262 71.256 26.9851 70.6784 27.3031C70.1074 27.6211 69.6564 28.0851 69.3254 28.695C68.9945 29.305 68.829 30.0448 68.829 30.9143ZM100.591 28.3057L98.5276 28.8897C98.3978 28.5458 98.2064 28.2116 97.9533 27.8871C97.7067 27.5562 97.3693 27.2836 96.941 27.0695C96.5127 26.8554 95.9644 26.7483 95.296 26.7483C94.381 26.7483 93.6185 26.9592 93.0085 27.381C92.405 27.7963 92.1033 28.3252 92.1033 28.9676C92.1033 29.5386 92.311 29.9896 92.7263 30.3206C93.1416 30.6515 93.7905 30.9273 94.673 31.1479L96.8923 31.693C98.2291 32.0175 99.2252 32.5139 99.8806 33.1823C100.536 33.8442 100.864 34.6975 100.864 35.7423C100.864 36.5988 100.617 37.3646 100.124 38.0394C99.6372 38.7143 98.9559 39.2464 98.0798 39.6358C97.2038 40.0251 96.185 40.2198 95.0234 40.2198C93.4985 40.2198 92.2363 39.8889 91.237 39.227C90.2377 38.5651 89.605 37.5982 89.3389 36.3263L91.5193 35.7812C91.7269 36.5859 92.1195 37.1894 92.6971 37.5917C93.2811 37.994 94.0436 38.1952 94.9845 38.1952C96.0552 38.1952 96.9053 37.9681 97.5347 37.5138C98.1707 37.0531 98.4886 36.5015 98.4886 35.8591C98.4886 35.34 98.3069 34.9052 97.9435 34.5548C97.5802 34.1979 97.0221 33.9318 96.2693 33.7566L93.7775 33.1726C92.4083 32.8481 91.4025 32.3452 90.76 31.6638C90.1241 30.976 89.8061 30.1162 89.8061 29.0844C89.8061 28.2408 90.043 27.4945 90.5167 26.8456C90.9969 26.1967 91.6491 25.6873 92.4732 25.3174C93.3038 24.9475 94.2447 24.7626 95.296 24.7626C96.7755 24.7626 97.9371 25.0871 98.7807 25.736C99.6307 26.3849 100.234 27.2415 100.591 28.3057ZM110.258 40.2198C108.909 40.2198 107.724 39.8986 106.706 39.2562C105.693 38.6137 104.902 37.715 104.331 36.5599C103.766 35.4048 103.484 34.0551 103.484 32.5107C103.484 30.9533 103.766 29.5938 104.331 28.4322C104.902 27.2707 105.693 26.3687 106.706 25.7262C107.724 25.0838 108.909 24.7626 110.258 24.7626C111.608 24.7626 112.789 25.0838 113.801 25.7262C114.82 26.3687 115.612 27.2707 116.177 28.4322C116.748 29.5938 117.033 30.9533 117.033 32.5107C117.033 34.0551 116.748 35.4048 116.177 36.5599C115.612 37.715 114.82 38.6137 113.801 39.2562C112.789 39.8986 111.608 40.2198 110.258 40.2198ZM110.258 38.1562C111.284 38.1562 112.127 37.8934 112.789 37.3678C113.451 36.8422 113.941 36.1511 114.259 35.2945C114.577 34.438 114.736 33.51 114.736 32.5107C114.736 31.5113 114.577 30.5801 114.259 29.7171C113.941 28.854 113.451 28.1564 112.789 27.6243C112.127 27.0922 111.284 26.8262 110.258 26.8262C109.233 26.8262 108.39 27.0922 107.728 27.6243C107.066 28.1564 106.576 28.854 106.258 29.7171C105.94 30.5801 105.781 31.5113 105.781 32.5107C105.781 33.51 105.94 34.438 106.258 35.2945C106.576 36.1511 107.066 36.8422 107.728 37.3678C108.39 37.8934 109.233 38.1562 110.258 38.1562ZM120.403 39.9083V24.9573H122.622V27.2934H122.817C123.128 26.4952 123.631 25.8755 124.325 25.4342C125.02 24.9865 125.854 24.7626 126.827 24.7626C127.813 24.7626 128.634 24.9865 129.29 25.4342C129.951 25.8755 130.467 26.4952 130.837 27.2934H130.993C131.376 26.5212 131.95 25.9079 132.716 25.4537C133.482 24.993 134.4 24.7626 135.47 24.7626C136.807 24.7626 137.901 25.1812 138.751 26.0183C139.601 26.8489 140.026 28.1435 140.026 29.902V39.9083H137.729V29.902C137.729 28.7989 137.427 28.0104 136.823 27.5367C136.22 27.063 135.509 26.8262 134.692 26.8262C133.641 26.8262 132.826 27.1441 132.249 27.7801C131.671 28.4095 131.382 29.2077 131.382 30.1746V39.9083H129.046V29.6684C129.046 28.8183 128.77 28.1337 128.219 27.6146C127.667 27.089 126.957 26.8262 126.087 26.8262C125.49 26.8262 124.932 26.9851 124.413 27.3031C123.9 27.6211 123.485 28.0623 123.167 28.6269C122.856 29.185 122.7 29.8306 122.7 30.5639V39.9083H120.403ZM150.357 40.2198C148.917 40.2198 147.674 39.9018 146.629 39.2659C145.591 38.6235 144.79 37.728 144.225 36.5794C143.667 35.4243 143.388 34.0811 143.388 32.5496C143.388 31.0182 143.667 29.6684 144.225 28.5004C144.79 27.3258 145.575 26.4109 146.581 25.7554C147.593 25.0936 148.774 24.7626 150.124 24.7626C150.903 24.7626 151.672 24.8924 152.431 25.152C153.19 25.4115 153.881 25.8333 154.504 26.4173C155.127 26.9949 155.623 27.7606 155.993 28.7145C156.363 29.6684 156.548 30.843 156.548 32.2381V33.2115H145.023V31.2258H154.212C154.212 30.3822 154.043 29.6295 153.706 28.9676C153.375 28.3057 152.901 27.7833 152.285 27.4005C151.675 27.0176 150.954 26.8262 150.124 26.8262C149.209 26.8262 148.417 27.0533 147.749 27.5075C147.087 27.9553 146.578 28.5393 146.221 29.2596C145.864 29.9799 145.685 30.7521 145.685 31.5762V32.9C145.685 34.0291 145.88 34.9863 146.269 35.7715C146.665 36.5502 147.213 37.1439 147.914 37.5528C148.615 37.9551 149.43 38.1562 150.357 38.1562C150.961 38.1562 151.506 38.0719 151.993 37.9032C152.486 37.728 152.911 37.4684 153.268 37.1245C153.625 36.7741 153.901 36.3393 154.095 35.8201L156.315 36.4431C156.081 37.1959 155.688 37.8577 155.137 38.4288C154.585 38.9934 153.904 39.4346 153.093 39.7526C152.282 40.0641 151.37 40.2198 150.357 40.2198ZM165.979 40.2198C164.63 40.2198 163.445 39.8986 162.427 39.2562C161.414 38.6137 160.623 37.715 160.052 36.5599C159.487 35.4048 159.205 34.0551 159.205 32.5107C159.205 30.9533 159.487 29.5938 160.052 28.4322C160.623 27.2707 161.414 26.3687 162.427 25.7262C163.445 25.0838 164.63 24.7626 165.979 24.7626C167.329 24.7626 168.51 25.0838 169.522 25.7262C170.541 26.3687 171.333 27.2707 171.897 28.4322C172.469 29.5938 172.754 30.9533 172.754 32.5107C172.754 34.0551 172.469 35.4048 171.897 36.5599C171.333 37.715 170.541 38.6137 169.522 39.2562C168.51 39.8986 167.329 40.2198 165.979 40.2198ZM165.979 38.1562C167.005 38.1562 167.848 37.8934 168.51 37.3678C169.172 36.8422 169.662 36.1511 169.98 35.2945C170.298 34.438 170.457 33.51 170.457 32.5107C170.457 31.5113 170.298 30.5801 169.98 29.7171C169.662 28.854 169.172 28.1564 168.51 27.6243C167.848 27.0922 167.005 26.8262 165.979 26.8262C164.954 26.8262 164.11 27.0922 163.449 27.6243C162.787 28.1564 162.297 28.854 161.979 29.7171C161.661 30.5801 161.502 31.5113 161.502 32.5107C161.502 33.51 161.661 34.438 161.979 35.2945C162.297 36.1511 162.787 36.8422 163.449 37.3678C164.11 37.8934 164.954 38.1562 165.979 38.1562ZM178.421 30.9143V39.9083H176.124V24.9573H178.343V27.2934H178.538C178.888 26.5341 179.42 25.9242 180.134 25.4634C180.848 24.9962 181.769 24.7626 182.898 24.7626C183.911 24.7626 184.796 24.9703 185.556 25.3856C186.315 25.7944 186.905 26.4173 187.327 27.2544C187.749 28.0851 187.96 29.1363 187.96 30.4082V39.9083H185.663V30.5639C185.663 29.3894 185.358 28.4744 184.748 27.819C184.138 27.1571 183.301 26.8262 182.236 26.8262C181.503 26.8262 180.848 26.9851 180.27 27.3031C179.699 27.6211 179.248 28.0851 178.917 28.695C178.586 29.305 178.421 30.0448 178.421 30.9143ZM198.289 40.2198C196.848 40.2198 195.606 39.9018 194.561 39.2659C193.523 38.6235 192.721 37.728 192.157 36.5794C191.599 35.4243 191.32 34.0811 191.32 32.5496C191.32 31.0182 191.599 29.6684 192.157 28.5004C192.721 27.3258 193.506 26.4109 194.512 25.7554C195.525 25.0936 196.706 24.7626 198.055 24.7626C198.834 24.7626 199.603 24.8924 200.362 25.152C201.122 25.4115 201.813 25.8333 202.436 26.4173C203.059 26.9949 203.555 27.7606 203.925 28.7145C204.295 29.6684 204.48 30.843 204.48 32.2381V33.2115H192.955V31.2258H202.144C202.144 30.3822 201.975 29.6295 201.637 28.9676C201.306 28.3057 200.833 27.7833 200.216 27.4005C199.606 27.0176 198.886 26.8262 198.055 26.8262C197.14 26.8262 196.349 27.0533 195.68 27.5075C195.018 27.9553 194.509 28.5393 194.152 29.2596C193.795 29.9799 193.617 30.7521 193.617 31.5762V32.9C193.617 34.0291 193.811 34.9863 194.201 35.7715C194.597 36.5502 195.145 37.1439 195.846 37.5528C196.547 37.9551 197.361 38.1562 198.289 38.1562C198.892 38.1562 199.438 38.0719 199.924 37.9032C200.417 37.728 200.842 37.4684 201.199 37.1245C201.556 36.7741 201.832 36.3393 202.027 35.8201L204.246 36.4431C204.012 37.1959 203.62 37.8577 203.068 38.4288C202.517 38.9934 201.835 39.4346 201.024 39.7526C200.213 40.0641 199.301 40.2198 198.289 40.2198ZM225.999 28.3057L223.936 28.8897C223.806 28.5458 223.615 28.2116 223.362 27.8871C223.115 27.5562 222.778 27.2836 222.349 27.0695C221.921 26.8554 221.373 26.7483 220.704 26.7483C219.789 26.7483 219.027 26.9592 218.417 27.381C217.813 27.7963 217.512 28.3252 217.512 28.9676C217.512 29.5386 217.719 29.9896 218.135 30.3206C218.55 30.6515 219.199 30.9273 220.081 31.1479L222.301 31.693C223.637 32.0175 224.633 32.5139 225.289 33.1823C225.944 33.8442 226.272 34.6975 226.272 35.7423C226.272 36.5988 226.025 37.3646 225.532 38.0394C225.046 38.7143 224.364 39.2464 223.488 39.6358C222.612 40.0251 221.593 40.2198 220.432 40.2198C218.907 40.2198 217.645 39.8889 216.645 39.227C215.646 38.5651 215.013 37.5982 214.747 36.3263L216.928 35.7812C217.135 36.5859 217.528 37.1894 218.105 37.5917C218.689 37.994 219.452 38.1952 220.393 38.1952C221.464 38.1952 222.314 37.9681 222.943 37.5138C223.579 37.0531 223.897 36.5015 223.897 35.8591C223.897 35.34 223.715 34.9052 223.352 34.5548C222.988 34.1979 222.43 33.9318 221.678 33.7566L219.186 33.1726C217.817 32.8481 216.811 32.3452 216.168 31.6638C215.532 30.976 215.214 30.1162 215.214 29.0844C215.214 28.2408 215.451 27.4945 215.925 26.8456C216.405 26.1967 217.057 25.6873 217.881 25.3174C218.712 24.9475 219.653 24.7626 220.704 24.7626C222.184 24.7626 223.345 25.0871 224.189 25.736C225.039 26.3849 225.643 27.2415 225.999 28.3057ZM235.861 40.2198C234.421 40.2198 233.178 39.9018 232.133 39.2659C231.095 38.6235 230.294 37.728 229.729 36.5794C229.171 35.4243 228.892 34.0811 228.892 32.5496C228.892 31.0182 229.171 29.6684 229.729 28.5004C230.294 27.3258 231.079 26.4109 232.085 25.7554C233.097 25.0936 234.278 24.7626 235.628 24.7626C236.406 24.7626 237.175 24.8924 237.935 25.152C238.694 25.4115 239.385 25.8333 240.008 26.4173C240.631 26.9949 241.127 27.7606 241.497 28.7145C241.867 29.6684 242.052 30.843 242.052 32.2381V33.2115H230.527V31.2258H239.716C239.716 30.3822 239.547 29.6295 239.21 28.9676C238.879 28.3057 238.405 27.7833 237.789 27.4005C237.179 27.0176 236.458 26.8262 235.628 26.8262C234.713 26.8262 233.921 27.0533 233.253 27.5075C232.591 27.9553 232.081 28.5393 231.725 29.2596C231.368 29.9799 231.189 30.7521 231.189 31.5762V32.9C231.189 34.0291 231.384 34.9863 231.773 35.7715C232.169 36.5502 232.717 37.1439 233.418 37.5528C234.119 37.9551 234.933 38.1562 235.861 38.1562C236.465 38.1562 237.01 38.0719 237.497 37.9032C237.99 37.728 238.415 37.4684 238.772 37.1245C239.129 36.7741 239.404 36.3393 239.599 35.8201L241.818 36.4431C241.585 37.1959 241.192 37.8577 240.641 38.4288C240.089 38.9934 239.408 39.4346 238.597 39.7526C237.785 40.0641 236.874 40.2198 235.861 40.2198ZM247.707 30.9143V39.9083H245.409V24.9573H247.629V27.2934H247.823C248.174 26.5341 248.706 25.9242 249.42 25.4634C250.134 24.9962 251.055 24.7626 252.184 24.7626C253.196 24.7626 254.082 24.9703 254.841 25.3856C255.601 25.7944 256.191 26.4173 256.613 27.2544C257.035 28.0851 257.246 29.1363 257.246 30.4082V39.9083H254.948V30.5639C254.948 29.3894 254.644 28.4744 254.034 27.819C253.424 27.1571 252.586 26.8262 251.522 26.8262C250.789 26.8262 250.134 26.9851 249.556 27.3031C248.985 27.6211 248.534 28.0851 248.203 28.695C247.872 29.305 247.707 30.0448 247.707 30.9143ZM266.952 40.2198C265.706 40.2198 264.606 39.9051 263.652 39.2756C262.698 38.6397 261.952 37.7442 261.413 36.5891C260.875 35.4276 260.605 34.0551 260.605 32.4717C260.605 30.9014 260.875 29.5386 261.413 28.3836C261.952 27.2285 262.701 26.3362 263.662 25.7068C264.622 25.0773 265.732 24.7626 266.991 24.7626C267.964 24.7626 268.733 24.9248 269.298 25.2493C269.869 25.5673 270.304 25.9307 270.602 26.3395C270.907 26.7418 271.144 27.0727 271.313 27.3323H271.507V19.9736H273.804V39.9083H271.585V37.6112H271.313C271.144 37.8837 270.904 38.2276 270.592 38.6429C270.281 39.0518 269.836 39.4184 269.259 39.7429C268.681 40.0608 267.912 40.2198 266.952 40.2198ZM267.263 38.1562C268.185 38.1562 268.964 37.9162 269.599 37.436C270.235 36.9493 270.719 36.2776 271.05 35.4211C271.381 34.558 271.546 33.5619 271.546 32.4328C271.546 31.3167 271.384 30.34 271.06 29.5029C270.735 28.6594 270.255 28.0039 269.619 27.5367C268.983 27.063 268.198 26.8262 267.263 26.8262C266.29 26.8262 265.479 27.076 264.83 27.5757C264.187 28.0688 263.704 28.7405 263.38 29.5905C263.062 30.4341 262.903 31.3816 262.903 32.4328C262.903 33.497 263.065 34.4639 263.389 35.3335C263.72 36.1965 264.207 36.8844 264.849 37.397C265.498 37.9032 266.303 38.1562 267.263 38.1562ZM37.921 54.9573V56.904H30.173V54.9573H37.921ZM32.4312 51.3753H34.7284V65.6255C34.7284 66.2744 34.8225 66.7611 35.0107 67.0855C35.2053 67.4035 35.4519 67.6176 35.7504 67.728C36.0554 67.8318 36.3766 67.8837 36.7141 67.8837C36.9671 67.8837 37.1748 67.8707 37.337 67.8448C37.4992 67.8123 37.629 67.7864 37.7264 67.7669L38.1936 69.8305C38.0378 69.8889 37.8205 69.9473 37.5414 70.0057C37.2624 70.0706 36.9087 70.103 36.4804 70.103C35.8315 70.103 35.1956 69.9635 34.5726 69.6844C33.9562 69.4054 33.4435 68.9804 33.0347 68.4093C32.6324 67.8383 32.4312 67.118 32.4312 66.2484V51.3753ZM43.8579 60.9143V69.9083H41.5607V49.9736H43.8579V57.2934H44.0525C44.4029 56.5212 44.9286 55.9079 45.6294 55.4537C46.3367 54.993 47.2776 54.7626 48.4522 54.7626C49.471 54.7626 50.3632 54.967 51.129 55.3758C51.8947 55.7782 52.4884 56.3979 52.9102 57.235C53.3385 58.0656 53.5527 59.1233 53.5527 60.4082V69.9083H51.2555V60.5639C51.2555 59.3764 50.9473 58.4582 50.3308 57.8093C49.7208 57.1539 48.874 56.8262 47.7903 56.8262C47.0375 56.8262 46.3627 56.9851 45.7657 57.3031C45.1752 57.6211 44.7079 58.0851 44.364 58.695C44.0266 59.305 43.8579 60.0448 43.8579 60.9143ZM63.8867 70.2198C62.4461 70.2198 61.2034 69.9018 60.1587 69.2659C59.1204 68.6235 58.319 67.728 57.7544 66.5794C57.1964 65.4243 56.9173 64.0811 56.9173 62.5496C56.9173 61.0182 57.1964 59.6684 57.7544 58.5004C58.319 57.3258 59.1042 56.4109 60.11 55.7554C61.1223 55.0936 62.3033 54.7626 63.6531 54.7626C64.4318 54.7626 65.2008 54.8924 65.96 55.152C66.7192 55.4115 67.4103 55.8333 68.0333 56.4173C68.6562 56.9949 69.1527 57.7606 69.5225 58.7145C69.8924 59.6684 70.0774 60.843 70.0774 62.2381V63.2115H58.5526V61.2258H67.7413C67.7413 60.3822 67.5726 59.6295 67.2351 58.9676C66.9042 58.3057 66.4305 57.7833 65.814 57.4005C65.204 57.0176 64.4837 56.8262 63.6531 56.8262C62.7381 56.8262 61.9464 57.0533 61.2781 57.5075C60.6162 57.9553 60.1068 58.5393 59.7499 59.2596C59.393 59.9799 59.2145 60.7521 59.2145 61.5762V62.9C59.2145 64.0291 59.4092 64.9863 59.7985 65.7715C60.1944 66.5502 60.7427 67.1439 61.4435 67.5528C62.1444 67.9551 62.9588 68.1562 63.8867 68.1562C64.4902 68.1562 65.0353 68.0719 65.522 67.9032C66.0152 67.728 66.4402 67.4684 66.7971 67.1245C67.154 66.7741 67.4298 66.3393 67.6245 65.8201L69.8438 66.4431C69.6102 67.1959 69.2176 67.8577 68.666 68.4288C68.1144 68.9934 67.433 69.4346 66.6219 69.7526C65.8107 70.0641 64.899 70.2198 63.8867 70.2198ZM83.304 49.9736V69.9083H81.0068V49.9736H83.304ZM87.3743 69.9083V54.9573H89.6715V69.9083H87.3743ZM88.5424 52.4654C88.0946 52.4654 87.7085 52.3129 87.3841 52.008C87.0661 51.703 86.9071 51.3363 86.9071 50.908C86.9071 50.4798 87.0661 50.1131 87.3841 49.8081C87.7085 49.5031 88.0946 49.3506 88.5424 49.3506C88.9902 49.3506 89.373 49.5031 89.691 49.8081C90.0154 50.1131 90.1777 50.4798 90.1777 50.908C90.1777 51.3363 90.0154 51.703 89.691 52.008C89.373 52.3129 88.9902 52.4654 88.5424 52.4654ZM96.039 60.9143V69.9083H93.7419V54.9573H95.9612V57.2934H96.1558C96.5063 56.5341 97.0384 55.9242 97.7522 55.4634C98.466 54.9962 99.3875 54.7626 100.517 54.7626C101.529 54.7626 102.415 54.9703 103.174 55.3856C103.933 55.7944 104.524 56.4173 104.945 57.2544C105.367 58.0851 105.578 59.1363 105.578 60.4082V69.9083H103.281V60.5639C103.281 59.3894 102.976 58.4744 102.366 57.819C101.756 57.1571 100.919 56.8262 99.8547 56.8262C99.1214 56.8262 98.466 56.9851 97.8885 57.3031C97.3174 57.6211 96.8664 58.0851 96.5355 58.695C96.2045 59.305 96.039 60.0448 96.039 60.9143ZM111.78 64.4574L111.741 61.6152H112.208L118.75 54.9573H121.592L114.622 62.0045H114.428L111.78 64.4574ZM109.639 69.9083V49.9736H111.936V69.9083H109.639ZM119.139 69.9083L113.299 62.5107L114.934 60.9143L122.059 69.9083H119.139ZM136.383 70.2587C135.436 70.2587 134.576 70.0803 133.804 69.7234C133.031 69.36 132.418 68.8376 131.964 68.1562C131.51 67.4684 131.283 66.6378 131.283 65.6644C131.283 64.8078 131.451 64.1135 131.789 63.5814C132.126 63.0428 132.577 62.621 133.142 62.316C133.706 62.011 134.329 61.7839 135.011 61.6346C135.699 61.4789 136.39 61.3556 137.084 61.2648C137.992 61.1479 138.729 61.0603 139.294 61.0019C139.865 60.937 140.28 60.83 140.539 60.6807C140.805 60.5315 140.939 60.2719 140.939 59.902V59.8242C140.939 58.8638 140.676 58.1175 140.15 57.5854C139.631 57.0533 138.843 56.7872 137.785 56.7872C136.688 56.7872 135.828 57.0273 135.205 57.5075C134.582 57.9877 134.144 58.5004 133.891 59.0455L131.711 58.2668C132.1 57.3583 132.619 56.651 133.268 56.1448C133.924 55.6322 134.638 55.2752 135.41 55.0741C136.188 54.8664 136.954 54.7626 137.707 54.7626C138.187 54.7626 138.739 54.821 139.362 54.9378C139.991 55.0481 140.598 55.2785 141.182 55.6289C141.772 55.9793 142.262 56.5082 142.652 57.2155C143.041 57.9228 143.236 58.8702 143.236 60.0578V69.9083H140.939V67.8837H140.822C140.666 68.2082 140.406 68.5553 140.043 68.9252C139.68 69.2951 139.196 69.6098 138.593 69.8694C137.989 70.129 137.253 70.2587 136.383 70.2587ZM136.734 68.1952C137.642 68.1952 138.408 68.0167 139.031 67.6598C139.66 67.3029 140.134 66.8422 140.452 66.2776C140.776 65.7131 140.939 65.1193 140.939 64.4964V62.3939C140.841 62.5107 140.627 62.6177 140.296 62.7151C139.972 62.8059 139.595 62.887 139.167 62.9584C138.745 63.0233 138.333 63.0817 137.931 63.1336C137.535 63.1791 137.214 63.218 136.967 63.2504C136.37 63.3283 135.812 63.4548 135.293 63.6301C134.78 63.7988 134.365 64.0551 134.047 64.399C133.736 64.7365 133.58 65.1972 133.58 65.7812C133.58 66.5794 133.875 67.1829 134.466 67.5917C135.063 67.994 135.819 68.1952 136.734 68.1952ZM153.326 75.8264C152.217 75.8264 151.263 75.6837 150.465 75.3982C149.666 75.1191 149.001 74.7492 148.469 74.2885C147.944 73.8343 147.525 73.3476 147.214 72.8285L149.044 71.5436C149.251 71.8161 149.514 72.1276 149.832 72.478C150.15 72.8349 150.585 73.1432 151.136 73.4027C151.694 73.6688 152.424 73.8018 153.326 73.8018C154.533 73.8018 155.529 73.5098 156.315 72.9258C157.1 72.3418 157.492 71.4268 157.492 70.1809V67.1439H157.298C157.129 67.4165 156.889 67.7539 156.577 68.1562C156.272 68.5521 155.831 68.9057 155.254 69.2172C154.683 69.5222 153.91 69.6747 152.937 69.6747C151.73 69.6747 150.646 69.3892 149.686 68.8181C148.732 68.2471 147.976 67.4165 147.418 66.3263C146.866 65.2361 146.591 63.9123 146.591 62.3549C146.591 60.8235 146.86 59.49 147.399 58.3544C147.937 57.2123 148.687 56.3297 149.647 55.7068C150.607 55.0773 151.717 54.7626 152.976 54.7626C153.949 54.7626 154.722 54.9248 155.293 55.2493C155.87 55.5673 156.311 55.9307 156.616 56.3395C156.928 56.7418 157.168 57.0727 157.337 57.3323H157.57V54.9573H159.79V70.3366C159.79 71.6215 159.498 72.6662 158.914 73.4709C158.336 74.282 157.557 74.8758 156.577 75.2522C155.604 75.635 154.52 75.8264 153.326 75.8264ZM153.248 67.6112C154.17 67.6112 154.949 67.4003 155.585 66.9785C156.221 66.5567 156.704 65.9499 157.035 65.1583C157.366 64.3666 157.531 63.4192 157.531 62.316C157.531 61.2388 157.369 60.2881 157.045 59.464C156.72 58.6399 156.24 57.9942 155.604 57.527C154.968 57.0598 154.183 56.8262 153.248 56.8262C152.275 56.8262 151.464 57.0727 150.815 57.5659C150.173 58.0591 149.689 58.721 149.365 59.5516C149.047 60.3822 148.888 61.3037 148.888 62.316C148.888 63.3543 149.05 64.2725 149.374 65.0706C149.705 65.8623 150.192 66.4853 150.835 66.9395C151.483 67.3873 152.288 67.6112 153.248 67.6112ZM168.257 70.2587C167.31 70.2587 166.45 70.0803 165.678 69.7234C164.906 69.36 164.292 68.8376 163.838 68.1562C163.384 67.4684 163.157 66.6378 163.157 65.6644C163.157 64.8078 163.325 64.1135 163.663 63.5814C164 63.0428 164.451 62.621 165.016 62.316C165.58 62.011 166.203 61.7839 166.885 61.6346C167.573 61.4789 168.264 61.3556 168.958 61.2648C169.866 61.1479 170.603 61.0603 171.168 61.0019C171.739 60.937 172.154 60.83 172.413 60.6807C172.68 60.5315 172.813 60.2719 172.813 59.902V59.8242C172.813 58.8638 172.55 58.1175 172.024 57.5854C171.505 57.0533 170.717 56.7872 169.659 56.7872C168.562 56.7872 167.702 57.0273 167.079 57.5075C166.456 57.9877 166.018 58.5004 165.765 59.0455L163.585 58.2668C163.974 57.3583 164.493 56.651 165.142 56.1448C165.798 55.6322 166.512 55.2752 167.284 55.0741C168.062 54.8664 168.828 54.7626 169.581 54.7626C170.061 54.7626 170.613 54.821 171.236 54.9378C171.865 55.0481 172.472 55.2785 173.056 55.6289C173.646 55.9793 174.136 56.5082 174.526 57.2155C174.915 57.9228 175.11 58.8702 175.11 60.0578V69.9083H172.813V67.8837H172.696C172.54 68.2082 172.28 68.5553 171.917 68.9252C171.554 69.2951 171.07 69.6098 170.467 69.8694C169.863 70.129 169.127 70.2587 168.257 70.2587ZM168.608 68.1952C169.516 68.1952 170.282 68.0167 170.905 67.6598C171.534 67.3029 172.008 66.8422 172.326 66.2776C172.65 65.7131 172.813 65.1193 172.813 64.4964V62.3939C172.715 62.5107 172.501 62.6177 172.17 62.7151C171.846 62.8059 171.469 62.887 171.041 62.9584C170.619 63.0233 170.207 63.0817 169.805 63.1336C169.409 63.1791 169.088 63.218 168.841 63.2504C168.244 63.3283 167.686 63.4548 167.167 63.6301C166.654 63.7988 166.239 64.0551 165.921 64.399C165.61 64.7365 165.454 65.1972 165.454 65.7812C165.454 66.5794 165.749 67.1829 166.34 67.5917C166.937 67.994 167.693 68.1952 168.608 68.1952ZM179.165 69.9083V54.9573H181.463V69.9083H179.165ZM180.334 52.4654C179.886 52.4654 179.5 52.3129 179.175 52.008C178.857 51.703 178.698 51.3363 178.698 50.908C178.698 50.4798 178.857 50.1131 179.175 49.8081C179.5 49.5031 179.886 49.3506 180.334 49.3506C180.781 49.3506 181.164 49.5031 181.482 49.8081C181.807 50.1131 181.969 50.4798 181.969 50.908C181.969 51.3363 181.807 51.703 181.482 52.008C181.164 52.3129 180.781 52.4654 180.334 52.4654ZM187.83 60.9143V69.9083H185.533V54.9573H187.752V57.2934H187.947C188.297 56.5341 188.83 55.9242 189.543 55.4634C190.257 54.9962 191.179 54.7626 192.308 54.7626C193.32 54.7626 194.206 54.9703 194.965 55.3856C195.724 55.7944 196.315 56.4173 196.737 57.2544C197.158 58.0851 197.369 59.1363 197.369 60.4082V69.9083H195.072V60.5639C195.072 59.3894 194.767 58.4744 194.157 57.819C193.547 57.1571 192.71 56.8262 191.646 56.8262C190.913 56.8262 190.257 56.9851 189.68 57.3031C189.109 57.6211 188.658 58.0851 188.327 58.695C187.996 59.305 187.83 60.0448 187.83 60.9143ZM204.428 64.3017V64.1849C204.441 62.9454 204.571 61.9591 204.817 61.2258C205.064 60.4925 205.414 59.8988 205.868 59.4445C206.323 58.9903 206.868 58.5717 207.504 58.1889C207.887 57.9553 208.231 57.6795 208.536 57.3615C208.841 57.0371 209.081 56.6639 209.256 56.2421C209.438 55.8203 209.528 55.3531 209.528 54.8405C209.528 54.2045 209.379 53.653 209.081 53.1857C208.782 52.7185 208.383 52.3584 207.883 52.1053C207.384 51.8522 206.829 51.7257 206.219 51.7257C205.687 51.7257 205.174 51.836 204.681 52.0566C204.188 52.2773 203.776 52.6244 203.445 53.0981C203.114 53.5718 202.922 54.1916 202.87 54.9573H200.418C200.469 53.8541 200.755 52.9099 201.274 52.1248C201.8 51.3396 202.491 50.7393 203.347 50.324C204.21 49.9087 205.168 49.7011 206.219 49.7011C207.361 49.7011 208.354 49.9282 209.197 50.3824C210.047 50.8367 210.703 51.4596 211.164 52.2513C211.631 53.043 211.864 53.945 211.864 54.9573C211.864 55.6711 211.754 56.3168 211.534 56.8943C211.319 57.4718 211.008 57.9877 210.599 58.442C210.197 58.8962 209.71 59.2985 209.139 59.6489C208.568 60.0059 208.11 60.3822 207.767 60.7781C207.423 61.1674 207.173 61.6314 207.017 62.17C206.861 62.7086 206.777 63.3802 206.764 64.1849V64.3017H204.428ZM205.674 70.0641C205.194 70.0641 204.782 69.8921 204.438 69.5482C204.094 69.2043 203.922 68.7922 203.922 68.312C203.922 67.8318 204.094 67.4197 204.438 67.0758C204.782 66.7319 205.194 66.5599 205.674 66.5599C206.154 66.5599 206.566 66.7319 206.91 67.0758C207.254 67.4197 207.426 67.8318 207.426 68.312C207.426 68.63 207.345 68.922 207.183 69.188C207.027 69.4541 206.816 69.6682 206.55 69.8305C206.29 69.9862 205.998 70.0641 205.674 70.0641Z" fill="white"/>
<path d="M339.847 20.0556C339.847 9.20175 331.048 0.402954 320.194 0.402954V0.402954V28.8475H339.847V20.0556Z" fill="#278EFF" stroke="#278EFF" stroke-width="0.805851"/>
<rect width="19.6526" height="32.1214" transform="matrix(-1 0 0 1 339.847 28.8477)" fill="#278EFF" stroke="#278EFF" stroke-width="0.805851"/>
<path d="M339.847 69.7609C339.847 80.6148 331.048 89.4136 320.194 89.4136V89.4136V60.969H339.847V69.7609Z" fill="#278EFF" stroke="#278EFF" stroke-width="0.805851"/>
</svg>
