<svg width="341" height="60" viewBox="0 0 341 60" fill="none" xmlns="http://www.w3.org/2000/svg">
<path d="M0.402832 20.0556C0.402832 9.20175 9.20161 0.402954 20.0555 0.402954V0.402954V28.8475H0.402832V20.0556Z" fill="#278EFF" stroke="#278EFF" stroke-width="0.805851"/>
<rect x="0.402832" y="28.8475" width="19.6526" height="2.12144" fill="#278EFF" stroke="#278EFF" stroke-width="0.805851"/>
<path d="M0.402832 39.7609C0.402832 50.6148 9.20161 59.4136 20.0555 59.4136V59.4136V30.969H0.402832V39.7609Z" fill="#278EFF" stroke="#278EFF" stroke-width="0.805851"/>
<rect x="20.0557" y="0.402954" width="290.877" height="59.0106" fill="#278EFF"/>
<rect x="20.0557" y="0.402954" width="290.877" height="59.0106" stroke="#278EFF" stroke-width="0.805851"/>
<path d="M26.0906 39.9082L20.6397 19.9735H23.0926L27.2586 36.2094H27.4533L31.6972 19.9735H34.4227L38.6666 36.2094H38.8613L43.0273 19.9735H45.4802L40.0293 39.9082H37.5375L33.1378 24.0227H32.9821L28.5824 39.9082H26.0906ZM50.3366 30.9142V39.9082H48.0394V19.9735H50.3366V27.2933H50.5313C50.8817 26.521 51.4073 25.9078 52.1081 25.4536C52.8155 24.9928 53.7564 24.7625 54.9309 24.7625C55.9497 24.7625 56.842 24.9669 57.6077 25.3757C58.3734 25.778 58.9672 26.3978 59.389 27.2349C59.8173 28.0655 60.0314 29.1232 60.0314 30.4081V39.9082H57.7342V30.5638C57.7342 29.3763 57.426 28.4581 56.8095 27.8091C56.1996 27.1537 55.3527 26.826 54.269 26.826C53.5163 26.826 52.8414 26.985 52.2444 27.303C51.6539 27.621 51.1867 28.0849 50.8427 28.6949C50.5053 29.3049 50.3366 30.0447 50.3366 30.9142ZM70.1708 40.2197C68.821 40.2197 67.6367 39.8985 66.6179 39.256C65.6056 38.6136 64.814 37.7149 64.2429 36.5598C63.6784 35.4047 63.3961 34.055 63.3961 32.5106C63.3961 30.9532 63.6784 29.5937 64.2429 28.4321C64.814 27.2705 65.6056 26.3686 66.6179 25.7261C67.6367 25.0837 68.821 24.7625 70.1708 24.7625C71.5205 24.7625 72.7015 25.0837 73.7139 25.7261C74.7327 26.3686 75.5243 27.2705 76.0889 28.4321C76.6599 29.5937 76.9455 30.9532 76.9455 32.5106C76.9455 34.055 76.6599 35.4047 76.0889 36.5598C75.5243 37.7149 74.7327 38.6136 73.7139 39.256C72.7015 39.8985 71.5205 40.2197 70.1708 40.2197ZM70.1708 38.1561C71.1961 38.1561 72.0396 37.8933 72.7015 37.3677C73.3634 36.8421 73.8534 36.151 74.1713 35.2944C74.4893 34.4378 74.6483 33.5099 74.6483 32.5106C74.6483 31.5112 74.4893 30.58 74.1713 29.717C73.8534 28.8539 73.3634 28.1563 72.7015 27.6242C72.0396 27.0921 71.1961 26.826 70.1708 26.826C69.1455 26.826 68.3019 27.0921 67.64 27.6242C66.9781 28.1563 66.4882 28.8539 66.1702 29.717C65.8522 30.58 65.6932 31.5112 65.6932 32.5106C65.6932 33.5099 65.8522 34.4378 66.1702 35.2944C66.4882 36.151 66.9781 36.8421 67.64 37.3677C68.3019 37.8933 69.1455 38.1561 70.1708 38.1561ZM97.3093 33.7954V24.9572H99.6065V39.9082H97.3093V37.3774H97.1536C96.8032 38.1367 96.2581 38.7823 95.5183 39.3144C94.7786 39.8401 93.8441 40.1029 92.715 40.1029C91.7806 40.1029 90.95 39.8985 90.2232 39.4897C89.4964 39.0743 88.9253 38.4514 88.51 37.6208C88.0947 36.7837 87.8871 35.7292 87.8871 34.4573V24.9572H90.1842V34.3016C90.1842 35.3917 90.4892 36.2613 91.0992 36.9102C91.7157 37.5591 92.5009 37.8836 93.4548 37.8836C94.0258 37.8836 94.6066 37.7376 95.1971 37.4456C95.7941 37.1536 96.2938 36.7058 96.6961 36.1023C97.1049 35.4988 97.3093 34.7298 97.3093 33.7954ZM103.677 45.5148V24.9572H105.896V27.3322H106.169C106.337 27.0726 106.571 26.7417 106.87 26.3394C107.175 25.9305 107.609 25.5671 108.174 25.2492C108.745 24.9247 109.517 24.7625 110.491 24.7625C111.749 24.7625 112.859 25.0772 113.819 25.7067C114.78 26.3361 115.529 27.2284 116.068 28.3834C116.607 29.5385 116.876 30.9012 116.876 32.4716C116.876 34.055 116.607 35.4274 116.068 36.589C115.529 37.7441 114.783 38.6396 113.829 39.2755C112.875 39.905 111.775 40.2197 110.529 40.2197C109.569 40.2197 108.8 40.0607 108.223 39.7427C107.645 39.4183 107.2 39.0516 106.889 38.6428C106.578 38.2275 106.337 37.8836 106.169 37.611H105.974V45.5148H103.677ZM105.935 32.4327C105.935 33.5618 106.101 34.5579 106.432 35.4209C106.762 36.2775 107.246 36.9491 107.882 37.4358C108.518 37.916 109.296 38.1561 110.218 38.1561C111.178 38.1561 111.98 37.9031 112.622 37.3969C113.271 36.8843 113.758 36.1964 114.082 35.3333C114.413 34.4638 114.579 33.4969 114.579 32.4327C114.579 31.3814 114.416 30.434 114.092 29.5904C113.774 28.7403 113.291 28.0687 112.642 27.5755C111.999 27.0759 111.191 26.826 110.218 26.826C109.284 26.826 108.498 27.0629 107.862 27.5366C107.226 28.0038 106.746 28.6592 106.422 29.5028C106.097 30.3399 105.935 31.3165 105.935 32.4327ZM125.889 40.2197C124.643 40.2197 123.543 39.905 122.589 39.2755C121.635 38.6396 120.889 37.7441 120.35 36.589C119.811 35.4274 119.542 34.055 119.542 32.4716C119.542 30.9012 119.811 29.5385 120.35 28.3834C120.889 27.2284 121.638 26.3361 122.599 25.7067C123.559 25.0772 124.669 24.7625 125.927 24.7625C126.901 24.7625 127.67 24.9247 128.234 25.2492C128.805 25.5671 129.24 25.9305 129.539 26.3394C129.844 26.7417 130.081 27.0726 130.249 27.3322H130.444V19.9735H132.741V39.9082H130.522V37.611H130.249C130.081 37.8836 129.84 38.2275 129.529 38.6428C129.217 39.0516 128.773 39.4183 128.195 39.7427C127.618 40.0607 126.849 40.2197 125.889 40.2197ZM126.2 38.1561C127.121 38.1561 127.9 37.916 128.536 37.4358C129.172 36.9491 129.655 36.2775 129.986 35.4209C130.317 34.5579 130.483 33.5618 130.483 32.4327C130.483 31.3165 130.321 30.3399 129.996 29.5028C129.672 28.6592 129.192 28.0038 128.556 27.5366C127.92 27.0629 127.134 26.826 126.2 26.826C125.227 26.826 124.415 27.0759 123.767 27.5755C123.124 28.0687 122.641 28.7403 122.316 29.5904C121.998 30.434 121.839 31.3814 121.839 32.4327C121.839 33.4969 122.002 34.4638 122.326 35.3333C122.657 36.1964 123.144 36.8843 123.786 37.3969C124.435 37.9031 125.24 38.1561 126.2 38.1561ZM141.53 40.2586C140.582 40.2586 139.723 40.0802 138.95 39.7233C138.178 39.3599 137.565 38.8375 137.111 38.1561C136.657 37.4683 136.429 36.6377 136.429 35.6643C136.429 34.8077 136.598 34.1134 136.936 33.5813C137.273 33.0427 137.724 32.6209 138.289 32.3159C138.853 32.0109 139.476 31.7838 140.157 31.6345C140.845 31.4788 141.536 31.3555 142.231 31.2646C143.139 31.1478 143.876 31.0602 144.44 31.0018C145.011 30.9369 145.427 30.8299 145.686 30.6806C145.952 30.5314 146.085 30.2718 146.085 29.9019V29.824C146.085 28.8636 145.822 28.1174 145.297 27.5853C144.778 27.0532 143.989 26.7871 142.932 26.7871C141.835 26.7871 140.975 27.0272 140.352 27.5074C139.729 27.9876 139.291 28.5002 139.038 29.0453L136.858 28.2666C137.247 27.3582 137.766 26.6508 138.415 26.1447C139.07 25.632 139.784 25.2751 140.557 25.074C141.335 24.8663 142.101 24.7625 142.854 24.7625C143.334 24.7625 143.885 24.8209 144.508 24.9377C145.138 25.048 145.745 25.2784 146.329 25.6288C146.919 25.9792 147.409 26.5081 147.798 27.2154C148.188 27.9227 148.382 28.8701 148.382 30.0576V39.9082H146.085V37.8836H145.968C145.813 38.208 145.553 38.5552 145.19 38.9251C144.826 39.295 144.343 39.6097 143.739 39.8693C143.136 40.1288 142.399 40.2586 141.53 40.2586ZM141.88 38.1951C142.789 38.1951 143.555 38.0166 144.177 37.6597C144.807 37.3028 145.281 36.8421 145.599 36.2775C145.923 35.713 146.085 35.1192 146.085 34.4962V32.3937C145.988 32.5106 145.774 32.6176 145.443 32.715C145.118 32.8058 144.742 32.8869 144.314 32.9583C143.892 33.0232 143.48 33.0816 143.078 33.1335C142.682 33.1789 142.36 33.2179 142.114 33.2503C141.517 33.3282 140.959 33.4547 140.44 33.6299C139.927 33.7987 139.512 34.055 139.194 34.3989C138.882 34.7363 138.727 35.1971 138.727 35.7811C138.727 36.5793 139.022 37.1828 139.612 37.5916C140.209 37.9939 140.965 38.1951 141.88 38.1951ZM158.94 24.9572V26.9039H151.192V24.9572H158.94ZM153.451 21.3751H155.748V35.6254C155.748 36.2743 155.842 36.761 156.03 37.0854C156.225 37.4034 156.471 37.6175 156.77 37.7278C157.075 37.8317 157.396 37.8836 157.733 37.8836C157.986 37.8836 158.194 37.8706 158.356 37.8446C158.519 37.8122 158.648 37.7862 158.746 37.7668L159.213 39.8303C159.057 39.8887 158.84 39.9471 158.561 40.0055C158.282 40.0704 157.928 40.1029 157.5 40.1029C156.851 40.1029 156.215 39.9634 155.592 39.6843C154.975 39.4053 154.463 38.9803 154.054 38.4092C153.652 37.8382 153.451 37.1179 153.451 36.2483V21.3751ZM168.367 40.2197C166.926 40.2197 165.683 39.9017 164.639 39.2658C163.6 38.6233 162.799 37.7278 162.234 36.5793C161.676 35.4242 161.397 34.0809 161.397 32.5495C161.397 31.018 161.676 29.6683 162.234 28.5002C162.799 27.3257 163.584 26.4107 164.59 25.7553C165.602 25.0934 166.783 24.7625 168.133 24.7625C168.912 24.7625 169.681 24.8923 170.44 25.1518C171.199 25.4114 171.89 25.8332 172.513 26.4172C173.136 26.9948 173.633 27.7605 174.003 28.7144C174.372 29.6683 174.557 30.8428 174.557 32.238V33.2114H163.033V31.2257H172.221C172.221 30.3821 172.053 29.6294 171.715 28.9675C171.384 28.3056 170.91 27.7832 170.294 27.4003C169.684 27.0175 168.964 26.826 168.133 26.826C167.218 26.826 166.426 27.0532 165.758 27.5074C165.096 27.9552 164.587 28.5392 164.23 29.2595C163.873 29.9798 163.695 30.752 163.695 31.5761V32.8999C163.695 34.029 163.889 34.9862 164.279 35.7714C164.674 36.5501 165.223 37.1438 165.924 37.5526C166.624 37.955 167.439 38.1561 168.367 38.1561C168.97 38.1561 169.515 38.0718 170.002 37.903C170.495 37.7278 170.92 37.4683 171.277 37.1243C171.634 36.7739 171.91 36.3392 172.104 35.82L174.324 36.443C174.09 37.1957 173.698 37.8576 173.146 38.4287C172.594 38.9932 171.913 39.4345 171.102 39.7525C170.291 40.0639 169.379 40.2197 168.367 40.2197ZM183.56 40.2197C182.314 40.2197 181.214 39.905 180.261 39.2755C179.307 38.6396 178.56 37.7441 178.022 36.589C177.483 35.4274 177.214 34.055 177.214 32.4716C177.214 30.9012 177.483 29.5385 178.022 28.3834C178.56 27.2284 179.31 26.3361 180.27 25.7067C181.231 25.0772 182.34 24.7625 183.599 24.7625C184.573 24.7625 185.342 24.9247 185.906 25.2492C186.477 25.5671 186.912 25.9305 187.21 26.3394C187.515 26.7417 187.752 27.0726 187.921 27.3322H188.116V19.9735H190.413V39.9082H188.194V37.611H187.921C187.752 37.8836 187.512 38.2275 187.201 38.6428C186.889 39.0516 186.445 39.4183 185.867 39.7427C185.29 40.0607 184.521 40.2197 183.56 40.2197ZM183.872 38.1561C184.793 38.1561 185.572 37.916 186.208 37.4358C186.844 36.9491 187.327 36.2775 187.658 35.4209C187.989 34.5579 188.155 33.5618 188.155 32.4327C188.155 31.3165 187.992 30.3399 187.668 29.5028C187.344 28.6592 186.863 28.0038 186.227 27.5366C185.591 27.0629 184.806 26.826 183.872 26.826C182.898 26.826 182.087 27.0759 181.438 27.5755C180.796 28.0687 180.312 28.7403 179.988 29.5904C179.67 30.434 179.511 31.3814 179.511 32.4327C179.511 33.4969 179.673 34.4638 179.998 35.3333C180.329 36.1964 180.815 36.8843 181.458 37.3969C182.107 37.9031 182.911 38.1561 183.872 38.1561ZM202.374 39.9082V24.9572H204.671V39.9082H202.374ZM203.542 22.4653C203.094 22.4653 202.708 22.3128 202.384 22.0078C202.066 21.7028 201.907 21.3362 201.907 20.9079C201.907 20.4796 202.066 20.113 202.384 19.808C202.708 19.503 203.094 19.3505 203.542 19.3505C203.99 19.3505 204.373 19.503 204.691 19.808C205.015 20.113 205.177 20.4796 205.177 20.9079C205.177 21.3362 205.015 21.7028 204.691 22.0078C204.373 22.3128 203.99 22.4653 203.542 22.4653ZM215.244 24.9572V26.9039H207.496V24.9572H215.244ZM209.754 21.3751H212.051V35.6254C212.051 36.2743 212.145 36.761 212.333 37.0854C212.528 37.4034 212.775 37.6175 213.073 37.7278C213.378 37.8317 213.699 37.8836 214.037 37.8836C214.29 37.8836 214.498 37.8706 214.66 37.8446C214.822 37.8122 214.952 37.7862 215.049 37.7668L215.516 39.8303C215.361 39.8887 215.143 39.9471 214.864 40.0055C214.585 40.0704 214.231 40.1029 213.803 40.1029C213.154 40.1029 212.518 39.9634 211.895 39.6843C211.279 39.4053 210.766 38.9803 210.357 38.4092C209.955 37.8382 209.754 37.1179 209.754 36.2483V21.3751ZM221.56 34.3016V34.1848C221.573 32.9453 221.703 31.959 221.95 31.2257C222.196 30.4924 222.547 29.8987 223.001 29.4444C223.455 28.9902 224 28.5716 224.636 28.1888C225.019 27.9552 225.363 27.6794 225.668 27.3614C225.973 27.0369 226.213 26.6638 226.388 26.242C226.57 25.8202 226.661 25.353 226.661 24.8404C226.661 24.2044 226.511 23.6528 226.213 23.1856C225.914 22.7184 225.515 22.3582 225.016 22.1052C224.516 21.8521 223.961 21.7256 223.351 21.7256C222.819 21.7256 222.306 21.8359 221.813 22.0565C221.32 22.2771 220.908 22.6243 220.577 23.098C220.246 23.5717 220.055 24.1914 220.003 24.9572H217.55C217.602 23.854 217.887 22.9098 218.406 22.1246C218.932 21.3394 219.623 20.7392 220.48 20.3239C221.343 19.9086 222.3 19.7009 223.351 19.7009C224.493 19.7009 225.486 19.9281 226.33 20.3823C227.18 20.8365 227.835 21.4595 228.296 22.2512C228.763 23.0429 228.997 23.9448 228.997 24.9572C228.997 25.671 228.886 26.3166 228.666 26.8942C228.452 27.4717 228.14 27.9876 227.731 28.4418C227.329 28.8961 226.842 29.2984 226.271 29.6488C225.7 30.0057 225.243 30.3821 224.899 30.7779C224.555 31.1673 224.305 31.6313 224.149 32.1699C223.994 32.7085 223.909 33.3801 223.896 34.1848V34.3016H221.56ZM222.806 40.0639C222.326 40.0639 221.914 39.892 221.57 39.5481C221.226 39.2041 221.054 38.7921 221.054 38.3119C221.054 37.8317 221.226 37.4196 221.57 37.0757C221.914 36.7318 222.326 36.5598 222.806 36.5598C223.286 36.5598 223.698 36.7318 224.042 37.0757C224.386 37.4196 224.558 37.8317 224.558 38.3119C224.558 38.6298 224.477 38.9218 224.315 39.1879C224.159 39.454 223.948 39.6681 223.682 39.8303C223.423 39.9861 223.131 40.0639 222.806 40.0639Z" fill="white"/>
<path d="M330.585 20.0556C330.585 9.20175 321.787 0.402954 310.933 0.402954V0.402954V28.8475H330.585V20.0556Z" fill="#278EFF" stroke="#278EFF" stroke-width="0.805851"/>
<rect width="19.6526" height="2.1217" transform="matrix(-1 0 0 1 330.585 28.8477)" fill="#278EFF" stroke="#278EFF" stroke-width="0.805851"/>
<path d="M310.933 30.9692V59.4136C315.692 59.4136 320.056 57.7211 323.457 54.9058C326.849 57.1658 332.288 59.3156 338.86 58.1206C337.05 57.3447 330.069 52.6904 330.327 43.3813C330.296 43.4236 330.262 43.463 330.229 43.5034C330.462 42.2919 330.586 41.0409 330.586 39.7612V30.9692H310.933Z" fill="#278EFF"/>
<path d="M310.933 30.9692H310.53V30.5663H310.933V30.9692ZM310.933 59.4136V59.8165H310.53V59.4136H310.933ZM323.457 54.9058L323.2 54.5954L323.431 54.4042L323.68 54.5704L323.457 54.9058ZM338.86 58.1206L339.019 57.7503L340.249 58.2776L338.932 58.517L338.86 58.1206ZM330.327 43.3813L330.001 43.1444L330.766 42.0929L330.73 43.3925L330.327 43.3813ZM330.229 43.5034L330.539 43.7597L329.833 43.4271L330.229 43.5034ZM330.586 39.7612L330.989 39.7612L330.989 39.7612L330.586 39.7612ZM330.586 30.9692V30.5663H330.989V30.9692H330.586ZM310.933 30.9692H311.336V59.4136H310.933H310.53V30.9692H310.933ZM310.933 59.4136V59.0106C315.595 59.0106 319.869 57.3532 323.2 54.5954L323.457 54.9058L323.714 55.2161C320.244 58.0891 315.79 59.8165 310.933 59.8165V59.4136ZM323.457 54.9058L323.68 54.5704C327.01 56.789 332.344 58.8958 338.788 57.7242L338.86 58.1206L338.932 58.517C332.232 59.7353 326.688 57.5427 323.234 55.2411L323.457 54.9058ZM338.86 58.1206L338.702 58.4909C337.735 58.0766 335.484 56.6779 333.503 54.2026C331.515 51.7174 329.792 48.1359 329.924 43.3702L330.327 43.3813L330.73 43.3925C330.604 47.9358 332.242 51.336 334.133 53.6992C336.031 56.0723 338.176 57.3888 339.019 57.7503L338.86 58.1206ZM330.327 43.3813L330.653 43.6183C330.613 43.6737 330.562 43.7323 330.539 43.7597L330.229 43.5034L329.918 43.2472C329.962 43.1938 329.98 43.1735 330.001 43.1444L330.327 43.3813ZM330.229 43.5034L329.833 43.4271C330.062 42.2403 330.183 41.0149 330.183 39.7612L330.586 39.7612L330.989 39.7612C330.989 41.067 330.862 42.3435 330.624 43.5797L330.229 43.5034ZM330.586 39.7612H330.183V30.9692H330.586H330.989V39.7612H330.586ZM330.586 30.9692V31.3722H310.933V30.9692V30.5663H330.586V30.9692Z" fill="#278EFF"/>
</svg>
