<svg width="341" height="90" viewBox="0 0 341 90" fill="none" xmlns="http://www.w3.org/2000/svg">
<path d="M9.66455 20.0556C9.66455 9.20175 18.4633 0.402954 29.3172 0.402954V0.402954V28.8475H9.66455V20.0556Z" fill="#278EFF" stroke="#278EFF" stroke-width="0.805851"/>
<rect x="9.66406" y="28.8477" width="19.6526" height="32.1217" fill="#278EFF" stroke="#278EFF" stroke-width="0.805851"/>
<path d="M29.3169 60.9694V89.4137C24.5574 89.4137 20.193 87.722 16.7925 84.9069C13.4001 87.1668 7.961 89.3156 1.38916 88.1207C3.19927 87.345 10.181 82.6906 9.92236 73.3815C9.95309 73.4237 9.98772 73.4632 10.021 73.5035C9.78741 72.292 9.66456 71.0411 9.66455 69.7614V60.9694H29.3169Z" fill="#278EFF"/>
<path d="M29.3169 60.9694H29.7198V60.5664H29.3169V60.9694ZM29.3169 89.4137V89.8166H29.7198V89.4137H29.3169ZM16.7925 84.9069L17.0494 84.5965L16.8185 84.4054L16.5691 84.5715L16.7925 84.9069ZM1.38916 88.1207L1.23044 87.7504L4.59179e-05 88.2777L1.31708 88.5172L1.38916 88.1207ZM9.92236 73.3815L10.2482 73.1445L9.48349 72.093L9.51959 73.3927L9.92236 73.3815ZM10.021 73.5035L9.71005 73.7598L10.4166 73.4273L10.021 73.5035ZM9.66455 69.7614L9.26163 69.7614L9.26163 69.7614L9.66455 69.7614ZM9.66455 60.9694V60.5664H9.26163V60.9694H9.66455ZM29.3169 60.9694H28.914V89.4137H29.3169H29.7198V60.9694H29.3169ZM29.3169 89.4137V89.0108C24.6547 89.0108 20.3803 87.354 17.0494 84.5965L16.7925 84.9069L16.5355 85.2172C20.0057 88.09 24.4602 89.8166 29.3169 89.8166V89.4137ZM16.7925 84.9069L16.5691 84.5715C13.2391 86.7899 7.9047 88.8958 1.46124 87.7243L1.38916 88.1207L1.31708 88.5172C8.0173 89.7354 13.5611 87.5437 17.0159 85.2422L16.7925 84.9069ZM1.38916 88.1207L1.54788 88.4911C2.51466 88.0767 4.76591 86.6781 6.74616 84.2028C8.73431 81.7176 10.4575 78.1361 10.3251 73.3703L9.92236 73.3815L9.51959 73.3927C9.6458 77.936 8.00746 81.3362 6.11689 83.6994C4.21841 86.0725 2.07377 87.389 1.23044 87.7504L1.38916 88.1207ZM9.92236 73.3815L9.5965 73.6185C9.63678 73.6738 9.68752 73.7324 9.71005 73.7598L10.021 73.5035L10.3319 73.2473C10.2879 73.1939 10.2694 73.1736 10.2482 73.1445L9.92236 73.3815ZM10.021 73.5035L10.4166 73.4273C10.1879 72.2406 10.0675 71.0152 10.0675 69.7614L9.66455 69.7614L9.26163 69.7614C9.26163 71.0669 9.38698 72.3434 9.62536 73.5798L10.021 73.5035ZM9.66455 69.7614H10.0675V60.9694H9.66455H9.26163V69.7614H9.66455ZM9.66455 60.9694V61.3723H29.3169V60.9694V60.5664H9.66455V60.9694Z" fill="#278EFF"/>
<rect x="29.3164" y="0.402954" width="290.877" height="89.0106" fill="#278EFF"/>
<rect x="29.3164" y="0.402954" width="290.877" height="89.0106" stroke="#278EFF" stroke-width="0.805851"/>
<path d="M35.3513 39.9083L29.9004 19.9736H32.3533L36.5194 36.2095H36.7141L40.958 19.9736H43.6834L47.9273 36.2095H48.122L52.2881 19.9736H54.741L49.2901 39.9083H46.7982L42.3986 24.0228H42.2428L37.8432 39.9083H35.3513ZM60.3079 40.2587C59.3605 40.2587 58.5007 40.0803 57.7285 39.7234C56.9562 39.36 56.343 38.8376 55.8888 38.1562C55.4345 37.4684 55.2074 36.6378 55.2074 35.6644C55.2074 34.8078 55.3761 34.1135 55.7136 33.5814C56.051 33.0428 56.502 32.621 57.0666 32.316C57.6311 32.011 58.2541 31.7839 58.9354 31.6346C59.6233 31.4789 60.3144 31.3556 61.0087 31.2648C61.9172 31.1479 62.6537 31.0603 63.2183 31.0019C63.7893 30.937 64.2046 30.83 64.4642 30.6807C64.7303 30.5315 64.8633 30.2719 64.8633 29.902V29.8242C64.8633 28.8638 64.6005 28.1175 64.0749 27.5854C63.5557 27.0533 62.7673 26.7872 61.7096 26.7872C60.6129 26.7872 59.7531 27.0273 59.1301 27.5075C58.5072 27.9877 58.0691 28.5004 57.8161 29.0455L55.6357 28.2668C56.025 27.3583 56.5442 26.651 57.1931 26.1448C57.8485 25.6322 58.5623 25.2752 59.3345 25.0741C60.1132 24.8664 60.8789 24.7626 61.6317 24.7626C62.1119 24.7626 62.6635 24.821 63.2864 24.9378C63.9159 25.0481 64.5226 25.2785 65.1066 25.6289C65.6972 25.9793 66.1871 26.5082 66.5764 27.2155C66.9658 27.9228 67.1605 28.8702 67.1605 30.0578V39.9083H64.8633V37.8837H64.7465C64.5907 38.2082 64.3312 38.5553 63.9678 38.9252C63.6044 39.2951 63.121 39.6098 62.5175 39.8694C61.914 40.129 61.1774 40.2587 60.3079 40.2587ZM60.6583 38.1952C61.5668 38.1952 62.3325 38.0167 62.9555 37.6598C63.5849 37.3029 64.0586 36.8422 64.3766 36.2776C64.7011 35.7131 64.8633 35.1193 64.8633 34.4964V32.3939C64.766 32.5107 64.5518 32.6177 64.2209 32.7151C63.8964 32.8059 63.52 32.887 63.0917 32.9584C62.67 33.0233 62.2579 33.0817 61.8556 33.1336C61.4597 33.1791 61.1385 33.218 60.8919 33.2504C60.2949 33.3283 59.7369 33.4548 59.2177 33.6301C58.7051 33.7988 58.2898 34.0551 57.9718 34.399C57.6603 34.7365 57.5046 35.1972 57.5046 35.7812C57.5046 36.5794 57.7998 37.1829 58.3903 37.5917C58.9874 37.994 59.7433 38.1952 60.6583 38.1952ZM71.2162 39.9083V24.9573H73.5134V39.9083H71.2162ZM72.3843 22.4654C71.9365 22.4654 71.5504 22.3129 71.226 22.008C70.908 21.703 70.749 21.3363 70.749 20.908C70.749 20.4798 70.908 20.1131 71.226 19.8081C71.5504 19.5031 71.9365 19.3506 72.3843 19.3506C72.832 19.3506 73.2149 19.5031 73.5329 19.8081C73.8573 20.1131 74.0195 20.4798 74.0195 20.908C74.0195 21.3363 73.8573 21.703 73.5329 22.008C73.2149 22.3129 72.832 22.4654 72.3843 22.4654ZM84.0859 24.9573V26.904H76.3378V24.9573H84.0859ZM78.5961 21.3753H80.8932V35.6255C80.8932 36.2744 80.9873 36.7611 81.1755 37.0855C81.3702 37.4035 81.6168 37.6176 81.9153 37.728C82.2203 37.8318 82.5415 37.8837 82.8789 37.8837C83.132 37.8837 83.3396 37.8707 83.5019 37.8448C83.6641 37.8123 83.7939 37.7864 83.8912 37.7669L84.3584 39.8305C84.2027 39.8889 83.9853 39.9473 83.7063 40.0057C83.4272 40.0706 83.0736 40.103 82.6453 40.103C81.9964 40.103 81.3604 39.9635 80.7375 39.6844C80.121 39.4054 79.6084 38.9804 79.1996 38.4093C78.7972 37.8383 78.5961 37.118 78.5961 36.2484V21.3753ZM90.8306 37.1829L90.6749 38.2341C90.5646 38.9739 90.3958 39.7656 90.1687 40.6092C89.9481 41.4527 89.7177 42.2477 89.4776 42.9939C89.2375 43.7402 89.0396 44.3339 88.8839 44.7752H87.1318C87.2161 44.3599 87.3265 43.8116 87.4627 43.1302C87.599 42.4488 87.7353 41.6864 87.8715 40.8428C88.0143 40.0057 88.1311 39.1491 88.222 38.2731L88.3388 37.1829H90.8306ZM105.909 39.9083L101.354 24.9573H103.768L106.999 36.4042H107.155L110.348 24.9573H112.801L115.954 36.3652H116.11L119.342 24.9573H121.756L117.2 39.9083H114.942L111.671 28.4225H111.438L108.167 39.9083H105.909ZM126.953 30.9143V39.9083H124.655V19.9736H126.953V27.2934H127.147C127.498 26.5212 128.023 25.9079 128.724 25.4537C129.432 24.993 130.372 24.7626 131.547 24.7626C132.566 24.7626 133.458 24.967 134.224 25.3758C134.99 25.7782 135.583 26.3979 136.005 27.235C136.433 28.0656 136.647 29.1233 136.647 30.4082V39.9083H134.35V30.5639C134.35 29.3764 134.042 28.4582 133.426 27.8093C132.816 27.1539 131.969 26.8262 130.885 26.8262C130.132 26.8262 129.457 26.9851 128.86 27.3031C128.27 27.6211 127.803 28.0851 127.459 28.695C127.121 29.305 126.953 30.0448 126.953 30.9143ZM146.982 40.2198C145.541 40.2198 144.298 39.9018 143.253 39.2659C142.215 38.6235 141.414 37.728 140.849 36.5794C140.291 35.4243 140.012 34.0811 140.012 32.5496C140.012 31.0182 140.291 29.6684 140.849 28.5004C141.414 27.3258 142.199 26.4109 143.205 25.7554C144.217 25.0936 145.398 24.7626 146.748 24.7626C147.527 24.7626 148.296 24.8924 149.055 25.152C149.814 25.4115 150.505 25.8333 151.128 26.4173C151.751 26.9949 152.247 27.7606 152.617 28.7145C152.987 29.6684 153.172 30.843 153.172 32.2381V33.2115H141.647V31.2258H150.836C150.836 30.3822 150.667 29.6295 150.33 28.9676C149.999 28.3057 149.525 27.7833 148.909 27.4005C148.299 27.0176 147.579 26.8262 146.748 26.8262C145.833 26.8262 145.041 27.0533 144.373 27.5075C143.711 27.9553 143.202 28.5393 142.845 29.2596C142.488 29.9799 142.309 30.7521 142.309 31.5762V32.9C142.309 34.0291 142.504 34.9863 142.893 35.7715C143.289 36.5502 143.838 37.1439 144.538 37.5528C145.239 37.9551 146.054 38.1562 146.982 38.1562C147.585 38.1562 148.13 38.0719 148.617 37.9032C149.11 37.728 149.535 37.4684 149.892 37.1245C150.249 36.7741 150.525 36.3393 150.719 35.8201L152.939 36.4431C152.705 37.1959 152.312 37.8577 151.761 38.4288C151.209 38.9934 150.528 39.4346 149.717 39.7526C148.906 40.0641 147.994 40.2198 146.982 40.2198ZM156.53 39.9083V24.9573H158.749V27.2155H158.905C159.177 26.4757 159.67 25.8755 160.384 25.4148C161.098 24.954 161.903 24.7237 162.798 24.7237C162.967 24.7237 163.178 24.7269 163.431 24.7334C163.684 24.7399 163.875 24.7496 164.005 24.7626V27.0987C163.927 27.0792 163.749 27.05 163.47 27.0111C163.197 26.9657 162.908 26.943 162.603 26.943C161.877 26.943 161.228 27.0955 160.657 27.4005C160.092 27.699 159.644 28.1143 159.313 28.6464C158.989 29.172 158.827 29.7722 158.827 30.4471V39.9083H156.53ZM172.405 40.2198C170.964 40.2198 169.721 39.9018 168.676 39.2659C167.638 38.6235 166.837 37.728 166.272 36.5794C165.714 35.4243 165.435 34.0811 165.435 32.5496C165.435 31.0182 165.714 29.6684 166.272 28.5004C166.837 27.3258 167.622 26.4109 168.628 25.7554C169.64 25.0936 170.821 24.7626 172.171 24.7626C172.95 24.7626 173.719 24.8924 174.478 25.152C175.237 25.4115 175.928 25.8333 176.551 26.4173C177.174 26.9949 177.67 27.7606 178.04 28.7145C178.41 29.6684 178.595 30.843 178.595 32.2381V33.2115H167.07V31.2258H176.259C176.259 30.3822 176.09 29.6295 175.753 28.9676C175.422 28.3057 174.948 27.7833 174.332 27.4005C173.722 27.0176 173.002 26.8262 172.171 26.8262C171.256 26.8262 170.464 27.0533 169.796 27.5075C169.134 27.9553 168.625 28.5393 168.268 29.2596C167.911 29.9799 167.732 30.7521 167.732 31.5762V32.9C167.732 34.0291 167.927 34.9863 168.316 35.7715C168.712 36.5502 169.261 37.1439 169.961 37.5528C170.662 37.9551 171.477 38.1562 172.405 38.1562C173.008 38.1562 173.553 38.0719 174.04 37.9032C174.533 37.728 174.958 37.4684 175.315 37.1245C175.672 36.7741 175.948 36.3393 176.142 35.8201L178.362 36.4431C178.128 37.1959 177.735 37.8577 177.184 38.4288C176.632 38.9934 175.951 39.4346 175.14 39.7526C174.329 40.0641 173.417 40.2198 172.405 40.2198ZM195.17 40.2198C193.924 40.2198 192.824 39.9051 191.87 39.2756C190.917 38.6397 190.17 37.7442 189.632 36.5891C189.093 35.4276 188.824 34.0551 188.824 32.4717C188.824 30.9014 189.093 29.5386 189.632 28.3836C190.17 27.2285 190.92 26.3362 191.88 25.7068C192.841 25.0773 193.95 24.7626 195.209 24.7626C196.183 24.7626 196.951 24.9248 197.516 25.2493C198.087 25.5673 198.522 25.9307 198.82 26.3395C199.125 26.7418 199.362 27.0727 199.531 27.3323H199.726V19.9736H202.023V39.9083H199.803V37.6112H199.531C199.362 37.8837 199.122 38.2276 198.811 38.6429C198.499 39.0518 198.055 39.4184 197.477 39.7429C196.9 40.0608 196.131 40.2198 195.17 40.2198ZM195.482 38.1562C196.403 38.1562 197.182 37.9162 197.818 37.436C198.454 36.9493 198.937 36.2776 199.268 35.4211C199.599 34.558 199.765 33.5619 199.765 32.4328C199.765 31.3167 199.602 30.34 199.278 29.5029C198.953 28.6594 198.473 28.0039 197.837 27.5367C197.201 27.063 196.416 26.8262 195.482 26.8262C194.508 26.8262 193.697 27.076 193.048 27.5757C192.406 28.0688 191.922 28.7405 191.598 29.5905C191.28 30.4341 191.121 31.3816 191.121 32.4328C191.121 33.497 191.283 34.4639 191.608 35.3335C191.939 36.1965 192.425 36.8844 193.068 37.397C193.717 37.9032 194.521 38.1562 195.482 38.1562ZM206.412 39.9083V24.9573H208.709V39.9083H206.412ZM207.58 22.4654C207.132 22.4654 206.746 22.3129 206.422 22.008C206.104 21.703 205.945 21.3363 205.945 20.908C205.945 20.4798 206.104 20.1131 206.422 19.8081C206.746 19.5031 207.132 19.3506 207.58 19.3506C208.028 19.3506 208.411 19.5031 208.729 19.8081C209.053 20.1131 209.215 20.4798 209.215 20.908C209.215 21.3363 209.053 21.703 208.729 22.008C208.411 22.3129 208.028 22.4654 207.58 22.4654ZM218.425 40.2198C217.179 40.2198 216.079 39.9051 215.125 39.2756C214.171 38.6397 213.425 37.7442 212.887 36.5891C212.348 35.4276 212.079 34.0551 212.079 32.4717C212.079 30.9014 212.348 29.5386 212.887 28.3836C213.425 27.2285 214.175 26.3362 215.135 25.7068C216.095 25.0773 217.205 24.7626 218.464 24.7626C219.437 24.7626 220.206 24.9248 220.771 25.2493C221.342 25.5673 221.777 25.9307 222.075 26.3395C222.38 26.7418 222.617 27.0727 222.786 27.3323H222.98V19.9736H225.278V39.9083H223.058V37.6112H222.786C222.617 37.8837 222.377 38.2276 222.065 38.6429C221.754 39.0518 221.309 39.4184 220.732 39.7429C220.154 40.0608 219.385 40.2198 218.425 40.2198ZM218.737 38.1562C219.658 38.1562 220.437 37.9162 221.073 37.436C221.709 36.9493 222.192 36.2776 222.523 35.4211C222.854 34.558 223.019 33.5619 223.019 32.4328C223.019 31.3167 222.857 30.34 222.533 29.5029C222.208 28.6594 221.728 28.0039 221.092 27.5367C220.456 27.063 219.671 26.8262 218.737 26.8262C217.763 26.8262 216.952 27.076 216.303 27.5757C215.661 28.0688 215.177 28.7405 214.853 29.5905C214.535 30.4341 214.376 31.3816 214.376 32.4328C214.376 33.497 214.538 34.4639 214.862 35.3335C215.193 36.1965 215.68 36.8844 216.323 37.397C216.971 37.9032 217.776 38.1562 218.737 38.1562ZM238.718 45.515C238.329 45.515 237.982 45.4825 237.677 45.4176C237.372 45.3592 237.161 45.3008 237.044 45.2424L237.628 43.2178C238.186 43.3606 238.679 43.4125 239.108 43.3735C239.536 43.3346 239.916 43.1432 240.247 42.7992C240.584 42.4618 240.892 41.9135 241.171 41.1542L241.6 39.9862L236.071 24.9573H238.563L242.69 36.8714H242.845L246.973 24.9573H249.464L243.118 42.0887C242.832 42.8609 242.479 43.5001 242.057 44.0062C241.635 44.5189 241.145 44.8985 240.587 45.1451C240.036 45.3917 239.413 45.515 238.718 45.515ZM257.898 40.2198C256.548 40.2198 255.364 39.8986 254.345 39.2562C253.333 38.6137 252.541 37.715 251.97 36.5599C251.406 35.4048 251.123 34.0551 251.123 32.5107C251.123 30.9533 251.406 29.5938 251.97 28.4322C252.541 27.2707 253.333 26.3687 254.345 25.7262C255.364 25.0838 256.548 24.7626 257.898 24.7626C259.248 24.7626 260.429 25.0838 261.441 25.7262C262.46 26.3687 263.251 27.2707 263.816 28.4322C264.387 29.5938 264.673 30.9533 264.673 32.5107C264.673 34.0551 264.387 35.4048 263.816 36.5599C263.251 37.715 262.46 38.6137 261.441 39.2562C260.429 39.8986 259.248 40.2198 257.898 40.2198ZM257.898 38.1562C258.923 38.1562 259.767 37.8934 260.429 37.3678C261.091 36.8422 261.581 36.1511 261.898 35.2945C262.216 34.438 262.375 33.51 262.375 32.5107C262.375 31.5113 262.216 30.5801 261.898 29.7171C261.581 28.854 261.091 28.1564 260.429 27.6243C259.767 27.0922 258.923 26.8262 257.898 26.8262C256.873 26.8262 256.029 27.0922 255.367 27.6243C254.705 28.1564 254.215 28.854 253.897 29.7171C253.579 30.5801 253.42 31.5113 253.42 32.5107C253.42 33.51 253.579 34.438 253.897 35.2945C254.215 36.1511 254.705 36.8422 255.367 37.3678C256.029 37.8934 256.873 38.1562 257.898 38.1562ZM277.464 33.7955V24.9573H279.762V39.9083H277.464V37.3775H277.309C276.958 38.1368 276.413 38.7825 275.673 39.3146C274.934 39.8402 273.999 40.103 272.87 40.103C271.936 40.103 271.105 39.8986 270.378 39.4898C269.651 39.0745 269.08 38.4515 268.665 37.6209C268.25 36.7838 268.042 35.7293 268.042 34.4574V24.9573H270.339V34.3017C270.339 35.3919 270.644 36.2614 271.254 36.9103C271.871 37.5592 272.656 37.8837 273.61 37.8837C274.181 37.8837 274.762 37.7377 275.352 37.4457C275.949 37.1537 276.449 36.7059 276.851 36.1024C277.26 35.4989 277.464 34.73 277.464 33.7955ZM42.0092 58.3057L39.9457 58.8897C39.8159 58.5458 39.6245 58.2116 39.3714 57.8871C39.1248 57.5562 38.7873 57.2836 38.3591 57.0695C37.9308 56.8554 37.3824 56.7483 36.7141 56.7483C35.7991 56.7483 35.0366 56.9592 34.4266 57.381C33.8231 57.7963 33.5214 58.3252 33.5214 58.9676C33.5214 59.5386 33.729 59.9896 34.1443 60.3206C34.5597 60.6515 35.2086 60.9273 36.0911 61.1479L38.3104 61.693C39.6472 62.0175 40.6433 62.5139 41.2987 63.1823C41.9541 63.8442 42.2818 64.6975 42.2818 65.7423C42.2818 66.5988 42.0352 67.3646 41.542 68.0394C41.0553 68.7143 40.3739 69.2464 39.4979 69.6358C38.6219 70.0251 37.6031 70.2198 36.4415 70.2198C34.9166 70.2198 33.6544 69.8889 32.6551 69.227C31.6558 68.5651 31.0231 67.5982 30.757 66.3263L32.9374 65.7812C33.145 66.5859 33.5376 67.1894 34.1151 67.5917C34.6992 67.994 35.4616 68.1952 36.4026 68.1952C37.4733 68.1952 38.3234 67.9681 38.9528 67.5138C39.5888 67.0531 39.9067 66.5015 39.9067 65.8591C39.9067 65.34 39.725 64.9052 39.3616 64.5548C38.9982 64.1979 38.4402 63.9318 37.6874 63.7566L35.1956 63.1726C33.8264 62.8481 32.8206 62.3452 32.1781 61.6638C31.5422 60.976 31.2242 60.1162 31.2242 59.0844C31.2242 58.2408 31.4611 57.4945 31.9348 56.8456C32.415 56.1967 33.0671 55.6873 33.8913 55.3174C34.7219 54.9475 35.6628 54.7626 36.7141 54.7626C38.1936 54.7626 39.3552 55.0871 40.1987 55.736C41.0488 56.3849 41.6523 57.2415 42.0092 58.3057ZM47.8998 60.9143V69.9083H45.6026V49.9736H47.8998V57.2934H48.0945C48.4449 56.5212 48.9705 55.9079 49.6713 55.4537C50.3787 54.993 51.3196 54.7626 52.4941 54.7626C53.5129 54.7626 54.4052 54.967 55.1709 55.3758C55.9366 55.7782 56.5304 56.3979 56.9522 57.235C57.3805 58.0656 57.5946 59.1233 57.5946 60.4082V69.9083H55.2974V60.5639C55.2974 59.3764 54.9892 58.4582 54.3727 57.8093C53.7628 57.1539 52.9159 56.8262 51.8322 56.8262C51.0795 56.8262 50.4046 56.9851 49.8076 57.3031C49.2171 57.6211 48.7499 58.0851 48.4059 58.695C48.0685 59.305 47.8998 60.0448 47.8998 60.9143ZM66.0598 70.2587C65.1123 70.2587 64.2525 70.0803 63.4803 69.7234C62.7081 69.36 62.0949 68.8376 61.6406 68.1562C61.1864 67.4684 60.9593 66.6378 60.9593 65.6644C60.9593 64.8078 61.128 64.1135 61.4654 63.5814C61.8029 63.0428 62.2539 62.621 62.8184 62.316C63.383 62.011 64.0059 61.7839 64.6873 61.6346C65.3752 61.4789 66.0663 61.3556 66.7606 61.2648C67.6691 61.1479 68.4056 61.0603 68.9702 61.0019C69.5412 60.937 69.9565 60.83 70.2161 60.6807C70.4821 60.5315 70.6152 60.2719 70.6152 59.902V59.8242C70.6152 58.8638 70.3523 58.1175 69.8267 57.5854C69.3076 57.0533 68.5192 56.7872 67.4614 56.7872C66.3648 56.7872 65.5049 57.0273 64.882 57.5075C64.259 57.9877 63.821 58.5004 63.5679 59.0455L61.3876 58.2668C61.7769 57.3583 62.296 56.651 62.945 56.1448C63.6004 55.6322 64.3142 55.2752 65.0864 55.0741C65.8651 54.8664 66.6308 54.7626 67.3836 54.7626C67.8638 54.7626 68.4153 54.821 69.0383 54.9378C69.6677 55.0481 70.2745 55.2785 70.8585 55.6289C71.449 55.9793 71.939 56.5082 72.3283 57.2155C72.7177 57.9228 72.9123 58.8702 72.9123 60.0578V69.9083H70.6152V67.8837H70.4984C70.3426 68.2082 70.083 68.5553 69.7197 68.9252C69.3563 69.2951 68.8728 69.6098 68.2693 69.8694C67.6658 70.129 66.9293 70.2587 66.0598 70.2587ZM66.4102 68.1952C67.3187 68.1952 68.0844 68.0167 68.7073 67.6598C69.3368 67.3029 69.8105 66.8422 70.1285 66.2776C70.4529 65.7131 70.6152 65.1193 70.6152 64.4964V62.3939C70.5178 62.5107 70.3037 62.6177 69.9727 62.7151C69.6483 62.8059 69.2719 62.887 68.8436 62.9584C68.4218 63.0233 68.0098 63.0817 67.6074 63.1336C67.2116 63.1791 66.8904 63.218 66.6438 63.2504C66.0468 63.3283 65.4887 63.4548 64.9696 63.6301C64.4569 63.7988 64.0416 64.0551 63.7237 64.399C63.4122 64.7365 63.2564 65.1972 63.2564 65.7812C63.2564 66.5794 63.5517 67.1829 64.1422 67.5917C64.7392 67.994 65.4952 68.1952 66.4102 68.1952ZM76.9681 69.9083V54.9573H79.1874V57.2155H79.3431C79.6157 56.4757 80.1088 55.8755 80.8227 55.4148C81.5365 54.954 82.3411 54.7237 83.2366 54.7237C83.4053 54.7237 83.6162 54.7269 83.8693 54.7334C84.1224 54.7399 84.3138 54.7496 84.4436 54.7626V57.0987C84.3657 57.0792 84.1873 57.05 83.9083 57.0111C83.6357 56.9657 83.3469 56.943 83.042 56.943C82.3152 56.943 81.6662 57.0955 81.0952 57.4005C80.5306 57.699 80.0829 58.1143 79.7519 58.6464C79.4275 59.172 79.2653 59.7722 79.2653 60.4471V69.9083H76.9681ZM92.8431 70.2198C91.4025 70.2198 90.1598 69.9018 89.115 69.2659C88.0768 68.6235 87.2754 67.728 86.7108 66.5794C86.1527 65.4243 85.8737 64.0811 85.8737 62.5496C85.8737 61.0182 86.1527 59.6684 86.7108 58.5004C87.2754 57.3258 88.0605 56.4109 89.0664 55.7554C90.0787 55.0936 91.2597 54.7626 92.6095 54.7626C93.3882 54.7626 94.1571 54.8924 94.9164 55.152C95.6756 55.4115 96.3667 55.8333 96.9896 56.4173C97.6126 56.9949 98.109 57.7606 98.4789 58.7145C98.8488 59.6684 99.0337 60.843 99.0337 62.2381V63.2115H87.509V61.2258H96.6976C96.6976 60.3822 96.5289 59.6295 96.1915 58.9676C95.8605 58.3057 95.3868 57.7833 94.7703 57.4005C94.1604 57.0176 93.4401 56.8262 92.6095 56.8262C91.6945 56.8262 90.9028 57.0533 90.2344 57.5075C89.5725 57.9553 89.0631 58.5393 88.7062 59.2596C88.3493 59.9799 88.1709 60.7521 88.1709 61.5762V62.9C88.1709 64.0291 88.3655 64.9863 88.7549 65.7715C89.1507 66.5502 89.6991 67.1439 90.3999 67.5528C91.1007 67.9551 91.9151 68.1562 92.8431 68.1562C93.4466 68.1562 93.9916 68.0719 94.4783 67.9032C94.9715 67.728 95.3966 67.4684 95.7535 67.1245C96.1104 66.7741 96.3861 66.3393 96.5808 65.8201L98.8001 66.4431C98.5665 67.1959 98.1739 67.8577 97.6223 68.4288C97.0708 68.9934 96.3894 69.4346 95.5782 69.7526C94.7671 70.0641 93.8554 70.2198 92.8431 70.2198ZM109.963 69.9083V54.9573H112.26V69.9083H109.963ZM111.131 52.4654C110.683 52.4654 110.297 52.3129 109.973 52.008C109.655 51.703 109.496 51.3363 109.496 50.908C109.496 50.4798 109.655 50.1131 109.973 49.8081C110.297 49.5031 110.683 49.3506 111.131 49.3506C111.579 49.3506 111.962 49.5031 112.28 49.8081C112.604 50.1131 112.766 50.4798 112.766 50.908C112.766 51.3363 112.604 51.703 112.28 52.008C111.962 52.3129 111.579 52.4654 111.131 52.4654ZM122.833 54.9573V56.904H115.085V54.9573H122.833ZM117.343 51.3753H119.64V65.6255C119.64 66.2744 119.734 66.7611 119.922 67.0855C120.117 67.4035 120.364 67.6176 120.662 67.728C120.967 67.8318 121.288 67.8837 121.626 67.8837C121.879 67.8837 122.087 67.8707 122.249 67.8448C122.411 67.8123 122.541 67.7864 122.638 67.7669L123.105 69.8305C122.95 69.8889 122.732 69.9473 122.453 70.0057C122.174 70.0706 121.821 70.103 121.392 70.103C120.743 70.103 120.107 69.9635 119.484 69.6844C118.868 69.4054 118.355 68.9804 117.947 68.4093C117.544 67.8383 117.343 67.118 117.343 66.2484V51.3753ZM129.149 64.3017V64.1849C129.162 62.9454 129.292 61.9591 129.539 61.2258C129.785 60.4925 130.136 59.8988 130.59 59.4445C131.044 58.9903 131.589 58.5717 132.225 58.1889C132.608 57.9553 132.952 57.6795 133.257 57.3615C133.562 57.0371 133.802 56.6639 133.977 56.2421C134.159 55.8203 134.25 55.3531 134.25 54.8405C134.25 54.2045 134.101 53.653 133.802 53.1857C133.504 52.7185 133.104 52.3584 132.605 52.1053C132.105 51.8522 131.55 51.7257 130.94 51.7257C130.408 51.7257 129.896 51.836 129.402 52.0566C128.909 52.2773 128.497 52.6244 128.166 53.0981C127.835 53.5718 127.644 54.1916 127.592 54.9573H125.139C125.191 53.8541 125.476 52.9099 125.996 52.1248C126.521 51.3396 127.212 50.7393 128.069 50.324C128.932 49.9087 129.889 49.7011 130.94 49.7011C132.082 49.7011 133.075 49.9282 133.919 50.3824C134.769 50.8367 135.424 51.4596 135.885 52.2513C136.352 53.043 136.586 53.945 136.586 54.9573C136.586 55.6711 136.476 56.3168 136.255 56.8943C136.041 57.4718 135.729 57.9877 135.32 58.442C134.918 58.8962 134.431 59.2985 133.86 59.6489C133.289 60.0059 132.832 60.3822 132.488 60.7781C132.144 61.1674 131.894 61.6314 131.738 62.17C131.583 62.7086 131.498 63.3802 131.485 64.1849V64.3017H129.149ZM130.395 70.0641C129.915 70.0641 129.503 69.8921 129.159 69.5482C128.815 69.2043 128.643 68.7922 128.643 68.312C128.643 67.8318 128.815 67.4197 129.159 67.0758C129.503 66.7319 129.915 66.5599 130.395 66.5599C130.875 66.5599 131.287 66.7319 131.631 67.0758C131.975 67.4197 132.147 67.8318 132.147 68.312C132.147 68.63 132.066 68.922 131.904 69.188C131.748 69.4541 131.537 69.6682 131.271 69.8305C131.012 69.9862 130.72 70.0641 130.395 70.0641Z" fill="white"/>
<path d="M339.847 20.0556C339.847 9.20175 331.048 0.402954 320.194 0.402954V0.402954V28.8475H339.847V20.0556Z" fill="#278EFF" stroke="#278EFF" stroke-width="0.805851"/>
<rect width="19.6526" height="32.1214" transform="matrix(-1 0 0 1 339.847 28.8477)" fill="#278EFF" stroke="#278EFF" stroke-width="0.805851"/>
<path d="M339.847 69.7611C339.847 80.6149 331.048 89.4137 320.194 89.4137V89.4137V60.9691H339.847V69.7611Z" fill="#278EFF" stroke="#278EFF" stroke-width="0.805851"/>
</svg>
