<svg width="341" height="120" viewBox="0 0 341 120" fill="none" xmlns="http://www.w3.org/2000/svg">
<path d="M0.402832 20.0556C0.402832 9.20175 9.20161 0.402954 20.0555 0.402954V0.402954V28.8475H0.402832V20.0556Z" fill="#278EFF" stroke="#278EFF" stroke-width="0.805851"/>
<rect x="0.402832" y="28.8475" width="19.6526" height="62.1214" fill="#278EFF" stroke="#278EFF" stroke-width="0.805851"/>
<path d="M0.402832 99.7609C0.402832 110.615 9.20161 119.414 20.0555 119.414V119.414V90.969H0.402832V99.7609Z" fill="#278EFF" stroke="#278EFF" stroke-width="0.805851"/>
<rect x="20.0557" y="0.402954" width="290.877" height="119.011" fill="#278EFF"/>
<rect x="20.0557" y="0.402954" width="290.877" height="119.011" stroke="#278EFF" stroke-width="0.805851"/>
<path d="M26.0906 39.9082L20.6397 19.9735H23.0926L27.2586 36.2094H27.4533L31.6972 19.9735H34.4227L38.6666 36.2094H38.8613L43.0273 19.9735H45.4802L40.0293 39.9082H37.5375L33.1378 24.0227H32.9821L28.5824 39.9082H26.0906ZM50.3366 30.9142V39.9082H48.0394V19.9735H50.3366V27.2933H50.5313C50.8817 26.521 51.4073 25.9078 52.1081 25.4536C52.8155 24.9928 53.7564 24.7625 54.9309 24.7625C55.9497 24.7625 56.842 24.9669 57.6077 25.3757C58.3734 25.778 58.9672 26.3978 59.389 27.2349C59.8173 28.0655 60.0314 29.1232 60.0314 30.4081V39.9082H57.7342V30.5638C57.7342 29.3763 57.426 28.4581 56.8095 27.8091C56.1996 27.1537 55.3527 26.826 54.269 26.826C53.5163 26.826 52.8414 26.985 52.2444 27.303C51.6539 27.621 51.1867 28.0849 50.8427 28.6949C50.5053 29.3049 50.3366 30.0447 50.3366 30.9142ZM68.4966 40.2586C67.5491 40.2586 66.6893 40.0802 65.9171 39.7233C65.1449 39.3599 64.5317 38.8375 64.0774 38.1561C63.6232 37.4683 63.3961 36.6377 63.3961 35.6643C63.3961 34.8077 63.5648 34.1134 63.9022 33.5813C64.2397 33.0427 64.6907 32.6209 65.2552 32.3159C65.8198 32.0109 66.4427 31.7838 67.1241 31.6345C67.812 31.4788 68.5031 31.3555 69.1974 31.2646C70.1059 31.1478 70.8424 31.0602 71.407 31.0018C71.978 30.9369 72.3933 30.8299 72.6529 30.6806C72.9189 30.5314 73.052 30.2718 73.052 29.9019V29.824C73.052 28.8636 72.7891 28.1174 72.2635 27.5853C71.7444 27.0532 70.956 26.7871 69.8982 26.7871C68.8016 26.7871 67.9417 27.0272 67.3188 27.5074C66.6958 27.9876 66.2578 28.5002 66.0047 29.0453L63.8244 28.2666C64.2137 27.3582 64.7328 26.6508 65.3818 26.1447C66.0372 25.632 66.751 25.2751 67.5232 25.074C68.3019 24.8663 69.0676 24.7625 69.8204 24.7625C70.3006 24.7625 70.8521 24.8209 71.4751 24.9377C72.1045 25.048 72.7113 25.2784 73.2953 25.6288C73.8858 25.9792 74.3757 26.5081 74.7651 27.2154C75.1544 27.9227 75.3491 28.8701 75.3491 30.0576V39.9082H73.052V37.8836H72.9352C72.7794 38.208 72.5198 38.5552 72.1565 38.9251C71.7931 39.295 71.3096 39.6097 70.7061 39.8693C70.1026 40.1288 69.3661 40.2586 68.4966 40.2586ZM68.847 38.1951C69.7555 38.1951 70.5212 38.0166 71.1441 37.6597C71.7736 37.3028 72.2473 36.8421 72.5653 36.2775C72.8897 35.713 73.052 35.1192 73.052 34.4962V32.3937C72.9546 32.5106 72.7405 32.6176 72.4095 32.715C72.0851 32.8058 71.7087 32.8869 71.2804 32.9583C70.8586 33.0232 70.4466 33.0816 70.0442 33.1335C69.6484 33.1789 69.3272 33.2179 69.0806 33.2503C68.4836 33.3282 67.9255 33.4547 67.4064 33.6299C66.8937 33.7987 66.4784 34.055 66.1605 34.3989C65.849 34.7363 65.6932 35.1971 65.6932 35.7811C65.6932 36.5793 65.9885 37.1828 66.579 37.5916C67.176 37.9939 67.932 38.1951 68.847 38.1951ZM85.907 24.9572V26.9039H78.159V24.9572H85.907ZM80.4172 21.3751H82.7144V35.6254C82.7144 36.2743 82.8085 36.761 82.9966 37.0854C83.1913 37.4034 83.4379 37.6175 83.7364 37.7278C84.0414 37.8317 84.3626 37.8836 84.7 37.8836C84.9531 37.8836 85.1608 37.8706 85.323 37.8446C85.4852 37.8122 85.615 37.7862 85.7124 37.7668L86.1796 39.8303C86.0238 39.8887 85.8065 39.9471 85.5274 40.0055C85.2484 40.0704 84.8947 40.1029 84.4664 40.1029C83.8175 40.1029 83.1816 39.9634 82.5586 39.6843C81.9422 39.4053 81.4295 38.9803 81.0207 38.4092C80.6184 37.8382 80.4172 37.1179 80.4172 36.2483V21.3751ZM99.0947 30.9142V39.9082H96.7975V19.9735H99.0947V27.2933H99.2894C99.6398 26.521 100.165 25.9078 100.866 25.4536C101.574 24.9928 102.515 24.7625 103.689 24.7625C104.708 24.7625 105.6 24.9669 106.366 25.3757C107.132 25.778 107.725 26.3978 108.147 27.2349C108.575 28.0655 108.79 29.1232 108.79 30.4081V39.9082H106.492V30.5638C106.492 29.3763 106.184 28.4581 105.568 27.8091C104.958 27.1537 104.111 26.826 103.027 26.826C102.274 26.826 101.6 26.985 101.003 27.303C100.412 27.621 99.9448 28.0849 99.6009 28.6949C99.2634 29.3049 99.0947 30.0447 99.0947 30.9142ZM117.255 40.2586C116.307 40.2586 115.447 40.0802 114.675 39.7233C113.903 39.3599 113.29 38.8375 112.836 38.1561C112.381 37.4683 112.154 36.6377 112.154 35.6643C112.154 34.8077 112.323 34.1134 112.66 33.5813C112.998 33.0427 113.449 32.6209 114.013 32.3159C114.578 32.0109 115.201 31.7838 115.882 31.6345C116.57 31.4788 117.261 31.3555 117.956 31.2646C118.864 31.1478 119.601 31.0602 120.165 31.0018C120.736 30.9369 121.151 30.8299 121.411 30.6806C121.677 30.5314 121.81 30.2718 121.81 29.9019V29.824C121.81 28.8636 121.547 28.1174 121.022 27.5853C120.503 27.0532 119.714 26.7871 118.656 26.7871C117.56 26.7871 116.7 27.0272 116.077 27.5074C115.454 27.9876 115.016 28.5002 114.763 29.0453L112.582 28.2666C112.972 27.3582 113.491 26.6508 114.14 26.1447C114.795 25.632 115.509 25.2751 116.281 25.074C117.06 24.8663 117.826 24.7625 118.578 24.7625C119.059 24.7625 119.61 24.8209 120.233 24.9377C120.863 25.048 121.469 25.2784 122.053 25.6288C122.644 25.9792 123.134 26.5081 123.523 27.2154C123.913 27.9227 124.107 28.8701 124.107 30.0576V39.9082H121.81V37.8836H121.693C121.538 38.208 121.278 38.5552 120.915 38.9251C120.551 39.295 120.068 39.6097 119.464 39.8693C118.861 40.1288 118.124 40.2586 117.255 40.2586ZM117.605 38.1951C118.514 38.1951 119.279 38.0166 119.902 37.6597C120.532 37.3028 121.005 36.8421 121.323 36.2775C121.648 35.713 121.81 35.1192 121.81 34.4962V32.3937C121.713 32.5106 121.499 32.6176 121.168 32.715C120.843 32.8058 120.467 32.8869 120.039 32.9583C119.617 33.0232 119.205 33.0816 118.802 33.1335C118.407 33.1789 118.085 33.2179 117.839 33.2503C117.242 33.3282 116.684 33.4547 116.164 33.6299C115.652 33.7987 115.237 34.055 114.919 34.3989C114.607 34.7363 114.451 35.1971 114.451 35.7811C114.451 36.5793 114.747 37.1828 115.337 37.5916C115.934 37.9939 116.69 38.1951 117.605 38.1951ZM128.163 45.5148V24.9572H130.382V27.3322H130.655C130.824 27.0726 131.057 26.7417 131.356 26.3394C131.661 25.9305 132.095 25.5671 132.66 25.2492C133.231 24.9247 134.003 24.7625 134.977 24.7625C136.236 24.7625 137.345 25.0772 138.306 25.7067C139.266 26.3361 140.015 27.2284 140.554 28.3834C141.093 29.5385 141.362 30.9012 141.362 32.4716C141.362 34.055 141.093 35.4274 140.554 36.589C140.015 37.7441 139.269 38.6396 138.315 39.2755C137.361 39.905 136.261 40.2197 135.016 40.2197C134.055 40.2197 133.286 40.0607 132.709 39.7427C132.131 39.4183 131.687 39.0516 131.375 38.6428C131.064 38.2275 130.824 37.8836 130.655 37.611H130.46V45.5148H128.163ZM130.421 32.4327C130.421 33.5618 130.587 34.5579 130.918 35.4209C131.249 36.2775 131.732 36.9491 132.368 37.4358C133.004 37.916 133.783 38.1561 134.704 38.1561C135.664 38.1561 136.466 37.9031 137.108 37.3969C137.757 36.8843 138.244 36.1964 138.568 35.3333C138.899 34.4638 139.065 33.4969 139.065 32.4327C139.065 31.3814 138.903 30.434 138.578 29.5904C138.26 28.7403 137.777 28.0687 137.128 27.5755C136.485 27.0759 135.677 26.826 134.704 26.826C133.77 26.826 132.984 27.0629 132.349 27.5366C131.713 28.0038 131.232 28.6592 130.908 29.5028C130.583 30.3399 130.421 31.3165 130.421 32.4327ZM144.729 45.5148V24.9572H146.948V27.3322H147.221C147.39 27.0726 147.623 26.7417 147.922 26.3394C148.227 25.9305 148.662 25.5671 149.226 25.2492C149.797 24.9247 150.569 24.7625 151.543 24.7625C152.802 24.7625 153.911 25.0772 154.872 25.7067C155.832 26.3361 156.582 27.2284 157.12 28.3834C157.659 29.5385 157.928 30.9012 157.928 32.4716C157.928 34.055 157.659 35.4274 157.12 36.589C156.582 37.7441 155.835 38.6396 154.881 39.2755C153.927 39.905 152.828 40.2197 151.582 40.2197C150.621 40.2197 149.852 40.0607 149.275 39.7427C148.697 39.4183 148.253 39.0516 147.941 38.6428C147.63 38.2275 147.39 37.8836 147.221 37.611H147.026V45.5148H144.729ZM146.987 32.4327C146.987 33.5618 147.153 34.5579 147.484 35.4209C147.815 36.2775 148.298 36.9491 148.934 37.4358C149.57 37.916 150.349 38.1561 151.27 38.1561C152.231 38.1561 153.032 37.9031 153.674 37.3969C154.323 36.8843 154.81 36.1964 155.134 35.3333C155.465 34.4638 155.631 33.4969 155.631 32.4327C155.631 31.3814 155.469 30.434 155.144 29.5904C154.826 28.7403 154.343 28.0687 153.694 27.5755C153.051 27.0759 152.244 26.826 151.27 26.826C150.336 26.826 149.551 27.0629 148.915 27.5366C148.279 28.0038 147.798 28.6592 147.474 29.5028C147.15 30.3399 146.987 31.3165 146.987 32.4327ZM167.564 40.2197C166.123 40.2197 164.88 39.9017 163.836 39.2658C162.797 38.6233 161.996 37.7278 161.431 36.5793C160.873 35.4242 160.594 34.0809 160.594 32.5495C160.594 31.018 160.873 29.6683 161.431 28.5002C161.996 27.3257 162.781 26.4107 163.787 25.7553C164.799 25.0934 165.98 24.7625 167.33 24.7625C168.109 24.7625 168.878 24.8923 169.637 25.1518C170.396 25.4114 171.087 25.8332 171.71 26.4172C172.333 26.9948 172.83 27.7605 173.2 28.7144C173.569 29.6683 173.754 30.8428 173.754 32.238V33.2114H162.23V31.2257H171.418C171.418 30.3821 171.25 29.6294 170.912 28.9675C170.581 28.3056 170.107 27.7832 169.491 27.4003C168.881 27.0175 168.161 26.826 167.33 26.826C166.415 26.826 165.623 27.0532 164.955 27.5074C164.293 27.9552 163.784 28.5392 163.427 29.2595C163.07 29.9798 162.891 30.752 162.891 31.5761V32.8999C162.891 34.029 163.086 34.9862 163.476 35.7714C163.871 36.5501 164.42 37.1438 165.121 37.5526C165.821 37.955 166.636 38.1561 167.564 38.1561C168.167 38.1561 168.712 38.0718 169.199 37.903C169.692 37.7278 170.117 37.4683 170.474 37.1243C170.831 36.7739 171.107 36.3392 171.301 35.82L173.521 36.443C173.287 37.1957 172.895 37.8576 172.343 38.4287C171.791 38.9932 171.11 39.4345 170.299 39.7525C169.488 40.0639 168.576 40.2197 167.564 40.2197ZM179.409 30.9142V39.9082H177.112V24.9572H179.331V27.2933H179.526C179.876 26.534 180.408 25.924 181.122 25.4633C181.836 24.9961 182.757 24.7625 183.886 24.7625C184.899 24.7625 185.784 24.9701 186.544 25.3854C187.303 25.7943 187.893 26.4172 188.315 27.2543C188.737 28.0849 188.948 29.1362 188.948 30.4081V39.9082H186.651V30.5638C186.651 29.3893 186.346 28.4743 185.736 27.8189C185.126 27.157 184.289 26.826 183.225 26.826C182.491 26.826 181.836 26.985 181.258 27.303C180.687 27.621 180.236 28.0849 179.905 28.6949C179.574 29.3049 179.409 30.0447 179.409 30.9142ZM203.599 28.3056L201.535 28.8896C201.406 28.5457 201.214 28.2115 200.961 27.887C200.714 27.5561 200.377 27.2835 199.949 27.0694C199.52 26.8552 198.972 26.7482 198.304 26.7482C197.389 26.7482 196.626 26.9591 196.016 27.3809C195.413 27.7962 195.111 28.325 195.111 28.9675C195.111 29.5385 195.319 29.9895 195.734 30.3205C196.149 30.6514 196.798 30.9272 197.681 31.1478L199.9 31.6929C201.237 32.0174 202.233 32.5138 202.888 33.1822C203.544 33.8441 203.871 34.6974 203.871 35.7422C203.871 36.5987 203.625 37.3644 203.132 38.0393C202.645 38.7142 201.964 39.2463 201.088 39.6357C200.212 40.025 199.193 40.2197 198.031 40.2197C196.506 40.2197 195.244 39.8887 194.245 39.2268C193.245 38.5649 192.613 37.5981 192.347 36.3262L194.527 35.7811C194.735 36.5857 195.127 37.1892 195.705 37.5916C196.289 37.9939 197.051 38.1951 197.992 38.1951C199.063 38.1951 199.913 37.9679 200.543 37.5137C201.178 37.053 201.496 36.5014 201.496 35.859C201.496 35.3398 201.315 34.9051 200.951 34.5546C200.588 34.1977 200.03 33.9317 199.277 33.7565L196.785 33.1724C195.416 32.848 194.41 32.3451 193.768 31.6637C193.132 30.9759 192.814 30.116 192.814 29.0843C192.814 28.2407 193.051 27.4944 193.524 26.8455C194.005 26.1966 194.657 25.6872 195.481 25.3173C196.312 24.9474 197.253 24.7625 198.304 24.7625C199.783 24.7625 200.945 25.0869 201.788 25.7359C202.639 26.3848 203.242 27.2413 203.599 28.3056ZM214.764 39.9082V24.9572H217.062V39.9082H214.764ZM215.932 22.4653C215.485 22.4653 215.099 22.3128 214.774 22.0078C214.456 21.7028 214.297 21.3362 214.297 20.9079C214.297 20.4796 214.456 20.113 214.774 19.808C215.099 19.503 215.485 19.3505 215.932 19.3505C216.38 19.3505 216.763 19.503 217.081 19.808C217.405 20.113 217.568 20.4796 217.568 20.9079C217.568 21.3362 217.405 21.7028 217.081 22.0078C216.763 22.3128 216.38 22.4653 215.932 22.4653ZM227.79 24.9572V26.9039H219.73V24.9572H227.79ZM222.144 39.9082V22.8936C222.144 22.037 222.345 21.3232 222.748 20.7522C223.15 20.1811 223.672 19.7528 224.315 19.4673C224.957 19.1818 225.635 19.039 226.349 19.039C226.914 19.039 227.375 19.0845 227.731 19.1753C228.088 19.2662 228.354 19.3505 228.53 19.4284L227.868 21.4141C227.751 21.3751 227.589 21.3265 227.381 21.2681C227.18 21.2097 226.914 21.1805 226.583 21.1805C225.824 21.1805 225.275 21.3719 224.938 21.7548C224.607 22.1376 224.441 22.6989 224.441 23.4387V39.9082H222.144ZM241.832 39.9082L237.276 24.9572H239.69L242.922 36.4041H243.078L246.27 24.9572H248.723L251.877 36.3651H252.033L255.264 24.9572H257.678L253.123 39.9082H250.865L247.594 28.4224H247.36L244.09 39.9082H241.832ZM266.338 40.2197C264.897 40.2197 263.655 39.9017 262.61 39.2658C261.572 38.6233 260.77 37.7278 260.206 36.5793C259.648 35.4242 259.369 34.0809 259.369 32.5495C259.369 31.018 259.648 29.6683 260.206 28.5002C260.77 27.3257 261.555 26.4107 262.561 25.7553C263.574 25.0934 264.755 24.7625 266.104 24.7625C266.883 24.7625 267.652 24.8923 268.411 25.1518C269.171 25.4114 269.862 25.8332 270.485 26.4172C271.108 26.9948 271.604 27.7605 271.974 28.7144C272.344 29.6683 272.529 30.8428 272.529 32.238V33.2114H261.004V31.2257H270.193C270.193 30.3821 270.024 29.6294 269.686 28.9675C269.355 28.3056 268.882 27.7832 268.265 27.4003C267.655 27.0175 266.935 26.826 266.104 26.826C265.189 26.826 264.398 27.0532 263.729 27.5074C263.067 27.9552 262.558 28.5392 262.201 29.2595C261.844 29.9798 261.666 30.752 261.666 31.5761V32.8999C261.666 34.029 261.86 34.9862 262.25 35.7714C262.646 36.5501 263.194 37.1438 263.895 37.5526C264.596 37.955 265.41 38.1561 266.338 38.1561C266.942 38.1561 267.487 38.0718 267.973 37.903C268.466 37.7278 268.891 37.4683 269.248 37.1243C269.605 36.7739 269.881 36.3392 270.076 35.82L272.295 36.443C272.061 37.1957 271.669 37.8576 271.117 38.4287C270.566 38.9932 269.884 39.4345 269.073 39.7525C268.262 40.0639 267.35 40.2197 266.338 40.2197ZM32.7485 58.3056L30.6849 58.8896C30.5551 58.5457 30.3637 58.2115 30.1106 57.887C29.864 57.5561 29.5266 57.2835 29.0983 57.0694C28.67 56.8552 28.1217 56.7482 27.4533 56.7482C26.5383 56.7482 25.7759 56.9591 25.1659 57.3809C24.5624 57.7962 24.2606 58.325 24.2606 58.9675C24.2606 59.5385 24.4683 59.9895 24.8836 60.3205C25.2989 60.6514 25.9478 60.9272 26.8304 61.1478L29.0497 61.6929C30.3864 62.0174 31.3825 62.5138 32.0379 63.1822C32.6933 63.8441 33.021 64.6974 33.021 65.7422C33.021 66.5987 32.7744 67.3644 32.2813 68.0393C31.7946 68.7142 31.1132 69.2463 30.2372 69.6357C29.3611 70.025 28.3423 70.2197 27.1808 70.2197C25.6558 70.2197 24.3937 69.8887 23.3943 69.2268C22.395 68.5649 21.7623 67.5981 21.4963 66.3262L23.6766 65.7811C23.8843 66.5857 24.2769 67.1892 24.8544 67.5916C25.4384 67.9939 26.2009 68.1951 27.1418 68.1951C28.2125 68.1951 29.0626 67.9679 29.6921 67.5137C30.328 67.053 30.646 66.5014 30.646 65.859C30.646 65.3398 30.4643 64.9051 30.1009 64.5546C29.7375 64.1977 29.1794 63.9317 28.4267 63.7565L25.9349 63.1724C24.5656 62.848 23.5598 62.3451 22.9174 61.6637C22.2814 60.9759 21.9635 60.116 21.9635 59.0843C21.9635 58.2407 22.2003 57.4944 22.674 56.8455C23.1542 56.1966 23.8064 55.6872 24.6305 55.3173C25.4611 54.9474 26.4021 54.7625 27.4533 54.7625C28.9328 54.7625 30.0944 55.0869 30.938 55.7359C31.7881 56.3848 32.3916 57.2413 32.7485 58.3056ZM38.6391 60.9142V69.9082H36.3419V49.9735H38.6391V57.2933H38.8337C39.1841 56.521 39.7098 55.9078 40.4106 55.4536C41.1179 54.9928 42.0588 54.7625 43.2334 54.7625C44.2522 54.7625 45.1444 54.9669 45.9102 55.3757C46.6759 55.778 47.2696 56.3978 47.6914 57.2349C48.1197 58.0655 48.3339 59.1232 48.3339 60.4081V69.9082H46.0367V60.5638C46.0367 59.3763 45.7285 58.4581 45.112 57.8091C44.502 57.1537 43.6552 56.826 42.5715 56.826C41.8187 56.826 41.1439 56.985 40.5469 57.303C39.9564 57.621 39.4891 58.0849 39.1452 58.6949C38.8078 59.3049 38.6391 60.0447 38.6391 60.9142ZM52.3994 69.9082V54.9572H54.6965V69.9082H52.3994ZM53.5674 52.4653C53.1197 52.4653 52.7336 52.3128 52.4091 52.0078C52.0911 51.7028 51.9321 51.3362 51.9321 50.9079C51.9321 50.4796 52.0911 50.113 52.4091 49.808C52.7336 49.503 53.1197 49.3505 53.5674 49.3505C54.0152 49.3505 54.398 49.503 54.716 49.808C55.0405 50.113 55.2027 50.4796 55.2027 50.9079C55.2027 51.3362 55.0405 51.7028 54.716 52.0078C54.398 52.3128 54.0152 52.4653 53.5674 52.4653ZM65.4248 54.9572V56.9039H57.3652V54.9572H65.4248ZM59.7792 69.9082V52.8936C59.7792 52.037 59.9804 51.3232 60.3827 50.7522C60.785 50.1811 61.3074 49.7528 61.9498 49.4673C62.5923 49.1818 63.2704 49.039 63.9842 49.039C64.5487 49.039 65.0095 49.0845 65.3664 49.1753C65.7233 49.2662 65.9893 49.3505 66.1645 49.4284L65.5027 51.4141C65.3858 51.3751 65.2236 51.3265 65.016 51.2681C64.8148 51.2097 64.5487 51.1805 64.2178 51.1805C63.4586 51.1805 62.9102 51.3719 62.5728 51.7548C62.2418 52.1376 62.0764 52.6989 62.0764 53.4387V69.9082H59.7792ZM75.0093 54.9572V56.9039H67.2612V54.9572H75.0093ZM69.5195 51.3751H71.8166V65.6254C71.8166 66.2743 71.9107 66.761 72.0989 67.0854C72.2936 67.4034 72.5402 67.6175 72.8387 67.7278C73.1437 67.8317 73.4649 67.8836 73.8023 67.8836C74.0554 67.8836 74.2631 67.8706 74.4253 67.8446C74.5875 67.8122 74.7173 67.7862 74.8146 67.7668L75.2819 69.8303C75.1261 69.8887 74.9087 69.9471 74.6297 70.0055C74.3507 70.0704 73.997 70.1029 73.5687 70.1029C72.9198 70.1029 72.2839 69.9634 71.6609 69.6843C71.0444 69.4053 70.5318 68.9803 70.123 68.4092C69.7206 67.8382 69.5195 67.1179 69.5195 66.2483V51.3751ZM96.4902 58.3056L94.4266 58.8896C94.2968 58.5457 94.1054 58.2115 93.8523 57.887C93.6057 57.5561 93.2683 57.2835 92.84 57.0694C92.4117 56.8552 91.8634 56.7482 91.195 56.7482C90.28 56.7482 89.5175 56.9591 88.9076 57.3809C88.3041 57.7962 88.0023 58.325 88.0023 58.9675C88.0023 59.5385 88.21 59.9895 88.6253 60.3205C89.0406 60.6514 89.6895 60.9272 90.572 61.1478L92.7913 61.6929C94.1281 62.0174 95.1242 62.5138 95.7796 63.1822C96.435 63.8441 96.7627 64.6974 96.7627 65.7422C96.7627 66.5987 96.5161 67.3644 96.0229 68.0393C95.5362 68.7142 94.8549 69.2463 93.9788 69.6357C93.1028 70.025 92.084 70.2197 90.9224 70.2197C89.3975 70.2197 88.1353 69.8887 87.136 69.2268C86.1367 68.5649 85.504 67.5981 85.2379 66.3262L87.4183 65.7811C87.6259 66.5857 88.0185 67.1892 88.5961 67.5916C89.1801 67.9939 89.9426 68.1951 90.8835 68.1951C91.9542 68.1951 92.8043 67.9679 93.4338 67.5137C94.0697 67.053 94.3877 66.5014 94.3877 65.859C94.3877 65.3398 94.206 64.9051 93.8426 64.5546C93.4792 64.1977 92.9211 63.9317 92.1684 63.7565L89.6765 63.1724C88.3073 62.848 87.3015 62.3451 86.6591 61.6637C86.0231 60.9759 85.7052 60.116 85.7052 59.0843C85.7052 58.2407 85.942 57.4944 86.4157 56.8455C86.8959 56.1966 87.5481 55.6872 88.3722 55.3173C89.2028 54.9474 90.1437 54.7625 91.195 54.7625C92.6745 54.7625 93.8361 55.0869 94.6797 55.7359C95.5298 56.3848 96.1332 57.2413 96.4902 58.3056ZM104.483 70.2586C103.536 70.2586 102.676 70.0802 101.904 69.7233C101.132 69.3599 100.518 68.8375 100.064 68.1561C99.6099 67.4683 99.3827 66.6377 99.3827 65.6643C99.3827 64.8077 99.5515 64.1134 99.8889 63.5813C100.226 63.0427 100.677 62.6209 101.242 62.3159C101.806 62.0109 102.429 61.7838 103.111 61.6345C103.799 61.4788 104.49 61.3555 105.184 61.2646C106.093 61.1478 106.829 61.0602 107.394 61.0018C107.965 60.9369 108.38 60.8299 108.64 60.6806C108.906 60.5314 109.039 60.2718 109.039 59.9019V59.824C109.039 58.8636 108.776 58.1174 108.25 57.5853C107.731 57.0532 106.943 56.7871 105.885 56.7871C104.788 56.7871 103.928 57.0272 103.305 57.5074C102.682 57.9876 102.244 58.5002 101.991 59.0453L99.811 58.2666C100.2 57.3582 100.72 56.6508 101.368 56.1447C102.024 55.632 102.738 55.2751 103.51 55.074C104.289 54.8663 105.054 54.7625 105.807 54.7625C106.287 54.7625 106.839 54.8209 107.462 54.9377C108.091 55.048 108.698 55.2784 109.282 55.6288C109.872 55.9792 110.362 56.5081 110.752 57.2154C111.141 57.9227 111.336 58.8701 111.336 60.0576V69.9082H109.039V67.8836H108.922C108.766 68.208 108.507 68.5552 108.143 68.9251C107.78 69.295 107.296 69.6097 106.693 69.8693C106.089 70.1288 105.353 70.2586 104.483 70.2586ZM104.834 68.1951C105.742 68.1951 106.508 68.0166 107.131 67.6597C107.76 67.3028 108.234 66.8421 108.552 66.2775C108.876 65.713 109.039 65.1192 109.039 64.4962V62.3937C108.941 62.5106 108.727 62.6176 108.396 62.715C108.072 62.8058 107.695 62.8869 107.267 62.9583C106.845 63.0232 106.433 63.0816 106.031 63.1335C105.635 63.1789 105.314 63.2179 105.067 63.2503C104.47 63.3282 103.912 63.4547 103.393 63.6299C102.88 63.7987 102.465 64.055 102.147 64.3989C101.836 64.7363 101.68 65.1971 101.68 65.7811C101.68 66.5793 101.975 67.1828 102.566 67.5916C103.163 67.9939 103.919 68.1951 104.834 68.1951ZM117.689 49.9735V69.9082H115.392V49.9735H117.689ZM128.028 70.2197C126.587 70.2197 125.344 69.9017 124.3 69.2658C123.261 68.6233 122.46 67.7278 121.895 66.5793C121.337 65.4242 121.058 64.0809 121.058 62.5495C121.058 61.018 121.337 59.6683 121.895 58.5002C122.46 57.3257 123.245 56.4107 124.251 55.7553C125.263 55.0934 126.444 54.7625 127.794 54.7625C128.573 54.7625 129.342 54.8923 130.101 55.1518C130.86 55.4114 131.551 55.8332 132.174 56.4172C132.797 56.9948 133.294 57.7605 133.663 58.7144C134.033 59.6683 134.218 60.8428 134.218 62.238V63.2114H122.694V61.2257H131.882C131.882 60.3821 131.713 59.6294 131.376 58.9675C131.045 58.3056 130.571 57.7832 129.955 57.4003C129.345 57.0175 128.625 56.826 127.794 56.826C126.879 56.826 126.087 57.0532 125.419 57.5074C124.757 57.9552 124.248 58.5392 123.891 59.2595C123.534 59.9798 123.355 60.752 123.355 61.5761V62.8999C123.355 64.029 123.55 64.9862 123.939 65.7714C124.335 66.5501 124.884 67.1438 125.584 67.5526C126.285 67.955 127.1 68.1561 128.028 68.1561C128.631 68.1561 129.176 68.0718 129.663 67.903C130.156 67.7278 130.581 67.4683 130.938 67.1243C131.295 66.7739 131.571 66.3392 131.765 65.82L133.985 66.443C133.751 67.1957 133.358 67.8576 132.807 68.4287C132.255 68.9932 131.574 69.4345 130.763 69.7525C129.952 70.0639 129.04 70.2197 128.028 70.2197ZM148.166 58.3056L146.102 58.8896C145.973 58.5457 145.781 58.2115 145.528 57.887C145.282 57.5561 144.944 57.2835 144.516 57.0694C144.088 56.8552 143.539 56.7482 142.871 56.7482C141.956 56.7482 141.193 56.9591 140.583 57.3809C139.98 57.7962 139.678 58.325 139.678 58.9675C139.678 59.5385 139.886 59.9895 140.301 60.3205C140.716 60.6514 141.365 60.9272 142.248 61.1478L144.467 61.6929C145.804 62.0174 146.8 62.5138 147.455 63.1822C148.111 63.8441 148.439 64.6974 148.439 65.7422C148.439 66.5987 148.192 67.3644 147.699 68.0393C147.212 68.7142 146.531 69.2463 145.655 69.6357C144.779 70.025 143.76 70.2197 142.598 70.2197C141.073 70.2197 139.811 69.8887 138.812 69.2268C137.812 68.5649 137.18 67.5981 136.914 66.3262L139.094 65.7811C139.302 66.5857 139.694 67.1892 140.272 67.5916C140.856 67.9939 141.618 68.1951 142.559 68.1951C143.63 68.1951 144.48 67.9679 145.11 67.5137C145.746 67.053 146.063 66.5014 146.063 65.859C146.063 65.3398 145.882 64.9051 145.518 64.5546C145.155 64.1977 144.597 63.9317 143.844 63.7565L141.352 63.1724C139.983 62.848 138.977 62.3451 138.335 61.6637C137.699 60.9759 137.381 60.116 137.381 59.0843C137.381 58.2407 137.618 57.4944 138.092 56.8455C138.572 56.1966 139.224 55.6872 140.048 55.3173C140.879 54.9474 141.82 54.7625 142.871 54.7625C144.35 54.7625 145.512 55.0869 146.355 55.7359C147.206 56.3848 147.809 57.2413 148.166 58.3056ZM165.6 70.2197C164.159 70.2197 162.917 69.9017 161.872 69.2658C160.834 68.6233 160.032 67.7278 159.468 66.5793C158.91 65.4242 158.631 64.0809 158.631 62.5495C158.631 61.018 158.91 59.6683 159.468 58.5002C160.032 57.3257 160.817 56.4107 161.823 55.7553C162.836 55.0934 164.017 54.7625 165.366 54.7625C166.145 54.7625 166.914 54.8923 167.673 55.1518C168.433 55.4114 169.124 55.8332 169.747 56.4172C170.37 56.9948 170.866 57.7605 171.236 58.7144C171.606 59.6683 171.791 60.8428 171.791 62.238V63.2114H160.266V61.2257H169.455C169.455 60.3821 169.286 59.6294 168.948 58.9675C168.617 58.3056 168.144 57.7832 167.527 57.4003C166.917 57.0175 166.197 56.826 165.366 56.826C164.451 56.826 163.66 57.0532 162.991 57.5074C162.329 57.9552 161.82 58.5392 161.463 59.2595C161.106 59.9798 160.928 60.752 160.928 61.5761V62.8999C160.928 64.029 161.122 64.9862 161.512 65.7714C161.908 66.5501 162.456 67.1438 163.157 67.5526C163.858 67.955 164.672 68.1561 165.6 68.1561C166.203 68.1561 166.749 68.0718 167.235 67.903C167.728 67.7278 168.153 67.4683 168.51 67.1243C168.867 66.7739 169.143 66.3392 169.338 65.82L171.557 66.443C171.323 67.1957 170.931 67.8576 170.379 68.4287C169.828 68.9932 169.146 69.4345 168.335 69.7525C167.524 70.0639 166.612 70.2197 165.6 70.2197ZM181.806 54.9572V56.9039H173.746V54.9572H181.806ZM176.16 69.9082V52.8936C176.16 52.037 176.361 51.3232 176.764 50.7522C177.166 50.1811 177.689 49.7528 178.331 49.4673C178.973 49.1818 179.652 49.039 180.365 49.039C180.93 49.039 181.391 49.0845 181.748 49.1753C182.104 49.2662 182.37 49.3505 182.546 49.4284L181.884 51.4141C181.767 51.3751 181.605 51.3265 181.397 51.2681C181.196 51.2097 180.93 51.1805 180.599 51.1805C179.84 51.1805 179.291 51.3719 178.954 51.7548C178.623 52.1376 178.457 52.6989 178.457 53.4387V69.9082H176.16ZM191.546 54.9572V56.9039H183.487V54.9572H191.546ZM185.901 69.9082V52.8936C185.901 52.037 186.102 51.3232 186.504 50.7522C186.906 50.1811 187.429 49.7528 188.071 49.4673C188.714 49.1818 189.392 49.039 190.106 49.039C190.67 49.039 191.131 49.0845 191.488 49.1753C191.845 49.2662 192.111 49.3505 192.286 49.4284L191.624 51.4141C191.507 51.3751 191.345 51.3265 191.137 51.2681C190.936 51.2097 190.67 51.1805 190.339 51.1805C189.58 51.1805 189.032 51.3719 188.694 51.7548C188.363 52.1376 188.198 52.6989 188.198 53.4387V69.9082H185.901ZM200.087 70.2197C198.737 70.2197 197.553 69.8985 196.534 69.256C195.522 68.6136 194.73 67.7149 194.159 66.5598C193.594 65.4047 193.312 64.055 193.312 62.5106C193.312 60.9532 193.594 59.5937 194.159 58.4321C194.73 57.2705 195.522 56.3686 196.534 55.7261C197.553 55.0837 198.737 54.7625 200.087 54.7625C201.437 54.7625 202.618 55.0837 203.63 55.7261C204.649 56.3686 205.44 57.2705 206.005 58.4321C206.576 59.5937 206.861 60.9532 206.861 62.5106C206.861 64.055 206.576 65.4047 206.005 66.5598C205.44 67.7149 204.649 68.6136 203.63 69.256C202.618 69.8985 201.437 70.2197 200.087 70.2197ZM200.087 68.1561C201.112 68.1561 201.956 67.8933 202.618 67.3677C203.279 66.8421 203.769 66.151 204.087 65.2944C204.405 64.4378 204.564 63.5099 204.564 62.5106C204.564 61.5112 204.405 60.58 204.087 59.717C203.769 58.8539 203.279 58.1563 202.618 57.6242C201.956 57.0921 201.112 56.826 200.087 56.826C199.061 56.826 198.218 57.0921 197.556 57.6242C196.894 58.1563 196.404 58.8539 196.086 59.717C195.768 60.58 195.609 61.5112 195.609 62.5106C195.609 63.5099 195.768 64.4378 196.086 65.2944C196.404 66.151 196.894 66.8421 197.556 67.3677C198.218 67.8933 199.061 68.1561 200.087 68.1561ZM210.231 69.9082V54.9572H212.45V57.2154H212.606C212.879 56.4756 213.372 55.8754 214.086 55.4146C214.799 54.9539 215.604 54.7235 216.5 54.7235C216.668 54.7235 216.879 54.7268 217.132 54.7333C217.385 54.7398 217.577 54.7495 217.707 54.7625V57.0986C217.629 57.0791 217.45 57.0499 217.171 57.011C216.899 56.9656 216.61 56.9428 216.305 56.9428C215.578 56.9428 214.929 57.0953 214.358 57.4003C213.794 57.6988 213.346 58.1141 213.015 58.6463C212.69 59.1719 212.528 59.7721 212.528 60.447V69.9082H210.231ZM227.732 54.9572V56.9039H219.983V54.9572H227.732ZM222.242 51.3751H224.539V65.6254C224.539 66.2743 224.633 66.761 224.821 67.0854C225.016 67.4034 225.262 67.6175 225.561 67.7278C225.866 67.8317 226.187 67.8836 226.525 67.8836C226.778 67.8836 226.985 67.8706 227.147 67.8446C227.31 67.8122 227.44 67.7862 227.537 67.7668L228.004 69.8303C227.848 69.8887 227.631 69.9471 227.352 70.0055C227.073 70.0704 226.719 70.1029 226.291 70.1029C225.642 70.1029 225.006 69.9634 224.383 69.6843C223.767 69.4053 223.254 68.9803 222.845 68.4092C222.443 67.8382 222.242 67.1179 222.242 66.2483V51.3751ZM245.124 54.9572V56.9039H237.376V54.9572H245.124ZM239.634 51.3751H241.931V65.6254C241.931 66.2743 242.026 66.761 242.214 67.0854C242.408 67.4034 242.655 67.6175 242.954 67.7278C243.259 67.8317 243.58 67.8836 243.917 67.8836C244.17 67.8836 244.378 67.8706 244.54 67.8446C244.702 67.8122 244.832 67.7862 244.929 67.7668L245.397 69.8303C245.241 69.8887 245.024 69.9471 244.745 70.0055C244.466 70.0704 244.112 70.1029 243.684 70.1029C243.035 70.1029 242.399 69.9634 241.776 69.6843C241.159 69.4053 240.647 68.9803 240.238 68.4092C239.835 67.8382 239.634 67.1179 239.634 66.2483V51.3751ZM254.356 70.2197C253.006 70.2197 251.822 69.8985 250.803 69.256C249.791 68.6136 248.999 67.7149 248.428 66.5598C247.863 65.4047 247.581 64.055 247.581 62.5106C247.581 60.9532 247.863 59.5937 248.428 58.4321C248.999 57.2705 249.791 56.3686 250.803 55.7261C251.822 55.0837 253.006 54.7625 254.356 54.7625C255.706 54.7625 256.887 55.0837 257.899 55.7261C258.918 56.3686 259.709 57.2705 260.274 58.4321C260.845 59.5937 261.131 60.9532 261.131 62.5106C261.131 64.055 260.845 65.4047 260.274 66.5598C259.709 67.7149 258.918 68.6136 257.899 69.256C256.887 69.8985 255.706 70.2197 254.356 70.2197ZM254.356 68.1561C255.381 68.1561 256.225 67.8933 256.887 67.3677C257.549 66.8421 258.038 66.151 258.356 65.2944C258.674 64.4378 258.833 63.5099 258.833 62.5106C258.833 61.5112 258.674 60.58 258.356 59.717C258.038 58.8539 257.549 58.1563 256.887 57.6242C256.225 57.0921 255.381 56.826 254.356 56.826C253.331 56.826 252.487 57.0921 251.825 57.6242C251.163 58.1563 250.673 58.8539 250.355 59.717C250.037 60.58 249.878 61.5112 249.878 62.5106C249.878 63.5099 250.037 64.4378 250.355 65.2944C250.673 66.151 251.163 66.8421 251.825 67.3677C252.487 67.8933 253.331 68.1561 254.356 68.1561ZM28.6603 84.9572V86.9039H20.9122V84.9572H28.6603ZM23.1705 81.3751H25.4676V95.6254C25.4676 96.2743 25.5617 96.761 25.7499 97.0854C25.9446 97.4034 26.1912 97.6175 26.4897 97.7278C26.7947 97.8317 27.1159 97.8836 27.4533 97.8836C27.7064 97.8836 27.914 97.8706 28.0763 97.8446C28.2385 97.8122 28.3683 97.7862 28.4656 97.7668L28.9328 99.8303C28.7771 99.8887 28.5597 99.9471 28.2807 100.006C28.0017 100.07 27.648 100.103 27.2197 100.103C26.5708 100.103 25.9349 99.9634 25.3119 99.6843C24.6954 99.4053 24.1828 98.9803 23.774 98.4092C23.3716 97.8382 23.1705 97.1179 23.1705 96.2483V81.3751ZM37.892 100.22C36.5422 100.22 35.358 99.8985 34.3392 99.256C33.3269 98.6136 32.5352 97.7149 31.9641 96.5598C31.3996 95.4047 31.1173 94.055 31.1173 92.5106C31.1173 90.9532 31.3996 89.5937 31.9641 88.4321C32.5352 87.2705 33.3269 86.3686 34.3392 85.7261C35.358 85.0837 36.5422 84.7625 37.892 84.7625C39.2417 84.7625 40.4228 85.0837 41.4351 85.7261C42.4539 86.3686 43.2456 87.2705 43.8101 88.4321C44.3812 89.5937 44.6667 90.9532 44.6667 92.5106C44.6667 94.055 44.3812 95.4047 43.8101 96.5598C43.2456 97.7149 42.4539 98.6136 41.4351 99.256C40.4228 99.8985 39.2417 100.22 37.892 100.22ZM37.892 98.1561C38.9173 98.1561 39.7609 97.8933 40.4228 97.3677C41.0847 96.8421 41.5746 96.151 41.8926 95.2944C42.2105 94.4378 42.3695 93.5099 42.3695 92.5106C42.3695 91.5112 42.2105 90.58 41.8926 89.717C41.5746 88.8539 41.0847 88.1563 40.4228 87.6242C39.7609 87.0921 38.9173 86.826 37.892 86.826C36.8667 86.826 36.0231 87.0921 35.3612 87.6242C34.6993 88.1563 34.2094 88.8539 33.8914 89.717C33.5734 90.58 33.4145 91.5112 33.4145 92.5106C33.4145 93.5099 33.5734 94.4378 33.8914 95.2944C34.2094 96.151 34.6993 96.8421 35.3612 97.3677C36.0231 97.8933 36.8667 98.1561 37.892 98.1561ZM48.0362 105.515V84.9572H50.2555V87.3322H50.5281C50.6968 87.0726 50.9304 86.7417 51.2289 86.3394C51.5339 85.9305 51.9686 85.5671 52.5332 85.2492C53.1043 84.9247 53.8765 84.7625 54.8498 84.7625C56.1087 84.7625 57.2184 85.0772 58.1788 85.7067C59.1392 86.3361 59.8887 87.2284 60.4273 88.3834C60.9659 89.5385 61.2352 90.9012 61.2352 92.4716C61.2352 94.055 60.9659 95.4274 60.4273 96.589C59.8887 97.7441 59.1424 98.6396 58.1885 99.2755C57.2346 99.905 56.1347 100.22 54.8888 100.22C53.9284 100.22 53.1594 100.061 52.5819 99.7427C52.0043 99.4183 51.5598 99.0516 51.2484 98.6428C50.9369 98.2275 50.6968 97.8836 50.5281 97.611H50.3334V105.515H48.0362ZM50.2944 92.4327C50.2944 93.5618 50.4599 94.5579 50.7909 95.4209C51.1218 96.2775 51.6053 96.9491 52.2412 97.4358C52.8771 97.916 53.6558 98.1561 54.5773 98.1561C55.5377 98.1561 56.3391 97.9031 56.9815 97.3969C57.6304 96.8843 58.1171 96.1964 58.4416 95.3333C58.7725 94.4638 58.938 93.4969 58.938 92.4327C58.938 91.3814 58.7758 90.434 58.4513 89.5904C58.1334 88.7403 57.6499 88.0687 57.001 87.5755C56.3586 87.0759 55.5507 86.826 54.5773 86.826C53.6429 86.826 52.8577 87.0629 52.2217 87.5366C51.5858 88.0038 51.1056 88.6592 50.7811 89.5028C50.4567 90.3399 50.2944 91.3165 50.2944 92.4327ZM72.1744 99.9082V84.9572H74.3937V87.2154H74.5494C74.8219 86.4756 75.3151 85.8754 76.0289 85.4146C76.7427 84.9539 77.5474 84.7235 78.4429 84.7235C78.6116 84.7235 78.8225 84.7268 79.0756 84.7333C79.3287 84.7398 79.5201 84.7495 79.6499 84.7625V87.0986C79.572 87.0791 79.3936 87.0499 79.1145 87.011C78.842 86.9656 78.5532 86.9428 78.2482 86.9428C77.5214 86.9428 76.8725 87.0953 76.3015 87.4003C75.7369 87.6988 75.2892 88.1141 74.9582 88.6463C74.6338 89.1719 74.4715 89.7721 74.4715 90.447V99.9082H72.1744ZM88.0493 100.22C86.6087 100.22 85.3661 99.9017 84.3213 99.2658C83.283 98.6233 82.4816 97.7278 81.9171 96.5793C81.359 95.4242 81.08 94.0809 81.08 92.5495C81.08 91.018 81.359 89.6683 81.9171 88.5002C82.4816 87.3257 83.2668 86.4107 84.2726 85.7553C85.2849 85.0934 86.466 84.7625 87.8157 84.7625C88.5944 84.7625 89.3634 84.8923 90.1226 85.1518C90.8819 85.4114 91.573 85.8332 92.1959 86.4172C92.8189 86.9948 93.3153 87.7605 93.6852 88.7144C94.0551 89.6683 94.24 90.8428 94.24 92.238V93.2114H82.7152V91.2257H91.9039C91.9039 90.3821 91.7352 89.6294 91.3977 88.9675C91.0668 88.3056 90.5931 87.7832 89.9766 87.4003C89.3666 87.0175 88.6463 86.826 87.8157 86.826C86.9008 86.826 86.1091 87.0532 85.4407 87.5074C84.7788 87.9552 84.2694 88.5392 83.9125 89.2595C83.5556 89.9798 83.3771 90.752 83.3771 91.5761V92.8999C83.3771 94.029 83.5718 94.9862 83.9612 95.7714C84.357 96.5501 84.9053 97.1438 85.6062 97.5526C86.307 97.955 87.1214 98.1561 88.0493 98.1561C88.6528 98.1561 89.1979 98.0718 89.6846 97.903C90.1778 97.7278 90.6028 97.4683 90.9597 97.1243C91.3166 96.7739 91.5924 96.3392 91.7871 95.82L94.0064 96.443C93.7728 97.1957 93.3802 97.8576 92.8286 98.4287C92.277 98.9932 91.5957 99.4345 90.7845 99.7525C89.9734 100.064 89.0616 100.22 88.0493 100.22ZM103.632 105.826C102.523 105.826 101.569 105.684 100.771 105.398C99.9724 105.119 99.3073 104.749 98.7751 104.288C98.2495 103.834 97.831 103.347 97.5195 102.828L99.3494 101.543C99.5571 101.816 99.8199 102.127 100.138 102.478C100.456 102.835 100.891 103.143 101.442 103.403C102 103.669 102.73 103.802 103.632 103.802C104.839 103.802 105.835 103.51 106.621 102.926C107.406 102.342 107.798 101.427 107.798 100.181V97.1438H107.604C107.435 97.4164 107.195 97.7538 106.883 98.1561C106.578 98.552 106.137 98.9056 105.56 99.2171C104.989 99.5221 104.216 99.6746 103.243 99.6746C102.036 99.6746 100.952 99.3891 99.9919 98.818C99.038 98.247 98.282 97.4164 97.7239 96.3262C97.1723 95.236 96.8965 93.9122 96.8965 92.3548C96.8965 90.8234 97.1658 89.4898 97.7044 88.3542C98.243 87.2121 98.9925 86.3296 99.9529 85.7067C100.913 85.0772 102.023 84.7625 103.282 84.7625C104.255 84.7625 105.027 84.9247 105.599 85.2492C106.176 85.5671 106.617 85.9305 106.922 86.3394C107.234 86.7417 107.474 87.0726 107.643 87.3322H107.876V84.9572H110.096V100.336C110.096 101.621 109.803 102.666 109.219 103.471C108.642 104.282 107.863 104.876 106.883 105.252C105.91 105.635 104.826 105.826 103.632 105.826ZM103.554 97.611C104.476 97.611 105.255 97.4001 105.891 96.9783C106.526 96.5565 107.01 95.9498 107.341 95.1581C107.672 94.3665 107.837 93.419 107.837 92.3159C107.837 91.2387 107.675 90.288 107.351 89.4639C107.026 88.6398 106.546 87.9941 105.91 87.5269C105.274 87.0596 104.489 86.826 103.554 86.826C102.581 86.826 101.77 87.0726 101.121 87.5658C100.479 88.059 99.9951 88.7209 99.6707 89.5515C99.3527 90.3821 99.1937 91.3036 99.1937 92.3159C99.1937 93.3541 99.3559 94.2724 99.6804 95.0705C100.011 95.8622 100.498 96.4852 101.14 96.9394C101.789 97.3872 102.594 97.611 103.554 97.611ZM114.163 99.9082V84.9572H116.461V99.9082H114.163ZM115.331 82.4653C114.884 82.4653 114.498 82.3128 114.173 82.0078C113.855 81.7028 113.696 81.3362 113.696 80.9079C113.696 80.4796 113.855 80.113 114.173 79.808C114.498 79.503 114.884 79.3505 115.331 79.3505C115.779 79.3505 116.162 79.503 116.48 79.808C116.805 80.113 116.967 80.4796 116.967 80.9079C116.967 81.3362 116.805 81.7028 116.48 82.0078C116.162 82.3128 115.779 82.4653 115.331 82.4653ZM126.605 100.22C125.255 100.22 124.071 99.8985 123.052 99.256C122.04 98.6136 121.248 97.7149 120.677 96.5598C120.112 95.4047 119.83 94.055 119.83 92.5106C119.83 90.9532 120.112 89.5937 120.677 88.4321C121.248 87.2705 122.04 86.3686 123.052 85.7261C124.071 85.0837 125.255 84.7625 126.605 84.7625C127.955 84.7625 129.136 85.0837 130.148 85.7261C131.167 86.3686 131.958 87.2705 132.523 88.4321C133.094 89.5937 133.38 90.9532 133.38 92.5106C133.38 94.055 133.094 95.4047 132.523 96.5598C131.958 97.7149 131.167 98.6136 130.148 99.256C129.136 99.8985 127.955 100.22 126.605 100.22ZM126.605 98.1561C127.63 98.1561 128.474 97.8933 129.136 97.3677C129.797 96.8421 130.287 96.151 130.605 95.2944C130.923 94.4378 131.082 93.5099 131.082 92.5106C131.082 91.5112 130.923 90.58 130.605 89.717C130.287 88.8539 129.797 88.1563 129.136 87.6242C128.474 87.0921 127.63 86.826 126.605 86.826C125.58 86.826 124.736 87.0921 124.074 87.6242C123.412 88.1563 122.922 88.8539 122.604 89.717C122.286 90.58 122.127 91.5112 122.127 92.5106C122.127 93.5099 122.286 94.4378 122.604 95.2944C122.922 96.151 123.412 96.8421 124.074 97.3677C124.736 97.8933 125.58 98.1561 126.605 98.1561ZM139.046 90.9142V99.9082H136.749V84.9572H138.968V87.2933H139.163C139.513 86.534 140.046 85.924 140.759 85.4633C141.473 84.9961 142.395 84.7625 143.524 84.7625C144.536 84.7625 145.422 84.9701 146.181 85.3854C146.94 85.7943 147.531 86.4172 147.953 87.2543C148.374 88.0849 148.585 89.1362 148.585 90.4081V99.9082H146.288V90.5638C146.288 89.3893 145.983 88.4743 145.373 87.8189C144.763 87.157 143.926 86.826 142.862 86.826C142.129 86.826 141.473 86.985 140.896 87.303C140.325 87.621 139.874 88.0849 139.543 88.6949C139.212 89.3049 139.046 90.0447 139.046 90.9142ZM163.236 88.3056L161.173 88.8896C161.043 88.5457 160.851 88.2115 160.598 87.887C160.352 87.5561 160.014 87.2835 159.586 87.0694C159.158 86.8552 158.609 86.7482 157.941 86.7482C157.026 86.7482 156.264 86.9591 155.654 87.3809C155.05 87.7962 154.748 88.325 154.748 88.9675C154.748 89.5385 154.956 89.9895 155.371 90.3205C155.787 90.6514 156.436 90.9272 157.318 91.1478L159.537 91.6929C160.874 92.0174 161.87 92.5138 162.526 93.1822C163.181 93.8441 163.509 94.6974 163.509 95.7422C163.509 96.5987 163.262 97.3644 162.769 98.0393C162.282 98.7142 161.601 99.2463 160.725 99.6357C159.849 100.025 158.83 100.22 157.669 100.22C156.144 100.22 154.881 99.8887 153.882 99.2268C152.883 98.5649 152.25 97.5981 151.984 96.3262L154.164 95.7811C154.372 96.5857 154.765 97.1892 155.342 97.5916C155.926 97.9939 156.689 98.1951 157.63 98.1951C158.7 98.1951 159.55 97.9679 160.18 97.5137C160.816 97.053 161.134 96.5014 161.134 95.859C161.134 95.3398 160.952 94.9051 160.589 94.5546C160.225 94.1977 159.667 93.9317 158.914 93.7565L156.423 93.1724C155.053 92.848 154.048 92.3451 153.405 91.6637C152.769 90.9759 152.451 90.116 152.451 89.0843C152.451 88.2407 152.688 87.4944 153.162 86.8455C153.642 86.1966 154.294 85.6872 155.118 85.3173C155.949 84.9474 156.89 84.7625 157.941 84.7625C159.421 84.7625 160.582 85.0869 161.426 85.7359C162.276 86.3848 162.879 87.2413 163.236 88.3056ZM169.828 94.3016V94.1848C169.841 92.9453 169.97 91.959 170.217 91.2257C170.464 90.4924 170.814 89.8987 171.268 89.4444C171.722 88.9902 172.268 88.5716 172.904 88.1888C173.286 87.9552 173.63 87.6794 173.935 87.3614C174.24 87.0369 174.48 86.6638 174.656 86.242C174.837 85.8202 174.928 85.353 174.928 84.8404C174.928 84.2044 174.779 83.6528 174.48 83.1856C174.182 82.7184 173.783 82.3582 173.283 82.1052C172.783 81.8521 172.229 81.7256 171.619 81.7256C171.087 81.7256 170.574 81.8359 170.081 82.0565C169.588 82.2771 169.175 82.6243 168.845 83.098C168.514 83.5717 168.322 84.1914 168.27 84.9572H165.817C165.869 83.854 166.155 82.9098 166.674 82.1246C167.2 81.3394 167.891 80.7392 168.747 80.3239C169.61 79.9086 170.567 79.7009 171.619 79.7009C172.761 79.7009 173.754 79.9281 174.597 80.3823C175.447 80.8365 176.103 81.4595 176.563 82.2512C177.031 83.0429 177.264 83.9448 177.264 84.9572C177.264 85.671 177.154 86.3166 176.933 86.8942C176.719 87.4717 176.408 87.9876 175.999 88.4418C175.597 88.8961 175.11 89.2984 174.539 89.6488C173.968 90.0057 173.51 90.3821 173.166 90.7779C172.822 91.1673 172.573 91.6313 172.417 92.1699C172.261 92.7085 172.177 93.3801 172.164 94.1848V94.3016H169.828ZM171.074 100.064C170.593 100.064 170.181 99.892 169.837 99.5481C169.493 99.2041 169.322 98.7921 169.322 98.3119C169.322 97.8317 169.493 97.4196 169.837 97.0757C170.181 96.7318 170.593 96.5598 171.074 96.5598C171.554 96.5598 171.966 96.7318 172.31 97.0757C172.654 97.4196 172.826 97.8317 172.826 98.3119C172.826 98.6298 172.745 98.9218 172.582 99.1879C172.427 99.454 172.216 99.6681 171.95 99.8303C171.69 99.9861 171.398 100.064 171.074 100.064Z" fill="white"/>
<path d="M330.585 20.0556C330.585 9.20175 321.787 0.402954 310.933 0.402954V0.402954V28.8475H330.585V20.0556Z" fill="#278EFF" stroke="#278EFF" stroke-width="0.805851"/>
<rect width="19.6526" height="62.1217" transform="matrix(-1 0 0 1 330.585 28.8477)" fill="#278EFF" stroke="#278EFF" stroke-width="0.805851"/>
<path d="M310.933 90.9692V119.414C315.692 119.414 320.056 117.721 323.457 114.906C326.849 117.166 332.288 119.316 338.86 118.121C337.05 117.345 330.069 112.69 330.327 103.381C330.296 103.424 330.262 103.463 330.229 103.503C330.462 102.292 330.586 101.041 330.586 99.7612V90.9692H310.933Z" fill="#278EFF"/>
<path d="M310.933 90.9692H310.53V90.5663H310.933V90.9692ZM310.933 119.414V119.816H310.53V119.414H310.933ZM323.457 114.906L323.2 114.595L323.431 114.404L323.68 114.57L323.457 114.906ZM338.86 118.121L339.019 117.75L340.249 118.278L338.932 118.517L338.86 118.121ZM330.327 103.381L330.001 103.144L330.766 102.093L330.73 103.393L330.327 103.381ZM330.229 103.503L330.539 103.76L329.833 103.427L330.229 103.503ZM330.586 99.7612H330.989V99.7612H330.586ZM330.586 90.9692V90.5663H330.989V90.9692H330.586ZM310.933 90.9692H311.336V119.414H310.933H310.53V90.9692H310.933ZM310.933 119.414V119.011C315.595 119.011 319.869 117.353 323.2 114.595L323.457 114.906L323.714 115.216C320.244 118.089 315.79 119.816 310.933 119.816V119.414ZM323.457 114.906L323.68 114.57C327.01 116.789 332.344 118.896 338.788 117.724L338.86 118.121L338.932 118.517C332.232 119.735 326.688 117.543 323.234 115.241L323.457 114.906ZM338.86 118.121L338.702 118.491C337.735 118.077 335.484 116.678 333.503 114.203C331.515 111.717 329.792 108.136 329.924 103.37L330.327 103.381L330.73 103.393C330.604 107.936 332.242 111.336 334.133 113.699C336.031 116.072 338.176 117.389 339.019 117.75L338.86 118.121ZM330.327 103.381L330.653 103.618C330.613 103.674 330.562 103.732 330.539 103.76L330.229 103.503L329.918 103.247C329.962 103.194 329.98 103.173 330.001 103.144L330.327 103.381ZM330.229 103.503L329.833 103.427C330.062 102.24 330.183 101.015 330.183 99.7612H330.586H330.989C330.989 101.067 330.862 102.343 330.624 103.58L330.229 103.503ZM330.586 99.7612H330.183V90.9692H330.586H330.989V99.7612H330.586ZM330.586 90.9692V91.3722H310.933V90.9692V90.5663H330.586V90.9692Z" fill="#278EFF"/>
</svg>
