<svg width="341" height="60" viewBox="0 0 341 60" fill="none" xmlns="http://www.w3.org/2000/svg">
<path d="M0.402832 20.0556C0.402832 9.20175 9.20161 0.402954 20.0555 0.402954V0.402954V28.8475H0.402832V20.0556Z" fill="#278EFF" stroke="#278EFF" stroke-width="0.805851"/>
<rect x="0.402832" y="28.8475" width="19.6526" height="2.12144" fill="#278EFF" stroke="#278EFF" stroke-width="0.805851"/>
<path d="M0.402832 39.7609C0.402832 50.6148 9.20161 59.4136 20.0555 59.4136V59.4136V30.969H0.402832V39.7609Z" fill="#278EFF" stroke="#278EFF" stroke-width="0.805851"/>
<rect x="20.0557" y="0.402954" width="290.877" height="59.0106" fill="#278EFF"/>
<rect x="20.0557" y="0.402954" width="290.877" height="59.0106" stroke="#278EFF" stroke-width="0.805851"/>
<path d="M26.0906 39.9082L20.6397 19.9735H23.0926L27.2586 36.2094H27.4533L31.6972 19.9735H34.4227L38.6666 36.2094H38.8613L43.0273 19.9735H45.4802L40.0293 39.9082H37.5375L33.1378 24.0227H32.9821L28.5824 39.9082H26.0906ZM50.3366 30.9142V39.9082H48.0394V19.9735H50.3366V27.2933H50.5313C50.8817 26.521 51.4073 25.9078 52.1081 25.4536C52.8155 24.9928 53.7564 24.7625 54.9309 24.7625C55.9497 24.7625 56.842 24.9669 57.6077 25.3757C58.3734 25.778 58.9672 26.3978 59.389 27.2349C59.8173 28.0655 60.0314 29.1232 60.0314 30.4081V39.9082H57.7342V30.5638C57.7342 29.3763 57.426 28.4581 56.8095 27.8091C56.1996 27.1537 55.3527 26.826 54.269 26.826C53.5163 26.826 52.8414 26.985 52.2444 27.303C51.6539 27.621 51.1867 28.0849 50.8427 28.6949C50.5053 29.3049 50.3366 30.0447 50.3366 30.9142ZM68.4966 40.2586C67.5491 40.2586 66.6893 40.0802 65.9171 39.7233C65.1449 39.3599 64.5317 38.8375 64.0774 38.1561C63.6232 37.4683 63.3961 36.6377 63.3961 35.6643C63.3961 34.8077 63.5648 34.1134 63.9022 33.5813C64.2397 33.0427 64.6907 32.6209 65.2552 32.3159C65.8198 32.0109 66.4427 31.7838 67.1241 31.6345C67.812 31.4788 68.5031 31.3555 69.1974 31.2646C70.1059 31.1478 70.8424 31.0602 71.407 31.0018C71.978 30.9369 72.3933 30.8299 72.6529 30.6806C72.9189 30.5314 73.052 30.2718 73.052 29.9019V29.824C73.052 28.8636 72.7891 28.1174 72.2635 27.5853C71.7444 27.0532 70.956 26.7871 69.8982 26.7871C68.8016 26.7871 67.9417 27.0272 67.3188 27.5074C66.6958 27.9876 66.2578 28.5002 66.0047 29.0453L63.8244 28.2666C64.2137 27.3582 64.7328 26.6508 65.3818 26.1447C66.0372 25.632 66.751 25.2751 67.5232 25.074C68.3019 24.8663 69.0676 24.7625 69.8204 24.7625C70.3006 24.7625 70.8521 24.8209 71.4751 24.9377C72.1045 25.048 72.7113 25.2784 73.2953 25.6288C73.8858 25.9792 74.3757 26.5081 74.7651 27.2154C75.1544 27.9227 75.3491 28.8701 75.3491 30.0576V39.9082H73.052V37.8836H72.9352C72.7794 38.208 72.5198 38.5552 72.1565 38.9251C71.7931 39.295 71.3096 39.6097 70.7061 39.8693C70.1026 40.1288 69.3661 40.2586 68.4966 40.2586ZM68.847 38.1951C69.7555 38.1951 70.5212 38.0166 71.1441 37.6597C71.7736 37.3028 72.2473 36.8421 72.5653 36.2775C72.8897 35.713 73.052 35.1192 73.052 34.4962V32.3937C72.9546 32.5106 72.7405 32.6176 72.4095 32.715C72.0851 32.8058 71.7087 32.8869 71.2804 32.9583C70.8586 33.0232 70.4466 33.0816 70.0442 33.1335C69.6484 33.1789 69.3272 33.2179 69.0806 33.2503C68.4836 33.3282 67.9255 33.4547 67.4064 33.6299C66.8937 33.7987 66.4784 34.055 66.1605 34.3989C65.849 34.7363 65.6932 35.1971 65.6932 35.7811C65.6932 36.5793 65.9885 37.1828 66.579 37.5916C67.176 37.9939 67.932 38.1951 68.847 38.1951ZM85.907 24.9572V26.9039H78.159V24.9572H85.907ZM80.4172 21.3751H82.7144V35.6254C82.7144 36.2743 82.8085 36.761 82.9966 37.0854C83.1913 37.4034 83.4379 37.6175 83.7364 37.7278C84.0414 37.8317 84.3626 37.8836 84.7 37.8836C84.9531 37.8836 85.1608 37.8706 85.323 37.8446C85.4852 37.8122 85.615 37.7862 85.7124 37.7668L86.1796 39.8303C86.0238 39.8887 85.8065 39.9471 85.5274 40.0055C85.2484 40.0704 84.8947 40.1029 84.4664 40.1029C83.8175 40.1029 83.1816 39.9634 82.5586 39.6843C81.9422 39.4053 81.4295 38.9803 81.0207 38.4092C80.6184 37.8382 80.4172 37.1179 80.4172 36.2483V21.3751ZM92.0263 19.9735V21.7256C92.0263 22.2577 91.929 22.8255 91.7343 23.429C91.5462 24.026 91.2671 24.6067 90.8972 25.1713C90.5338 25.7294 90.0926 26.2161 89.5734 26.6314L88.3275 25.6191C88.7363 25.035 89.09 24.4283 89.3885 23.7988C89.6935 23.1629 89.846 22.4848 89.846 21.7645V19.9735H92.0263ZM103.399 28.3056L101.336 28.8896C101.206 28.5457 101.015 28.2115 100.762 27.887C100.515 27.5561 100.178 27.2835 99.7493 27.0694C99.321 26.8552 98.7727 26.7482 98.1043 26.7482C97.1893 26.7482 96.4269 26.9591 95.8169 27.3809C95.2134 27.7962 94.9116 28.325 94.9116 28.9675C94.9116 29.5385 95.1193 29.9895 95.5346 30.3205C95.9499 30.6514 96.5988 30.9272 97.4813 31.1478L99.7006 31.6929C101.037 32.0174 102.033 32.5138 102.689 33.1822C103.344 33.8441 103.672 34.6974 103.672 35.7422C103.672 36.5987 103.425 37.3644 102.932 38.0393C102.446 38.7142 101.764 39.2463 100.888 39.6357C100.012 40.025 98.9933 40.2197 97.8318 40.2197C96.3068 40.2197 95.0447 39.8887 94.0453 39.2268C93.046 38.5649 92.4133 37.5981 92.1472 36.3262L94.3276 35.7811C94.5353 36.5857 94.9279 37.1892 95.5054 37.5916C96.0894 37.9939 96.8519 38.1951 97.7928 38.1951C98.8635 38.1951 99.7136 37.9679 100.343 37.5137C100.979 37.053 101.297 36.5014 101.297 35.859C101.297 35.3398 101.115 34.9051 100.752 34.5546C100.388 34.1977 99.8304 33.9317 99.0777 33.7565L96.5858 33.1724C95.2166 32.848 94.2108 32.3451 93.5684 31.6637C92.9324 30.9759 92.6145 30.116 92.6145 29.0843C92.6145 28.2407 92.8513 27.4944 93.325 26.8455C93.8052 26.1966 94.4574 25.6872 95.2815 25.3173C96.1121 24.9474 97.0531 24.7625 98.1043 24.7625C99.5838 24.7625 100.745 25.0869 101.589 25.7359C102.439 26.3848 103.043 27.2413 103.399 28.3056ZM121.067 24.9572V26.9039H113.319V24.9572H121.067ZM115.577 21.3751H117.874V35.6254C117.874 36.2743 117.969 36.761 118.157 37.0854C118.351 37.4034 118.598 37.6175 118.896 37.7278C119.201 37.8317 119.523 37.8836 119.86 37.8836C120.113 37.8836 120.321 37.8706 120.483 37.8446C120.645 37.8122 120.775 37.7862 120.872 37.7668L121.34 39.8303C121.184 39.8887 120.967 39.9471 120.687 40.0055C120.408 40.0704 120.055 40.1029 119.627 40.1029C118.978 40.1029 118.342 39.9634 117.719 39.6843C117.102 39.4053 116.59 38.9803 116.181 38.4092C115.778 37.8382 115.577 37.1179 115.577 36.2483V21.3751ZM127.004 30.9142V39.9082H124.707V19.9735H127.004V27.2933H127.199C127.549 26.521 128.075 25.9078 128.775 25.4536C129.483 24.9928 130.424 24.7625 131.598 24.7625C132.617 24.7625 133.509 24.9669 134.275 25.3757C135.041 25.778 135.635 26.3978 136.056 27.2349C136.485 28.0655 136.699 29.1232 136.699 30.4081V39.9082H134.402V30.5638C134.402 29.3763 134.093 28.4581 133.477 27.8091C132.867 27.1537 132.02 26.826 130.936 26.826C130.184 26.826 129.509 26.985 128.912 27.303C128.321 27.621 127.854 28.0849 127.51 28.6949C127.173 29.3049 127.004 30.0447 127.004 30.9142ZM147.033 40.2197C145.592 40.2197 144.349 39.9017 143.305 39.2658C142.266 38.6233 141.465 37.7278 140.9 36.5793C140.342 35.4242 140.063 34.0809 140.063 32.5495C140.063 31.018 140.342 29.6683 140.9 28.5002C141.465 27.3257 142.25 26.4107 143.256 25.7553C144.268 25.0934 145.449 24.7625 146.799 24.7625C147.578 24.7625 148.347 24.8923 149.106 25.1518C149.865 25.4114 150.556 25.8332 151.179 26.4172C151.802 26.9948 152.299 27.7605 152.669 28.7144C153.038 29.6683 153.223 30.8428 153.223 32.238V33.2114H141.699V31.2257H150.887C150.887 30.3821 150.719 29.6294 150.381 28.9675C150.05 28.3056 149.577 27.7832 148.96 27.4003C148.35 27.0175 147.63 26.826 146.799 26.826C145.884 26.826 145.093 27.0532 144.424 27.5074C143.762 27.9552 143.253 28.5392 142.896 29.2595C142.539 29.9798 142.361 30.752 142.361 31.5761V32.8999C142.361 34.029 142.555 34.9862 142.945 35.7714C143.34 36.5501 143.889 37.1438 144.59 37.5526C145.29 37.955 146.105 38.1561 147.033 38.1561C147.636 38.1561 148.181 38.0718 148.668 37.903C149.161 37.7278 149.586 37.4683 149.943 37.1243C150.3 36.7739 150.576 36.3392 150.771 35.82L152.99 36.443C152.756 37.1957 152.364 37.8576 151.812 38.4287C151.26 38.9932 150.579 39.4345 149.768 39.7525C148.957 40.0639 148.045 40.2197 147.033 40.2197ZM166.45 19.9735V39.9082H164.153V19.9735H166.45ZM174.92 40.2586C173.973 40.2586 173.113 40.0802 172.341 39.7233C171.568 39.3599 170.955 38.8375 170.501 38.1561C170.047 37.4683 169.82 36.6377 169.82 35.6643C169.82 34.8077 169.988 34.1134 170.326 33.5813C170.663 33.0427 171.114 32.6209 171.679 32.3159C172.243 32.0109 172.866 31.7838 173.548 31.6345C174.235 31.4788 174.927 31.3555 175.621 31.2646C176.529 31.1478 177.266 31.0602 177.83 31.0018C178.401 30.9369 178.817 30.8299 179.076 30.6806C179.342 30.5314 179.475 30.2718 179.475 29.9019V29.824C179.475 28.8636 179.213 28.1174 178.687 27.5853C178.168 27.0532 177.379 26.7871 176.322 26.7871C175.225 26.7871 174.365 27.0272 173.742 27.5074C173.119 27.9876 172.681 28.5002 172.428 29.0453L170.248 28.2666C170.637 27.3582 171.156 26.6508 171.805 26.1447C172.461 25.632 173.174 25.2751 173.947 25.074C174.725 24.8663 175.491 24.7625 176.244 24.7625C176.724 24.7625 177.276 24.8209 177.899 24.9377C178.528 25.048 179.135 25.2784 179.719 25.6288C180.309 25.9792 180.799 26.5081 181.189 27.2154C181.578 27.9227 181.773 28.8701 181.773 30.0576V39.9082H179.475V37.8836H179.359C179.203 38.208 178.943 38.5552 178.58 38.9251C178.217 39.295 177.733 39.6097 177.13 39.8693C176.526 40.1288 175.79 40.2586 174.92 40.2586ZM175.27 38.1951C176.179 38.1951 176.945 38.0166 177.568 37.6597C178.197 37.3028 178.671 36.8421 178.989 36.2775C179.313 35.713 179.475 35.1192 179.475 34.4962V32.3937C179.378 32.5106 179.164 32.6176 178.833 32.715C178.509 32.8058 178.132 32.8869 177.704 32.9583C177.282 33.0232 176.87 33.0816 176.468 33.1335C176.072 33.1789 175.751 33.2179 175.504 33.2503C174.907 33.3282 174.349 33.4547 173.83 33.6299C173.317 33.7987 172.902 34.055 172.584 34.3989C172.272 34.7363 172.117 35.1971 172.117 35.7811C172.117 36.5793 172.412 37.1828 173.003 37.5916C173.6 37.9939 174.355 38.1951 175.27 38.1951ZM192.331 24.9572V26.9039H184.582V24.9572H192.331ZM186.841 21.3751H189.138V35.6254C189.138 36.2743 189.232 36.761 189.42 37.0854C189.615 37.4034 189.861 37.6175 190.16 37.7278C190.465 37.8317 190.786 37.8836 191.124 37.8836C191.377 37.8836 191.584 37.8706 191.747 37.8446C191.909 37.8122 192.039 37.7862 192.136 37.7668L192.603 39.8303C192.447 39.8887 192.23 39.9471 191.951 40.0055C191.672 40.0704 191.318 40.1029 190.89 40.1029C190.241 40.1029 189.605 39.9634 188.982 39.6843C188.366 39.4053 187.853 38.9803 187.444 38.4092C187.042 37.8382 186.841 37.1179 186.841 36.2483V21.3751ZM201.757 40.2197C200.316 40.2197 199.074 39.9017 198.029 39.2658C196.991 38.6233 196.189 37.7278 195.625 36.5793C195.067 35.4242 194.788 34.0809 194.788 32.5495C194.788 31.018 195.067 29.6683 195.625 28.5002C196.189 27.3257 196.974 26.4107 197.98 25.7553C198.993 25.0934 200.174 24.7625 201.523 24.7625C202.302 24.7625 203.071 24.8923 203.83 25.1518C204.589 25.4114 205.281 25.8332 205.903 26.4172C206.526 26.9948 207.023 27.7605 207.393 28.7144C207.763 29.6683 207.948 30.8428 207.948 32.238V33.2114H196.423V31.2257H205.611C205.611 30.3821 205.443 29.6294 205.105 28.9675C204.774 28.3056 204.301 27.7832 203.684 27.4003C203.074 27.0175 202.354 26.826 201.523 26.826C200.608 26.826 199.817 27.0532 199.148 27.5074C198.486 27.9552 197.977 28.5392 197.62 29.2595C197.263 29.9798 197.085 30.752 197.085 31.5761V32.8999C197.085 34.029 197.279 34.9862 197.669 35.7714C198.065 36.5501 198.613 37.1438 199.314 37.5526C200.015 37.955 200.829 38.1561 201.757 38.1561C202.36 38.1561 202.905 38.0718 203.392 37.903C203.885 37.7278 204.31 37.4683 204.667 37.1243C205.024 36.7739 205.3 36.3392 205.495 35.82L207.714 36.443C207.48 37.1957 207.088 37.8576 206.536 38.4287C205.985 38.9932 205.303 39.4345 204.492 39.7525C203.681 40.0639 202.769 40.2197 201.757 40.2197ZM221.895 28.3056L219.832 28.8896C219.702 28.5457 219.51 28.2115 219.257 27.887C219.011 27.5561 218.673 27.2835 218.245 27.0694C217.817 26.8552 217.268 26.7482 216.6 26.7482C215.685 26.7482 214.923 26.9591 214.313 27.3809C213.709 27.7962 213.407 28.325 213.407 28.9675C213.407 29.5385 213.615 29.9895 214.03 30.3205C214.446 30.6514 215.095 30.9272 215.977 31.1478L218.196 31.6929C219.533 32.0174 220.529 32.5138 221.185 33.1822C221.84 33.8441 222.168 34.6974 222.168 35.7422C222.168 36.5987 221.921 37.3644 221.428 38.0393C220.941 38.7142 220.26 39.2463 219.384 39.6357C218.508 40.025 217.489 40.2197 216.328 40.2197C214.803 40.2197 213.54 39.8887 212.541 39.2268C211.542 38.5649 210.909 37.5981 210.643 36.3262L212.823 35.7811C213.031 36.5857 213.424 37.1892 214.001 37.5916C214.585 37.9939 215.348 38.1951 216.289 38.1951C217.359 38.1951 218.209 37.9679 218.839 37.5137C219.475 37.053 219.793 36.5014 219.793 35.859C219.793 35.3398 219.611 34.9051 219.248 34.5546C218.884 34.1977 218.326 33.9317 217.573 33.7565L215.082 33.1724C213.712 32.848 212.707 32.3451 212.064 31.6637C211.428 30.9759 211.11 30.116 211.11 29.0843C211.11 28.2407 211.347 27.4944 211.821 26.8455C212.301 26.1966 212.953 25.6872 213.777 25.3173C214.608 24.9474 215.549 24.7625 216.6 24.7625C218.08 24.7625 219.241 25.0869 220.085 25.7359C220.935 26.3848 221.538 27.2413 221.895 28.3056ZM231.991 24.9572V26.9039H224.243V24.9572H231.991ZM226.501 21.3751H228.798V35.6254C228.798 36.2743 228.892 36.761 229.08 37.0854C229.275 37.4034 229.522 37.6175 229.82 37.7278C230.125 37.8317 230.446 37.8836 230.784 37.8836C231.037 37.8836 231.245 37.8706 231.407 37.8446C231.569 37.8122 231.699 37.7862 231.796 37.7668L232.263 39.8303C232.108 39.8887 231.89 39.9471 231.611 40.0055C231.332 40.0704 230.978 40.1029 230.55 40.1029C229.901 40.1029 229.265 39.9634 228.642 39.6843C228.026 39.4053 227.513 38.9803 227.104 38.4092C226.702 37.8382 226.501 37.1179 226.501 36.2483V21.3751ZM242.881 45.5148V24.9572H245.101V27.3322H245.373C245.542 27.0726 245.775 26.7417 246.074 26.3394C246.379 25.9305 246.814 25.5671 247.378 25.2492C247.949 24.9247 248.722 24.7625 249.695 24.7625C250.954 24.7625 252.063 25.0772 253.024 25.7067C253.984 26.3361 254.734 27.2284 255.272 28.3834C255.811 29.5385 256.08 30.9012 256.08 32.4716C256.08 34.055 255.811 35.4274 255.272 36.589C254.734 37.7441 253.988 38.6396 253.034 39.2755C252.08 39.905 250.98 40.2197 249.734 40.2197C248.773 40.2197 248.005 40.0607 247.427 39.7427C246.849 39.4183 246.405 39.0516 246.093 38.6428C245.782 38.2275 245.542 37.8836 245.373 37.611H245.178V45.5148H242.881ZM245.14 32.4327C245.14 33.5618 245.305 34.5579 245.636 35.4209C245.967 36.2775 246.45 36.9491 247.086 37.4358C247.722 37.916 248.501 38.1561 249.422 38.1561C250.383 38.1561 251.184 37.9031 251.827 37.3969C252.476 36.8843 252.962 36.1964 253.287 35.3333C253.618 34.4638 253.783 33.4969 253.783 32.4327C253.783 31.3814 253.621 30.434 253.296 29.5904C252.978 28.7403 252.495 28.0687 251.846 27.5755C251.204 27.0759 250.396 26.826 249.422 26.826C248.488 26.826 247.703 27.0629 247.067 27.5366C246.431 28.0038 245.951 28.6592 245.626 29.5028C245.302 30.3399 245.14 31.3165 245.14 32.4327ZM261.745 19.9735V39.9082H259.447V19.9735H261.745ZM270.215 40.2586C269.267 40.2586 268.407 40.0802 267.635 39.7233C266.863 39.3599 266.25 38.8375 265.795 38.1561C265.341 37.4683 265.114 36.6377 265.114 35.6643C265.114 34.8077 265.283 34.1134 265.62 33.5813C265.958 33.0427 266.409 32.6209 266.973 32.3159C267.538 32.0109 268.161 31.7838 268.842 31.6345C269.53 31.4788 270.221 31.3555 270.915 31.2646C271.824 31.1478 272.56 31.0602 273.125 31.0018C273.696 30.9369 274.111 30.8299 274.371 30.6806C274.637 30.5314 274.77 30.2718 274.77 29.9019V29.824C274.77 28.8636 274.507 28.1174 273.982 27.5853C273.462 27.0532 272.674 26.7871 271.616 26.7871C270.52 26.7871 269.66 27.0272 269.037 27.5074C268.414 27.9876 267.976 28.5002 267.723 29.0453L265.542 28.2666C265.932 27.3582 266.451 26.6508 267.1 26.1447C267.755 25.632 268.469 25.2751 269.241 25.074C270.02 24.8663 270.786 24.7625 271.538 24.7625C272.019 24.7625 272.57 24.8209 273.193 24.9377C273.823 25.048 274.429 25.2784 275.013 25.6288C275.604 25.9792 276.094 26.5081 276.483 27.2154C276.872 27.9227 277.067 28.8701 277.067 30.0576V39.9082H274.77V37.8836H274.653C274.497 38.208 274.238 38.5552 273.874 38.9251C273.511 39.295 273.028 39.6097 272.424 39.8693C271.821 40.1288 271.084 40.2586 270.215 40.2586ZM270.565 38.1951C271.473 38.1951 272.239 38.0166 272.862 37.6597C273.492 37.3028 273.965 36.8421 274.283 36.2775C274.608 35.713 274.77 35.1192 274.77 34.4962V32.3937C274.673 32.5106 274.458 32.6176 274.128 32.715C273.803 32.8058 273.427 32.8869 272.998 32.9583C272.577 33.0232 272.165 33.0816 271.762 33.1335C271.366 33.1789 271.045 33.2179 270.799 33.2503C270.202 33.3282 269.644 33.4547 269.124 33.6299C268.612 33.7987 268.196 34.055 267.878 34.3989C267.567 34.7363 267.411 35.1971 267.411 35.7811C267.411 36.5793 267.707 37.1828 268.297 37.5916C268.894 37.9939 269.65 38.1951 270.565 38.1951ZM283.42 30.9142V39.9082H281.123V24.9572H283.342V27.2933H283.537C283.887 26.534 284.419 25.924 285.133 25.4633C285.847 24.9961 286.768 24.7625 287.898 24.7625C288.91 24.7625 289.796 24.9701 290.555 25.3854C291.314 25.7943 291.905 26.4172 292.326 27.2543C292.748 28.0849 292.959 29.1362 292.959 30.4081V39.9082H290.662V30.5638C290.662 29.3893 290.357 28.4743 289.747 27.8189C289.137 27.157 288.3 26.826 287.236 26.826C286.502 26.826 285.847 26.985 285.269 27.303C284.698 27.621 284.247 28.0849 283.916 28.6949C283.586 29.3049 283.42 30.0447 283.42 30.9142ZM300.018 34.3016V34.1848C300.031 32.9453 300.161 31.959 300.407 31.2257C300.654 30.4924 301.004 29.8987 301.458 29.4444C301.913 28.9902 302.458 28.5716 303.094 28.1888C303.476 27.9552 303.82 27.6794 304.125 27.3614C304.43 27.0369 304.67 26.6638 304.846 26.242C305.027 25.8202 305.118 25.353 305.118 24.8404C305.118 24.2044 304.969 23.6528 304.67 23.1856C304.372 22.7184 303.973 22.3582 303.473 22.1052C302.974 21.8521 302.419 21.7256 301.809 21.7256C301.277 21.7256 300.764 21.8359 300.271 22.0565C299.778 22.2771 299.366 22.6243 299.035 23.098C298.704 23.5717 298.512 24.1914 298.46 24.9572H296.007C296.059 23.854 296.345 22.9098 296.864 22.1246C297.39 21.3394 298.081 20.7392 298.937 20.3239C299.8 19.9086 300.758 19.7009 301.809 19.7009C302.951 19.7009 303.944 19.9281 304.787 20.3823C305.637 20.8365 306.293 21.4595 306.754 22.2512C307.221 23.0429 307.454 23.9448 307.454 24.9572C307.454 25.671 307.344 26.3166 307.123 26.8942C306.909 27.4717 306.598 27.9876 306.189 28.4418C305.787 28.8961 305.3 29.2984 304.729 29.6488C304.158 30.0057 303.7 30.3821 303.356 30.7779C303.013 31.1673 302.763 31.6313 302.607 32.1699C302.451 32.7085 302.367 33.3801 302.354 34.1848V34.3016H300.018ZM301.264 40.0639C300.783 40.0639 300.371 39.892 300.027 39.5481C299.684 39.2041 299.512 38.7921 299.512 38.3119C299.512 37.8317 299.684 37.4196 300.027 37.0757C300.371 36.7318 300.783 36.5598 301.264 36.5598C301.744 36.5598 302.156 36.7318 302.5 37.0757C302.844 37.4196 303.016 37.8317 303.016 38.3119C303.016 38.6298 302.935 38.9218 302.772 39.1879C302.617 39.454 302.406 39.6681 302.14 39.8303C301.88 39.9861 301.588 40.0639 301.264 40.0639Z" fill="white"/>
<path d="M330.585 20.0556C330.585 9.20175 321.787 0.402954 310.933 0.402954V0.402954V28.8475H330.585V20.0556Z" fill="#278EFF" stroke="#278EFF" stroke-width="0.805851"/>
<rect width="19.6526" height="2.1217" transform="matrix(-1 0 0 1 330.585 28.8477)" fill="#278EFF" stroke="#278EFF" stroke-width="0.805851"/>
<path d="M310.933 30.9692V59.4136C315.692 59.4136 320.056 57.7211 323.457 54.9058C326.849 57.1658 332.288 59.3156 338.86 58.1206C337.05 57.3447 330.069 52.6904 330.327 43.3813C330.296 43.4236 330.262 43.463 330.229 43.5034C330.462 42.2919 330.586 41.0409 330.586 39.7612V30.9692H310.933Z" fill="#278EFF"/>
<path d="M310.933 30.9692H310.53V30.5663H310.933V30.9692ZM310.933 59.4136V59.8165H310.53V59.4136H310.933ZM323.457 54.9058L323.2 54.5954L323.431 54.4042L323.68 54.5704L323.457 54.9058ZM338.86 58.1206L339.019 57.7503L340.249 58.2776L338.932 58.517L338.86 58.1206ZM330.327 43.3813L330.001 43.1444L330.766 42.0928L330.73 43.3925L330.327 43.3813ZM330.229 43.5034L330.539 43.7597L329.833 43.4271L330.229 43.5034ZM330.586 39.7612H330.989V39.7612H330.586ZM330.586 30.9692V30.5663H330.989V30.9692H330.586ZM310.933 30.9692H311.336V59.4136H310.933H310.53V30.9692H310.933ZM310.933 59.4136V59.0106C315.595 59.0106 319.869 57.3532 323.2 54.5954L323.457 54.9058L323.714 55.2161C320.244 58.0891 315.79 59.8165 310.933 59.8165V59.4136ZM323.457 54.9058L323.68 54.5704C327.01 56.789 332.344 58.8958 338.788 57.7242L338.86 58.1206L338.932 58.517C332.232 59.7353 326.688 57.5427 323.234 55.2411L323.457 54.9058ZM338.86 58.1206L338.702 58.4909C337.735 58.0766 335.484 56.6779 333.503 54.2026C331.515 51.7174 329.792 48.1359 329.924 43.3702L330.327 43.3813L330.73 43.3925C330.604 47.9358 332.242 51.336 334.133 53.6992C336.031 56.0723 338.176 57.3888 339.019 57.7503L338.86 58.1206ZM330.327 43.3813L330.653 43.6183C330.613 43.6737 330.562 43.7323 330.539 43.7597L330.229 43.5034L329.918 43.2472C329.962 43.1938 329.98 43.1735 330.001 43.1444L330.327 43.3813ZM330.229 43.5034L329.833 43.4271C330.062 42.2403 330.183 41.0149 330.183 39.7612H330.586H330.989C330.989 41.067 330.862 42.3435 330.624 43.5797L330.229 43.5034ZM330.586 39.7612H330.183V30.9692H330.586H330.989V39.7612H330.586ZM330.586 30.9692V31.3722H310.933V30.9692V30.5663H330.586V30.9692Z" fill="#278EFF"/>
</svg>
