<svg width="341" height="150" viewBox="0 0 341 150" fill="none" xmlns="http://www.w3.org/2000/svg">
<path d="M9.66406 20.0556C9.66406 9.20175 18.4628 0.402954 29.3167 0.402954V0.402954V28.8475H9.66406V20.0556Z" fill="#26252A" stroke="#26252A" stroke-width="0.805851"/>
<rect x="9.66406" y="28.8474" width="19.6526" height="92.1217" fill="#26252A" stroke="#26252A" stroke-width="0.805851"/>
<path d="M29.3169 120.969V149.414C24.5572 149.414 20.1931 147.721 16.7925 144.906C13.4001 147.166 7.96139 149.316 1.38916 148.121C3.19942 147.345 10.1809 142.69 9.92236 133.381C9.95309 133.424 9.98772 133.463 10.021 133.503C9.78742 132.292 9.66357 131.041 9.66357 129.761V120.969H29.3169Z" fill="#26252A"/>
<path d="M29.3169 120.969H29.7198V120.566H29.3169V120.969ZM29.3169 149.414V149.816H29.7198V149.414H29.3169ZM16.7925 144.906L17.0494 144.595L16.8185 144.404L16.5691 144.57L16.7925 144.906ZM1.38916 148.121L1.23043 147.75L0.000112772 148.278L1.31708 148.517L1.38916 148.121ZM9.92236 133.381L10.2482 133.144L9.48349 132.093L9.51959 133.393L9.92236 133.381ZM10.021 133.503L9.71006 133.76L10.4166 133.427L10.021 133.503ZM9.66357 129.761H9.26065V129.761H9.66357ZM9.66357 120.969V120.566H9.26065V120.969H9.66357ZM29.3169 120.969H28.914V149.414H29.3169H29.7198V120.969H29.3169ZM29.3169 149.414V149.011C24.6545 149.011 20.3805 147.353 17.0494 144.595L16.7925 144.906L16.5355 145.216C20.0057 148.089 24.46 149.816 29.3169 149.816V149.414ZM16.7925 144.906L16.5691 144.57C13.2391 146.789 7.90505 148.896 1.46124 147.724L1.38916 148.121L1.31708 148.517C8.01773 149.735 13.5612 147.543 17.0159 145.241L16.7925 144.906ZM1.38916 148.121L1.54789 148.491C2.51474 148.077 4.76599 146.678 6.74621 144.203C8.73435 141.717 10.4575 138.136 10.3251 133.37L9.92236 133.381L9.51959 133.393C9.64579 137.936 8.00749 141.336 6.11695 143.699C4.21849 146.072 2.07385 147.389 1.23043 147.75L1.38916 148.121ZM9.92236 133.381L9.5965 133.618C9.63679 133.674 9.68751 133.732 9.71006 133.76L10.021 133.503L10.3319 133.247C10.2879 133.194 10.2694 133.173 10.2482 133.144L9.92236 133.381ZM10.021 133.503L10.4166 133.427C10.1878 132.24 10.0665 131.015 10.0665 129.761H9.66357H9.26065C9.26065 131.067 9.38702 132.343 9.62536 133.58L10.021 133.503ZM9.66357 129.761H10.0665V120.969H9.66357H9.26065V129.761H9.66357ZM9.66357 120.969V121.372H29.3169V120.969V120.566H9.66357V120.969Z" fill="#26252A"/>
<rect x="29.3164" y="0.402954" width="290.877" height="149.011" fill="#26252A"/>
<rect x="29.3164" y="0.402954" width="290.877" height="149.011" stroke="#26252A" stroke-width="0.805851"/>
<path d="M31.7304 39.9083V19.9736H38.4661C40.0235 19.9736 41.3019 20.2397 42.3012 20.7718C43.3006 21.2974 44.0403 22.0209 44.5205 22.9424C45.0007 23.8639 45.2408 24.9119 45.2408 26.0864C45.2408 27.2609 45.0007 28.3024 44.5205 29.2109C44.0403 30.1194 43.3038 30.8332 42.311 31.3524C41.3181 31.865 40.0495 32.1213 38.5051 32.1213H33.0542V29.941H38.4272C39.4914 29.941 40.348 29.7852 40.9969 29.4737C41.6523 29.1623 42.126 28.721 42.418 28.15C42.7165 27.5724 42.8658 26.8846 42.8658 26.0864C42.8658 25.2882 42.7165 24.5906 42.418 23.9936C42.1195 23.3966 41.6426 22.9359 40.9872 22.6114C40.3318 22.2805 39.4655 22.115 38.3883 22.115H34.1443V39.9083H31.7304ZM41.1137 30.9533L46.0195 39.9083H43.2162L38.3883 30.9533H41.1137ZM54.9227 40.2198C53.4821 40.2198 52.2394 39.9018 51.1947 39.2659C50.1564 38.6235 49.355 37.728 48.7904 36.5794C48.2324 35.4243 47.9533 34.0811 47.9533 32.5496C47.9533 31.0182 48.2324 29.6684 48.7904 28.5004C49.355 27.3258 50.1402 26.4109 51.146 25.7554C52.1583 25.0936 53.3393 24.7626 54.6891 24.7626C55.4678 24.7626 56.2368 24.8924 56.996 25.152C57.7552 25.4115 58.4463 25.8333 59.0693 26.4173C59.6922 26.9949 60.1887 27.7606 60.5585 28.7145C60.9284 29.6684 61.1134 30.843 61.1134 32.2381V33.2115H49.5886V31.2258H58.7773C58.7773 30.3822 58.6085 29.6295 58.2711 28.9676C57.9402 28.3057 57.4665 27.7833 56.85 27.4005C56.24 27.0176 55.5197 26.8262 54.6891 26.8262C53.7741 26.8262 52.9824 27.0533 52.3141 27.5075C51.6522 27.9553 51.1428 28.5393 50.7859 29.2596C50.4289 29.9799 50.2505 30.7521 50.2505 31.5762V32.9C50.2505 34.0291 50.4452 34.9863 50.8345 35.7715C51.2304 36.5502 51.7787 37.1439 52.4795 37.5528C53.1804 37.9551 53.9947 38.1562 54.9227 38.1562C55.5262 38.1562 56.0713 38.0719 56.558 37.9032C57.0511 37.728 57.4762 37.4684 57.8331 37.1245C58.19 36.7741 58.4658 36.3393 58.6605 35.8201L60.8798 36.4431C60.6461 37.1959 60.2535 37.8577 59.702 38.4288C59.1504 38.9934 58.469 39.4346 57.6579 39.7526C56.8467 40.0641 55.935 40.2198 54.9227 40.2198ZM76.2413 24.9573L70.7125 39.9083H68.3764L62.8476 24.9573H65.3395L69.4666 36.8714H69.6223L73.7494 24.9573H76.2413ZM84.8695 40.2198C83.4289 40.2198 82.1862 39.9018 81.1414 39.2659C80.1032 38.6235 79.3018 37.728 78.7372 36.5794C78.1791 35.4243 77.9001 34.0811 77.9001 32.5496C77.9001 31.0182 78.1791 29.6684 78.7372 28.5004C79.3018 27.3258 80.0869 26.4109 81.0928 25.7554C82.1051 25.0936 83.2861 24.7626 84.6359 24.7626C85.4146 24.7626 86.1835 24.8924 86.9428 25.152C87.702 25.4115 88.3931 25.8333 89.016 26.4173C89.639 26.9949 90.1354 27.7606 90.5053 28.7145C90.8752 29.6684 91.0601 30.843 91.0601 32.2381V33.2115H79.5354V31.2258H88.724C88.724 30.3822 88.5553 29.6295 88.2179 28.9676C87.8869 28.3057 87.4132 27.7833 86.7967 27.4005C86.1868 27.0176 85.4665 26.8262 84.6359 26.8262C83.7209 26.8262 82.9292 27.0533 82.2608 27.5075C81.5989 27.9553 81.0895 28.5393 80.7326 29.2596C80.3757 29.9799 80.1973 30.7521 80.1973 31.5762V32.9C80.1973 34.0291 80.3919 34.9863 80.7813 35.7715C81.1771 36.5502 81.7255 37.1439 82.4263 37.5528C83.1271 37.9551 83.9415 38.1562 84.8695 38.1562C85.473 38.1562 86.018 38.0719 86.5047 37.9032C86.9979 37.728 87.423 37.4684 87.7799 37.1245C88.1368 36.7741 88.4125 36.3393 88.6072 35.8201L90.8265 36.4431C90.5929 37.1959 90.2003 37.8577 89.6487 38.4288C89.0972 38.9934 88.4158 39.4346 87.6046 39.7526C86.7935 40.0641 85.8818 40.2198 84.8695 40.2198ZM96.7147 30.9143V39.9083H94.4175V24.9573H96.6368V27.2934H96.8315C97.1819 26.5341 97.714 25.9242 98.4278 25.4634C99.1416 24.9962 100.063 24.7626 101.192 24.7626C102.204 24.7626 103.09 24.9703 103.85 25.3856C104.609 25.7944 105.199 26.4173 105.621 27.2544C106.043 28.0851 106.254 29.1363 106.254 30.4082V39.9083H103.957V30.5639C103.957 29.3894 103.652 28.4744 103.042 27.819C102.432 27.1571 101.595 26.8262 100.53 26.8262C99.797 26.8262 99.1416 26.9851 98.5641 27.3031C97.993 27.6211 97.542 28.0851 97.2111 28.695C96.8801 29.305 96.7147 30.0448 96.7147 30.9143ZM119.737 33.7955V24.9573H122.034V39.9083H119.737V37.3775H119.581C119.23 38.1368 118.685 38.7825 117.946 39.3146C117.206 39.8402 116.271 40.103 115.142 40.103C114.208 40.103 113.377 39.8986 112.65 39.4898C111.924 39.0745 111.353 38.4515 110.937 37.6209C110.522 36.7838 110.314 35.7293 110.314 34.4574V24.9573H112.612V34.3017C112.612 35.3919 112.917 36.2614 113.527 36.9103C114.143 37.5592 114.928 37.8837 115.882 37.8837C116.453 37.8837 117.034 37.7377 117.624 37.4457C118.221 37.1537 118.721 36.7059 119.123 36.1024C119.532 35.4989 119.737 34.73 119.737 33.7955ZM132.373 40.2198C130.932 40.2198 129.689 39.9018 128.645 39.2659C127.606 38.6235 126.805 37.728 126.24 36.5794C125.682 35.4243 125.403 34.0811 125.403 32.5496C125.403 31.0182 125.682 29.6684 126.24 28.5004C126.805 27.3258 127.59 26.4109 128.596 25.7554C129.608 25.0936 130.789 24.7626 132.139 24.7626C132.918 24.7626 133.687 24.8924 134.446 25.152C135.205 25.4115 135.896 25.8333 136.519 26.4173C137.142 26.9949 137.639 27.7606 138.009 28.7145C138.378 29.6684 138.563 30.843 138.563 32.2381V33.2115H127.039V31.2258H136.227C136.227 30.3822 136.059 29.6295 135.721 28.9676C135.39 28.3057 134.916 27.7833 134.3 27.4005C133.69 27.0176 132.97 26.8262 132.139 26.8262C131.224 26.8262 130.432 27.0533 129.764 27.5075C129.102 27.9553 128.593 28.5393 128.236 29.2596C127.879 29.9799 127.701 30.7521 127.701 31.5762V32.9C127.701 34.0291 127.895 34.9863 128.285 35.7715C128.68 36.5502 129.229 37.1439 129.93 37.5528C130.63 37.9551 131.445 38.1562 132.373 38.1562C132.976 38.1562 133.521 38.0719 134.008 37.9032C134.501 37.728 134.926 37.4684 135.283 37.1245C135.64 36.7741 135.916 36.3393 136.11 35.8201L138.33 36.4431C138.096 37.1959 137.704 37.8577 137.152 38.4288C136.6 38.9934 135.919 39.4346 135.108 39.7526C134.297 40.0641 133.385 40.2198 132.373 40.2198ZM155.333 36.4042V23.5556H157.513V36.4042H155.333ZM149.999 31.0701V28.8897H162.848V31.0701H149.999ZM174.393 19.9736V39.9083H171.979V22.5044H171.863L166.996 25.736V23.2831L171.979 19.9736H174.393ZM180.525 40.0641C180.045 40.0641 179.633 39.8921 179.289 39.5482C178.945 39.2043 178.773 38.7922 178.773 38.312C178.773 37.8318 178.945 37.4197 179.289 37.0758C179.633 36.7319 180.045 36.5599 180.525 36.5599C181.005 36.5599 181.417 36.7319 181.761 37.0758C182.105 37.4197 182.277 37.8318 182.277 38.312C182.277 38.63 182.196 38.922 182.034 39.188C181.878 39.4541 181.667 39.6682 181.401 39.8305C181.141 39.9862 180.849 40.0641 180.525 40.0641ZM191.993 40.1809C190.656 40.1809 189.475 39.944 188.45 39.4703C187.431 38.9901 186.636 38.3315 186.065 37.4944C185.494 36.6508 185.212 35.6904 185.218 34.6132C185.212 33.7696 185.377 32.9909 185.715 32.2771C186.052 31.5568 186.513 30.9565 187.097 30.4763C187.687 29.9896 188.346 29.6814 189.073 29.5516V29.4348C188.119 29.1882 187.36 28.6529 186.795 27.8287C186.231 26.9981 185.952 26.0539 185.958 24.9962C185.952 23.9839 186.208 23.0787 186.727 22.2805C187.246 21.4823 187.96 20.8529 188.868 20.3921C189.783 19.9314 190.825 19.7011 191.993 19.7011C193.148 19.7011 194.18 19.9314 195.088 20.3921C195.997 20.8529 196.711 21.4823 197.23 22.2805C197.755 23.0787 198.021 23.9839 198.028 24.9962C198.021 26.0539 197.733 26.9981 197.162 27.8287C196.597 28.6529 195.847 29.1882 194.913 29.4348V29.5516C195.633 29.6814 196.282 29.9896 196.86 30.4763C197.437 30.9565 197.898 31.5568 198.242 32.2771C198.586 32.9909 198.761 33.7696 198.768 34.6132C198.761 35.6904 198.469 36.6508 197.892 37.4944C197.321 38.3315 196.526 38.9901 195.507 39.4703C194.494 39.944 193.323 40.1809 191.993 40.1809ZM191.993 38.0394C192.895 38.0394 193.674 37.8934 194.329 37.6014C194.984 37.3094 195.491 36.8974 195.847 36.3652C196.204 35.8331 196.386 35.2102 196.393 34.4964C196.386 33.7436 196.191 33.0785 195.809 32.5009C195.426 31.9234 194.903 31.4692 194.241 31.1382C193.586 30.8073 192.837 30.6418 191.993 30.6418C191.143 30.6418 190.384 30.8073 189.715 31.1382C189.053 31.4692 188.531 31.9234 188.148 32.5009C187.772 33.0785 187.587 33.7436 187.593 34.4964C187.587 35.2102 187.759 35.8331 188.109 36.3652C188.466 36.8974 188.975 37.3094 189.637 37.6014C190.299 37.8934 191.084 38.0394 191.993 38.0394ZM191.993 28.5782C192.707 28.5782 193.339 28.4355 193.891 28.15C194.449 27.8644 194.887 27.4653 195.205 26.9527C195.523 26.4401 195.685 25.8398 195.692 25.152C195.685 24.4771 195.526 23.8898 195.215 23.3901C194.903 22.884 194.472 22.4946 193.92 22.2221C193.369 21.9431 192.726 21.8035 191.993 21.8035C191.247 21.8035 190.595 21.9431 190.036 22.2221C189.478 22.4946 189.047 22.884 188.742 23.3901C188.437 23.8898 188.288 24.4771 188.294 25.152C188.288 25.8398 188.44 26.4401 188.752 26.9527C189.07 27.4653 189.508 27.8644 190.066 28.15C190.624 28.4355 191.266 28.5782 191.993 28.5782ZM208.591 40.1809C207.449 40.1809 206.42 39.9537 205.505 39.4995C204.59 39.0453 203.857 38.4223 203.305 37.6306C202.754 36.8389 202.452 35.937 202.4 34.9246H204.736C204.827 35.8266 205.236 36.5729 205.963 37.1634C206.696 37.7474 207.572 38.0394 208.591 38.0394C209.408 38.0394 210.135 37.848 210.771 37.4652C211.413 37.0823 211.916 36.5567 212.28 35.8883C212.65 35.2134 212.835 34.4509 212.835 33.6009C212.835 32.7313 212.643 31.9558 212.26 31.2745C211.884 30.5866 211.365 30.0448 210.703 29.6489C210.041 29.2531 209.285 29.0519 208.435 29.0455C207.825 29.039 207.199 29.1331 206.556 29.3277C205.914 29.5159 205.385 29.7593 204.97 30.0578L202.711 29.7852L203.918 19.9736H214.275V22.115H205.943L205.242 27.9942H205.359C205.768 27.6698 206.28 27.4005 206.897 27.1863C207.513 26.9722 208.156 26.8651 208.824 26.8651C210.044 26.8651 211.131 27.1571 212.085 27.7411C213.045 28.3187 213.798 29.1103 214.343 30.1162C214.895 31.122 215.171 32.2706 215.171 33.5619C215.171 34.8338 214.885 35.9694 214.314 36.9687C213.75 37.9616 212.971 38.7468 211.978 39.3243C210.985 39.8953 209.856 40.1809 208.591 40.1809ZM229.062 36.1706V35.1193C229.062 34.3925 229.212 33.7274 229.51 33.1239C229.815 32.5139 230.256 32.0272 230.834 31.6638C231.418 31.294 232.125 31.109 232.956 31.109C233.799 31.109 234.507 31.294 235.078 31.6638C235.649 32.0272 236.08 32.5139 236.372 33.1239C236.664 33.7274 236.81 34.3925 236.81 35.1193V36.1706C236.81 36.8974 236.661 37.5657 236.363 38.1757C236.071 38.7792 235.636 39.2659 235.058 39.6358C234.487 39.9992 233.786 40.1809 232.956 40.1809C232.112 40.1809 231.402 39.9992 230.824 39.6358C230.247 39.2659 229.809 38.7792 229.51 38.1757C229.212 37.5657 229.062 36.8974 229.062 36.1706ZM231.048 35.1193V36.1706C231.048 36.7741 231.191 37.3159 231.476 37.7961C231.762 38.2698 232.255 38.5067 232.956 38.5067C233.637 38.5067 234.117 38.2698 234.396 37.7961C234.682 37.3159 234.825 36.7741 234.825 36.1706V35.1193C234.825 34.5158 234.688 33.9772 234.416 33.5035C234.143 33.0233 233.657 32.7832 232.956 32.7832C232.274 32.7832 231.785 33.0233 231.486 33.5035C231.194 33.9772 231.048 34.5158 231.048 35.1193ZM219.134 24.7626V23.7114C219.134 22.9846 219.283 22.3194 219.582 21.7159C219.887 21.106 220.328 20.6193 220.905 20.2559C221.489 19.886 222.197 19.7011 223.027 19.7011C223.871 19.7011 224.578 19.886 225.149 20.2559C225.72 20.6193 226.152 21.106 226.444 21.7159C226.736 22.3194 226.882 22.9846 226.882 23.7114V24.7626C226.882 25.4894 226.733 26.1578 226.434 26.7678C226.142 27.3713 225.707 27.8579 225.13 28.2278C224.559 28.5912 223.858 28.7729 223.027 28.7729C222.184 28.7729 221.473 28.5912 220.896 28.2278C220.318 27.8579 219.88 27.3713 219.582 26.7678C219.283 26.1578 219.134 25.4894 219.134 24.7626ZM221.12 23.7114V24.7626C221.12 25.3661 221.262 25.9079 221.548 26.3881C221.833 26.8619 222.327 27.0987 223.027 27.0987C223.709 27.0987 224.189 26.8619 224.468 26.3881C224.754 25.9079 224.896 25.3661 224.896 24.7626V23.7114C224.896 23.1079 224.76 22.5693 224.487 22.0956C224.215 21.6154 223.728 21.3753 223.027 21.3753C222.346 21.3753 221.856 21.6154 221.558 22.0956C221.266 22.5693 221.12 23.1079 221.12 23.7114ZM219.874 39.9083L233.579 19.9736H235.798L222.093 39.9083H219.874ZM244.499 37.1829L244.344 38.2341C244.233 38.9739 244.065 39.7656 243.837 40.6092C243.617 41.4527 243.386 42.2477 243.146 42.9939C242.906 43.7402 242.708 44.3339 242.553 44.7752H240.8C240.885 44.3599 240.995 43.8116 241.131 43.1302C241.268 42.4488 241.404 41.6864 241.54 40.8428C241.683 40.0057 241.8 39.1491 241.891 38.2731L242.007 37.1829H244.499ZM45.3576 56.2032C45.1435 55.5478 44.8612 54.9605 44.5108 54.4414C44.1669 53.9158 43.7548 53.468 43.2746 53.0981C42.8009 52.7283 42.2623 52.446 41.6588 52.2513C41.0553 52.0566 40.3934 51.9593 39.6731 51.9593C38.4921 51.9593 37.4181 52.2643 36.4512 52.8743C35.4844 53.4842 34.7154 54.383 34.1443 55.5705C33.5733 56.758 33.2878 58.2148 33.2878 59.941C33.2878 61.6671 33.5765 63.1239 34.1541 64.3114C34.7316 65.4989 35.5136 66.3977 36.4999 67.0077C37.4863 67.6176 38.5959 67.9226 39.8289 67.9226C40.971 67.9226 41.9768 67.6793 42.8463 67.1926C43.7224 66.6994 44.4037 66.0051 44.8904 65.1096C45.3836 64.2076 45.6302 63.1466 45.6302 61.9266L46.3699 62.0824H40.3739V59.941H47.9663V62.0824C47.9663 63.7241 47.6159 65.1518 46.915 66.3652C46.2207 67.5787 45.2603 68.5196 44.0338 69.188C42.8139 69.8499 41.4122 70.1809 39.8289 70.1809C38.0638 70.1809 36.5129 69.7656 35.1761 68.9349C33.8458 68.1043 32.8076 66.9233 32.0613 65.3919C31.3216 63.8604 30.9517 62.0435 30.9517 59.941C30.9517 58.3641 31.1626 56.9462 31.5844 55.6873C32.0127 54.4219 32.6161 53.3447 33.3948 52.4557C34.1735 51.5667 35.095 50.8853 36.1592 50.4116C37.2235 49.9379 38.3948 49.7011 39.6731 49.7011C40.7244 49.7011 41.7042 49.86 42.6127 50.178C43.5277 50.4895 44.3421 50.934 45.0559 51.5115C45.7762 52.0826 46.3764 52.7672 46.8566 53.5654C47.3368 54.357 47.6678 55.2363 47.8495 56.2032H45.3576ZM51.6522 69.9083V54.9573H53.8715V57.2155H54.0272C54.2997 56.4757 54.7929 55.8755 55.5067 55.4148C56.2205 54.954 57.0252 54.7237 57.9207 54.7237C58.0894 54.7237 58.3003 54.7269 58.5534 54.7334C58.8065 54.7399 58.9979 54.7496 59.1277 54.7626V57.0987C59.0498 57.0792 58.8714 57.05 58.5923 57.0111C58.3198 56.9657 58.031 56.943 57.726 56.943C56.9992 56.943 56.3503 57.0955 55.7793 57.4005C55.2147 57.699 54.767 58.1143 54.436 58.6464C54.1116 59.172 53.9493 59.7722 53.9493 60.4471V69.9083H51.6522ZM67.3325 70.2198C65.9827 70.2198 64.7984 69.8986 63.7796 69.2562C62.7673 68.6137 61.9756 67.715 61.4046 66.5599C60.84 65.4048 60.5578 64.0551 60.5578 62.5107C60.5578 60.9533 60.84 59.5938 61.4046 58.4322C61.9756 57.2707 62.7673 56.3687 63.7796 55.7262C64.7984 55.0838 65.9827 54.7626 67.3325 54.7626C68.6822 54.7626 69.8632 55.0838 70.8755 55.7262C71.8943 56.3687 72.686 57.2707 73.2506 58.4322C73.8216 59.5938 74.1071 60.9533 74.1071 62.5107C74.1071 64.0551 73.8216 65.4048 73.2506 66.5599C72.686 67.715 71.8943 68.6137 70.8755 69.2562C69.8632 69.8986 68.6822 70.2198 67.3325 70.2198ZM67.3325 68.1562C68.3577 68.1562 69.2013 67.8934 69.8632 67.3678C70.5251 66.8422 71.0151 66.1511 71.333 65.2945C71.651 64.438 71.81 63.51 71.81 62.5107C71.81 61.5113 71.651 60.5801 71.333 59.7171C71.0151 58.854 70.5251 58.1564 69.8632 57.6243C69.2013 57.0922 68.3577 56.8262 67.3325 56.8262C66.3072 56.8262 65.4636 57.0922 64.8017 57.6243C64.1398 58.1564 63.6499 58.854 63.3319 59.7171C63.0139 60.5801 62.8549 61.5113 62.8549 62.5107C62.8549 63.51 63.0139 64.438 63.3319 65.2945C63.6499 66.1511 64.1398 66.8422 64.8017 67.3678C65.4636 67.8934 66.3072 68.1562 67.3325 68.1562ZM88.067 58.3057L86.0034 58.8897C85.8737 58.5458 85.6822 58.2116 85.4292 57.8871C85.1826 57.5562 84.8451 57.2836 84.4168 57.0695C83.9886 56.8554 83.4402 56.7483 82.7718 56.7483C81.8569 56.7483 81.0944 56.9592 80.4844 57.381C79.8809 57.7963 79.5792 58.3252 79.5792 58.9676C79.5792 59.5386 79.7868 59.9896 80.2021 60.3206C80.6174 60.6515 81.2664 60.9273 82.1489 61.1479L84.3682 61.693C85.7049 62.0175 86.701 62.5139 87.3564 63.1823C88.0118 63.8442 88.3396 64.6975 88.3396 65.7423C88.3396 66.5988 88.093 67.3646 87.5998 68.0394C87.1131 68.7143 86.4317 69.2464 85.5557 69.6358C84.6797 70.0251 83.6609 70.2198 82.4993 70.2198C80.9743 70.2198 79.7122 69.8889 78.7129 69.227C77.7135 68.5651 77.0808 67.5982 76.8148 66.3263L78.9951 65.7812C79.2028 66.5859 79.5954 67.1894 80.1729 67.5917C80.757 67.994 81.5194 68.1952 82.4604 68.1952C83.5311 68.1952 84.3812 67.9681 85.0106 67.5138C85.6465 67.0531 85.9645 66.5015 85.9645 65.8591C85.9645 65.34 85.7828 64.9052 85.4194 64.5548C85.056 64.1979 84.498 63.9318 83.7452 63.7566L81.2534 63.1726C79.8842 62.8481 78.8783 62.3452 78.2359 61.6638C77.6 60.976 77.282 60.1162 77.282 59.0844C77.282 58.2408 77.5189 57.4945 77.9926 56.8456C78.4728 56.1967 79.1249 55.6873 79.9491 55.3174C80.7797 54.9475 81.7206 54.7626 82.7718 54.7626C84.2514 54.7626 85.4129 55.0871 86.2565 55.736C87.1066 56.3849 87.7101 57.2415 88.067 58.3057ZM102.251 58.3057L100.187 58.8897C100.057 58.5458 99.866 58.2116 99.6129 57.8871C99.3663 57.5562 99.0289 57.2836 98.6006 57.0695C98.1723 56.8554 97.624 56.7483 96.9556 56.7483C96.0406 56.7483 95.2781 56.9592 94.6681 57.381C94.0647 57.7963 93.7629 58.3252 93.7629 58.9676C93.7629 59.5386 93.9706 59.9896 94.3859 60.3206C94.8012 60.6515 95.4501 60.9273 96.3326 61.1479L98.5519 61.693C99.8887 62.0175 100.885 62.5139 101.54 63.1823C102.196 63.8442 102.523 64.6975 102.523 65.7423C102.523 66.5988 102.277 67.3646 101.784 68.0394C101.297 68.7143 100.615 69.2464 99.7394 69.6358C98.8634 70.0251 97.8446 70.2198 96.683 70.2198C95.1581 70.2198 93.8959 69.8889 92.8966 69.227C91.8973 68.5651 91.2646 67.5982 90.9985 66.3263L93.1789 65.7812C93.3865 66.5859 93.7791 67.1894 94.3567 67.5917C94.9407 67.994 95.7032 68.1952 96.6441 68.1952C97.7148 68.1952 98.5649 67.9681 99.1943 67.5138C99.8303 67.0531 100.148 66.5015 100.148 65.8591C100.148 65.34 99.9665 64.9052 99.6032 64.5548C99.2398 64.1979 98.6817 63.9318 97.929 63.7566L95.4371 63.1726C94.0679 62.8481 93.0621 62.3452 92.4196 61.6638C91.7837 60.976 91.4657 60.1162 91.4657 59.0844C91.4657 58.2408 91.7026 57.4945 92.1763 56.8456C92.6565 56.1967 93.3087 55.6873 94.1328 55.3174C94.9634 54.9475 95.9043 54.7626 96.9556 54.7626C98.4351 54.7626 99.5967 55.0871 100.44 55.736C101.29 56.3849 101.894 57.2415 102.251 58.3057ZM113.728 69.9083V49.9736H120.463C122.027 49.9736 123.306 50.2559 124.299 50.8204C125.298 51.3785 126.038 52.1345 126.518 53.0884C126.998 54.0423 127.238 55.1065 127.238 56.2811C127.238 57.4556 126.998 58.5231 126.518 59.4835C126.044 60.4439 125.311 61.2096 124.318 61.7806C123.325 62.3452 122.053 62.6275 120.502 62.6275H115.674V60.4861H120.425C121.495 60.4861 122.355 60.3011 123.004 59.9312C123.653 59.5613 124.123 59.0617 124.415 58.4322C124.714 57.7963 124.863 57.0792 124.863 56.2811C124.863 55.4829 124.714 54.7691 124.415 54.1396C124.123 53.5102 123.65 53.017 122.994 52.6601C122.339 52.2967 121.469 52.115 120.386 52.115H116.142V69.9083H113.728ZM130.678 69.9083V54.9573H132.898V57.2155H133.053C133.326 56.4757 133.819 55.8755 134.533 55.4148C135.247 54.954 136.051 54.7237 136.947 54.7237C137.116 54.7237 137.326 54.7269 137.579 54.7334C137.833 54.7399 138.024 54.7496 138.154 54.7626V57.0987C138.076 57.0792 137.897 57.05 137.618 57.0111C137.346 56.9657 137.057 56.943 136.752 56.943C136.025 56.943 135.376 57.0955 134.805 57.4005C134.241 57.699 133.793 58.1143 133.462 58.6464C133.138 59.172 132.975 59.7722 132.975 60.4471V69.9083H130.678ZM146.359 70.2198C145.009 70.2198 143.825 69.8986 142.806 69.2562C141.793 68.6137 141.002 67.715 140.431 66.5599C139.866 65.4048 139.584 64.0551 139.584 62.5107C139.584 60.9533 139.866 59.5938 140.431 58.4322C141.002 57.2707 141.793 56.3687 142.806 55.7262C143.825 55.0838 145.009 54.7626 146.359 54.7626C147.708 54.7626 148.889 55.0838 149.902 55.7262C150.92 56.3687 151.712 57.2707 152.277 58.4322C152.848 59.5938 153.133 60.9533 153.133 62.5107C153.133 64.0551 152.848 65.4048 152.277 66.5599C151.712 67.715 150.92 68.6137 149.902 69.2562C148.889 69.8986 147.708 70.2198 146.359 70.2198ZM146.359 68.1562C147.384 68.1562 148.227 67.8934 148.889 67.3678C149.551 66.8422 150.041 66.1511 150.359 65.2945C150.677 64.438 150.836 63.51 150.836 62.5107C150.836 61.5113 150.677 60.5801 150.359 59.7171C150.041 58.854 149.551 58.1564 148.889 57.6243C148.227 57.0922 147.384 56.8262 146.359 56.8262C145.333 56.8262 144.49 57.0922 143.828 57.6243C143.166 58.1564 142.676 58.854 142.358 59.7171C142.04 60.5801 141.881 61.5113 141.881 62.5107C141.881 63.51 142.04 64.438 142.358 65.2945C142.676 66.1511 143.166 66.8422 143.828 67.3678C144.49 67.8934 145.333 68.1562 146.359 68.1562ZM163.161 54.9573V56.904H155.101V54.9573H163.161ZM157.515 69.9083V52.8937C157.515 52.0372 157.716 51.3233 158.119 50.7523C158.521 50.1813 159.043 49.753 159.686 49.4674C160.328 49.1819 161.006 49.0392 161.72 49.0392C162.285 49.0392 162.745 49.0846 163.102 49.1754C163.459 49.2663 163.725 49.3506 163.9 49.4285L163.239 51.4142C163.122 51.3753 162.96 51.3266 162.752 51.2682C162.551 51.2098 162.285 51.1806 161.954 51.1806C161.194 51.1806 160.646 51.372 160.309 51.7549C159.978 52.1377 159.812 52.699 159.812 53.4388V69.9083H157.515ZM166.243 69.9083V54.9573H168.54V69.9083H166.243ZM167.411 52.4654C166.963 52.4654 166.577 52.3129 166.253 52.008C165.935 51.703 165.776 51.3363 165.776 50.908C165.776 50.4798 165.935 50.1131 166.253 49.8081C166.577 49.5031 166.963 49.3506 167.411 49.3506C167.859 49.3506 168.242 49.5031 168.56 49.8081C168.884 50.1131 169.046 50.4798 169.046 50.908C169.046 51.3363 168.884 51.703 168.56 52.008C168.242 52.3129 167.859 52.4654 167.411 52.4654ZM179.113 54.9573V56.904H171.365V54.9573H179.113ZM173.623 51.3753H175.92V65.6255C175.92 66.2744 176.014 66.7611 176.202 67.0855C176.397 67.4035 176.644 67.6176 176.942 67.728C177.247 67.8318 177.568 67.8837 177.906 67.8837C178.159 67.8837 178.366 67.8707 178.529 67.8448C178.691 67.8123 178.821 67.7864 178.918 67.7669L179.385 69.8305C179.23 69.8889 179.012 69.9473 178.733 70.0057C178.454 70.0706 178.1 70.103 177.672 70.103C177.023 70.103 176.387 69.9635 175.764 69.6844C175.148 69.4054 174.635 68.9804 174.226 68.4093C173.824 67.8383 173.623 67.118 173.623 66.2484V51.3753ZM195.843 66.4042V53.5556H198.024V66.4042H195.843ZM190.509 61.0701V58.8897H203.358V61.0701H190.509ZM214.31 70.1809C213.025 70.1809 211.88 69.9602 210.874 69.519C209.875 69.0777 209.08 68.4645 208.489 67.6793C207.905 66.8876 207.587 65.9694 207.535 64.9246H209.988C210.04 65.5671 210.261 66.1219 210.65 66.5891C211.04 67.0498 211.549 67.4068 212.178 67.6598C212.808 67.9129 213.505 68.0394 214.271 68.0394C215.128 68.0394 215.887 67.8902 216.549 67.5917C217.211 67.2932 217.73 66.8779 218.106 66.3458C218.483 65.8137 218.671 65.1972 218.671 64.4964C218.671 63.7631 218.489 63.1174 218.126 62.5593C217.762 61.9948 217.23 61.5535 216.529 61.2356C215.829 60.9176 214.972 60.7586 213.96 60.7586H212.363V58.6172H213.96C214.751 58.6172 215.446 58.4744 216.043 58.1889C216.646 57.9034 217.117 57.501 217.454 56.9819C217.798 56.4628 217.97 55.8528 217.97 55.152C217.97 54.4771 217.821 53.8898 217.522 53.3901C217.224 52.8905 216.802 52.5011 216.257 52.2221C215.718 51.9431 215.082 51.8035 214.349 51.8035C213.661 51.8035 213.012 51.9301 212.402 52.1832C211.799 52.4297 211.306 52.7899 210.923 53.2636C210.54 53.7308 210.332 54.2954 210.3 54.9573H207.964C208.003 53.9125 208.317 52.9976 208.908 52.2124C209.498 51.4207 210.271 50.8042 211.224 50.3629C212.185 49.9217 213.239 49.7011 214.388 49.7011C215.621 49.7011 216.679 49.9509 217.561 50.4506C218.444 50.9437 219.122 51.5959 219.596 52.407C220.069 53.2182 220.306 54.0942 220.306 55.0352C220.306 56.1578 220.011 57.1149 219.42 57.9066C218.836 58.6983 218.041 59.2466 217.036 59.5516V59.7074C218.294 59.915 219.278 60.4504 219.985 61.3134C220.692 62.17 221.046 63.231 221.046 64.4964C221.046 65.58 220.751 66.5534 220.16 67.4165C219.576 68.2731 218.778 68.9479 217.766 69.4411C216.753 69.9343 215.601 70.1809 214.31 70.1809ZM225.987 70.0641C225.507 70.0641 225.095 69.8921 224.751 69.5482C224.407 69.2043 224.235 68.7922 224.235 68.312C224.235 67.8318 224.407 67.4197 224.751 67.0758C225.095 66.7319 225.507 66.5599 225.987 66.5599C226.468 66.5599 226.88 66.7319 227.224 67.0758C227.567 67.4197 227.739 67.8318 227.739 68.312C227.739 68.63 227.658 68.922 227.496 69.188C227.34 69.4541 227.129 69.6682 226.863 69.8305C226.604 69.9862 226.312 70.0641 225.987 70.0641ZM231.686 69.9083V68.1562L238.266 60.9533C239.038 60.1097 239.674 59.3764 240.174 58.7534C240.673 58.124 241.043 57.5335 241.283 56.9819C241.53 56.4238 241.653 55.8398 241.653 55.2298C241.653 54.529 241.484 53.9223 241.147 53.4096C240.816 52.897 240.362 52.5011 239.784 52.2221C239.207 51.9431 238.558 51.8035 237.837 51.8035C237.072 51.8035 236.403 51.9625 235.832 52.2805C235.268 52.592 234.83 53.03 234.518 53.5946C234.213 54.1591 234.061 54.821 234.061 55.5802H231.764C231.764 54.4122 232.033 53.3869 232.571 52.5044C233.11 51.6218 233.843 50.934 234.771 50.4408C235.706 49.9476 236.754 49.7011 237.915 49.7011C239.083 49.7011 240.118 49.9476 241.02 50.4408C241.922 50.934 242.63 51.5991 243.142 52.4362C243.655 53.2733 243.911 54.2045 243.911 55.2298C243.911 55.9631 243.778 56.6802 243.512 57.381C243.253 58.0753 242.798 58.8508 242.149 59.7074C241.507 60.5574 240.615 61.5957 239.473 62.8222L234.995 67.6112V67.7669H244.262V69.9083H231.686ZM258.307 66.1706V65.1193C258.307 64.3925 258.456 63.7274 258.754 63.1239C259.059 62.5139 259.501 62.0272 260.078 61.6638C260.662 61.294 261.37 61.109 262.2 61.109C263.044 61.109 263.751 61.294 264.322 61.6638C264.893 62.0272 265.325 62.5139 265.617 63.1239C265.909 63.7274 266.055 64.3925 266.055 65.1193V66.1706C266.055 66.8974 265.906 67.5657 265.607 68.1757C265.315 68.7792 264.88 69.2659 264.303 69.6358C263.732 69.9992 263.031 70.1809 262.2 70.1809C261.357 70.1809 260.646 69.9992 260.069 69.6358C259.491 69.2659 259.053 68.7792 258.754 68.1757C258.456 67.5657 258.307 66.8974 258.307 66.1706ZM260.292 65.1193V66.1706C260.292 66.7741 260.435 67.3159 260.721 67.7961C261.006 68.2698 261.499 68.5067 262.2 68.5067C262.882 68.5067 263.362 68.2698 263.641 67.7961C263.926 67.3159 264.069 66.7741 264.069 66.1706V65.1193C264.069 64.5158 263.933 63.9772 263.66 63.5035C263.388 63.0233 262.901 62.7832 262.2 62.7832C261.519 62.7832 261.029 63.0233 260.73 63.5035C260.438 63.9772 260.292 64.5158 260.292 65.1193ZM248.378 54.7626V53.7114C248.378 52.9846 248.528 52.3194 248.826 51.7159C249.131 51.106 249.572 50.6193 250.15 50.2559C250.734 49.886 251.441 49.7011 252.272 49.7011C253.115 49.7011 253.823 49.886 254.394 50.2559C254.965 50.6193 255.396 51.106 255.688 51.7159C255.98 52.3194 256.126 52.9846 256.126 53.7114V54.7626C256.126 55.4894 255.977 56.1578 255.679 56.7678C255.387 57.3713 254.952 57.8579 254.374 58.2278C253.803 58.5912 253.102 58.7729 252.272 58.7729C251.428 58.7729 250.718 58.5912 250.14 58.2278C249.563 57.8579 249.125 57.3713 248.826 56.7678C248.528 56.1578 248.378 55.4894 248.378 54.7626ZM250.364 53.7114V54.7626C250.364 55.3661 250.507 55.9079 250.792 56.3881C251.078 56.8619 251.571 57.0987 252.272 57.0987C252.953 57.0987 253.433 56.8619 253.712 56.3881C253.998 55.9079 254.141 55.3661 254.141 54.7626V53.7114C254.141 53.1079 254.004 52.5693 253.732 52.0956C253.459 51.6154 252.973 51.3753 252.272 51.3753C251.59 51.3753 251.101 51.6154 250.802 52.0956C250.51 52.5693 250.364 53.1079 250.364 53.7114ZM249.118 69.9083L262.823 49.9736H265.042L251.337 69.9083H249.118ZM271.992 70.0641C271.511 70.0641 271.099 69.8921 270.755 69.5482C270.412 69.2043 270.24 68.7922 270.24 68.312C270.24 67.8318 270.412 67.4197 270.755 67.0758C271.099 66.7319 271.511 66.5599 271.992 66.5599C272.472 66.5599 272.884 66.7319 273.228 67.0758C273.572 67.4197 273.744 67.8318 273.744 68.312C273.744 68.63 273.663 68.922 273.5 69.188C273.345 69.4541 273.134 69.6682 272.868 69.8305C272.608 69.9862 272.316 70.0641 271.992 70.0641ZM30.6402 82.115V79.9736H45.5912V82.115H39.3227V99.9083H36.9087V82.115H30.6402ZM52.774 100.22C51.4242 100.22 50.24 99.8986 49.2212 99.2562C48.2088 98.6137 47.4172 97.715 46.8461 96.5599C46.2816 95.4048 45.9993 94.0551 45.9993 92.5107C45.9993 90.9533 46.2816 89.5938 46.8461 88.4322C47.4172 87.2707 48.2088 86.3687 49.2212 85.7262C50.24 85.0838 51.4242 84.7626 52.774 84.7626C54.1237 84.7626 55.3047 85.0838 56.3171 85.7262C57.3359 86.3687 58.1275 87.2707 58.6921 88.4322C59.2631 89.5938 59.5487 90.9533 59.5487 92.5107C59.5487 94.0551 59.2631 95.4048 58.6921 96.5599C58.1275 97.715 57.3359 98.6137 56.3171 99.2562C55.3047 99.8986 54.1237 100.22 52.774 100.22ZM52.774 98.1562C53.7993 98.1562 54.6429 97.8934 55.3047 97.3678C55.9666 96.8422 56.4566 96.1511 56.7745 95.2945C57.0925 94.438 57.2515 93.51 57.2515 92.5107C57.2515 91.5113 57.0925 90.5801 56.7745 89.7171C56.4566 88.854 55.9666 88.1564 55.3047 87.6243C54.6429 87.0922 53.7993 86.8262 52.774 86.8262C51.7487 86.8262 50.9051 87.0922 50.2432 87.6243C49.5813 88.1564 49.0914 88.854 48.7734 89.7171C48.4554 90.5801 48.2964 91.5113 48.2964 92.5107C48.2964 93.51 48.4554 94.438 48.7734 95.2945C49.0914 96.1511 49.5813 96.8422 50.2432 97.3678C50.9051 97.8934 51.7487 98.1562 52.774 98.1562ZM62.9182 105.515V84.9573H65.1375V87.3323H65.41C65.5788 87.0727 65.8124 86.7418 66.1109 86.3395C66.4159 85.9307 66.8506 85.5673 67.4152 85.2493C67.9862 84.9248 68.7584 84.7626 69.7318 84.7626C70.9907 84.7626 72.1004 85.0773 73.0608 85.7068C74.0212 86.3362 74.7707 87.2285 75.3093 88.3836C75.8479 89.5386 76.1172 90.9014 76.1172 92.4717C76.1172 94.0551 75.8479 95.4276 75.3093 96.5891C74.7707 97.7442 74.0244 98.6397 73.0705 99.2756C72.1166 99.9051 71.0167 100.22 69.7708 100.22C68.8104 100.22 68.0414 100.061 67.4639 99.7429C66.8863 99.4184 66.4418 99.0518 66.1303 98.6429C65.8189 98.2276 65.5788 97.8837 65.41 97.6112H65.2154V105.515H62.9182ZM65.1764 92.4328C65.1764 93.5619 65.3419 94.558 65.6728 95.4211C66.0038 96.2776 66.4872 96.9493 67.1232 97.436C67.7591 97.9162 68.5378 98.1562 69.4593 98.1562C70.4197 98.1562 71.2211 97.9032 71.8635 97.397C72.5124 96.8844 72.9991 96.1965 73.3236 95.3335C73.6545 94.4639 73.82 93.497 73.82 92.4328C73.82 91.3816 73.6578 90.4341 73.3333 89.5905C73.0153 88.7405 72.5319 88.0688 71.883 87.5757C71.2406 87.076 70.4327 86.8262 69.4593 86.8262C68.5248 86.8262 67.7396 87.063 67.1037 87.5367C66.4678 88.0039 65.9876 88.6594 65.6631 89.5029C65.3387 90.34 65.1764 91.3167 65.1764 92.4328ZM87.0563 105.515V84.9573H89.2756V87.3323H89.5482C89.7169 87.0727 89.9505 86.7418 90.249 86.3395C90.554 85.9307 90.9888 85.5673 91.5533 85.2493C92.1244 84.9248 92.8966 84.7626 93.87 84.7626C95.1289 84.7626 96.2385 85.0773 97.1989 85.7068C98.1593 86.3362 98.9088 87.2285 99.4474 88.3836C99.986 89.5386 100.255 90.9014 100.255 92.4717C100.255 94.0551 99.986 95.4276 99.4474 96.5891C98.9088 97.7442 98.1626 98.6397 97.2087 99.2756C96.2547 99.9051 95.1548 100.22 93.9089 100.22C92.9485 100.22 92.1795 100.061 91.602 99.7429C91.0245 99.4184 90.58 99.0518 90.2685 98.6429C89.957 98.2276 89.7169 97.8837 89.5482 97.6112H89.3535V105.515H87.0563ZM89.3146 92.4328C89.3146 93.5619 89.4801 94.558 89.811 95.4211C90.1419 96.2776 90.6254 96.9493 91.2613 97.436C91.8973 97.9162 92.676 98.1562 93.5974 98.1562C94.5578 98.1562 95.3592 97.9032 96.0017 97.397C96.6506 96.8844 97.1373 96.1965 97.4617 95.3335C97.7927 94.4639 97.9582 93.497 97.9582 92.4328C97.9582 91.3816 97.7959 90.4341 97.4715 89.5905C97.1535 88.7405 96.6701 88.0688 96.0211 87.5757C95.3787 87.076 94.5708 86.8262 93.5974 86.8262C92.663 86.8262 91.8778 87.063 91.2419 87.5367C90.6059 88.0039 90.1257 88.6594 89.8013 89.5029C89.4768 90.34 89.3146 91.3167 89.3146 92.4328ZM103.622 99.9083V84.9573H105.842V87.2155H105.997C106.27 86.4757 106.763 85.8755 107.477 85.4148C108.191 84.954 108.995 84.7237 109.891 84.7237C110.06 84.7237 110.271 84.7269 110.524 84.7334C110.777 84.7399 110.968 84.7496 111.098 84.7626V87.0987C111.02 87.0792 110.842 87.05 110.563 87.0111C110.29 86.9657 110.001 86.943 109.696 86.943C108.969 86.943 108.321 87.0955 107.75 87.4005C107.185 87.699 106.737 88.1143 106.406 88.6464C106.082 89.172 105.92 89.7722 105.92 90.4471V99.9083H103.622ZM119.303 100.22C117.953 100.22 116.769 99.8986 115.75 99.2562C114.738 98.6137 113.946 97.715 113.375 96.5599C112.81 95.4048 112.528 94.0551 112.528 92.5107C112.528 90.9533 112.81 89.5938 113.375 88.4322C113.946 87.2707 114.738 86.3687 115.75 85.7262C116.769 85.0838 117.953 84.7626 119.303 84.7626C120.652 84.7626 121.833 85.0838 122.846 85.7262C123.865 86.3687 124.656 87.2707 125.221 88.4322C125.792 89.5938 126.077 90.9533 126.077 92.5107C126.077 94.0551 125.792 95.4048 125.221 96.5599C124.656 97.715 123.865 98.6137 122.846 99.2562C121.833 99.8986 120.652 100.22 119.303 100.22ZM119.303 98.1562C120.328 98.1562 121.172 97.8934 121.833 97.3678C122.495 96.8422 122.985 96.1511 123.303 95.2945C123.621 94.438 123.78 93.51 123.78 92.5107C123.78 91.5113 123.621 90.5801 123.303 89.7171C122.985 88.854 122.495 88.1564 121.833 87.6243C121.172 87.0922 120.328 86.8262 119.303 86.8262C118.277 86.8262 117.434 87.0922 116.772 87.6243C116.11 88.1564 115.62 88.854 115.302 89.7171C114.984 90.5801 114.825 91.5113 114.825 92.5107C114.825 93.51 114.984 94.438 115.302 95.2945C115.62 96.1511 116.11 96.8422 116.772 97.3678C117.434 97.8934 118.277 98.1562 119.303 98.1562ZM135.093 100.22C133.847 100.22 132.747 99.9051 131.793 99.2756C130.839 98.6397 130.093 97.7442 129.554 96.5891C129.015 95.4276 128.746 94.0551 128.746 92.4717C128.746 90.9014 129.015 89.5386 129.554 88.3836C130.093 87.2285 130.842 86.3362 131.803 85.7068C132.763 85.0773 133.873 84.7626 135.131 84.7626C136.105 84.7626 136.874 84.9248 137.438 85.2493C138.009 85.5673 138.444 85.9307 138.743 86.3395C139.048 86.7418 139.285 87.0727 139.453 87.3323H139.648V79.9736H141.945V99.9083H139.726V97.6112H139.453C139.285 97.8837 139.044 98.2276 138.733 98.6429C138.421 99.0518 137.977 99.4184 137.399 99.7429C136.822 100.061 136.053 100.22 135.093 100.22ZM135.404 98.1562C136.325 98.1562 137.104 97.9162 137.74 97.436C138.376 96.9493 138.859 96.2776 139.19 95.4211C139.521 94.558 139.687 93.5619 139.687 92.4328C139.687 91.3167 139.525 90.34 139.2 89.5029C138.876 88.6594 138.395 88.0039 137.76 87.5367C137.124 87.063 136.338 86.8262 135.404 86.8262C134.431 86.8262 133.619 87.076 132.971 87.5757C132.328 88.0688 131.845 88.7405 131.52 89.5905C131.202 90.4341 131.043 91.3816 131.043 92.4328C131.043 93.497 131.205 94.4639 131.53 95.3335C131.861 96.1965 132.348 96.8844 132.99 97.397C133.639 97.9032 134.444 98.1562 135.404 98.1562ZM155.756 93.7955V84.9573H158.054V99.9083H155.756V97.3775H155.601C155.25 98.1368 154.705 98.7825 153.965 99.3146C153.226 99.8402 152.291 100.103 151.162 100.103C150.228 100.103 149.397 99.8986 148.67 99.4898C147.944 99.0745 147.372 98.4515 146.957 97.6209C146.542 96.7838 146.334 95.7293 146.334 94.4574V84.9573H148.631V94.3017C148.631 95.3919 148.936 96.2614 149.546 96.9103C150.163 97.5592 150.948 97.8837 151.902 97.8837C152.473 97.8837 153.054 97.7377 153.644 97.4457C154.241 97.1537 154.741 96.7059 155.143 96.1024C155.552 95.4989 155.756 94.73 155.756 93.7955ZM168.198 100.22C166.796 100.22 165.589 99.8889 164.577 99.227C163.565 98.5651 162.786 97.6533 162.241 96.4918C161.696 95.3302 161.423 94.0032 161.423 92.5107C161.423 90.9922 161.702 89.6522 162.26 88.4906C162.825 87.3226 163.61 86.4109 164.616 85.7554C165.628 85.0936 166.809 84.7626 168.159 84.7626C169.21 84.7626 170.158 84.9573 171.001 85.3466C171.845 85.736 172.536 86.2811 173.074 86.9819C173.613 87.6827 173.947 88.5004 174.077 89.4348H171.78C171.605 88.7534 171.215 88.15 170.612 87.6243C170.015 87.0922 169.21 86.8262 168.198 86.8262C167.302 86.8262 166.517 87.0598 165.842 87.527C165.174 87.9877 164.652 88.6399 164.275 89.4835C163.905 90.3206 163.72 91.3037 163.72 92.4328C163.72 93.5879 163.902 94.5937 164.265 95.4503C164.635 96.3068 165.154 96.972 165.823 97.4457C166.498 97.9194 167.289 98.1562 168.198 98.1562C168.795 98.1562 169.337 98.0524 169.823 97.8448C170.31 97.6371 170.722 97.3386 171.06 96.9493C171.397 96.5599 171.637 96.0927 171.78 95.5476H174.077C173.947 96.4301 173.626 97.2251 173.113 97.9324C172.607 98.6332 171.936 99.1913 171.099 99.6066C170.268 100.015 169.301 100.22 168.198 100.22ZM183.8 84.9573V86.904H176.052V84.9573H183.8ZM178.31 81.3753H180.608V95.6255C180.608 96.2744 180.702 96.7611 180.89 97.0855C181.085 97.4035 181.331 97.6176 181.63 97.728C181.935 97.8318 182.256 97.8837 182.593 97.8837C182.846 97.8837 183.054 97.8707 183.216 97.8448C183.379 97.8123 183.508 97.7864 183.606 97.7669L184.073 99.8305C183.917 99.8889 183.7 99.9473 183.421 100.006C183.142 100.071 182.788 100.103 182.36 100.103C181.711 100.103 181.075 99.9635 180.452 99.6844C179.835 99.4054 179.323 98.9804 178.914 98.4093C178.512 97.8383 178.31 97.118 178.31 96.2484V81.3753ZM194.691 99.9083V84.9573H196.91V87.2155H197.066C197.338 86.4757 197.832 85.8755 198.545 85.4148C199.259 84.954 200.064 84.7237 200.959 84.7237C201.128 84.7237 201.339 84.7269 201.592 84.7334C201.845 84.7399 202.037 84.7496 202.166 84.7626V87.0987C202.088 87.0792 201.91 87.05 201.631 87.0111C201.358 86.9657 201.07 86.943 200.765 86.943C200.038 86.943 199.389 87.0955 198.818 87.4005C198.253 87.699 197.806 88.1143 197.475 88.6464C197.15 89.172 196.988 89.7722 196.988 90.4471V99.9083H194.691ZM210.566 100.22C209.125 100.22 207.883 99.9018 206.838 99.2659C205.799 98.6235 204.998 97.728 204.434 96.5794C203.875 95.4243 203.596 94.0811 203.596 92.5496C203.596 91.0182 203.875 89.6684 204.434 88.5004C204.998 87.3258 205.783 86.4109 206.789 85.7554C207.801 85.0936 208.982 84.7626 210.332 84.7626C211.111 84.7626 211.88 84.8924 212.639 85.152C213.398 85.4115 214.089 85.8333 214.712 86.4173C215.335 86.9949 215.832 87.7606 216.202 88.7145C216.572 89.6684 216.756 90.843 216.756 92.2381V93.2115H205.232V91.2258H214.42C214.42 90.3822 214.252 89.6295 213.914 88.9676C213.583 88.3057 213.11 87.7833 212.493 87.4005C211.883 87.0176 211.163 86.8262 210.332 86.8262C209.417 86.8262 208.626 87.0533 207.957 87.5075C207.295 87.9553 206.786 88.5393 206.429 89.2596C206.072 89.9799 205.894 90.7521 205.894 91.5762V92.9C205.894 94.0291 206.088 94.9863 206.478 95.7715C206.873 96.5502 207.422 97.1439 208.123 97.5528C208.823 97.9551 209.638 98.1562 210.566 98.1562C211.169 98.1562 211.714 98.0719 212.201 97.9032C212.694 97.728 213.119 97.4684 213.476 97.1245C213.833 96.7741 214.109 96.3393 214.304 95.8201L216.523 96.4431C216.289 97.1959 215.897 97.8577 215.345 98.4288C214.793 98.9934 214.112 99.4346 213.301 99.7526C212.49 100.064 211.578 100.22 210.566 100.22ZM220.114 99.9083V84.9573H222.333V87.2934H222.528C222.839 86.4952 223.342 85.8755 224.037 85.4342C224.731 84.9865 225.565 84.7626 226.538 84.7626C227.524 84.7626 228.345 84.9865 229.001 85.4342C229.663 85.8755 230.179 86.4952 230.548 87.2934H230.704C231.087 86.5212 231.661 85.9079 232.427 85.4537C233.193 84.993 234.111 84.7626 235.182 84.7626C236.518 84.7626 237.612 85.1812 238.462 86.0183C239.312 86.8489 239.737 88.1435 239.737 89.902V99.9083H237.44V89.902C237.44 88.7989 237.138 88.0104 236.535 87.5367C235.931 87.063 235.221 86.8262 234.403 86.8262C233.352 86.8262 232.537 87.1441 231.96 87.7801C231.382 88.4095 231.094 89.2077 231.094 90.1746V99.9083H228.757V89.6684C228.757 88.8183 228.482 88.1337 227.93 87.6146C227.378 87.089 226.668 86.8262 225.798 86.8262C225.201 86.8262 224.643 86.9851 224.124 87.3031C223.611 87.6211 223.196 88.0623 222.878 88.6269C222.567 89.185 222.411 89.8306 222.411 90.5639V99.9083H220.114ZM248.2 100.259C247.252 100.259 246.393 100.08 245.62 99.7234C244.848 99.36 244.235 98.8376 243.781 98.1562C243.326 97.4684 243.099 96.6378 243.099 95.6644C243.099 94.8078 243.268 94.1135 243.605 93.5814C243.943 93.0428 244.394 92.621 244.958 92.316C245.523 92.011 246.146 91.7839 246.827 91.6346C247.515 91.4789 248.206 91.3556 248.901 91.2648C249.809 91.1479 250.546 91.0603 251.11 91.0019C251.681 90.937 252.097 90.83 252.356 90.6807C252.622 90.5315 252.755 90.2719 252.755 89.902V89.8242C252.755 88.8638 252.492 88.1175 251.967 87.5854C251.448 87.0533 250.659 86.7872 249.601 86.7872C248.505 86.7872 247.645 87.0273 247.022 87.5075C246.399 87.9877 245.961 88.5004 245.708 89.0455L243.528 88.2668C243.917 87.3583 244.436 86.651 245.085 86.1448C245.74 85.6322 246.454 85.2752 247.226 85.0741C248.005 84.8664 248.771 84.7626 249.524 84.7626C250.004 84.7626 250.555 84.821 251.178 84.9378C251.808 85.0481 252.415 85.2785 252.999 85.6289C253.589 85.9793 254.079 86.5082 254.468 87.2155C254.858 87.9228 255.052 88.8702 255.052 90.0578V99.9083H252.755V97.8837H252.638C252.483 98.2082 252.223 98.5553 251.86 98.9252C251.496 99.2951 251.013 99.6098 250.409 99.8694C249.806 100.129 249.069 100.259 248.2 100.259ZM248.55 98.1952C249.459 98.1952 250.224 98.0167 250.847 97.6598C251.477 97.3029 251.951 96.8422 252.269 96.2776C252.593 95.7131 252.755 95.1193 252.755 94.4964V92.3939C252.658 92.5107 252.444 92.6177 252.113 92.7151C251.788 92.8059 251.412 92.887 250.984 92.9584C250.562 93.0233 250.15 93.0817 249.747 93.1336C249.352 93.1791 249.03 93.218 248.784 93.2504C248.187 93.3283 247.629 93.4548 247.11 93.6301C246.597 93.7988 246.182 94.0551 245.864 94.399C245.552 94.7365 245.396 95.1972 245.396 95.7812C245.396 96.5794 245.692 97.1829 246.282 97.5917C246.879 97.994 247.635 98.1952 248.55 98.1952ZM259.108 99.9083V84.9573H261.405V99.9083H259.108ZM260.276 82.4654C259.828 82.4654 259.442 82.3129 259.118 82.008C258.8 81.703 258.641 81.3363 258.641 80.908C258.641 80.4798 258.8 80.1131 259.118 79.8081C259.442 79.5031 259.828 79.3506 260.276 79.3506C260.724 79.3506 261.107 79.5031 261.425 79.8081C261.749 80.1131 261.911 80.4798 261.911 80.908C261.911 81.3363 261.749 81.703 261.425 82.008C261.107 82.3129 260.724 82.4654 260.276 82.4654ZM267.773 90.9143V99.9083H265.476V84.9573H267.695V87.2934H267.89C268.24 86.5341 268.772 85.9242 269.486 85.4634C270.2 84.9962 271.121 84.7626 272.25 84.7626C273.263 84.7626 274.148 84.9703 274.908 85.3856C275.667 85.7944 276.257 86.4173 276.679 87.2544C277.101 88.0851 277.312 89.1363 277.312 90.4082V99.9083H275.015V90.5639C275.015 89.3894 274.71 88.4744 274.1 87.819C273.49 87.1571 272.653 86.8262 271.588 86.8262C270.855 86.8262 270.2 86.9851 269.622 87.3031C269.051 87.6211 268.6 88.0851 268.269 88.695C267.938 89.305 267.773 90.0448 267.773 90.9143ZM291.963 88.3057L289.899 88.8897C289.77 88.5458 289.578 88.2116 289.325 87.8871C289.078 87.5562 288.741 87.2836 288.313 87.0695C287.884 86.8554 287.336 86.7483 286.668 86.7483C285.753 86.7483 284.99 86.9592 284.38 87.381C283.777 87.7963 283.475 88.3252 283.475 88.9676C283.475 89.5386 283.683 89.9896 284.098 90.3206C284.513 90.6515 285.162 90.9273 286.045 91.1479L288.264 91.693C289.601 92.0175 290.597 92.5139 291.252 93.1823C291.908 93.8442 292.235 94.6975 292.235 95.7423C292.235 96.5988 291.989 97.3646 291.496 98.0394C291.009 98.7143 290.328 99.2464 289.452 99.6358C288.576 100.025 287.557 100.22 286.395 100.22C284.87 100.22 283.608 99.8889 282.609 99.227C281.609 98.5651 280.977 97.5982 280.711 96.3263L282.891 95.7812C283.099 96.5859 283.491 97.1894 284.069 97.5917C284.653 97.994 285.415 98.1952 286.356 98.1952C287.427 98.1952 288.277 97.9681 288.906 97.5138C289.542 97.0531 289.86 96.5015 289.86 95.8591C289.86 95.34 289.679 94.9052 289.315 94.5548C288.952 94.1979 288.394 93.9318 287.641 93.7566L285.149 93.1726C283.78 92.8481 282.774 92.3452 282.132 91.6638C281.496 90.976 281.178 90.1162 281.178 89.0844C281.178 88.2408 281.415 87.4945 281.888 86.8456C282.369 86.1967 283.021 85.6873 283.845 85.3174C284.676 84.9475 285.616 84.7626 286.668 84.7626C288.147 84.7626 289.309 85.0871 290.152 85.736C291.002 86.3849 291.606 87.2415 291.963 88.3057ZM33.7161 120.914V129.908H31.4189V114.957H33.6382V117.293H33.8329C34.1833 116.534 34.7154 115.924 35.4292 115.463C36.143 114.996 37.0645 114.763 38.1936 114.763C39.2059 114.763 40.0917 114.97 40.8509 115.386C41.6101 115.794 42.2007 116.417 42.6224 117.254C43.0442 118.085 43.2551 119.136 43.2551 120.408V129.908H40.958V120.564C40.958 119.389 40.653 118.474 40.043 117.819C39.433 117.157 38.5959 116.826 37.5317 116.826C36.7984 116.826 36.143 116.985 35.5655 117.303C34.9944 117.621 34.5434 118.085 34.2125 118.695C33.8815 119.305 33.7161 120.045 33.7161 120.914ZM53.5843 130.22C52.1437 130.22 50.901 129.902 49.8563 129.266C48.818 128.623 48.0166 127.728 47.452 126.579C46.894 125.424 46.6149 124.081 46.6149 122.55C46.6149 121.018 46.894 119.668 47.452 118.5C48.0166 117.326 48.8018 116.411 49.8076 115.755C50.8199 115.094 52.0009 114.763 53.3507 114.763C54.1294 114.763 54.8984 114.892 55.6576 115.152C56.4168 115.412 57.1079 115.833 57.7309 116.417C58.3538 116.995 58.8503 117.761 59.2202 118.715C59.59 119.668 59.775 120.843 59.775 122.238V123.212H48.2502V121.226H57.4389C57.4389 120.382 57.2702 119.629 56.9327 118.968C56.6018 118.306 56.1281 117.783 55.5116 117.4C54.9016 117.018 54.1813 116.826 53.3507 116.826C52.4357 116.826 51.644 117.053 50.9757 117.508C50.3138 117.955 49.8044 118.539 49.4475 119.26C49.0906 119.98 48.9121 120.752 48.9121 121.576V122.9C48.9121 124.029 49.1068 124.986 49.4961 125.771C49.892 126.55 50.4403 127.144 51.1411 127.553C51.842 127.955 52.6564 128.156 53.5843 128.156C54.1878 128.156 54.7329 128.072 55.2196 127.903C55.7128 127.728 56.1378 127.468 56.4947 127.124C56.8516 126.774 57.1274 126.339 57.3221 125.82L59.5414 126.443C59.3078 127.196 58.9152 127.858 58.3636 128.429C57.812 128.993 57.1306 129.435 56.3195 129.753C55.5083 130.064 54.5966 130.22 53.5843 130.22ZM69.6345 114.957V116.904H61.8864V114.957H69.6345ZM64.1446 111.375H66.4418V125.625C66.4418 126.274 66.5359 126.761 66.7241 127.086C66.9188 127.404 67.1654 127.618 67.4639 127.728C67.7688 127.832 68.0901 127.884 68.4275 127.884C68.6806 127.884 68.8882 127.871 69.0505 127.845C69.2127 127.812 69.3425 127.786 69.4398 127.767L69.907 129.83C69.7513 129.889 69.5339 129.947 69.2549 130.006C68.9758 130.071 68.6222 130.103 68.1939 130.103C67.545 130.103 66.909 129.963 66.2861 129.684C65.6696 129.405 65.157 128.98 64.7481 128.409C64.3458 127.838 64.1446 127.118 64.1446 126.248V111.375ZM80.525 135.515V114.957H82.7443V117.332H83.0168C83.1856 117.073 83.4192 116.742 83.7177 116.339C84.0227 115.931 84.4574 115.567 85.022 115.249C85.593 114.925 86.3653 114.763 87.3386 114.763C88.5975 114.763 89.7072 115.077 90.6676 115.707C91.628 116.336 92.3775 117.228 92.9161 118.384C93.4547 119.539 93.724 120.901 93.724 122.472C93.724 124.055 93.4547 125.428 92.9161 126.589C92.3775 127.744 91.6312 128.64 90.6773 129.276C89.7234 129.905 88.6235 130.22 87.3776 130.22C86.4172 130.22 85.6482 130.061 85.0707 129.743C84.4931 129.418 84.0486 129.052 83.7371 128.643C83.4257 128.228 83.1856 127.884 83.0168 127.611H82.8222V135.515H80.525ZM82.7832 122.433C82.7832 123.562 82.9487 124.558 83.2797 125.421C83.6106 126.278 84.094 126.949 84.73 127.436C85.3659 127.916 86.1446 128.156 87.0661 128.156C88.0265 128.156 88.8279 127.903 89.4703 127.397C90.1192 126.884 90.6059 126.197 90.9304 125.333C91.2613 124.464 91.4268 123.497 91.4268 122.433C91.4268 121.382 91.2646 120.434 90.9401 119.591C90.6221 118.74 90.1387 118.069 89.4898 117.576C88.8474 117.076 88.0395 116.826 87.0661 116.826C86.1316 116.826 85.3465 117.063 84.7105 117.537C84.0746 118.004 83.5944 118.659 83.2699 119.503C82.9455 120.34 82.7832 121.317 82.7832 122.433ZM103.165 130.22C101.815 130.22 100.631 129.899 99.6121 129.256C98.5998 128.614 97.8081 127.715 97.2371 126.56C96.6725 125.405 96.3902 124.055 96.3902 122.511C96.3902 120.953 96.6725 119.594 97.2371 118.432C97.8081 117.271 98.5998 116.369 99.6121 115.726C100.631 115.084 101.815 114.763 103.165 114.763C104.515 114.763 105.696 115.084 106.708 115.726C107.727 116.369 108.518 117.271 109.083 118.432C109.654 119.594 109.94 120.953 109.94 122.511C109.94 124.055 109.654 125.405 109.083 126.56C108.518 127.715 107.727 128.614 106.708 129.256C105.696 129.899 104.515 130.22 103.165 130.22ZM103.165 128.156C104.19 128.156 105.034 127.893 105.696 127.368C106.358 126.842 106.848 126.151 107.166 125.295C107.483 124.438 107.642 123.51 107.642 122.511C107.642 121.511 107.483 120.58 107.166 119.717C106.848 118.854 106.358 118.156 105.696 117.624C105.034 117.092 104.19 116.826 103.165 116.826C102.14 116.826 101.296 117.092 100.634 117.624C99.9723 118.156 99.4823 118.854 99.1644 119.717C98.8464 120.58 98.6874 121.511 98.6874 122.511C98.6874 123.51 98.8464 124.438 99.1644 125.295C99.4823 126.151 99.9723 126.842 100.634 127.368C101.296 127.893 102.14 128.156 103.165 128.156ZM123.899 118.306L121.836 118.89C121.706 118.546 121.515 118.212 121.262 117.887C121.015 117.556 120.678 117.284 120.249 117.07C119.821 116.855 119.273 116.748 118.604 116.748C117.689 116.748 116.927 116.959 116.317 117.381C115.713 117.796 115.412 118.325 115.412 118.968C115.412 119.539 115.619 119.99 116.035 120.321C116.45 120.652 117.099 120.927 117.981 121.148L120.201 121.693C121.537 122.017 122.534 122.514 123.189 123.182C123.844 123.844 124.172 124.698 124.172 125.742C124.172 126.599 123.925 127.365 123.432 128.039C122.946 128.714 122.264 129.246 121.388 129.636C120.512 130.025 119.493 130.22 118.332 130.22C116.807 130.22 115.545 129.889 114.545 129.227C113.546 128.565 112.913 127.598 112.647 126.326L114.828 125.781C115.035 126.586 115.428 127.189 116.005 127.592C116.589 127.994 117.352 128.195 118.293 128.195C119.364 128.195 120.214 127.968 120.843 127.514C121.479 127.053 121.797 126.502 121.797 125.859C121.797 125.34 121.615 124.905 121.252 124.555C120.889 124.198 120.33 123.932 119.578 123.757L117.086 123.173C115.717 122.848 114.711 122.345 114.068 121.664C113.432 120.976 113.114 120.116 113.114 119.084C113.114 118.241 113.351 117.495 113.825 116.846C114.305 116.197 114.957 115.687 115.782 115.317C116.612 114.948 117.553 114.763 118.604 114.763C120.084 114.763 121.245 115.087 122.089 115.736C122.939 116.385 123.543 117.241 123.899 118.306ZM127.493 129.908V114.957H129.79V129.908H127.493ZM128.661 112.465C128.213 112.465 127.827 112.313 127.503 112.008C127.185 111.703 127.026 111.336 127.026 110.908C127.026 110.48 127.185 110.113 127.503 109.808C127.827 109.503 128.213 109.351 128.661 109.351C129.109 109.351 129.492 109.503 129.81 109.808C130.134 110.113 130.296 110.48 130.296 110.908C130.296 111.336 130.134 111.703 129.81 112.008C129.492 112.313 129.109 112.465 128.661 112.465ZM140.363 114.957V116.904H132.614V114.957H140.363ZM134.873 111.375H137.17V125.625C137.17 126.274 137.264 126.761 137.452 127.086C137.647 127.404 137.893 127.618 138.192 127.728C138.497 127.832 138.818 127.884 139.156 127.884C139.409 127.884 139.616 127.871 139.779 127.845C139.941 127.812 140.071 127.786 140.168 127.767L140.635 129.83C140.479 129.889 140.262 129.947 139.983 130.006C139.704 130.071 139.35 130.103 138.922 130.103C138.273 130.103 137.637 129.963 137.014 129.684C136.398 129.405 135.885 128.98 135.476 128.409C135.074 127.838 134.873 127.118 134.873 126.248V111.375ZM143.681 129.908V114.957H145.978V129.908H143.681ZM144.849 112.465C144.401 112.465 144.015 112.313 143.691 112.008C143.373 111.703 143.214 111.336 143.214 110.908C143.214 110.48 143.373 110.113 143.691 109.808C144.015 109.503 144.401 109.351 144.849 109.351C145.297 109.351 145.68 109.503 145.998 109.808C146.322 110.113 146.484 110.48 146.484 110.908C146.484 111.336 146.322 111.703 145.998 112.008C145.68 112.313 145.297 112.465 144.849 112.465ZM162.274 114.957L156.745 129.908H154.409L148.88 114.957H151.372L155.499 126.871H155.655L159.782 114.957H162.274ZM170.902 130.22C169.462 130.22 168.219 129.902 167.174 129.266C166.136 128.623 165.335 127.728 164.77 126.579C164.212 125.424 163.933 124.081 163.933 122.55C163.933 121.018 164.212 119.668 164.77 118.5C165.335 117.326 166.12 116.411 167.126 115.755C168.138 115.094 169.319 114.763 170.669 114.763C171.447 114.763 172.216 114.892 172.976 115.152C173.735 115.412 174.426 115.833 175.049 116.417C175.672 116.995 176.168 117.761 176.538 118.715C176.908 119.668 177.093 120.843 177.093 122.238V123.212H165.568V121.226H174.757C174.757 120.382 174.588 119.629 174.251 118.968C173.92 118.306 173.446 117.783 172.83 117.4C172.22 117.018 171.499 116.826 170.669 116.826C169.754 116.826 168.962 117.053 168.294 117.508C167.632 117.955 167.122 118.539 166.765 119.26C166.409 119.98 166.23 120.752 166.23 121.576V122.9C166.23 124.029 166.425 124.986 166.814 125.771C167.21 126.55 167.758 127.144 168.459 127.553C169.16 127.955 169.974 128.156 170.902 128.156C171.506 128.156 172.051 128.072 172.538 127.903C173.031 127.728 173.456 127.468 173.813 127.124C174.17 126.774 174.445 126.339 174.64 125.82L176.859 126.443C176.626 127.196 176.233 127.858 175.682 128.429C175.13 128.993 174.449 129.435 173.637 129.753C172.826 130.064 171.915 130.22 170.902 130.22ZM182.125 130.064C181.644 130.064 181.232 129.892 180.888 129.548C180.544 129.204 180.372 128.792 180.372 128.312C180.372 127.832 180.544 127.42 180.888 127.076C181.232 126.732 181.644 126.56 182.125 126.56C182.605 126.56 183.017 126.732 183.361 127.076C183.705 127.42 183.877 127.832 183.877 128.312C183.877 128.63 183.796 128.922 183.633 129.188C183.478 129.454 183.267 129.668 183.001 129.83C182.741 129.986 182.449 130.064 182.125 130.064Z" fill="white"/>
<path d="M339.847 20.0556C339.847 9.20175 331.048 0.402954 320.194 0.402954V0.402954V28.8475H339.847V20.0556Z" fill="#26252A" stroke="#26252A" stroke-width="0.805851"/>
<rect width="19.6526" height="92.1214" transform="matrix(-1 0 0 1 339.847 28.8475)" fill="#26252A" stroke="#26252A" stroke-width="0.805851"/>
<path d="M339.847 129.761C339.847 140.615 331.048 149.414 320.194 149.414V149.414V120.969H339.847V129.761Z" fill="#26252A" stroke="#26252A" stroke-width="0.805851"/>
</svg>
