<svg width="341" height="90" viewBox="0 0 341 90" fill="none" xmlns="http://www.w3.org/2000/svg">
<path d="M9.66406 20.0556C9.66406 9.20175 18.4628 0.402954 29.3167 0.402954V0.402954V28.8475H9.66406V20.0556Z" fill="#26252A" stroke="#26252A" stroke-width="0.805851"/>
<rect x="9.66406" y="28.8474" width="19.6526" height="32.1217" fill="#26252A" stroke="#26252A" stroke-width="0.805851"/>
<path d="M29.3169 60.9692V89.4136C24.5572 89.4136 20.1931 87.7211 16.7925 84.9058C13.4001 87.1658 7.96139 89.3156 1.38916 88.1206C3.19942 87.3447 10.1809 82.6903 9.92236 73.3813C9.95309 73.4236 9.98772 73.463 10.021 73.5034C9.78742 72.2919 9.66357 71.041 9.66357 69.7612V60.9692H29.3169Z" fill="#26252A"/>
<path d="M29.3169 60.9692H29.7198V60.5663H29.3169V60.9692ZM29.3169 89.4136V89.8165H29.7198V89.4136H29.3169ZM16.7925 84.9058L17.0494 84.5954L16.8185 84.4042L16.5691 84.5704L16.7925 84.9058ZM1.38916 88.1206L1.23043 87.7503L0.000112772 88.2776L1.31708 88.517L1.38916 88.1206ZM9.92236 73.3813L10.2482 73.1444L9.48349 72.0928L9.51959 73.3925L9.92236 73.3813ZM10.021 73.5034L9.71006 73.7597L10.4166 73.4271L10.021 73.5034ZM9.66357 69.7612H9.26065V69.7612H9.66357ZM9.66357 60.9692V60.5663H9.26065V60.9692H9.66357ZM29.3169 60.9692H28.914V89.4136H29.3169H29.7198V60.9692H29.3169ZM29.3169 89.4136V89.0106C24.6545 89.0106 20.3805 87.3532 17.0494 84.5954L16.7925 84.9058L16.5355 85.2161C20.0057 88.0891 24.46 89.8165 29.3169 89.8165V89.4136ZM16.7925 84.9058L16.5691 84.5704C13.2391 86.789 7.90505 88.8958 1.46124 87.7242L1.38916 88.1206L1.31708 88.517C8.01773 89.7353 13.5612 87.5427 17.0159 85.2411L16.7925 84.9058ZM1.38916 88.1206L1.54789 88.4909C2.51474 88.0766 4.76599 86.6779 6.74621 84.2026C8.73435 81.7174 10.4575 78.1359 10.3251 73.3702L9.92236 73.3813L9.51959 73.3925C9.64579 77.9358 8.00749 81.336 6.11695 83.6992C4.21849 86.0723 2.07385 87.3888 1.23043 87.7503L1.38916 88.1206ZM9.92236 73.3813L9.5965 73.6183C9.63679 73.6737 9.68751 73.7323 9.71006 73.7597L10.021 73.5034L10.3319 73.2472C10.2879 73.1938 10.2694 73.1735 10.2482 73.1444L9.92236 73.3813ZM10.021 73.5034L10.4166 73.4271C10.1878 72.2403 10.0665 71.0149 10.0665 69.7612H9.66357H9.26065C9.26065 71.067 9.38702 72.3435 9.62536 73.5797L10.021 73.5034ZM9.66357 69.7612H10.0665V60.9692H9.66357H9.26065V69.7612H9.66357ZM9.66357 60.9692V61.3722H29.3169V60.9692V60.5663H9.66357V60.9692Z" fill="#26252A"/>
<rect x="29.3164" y="0.402954" width="290.877" height="89.0106" fill="#26252A"/>
<rect x="29.3164" y="0.402954" width="290.877" height="89.0106" stroke="#26252A" stroke-width="0.805851"/>
<path d="M37.2591 36.4042V23.5556H39.4395V36.4042H37.2591ZM31.9251 31.0701V28.8897H44.7736V31.0701H31.9251ZM55.9301 40.1809C55.1125 40.1679 54.2949 40.0122 53.4772 39.7137C52.6596 39.4151 51.9133 38.9122 51.2385 38.2049C50.5636 37.4911 50.0218 36.5275 49.6129 35.314C49.2041 34.094 48.9997 32.5626 48.9997 30.7197C48.9997 28.9546 49.1652 27.3907 49.4961 26.028C49.8271 24.6588 50.3073 23.507 50.9367 22.5725C51.5662 21.6316 52.3254 20.9178 53.2144 20.4311C54.1099 19.9444 55.119 19.7011 56.2416 19.7011C57.3578 19.7011 58.3506 19.9249 59.2202 20.3727C60.0962 20.8139 60.81 21.4304 61.3616 22.2221C61.9132 23.0138 62.2701 23.9255 62.4323 24.9573H60.0573C59.8366 24.0618 59.4083 23.3188 58.7724 22.7283C58.1365 22.1377 57.2929 21.8425 56.2416 21.8425C54.6972 21.8425 53.4805 22.5141 52.5915 23.8574C51.7089 25.2006 51.2644 27.0857 51.2579 29.5127H51.4137C51.7771 28.9611 52.2086 28.4906 52.7083 28.1013C53.2144 27.7054 53.7725 27.4005 54.3825 27.1863C54.9925 26.9722 55.6381 26.8651 56.3195 26.8651C57.4616 26.8651 58.5063 27.1506 59.4538 27.7217C60.4012 28.2862 61.1604 29.0682 61.7315 30.0675C62.3025 31.0603 62.588 32.1992 62.588 33.484C62.588 34.717 62.3122 35.8461 61.7607 36.8714C61.2091 37.8902 60.4336 38.7013 59.4343 39.3048C58.4415 39.9018 57.2734 40.1938 55.9301 40.1809ZM55.9301 38.0394C56.7478 38.0394 57.4811 37.835 58.13 37.4262C58.7854 37.0174 59.3013 36.4691 59.6776 35.7812C60.0605 35.0934 60.2519 34.3276 60.2519 33.484C60.2519 32.6599 60.067 31.9104 59.6971 31.2356C59.3337 30.5542 58.8308 30.0123 58.1884 29.61C57.5524 29.2077 56.8256 29.0065 56.008 29.0065C55.3915 29.0065 54.8173 29.1298 54.2851 29.3764C53.753 29.6165 53.2858 29.9475 52.8835 30.3692C52.4876 30.791 52.1762 31.2745 51.949 31.8196C51.7219 32.3582 51.6084 32.926 51.6084 33.523C51.6084 34.3147 51.7933 35.0544 52.1632 35.7423C52.5396 36.4301 53.0522 36.985 53.7011 37.4068C54.3565 37.8285 55.0995 38.0394 55.9301 38.0394ZM67.055 40.0641C66.5748 40.0641 66.1628 39.8921 65.8189 39.5482C65.4749 39.2043 65.303 38.7922 65.303 38.312C65.303 37.8318 65.4749 37.4197 65.8189 37.0758C66.1628 36.7319 66.5748 36.5599 67.055 36.5599C67.5352 36.5599 67.9473 36.7319 68.2912 37.0758C68.6352 37.4197 68.8071 37.8318 68.8071 38.312C68.8071 38.63 68.726 38.922 68.5638 39.188C68.408 39.4541 68.1971 39.6682 67.9311 39.8305C67.6715 39.9862 67.3795 40.0641 67.055 40.0641ZM72.2862 35.8201V33.8345L81.0465 19.9736H82.4871V23.0495H81.5138L74.8948 33.523V33.6787H86.6921V35.8201H72.2862ZM81.6695 39.9083V35.2167V34.2919V19.9736H83.9667V39.9083H81.6695ZM100.365 36.1706V35.1193C100.365 34.3925 100.514 33.7274 100.813 33.1239C101.118 32.5139 101.559 32.0272 102.136 31.6638C102.72 31.294 103.428 31.109 104.258 31.109C105.102 31.109 105.809 31.294 106.38 31.6638C106.951 32.0272 107.383 32.5139 107.675 33.1239C107.967 33.7274 108.113 34.3925 108.113 35.1193V36.1706C108.113 36.8974 107.964 37.5657 107.665 38.1757C107.373 38.7792 106.938 39.2659 106.361 39.6358C105.79 39.9992 105.089 40.1809 104.258 40.1809C103.415 40.1809 102.704 39.9992 102.127 39.6358C101.549 39.2659 101.111 38.7792 100.813 38.1757C100.514 37.5657 100.365 36.8974 100.365 36.1706ZM102.351 35.1193V36.1706C102.351 36.7741 102.493 37.3159 102.779 37.7961C103.064 38.2698 103.557 38.5067 104.258 38.5067C104.94 38.5067 105.42 38.2698 105.699 37.7961C105.984 37.3159 106.127 36.7741 106.127 36.1706V35.1193C106.127 34.5158 105.991 33.9772 105.718 33.5035C105.446 33.0233 104.959 32.7832 104.258 32.7832C103.577 32.7832 103.087 33.0233 102.789 33.5035C102.497 33.9772 102.351 34.5158 102.351 35.1193ZM90.4364 24.7626V23.7114C90.4364 22.9846 90.5856 22.3194 90.8841 21.7159C91.1891 21.106 91.6304 20.6193 92.2079 20.2559C92.792 19.886 93.4993 19.7011 94.3299 19.7011C95.1735 19.7011 95.8808 19.886 96.4519 20.2559C97.0229 20.6193 97.4544 21.106 97.7464 21.7159C98.0385 22.3194 98.1845 22.9846 98.1845 23.7114V24.7626C98.1845 25.4894 98.0352 26.1578 97.7367 26.7678C97.4447 27.3713 97.0099 27.8579 96.4324 28.2278C95.8613 28.5912 95.1605 28.7729 94.3299 28.7729C93.4863 28.7729 92.7757 28.5912 92.1982 28.2278C91.6207 27.8579 91.1826 27.3713 90.8841 26.7678C90.5856 26.1578 90.4364 25.4894 90.4364 24.7626ZM92.4221 23.7114V24.7626C92.4221 25.3661 92.5648 25.9079 92.8504 26.3881C93.1359 26.8619 93.6291 27.0987 94.3299 27.0987C95.0113 27.0987 95.4915 26.8619 95.7705 26.3881C96.056 25.9079 96.1988 25.3661 96.1988 24.7626V23.7114C96.1988 23.1079 96.0625 22.5693 95.79 22.0956C95.5174 21.6154 95.0307 21.3753 94.3299 21.3753C93.6485 21.3753 93.1586 21.6154 92.8601 22.0956C92.5681 22.5693 92.4221 23.1079 92.4221 23.7114ZM91.1762 39.9083L104.881 19.9736H107.101L93.3955 39.9083H91.1762ZM119.948 39.9083V24.9573H122.167V27.2155H122.323C122.595 26.4757 123.088 25.8755 123.802 25.4148C124.516 24.954 125.321 24.7237 126.216 24.7237C126.385 24.7237 126.596 24.7269 126.849 24.7334C127.102 24.7399 127.293 24.7496 127.423 24.7626V27.0987C127.345 27.0792 127.167 27.05 126.888 27.0111C126.615 26.9657 126.326 26.943 126.021 26.943C125.295 26.943 124.646 27.0955 124.075 27.4005C123.51 27.699 123.062 28.1143 122.731 28.6464C122.407 29.172 122.245 29.7722 122.245 30.4471V39.9083H119.948ZM135.823 40.2198C134.382 40.2198 133.139 39.9018 132.095 39.2659C131.056 38.6235 130.255 37.728 129.69 36.5794C129.132 35.4243 128.853 34.0811 128.853 32.5496C128.853 31.0182 129.132 29.6684 129.69 28.5004C130.255 27.3258 131.04 26.4109 132.046 25.7554C133.058 25.0936 134.239 24.7626 135.589 24.7626C136.368 24.7626 137.137 24.8924 137.896 25.152C138.655 25.4115 139.346 25.8333 139.969 26.4173C140.592 26.9949 141.089 27.7606 141.458 28.7145C141.828 29.6684 142.013 30.843 142.013 32.2381V33.2115H130.488V31.2258H139.677C139.677 30.3822 139.508 29.6295 139.171 28.9676C138.84 28.3057 138.366 27.7833 137.75 27.4005C137.14 27.0176 136.42 26.8262 135.589 26.8262C134.674 26.8262 133.882 27.0533 133.214 27.5075C132.552 27.9553 132.043 28.5393 131.686 29.2596C131.329 29.9799 131.15 30.7521 131.15 31.5762V32.9C131.15 34.0291 131.345 34.9863 131.734 35.7715C132.13 36.5502 132.679 37.1439 133.379 37.5528C134.08 37.9551 134.895 38.1562 135.823 38.1562C136.426 38.1562 136.971 38.0719 137.458 37.9032C137.951 37.728 138.376 37.4684 138.733 37.1245C139.09 36.7741 139.366 36.3393 139.56 35.8201L141.78 36.4431C141.546 37.1959 141.153 37.8577 140.602 38.4288C140.05 38.9934 139.369 39.4346 138.558 39.7526C137.747 40.0641 136.835 40.2198 135.823 40.2198ZM157.141 24.9573L151.612 39.9083H149.276L143.747 24.9573H146.239L150.366 36.8714H150.522L154.649 24.9573H157.141ZM165.769 40.2198C164.329 40.2198 163.086 39.9018 162.041 39.2659C161.003 38.6235 160.202 37.728 159.637 36.5794C159.079 35.4243 158.8 34.0811 158.8 32.5496C158.8 31.0182 159.079 29.6684 159.637 28.5004C160.202 27.3258 160.987 26.4109 161.993 25.7554C163.005 25.0936 164.186 24.7626 165.536 24.7626C166.314 24.7626 167.083 24.8924 167.843 25.152C168.602 25.4115 169.293 25.8333 169.916 26.4173C170.539 26.9949 171.035 27.7606 171.405 28.7145C171.775 29.6684 171.96 30.843 171.96 32.2381V33.2115H160.435V31.2258H169.624C169.624 30.3822 169.455 29.6295 169.118 28.9676C168.787 28.3057 168.313 27.7833 167.697 27.4005C167.087 27.0176 166.366 26.8262 165.536 26.8262C164.621 26.8262 163.829 27.0533 163.161 27.5075C162.499 27.9553 161.989 28.5393 161.632 29.2596C161.276 29.9799 161.097 30.7521 161.097 31.5762V32.9C161.097 34.0291 161.292 34.9863 161.681 35.7715C162.077 36.5502 162.625 37.1439 163.326 37.5528C164.027 37.9551 164.841 38.1562 165.769 38.1562C166.373 38.1562 166.918 38.0719 167.405 37.9032C167.898 37.728 168.323 37.4684 168.68 37.1245C169.037 36.7741 169.312 36.3393 169.507 35.8201L171.726 36.4431C171.493 37.1959 171.1 37.8577 170.549 38.4288C169.997 38.9934 169.316 39.4346 168.504 39.7526C167.693 40.0641 166.782 40.2198 165.769 40.2198ZM177.615 30.9143V39.9083H175.317V24.9573H177.537V27.2934H177.731C178.082 26.5341 178.614 25.9242 179.328 25.4634C180.041 24.9962 180.963 24.7626 182.092 24.7626C183.104 24.7626 183.99 24.9703 184.749 25.3856C185.509 25.7944 186.099 26.4173 186.521 27.2544C186.943 28.0851 187.154 29.1363 187.154 30.4082V39.9083H184.856V30.5639C184.856 29.3894 184.551 28.4744 183.941 27.819C183.331 27.1571 182.494 26.8262 181.43 26.8262C180.697 26.8262 180.041 26.9851 179.464 27.3031C178.893 27.6211 178.442 28.0851 178.111 28.695C177.78 29.305 177.615 30.0448 177.615 30.9143ZM200.636 33.7955V24.9573H202.934V39.9083H200.636V37.3775H200.481C200.13 38.1368 199.585 38.7825 198.845 39.3146C198.106 39.8402 197.171 40.103 196.042 40.103C195.108 40.103 194.277 39.8986 193.55 39.4898C192.824 39.0745 192.252 38.4515 191.837 37.6209C191.422 36.7838 191.214 35.7293 191.214 34.4574V24.9573H193.511V34.3017C193.511 35.3919 193.816 36.2614 194.426 36.9103C195.043 37.5592 195.828 37.8837 196.782 37.8837C197.353 37.8837 197.934 37.7377 198.524 37.4457C199.121 37.1537 199.621 36.7059 200.023 36.1024C200.432 35.4989 200.636 34.73 200.636 33.7955ZM213.273 40.2198C211.832 40.2198 210.589 39.9018 209.545 39.2659C208.506 38.6235 207.705 37.728 207.14 36.5794C206.582 35.4243 206.303 34.0811 206.303 32.5496C206.303 31.0182 206.582 29.6684 207.14 28.5004C207.705 27.3258 208.49 26.4109 209.496 25.7554C210.508 25.0936 211.689 24.7626 213.039 24.7626C213.818 24.7626 214.587 24.8924 215.346 25.152C216.105 25.4115 216.796 25.8333 217.419 26.4173C218.042 26.9949 218.539 27.7606 218.908 28.7145C219.278 29.6684 219.463 30.843 219.463 32.2381V33.2115H207.938V31.2258H217.127C217.127 30.3822 216.958 29.6295 216.621 28.9676C216.29 28.3057 215.816 27.7833 215.2 27.4005C214.59 27.0176 213.87 26.8262 213.039 26.8262C212.124 26.8262 211.332 27.0533 210.664 27.5075C210.002 27.9553 209.493 28.5393 209.136 29.2596C208.779 29.9799 208.6 30.7521 208.6 31.5762V32.9C208.6 34.0291 208.795 34.9863 209.184 35.7715C209.58 36.5502 210.129 37.1439 210.829 37.5528C211.53 37.9551 212.345 38.1562 213.273 38.1562C213.876 38.1562 214.421 38.0719 214.908 37.9032C215.401 37.728 215.826 37.4684 216.183 37.1245C216.54 36.7741 216.816 36.3393 217.01 35.8201L219.23 36.4431C218.996 37.1959 218.603 37.8577 218.052 38.4288C217.5 38.9934 216.819 39.4346 216.008 39.7526C215.197 40.0641 214.285 40.2198 213.273 40.2198ZM239.815 33.7955V24.9573H242.112V39.9083H239.815V37.3775H239.659C239.309 38.1368 238.764 38.7825 238.024 39.3146C237.284 39.8402 236.35 40.103 235.221 40.103C234.286 40.103 233.456 39.8986 232.729 39.4898C232.002 39.0745 231.431 38.4515 231.016 37.6209C230.6 36.7838 230.393 35.7293 230.393 34.4574V24.9573H232.69V34.3017C232.69 35.3919 232.995 36.2614 233.605 36.9103C234.221 37.5592 235.006 37.8837 235.96 37.8837C236.531 37.8837 237.112 37.7377 237.703 37.4457C238.3 37.1537 238.799 36.7059 239.202 36.1024C239.611 35.4989 239.815 34.73 239.815 33.7955ZM246.182 45.515V24.9573H248.402V27.3323H248.674C248.843 27.0727 249.077 26.7418 249.375 26.3395C249.68 25.9307 250.115 25.5673 250.679 25.2493C251.251 24.9248 252.023 24.7626 252.996 24.7626C254.255 24.7626 255.365 25.0773 256.325 25.7068C257.285 26.3362 258.035 27.2285 258.574 28.3836C259.112 29.5386 259.381 30.9014 259.381 32.4717C259.381 34.0551 259.112 35.4276 258.574 36.5891C258.035 37.7442 257.289 38.6397 256.335 39.2756C255.381 39.9051 254.281 40.2198 253.035 40.2198C252.075 40.2198 251.306 40.0608 250.728 39.7429C250.151 39.4184 249.706 39.0518 249.395 38.6429C249.083 38.2276 248.843 37.8837 248.674 37.6112H248.48V45.515H246.182ZM248.441 32.4328C248.441 33.5619 248.606 34.558 248.937 35.4211C249.268 36.2776 249.752 36.9493 250.387 37.436C251.023 37.9162 251.802 38.1562 252.724 38.1562C253.684 38.1562 254.485 37.9032 255.128 37.397C255.777 36.8844 256.263 36.1965 256.588 35.3335C256.919 34.4639 257.084 33.497 257.084 32.4328C257.084 31.3816 256.922 30.4341 256.598 29.5905C256.28 28.7405 255.796 28.0688 255.147 27.5757C254.505 27.076 253.697 26.8262 252.724 26.8262C251.789 26.8262 251.004 27.063 250.368 27.5367C249.732 28.0039 249.252 28.6594 248.927 29.5029C248.603 30.34 248.441 31.3167 248.441 32.4328ZM265.046 19.9736V39.9083H262.749V19.9736H265.046ZM269.116 39.9083V24.9573H271.413V39.9083H269.116ZM270.284 22.4654C269.836 22.4654 269.45 22.3129 269.126 22.008C268.808 21.703 268.649 21.3363 268.649 20.908C268.649 20.4798 268.808 20.1131 269.126 19.8081C269.45 19.5031 269.836 19.3506 270.284 19.3506C270.732 19.3506 271.115 19.5031 271.433 19.8081C271.757 20.1131 271.919 20.4798 271.919 20.908C271.919 21.3363 271.757 21.703 271.433 22.008C271.115 22.3129 270.732 22.4654 270.284 22.4654ZM282.141 24.9573V26.904H274.082V24.9573H282.141ZM276.496 39.9083V22.8937C276.496 22.0372 276.697 21.3233 277.099 20.7523C277.502 20.1813 278.024 19.753 278.667 19.4674C279.309 19.1819 279.987 19.0392 280.701 19.0392C281.265 19.0392 281.726 19.0846 282.083 19.1754C282.44 19.2663 282.706 19.3506 282.881 19.4285L282.219 21.4142C282.103 21.3753 281.94 21.3266 281.733 21.2682C281.531 21.2098 281.265 21.1806 280.934 21.1806C280.175 21.1806 279.627 21.372 279.289 21.7549C278.959 22.1377 278.793 22.699 278.793 23.4388V39.9083H276.496ZM291.726 24.9573V26.904H283.978V24.9573H291.726ZM286.236 21.3753H288.533V35.6255C288.533 36.2744 288.627 36.7611 288.816 37.0855C289.01 37.4035 289.257 37.6176 289.555 37.728C289.86 37.8318 290.182 37.8837 290.519 37.8837C290.772 37.8837 290.98 37.8707 291.142 37.8448C291.304 37.8123 291.434 37.7864 291.531 37.7669L291.999 39.8305C291.843 39.8889 291.625 39.9473 291.346 40.0057C291.067 40.0706 290.714 40.103 290.285 40.103C289.637 40.103 289.001 39.9635 288.378 39.6844C287.761 39.4054 287.248 38.9804 286.84 38.4093C286.437 37.8383 286.236 37.118 286.236 36.2484V21.3753ZM296.719 40.0641C296.238 40.0641 295.826 39.8921 295.482 39.5482C295.139 39.2043 294.967 38.7922 294.967 38.312C294.967 37.8318 295.139 37.4197 295.482 37.0758C295.826 36.7319 296.238 36.5599 296.719 36.5599C297.199 36.5599 297.611 36.7319 297.955 37.0758C298.299 37.4197 298.471 37.8318 298.471 38.312C298.471 38.63 298.39 38.922 298.227 39.188C298.072 39.4541 297.861 39.6682 297.595 39.8305C297.335 39.9862 297.043 40.0641 296.719 40.0641ZM47.538 49.9736V69.9083H45.2019L34.339 54.2565H34.1443V69.9083H31.7304V49.9736H34.0665L44.9683 65.6644H45.163V49.9736H47.538ZM57.9937 70.2198C56.644 70.2198 55.4597 69.8986 54.4409 69.2562C53.4286 68.6137 52.6369 67.715 52.0658 66.5599C51.5013 65.4048 51.219 64.0551 51.219 62.5107C51.219 60.9533 51.5013 59.5938 52.0658 58.4322C52.6369 57.2707 53.4286 56.3687 54.4409 55.7262C55.4597 55.0838 56.644 54.7626 57.9937 54.7626C59.3434 54.7626 60.5245 55.0838 61.5368 55.7262C62.5556 56.3687 63.3473 57.2707 63.9118 58.4322C64.4829 59.5938 64.7684 60.9533 64.7684 62.5107C64.7684 64.0551 64.4829 65.4048 63.9118 66.5599C63.3473 67.715 62.5556 68.6137 61.5368 69.2562C60.5245 69.8986 59.3434 70.2198 57.9937 70.2198ZM57.9937 68.1562C59.019 68.1562 59.8626 67.8934 60.5245 67.3678C61.1864 66.8422 61.6763 66.1511 61.9943 65.2945C62.3122 64.438 62.4712 63.51 62.4712 62.5107C62.4712 61.5113 62.3122 60.5801 61.9943 59.7171C61.6763 58.854 61.1864 58.1564 60.5245 57.6243C59.8626 57.0922 59.019 56.8262 57.9937 56.8262C56.9684 56.8262 56.1248 57.0922 55.4629 57.6243C54.801 58.1564 54.3111 58.854 53.9931 59.7171C53.6752 60.5801 53.5162 61.5113 53.5162 62.5107C53.5162 63.51 53.6752 64.438 53.9931 65.2945C54.3111 66.1511 54.801 66.8422 55.4629 67.3678C56.1248 67.8934 56.9684 68.1562 57.9937 68.1562ZM75.71 69.9083V54.9573H77.9293V57.2934H78.124C78.4355 56.4952 78.9384 55.8755 79.6327 55.4342C80.327 54.9865 81.1609 54.7626 82.1343 54.7626C83.1206 54.7626 83.9415 54.9865 84.5969 55.4342C85.2588 55.8755 85.7747 56.4952 86.1446 57.2934H86.3003C86.6832 56.5212 87.2575 55.9079 88.0232 55.4537C88.7889 54.993 89.7071 54.7626 90.7779 54.7626C92.1146 54.7626 93.208 55.1812 94.0581 56.0183C94.9082 56.8489 95.3333 58.1435 95.3333 59.902V69.9083H93.0361V59.902C93.0361 58.7989 92.7343 58.0104 92.1308 57.5367C91.5274 57.063 90.8168 56.8262 89.9992 56.8262C88.9479 56.8262 88.1335 57.1441 87.556 57.7801C86.9784 58.4095 86.6897 59.2077 86.6897 60.1746V69.9083H84.3536V59.6684C84.3536 58.8183 84.0778 58.1337 83.5262 57.6146C82.9746 57.089 82.2641 56.8262 81.3945 56.8262C80.7975 56.8262 80.2394 56.9851 79.7203 57.3031C79.2077 57.6211 78.7924 58.0623 78.4744 58.6269C78.1629 59.185 78.0072 59.8306 78.0072 60.5639V69.9083H75.71ZM103.796 70.2587C102.849 70.2587 101.989 70.0803 101.217 69.7234C100.444 69.36 99.8311 68.8376 99.3768 68.1562C98.9226 67.4684 98.6955 66.6378 98.6955 65.6644C98.6955 64.8078 98.8642 64.1135 99.2016 63.5814C99.5391 63.0428 99.9901 62.621 100.555 62.316C101.119 62.011 101.742 61.7839 102.424 61.6346C103.111 61.4789 103.802 61.3556 104.497 61.2648C105.405 61.1479 106.142 61.0603 106.706 61.0019C107.277 60.937 107.693 60.83 107.952 60.6807C108.218 60.5315 108.351 60.2719 108.351 59.902V59.8242C108.351 58.8638 108.089 58.1175 107.563 57.5854C107.044 57.0533 106.255 56.7872 105.198 56.7872C104.101 56.7872 103.241 57.0273 102.618 57.5075C101.995 57.9877 101.557 58.5004 101.304 59.0455L99.1238 58.2668C99.5131 57.3583 100.032 56.651 100.681 56.1448C101.337 55.6322 102.05 55.2752 102.823 55.0741C103.601 54.8664 104.367 54.7626 105.12 54.7626C105.6 54.7626 106.152 54.821 106.774 54.9378C107.404 55.0481 108.011 55.2785 108.595 55.6289C109.185 55.9793 109.675 56.5082 110.065 57.2155C110.454 57.9228 110.649 58.8702 110.649 60.0578V69.9083H108.351V67.8837H108.235C108.079 68.2082 107.819 68.5553 107.456 68.9252C107.092 69.2951 106.609 69.6098 106.006 69.8694C105.402 70.129 104.666 70.2587 103.796 70.2587ZM104.146 68.1952C105.055 68.1952 105.821 68.0167 106.444 67.6598C107.073 67.3029 107.547 66.8422 107.865 66.2776C108.189 65.7131 108.351 65.1193 108.351 64.4964V62.3939C108.254 62.5107 108.04 62.6177 107.709 62.7151C107.384 62.8059 107.008 62.887 106.58 62.9584C106.158 63.0233 105.746 63.0817 105.344 63.1336C104.948 63.1791 104.627 63.218 104.38 63.2504C103.783 63.3283 103.225 63.4548 102.706 63.6301C102.193 63.7988 101.778 64.0551 101.46 64.399C101.148 64.7365 100.993 65.1972 100.993 65.7812C100.993 66.5794 101.288 67.1829 101.878 67.5917C102.475 67.994 103.231 68.1952 104.146 68.1952ZM114.704 69.9083V54.9573H116.924V57.2155H117.079C117.352 56.4757 117.845 55.8755 118.559 55.4148C119.273 54.954 120.077 54.7237 120.973 54.7237C121.142 54.7237 121.352 54.7269 121.606 54.7334C121.859 54.7399 122.05 54.7496 122.18 54.7626V57.0987C122.102 57.0792 121.923 57.05 121.644 57.0111C121.372 56.9657 121.083 56.943 120.778 56.943C120.051 56.943 119.402 57.0955 118.831 57.4005C118.267 57.699 117.819 58.1143 117.488 58.6464C117.164 59.172 117.001 59.7722 117.001 60.4471V69.9083H114.704ZM130.346 75.8264C129.236 75.8264 128.282 75.6837 127.484 75.3982C126.686 75.1191 126.021 74.7492 125.489 74.2885C124.963 73.8343 124.544 73.3476 124.233 72.8285L126.063 71.5436C126.27 71.8161 126.533 72.1276 126.851 72.478C127.169 72.8349 127.604 73.1432 128.156 73.4027C128.714 73.6688 129.444 73.8018 130.346 73.8018C131.553 73.8018 132.549 73.5098 133.334 72.9258C134.119 72.3418 134.512 71.4268 134.512 70.1809V67.1439H134.317C134.148 67.4165 133.908 67.7539 133.597 68.1562C133.292 68.5521 132.85 68.9057 132.273 69.2172C131.702 69.5222 130.93 69.6747 129.956 69.6747C128.749 69.6747 127.666 69.3892 126.705 68.8181C125.751 68.2471 124.995 67.4165 124.437 66.3263C123.886 65.2361 123.61 63.9123 123.61 62.3549C123.61 60.8235 123.879 59.49 124.418 58.3544C124.956 57.2123 125.706 56.3297 126.666 55.7068C127.627 55.0773 128.736 54.7626 129.995 54.7626C130.969 54.7626 131.741 54.9248 132.312 55.2493C132.889 55.5673 133.331 55.9307 133.636 56.3395C133.947 56.7418 134.187 57.0727 134.356 57.3323H134.59V54.9573H136.809V70.3366C136.809 71.6215 136.517 72.6662 135.933 73.4709C135.355 74.282 134.577 74.8758 133.597 75.2522C132.623 75.635 131.54 75.8264 130.346 75.8264ZM130.268 67.6112C131.189 67.6112 131.968 67.4003 132.604 66.9785C133.24 66.5567 133.723 65.9499 134.054 65.1583C134.385 64.3666 134.551 63.4192 134.551 62.316C134.551 61.2388 134.388 60.2881 134.064 59.464C133.739 58.6399 133.259 57.9942 132.623 57.527C131.987 57.0598 131.202 56.8262 130.268 56.8262C129.294 56.8262 128.483 57.0727 127.834 57.5659C127.192 58.0591 126.708 58.721 126.384 59.5516C126.066 60.3822 125.907 61.3037 125.907 62.316C125.907 63.3543 126.069 64.2725 126.394 65.0706C126.725 65.8623 127.211 66.4853 127.854 66.9395C128.503 67.3873 129.307 67.6112 130.268 67.6112ZM140.877 69.9083V54.9573H143.174V69.9083H140.877ZM142.045 52.4654C141.597 52.4654 141.211 52.3129 140.887 52.008C140.569 51.703 140.41 51.3363 140.41 50.908C140.41 50.4798 140.569 50.1131 140.887 49.8081C141.211 49.5031 141.597 49.3506 142.045 49.3506C142.493 49.3506 142.875 49.5031 143.193 49.8081C143.518 50.1131 143.68 50.4798 143.68 50.908C143.68 51.3363 143.518 51.703 143.193 52.008C142.875 52.3129 142.493 52.4654 142.045 52.4654ZM149.541 60.9143V69.9083H147.244V54.9573H149.464V57.2934H149.658C150.009 56.5341 150.541 55.9242 151.255 55.4634C151.968 54.9962 152.89 54.7626 154.019 54.7626C155.031 54.7626 155.917 54.9703 156.676 55.3856C157.436 55.7944 158.026 56.4173 158.448 57.2544C158.87 58.0851 159.081 59.1363 159.081 60.4082V69.9083H156.783V60.5639C156.783 59.3894 156.478 58.4744 155.868 57.819C155.258 57.1571 154.421 56.8262 153.357 56.8262C152.624 56.8262 151.968 56.9851 151.391 57.3031C150.82 57.6211 150.369 58.0851 150.038 58.695C149.707 59.305 149.541 60.0448 149.541 60.9143ZM176.359 70.2198C175.113 70.2198 174.013 69.9051 173.059 69.2756C172.105 68.6397 171.359 67.7442 170.82 66.5891C170.282 65.4276 170.012 64.0551 170.012 62.4717C170.012 60.9014 170.282 59.5386 170.82 58.3836C171.359 57.2285 172.108 56.3362 173.069 55.7068C174.029 55.0773 175.139 54.7626 176.398 54.7626C177.371 54.7626 178.14 54.9248 178.705 55.2493C179.276 55.5673 179.711 55.9307 180.009 56.3395C180.314 56.7418 180.551 57.0727 180.72 57.3323H180.914V49.9736H183.211V69.9083H180.992V67.6112H180.72C180.551 67.8837 180.311 68.2276 179.999 68.6429C179.688 69.0518 179.243 69.4184 178.666 69.7429C178.088 70.0608 177.319 70.2198 176.359 70.2198ZM176.67 68.1562C177.592 68.1562 178.371 67.9162 179.006 67.436C179.642 66.9493 180.126 66.2776 180.457 65.4211C180.788 64.558 180.953 63.5619 180.953 62.4328C180.953 61.3167 180.791 60.34 180.467 59.5029C180.142 58.6594 179.662 58.0039 179.026 57.5367C178.39 57.063 177.605 56.8262 176.67 56.8262C175.697 56.8262 174.886 57.076 174.237 57.5757C173.594 58.0688 173.111 58.7405 172.787 59.5905C172.469 60.4341 172.31 61.3816 172.31 62.4328C172.31 63.497 172.472 64.4639 172.796 65.3335C173.127 66.1965 173.614 66.8844 174.256 67.397C174.905 67.9032 175.71 68.1562 176.67 68.1562ZM187.601 69.9083V54.9573H189.898V69.9083H187.601ZM188.769 52.4654C188.321 52.4654 187.935 52.3129 187.61 52.008C187.292 51.703 187.133 51.3363 187.133 50.908C187.133 50.4798 187.292 50.1131 187.61 49.8081C187.935 49.5031 188.321 49.3506 188.769 49.3506C189.216 49.3506 189.599 49.5031 189.917 49.8081C190.242 50.1131 190.404 50.4798 190.404 50.908C190.404 51.3363 190.242 51.703 189.917 52.008C189.599 52.3129 189.216 52.4654 188.769 52.4654ZM196.265 49.9736V69.9083H193.968V49.9736H196.265ZM209.758 63.7955V54.9573H212.055V69.9083H209.758V67.3775H209.602C209.252 68.1368 208.707 68.7825 207.967 69.3146C207.227 69.8402 206.293 70.103 205.164 70.103C204.229 70.103 203.399 69.8986 202.672 69.4898C201.945 69.0745 201.374 68.4515 200.959 67.6209C200.543 66.7838 200.336 65.7293 200.336 64.4574V54.9573H202.633V64.3017C202.633 65.3919 202.938 66.2614 203.548 66.9103C204.164 67.5592 204.949 67.8837 205.903 67.8837C206.474 67.8837 207.055 67.7377 207.646 67.4457C208.243 67.1537 208.742 66.7059 209.145 66.1024C209.553 65.4989 209.758 64.73 209.758 63.7955ZM222.628 54.9573V56.904H214.88V54.9573H222.628ZM217.138 51.3753H219.435V65.6255C219.435 66.2744 219.529 66.7611 219.717 67.0855C219.912 67.4035 220.158 67.6176 220.457 67.728C220.762 67.8318 221.083 67.8837 221.421 67.8837C221.674 67.8837 221.881 67.8707 222.044 67.8448C222.206 67.8123 222.336 67.7864 222.433 67.7669L222.9 69.8305C222.744 69.8889 222.527 69.9473 222.248 70.0057C221.969 70.0706 221.615 70.103 221.187 70.103C220.538 70.103 219.902 69.9635 219.279 69.6844C218.663 69.4054 218.15 68.9804 217.741 68.4093C217.339 67.8383 217.138 67.118 217.138 66.2484V51.3753ZM225.946 69.9083V54.9573H228.243V69.9083H225.946ZM227.114 52.4654C226.666 52.4654 226.28 52.3129 225.956 52.008C225.638 51.703 225.479 51.3363 225.479 50.908C225.479 50.4798 225.638 50.1131 225.956 49.8081C226.28 49.5031 226.666 49.3506 227.114 49.3506C227.562 49.3506 227.945 49.5031 228.263 49.8081C228.587 50.1131 228.749 50.4798 228.749 50.908C228.749 51.3363 228.587 51.703 228.263 52.008C227.945 52.3129 227.562 52.4654 227.114 52.4654ZM238.387 70.2198C237.038 70.2198 235.853 69.8986 234.835 69.2562C233.822 68.6137 233.031 67.715 232.46 66.5599C231.895 65.4048 231.613 64.0551 231.613 62.5107C231.613 60.9533 231.895 59.5938 232.46 58.4322C233.031 57.2707 233.822 56.3687 234.835 55.7262C235.853 55.0838 237.038 54.7626 238.387 54.7626C239.737 54.7626 240.918 55.0838 241.93 55.7262C242.949 56.3687 243.741 57.2707 244.306 58.4322C244.877 59.5938 245.162 60.9533 245.162 62.5107C245.162 64.0551 244.877 65.4048 244.306 66.5599C243.741 67.715 242.949 68.6137 241.93 69.2562C240.918 69.8986 239.737 70.2198 238.387 70.2198ZM238.387 68.1562C239.413 68.1562 240.256 67.8934 240.918 67.3678C241.58 66.8422 242.07 66.1511 242.388 65.2945C242.706 64.438 242.865 63.51 242.865 62.5107C242.865 61.5113 242.706 60.5801 242.388 59.7171C242.07 58.854 241.58 58.1564 240.918 57.6243C240.256 57.0922 239.413 56.8262 238.387 56.8262C237.362 56.8262 236.519 57.0922 235.857 57.6243C235.195 58.1564 234.705 58.854 234.387 59.7171C234.069 60.5801 233.91 61.5113 233.91 62.5107C233.91 63.51 234.069 64.438 234.387 65.2945C234.705 66.1511 235.195 66.8422 235.857 67.3678C236.519 67.8934 237.362 68.1562 238.387 68.1562ZM250.829 60.9143V69.9083H248.532V54.9573H250.751V57.2934H250.946C251.296 56.5341 251.828 55.9242 252.542 55.4634C253.256 54.9962 254.177 54.7626 255.306 54.7626C256.319 54.7626 257.204 54.9703 257.964 55.3856C258.723 55.7944 259.313 56.4173 259.735 57.2544C260.157 58.0851 260.368 59.1363 260.368 60.4082V69.9083H258.071V60.5639C258.071 59.3894 257.766 58.4744 257.156 57.819C256.546 57.1571 255.709 56.8262 254.644 56.8262C253.911 56.8262 253.256 56.9851 252.678 57.3031C252.107 57.6211 251.656 58.0851 251.325 58.695C250.994 59.305 250.829 60.0448 250.829 60.9143ZM266.103 70.0641C265.623 70.0641 265.21 69.8921 264.867 69.5482C264.523 69.2043 264.351 68.7922 264.351 68.312C264.351 67.8318 264.523 67.4197 264.867 67.0758C265.21 66.7319 265.623 66.5599 266.103 66.5599C266.583 66.5599 266.995 66.7319 267.339 67.0758C267.683 67.4197 267.855 67.8318 267.855 68.312C267.855 68.63 267.774 68.922 267.611 69.188C267.456 69.4541 267.245 69.6682 266.979 69.8305C266.719 69.9862 266.427 70.0641 266.103 70.0641Z" fill="white"/>
<path d="M339.847 20.0556C339.847 9.20175 331.048 0.402954 320.194 0.402954V0.402954V28.8475H339.847V20.0556Z" fill="#26252A" stroke="#26252A" stroke-width="0.805851"/>
<rect width="19.6526" height="32.1214" transform="matrix(-1 0 0 1 339.847 28.8475)" fill="#26252A" stroke="#26252A" stroke-width="0.805851"/>
<path d="M339.847 69.7609C339.847 80.6148 331.048 89.4136 320.194 89.4136V89.4136V60.969H339.847V69.7609Z" fill="#26252A" stroke="#26252A" stroke-width="0.805851"/>
</svg>
