<svg width="341" height="120" viewBox="0 0 341 120" fill="none" xmlns="http://www.w3.org/2000/svg">
<path d="M9.66406 20.0556C9.66406 9.20175 18.4628 0.402954 29.3167 0.402954V28.8475H9.66406V20.0556Z" fill="#278EFF" stroke="#278EFF" stroke-width="0.805851"/>
<rect x="9.66406" y="28.8475" width="19.6526" height="62.1217" fill="#278EFF" stroke="#278EFF" stroke-width="0.805851"/>
<path d="M29.3169 90.9692V119.414C24.5572 119.414 20.1931 117.721 16.7925 114.906C13.4001 117.166 7.96139 119.316 1.38916 118.121C3.19942 117.345 10.1809 112.69 9.92236 103.381C9.95309 103.424 9.98772 103.463 10.021 103.503C9.78742 102.292 9.66357 101.041 9.66357 99.7612V90.9692H29.3169Z" fill="#278EFF"/>
<path d="M29.3169 90.9692H29.7198V90.5663H29.3169V90.9692ZM29.3169 119.414V119.816H29.7198V119.414H29.3169ZM16.7925 114.906L17.0494 114.595L16.8185 114.404L16.5691 114.57L16.7925 114.906ZM1.38916 118.121L1.23043 117.75L0.000112771 118.278L1.31708 118.517L1.38916 118.121ZM9.92236 103.381L10.2482 103.144L9.48349 102.093L9.51959 103.393L9.92236 103.381ZM10.021 103.503L9.71006 103.76L10.4166 103.427L10.021 103.503ZM9.66357 99.7612L9.26065 99.7612L9.26065 99.7612L9.66357 99.7612ZM9.66357 90.9692V90.5663H9.26065V90.9692H9.66357ZM29.3169 90.9692H28.914V119.414H29.3169H29.7198V90.9692H29.3169ZM29.3169 119.414V119.011C24.6545 119.011 20.3805 117.353 17.0494 114.595L16.7925 114.906L16.5355 115.216C20.0057 118.089 24.46 119.816 29.3169 119.816V119.414ZM16.7925 114.906L16.5691 114.57C13.2391 116.789 7.90505 118.896 1.46124 117.724L1.38916 118.121L1.31708 118.517C8.01773 119.735 13.5612 117.543 17.0159 115.241L16.7925 114.906ZM1.38916 118.121L1.54789 118.491C2.51474 118.077 4.76599 116.678 6.74621 114.203C8.73435 111.717 10.4575 108.136 10.3251 103.37L9.92236 103.381L9.51959 103.393C9.6458 107.936 8.00749 111.336 6.11695 113.699C4.21849 116.072 2.07385 117.389 1.23043 117.75L1.38916 118.121ZM9.92236 103.381L9.5965 103.618C9.63679 103.674 9.68751 103.732 9.71006 103.76L10.021 103.503L10.3319 103.247C10.2879 103.194 10.2694 103.173 10.2482 103.144L9.92236 103.381ZM10.021 103.503L10.4166 103.427C10.1878 102.24 10.0665 101.015 10.0665 99.7612L9.66357 99.7612L9.26065 99.7612C9.26065 101.067 9.38702 102.343 9.62536 103.58L10.021 103.503ZM9.66357 99.7612H10.0665V90.9692H9.66357H9.26065V99.7612H9.66357ZM9.66357 90.9692V91.3722H29.3169V90.9692V90.5663H9.66357V90.9692Z" fill="#278EFF"/>
<rect x="29.3164" y="0.402954" width="290.877" height="119.011" fill="#278EFF"/>
<rect x="29.3164" y="0.402954" width="290.877" height="119.011" stroke="#278EFF" stroke-width="0.805851"/>
<path d="M34.1443 19.9736V39.9083H31.7304V19.9736H34.1443ZM52.6102 24.9573V26.904H44.8621V24.9573H52.6102ZM47.1203 21.3753H49.4175V35.6255C49.4175 36.2744 49.5116 36.7611 49.6998 37.0855C49.8944 37.4035 50.141 37.6176 50.4395 37.728C50.7445 37.8318 51.0657 37.8837 51.4032 37.8837C51.6562 37.8837 51.8639 37.8707 52.0261 37.8448C52.1884 37.8123 52.3181 37.7864 52.4155 37.7669L52.8827 39.8305C52.727 39.8889 52.5096 39.9473 52.2305 40.0057C51.9515 40.0706 51.5978 40.103 51.1696 40.103C50.5206 40.103 49.8847 39.9635 49.2617 39.6844C48.6453 39.4054 48.1326 38.9804 47.7238 38.4093C47.3215 37.8383 47.1203 37.118 47.1203 36.2484V21.3753ZM58.547 30.9143V39.9083H56.2498V19.9736H58.547V27.2934H58.7416C59.0921 26.5212 59.6177 25.9079 60.3185 25.4537C61.0258 24.993 61.9668 24.7626 63.1413 24.7626C64.1601 24.7626 65.0524 24.967 65.8181 25.3758C66.5838 25.7782 67.1776 26.3979 67.5994 27.235C68.0276 28.0656 68.2418 29.1233 68.2418 30.4082V39.9083H65.9446V30.5639C65.9446 29.3764 65.6364 28.4582 65.0199 27.8093C64.4099 27.1539 63.5631 26.8262 62.4794 26.8262C61.7267 26.8262 61.0518 26.9851 60.4548 27.3031C59.8643 27.6211 59.397 28.0851 59.0531 28.695C58.7157 29.305 58.547 30.0448 58.547 30.9143ZM72.3073 39.9083V24.9573H74.6044V39.9083H72.3073ZM73.4753 22.4654C73.0276 22.4654 72.6415 22.3129 72.317 22.008C71.999 21.703 71.8401 21.3363 71.8401 20.908C71.8401 20.4798 71.999 20.1131 72.317 19.8081C72.6415 19.5031 73.0276 19.3506 73.4753 19.3506C73.9231 19.3506 74.3059 19.5031 74.6239 19.8081C74.9484 20.1131 75.1106 20.4798 75.1106 20.908C75.1106 21.3363 74.9484 21.703 74.6239 22.008C74.3059 22.3129 73.9231 22.4654 73.4753 22.4654ZM80.972 30.9143V39.9083H78.6748V24.9573H80.8941V27.2934H81.0888C81.4392 26.5341 81.9713 25.9242 82.6851 25.4634C83.3989 24.9962 84.3204 24.7626 85.4495 24.7626C86.4618 24.7626 87.3476 24.9703 88.1068 25.3856C88.866 25.7944 89.4566 26.4173 89.8784 27.2544C90.3002 28.0851 90.511 29.1363 90.511 30.4082V39.9083H88.2139V30.5639C88.2139 29.3894 87.9089 28.4744 87.2989 27.819C86.6889 27.1571 85.8518 26.8262 84.7876 26.8262C84.0543 26.8262 83.3989 26.9851 82.8214 27.3031C82.2503 27.6211 81.7993 28.0851 81.4684 28.695C81.1374 29.305 80.972 30.0448 80.972 30.9143ZM96.7131 34.4574L96.6742 31.6152H97.1414L103.682 24.9573H106.525L99.5554 32.0045H99.3607L96.7131 34.4574ZM94.5717 39.9083V19.9736H96.8688V39.9083H94.5717ZM104.072 39.9083L98.2316 32.5107L99.8668 30.9143L106.992 39.9083H104.072ZM119.642 19.9736V39.9083H117.228V19.9736H119.642ZM137.679 40.2198C136.278 40.2198 135.071 39.8889 134.058 39.227C133.046 38.5651 132.267 37.6533 131.722 36.4918C131.177 35.3302 130.905 34.0032 130.905 32.5107C130.905 30.9922 131.184 29.6522 131.742 28.4906C132.306 27.3226 133.092 26.4109 134.097 25.7554C135.11 25.0936 136.291 24.7626 137.64 24.7626C138.692 24.7626 139.639 24.9573 140.483 25.3466C141.326 25.736 142.017 26.2811 142.556 26.9819C143.095 27.6827 143.429 28.5004 143.559 29.4348H141.261C141.086 28.7534 140.697 28.15 140.093 27.6243C139.496 27.0922 138.692 26.8262 137.679 26.8262C136.784 26.8262 135.999 27.0598 135.324 27.527C134.655 27.9877 134.133 28.6399 133.757 29.4835C133.387 30.3206 133.202 31.3037 133.202 32.4328C133.202 33.5879 133.384 34.5937 133.747 35.4503C134.117 36.3068 134.636 36.972 135.304 37.4457C135.979 37.9194 136.771 38.1562 137.679 38.1562C138.276 38.1562 138.818 38.0524 139.305 37.8448C139.792 37.6371 140.204 37.3386 140.541 36.9493C140.879 36.5599 141.119 36.0927 141.261 35.5476H143.559C143.429 36.4301 143.108 37.2251 142.595 37.9324C142.089 38.6332 141.417 39.1913 140.58 39.6066C139.749 40.0154 138.783 40.2198 137.679 40.2198ZM152.853 40.2198C151.504 40.2198 150.319 39.8986 149.301 39.2562C148.288 38.6137 147.497 37.715 146.926 36.5599C146.361 35.4048 146.079 34.0551 146.079 32.5107C146.079 30.9533 146.361 29.5938 146.926 28.4322C147.497 27.2707 148.288 26.3687 149.301 25.7262C150.319 25.0838 151.504 24.7626 152.853 24.7626C154.203 24.7626 155.384 25.0838 156.397 25.7262C157.415 26.3687 158.207 27.2707 158.772 28.4322C159.343 29.5938 159.628 30.9533 159.628 32.5107C159.628 34.0551 159.343 35.4048 158.772 36.5599C158.207 37.715 157.415 38.6137 156.397 39.2562C155.384 39.8986 154.203 40.2198 152.853 40.2198ZM152.853 38.1562C153.879 38.1562 154.722 37.8934 155.384 37.3678C156.046 36.8422 156.536 36.1511 156.854 35.2945C157.172 34.438 157.331 33.51 157.331 32.5107C157.331 31.5113 157.172 30.5801 156.854 29.7171C156.536 28.854 156.046 28.1564 155.384 27.6243C154.722 27.0922 153.879 26.8262 152.853 26.8262C151.828 26.8262 150.985 27.0922 150.323 27.6243C149.661 28.1564 149.171 28.854 148.853 29.7171C148.535 30.5801 148.376 31.5113 148.376 32.5107C148.376 33.51 148.535 34.438 148.853 35.2945C149.171 36.1511 149.661 36.8422 150.323 37.3678C150.985 37.8934 151.828 38.1562 152.853 38.1562ZM162.998 45.515V24.9573H165.217V27.3323H165.49C165.658 27.0727 165.892 26.7418 166.19 26.3395C166.495 25.9307 166.93 25.5673 167.495 25.2493C168.066 24.9248 168.838 24.7626 169.811 24.7626C171.07 24.7626 172.18 25.0773 173.14 25.7068C174.101 26.3362 174.85 27.2285 175.389 28.3836C175.927 29.5386 176.197 30.9014 176.197 32.4717C176.197 34.0551 175.927 35.4276 175.389 36.5891C174.85 37.7442 174.104 38.6397 173.15 39.2756C172.196 39.9051 171.096 40.2198 169.85 40.2198C168.89 40.2198 168.121 40.0608 167.543 39.7429C166.966 39.4184 166.521 39.0518 166.21 38.6429C165.898 38.2276 165.658 37.8837 165.49 37.6112H165.295V45.515H162.998ZM165.256 32.4328C165.256 33.5619 165.421 34.558 165.752 35.4211C166.083 36.2776 166.567 36.9493 167.203 37.436C167.839 37.9162 168.617 38.1562 169.539 38.1562C170.499 38.1562 171.301 37.9032 171.943 37.397C172.592 36.8844 173.079 36.1965 173.403 35.3335C173.734 34.4639 173.9 33.497 173.9 32.4328C173.9 31.3816 173.737 30.4341 173.413 29.5905C173.095 28.7405 172.611 28.0688 171.963 27.5757C171.32 27.076 170.512 26.8262 169.539 26.8262C168.604 26.8262 167.819 27.063 167.183 27.5367C166.547 28.0039 166.067 28.6594 165.743 29.5029C165.418 30.34 165.256 31.3167 165.256 32.4328ZM179.564 39.9083V24.9573H181.861V39.9083H179.564ZM180.732 22.4654C180.284 22.4654 179.898 22.3129 179.574 22.008C179.256 21.703 179.097 21.3363 179.097 20.908C179.097 20.4798 179.256 20.1131 179.574 19.8081C179.898 19.5031 180.284 19.3506 180.732 19.3506C181.18 19.3506 181.562 19.5031 181.88 19.8081C182.205 20.1131 182.367 20.4798 182.367 20.908C182.367 21.3363 182.205 21.703 181.88 22.008C181.562 22.3129 181.18 22.4654 180.732 22.4654ZM192.2 40.2198C190.759 40.2198 189.517 39.9018 188.472 39.2659C187.434 38.6235 186.632 37.728 186.068 36.5794C185.51 35.4243 185.23 34.0811 185.23 32.5496C185.23 31.0182 185.51 29.6684 186.068 28.5004C186.632 27.3258 187.417 26.4109 188.423 25.7554C189.435 25.0936 190.616 24.7626 191.966 24.7626C192.745 24.7626 193.514 24.8924 194.273 25.152C195.032 25.4115 195.723 25.8333 196.346 26.4173C196.969 26.9949 197.466 27.7606 197.836 28.7145C198.206 29.6684 198.391 30.843 198.391 32.2381V33.2115H186.866V31.2258H196.054C196.054 30.3822 195.886 29.6295 195.548 28.9676C195.217 28.3057 194.744 27.7833 194.127 27.4005C193.517 27.0176 192.797 26.8262 191.966 26.8262C191.051 26.8262 190.26 27.0533 189.591 27.5075C188.929 27.9553 188.42 28.5393 188.063 29.2596C187.706 29.9799 187.528 30.7521 187.528 31.5762V32.9C187.528 34.0291 187.722 34.9863 188.112 35.7715C188.508 36.5502 189.056 37.1439 189.757 37.5528C190.458 37.9551 191.272 38.1562 192.2 38.1562C192.803 38.1562 193.348 38.0719 193.835 37.9032C194.328 37.728 194.753 37.4684 195.11 37.1245C195.467 36.7741 195.743 36.3393 195.938 35.8201L198.157 36.4431C197.923 37.1959 197.531 37.8577 196.979 38.4288C196.428 38.9934 195.746 39.4346 194.935 39.7526C194.124 40.0641 193.212 40.2198 192.2 40.2198ZM207.393 40.2198C206.148 40.2198 205.048 39.9051 204.094 39.2756C203.14 38.6397 202.394 37.7442 201.855 36.5891C201.316 35.4276 201.047 34.0551 201.047 32.4717C201.047 30.9014 201.316 29.5386 201.855 28.3836C202.394 27.2285 203.143 26.3362 204.103 25.7068C205.064 25.0773 206.174 24.7626 207.432 24.7626C208.406 24.7626 209.175 24.9248 209.739 25.2493C210.31 25.5673 210.745 25.9307 211.044 26.3395C211.349 26.7418 211.585 27.0727 211.754 27.3323H211.949V19.9736H214.246V39.9083H212.027V37.6112H211.754C211.585 37.8837 211.345 38.2276 211.034 38.6429C210.722 39.0518 210.278 39.4184 209.7 39.7429C209.123 40.0608 208.354 40.2198 207.393 40.2198ZM207.705 38.1562C208.626 38.1562 209.405 37.9162 210.041 37.436C210.677 36.9493 211.16 36.2776 211.491 35.4211C211.822 34.558 211.988 33.5619 211.988 32.4328C211.988 31.3167 211.826 30.34 211.501 29.5029C211.177 28.6594 210.696 28.0039 210.061 27.5367C209.425 27.063 208.639 26.8262 207.705 26.8262C206.732 26.8262 205.92 27.076 205.272 27.5757C204.629 28.0688 204.146 28.7405 203.821 29.5905C203.503 30.4341 203.344 31.3816 203.344 32.4328C203.344 33.497 203.506 34.4639 203.831 35.3335C204.162 36.1965 204.649 36.8844 205.291 37.397C205.94 37.9032 206.745 38.1562 207.705 38.1562ZM226.207 39.9083V24.9573H228.504V39.9083H226.207ZM227.375 22.4654C226.928 22.4654 226.541 22.3129 226.217 22.008C225.899 21.703 225.74 21.3363 225.74 20.908C225.74 20.4798 225.899 20.1131 226.217 19.8081C226.541 19.5031 226.928 19.3506 227.375 19.3506C227.823 19.3506 228.206 19.5031 228.524 19.8081C228.848 20.1131 229.011 20.4798 229.011 20.908C229.011 21.3363 228.848 21.703 228.524 22.008C228.206 22.3129 227.823 22.4654 227.375 22.4654ZM239.077 24.9573V26.904H231.329V24.9573H239.077ZM233.587 21.3753H235.884V35.6255C235.884 36.2744 235.978 36.7611 236.167 37.0855C236.361 37.4035 236.608 37.6176 236.906 37.728C237.211 37.8318 237.533 37.8837 237.87 37.8837C238.123 37.8837 238.331 37.8707 238.493 37.8448C238.655 37.8123 238.785 37.7864 238.882 37.7669L239.349 39.8305C239.194 39.8889 238.976 39.9473 238.697 40.0057C238.418 40.0706 238.065 40.103 237.636 40.103C236.987 40.103 236.351 39.9635 235.729 39.6844C235.112 39.4054 234.599 38.9804 234.191 38.4093C233.788 37.8383 233.587 37.118 233.587 36.2484V21.3753ZM256.47 24.9573V26.904H248.722V24.9573H256.47ZM250.98 21.3753H253.277V35.6255C253.277 36.2744 253.371 36.7611 253.559 37.0855C253.754 37.4035 254 37.6176 254.299 37.728C254.604 37.8318 254.925 37.8837 255.263 37.8837C255.516 37.8837 255.723 37.8707 255.886 37.8448C256.048 37.8123 256.178 37.7864 256.275 37.7669L256.742 39.8305C256.586 39.8889 256.369 39.9473 256.09 40.0057C255.811 40.0706 255.457 40.103 255.029 40.103C254.38 40.103 253.744 39.9635 253.121 39.6844C252.505 39.4054 251.992 38.9804 251.583 38.4093C251.181 37.8383 250.98 37.118 250.98 36.2484V21.3753ZM265.701 40.2198C264.352 40.2198 263.167 39.8986 262.148 39.2562C261.136 38.6137 260.344 37.715 259.773 36.5599C259.209 35.4048 258.927 34.0551 258.927 32.5107C258.927 30.9533 259.209 29.5938 259.773 28.4322C260.344 27.2707 261.136 26.3687 262.148 25.7262C263.167 25.0838 264.352 24.7626 265.701 24.7626C267.051 24.7626 268.232 25.0838 269.244 25.7262C270.263 26.3687 271.055 27.2707 271.619 28.4322C272.19 29.5938 272.476 30.9533 272.476 32.5107C272.476 34.0551 272.19 35.4048 271.619 36.5599C271.055 37.715 270.263 38.6137 269.244 39.2562C268.232 39.8986 267.051 40.2198 265.701 40.2198ZM265.701 38.1562C266.727 38.1562 267.57 37.8934 268.232 37.3678C268.894 36.8422 269.384 36.1511 269.702 35.2945C270.02 34.438 270.179 33.51 270.179 32.5107C270.179 31.5113 270.02 30.5801 269.702 29.7171C269.384 28.854 268.894 28.1564 268.232 27.6243C267.57 27.0922 266.727 26.8262 265.701 26.8262C264.676 26.8262 263.832 27.0922 263.17 27.6243C262.509 28.1564 262.019 28.854 261.701 29.7171C261.383 30.5801 261.224 31.5113 261.224 32.5107C261.224 33.51 261.383 34.438 261.701 35.2945C262.019 36.1511 262.509 36.8422 263.17 37.3678C263.832 37.8934 264.676 38.1562 265.701 38.1562ZM47.538 49.9736V69.9083H45.2019L34.339 54.2565H34.1443V69.9083H31.7304V49.9736H34.0665L44.9683 65.6644H45.163V49.9736H47.538ZM57.9937 70.2198C56.644 70.2198 55.4597 69.8986 54.4409 69.2562C53.4286 68.6137 52.6369 67.715 52.0658 66.5599C51.5013 65.4048 51.219 64.0551 51.219 62.5107C51.219 60.9533 51.5013 59.5938 52.0658 58.4322C52.6369 57.2707 53.4286 56.3687 54.4409 55.7262C55.4597 55.0838 56.644 54.7626 57.9937 54.7626C59.3434 54.7626 60.5245 55.0838 61.5368 55.7262C62.5556 56.3687 63.3473 57.2707 63.9118 58.4322C64.4829 59.5938 64.7684 60.9533 64.7684 62.5107C64.7684 64.0551 64.4829 65.4048 63.9118 66.5599C63.3473 67.715 62.5556 68.6137 61.5368 69.2562C60.5245 69.8986 59.3434 70.2198 57.9937 70.2198ZM57.9937 68.1562C59.019 68.1562 59.8626 67.8934 60.5245 67.3678C61.1864 66.8422 61.6763 66.1511 61.9943 65.2945C62.3122 64.438 62.4712 63.51 62.4712 62.5107C62.4712 61.5113 62.3122 60.5801 61.9943 59.7171C61.6763 58.854 61.1864 58.1564 60.5245 57.6243C59.8626 57.0922 59.019 56.8262 57.9937 56.8262C56.9684 56.8262 56.1248 57.0922 55.4629 57.6243C54.801 58.1564 54.3111 58.854 53.9931 59.7171C53.6752 60.5801 53.5162 61.5113 53.5162 62.5107C53.5162 63.51 53.6752 64.438 53.9931 65.2945C54.3111 66.1511 54.801 66.8422 55.4629 67.3678C56.1248 67.8934 56.9684 68.1562 57.9937 68.1562ZM74.6401 54.9573V56.904H66.892V54.9573H74.6401ZM69.1502 51.3753H71.4474V65.6255C71.4474 66.2744 71.5415 66.7611 71.7297 67.0855C71.9244 67.4035 72.1709 67.6176 72.4694 67.728C72.7744 67.8318 73.0956 67.8837 73.4331 67.8837C73.6862 67.8837 73.8938 67.8707 74.056 67.8448C74.2183 67.8123 74.3481 67.7864 74.4454 67.7669L74.9126 69.8305C74.7569 69.8889 74.5395 69.9473 74.2605 70.0057C73.9814 70.0706 73.6278 70.103 73.1995 70.103C72.5506 70.103 71.9146 69.9635 71.2917 69.6844C70.6752 69.4054 70.1625 68.9804 69.7537 68.4093C69.3514 67.8383 69.1502 67.118 69.1502 66.2484V51.3753ZM77.9585 69.9083V54.9573H80.2557V69.9083H77.9585ZM79.1266 52.4654C78.6788 52.4654 78.2927 52.3129 77.9682 52.008C77.6503 51.703 77.4913 51.3363 77.4913 50.908C77.4913 50.4798 77.6503 50.1131 77.9682 49.8081C78.2927 49.5031 78.6788 49.3506 79.1266 49.3506C79.5743 49.3506 79.9572 49.5031 80.2751 49.8081C80.5996 50.1131 80.7618 50.4798 80.7618 50.908C80.7618 51.3363 80.5996 51.703 80.2751 52.008C79.9572 52.3129 79.5743 52.4654 79.1266 52.4654ZM90.3999 70.2198C89.0501 70.2198 87.8659 69.8986 86.8471 69.2562C85.8348 68.6137 85.0431 67.715 84.472 66.5599C83.9075 65.4048 83.6252 64.0551 83.6252 62.5107C83.6252 60.9533 83.9075 59.5938 84.472 58.4322C85.0431 57.2707 85.8348 56.3687 86.8471 55.7262C87.8659 55.0838 89.0501 54.7626 90.3999 54.7626C91.7496 54.7626 92.9307 55.0838 93.943 55.7262C94.9618 56.3687 95.7535 57.2707 96.318 58.4322C96.8891 59.5938 97.1746 60.9533 97.1746 62.5107C97.1746 64.0551 96.8891 65.4048 96.318 66.5599C95.7535 67.715 94.9618 68.6137 93.943 69.2562C92.9307 69.8986 91.7496 70.2198 90.3999 70.2198ZM90.3999 68.1562C91.4252 68.1562 92.2688 67.8934 92.9307 67.3678C93.5926 66.8422 94.0825 66.1511 94.4005 65.2945C94.7184 64.438 94.8774 63.51 94.8774 62.5107C94.8774 61.5113 94.7184 60.5801 94.4005 59.7171C94.0825 58.854 93.5926 58.1564 92.9307 57.6243C92.2688 57.0922 91.4252 56.8262 90.3999 56.8262C89.3746 56.8262 88.531 57.0922 87.8691 57.6243C87.2072 58.1564 86.7173 58.854 86.3993 59.7171C86.0813 60.5801 85.9224 61.5113 85.9224 62.5107C85.9224 63.51 86.0813 64.438 86.3993 65.2945C86.7173 66.1511 87.2072 66.8422 87.8691 67.3678C88.531 67.8934 89.3746 68.1562 90.3999 68.1562ZM102.841 60.9143V69.9083H100.544V54.9573H102.763V57.2934H102.958C103.309 56.5341 103.841 55.9242 104.554 55.4634C105.268 54.9962 106.19 54.7626 107.319 54.7626C108.331 54.7626 109.217 54.9703 109.976 55.3856C110.735 55.7944 111.326 56.4173 111.748 57.2544C112.169 58.0851 112.38 59.1363 112.38 60.4082V69.9083H110.083V60.5639C110.083 59.3894 109.778 58.4744 109.168 57.819C108.558 57.1571 107.721 56.8262 106.657 56.8262C105.924 56.8262 105.268 56.9851 104.691 57.3031C104.12 57.6211 103.669 58.0851 103.338 58.695C103.007 59.305 102.841 60.0448 102.841 60.9143ZM119.867 67.1829L119.712 68.2341C119.601 68.9739 119.432 69.7656 119.205 70.6092C118.985 71.4527 118.754 72.2477 118.514 72.9939C118.274 73.7402 118.076 74.3339 117.921 74.7752H116.168C116.253 74.3599 116.363 73.8116 116.499 73.1302C116.636 72.4488 116.772 71.6864 116.908 70.8428C117.051 70.0057 117.168 69.1491 117.259 68.2731L117.375 67.1829H119.867ZM131.87 69.9083V49.9736H134.167V57.3323H134.362C134.53 57.0727 134.764 56.7418 135.063 56.3395C135.368 55.9307 135.802 55.5673 136.367 55.2493C136.938 54.9248 137.71 54.7626 138.683 54.7626C139.942 54.7626 141.052 55.0773 142.012 55.7068C142.973 56.3362 143.722 57.2285 144.261 58.3836C144.8 59.5386 145.069 60.9014 145.069 62.4717C145.069 64.0551 144.8 65.4276 144.261 66.5891C143.722 67.7442 142.976 68.6397 142.022 69.2756C141.068 69.9051 139.968 70.2198 138.722 70.2198C137.762 70.2198 136.993 70.0608 136.416 69.7429C135.838 69.4184 135.393 69.0518 135.082 68.6429C134.771 68.2276 134.53 67.8837 134.362 67.6112H134.089V69.9083H131.87ZM134.128 62.4328C134.128 63.5619 134.294 64.558 134.625 65.4211C134.955 66.2776 135.439 66.9493 136.075 67.436C136.711 67.9162 137.489 68.1562 138.411 68.1562C139.371 68.1562 140.173 67.9032 140.815 67.397C141.464 66.8844 141.951 66.1965 142.275 65.3335C142.606 64.4639 142.772 63.497 142.772 62.4328C142.772 61.3816 142.609 60.4341 142.285 59.5905C141.967 58.7405 141.484 58.0688 140.835 57.5757C140.192 57.076 139.384 56.8262 138.411 56.8262C137.477 56.8262 136.691 57.063 136.055 57.5367C135.419 58.0039 134.939 58.6594 134.615 59.5029C134.29 60.34 134.128 61.3167 134.128 62.4328ZM157.868 63.7955V54.9573H160.165V69.9083H157.868V67.3775H157.712C157.362 68.1368 156.817 68.7825 156.077 69.3146C155.337 69.8402 154.403 70.103 153.274 70.103C152.339 70.103 151.509 69.8986 150.782 69.4898C150.055 69.0745 149.484 68.4515 149.069 67.6209C148.653 66.7838 148.446 65.7293 148.446 64.4574V54.9573H150.743V64.3017C150.743 65.3919 151.048 66.2614 151.658 66.9103C152.274 67.5592 153.059 67.8837 154.013 67.8837C154.584 67.8837 155.165 67.7377 155.756 67.4457C156.353 67.1537 156.852 66.7059 157.255 66.1024C157.664 65.4989 157.868 64.73 157.868 63.7955ZM170.738 54.9573V56.904H162.99V54.9573H170.738ZM165.248 51.3753H167.545V65.6255C167.545 66.2744 167.639 66.7611 167.827 67.0855C168.022 67.4035 168.268 67.6176 168.567 67.728C168.872 67.8318 169.193 67.8837 169.531 67.8837C169.784 67.8837 169.991 67.8707 170.154 67.8448C170.316 67.8123 170.446 67.7864 170.543 67.7669L171.01 69.8305C170.854 69.8889 170.637 69.9473 170.358 70.0057C170.079 70.0706 169.725 70.103 169.297 70.103C168.648 70.103 168.012 69.9635 167.389 69.6844C166.773 69.4054 166.26 68.9804 165.851 68.4093C165.449 67.8383 165.248 67.118 165.248 66.2484V51.3753ZM181.628 69.9083V54.9573H183.847V57.2934H184.042C184.354 56.4952 184.856 55.8755 185.551 55.4342C186.245 54.9865 187.079 54.7626 188.052 54.7626C189.039 54.7626 189.86 54.9865 190.515 55.4342C191.177 55.8755 191.693 56.4952 192.063 57.2934H192.218C192.601 56.5212 193.176 55.9079 193.941 55.4537C194.707 54.993 195.625 54.7626 196.696 54.7626C198.033 54.7626 199.126 55.1812 199.976 56.0183C200.826 56.8489 201.251 58.1435 201.251 59.902V69.9083H198.954V59.902C198.954 58.7989 198.652 58.0104 198.049 57.5367C197.445 57.063 196.735 56.8262 195.917 56.8262C194.866 56.8262 194.052 57.1441 193.474 57.7801C192.897 58.4095 192.608 59.2077 192.608 60.1746V69.9083H190.272V59.6684C190.272 58.8183 189.996 58.1337 189.444 57.6146C188.893 57.089 188.182 56.8262 187.313 56.8262C186.716 56.8262 186.158 56.9851 185.638 57.3031C185.126 57.6211 184.71 58.0623 184.393 58.6269C184.081 59.185 183.925 59.8306 183.925 60.5639V69.9083H181.628ZM206.259 75.515C205.869 75.515 205.522 75.4825 205.217 75.4176C204.912 75.3592 204.701 75.3008 204.584 75.2424L205.168 73.2178C205.726 73.3606 206.22 73.4125 206.648 73.3735C207.076 73.3346 207.456 73.1432 207.787 72.7992C208.124 72.4618 208.432 71.9135 208.712 71.1542L209.14 69.9862L203.611 54.9573H206.103L210.23 66.8714H210.386L214.513 54.9573H217.005L210.658 72.0887C210.373 72.8609 210.019 73.5001 209.597 74.0062C209.175 74.5189 208.686 74.8985 208.127 75.1451C207.576 75.3917 206.953 75.515 206.259 75.515ZM34.8062 99.9083L30.2508 84.9573H32.6648L35.8964 96.4042H36.0522L39.2448 84.9573H41.6977L44.8515 96.3652H45.0072L48.2388 84.9573H50.6528L46.0974 99.9083H43.8392L40.5686 88.4225H40.335L37.0645 99.9083H34.8062ZM59.1179 100.22C57.7682 100.22 56.5839 99.8986 55.5651 99.2562C54.5528 98.6137 53.7611 97.715 53.1901 96.5599C52.6255 95.4048 52.3433 94.0551 52.3433 92.5107C52.3433 90.9533 52.6255 89.5938 53.1901 88.4322C53.7611 87.2707 54.5528 86.3687 55.5651 85.7262C56.5839 85.0838 57.7682 84.7626 59.1179 84.7626C60.4677 84.7626 61.6487 85.0838 62.661 85.7262C63.6798 86.3687 64.4715 87.2707 65.0361 88.4322C65.6071 89.5938 65.8926 90.9533 65.8926 92.5107C65.8926 94.0551 65.6071 95.4048 65.0361 96.5599C64.4715 97.715 63.6798 98.6137 62.661 99.2562C61.6487 99.8986 60.4677 100.22 59.1179 100.22ZM59.1179 98.1562C60.1432 98.1562 60.9868 97.8934 61.6487 97.3678C62.3106 96.8422 62.8005 96.1511 63.1185 95.2945C63.4365 94.438 63.5955 93.51 63.5955 92.5107C63.5955 91.5113 63.4365 90.5801 63.1185 89.7171C62.8005 88.854 62.3106 88.1564 61.6487 87.6243C60.9868 87.0922 60.1432 86.8262 59.1179 86.8262C58.0927 86.8262 57.2491 87.0922 56.5872 87.6243C55.9253 88.1564 55.4353 88.854 55.1174 89.7171C54.7994 90.5801 54.6404 91.5113 54.6404 92.5107C54.6404 93.51 54.7994 94.438 55.1174 95.2945C55.4353 96.1511 55.9253 96.8422 56.5872 97.3678C57.2491 97.8934 58.0927 98.1562 59.1179 98.1562ZM69.2622 99.9083V84.9573H71.4815V87.2155H71.6372C71.9098 86.4757 72.4029 85.8755 73.1167 85.4148C73.8305 84.954 74.6352 84.7237 75.5307 84.7237C75.6994 84.7237 75.9103 84.7269 76.1634 84.7334C76.4165 84.7399 76.6079 84.7496 76.7377 84.7626V87.0987C76.6598 87.0792 76.4814 87.05 76.2023 87.0111C75.9298 86.9657 75.641 86.943 75.336 86.943C74.6092 86.943 73.9603 87.0955 73.3893 87.4005C72.8247 87.699 72.377 88.1143 72.046 88.6464C71.7216 89.172 71.5593 89.7722 71.5593 90.4471V99.9083H69.2622ZM81.4651 94.4574L81.4261 91.6152H81.8934L88.4345 84.9573H91.2767L84.3073 92.0045H84.1127L81.4651 94.4574ZM79.3237 99.9083V79.9736H81.6208V99.9083H79.3237ZM88.8238 99.9083L82.9836 92.5107L84.6188 90.9143L91.7439 99.9083H88.8238ZM104.687 88.3057L102.623 88.8897C102.493 88.5458 102.302 88.2116 102.049 87.8871C101.802 87.5562 101.465 87.2836 101.036 87.0695C100.608 86.8554 100.06 86.7483 99.3914 86.7483C98.4765 86.7483 97.714 86.9592 97.104 87.381C96.5005 87.7963 96.1988 88.3252 96.1988 88.9676C96.1988 89.5386 96.4064 89.9896 96.8217 90.3206C97.237 90.6515 97.886 90.9273 98.7685 91.1479L100.988 91.693C102.325 92.0175 103.321 92.5139 103.976 93.1823C104.631 93.8442 104.959 94.6975 104.959 95.7423C104.959 96.5988 104.713 97.3646 104.219 98.0394C103.733 98.7143 103.051 99.2464 102.175 99.6358C101.299 100.025 100.28 100.22 99.1189 100.22C97.5939 100.22 96.3318 99.8889 95.3325 99.227C94.3331 98.5651 93.7004 97.5982 93.4344 96.3263L95.6147 95.7812C95.8224 96.5859 96.215 97.1894 96.7925 97.5917C97.3766 97.994 98.139 98.1952 99.08 98.1952C100.151 98.1952 101.001 97.9681 101.63 97.5138C102.266 97.0531 102.584 96.5015 102.584 95.8591C102.584 95.34 102.402 94.9052 102.039 94.5548C101.676 94.1979 101.118 93.9318 100.365 93.7566L97.873 93.1726C96.5038 92.8481 95.4979 92.3452 94.8555 91.6638C94.2196 90.976 93.9016 90.1162 93.9016 89.0844C93.9016 88.2408 94.1385 87.4945 94.6122 86.8456C95.0924 86.1967 95.7445 85.6873 96.5687 85.3174C97.3993 84.9475 98.3402 84.7626 99.3914 84.7626C100.871 84.7626 102.033 85.0871 102.876 85.736C103.726 86.3849 104.33 87.2415 104.687 88.3057ZM108.28 105.515V84.9573H110.499V87.3323H110.772C110.941 87.0727 111.174 86.7418 111.473 86.3395C111.778 85.9307 112.212 85.5673 112.777 85.2493C113.348 84.9248 114.12 84.7626 115.094 84.7626C116.353 84.7626 117.462 85.0773 118.423 85.7068C119.383 86.3362 120.132 87.2285 120.671 88.3836C121.21 89.5386 121.479 90.9014 121.479 92.4717C121.479 94.0551 121.21 95.4276 120.671 96.5891C120.132 97.7442 119.386 98.6397 118.432 99.2756C117.478 99.9051 116.379 100.22 115.133 100.22C114.172 100.22 113.403 100.061 112.826 99.7429C112.248 99.4184 111.804 99.0518 111.492 98.6429C111.181 98.2276 110.941 97.8837 110.772 97.6112H110.577V105.515H108.28ZM110.538 92.4328C110.538 93.5619 110.704 94.558 111.035 95.4211C111.366 96.2776 111.849 96.9493 112.485 97.436C113.121 97.9162 113.9 98.1562 114.821 98.1562C115.781 98.1562 116.583 97.9032 117.225 97.397C117.874 96.8844 118.361 96.1965 118.685 95.3335C119.016 94.4639 119.182 93.497 119.182 92.4328C119.182 91.3816 119.02 90.4341 118.695 89.5905C118.377 88.7405 117.894 88.0688 117.245 87.5757C116.602 87.076 115.794 86.8262 114.821 86.8262C113.887 86.8262 113.101 87.063 112.466 87.5367C111.83 88.0039 111.349 88.6594 111.025 89.5029C110.7 90.34 110.538 91.3167 110.538 92.4328ZM129.246 100.259C128.298 100.259 127.439 100.08 126.666 99.7234C125.894 99.36 125.281 98.8376 124.827 98.1562C124.372 97.4684 124.145 96.6378 124.145 95.6644C124.145 94.8078 124.314 94.1135 124.651 93.5814C124.989 93.0428 125.44 92.621 126.004 92.316C126.569 92.011 127.192 91.7839 127.873 91.6346C128.561 91.4789 129.252 91.3556 129.947 91.2648C130.855 91.1479 131.592 91.0603 132.156 91.0019C132.727 90.937 133.142 90.83 133.402 90.6807C133.668 90.5315 133.801 90.2719 133.801 89.902V89.8242C133.801 88.8638 133.538 88.1175 133.013 87.5854C132.494 87.0533 131.705 86.7872 130.647 86.7872C129.551 86.7872 128.691 87.0273 128.068 87.5075C127.445 87.9877 127.007 88.5004 126.754 89.0455L124.574 88.2668C124.963 87.3583 125.482 86.651 126.131 86.1448C126.786 85.6322 127.5 85.2752 128.272 85.0741C129.051 84.8664 129.817 84.7626 130.57 84.7626C131.05 84.7626 131.601 84.821 132.224 84.9378C132.854 85.0481 133.46 85.2785 134.044 85.6289C134.635 85.9793 135.125 86.5082 135.514 87.2155C135.904 87.9228 136.098 88.8702 136.098 90.0578V99.9083H133.801V97.8837H133.684C133.529 98.2082 133.269 98.5553 132.906 98.9252C132.542 99.2951 132.059 99.6098 131.455 99.8694C130.852 100.129 130.115 100.259 129.246 100.259ZM129.596 98.1952C130.505 98.1952 131.27 98.0167 131.893 97.6598C132.523 97.3029 132.996 96.8422 133.314 96.2776C133.639 95.7131 133.801 95.1193 133.801 94.4964V92.3939C133.704 92.5107 133.49 92.6177 133.159 92.7151C132.834 92.8059 132.458 92.887 132.03 92.9584C131.608 93.0233 131.196 93.0817 130.793 93.1336C130.398 93.1791 130.076 93.218 129.83 93.2504C129.233 93.3283 128.675 93.4548 128.156 93.6301C127.643 93.7988 127.228 94.0551 126.91 94.399C126.598 94.7365 126.442 95.1972 126.442 95.7812C126.442 96.5794 126.738 97.1829 127.328 97.5917C127.925 97.994 128.681 98.1952 129.596 98.1952ZM146.228 100.22C144.826 100.22 143.619 99.8889 142.607 99.227C141.595 98.5651 140.816 97.6533 140.271 96.4918C139.726 95.3302 139.453 94.0032 139.453 92.5107C139.453 90.9922 139.732 89.6522 140.29 88.4906C140.855 87.3226 141.64 86.4109 142.646 85.7554C143.658 85.0936 144.839 84.7626 146.189 84.7626C147.24 84.7626 148.188 84.9573 149.031 85.3466C149.875 85.736 150.566 86.2811 151.105 86.9819C151.643 87.6827 151.977 88.5004 152.107 89.4348H149.81C149.635 88.7534 149.245 88.15 148.642 87.6243C148.045 87.0922 147.24 86.8262 146.228 86.8262C145.332 86.8262 144.547 87.0598 143.872 87.527C143.204 87.9877 142.682 88.6399 142.305 89.4835C141.935 90.3206 141.75 91.3037 141.75 92.4328C141.75 93.5879 141.932 94.5937 142.295 95.4503C142.665 96.3068 143.185 96.972 143.853 97.4457C144.528 97.9194 145.319 98.1562 146.228 98.1562C146.825 98.1562 147.367 98.0524 147.853 97.8448C148.34 97.6371 148.752 97.3386 149.09 96.9493C149.427 96.5599 149.667 96.0927 149.81 95.5476H152.107C151.977 96.4301 151.656 97.2251 151.143 97.9324C150.637 98.6332 149.966 99.1913 149.129 99.6066C148.298 100.015 147.331 100.22 146.228 100.22ZM161.597 100.22C160.156 100.22 158.913 99.9018 157.869 99.2659C156.83 98.6235 156.029 97.728 155.464 96.5794C154.906 95.4243 154.627 94.0811 154.627 92.5496C154.627 91.0182 154.906 89.6684 155.464 88.5004C156.029 87.3258 156.814 86.4109 157.82 85.7554C158.832 85.0936 160.013 84.7626 161.363 84.7626C162.142 84.7626 162.911 84.8924 163.67 85.152C164.429 85.4115 165.12 85.8333 165.743 86.4173C166.366 86.9949 166.863 87.7606 167.233 88.7145C167.602 89.6684 167.787 90.843 167.787 92.2381V93.2115H156.263V91.2258H165.451C165.451 90.3822 165.283 89.6295 164.945 88.9676C164.614 88.3057 164.14 87.7833 163.524 87.4005C162.914 87.0176 162.194 86.8262 161.363 86.8262C160.448 86.8262 159.656 87.0533 158.988 87.5075C158.326 87.9553 157.817 88.5393 157.46 89.2596C157.103 89.9799 156.925 90.7521 156.925 91.5762V92.9C156.925 94.0291 157.119 94.9863 157.509 95.7715C157.904 96.5502 158.453 97.1439 159.154 97.5528C159.854 97.9551 160.669 98.1562 161.597 98.1562C162.2 98.1562 162.745 98.0719 163.232 97.9032C163.725 97.728 164.15 97.4684 164.507 97.1245C164.864 96.7741 165.14 96.3393 165.335 95.8201L167.554 96.4431C167.32 97.1959 166.928 97.8577 166.376 98.4288C165.824 98.9934 165.143 99.4346 164.332 99.7526C163.521 100.064 162.609 100.22 161.597 100.22ZM178.717 99.9083V84.9573H181.014V99.9083H178.717ZM179.885 82.4654C179.437 82.4654 179.051 82.3129 178.727 82.008C178.409 81.703 178.25 81.3363 178.25 80.908C178.25 80.4798 178.409 80.1131 178.727 79.8081C179.051 79.5031 179.437 79.3506 179.885 79.3506C180.333 79.3506 180.716 79.5031 181.033 79.8081C181.358 80.1131 181.52 80.4798 181.52 80.908C181.52 81.3363 181.358 81.703 181.033 82.008C180.716 82.3129 180.333 82.4654 179.885 82.4654ZM195.675 88.3057L193.611 88.8897C193.481 88.5458 193.29 88.2116 193.037 87.8871C192.79 87.5562 192.453 87.2836 192.025 87.0695C191.596 86.8554 191.048 86.7483 190.38 86.7483C189.465 86.7483 188.702 86.9592 188.092 87.381C187.489 87.7963 187.187 88.3252 187.187 88.9676C187.187 89.5386 187.395 89.9896 187.81 90.3206C188.225 90.6515 188.874 90.9273 189.757 91.1479L191.976 91.693C193.313 92.0175 194.309 92.5139 194.964 93.1823C195.62 93.8442 195.947 94.6975 195.947 95.7423C195.947 96.5988 195.701 97.3646 195.207 98.0394C194.721 98.7143 194.039 99.2464 193.163 99.6358C192.287 100.025 191.269 100.22 190.107 100.22C188.582 100.22 187.32 99.8889 186.321 99.227C185.321 98.5651 184.689 97.5982 184.422 96.3263L186.603 95.7812C186.811 96.5859 187.203 97.1894 187.781 97.5917C188.365 97.994 189.127 98.1952 190.068 98.1952C191.139 98.1952 191.989 97.9681 192.618 97.5138C193.254 97.0531 193.572 96.5015 193.572 95.8591C193.572 95.34 193.391 94.9052 193.027 94.5548C192.664 94.1979 192.106 93.9318 191.353 93.7566L188.861 93.1726C187.492 92.8481 186.486 92.3452 185.844 91.6638C185.208 90.976 184.89 90.1162 184.89 89.0844C184.89 88.2408 185.127 87.4945 185.6 86.8456C186.08 86.1967 186.733 85.6873 187.557 85.3174C188.387 84.9475 189.328 84.7626 190.38 84.7626C191.859 84.7626 193.021 85.0871 193.864 85.736C194.714 86.3849 195.318 87.2415 195.675 88.3057ZM212.914 100.22C211.512 100.22 210.305 99.8889 209.293 99.227C208.281 98.5651 207.502 97.6533 206.957 96.4918C206.412 95.3302 206.139 94.0032 206.139 92.5107C206.139 90.9922 206.418 89.6522 206.976 88.4906C207.541 87.3226 208.326 86.4109 209.332 85.7554C210.344 85.0936 211.525 84.7626 212.875 84.7626C213.926 84.7626 214.874 84.9573 215.717 85.3466C216.561 85.736 217.252 86.2811 217.791 86.9819C218.329 87.6827 218.663 88.5004 218.793 89.4348H216.496C216.321 88.7534 215.932 88.15 215.328 87.6243C214.731 87.0922 213.926 86.8262 212.914 86.8262C212.019 86.8262 211.233 87.0598 210.559 87.527C209.89 87.9877 209.368 88.6399 208.991 89.4835C208.621 90.3206 208.437 91.3037 208.437 92.4328C208.437 93.5879 208.618 94.5937 208.982 95.4503C209.352 96.3068 209.871 96.972 210.539 97.4457C211.214 97.9194 212.006 98.1562 212.914 98.1562C213.511 98.1562 214.053 98.0524 214.54 97.8448C215.026 97.6371 215.438 97.3386 215.776 96.9493C216.113 96.5599 216.353 96.0927 216.496 95.5476H218.793C218.663 96.4301 218.342 97.2251 217.83 97.9324C217.323 98.6332 216.652 99.1913 215.815 99.6066C214.984 100.015 214.017 100.22 212.914 100.22ZM224.312 90.9143V99.9083H222.014V79.9736H224.312V87.2934H224.506C224.857 86.5212 225.382 85.9079 226.083 85.4537C226.79 84.993 227.731 84.7626 228.906 84.7626C229.925 84.7626 230.817 84.967 231.583 85.3758C232.348 85.7782 232.942 86.3979 233.364 87.235C233.792 88.0656 234.006 89.1233 234.006 90.4082V99.9083H231.709V90.5639C231.709 89.3764 231.401 88.4582 230.784 87.8093C230.174 87.1539 229.328 86.8262 228.244 86.8262C227.491 86.8262 226.816 86.9851 226.219 87.3031C225.629 87.6211 225.162 88.0851 224.818 88.695C224.48 89.305 224.312 90.0448 224.312 90.9143ZM242.471 100.259C241.524 100.259 240.664 100.08 239.892 99.7234C239.12 99.36 238.507 98.8376 238.052 98.1562C237.598 97.4684 237.371 96.6378 237.371 95.6644C237.371 94.8078 237.54 94.1135 237.877 93.5814C238.215 93.0428 238.666 92.621 239.23 92.316C239.795 92.011 240.418 91.7839 241.099 91.6346C241.787 91.4789 242.478 91.3556 243.172 91.2648C244.081 91.1479 244.817 91.0603 245.382 91.0019C245.953 90.937 246.368 90.83 246.628 90.6807C246.894 90.5315 247.027 90.2719 247.027 89.902V89.8242C247.027 88.8638 246.764 88.1175 246.238 87.5854C245.719 87.0533 244.931 86.7872 243.873 86.7872C242.776 86.7872 241.917 87.0273 241.294 87.5075C240.671 87.9877 240.233 88.5004 239.98 89.0455L237.799 88.2668C238.189 87.3583 238.708 86.651 239.357 86.1448C240.012 85.6322 240.726 85.2752 241.498 85.0741C242.277 84.8664 243.043 84.7626 243.795 84.7626C244.275 84.7626 244.827 84.821 245.45 84.9378C246.079 85.0481 246.686 85.2785 247.27 85.6289C247.861 85.9793 248.351 86.5082 248.74 87.2155C249.129 87.9228 249.324 88.8702 249.324 90.0578V99.9083H247.027V97.8837H246.91C246.754 98.2082 246.495 98.5553 246.131 98.9252C245.768 99.2951 245.285 99.6098 244.681 99.8694C244.078 100.129 243.341 100.259 242.471 100.259ZM242.822 98.1952C243.73 98.1952 244.496 98.0167 245.119 97.6598C245.749 97.3029 246.222 96.8422 246.54 96.2776C246.865 95.7131 247.027 95.1193 247.027 94.4964V92.3939C246.93 92.5107 246.715 92.6177 246.384 92.7151C246.06 92.8059 245.684 92.887 245.255 92.9584C244.834 93.0233 244.421 93.0817 244.019 93.1336C243.623 93.1791 243.302 93.218 243.056 93.2504C242.458 93.3283 241.9 93.4548 241.381 93.6301C240.869 93.7988 240.453 94.0551 240.135 94.399C239.824 94.7365 239.668 95.1972 239.668 95.7812C239.668 96.5794 239.963 97.1829 240.554 97.5917C241.151 97.994 241.907 98.1952 242.822 98.1952ZM259.454 100.22C258.104 100.22 256.92 99.8986 255.901 99.2562C254.889 98.6137 254.097 97.715 253.526 96.5599C252.961 95.4048 252.679 94.0551 252.679 92.5107C252.679 90.9533 252.961 89.5938 253.526 88.4322C254.097 87.2707 254.889 86.3687 255.901 85.7262C256.92 85.0838 258.104 84.7626 259.454 84.7626C260.803 84.7626 261.984 85.0838 262.997 85.7262C264.016 86.3687 264.807 87.2707 265.372 88.4322C265.943 89.5938 266.228 90.9533 266.228 92.5107C266.228 94.0551 265.943 95.4048 265.372 96.5599C264.807 97.715 264.016 98.6137 262.997 99.2562C261.984 99.8986 260.803 100.22 259.454 100.22ZM259.454 98.1562C260.479 98.1562 261.323 97.8934 261.984 97.3678C262.646 96.8422 263.136 96.1511 263.454 95.2945C263.772 94.438 263.931 93.51 263.931 92.5107C263.931 91.5113 263.772 90.5801 263.454 89.7171C263.136 88.854 262.646 88.1564 261.984 87.6243C261.323 87.0922 260.479 86.8262 259.454 86.8262C258.428 86.8262 257.585 87.0922 256.923 87.6243C256.261 88.1564 255.771 88.854 255.453 89.7171C255.135 90.5801 254.976 91.5113 254.976 92.5107C254.976 93.51 255.135 94.438 255.453 95.2945C255.771 96.1511 256.261 96.8422 256.923 97.3678C257.585 97.8934 258.428 98.1562 259.454 98.1562ZM280.188 88.3057L278.125 88.8897C277.995 88.5458 277.803 88.2116 277.55 87.8871C277.304 87.5562 276.966 87.2836 276.538 87.0695C276.11 86.8554 275.561 86.7483 274.893 86.7483C273.978 86.7483 273.216 86.9592 272.606 87.381C272.002 87.7963 271.7 88.3252 271.7 88.9676C271.7 89.5386 271.908 89.9896 272.323 90.3206C272.739 90.6515 273.388 90.9273 274.27 91.1479L276.489 91.693C277.826 92.0175 278.822 92.5139 279.478 93.1823C280.133 93.8442 280.461 94.6975 280.461 95.7423C280.461 96.5988 280.214 97.3646 279.721 98.0394C279.234 98.7143 278.553 99.2464 277.677 99.6358C276.801 100.025 275.782 100.22 274.621 100.22C273.096 100.22 271.833 99.8889 270.834 99.227C269.835 98.5651 269.202 97.5982 268.936 96.3263L271.116 95.7812C271.324 96.5859 271.717 97.1894 272.294 97.5917C272.878 97.994 273.641 98.1952 274.582 98.1952C275.652 98.1952 276.502 97.9681 277.132 97.5138C277.768 97.0531 278.086 96.5015 278.086 95.8591C278.086 95.34 277.904 94.9052 277.541 94.5548C277.177 94.1979 276.619 93.9318 275.866 93.7566L273.375 93.1726C272.005 92.8481 271 92.3452 270.357 91.6638C269.721 90.976 269.403 90.1162 269.403 89.0844C269.403 88.2408 269.64 87.4945 270.114 86.8456C270.594 86.1967 271.246 85.6873 272.07 85.3174C272.901 84.9475 273.842 84.7626 274.893 84.7626C276.373 84.7626 277.534 85.0871 278.378 85.736C279.228 86.3849 279.831 87.2415 280.188 88.3057Z" fill="white"/>
<path d="M339.847 20.0556C339.847 9.20175 331.048 0.402954 320.194 0.402954V28.8475H339.847V20.0556Z" fill="#278EFF" stroke="#278EFF" stroke-width="0.805851"/>
<rect width="19.6526" height="62.1214" transform="matrix(-1 0 0 1 339.847 28.8475)" fill="#278EFF" stroke="#278EFF" stroke-width="0.805851"/>
<path d="M339.847 99.7609C339.847 110.615 331.048 119.414 320.194 119.414V90.969H339.847V99.7609Z" fill="#278EFF" stroke="#278EFF" stroke-width="0.805851"/>
</svg>
