<svg width="341" height="120" viewBox="0 0 341 120" fill="none" xmlns="http://www.w3.org/2000/svg">
<path d="M0.402832 20.0556C0.402832 9.20175 9.20161 0.402954 20.0555 0.402954V28.8475H0.402832V20.0556Z" fill="#278EFF" stroke="#278EFF" stroke-width="0.805851"/>
<rect x="0.402832" y="28.8475" width="19.6526" height="62.1214" fill="#278EFF" stroke="#278EFF" stroke-width="0.805851"/>
<path d="M0.402832 99.7609C0.402832 110.615 9.20161 119.414 20.0555 119.414V90.969H0.402832V99.7609Z" fill="#278EFF" stroke="#278EFF" stroke-width="0.805851"/>
<rect x="20.0557" y="0.402954" width="290.877" height="119.011" fill="#278EFF"/>
<rect x="20.0557" y="0.402954" width="290.877" height="119.011" stroke="#278EFF" stroke-width="0.805851"/>
<path d="M33.3714 24.9572C33.2546 23.9708 32.7809 23.2051 31.9503 22.66C31.1197 22.1149 30.1009 21.8424 28.8939 21.8424C28.0114 21.8424 27.2392 21.9851 26.5773 22.2706C25.9219 22.5562 25.4092 22.9488 25.0393 23.4484C24.676 23.9481 24.4943 24.5159 24.4943 25.1518C24.4943 25.6839 24.6208 26.1414 24.8739 26.5243C25.1334 26.9007 25.4644 27.2154 25.8667 27.4685C26.269 27.7151 26.6908 27.9195 27.1321 28.0817C27.5734 28.2374 27.9789 28.364 28.3488 28.4613L30.3734 29.0064C30.8926 29.1427 31.4701 29.3309 32.1061 29.571C32.7485 29.8111 33.3617 30.1388 33.9457 30.5541C34.5362 30.9629 35.0229 31.4885 35.4058 32.1309C35.7887 32.7734 35.9801 33.5618 35.9801 34.4962C35.9801 35.5734 35.6978 36.5468 35.1332 37.4164C34.5752 38.2859 33.7575 38.977 32.6803 39.4897C31.6096 40.0023 30.3086 40.2586 28.7771 40.2586C27.3495 40.2586 26.1133 40.0283 25.0685 39.5675C24.0303 39.1068 23.2126 38.4644 22.6156 37.6402C22.0251 36.8161 21.6909 35.859 21.6131 34.7688H24.1049C24.1698 35.5215 24.4229 36.1445 24.8641 36.6377C25.3119 37.1243 25.8764 37.4877 26.5578 37.7278C27.2457 37.9615 27.9854 38.0783 28.7771 38.0783C29.6986 38.0783 30.5259 37.929 31.2592 37.6305C31.9925 37.3255 32.5733 36.9037 33.0016 36.3651C33.4298 35.82 33.644 35.1841 33.644 34.4573C33.644 33.7954 33.459 33.2568 33.0892 32.8415C32.7193 32.4262 32.2326 32.0888 31.6291 31.8292C31.0256 31.5696 30.3734 31.3425 29.6726 31.1478L27.2197 30.447C25.6623 29.9992 24.4294 29.3601 23.5209 28.5294C22.6124 27.6988 22.1582 26.6119 22.1582 25.2686C22.1582 24.1525 22.4599 23.1791 23.0634 22.3485C23.6734 21.5114 24.491 20.8625 25.5163 20.4018C26.5481 19.9345 27.6999 19.7009 28.9718 19.7009C30.2566 19.7009 31.3987 19.9313 32.3981 20.392C33.3974 20.8463 34.1891 21.4692 34.7731 22.2609C35.3636 23.0526 35.6751 23.9513 35.7075 24.9572H33.3714ZM45.769 40.2197C44.3284 40.2197 43.0858 39.9017 42.041 39.2658C41.0027 38.6233 40.2013 37.7278 39.6368 36.5793C39.0787 35.4242 38.7997 34.0809 38.7997 32.5495C38.7997 31.018 39.0787 29.6683 39.6368 28.5002C40.2013 27.3257 40.9865 26.4107 41.9923 25.7553C43.0046 25.0934 44.1857 24.7625 45.5354 24.7625C46.3141 24.7625 47.0831 24.8923 47.8423 25.1518C48.6016 25.4114 49.2926 25.8332 49.9156 26.4172C50.5386 26.9948 51.035 27.7605 51.4049 28.7144C51.7748 29.6683 51.9597 30.8428 51.9597 32.238V33.2114H40.4349V31.2257H49.6236C49.6236 30.3821 49.4549 29.6294 49.1174 28.9675C48.7865 28.3056 48.3128 27.7832 47.6963 27.4003C47.0863 27.0175 46.366 26.826 45.5354 26.826C44.6204 26.826 43.8288 27.0532 43.1604 27.5074C42.4985 27.9552 41.9891 28.5392 41.6322 29.2595C41.2753 29.9798 41.0968 30.752 41.0968 31.5761V32.8999C41.0968 34.029 41.2915 34.9862 41.6809 35.7714C42.0767 36.5501 42.625 37.1438 43.3259 37.5526C44.0267 37.955 44.8411 38.1561 45.769 38.1561C46.3725 38.1561 46.9176 38.0718 47.4043 37.903C47.8975 37.7278 48.3225 37.4683 48.6794 37.1243C49.0363 36.7739 49.3121 36.3392 49.5068 35.82L51.7261 36.443C51.4925 37.1957 51.0999 37.8576 50.5483 38.4287C49.9967 38.9932 49.3154 39.4345 48.5042 39.7525C47.6931 40.0639 46.7813 40.2197 45.769 40.2197ZM57.6142 30.9142V39.9082H55.3171V24.9572H57.5364V27.2933H57.731C58.0814 26.534 58.6136 25.924 59.3274 25.4633C60.0412 24.9961 60.9626 24.7625 62.0918 24.7625C63.1041 24.7625 63.9898 24.9701 64.7491 25.3854C65.5083 25.7943 66.0988 26.4172 66.5206 27.2543C66.9424 28.0849 67.1533 29.1362 67.1533 30.4081V39.9082H64.8561V30.5638C64.8561 29.3893 64.5511 28.4743 63.9412 27.8189C63.3312 27.157 62.4941 26.826 61.4299 26.826C60.6966 26.826 60.0412 26.985 59.4636 27.303C58.8926 27.621 58.4416 28.0849 58.1106 28.6949C57.7797 29.3049 57.6142 30.0447 57.6142 30.9142ZM77.7161 24.9572V26.9039H69.968V24.9572H77.7161ZM72.2262 21.3751H74.5234V35.6254C74.5234 36.2743 74.6175 36.761 74.8057 37.0854C75.0004 37.4034 75.247 37.6175 75.5455 37.7278C75.8504 37.8317 76.1717 37.8836 76.5091 37.8836C76.7622 37.8836 76.9698 37.8706 77.1321 37.8446C77.2943 37.8122 77.4241 37.7862 77.5214 37.7668L77.9886 39.8303C77.8329 39.8887 77.6155 39.9471 77.3365 40.0055C77.0574 40.0704 76.7038 40.1029 76.2755 40.1029C75.6266 40.1029 74.9906 39.9634 74.3677 39.6843C73.7512 39.4053 73.2386 38.9803 72.8297 38.4092C72.4274 37.8382 72.2262 37.1179 72.2262 36.2483V21.3751ZM90.0861 45.5148C89.6968 45.5148 89.3496 45.4824 89.0446 45.4175C88.7396 45.3591 88.5287 45.3007 88.4119 45.2423L88.9959 43.2177C89.554 43.3604 90.0472 43.4124 90.4755 43.3734C90.9038 43.3345 91.2834 43.1431 91.6143 42.7991C91.9518 42.4617 92.26 41.9134 92.539 41.1541L92.9673 39.9861L87.4385 24.9572H89.9304L94.0575 36.8713H94.2132L98.3403 24.9572H100.832L94.4858 42.0886C94.2003 42.8608 93.8466 43.5 93.4248 44.0061C93.003 44.5188 92.5131 44.8984 91.955 45.145C91.4034 45.3916 90.7805 45.5148 90.0861 45.5148ZM109.266 40.2197C107.916 40.2197 106.732 39.8985 105.713 39.256C104.701 38.6136 103.909 37.7149 103.338 36.5598C102.773 35.4047 102.491 34.055 102.491 32.5106C102.491 30.9532 102.773 29.5937 103.338 28.4321C103.909 27.2705 104.701 26.3686 105.713 25.7261C106.732 25.0837 107.916 24.7625 109.266 24.7625C110.615 24.7625 111.796 25.0837 112.809 25.7261C113.828 26.3686 114.619 27.2705 115.184 28.4321C115.755 29.5937 116.04 30.9532 116.04 32.5106C116.04 34.055 115.755 35.4047 115.184 36.5598C114.619 37.7149 113.828 38.6136 112.809 39.256C111.796 39.8985 110.615 40.2197 109.266 40.2197ZM109.266 38.1561C110.291 38.1561 111.135 37.8933 111.796 37.3677C112.458 36.8421 112.948 36.151 113.266 35.2944C113.584 34.4378 113.743 33.5099 113.743 32.5106C113.743 31.5112 113.584 30.58 113.266 29.717C112.948 28.8539 112.458 28.1563 111.796 27.6242C111.135 27.0921 110.291 26.826 109.266 26.826C108.24 26.826 107.397 27.0921 106.735 27.6242C106.073 28.1563 105.583 28.8539 105.265 29.717C104.947 30.58 104.788 31.5112 104.788 32.5106C104.788 33.5099 104.947 34.4378 105.265 35.2944C105.583 36.151 106.073 36.8421 106.735 37.3677C107.397 37.8933 108.24 38.1561 109.266 38.1561ZM128.832 33.7954V24.9572H131.129V39.9082H128.832V37.3774H128.676C128.326 38.1367 127.781 38.7823 127.041 39.3144C126.301 39.8401 125.367 40.1029 124.238 40.1029C123.303 40.1029 122.473 39.8985 121.746 39.4897C121.019 39.0743 120.448 38.4514 120.033 37.6208C119.618 36.7837 119.41 35.7292 119.41 34.4573V24.9572H121.707V34.3016C121.707 35.3917 122.012 36.2613 122.622 36.9102C123.239 37.5591 124.024 37.8836 124.978 37.8836C125.549 37.8836 126.129 37.7376 126.72 37.4456C127.317 37.1536 127.817 36.7058 128.219 36.1023C128.628 35.4988 128.832 34.7298 128.832 33.7954ZM149.274 24.9572V26.9039H141.526V24.9572H149.274ZM143.784 21.3751H146.081V35.6254C146.081 36.2743 146.175 36.761 146.364 37.0854C146.558 37.4034 146.805 37.6175 147.103 37.7278C147.408 37.8317 147.73 37.8836 148.067 37.8836C148.32 37.8836 148.528 37.8706 148.69 37.8446C148.852 37.8122 148.982 37.7862 149.079 37.7668L149.547 39.8303C149.391 39.8887 149.173 39.9471 148.894 40.0055C148.615 40.0704 148.262 40.1029 147.833 40.1029C147.184 40.1029 146.549 39.9634 145.926 39.6843C145.309 39.4053 144.796 38.9803 144.388 38.4092C143.985 37.8382 143.784 37.1179 143.784 36.2483V21.3751ZM155.211 30.9142V39.9082H152.914V19.9735H155.211V27.2933H155.405C155.756 26.521 156.281 25.9078 156.982 25.4536C157.69 24.9928 158.631 24.7625 159.805 24.7625C160.824 24.7625 161.716 24.9669 162.482 25.3757C163.248 25.778 163.841 26.3978 164.263 27.2349C164.691 28.0655 164.906 29.1232 164.906 30.4081V39.9082H162.608V30.5638C162.608 29.3763 162.3 28.4581 161.684 27.8091C161.074 27.1537 160.227 26.826 159.143 26.826C158.39 26.826 157.716 26.985 157.119 27.303C156.528 27.621 156.061 28.0849 155.717 28.6949C155.379 29.3049 155.211 30.0447 155.211 30.9142ZM175.24 40.2197C173.799 40.2197 172.556 39.9017 171.512 39.2658C170.473 38.6233 169.672 37.7278 169.107 36.5793C168.549 35.4242 168.27 34.0809 168.27 32.5495C168.27 31.018 168.549 29.6683 169.107 28.5002C169.672 27.3257 170.457 26.4107 171.463 25.7553C172.475 25.0934 173.656 24.7625 175.006 24.7625C175.785 24.7625 176.554 24.8923 177.313 25.1518C178.072 25.4114 178.763 25.8332 179.386 26.4172C180.009 26.9948 180.506 27.7605 180.875 28.7144C181.245 29.6683 181.43 30.8428 181.43 32.238V33.2114H169.906V31.2257H179.094C179.094 30.3821 178.925 29.6294 178.588 28.9675C178.257 28.3056 177.783 27.7832 177.167 27.4003C176.557 27.0175 175.837 26.826 175.006 26.826C174.091 26.826 173.299 27.0532 172.631 27.5074C171.969 27.9552 171.46 28.5392 171.103 29.2595C170.746 29.9798 170.567 30.752 170.567 31.5761V32.8999C170.567 34.029 170.762 34.9862 171.151 35.7714C171.547 36.5501 172.096 37.1438 172.796 37.5526C173.497 37.955 174.312 38.1561 175.24 38.1561C175.843 38.1561 176.388 38.0718 176.875 37.903C177.368 37.7278 177.793 37.4683 178.15 37.1243C178.507 36.7739 178.783 36.3392 178.977 35.82L181.197 36.443C180.963 37.1957 180.57 37.8576 180.019 38.4287C179.467 38.9932 178.786 39.4345 177.975 39.7525C177.164 40.0639 176.252 40.2197 175.24 40.2197ZM192.36 39.9082V24.9572H194.579V27.2154H194.735C195.007 26.4756 195.5 25.8754 196.214 25.4146C196.928 24.9539 197.733 24.7235 198.628 24.7235C198.797 24.7235 199.008 24.7268 199.261 24.7333C199.514 24.7398 199.705 24.7495 199.835 24.7625V27.0986C199.757 27.0791 199.579 27.0499 199.3 27.011C199.027 26.9656 198.739 26.9428 198.434 26.9428C197.707 26.9428 197.058 27.0953 196.487 27.4003C195.922 27.6988 195.475 28.1141 195.144 28.6463C194.819 29.1719 194.657 29.7721 194.657 30.447V39.9082H192.36ZM208.235 40.2197C206.794 40.2197 205.551 39.9017 204.507 39.2658C203.468 38.6233 202.667 37.7278 202.102 36.5793C201.544 35.4242 201.265 34.0809 201.265 32.5495C201.265 31.018 201.544 29.6683 202.102 28.5002C202.667 27.3257 203.452 26.4107 204.458 25.7553C205.47 25.0934 206.651 24.7625 208.001 24.7625C208.78 24.7625 209.549 24.8923 210.308 25.1518C211.067 25.4114 211.758 25.8332 212.381 26.4172C213.004 26.9948 213.501 27.7605 213.871 28.7144C214.24 29.6683 214.425 30.8428 214.425 32.238V33.2114H202.901V31.2257H212.089C212.089 30.3821 211.921 29.6294 211.583 28.9675C211.252 28.3056 210.778 27.7832 210.162 27.4003C209.552 27.0175 208.832 26.826 208.001 26.826C207.086 26.826 206.294 27.0532 205.626 27.5074C204.964 27.9552 204.455 28.5392 204.098 29.2595C203.741 29.9798 203.563 30.752 203.563 31.5761V32.8999C203.563 34.029 203.757 34.9862 204.147 35.7714C204.542 36.5501 205.091 37.1438 205.792 37.5526C206.492 37.955 207.307 38.1561 208.235 38.1561C208.838 38.1561 209.383 38.0718 209.87 37.903C210.363 37.7278 210.788 37.4683 211.145 37.1243C211.502 36.7739 211.778 36.3392 211.972 35.82L214.192 36.443C213.958 37.1957 213.566 37.8576 213.014 38.4287C212.462 38.9932 211.781 39.4345 210.97 39.7525C210.159 40.0639 209.247 40.2197 208.235 40.2197ZM223.857 40.2197C222.455 40.2197 221.248 39.8887 220.236 39.2268C219.223 38.5649 218.445 37.6532 217.9 36.4917C217.354 35.3301 217.082 34.0031 217.082 32.5106C217.082 30.9921 217.361 29.6521 217.919 28.4905C218.484 27.3225 219.269 26.4107 220.275 25.7553C221.287 25.0934 222.468 24.7625 223.818 24.7625C224.869 24.7625 225.816 24.9572 226.66 25.3465C227.504 25.7359 228.195 26.2809 228.733 26.9818C229.272 27.6826 229.606 28.5002 229.736 29.4347H227.439C227.263 28.7533 226.874 28.1498 226.271 27.6242C225.674 27.0921 224.869 26.826 223.857 26.826C222.961 26.826 222.176 27.0596 221.501 27.5269C220.833 27.9876 220.31 28.6398 219.934 29.4834C219.564 30.3205 219.379 31.3036 219.379 32.4327C219.379 33.5878 219.561 34.5936 219.924 35.4501C220.294 36.3067 220.813 36.9719 221.482 37.4456C222.156 37.9193 222.948 38.1561 223.857 38.1561C224.454 38.1561 224.995 38.0523 225.482 37.8446C225.969 37.637 226.381 37.3385 226.718 36.9491C227.056 36.5598 227.296 36.0926 227.439 35.5475H229.736C229.606 36.43 229.285 37.2249 228.772 37.9323C228.266 38.6331 227.594 39.1911 226.757 39.6065C225.927 40.0153 224.96 40.2197 223.857 40.2197ZM232.957 39.9082V24.9572H235.254V39.9082H232.957ZM234.125 22.4653C233.677 22.4653 233.291 22.3128 232.967 22.0078C232.649 21.7028 232.49 21.3362 232.49 20.9079C232.49 20.4796 232.649 20.113 232.967 19.808C233.291 19.503 233.677 19.3505 234.125 19.3505C234.573 19.3505 234.956 19.503 235.274 19.808C235.598 20.113 235.76 20.4796 235.76 20.9079C235.76 21.3362 235.598 21.7028 235.274 22.0078C234.956 22.3128 234.573 22.4653 234.125 22.4653ZM239.324 45.5148V24.9572H241.544V27.3322H241.816C241.985 27.0726 242.219 26.7417 242.517 26.3394C242.822 25.9305 243.257 25.5671 243.821 25.2492C244.392 24.9247 245.165 24.7625 246.138 24.7625C247.397 24.7625 248.507 25.0772 249.467 25.7067C250.427 26.3361 251.177 27.2284 251.715 28.3834C252.254 29.5385 252.523 30.9012 252.523 32.4716C252.523 34.055 252.254 35.4274 251.715 36.589C251.177 37.7441 250.431 38.6396 249.477 39.2755C248.523 39.905 247.423 40.2197 246.177 40.2197C245.217 40.2197 244.448 40.0607 243.87 39.7427C243.293 39.4183 242.848 39.0516 242.537 38.6428C242.225 38.2275 241.985 37.8836 241.816 37.611H241.622V45.5148H239.324ZM241.583 32.4327C241.583 33.5618 241.748 34.5579 242.079 35.4209C242.41 36.2775 242.893 36.9491 243.529 37.4358C244.165 37.916 244.944 38.1561 245.865 38.1561C246.826 38.1561 247.627 37.9031 248.27 37.3969C248.919 36.8843 249.405 36.1964 249.73 35.3333C250.061 34.4638 250.226 33.4969 250.226 32.4327C250.226 31.3814 250.064 30.434 249.74 29.5904C249.422 28.7403 248.938 28.0687 248.289 27.5755C247.647 27.0759 246.839 26.826 245.865 26.826C244.931 26.826 244.146 27.0629 243.51 27.5366C242.874 28.0038 242.394 28.6592 242.069 29.5028C241.745 30.3399 241.583 31.3165 241.583 32.4327ZM262.159 40.2197C260.718 40.2197 259.476 39.9017 258.431 39.2658C257.393 38.6233 256.591 37.7278 256.027 36.5793C255.469 35.4242 255.19 34.0809 255.19 32.5495C255.19 31.018 255.469 29.6683 256.027 28.5002C256.591 27.3257 257.377 26.4107 258.382 25.7553C259.395 25.0934 260.576 24.7625 261.925 24.7625C262.704 24.7625 263.473 24.8923 264.232 25.1518C264.992 25.4114 265.683 25.8332 266.306 26.4172C266.929 26.9948 267.425 27.7605 267.795 28.7144C268.165 29.6683 268.35 30.8428 268.35 32.238V33.2114H256.825V31.2257H266.014C266.014 30.3821 265.845 29.6294 265.507 28.9675C265.176 28.3056 264.703 27.7832 264.086 27.4003C263.476 27.0175 262.756 26.826 261.925 26.826C261.01 26.826 260.219 27.0532 259.55 27.5074C258.888 27.9552 258.379 28.5392 258.022 29.2595C257.665 29.9798 257.487 30.752 257.487 31.5761V32.8999C257.487 34.029 257.681 34.9862 258.071 35.7714C258.467 36.5501 259.015 37.1438 259.716 37.5526C260.417 37.955 261.231 38.1561 262.159 38.1561C262.763 38.1561 263.308 38.0718 263.794 37.903C264.287 37.7278 264.713 37.4683 265.069 37.1243C265.426 36.7739 265.702 36.3392 265.897 35.82L268.116 36.443C267.882 37.1957 267.49 37.8576 266.938 38.4287C266.387 38.9932 265.705 39.4345 264.894 39.7525C264.083 40.0639 263.171 40.2197 262.159 40.2197ZM24.4553 49.9735V69.9082H22.1582V49.9735H24.4553ZM32.9253 70.2586C31.9779 70.2586 31.1181 70.0802 30.3459 69.7233C29.5737 69.3599 28.9605 68.8375 28.5062 68.1561C28.052 67.4683 27.8249 66.6377 27.8249 65.6643C27.8249 64.8077 27.9936 64.1134 28.331 63.5813C28.6684 63.0427 29.1194 62.6209 29.684 62.3159C30.2486 62.0109 30.8715 61.7838 31.5529 61.6345C32.2407 61.4788 32.9318 61.3555 33.6262 61.2646C34.5347 61.1478 35.2712 61.0602 35.8357 61.0018C36.4068 60.9369 36.8221 60.8299 37.0817 60.6806C37.3477 60.5314 37.4807 60.2718 37.4807 59.9019V59.824C37.4807 58.8636 37.2179 58.1174 36.6923 57.5853C36.1732 57.0532 35.3847 56.7871 34.327 56.7871C33.2303 56.7871 32.3705 57.0272 31.7476 57.5074C31.1246 57.9876 30.6866 58.5002 30.4335 59.0453L28.2531 58.2666C28.6425 57.3582 29.1616 56.6508 29.8105 56.1447C30.4659 55.632 31.1798 55.2751 31.952 55.074C32.7307 54.8663 33.4964 54.7625 34.2491 54.7625C34.7293 54.7625 35.2809 54.8209 35.9039 54.9377C36.5333 55.048 37.1401 55.2784 37.7241 55.6288C38.3146 55.9792 38.8045 56.5081 39.1939 57.2154C39.5832 57.9227 39.7779 58.8701 39.7779 60.0576V69.9082H37.4807V67.8836H37.3639C37.2082 68.208 36.9486 68.5552 36.5852 68.9251C36.2218 69.295 35.7384 69.6097 35.1349 69.8693C34.5314 70.1288 33.7949 70.2586 32.9253 70.2586ZM33.2758 68.1951C34.1842 68.1951 34.95 68.0166 35.5729 67.6597C36.2024 67.3028 36.6761 66.8421 36.994 66.2775C37.3185 65.713 37.4807 65.1192 37.4807 64.4962V62.3937C37.3834 62.5106 37.1693 62.6176 36.8383 62.715C36.5139 62.8058 36.1375 62.8869 35.7092 62.9583C35.2874 63.0232 34.8753 63.0816 34.473 63.1335C34.0772 63.1789 33.756 63.2179 33.5094 63.2503C32.9124 63.3282 32.3543 63.4547 31.8352 63.6299C31.3225 63.7987 30.9072 64.055 30.5892 64.3989C30.2778 64.7363 30.122 65.1971 30.122 65.7811C30.122 66.5793 30.4173 67.1828 31.0078 67.5916C31.6048 67.9939 32.3608 68.1951 33.2758 68.1951ZM54.424 58.3056L52.3604 58.8896C52.2306 58.5457 52.0392 58.2115 51.7861 57.887C51.5396 57.5561 51.2021 57.2835 50.7738 57.0694C50.3455 56.8552 49.7972 56.7482 49.1288 56.7482C48.2139 56.7482 47.4514 56.9591 46.8414 57.3809C46.2379 57.7962 45.9362 58.325 45.9362 58.9675C45.9362 59.5385 46.1438 59.9895 46.5591 60.3205C46.9744 60.6514 47.6233 60.9272 48.5059 61.1478L50.7252 61.6929C52.0619 62.0174 53.058 62.5138 53.7134 63.1822C54.3688 63.8441 54.6965 64.6974 54.6965 65.7422C54.6965 66.5987 54.4499 67.3644 53.9568 68.0393C53.4701 68.7142 52.7887 69.2463 51.9127 69.6357C51.0366 70.025 50.0178 70.2197 48.8563 70.2197C47.3313 70.2197 46.0692 69.8887 45.0699 69.2268C44.0705 68.5649 43.4378 67.5981 43.1718 66.3262L45.3521 65.7811C45.5598 66.5857 45.9524 67.1892 46.5299 67.5916C47.1139 67.9939 47.8764 68.1951 48.8173 68.1951C49.8881 68.1951 50.7381 67.9679 51.3676 67.5137C52.0035 67.053 52.3215 66.5014 52.3215 65.859C52.3215 65.3398 52.1398 64.9051 51.7764 64.5546C51.413 64.1977 50.8549 63.9317 50.1022 63.7565L47.6104 63.1724C46.2411 62.848 45.2353 62.3451 44.5929 61.6637C43.957 60.9759 43.639 60.116 43.639 59.0843C43.639 58.2407 43.8758 57.4944 44.3496 56.8455C44.8298 56.1966 45.4819 55.6872 46.306 55.3173C47.1367 54.9474 48.0776 54.7625 49.1288 54.7625C50.6084 54.7625 51.7699 55.0869 52.6135 55.7359C53.4636 56.3848 54.0671 57.2413 54.424 58.3056ZM64.5195 54.9572V56.9039H56.7715V54.9572H64.5195ZM59.0297 51.3751H61.3269V65.6254C61.3269 66.2743 61.421 66.761 61.6092 67.0854C61.8038 67.4034 62.0504 67.6175 62.3489 67.7278C62.6539 67.8317 62.9751 67.8836 63.3126 67.8836C63.5656 67.8836 63.7733 67.8706 63.9355 67.8446C64.0977 67.8122 64.2275 67.7862 64.3249 67.7668L64.7921 69.8303C64.6363 69.8887 64.419 69.9471 64.1399 70.0055C63.8609 70.0704 63.5072 70.1029 63.0789 70.1029C62.43 70.1029 61.7941 69.9634 61.1711 69.6843C60.5547 69.4053 60.042 68.9803 59.6332 68.4092C59.2309 67.8382 59.0297 67.1179 59.0297 66.2483V51.3751ZM75.4101 69.9082V54.9572H77.6293V57.2933H77.824C78.1355 56.4951 78.6384 55.8754 79.3328 55.4341C80.0271 54.9864 80.861 54.7625 81.8343 54.7625C82.8207 54.7625 83.6416 54.9864 84.297 55.4341C84.9589 55.8754 85.4748 56.4951 85.8446 57.2933H86.0004C86.3832 56.521 86.9575 55.9078 87.7233 55.4536C88.489 54.9928 89.4072 54.7625 90.4779 54.7625C91.8147 54.7625 92.9081 55.181 93.7582 56.0181C94.6083 56.8488 95.0333 58.1433 95.0333 59.9019V69.9082H92.7361V59.9019C92.7361 58.7987 92.4344 58.0103 91.8309 57.5366C91.2274 57.0629 90.5168 56.826 89.6992 56.826C88.648 56.826 87.8336 57.144 87.256 57.7799C86.6785 58.4094 86.3897 59.2076 86.3897 60.1744V69.9082H84.0536V59.6683C84.0536 58.8182 83.7778 58.1336 83.2263 57.6145C82.6747 57.0889 81.9641 56.826 81.0946 56.826C80.4976 56.826 79.9395 56.985 79.4204 57.303C78.9077 57.621 78.4924 58.0622 78.1744 58.6268C77.863 59.1849 77.7072 59.8305 77.7072 60.5638V69.9082H75.4101ZM105.17 70.2197C103.82 70.2197 102.636 69.8985 101.617 69.256C100.605 68.6136 99.8134 67.7149 99.2424 66.5598C98.6778 65.4047 98.3955 64.055 98.3955 62.5106C98.3955 60.9532 98.6778 59.5937 99.2424 58.4321C99.8134 57.2705 100.605 56.3686 101.617 55.7261C102.636 55.0837 103.82 54.7625 105.17 54.7625C106.52 54.7625 107.701 55.0837 108.713 55.7261C109.732 56.3686 110.524 57.2705 111.088 58.4321C111.659 59.5937 111.945 60.9532 111.945 62.5106C111.945 64.055 111.659 65.4047 111.088 66.5598C110.524 67.7149 109.732 68.6136 108.713 69.256C107.701 69.8985 106.52 70.2197 105.17 70.2197ZM105.17 68.1561C106.196 68.1561 107.039 67.8933 107.701 67.3677C108.363 66.8421 108.853 66.151 109.171 65.2944C109.489 64.4378 109.648 63.5099 109.648 62.5106C109.648 61.5112 109.489 60.58 109.171 59.717C108.853 58.8539 108.363 58.1563 107.701 57.6242C107.039 57.0921 106.196 56.826 105.17 56.826C104.145 56.826 103.301 57.0921 102.639 57.6242C101.978 58.1563 101.488 58.8539 101.17 59.717C100.852 60.58 100.693 61.5112 100.693 62.5106C100.693 63.5099 100.852 64.4378 101.17 65.2944C101.488 66.151 101.978 66.8421 102.639 67.3677C103.301 67.8933 104.145 68.1561 105.17 68.1561ZM117.612 60.9142V69.9082H115.314V54.9572H117.534V57.2933H117.728C118.079 56.534 118.611 55.924 119.325 55.4633C120.039 54.9961 120.96 54.7625 122.089 54.7625C123.101 54.7625 123.987 54.9701 124.746 55.3854C125.506 55.7943 126.096 56.4172 126.518 57.2543C126.94 58.0849 127.151 59.1362 127.151 60.4081V69.9082H124.854V60.5638C124.854 59.3893 124.549 58.4743 123.939 57.8189C123.329 57.157 122.491 56.826 121.427 56.826C120.694 56.826 120.039 56.985 119.461 57.303C118.89 57.621 118.439 58.0849 118.108 58.6949C117.777 59.3049 117.612 60.0447 117.612 60.9142ZM137.713 54.9572V56.9039H129.965V54.9572H137.713ZM132.224 51.3751H134.521V65.6254C134.521 66.2743 134.615 66.761 134.803 67.0854C134.998 67.4034 135.244 67.6175 135.543 67.7278C135.848 67.8317 136.169 67.8836 136.506 67.8836C136.76 67.8836 136.967 67.8706 137.129 67.8446C137.292 67.8122 137.421 67.7862 137.519 67.7668L137.986 69.8303C137.83 69.8887 137.613 69.9471 137.334 70.0055C137.055 70.0704 136.701 70.1029 136.273 70.1029C135.624 70.1029 134.988 69.9634 134.365 69.6843C133.749 69.4053 133.236 68.9803 132.827 68.4092C132.425 67.8382 132.224 67.1179 132.224 66.2483V51.3751ZM143.65 60.9142V69.9082H141.353V49.9735H143.65V57.2933H143.845C144.195 56.521 144.721 55.9078 145.422 55.4536C146.129 54.9928 147.07 54.7625 148.245 54.7625C149.263 54.7625 150.156 54.9669 150.921 55.3757C151.687 55.778 152.281 56.3978 152.703 57.2349C153.131 58.0655 153.345 59.1232 153.345 60.4081V69.9082H151.048V60.5638C151.048 59.3763 150.74 58.4581 150.123 57.8091C149.513 57.1537 148.666 56.826 147.583 56.826C146.83 56.826 146.155 56.985 145.558 57.303C144.968 57.621 144.5 58.0849 144.156 58.6949C143.819 59.3049 143.65 60.0447 143.65 60.9142ZM160.837 67.1828L160.681 68.234C160.571 68.9738 160.402 69.7654 160.175 70.609C159.954 71.4526 159.724 72.2475 159.484 72.9938C159.244 73.7401 159.046 74.3338 158.89 74.7751H157.138C157.222 74.3598 157.333 73.8114 157.469 73.1301C157.605 72.4487 157.742 71.6862 157.878 70.8426C158.021 70.0055 158.137 69.149 158.228 68.2729L158.345 67.1828H160.837ZM183.118 58.3056L181.055 58.8896C180.925 58.5457 180.734 58.2115 180.48 57.887C180.234 57.5561 179.896 57.2835 179.468 57.0694C179.04 56.8552 178.492 56.7482 177.823 56.7482C176.908 56.7482 176.146 56.9591 175.536 57.3809C174.932 57.7962 174.63 58.325 174.63 58.9675C174.63 59.5385 174.838 59.9895 175.253 60.3205C175.669 60.6514 176.318 60.9272 177.2 61.1478L179.419 61.6929C180.756 62.0174 181.752 62.5138 182.408 63.1822C183.063 63.8441 183.391 64.6974 183.391 65.7422C183.391 66.5987 183.144 67.3644 182.651 68.0393C182.164 68.7142 181.483 69.2463 180.607 69.6357C179.731 70.025 178.712 70.2197 177.551 70.2197C176.026 70.2197 174.764 69.8887 173.764 69.2268C172.765 68.5649 172.132 67.5981 171.866 66.3262L174.046 65.7811C174.254 66.5857 174.647 67.1892 175.224 67.5916C175.808 67.9939 176.571 68.1951 177.512 68.1951C178.582 68.1951 179.432 67.9679 180.062 67.5137C180.698 67.053 181.016 66.5014 181.016 65.859C181.016 65.3398 180.834 64.9051 180.471 64.5546C180.107 64.1977 179.549 63.9317 178.797 63.7565L176.305 63.1724C174.935 62.848 173.93 62.3451 173.287 61.6637C172.651 60.9759 172.333 60.116 172.333 59.0843C172.333 58.2407 172.57 57.4944 173.044 56.8455C173.524 56.1966 174.176 55.6872 175 55.3173C175.831 54.9474 176.772 54.7625 177.823 54.7625C179.303 54.7625 180.464 55.0869 181.308 55.7359C182.158 56.3848 182.761 57.2413 183.118 58.3056ZM192.786 70.2197C191.384 70.2197 190.177 69.8887 189.165 69.2268C188.152 68.5649 187.374 67.6532 186.829 66.4917C186.283 65.3301 186.011 64.0031 186.011 62.5106C186.011 60.9921 186.29 59.6521 186.848 58.4905C187.413 57.3225 188.198 56.4107 189.204 55.7553C190.216 55.0934 191.397 54.7625 192.747 54.7625C193.798 54.7625 194.745 54.9572 195.589 55.3465C196.433 55.7359 197.124 56.2809 197.662 56.9818C198.201 57.6826 198.535 58.5002 198.665 59.4347H196.368C196.192 58.7533 195.803 58.1498 195.2 57.6242C194.603 57.0921 193.798 56.826 192.786 56.826C191.89 56.826 191.105 57.0596 190.43 57.5269C189.762 57.9876 189.239 58.6398 188.863 59.4834C188.493 60.3205 188.308 61.3036 188.308 62.4327C188.308 63.5878 188.49 64.5936 188.853 65.4501C189.223 66.3067 189.742 66.9719 190.411 67.4456C191.085 67.9193 191.877 68.1561 192.786 68.1561C193.383 68.1561 193.924 68.0523 194.411 67.8446C194.898 67.637 195.31 67.3385 195.647 66.9491C195.985 66.5598 196.225 66.0926 196.368 65.5475H198.665C198.535 66.43 198.214 67.2249 197.701 67.9323C197.195 68.6331 196.523 69.1911 195.686 69.6065C194.856 70.0153 193.889 70.2197 192.786 70.2197ZM201.886 69.9082V54.9572H204.105V57.2154H204.261C204.533 56.4756 205.027 55.8754 205.74 55.4146C206.454 54.9539 207.259 54.7235 208.154 54.7235C208.323 54.7235 208.534 54.7268 208.787 54.7333C209.04 54.7398 209.232 54.7495 209.361 54.7625V57.0986C209.284 57.0791 209.105 57.0499 208.826 57.011C208.553 56.9656 208.265 56.9428 207.96 56.9428C207.233 56.9428 206.584 57.0953 206.013 57.4003C205.448 57.6988 205.001 58.1141 204.67 58.6463C204.345 59.1719 204.183 59.7721 204.183 60.447V69.9082H201.886ZM217.566 70.2197C216.216 70.2197 215.032 69.8985 214.013 69.256C213.001 68.6136 212.209 67.7149 211.638 66.5598C211.074 65.4047 210.791 64.055 210.791 62.5106C210.791 60.9532 211.074 59.5937 211.638 58.4321C212.209 57.2705 213.001 56.3686 214.013 55.7261C215.032 55.0837 216.216 54.7625 217.566 54.7625C218.916 54.7625 220.097 55.0837 221.109 55.7261C222.128 56.3686 222.92 57.2705 223.484 58.4321C224.055 59.5937 224.341 60.9532 224.341 62.5106C224.341 64.055 224.055 65.4047 223.484 66.5598C222.92 67.7149 222.128 68.6136 221.109 69.256C220.097 69.8985 218.916 70.2197 217.566 70.2197ZM217.566 68.1561C218.591 68.1561 219.435 67.8933 220.097 67.3677C220.759 66.8421 221.249 66.151 221.567 65.2944C221.885 64.4378 222.044 63.5099 222.044 62.5106C222.044 61.5112 221.885 60.58 221.567 59.717C221.249 58.8539 220.759 58.1563 220.097 57.6242C219.435 57.0921 218.591 56.826 217.566 56.826C216.541 56.826 215.697 57.0921 215.035 57.6242C214.373 58.1563 213.884 58.8539 213.566 59.717C213.248 60.58 213.089 61.5112 213.089 62.5106C213.089 63.5099 213.248 64.4378 213.566 65.2944C213.884 66.151 214.373 66.8421 215.035 67.3677C215.697 67.8933 216.541 68.1561 217.566 68.1561ZM230.008 49.9735V69.9082H227.71V49.9735H230.008ZM236.375 49.9735V69.9082H234.078V49.9735H236.375ZM251.405 69.9082L246.849 54.9572H249.263L252.495 66.4041H252.651L255.843 54.9572H258.296L261.45 66.3651H261.606L264.837 54.9572H267.251L262.696 69.9082H260.438L257.167 58.4224H256.934L253.663 69.9082H251.405ZM274.551 70.2586C273.604 70.2586 272.744 70.0802 271.972 69.7233C271.199 69.3599 270.586 68.8375 270.132 68.1561C269.678 67.4683 269.45 66.6377 269.45 65.6643C269.45 64.8077 269.619 64.1134 269.957 63.5813C270.294 63.0427 270.745 62.6209 271.31 62.3159C271.874 62.0109 272.497 61.7838 273.179 61.6345C273.866 61.4788 274.557 61.3555 275.252 61.2646C276.16 61.1478 276.897 61.0602 277.461 61.0018C278.032 60.9369 278.448 60.8299 278.707 60.6806C278.973 60.5314 279.106 60.2718 279.106 59.9019V59.824C279.106 58.8636 278.844 58.1174 278.318 57.5853C277.799 57.0532 277.01 56.7871 275.953 56.7871C274.856 56.7871 273.996 57.0272 273.373 57.5074C272.75 57.9876 272.312 58.5002 272.059 59.0453L269.879 58.2666C270.268 57.3582 270.787 56.6508 271.436 56.1447C272.092 55.632 272.805 55.2751 273.578 55.074C274.356 54.8663 275.122 54.7625 275.875 54.7625C276.355 54.7625 276.907 54.8209 277.529 54.9377C278.159 55.048 278.766 55.2784 279.35 55.6288C279.94 55.9792 280.43 56.5081 280.819 57.2154C281.209 57.9227 281.404 58.8701 281.404 60.0576V69.9082H279.106V67.8836H278.99C278.834 68.208 278.574 68.5552 278.211 68.9251C277.847 69.295 277.364 69.6097 276.761 69.8693C276.157 70.1288 275.421 70.2586 274.551 70.2586ZM274.901 68.1951C275.81 68.1951 276.576 68.0166 277.199 67.6597C277.828 67.3028 278.302 66.8421 278.62 66.2775C278.944 65.713 279.106 65.1192 279.106 64.4962V62.3937C279.009 62.5106 278.795 62.6176 278.464 62.715C278.139 62.8058 277.763 62.8869 277.335 62.9583C276.913 63.0232 276.501 63.0816 276.099 63.1335C275.703 63.1789 275.382 63.2179 275.135 63.2503C274.538 63.3282 273.98 63.4547 273.461 63.6299C272.948 63.7987 272.533 64.055 272.215 64.3989C271.903 64.7363 271.748 65.1971 271.748 65.7811C271.748 66.5793 272.043 67.1828 272.633 67.5916C273.23 67.9939 273.986 68.1951 274.901 68.1951ZM286.403 75.5148C286.014 75.5148 285.667 75.4824 285.362 75.4175C285.057 75.3591 284.846 75.3007 284.729 75.2423L285.313 73.2177C285.871 73.3604 286.365 73.4124 286.793 73.3734C287.221 73.3345 287.601 73.1431 287.932 72.7991C288.269 72.4617 288.577 71.9134 288.856 71.1541L289.285 69.9861L283.756 54.9572H286.248L290.375 66.8713H290.531L294.658 54.9572H297.15L290.803 72.0886C290.518 72.8608 290.164 73.5 289.742 74.0061C289.32 74.5188 288.83 74.8984 288.272 75.145C287.721 75.3916 287.098 75.5148 286.403 75.5148ZM31.5804 93.7954V84.9572H33.8776V99.9082H31.5804V97.3774H31.4247C31.0743 98.1367 30.5292 98.7823 29.7894 99.3144C29.0497 99.8401 28.1152 100.103 26.9861 100.103C26.0517 100.103 25.221 99.8985 24.4943 99.4897C23.7675 99.0743 23.1964 98.4514 22.7811 97.6208C22.3658 96.7837 22.1582 95.7292 22.1582 94.4573V84.9572H24.4553V94.3016C24.4553 95.3917 24.7603 96.2613 25.3703 96.9102C25.9868 97.5591 26.772 97.8836 27.7259 97.8836C28.2969 97.8836 28.8777 97.7376 29.4682 97.4456C30.0652 97.1536 30.5649 96.7058 30.9672 96.1023C31.376 95.4988 31.5804 94.7298 31.5804 93.7954ZM37.948 105.515V84.9572H40.1673V87.3322H40.4398C40.6085 87.0726 40.8421 86.7417 41.1406 86.3394C41.4456 85.9305 41.8804 85.5671 42.445 85.2492C43.016 84.9247 43.7882 84.7625 44.7616 84.7625C46.0205 84.7625 47.1301 85.0772 48.0905 85.7067C49.0509 86.3361 49.8004 87.2284 50.339 88.3834C50.8776 89.5385 51.1469 90.9012 51.1469 92.4716C51.1469 94.055 50.8776 95.4274 50.339 96.589C49.8004 97.7441 49.0542 98.6396 48.1003 99.2755C47.1464 99.905 46.0464 100.22 44.8005 100.22C43.8401 100.22 43.0712 100.061 42.4936 99.7427C41.9161 99.4183 41.4716 99.0516 41.1601 98.6428C40.8486 98.2275 40.6085 97.8836 40.4398 97.611H40.2451V105.515H37.948ZM40.2062 92.4327C40.2062 93.5618 40.3717 94.5579 40.7026 95.4209C41.0336 96.2775 41.517 96.9491 42.1529 97.4358C42.7889 97.916 43.5676 98.1561 44.489 98.1561C45.4494 98.1561 46.2508 97.9031 46.8933 97.3969C47.5422 96.8843 48.0289 96.1964 48.3533 95.3333C48.6843 94.4638 48.8498 93.4969 48.8498 92.4327C48.8498 91.3814 48.6875 90.434 48.3631 89.5904C48.0451 88.7403 47.5617 88.0687 46.9127 87.5755C46.2703 87.0759 45.4624 86.826 44.489 86.826C43.5546 86.826 42.7694 87.0629 42.1335 87.5366C41.4975 88.0038 41.0173 88.6592 40.6929 89.5028C40.3684 90.3399 40.2062 91.3165 40.2062 92.4327ZM68.5883 84.9572V86.9039H60.8402V84.9572H68.5883ZM63.0984 81.3751H65.3956V95.6254C65.3956 96.2743 65.4897 96.761 65.6779 97.0854C65.8725 97.4034 66.1191 97.6175 66.4176 97.7278C66.7226 97.8317 67.0438 97.8836 67.3813 97.8836C67.6343 97.8836 67.842 97.8706 68.0042 97.8446C68.1665 97.8122 68.2962 97.7862 68.3936 97.7668L68.8608 99.8303C68.7051 99.8887 68.4877 99.9471 68.2086 100.006C67.9296 100.07 67.5759 100.103 67.1477 100.103C66.4987 100.103 65.8628 99.9634 65.2398 99.6843C64.6234 99.4053 64.1107 98.9803 63.7019 98.4092C63.2996 97.8382 63.0984 97.1179 63.0984 96.2483V81.3751ZM77.8199 100.22C76.4702 100.22 75.2859 99.8985 74.2671 99.256C73.2548 98.6136 72.4631 97.7149 71.8921 96.5598C71.3275 95.4047 71.0452 94.055 71.0452 92.5106C71.0452 90.9532 71.3275 89.5937 71.8921 88.4321C72.4631 87.2705 73.2548 86.3686 74.2671 85.7261C75.2859 85.0837 76.4702 84.7625 77.8199 84.7625C79.1697 84.7625 80.3507 85.0837 81.363 85.7261C82.3818 86.3686 83.1735 87.2705 83.7381 88.4321C84.3091 89.5937 84.5946 90.9532 84.5946 92.5106C84.5946 94.055 84.3091 95.4047 83.7381 96.5598C83.1735 97.7149 82.3818 98.6136 81.363 99.256C80.3507 99.8985 79.1697 100.22 77.8199 100.22ZM77.8199 98.1561C78.8452 98.1561 79.6888 97.8933 80.3507 97.3677C81.0126 96.8421 81.5025 96.151 81.8205 95.2944C82.1385 94.4378 82.2975 93.5099 82.2975 92.5106C82.2975 91.5112 82.1385 90.58 81.8205 89.717C81.5025 88.8539 81.0126 88.1563 80.3507 87.6242C79.6888 87.0921 78.8452 86.826 77.8199 86.826C76.7946 86.826 75.9511 87.0921 75.2892 87.6242C74.6273 88.1563 74.1373 88.8539 73.8194 89.717C73.5014 90.58 73.3424 91.5112 73.3424 92.5106C73.3424 93.5099 73.5014 94.4378 73.8194 95.2944C74.1373 96.151 74.6273 96.8421 75.2892 97.3677C75.9511 97.8933 76.7946 98.1561 77.8199 98.1561ZM102.194 84.9572V86.9039H94.1346V84.9572H102.194ZM96.5486 99.9082V82.8936C96.5486 82.037 96.7497 81.3232 97.152 80.7522C97.5544 80.1811 98.0768 79.7528 98.7192 79.4673C99.3616 79.1818 100.04 79.039 100.754 79.039C101.318 79.039 101.779 79.0845 102.136 79.1753C102.493 79.2662 102.759 79.3505 102.934 79.4284L102.272 81.4141C102.155 81.3751 101.993 81.3265 101.785 81.2681C101.584 81.2097 101.318 81.1805 100.987 81.1805C100.228 81.1805 99.6796 81.3719 99.3421 81.7548C99.0112 82.1376 98.8457 82.6989 98.8457 83.4387V99.9082H96.5486ZM105.277 99.9082V84.9572H107.574V99.9082H105.277ZM106.445 82.4653C105.997 82.4653 105.611 82.3128 105.286 82.0078C104.968 81.7028 104.809 81.3362 104.809 80.9079C104.809 80.4796 104.968 80.113 105.286 79.808C105.611 79.503 105.997 79.3505 106.445 79.3505C106.892 79.3505 107.275 79.503 107.593 79.808C107.918 80.113 108.08 80.4796 108.08 80.9079C108.08 81.3362 107.918 81.7028 107.593 82.0078C107.275 82.3128 106.892 82.4653 106.445 82.4653ZM113.941 90.9142V99.9082H111.644V84.9572H113.863V87.2933H114.058C114.408 86.534 114.941 85.924 115.654 85.4633C116.368 84.9961 117.29 84.7625 118.419 84.7625C119.431 84.7625 120.317 84.9701 121.076 85.3854C121.835 85.7943 122.426 86.4172 122.848 87.2543C123.269 88.0849 123.48 89.1362 123.48 90.4081V99.9082H121.183V90.5638C121.183 89.3893 120.878 88.4743 120.268 87.8189C119.658 87.157 118.821 86.826 117.757 86.826C117.024 86.826 116.368 86.985 115.791 87.303C115.22 87.621 114.769 88.0849 114.438 88.6949C114.107 89.3049 113.941 90.0447 113.941 90.9142ZM133.186 100.22C131.941 100.22 130.841 99.905 129.887 99.2755C128.933 98.6396 128.187 97.7441 127.648 96.589C127.109 95.4274 126.84 94.055 126.84 92.4716C126.84 90.9012 127.109 89.5385 127.648 88.3834C128.187 87.2284 128.936 86.3361 129.896 85.7067C130.857 85.0772 131.967 84.7625 133.225 84.7625C134.199 84.7625 134.968 84.9247 135.532 85.2492C136.103 85.5671 136.538 85.9305 136.837 86.3394C137.142 86.7417 137.379 87.0726 137.547 87.3322H137.742V79.9735H140.039V99.9082H137.82V97.611H137.547C137.379 97.8836 137.138 98.2275 136.827 98.6428C136.515 99.0516 136.071 99.4183 135.493 99.7427C134.916 100.061 134.147 100.22 133.186 100.22ZM133.498 98.1561C134.419 98.1561 135.198 97.916 135.834 97.4358C136.47 96.9491 136.953 96.2775 137.284 95.4209C137.615 94.5579 137.781 93.5618 137.781 92.4327C137.781 91.3165 137.619 90.3399 137.294 89.5028C136.97 88.6592 136.489 88.0038 135.854 87.5366C135.218 87.0629 134.432 86.826 133.498 86.826C132.525 86.826 131.713 87.0759 131.065 87.5755C130.422 88.0687 129.939 88.7403 129.614 89.5904C129.296 90.434 129.137 91.3814 129.137 92.4327C129.137 93.4969 129.299 94.4638 129.624 95.3333C129.955 96.1964 130.442 96.8843 131.084 97.3969C131.733 97.9031 132.538 98.1561 133.498 98.1561ZM152 99.9082V84.9572H154.297V99.9082H152ZM153.168 82.4653C152.721 82.4653 152.334 82.3128 152.01 82.0078C151.692 81.7028 151.533 81.3362 151.533 80.9079C151.533 80.4796 151.692 80.113 152.01 79.808C152.334 79.503 152.721 79.3505 153.168 79.3505C153.616 79.3505 153.999 79.503 154.317 79.808C154.641 80.113 154.804 80.4796 154.804 80.9079C154.804 81.3362 154.641 81.7028 154.317 82.0078C153.999 82.3128 153.616 82.4653 153.168 82.4653ZM164.87 84.9572V86.9039H157.122V84.9572H164.87ZM159.38 81.3751H161.677V95.6254C161.677 96.2743 161.771 96.761 161.96 97.0854C162.154 97.4034 162.401 97.6175 162.699 97.7278C163.004 97.8317 163.326 97.8836 163.663 97.8836C163.916 97.8836 164.124 97.8706 164.286 97.8446C164.448 97.8122 164.578 97.7862 164.675 97.7668L165.143 99.8303C164.987 99.8887 164.769 99.9471 164.49 100.006C164.211 100.07 163.858 100.103 163.429 100.103C162.78 100.103 162.145 99.9634 161.522 99.6843C160.905 99.4053 160.392 98.9803 159.984 98.4092C159.581 97.8382 159.38 97.1179 159.38 96.2483V81.3751ZM171.225 79.9735L171.031 94.3016H168.772L168.578 79.9735H171.225ZM169.902 100.064C169.421 100.064 169.009 99.892 168.665 99.5481C168.321 99.2041 168.149 98.7921 168.149 98.3119C168.149 97.8317 168.321 97.4196 168.665 97.0757C169.009 96.7318 169.421 96.5598 169.902 96.5598C170.382 96.5598 170.794 96.7318 171.138 97.0757C171.482 97.4196 171.654 97.8317 171.654 98.3119C171.654 98.6298 171.572 98.9218 171.41 99.1879C171.255 99.454 171.044 99.6681 170.778 99.8303C170.518 99.9861 170.226 100.064 169.902 100.064Z" fill="white"/>
<path d="M330.585 20.0556C330.585 9.20175 321.787 0.402954 310.933 0.402954V28.8475H330.585V20.0556Z" fill="#278EFF" stroke="#278EFF" stroke-width="0.805851"/>
<rect width="19.6526" height="62.1217" transform="matrix(-1 0 0 1 330.585 28.8477)" fill="#278EFF" stroke="#278EFF" stroke-width="0.805851"/>
<path d="M310.933 90.9692V119.414C315.692 119.414 320.056 117.721 323.457 114.906C326.849 117.166 332.288 119.316 338.86 118.121C337.05 117.345 330.069 112.69 330.327 103.381C330.296 103.424 330.262 103.463 330.229 103.503C330.462 102.292 330.586 101.041 330.586 99.7612V90.9692H310.933Z" fill="#278EFF"/>
<path d="M310.933 90.9692H310.53V90.5663H310.933V90.9692ZM310.933 119.414V119.816H310.53V119.414H310.933ZM323.457 114.906L323.2 114.595L323.431 114.404L323.68 114.57L323.457 114.906ZM338.86 118.121L339.019 117.75L340.249 118.278L338.932 118.517L338.86 118.121ZM330.327 103.381L330.001 103.144L330.766 102.093L330.73 103.393L330.327 103.381ZM330.229 103.503L330.539 103.76L329.833 103.427L330.229 103.503ZM330.586 99.7612H330.989H330.586ZM330.586 90.9692V90.5663H330.989V90.9692H330.586ZM310.933 90.9692H311.336V119.414H310.933H310.53V90.9692H310.933ZM310.933 119.414V119.011C315.595 119.011 319.869 117.353 323.2 114.595L323.457 114.906L323.714 115.216C320.244 118.089 315.79 119.816 310.933 119.816V119.414ZM323.457 114.906L323.68 114.57C327.01 116.789 332.344 118.896 338.788 117.724L338.86 118.121L338.932 118.517C332.232 119.735 326.688 117.543 323.234 115.241L323.457 114.906ZM338.86 118.121L338.702 118.491C337.735 118.077 335.484 116.678 333.503 114.203C331.515 111.717 329.792 108.136 329.924 103.37L330.327 103.381L330.73 103.393C330.604 107.936 332.242 111.336 334.133 113.699C336.031 116.072 338.176 117.389 339.019 117.75L338.86 118.121ZM330.327 103.381L330.653 103.618C330.613 103.674 330.562 103.732 330.539 103.76L330.229 103.503L329.918 103.247C329.962 103.194 329.98 103.173 330.001 103.144L330.327 103.381ZM330.229 103.503L329.833 103.427C330.062 102.24 330.183 101.015 330.183 99.7612H330.586H330.989C330.989 101.067 330.862 102.343 330.624 103.58L330.229 103.503ZM330.586 99.7612H330.183V90.9692H330.586H330.989V99.7612H330.586ZM330.586 90.9692V91.3722H310.933V90.9692V90.5663H330.586V90.9692Z" fill="#278EFF"/>
</svg>
