<svg width="341" height="90" viewBox="0 0 341 90" fill="none" xmlns="http://www.w3.org/2000/svg">
<path d="M0.402832 20.0555C0.402832 9.20162 9.20161 0.402832 20.0555 0.402832V28.8474H0.402832V20.0555Z" fill="#278EFF" stroke="#278EFF" stroke-width="0.805851"/>
<rect x="0.402832" y="28.8474" width="19.6526" height="32.1214" fill="#278EFF" stroke="#278EFF" stroke-width="0.805851"/>
<path d="M0.402832 69.7609C0.402832 80.6148 9.20161 89.4136 20.0555 89.4136V60.969H0.402832V69.7609Z" fill="#278EFF" stroke="#278EFF" stroke-width="0.805851"/>
<rect x="20.0557" y="0.402832" width="290.877" height="89.0106" fill="#278EFF"/>
<rect x="20.0557" y="0.402832" width="290.877" height="89.0106" stroke="#278EFF" stroke-width="0.805851"/>
<path d="M24.8836 19.9735V39.9082H22.4696V19.9735H24.8836ZM39.8655 28.3056L37.802 28.8896C37.6722 28.5457 37.4807 28.2115 37.2277 27.887C36.9811 27.5561 36.6436 27.2835 36.2153 27.0694C35.7871 26.8552 35.2387 26.7482 34.5703 26.7482C33.6554 26.7482 32.8929 26.9591 32.2829 27.3809C31.6794 27.7962 31.3777 28.325 31.3777 28.9675C31.3777 29.5385 31.5853 29.9895 32.0006 30.3205C32.4159 30.6514 33.0649 30.9272 33.9474 31.1478L36.1667 31.6929C37.5034 32.0174 38.4995 32.5138 39.1549 33.1822C39.8103 33.8441 40.1381 34.6974 40.1381 35.7422C40.1381 36.5987 39.8915 37.3644 39.3983 38.0393C38.9116 38.7142 38.2302 39.2463 37.3542 39.6357C36.4782 40.025 35.4594 40.2197 34.2978 40.2197C32.7728 40.2197 31.5107 39.8887 30.5114 39.2268C29.512 38.5649 28.8793 37.5981 28.6133 36.3262L30.7936 35.7811C31.0013 36.5857 31.3939 37.1892 31.9714 37.5916C32.5555 37.9939 33.3179 38.1951 34.2589 38.1951C35.3296 38.1951 36.1797 37.9679 36.8091 37.5137C37.445 37.053 37.763 36.5014 37.763 35.859C37.763 35.3398 37.5813 34.9051 37.2179 34.5546C36.8545 34.1977 36.2965 33.9317 35.5437 33.7565L33.0519 33.1724C31.6827 32.848 30.6768 32.3451 30.0344 31.6637C29.3985 30.9759 29.0805 30.116 29.0805 29.0843C29.0805 28.2407 29.3174 27.4944 29.7911 26.8455C30.2713 26.1966 30.9234 25.6872 31.7476 25.3173C32.5782 24.9474 33.5191 24.7625 34.5703 24.7625C36.0499 24.7625 37.2114 25.0869 38.055 25.7359C38.9051 26.3848 39.5086 27.2413 39.8655 28.3056ZM51.031 39.9082V24.9572H53.3282V39.9082H51.031ZM52.199 22.4653C51.7513 22.4653 51.3652 22.3128 51.0407 22.0078C50.7228 21.7028 50.5638 21.3362 50.5638 20.9079C50.5638 20.4796 50.7228 20.113 51.0407 19.808C51.3652 19.503 51.7513 19.3505 52.199 19.3505C52.6468 19.3505 53.0297 19.503 53.3476 19.808C53.6721 20.113 53.8343 20.4796 53.8343 20.9079C53.8343 21.3362 53.6721 21.7028 53.3476 22.0078C53.0297 22.3128 52.6468 22.4653 52.199 22.4653ZM63.9007 24.9572V26.9039H56.1526V24.9572H63.9007ZM58.4108 21.3751H60.708V35.6254C60.708 36.2743 60.8021 36.761 60.9903 37.0854C61.185 37.4034 61.4315 37.6175 61.73 37.7278C62.035 37.8317 62.3563 37.8836 62.6937 37.8836C62.9468 37.8836 63.1544 37.8706 63.3166 37.8446C63.4789 37.8122 63.6087 37.7862 63.706 37.7668L64.1732 39.8303C64.0175 39.8887 63.8001 39.9471 63.5211 40.0055C63.242 40.0704 62.8884 40.1029 62.4601 40.1029C61.8112 40.1029 61.1752 39.9634 60.5523 39.6843C59.9358 39.4053 59.4231 38.9803 59.0143 38.4092C58.612 37.8382 58.4108 37.1179 58.4108 36.2483V21.3751ZM74.7912 39.9082V24.9572H77.0884V39.9082H74.7912ZM75.9592 22.4653C75.5115 22.4653 75.1254 22.3128 74.8009 22.0078C74.4829 21.7028 74.324 21.3362 74.324 20.9079C74.324 20.4796 74.4829 20.113 74.8009 19.808C75.1254 19.503 75.5115 19.3505 75.9592 19.3505C76.407 19.3505 76.7898 19.503 77.1078 19.808C77.4323 20.113 77.5945 20.4796 77.5945 20.9079C77.5945 21.3362 77.4323 21.7028 77.1078 22.0078C76.7898 22.3128 76.407 22.4653 75.9592 22.4653ZM83.4559 30.9142V39.9082H81.1587V24.9572H83.378V27.2933H83.5727C83.9231 26.534 84.4552 25.924 85.169 25.4633C85.8828 24.9961 86.8043 24.7625 87.9334 24.7625C88.9457 24.7625 89.8315 24.9701 90.5907 25.3854C91.35 25.7943 91.9405 26.4172 92.3623 27.2543C92.7841 28.0849 92.995 29.1362 92.995 30.4081V39.9082H90.6978V30.5638C90.6978 29.3893 90.3928 28.4743 89.7828 27.8189C89.1728 27.157 88.3357 26.826 87.2715 26.826C86.5382 26.826 85.8828 26.985 85.3053 27.303C84.7342 27.621 84.2833 28.0849 83.9523 28.6949C83.6214 29.3049 83.4559 30.0447 83.4559 30.9142ZM104.628 39.9082V24.9572H106.847V27.2933H107.042C107.353 26.4951 107.856 25.8754 108.55 25.4341C109.245 24.9864 110.079 24.7625 111.052 24.7625C112.038 24.7625 112.859 24.9864 113.515 25.4341C114.176 25.8754 114.692 26.4951 115.062 27.2933H115.218C115.601 26.521 116.175 25.9078 116.941 25.4536C117.707 24.9928 118.625 24.7625 119.696 24.7625C121.032 24.7625 122.126 25.181 122.976 26.0181C123.826 26.8488 124.251 28.1433 124.251 29.9019V39.9082H121.954V29.9019C121.954 28.7987 121.652 28.0103 121.049 27.5366C120.445 27.0629 119.734 26.826 118.917 26.826C117.866 26.826 117.051 27.144 116.474 27.7799C115.896 28.4094 115.607 29.2076 115.607 30.1744V39.9082H113.271V29.6683C113.271 28.8182 112.995 28.1336 112.444 27.6145C111.892 27.0889 111.182 26.826 110.312 26.826C109.715 26.826 109.157 26.985 108.638 27.303C108.125 27.621 107.71 28.0622 107.392 28.6268C107.081 29.1849 106.925 29.8305 106.925 30.5638V39.9082H104.628ZM129.258 45.5148C128.869 45.5148 128.522 45.4824 128.217 45.4175C127.912 45.3591 127.701 45.3007 127.584 45.2423L128.168 43.2177C128.726 43.3604 129.219 43.4124 129.648 43.3734C130.076 43.3345 130.455 43.1431 130.786 42.7991C131.124 42.4617 131.432 41.9134 131.711 41.1541L132.139 39.9861L126.611 24.9572H129.102L133.23 36.8713H133.385L137.512 24.9572H140.004L133.658 42.0886C133.372 42.8608 133.019 43.5 132.597 44.0061C132.175 44.5188 131.685 44.8984 131.127 45.145C130.575 45.3916 129.952 45.5148 129.258 45.5148ZM156.935 39.9082H150.783V19.9735H157.207C159.141 19.9735 160.796 20.3726 162.171 21.1707C163.547 21.9624 164.601 23.1013 165.335 24.5873C166.068 26.0668 166.435 27.8383 166.435 29.9019C166.435 31.9784 166.065 33.7662 165.325 35.2652C164.585 36.7577 163.508 37.9063 162.093 38.711C160.679 39.5091 158.959 39.9082 156.935 39.9082ZM153.197 37.7668H156.779C158.427 37.7668 159.793 37.4488 160.877 36.8129C161.96 36.1769 162.768 35.2717 163.3 34.0972C163.833 32.9226 164.099 31.5242 164.099 29.9019C164.099 28.2926 163.836 26.9072 163.31 25.7456C162.785 24.5775 161.999 23.682 160.955 23.0591C159.91 22.4296 158.609 22.1149 157.051 22.1149H153.197V37.7668ZM170.035 39.9082V24.9572H172.255V27.2154H172.41C172.683 26.4756 173.176 25.8754 173.89 25.4146C174.604 24.9539 175.408 24.7235 176.304 24.7235C176.473 24.7235 176.684 24.7268 176.937 24.7333C177.19 24.7398 177.381 24.7495 177.511 24.7625V27.0986C177.433 27.0791 177.255 27.0499 176.976 27.011C176.703 26.9656 176.414 26.9428 176.109 26.9428C175.382 26.9428 174.734 27.0953 174.162 27.4003C173.598 27.6988 173.15 28.1141 172.819 28.6463C172.495 29.1719 172.333 29.7721 172.333 30.447V39.9082H170.035ZM180.097 39.9082V24.9572H182.394V39.9082H180.097ZM181.265 22.4653C180.817 22.4653 180.431 22.3128 180.107 22.0078C179.789 21.7028 179.63 21.3362 179.63 20.9079C179.63 20.4796 179.789 20.113 180.107 19.808C180.431 19.503 180.817 19.3505 181.265 19.3505C181.713 19.3505 182.096 19.503 182.413 19.808C182.738 20.113 182.9 20.4796 182.9 20.9079C182.9 21.3362 182.738 21.7028 182.413 22.0078C182.096 22.3128 181.713 22.4653 181.265 22.4653ZM198.69 24.9572L193.161 39.9082H190.825L185.296 24.9572H187.788L191.915 36.8713H192.071L196.198 24.9572H198.69ZM207.318 40.2197C205.878 40.2197 204.635 39.9017 203.59 39.2658C202.552 38.6233 201.75 37.7278 201.186 36.5793C200.628 35.4242 200.349 34.0809 200.349 32.5495C200.349 31.018 200.628 29.6683 201.186 28.5002C201.75 27.3257 202.536 26.4107 203.541 25.7553C204.554 25.0934 205.735 24.7625 207.085 24.7625C207.863 24.7625 208.632 24.8923 209.391 25.1518C210.151 25.4114 210.842 25.8332 211.465 26.4172C212.088 26.9948 212.584 27.7605 212.954 28.7144C213.324 29.6683 213.509 30.8428 213.509 32.238V33.2114H201.984V31.2257H211.173C211.173 30.3821 211.004 29.6294 210.667 28.9675C210.336 28.3056 209.862 27.7832 209.245 27.4003C208.635 27.0175 207.915 26.826 207.085 26.826C206.17 26.826 205.378 27.0532 204.71 27.5074C204.048 27.9552 203.538 28.5392 203.181 29.2595C202.824 29.9798 202.646 30.752 202.646 31.5761V32.8999C202.646 34.029 202.841 34.9862 203.23 35.7714C203.626 36.5501 204.174 37.1438 204.875 37.5526C205.576 37.955 206.39 38.1561 207.318 38.1561C207.922 38.1561 208.467 38.0718 208.953 37.903C209.447 37.7278 209.872 37.4683 210.229 37.1243C210.585 36.7739 210.861 36.3392 211.056 35.82L213.275 36.443C213.042 37.1957 212.649 37.8576 212.097 38.4287C211.546 38.9932 210.865 39.4345 210.053 39.7525C209.242 40.0639 208.33 40.2197 207.318 40.2197ZM219.864 34.3016V34.1848C219.877 32.9453 220.007 31.959 220.254 31.2257C220.5 30.4924 220.851 29.8987 221.305 29.4444C221.759 28.9902 222.304 28.5716 222.94 28.1888C223.323 27.9552 223.667 27.6794 223.972 27.3614C224.277 27.0369 224.517 26.6638 224.692 26.242C224.874 25.8202 224.965 25.353 224.965 24.8404C224.965 24.2044 224.815 23.6528 224.517 23.1856C224.218 22.7184 223.819 22.3582 223.32 22.1052C222.82 21.8521 222.265 21.7256 221.655 21.7256C221.123 21.7256 220.61 21.8359 220.117 22.0565C219.624 22.2771 219.212 22.6243 218.881 23.098C218.55 23.5717 218.359 24.1914 218.307 24.9572H215.854C215.906 23.854 216.191 22.9098 216.71 22.1246C217.236 21.3394 217.927 20.7392 218.784 20.3239C219.647 19.9086 220.604 19.7009 221.655 19.7009C222.797 19.7009 223.79 19.9281 224.634 20.3823C225.484 20.8365 226.139 21.4595 226.6 22.2512C227.067 23.0429 227.301 23.9448 227.301 24.9572C227.301 25.671 227.19 26.3166 226.97 26.8942C226.756 27.4717 226.444 27.9876 226.035 28.4418C225.633 28.8961 225.146 29.2984 224.575 29.6488C224.004 30.0057 223.547 30.3821 223.203 30.7779C222.859 31.1673 222.609 31.6313 222.453 32.1699C222.298 32.7085 222.213 33.3801 222.2 34.1848V34.3016H219.864ZM221.11 40.0639C220.63 40.0639 220.218 39.892 219.874 39.5481C219.53 39.2041 219.358 38.7921 219.358 38.3119C219.358 37.8317 219.53 37.4196 219.874 37.0757C220.218 36.7318 220.63 36.5598 221.11 36.5598C221.59 36.5598 222.002 36.7318 222.346 37.0757C222.69 37.4196 222.862 37.8317 222.862 38.3119C222.862 38.6298 222.781 38.9218 222.619 39.1879C222.463 39.454 222.252 39.6681 221.986 39.8303C221.727 39.9861 221.435 40.0639 221.11 40.0639ZM242.126 39.9082L236.675 19.9735H239.128L243.294 36.2094H243.489L247.733 19.9735H250.458L254.702 36.2094H254.897L259.063 19.9735H261.516L256.065 39.9082H253.573L249.173 24.0227H249.018L244.618 39.9082H242.126ZM267.083 40.2586C266.135 40.2586 265.275 40.0802 264.503 39.7233C263.731 39.3599 263.118 38.8375 262.664 38.1561C262.209 37.4683 261.982 36.6377 261.982 35.6643C261.982 34.8077 262.151 34.1134 262.488 33.5813C262.826 33.0427 263.277 32.6209 263.841 32.3159C264.406 32.0109 265.029 31.7838 265.71 31.6345C266.398 31.4788 267.089 31.3555 267.784 31.2646C268.692 31.1478 269.429 31.0602 269.993 31.0018C270.564 30.9369 270.979 30.8299 271.239 30.6806C271.505 30.5314 271.638 30.2718 271.638 29.9019V29.824C271.638 28.8636 271.375 28.1174 270.85 27.5853C270.331 27.0532 269.542 26.7871 268.484 26.7871C267.388 26.7871 266.528 27.0272 265.905 27.5074C265.282 27.9876 264.844 28.5002 264.591 29.0453L262.411 28.2666C262.8 27.3582 263.319 26.6508 263.968 26.1447C264.623 25.632 265.337 25.2751 266.109 25.074C266.888 24.8663 267.654 24.7625 268.407 24.7625C268.887 24.7625 269.438 24.8209 270.061 24.9377C270.691 25.048 271.297 25.2784 271.881 25.6288C272.472 25.9792 272.962 26.5081 273.351 27.2154C273.741 27.9227 273.935 28.8701 273.935 30.0576V39.9082H271.638V37.8836H271.521C271.366 38.208 271.106 38.5552 270.743 38.9251C270.379 39.295 269.896 39.6097 269.292 39.8693C268.689 40.1288 267.952 40.2586 267.083 40.2586ZM267.433 38.1951C268.342 38.1951 269.107 38.0166 269.73 37.6597C270.36 37.3028 270.833 36.8421 271.151 36.2775C271.476 35.713 271.638 35.1192 271.638 34.4962V32.3937C271.541 32.5106 271.327 32.6176 270.996 32.715C270.671 32.8058 270.295 32.8869 269.867 32.9583C269.445 33.0232 269.033 33.0816 268.63 33.1335C268.235 33.1789 267.913 33.2179 267.667 33.2503C267.07 33.3282 266.512 33.4547 265.993 33.6299C265.48 33.7987 265.065 34.055 264.747 34.3989C264.435 34.7363 264.279 35.1971 264.279 35.7811C264.279 36.5793 264.575 37.1828 265.165 37.5916C265.762 37.9939 266.518 38.1951 267.433 38.1951ZM277.991 39.9082V24.9572H280.288V39.9082H277.991ZM279.159 22.4653C278.711 22.4653 278.325 22.3128 278.001 22.0078C277.683 21.7028 277.524 21.3362 277.524 20.9079C277.524 20.4796 277.683 20.113 278.001 19.808C278.325 19.503 278.711 19.3505 279.159 19.3505C279.607 19.3505 279.99 19.503 280.308 19.808C280.632 20.113 280.794 20.4796 280.794 20.9079C280.794 21.3362 280.632 21.7028 280.308 22.0078C279.99 22.3128 279.607 22.4653 279.159 22.4653ZM290.861 24.9572V26.9039H283.113V24.9572H290.861ZM285.371 21.3751H287.668V35.6254C287.668 36.2743 287.762 36.761 287.95 37.0854C288.145 37.4034 288.392 37.6175 288.69 37.7278C288.995 37.8317 289.316 37.8836 289.654 37.8836C289.907 37.8836 290.114 37.8706 290.277 37.8446C290.439 37.8122 290.569 37.7862 290.666 37.7668L291.133 39.8303C290.978 39.8887 290.76 39.9471 290.481 40.0055C290.202 40.0704 289.848 40.1029 289.42 40.1029C288.771 40.1029 288.135 39.9634 287.512 39.6843C286.896 39.4053 286.383 38.9803 285.974 38.4092C285.572 37.8382 285.371 37.1179 285.371 36.2483V21.3751ZM297.605 37.1828L297.45 38.234C297.339 38.9738 297.171 39.7654 296.944 40.609C296.723 41.4526 296.493 42.2475 296.252 42.9938C296.012 43.7401 295.814 44.3338 295.659 44.7751H293.907C293.991 44.3598 294.101 43.8114 294.238 43.1301C294.374 42.4487 294.51 41.6862 294.646 40.8426C294.789 40.0055 294.906 39.149 294.997 38.2729L295.114 37.1828H297.605ZM25.5455 69.9082L20.9901 54.9572H23.4041L26.6357 66.4041H26.7914L29.9841 54.9572H32.437L35.5907 66.3651H35.7465L38.9781 54.9572H41.3921L36.8367 69.9082H34.5784L31.3079 58.4224H31.0743L27.8037 69.9082H25.5455ZM46.5891 60.9142V69.9082H44.2919V49.9735H46.5891V57.2933H46.7838C47.1342 56.521 47.6598 55.9078 48.3606 55.4536C49.068 54.9928 50.0089 54.7625 51.1834 54.7625C52.2022 54.7625 53.0945 54.9669 53.8602 55.3757C54.6259 55.778 55.2197 56.3978 55.6415 57.2349C56.0698 58.0655 56.2839 59.1232 56.2839 60.4081V69.9082H53.9867V60.5638C53.9867 59.3763 53.6785 58.4581 53.062 57.8091C52.4521 57.1537 51.6052 56.826 50.5215 56.826C49.7688 56.826 49.0939 56.985 48.4969 57.303C47.9064 57.621 47.4392 58.0849 47.0953 58.6949C46.7578 59.3049 46.5891 60.0447 46.5891 60.9142ZM60.3494 69.9082V54.9572H62.6466V69.9082H60.3494ZM61.5175 52.4653C61.0697 52.4653 60.6836 52.3128 60.3591 52.0078C60.0412 51.7028 59.8822 51.3362 59.8822 50.9079C59.8822 50.4796 60.0412 50.113 60.3591 49.808C60.6836 49.503 61.0697 49.3505 61.5175 49.3505C61.9652 49.3505 62.3481 49.503 62.666 49.808C62.9905 50.113 63.1527 50.4796 63.1527 50.9079C63.1527 51.3362 62.9905 51.7028 62.666 52.0078C62.3481 52.3128 61.9652 52.4653 61.5175 52.4653ZM72.7908 70.2197C71.3891 70.2197 70.1822 69.8887 69.1698 69.2268C68.1575 68.5649 67.3788 67.6532 66.8337 66.4917C66.2887 65.3301 66.0161 64.0031 66.0161 62.5106C66.0161 60.9921 66.2951 59.6521 66.8532 58.4905C67.4178 57.3225 68.203 56.4107 69.2088 55.7553C70.2211 55.0934 71.4021 54.7625 72.7519 54.7625C73.8031 54.7625 74.7505 54.9572 75.5941 55.3465C76.4377 55.7359 77.1288 56.2809 77.6674 56.9818C78.206 57.6826 78.5402 58.5002 78.67 59.4347H76.3728C76.1976 58.7533 75.8083 58.1498 75.2048 57.6242C74.6078 57.0921 73.8031 56.826 72.7908 56.826C71.8953 56.826 71.1101 57.0596 70.4352 57.5269C69.7668 57.9876 69.2445 58.6398 68.8681 59.4834C68.4982 60.3205 68.3133 61.3036 68.3133 62.4327C68.3133 63.5878 68.495 64.5936 68.8584 65.4501C69.2282 66.3067 69.7474 66.9719 70.4158 67.4456C71.0906 67.9193 71.8823 68.1561 72.7908 68.1561C73.3878 68.1561 73.9296 68.0523 74.4163 67.8446C74.903 67.637 75.3151 67.3385 75.6525 66.9491C75.99 66.5598 76.2301 66.0926 76.3728 65.5475H78.67C78.5402 66.43 78.219 67.2249 77.7063 67.9323C77.2002 68.6331 76.5286 69.1911 75.6915 69.6065C74.8608 70.0153 73.894 70.2197 72.7908 70.2197ZM84.1882 60.9142V69.9082H81.8911V49.9735H84.1882V57.2933H84.3829C84.7333 56.521 85.259 55.9078 85.9598 55.4536C86.6671 54.9928 87.608 54.7625 88.7826 54.7625C89.8014 54.7625 90.6936 54.9669 91.4594 55.3757C92.2251 55.778 92.8188 56.3978 93.2406 57.2349C93.6689 58.0655 93.8831 59.1232 93.8831 60.4081V69.9082H91.5859V60.5638C91.5859 59.3763 91.2777 58.4581 90.6612 57.8091C90.0512 57.1537 89.2044 56.826 88.1207 56.826C87.3679 56.826 86.6931 56.985 86.0961 57.303C85.5055 57.621 85.0383 58.0849 84.6944 58.6949C84.357 59.3049 84.1882 60.0447 84.1882 60.9142ZM112.179 54.9572V56.9039H104.119V54.9572H112.179ZM106.533 69.9082V52.8936C106.533 52.037 106.734 51.3232 107.136 50.7522C107.539 50.1811 108.061 49.7528 108.704 49.4673C109.346 49.1818 110.024 49.039 110.738 49.039C111.302 49.039 111.763 49.0845 112.12 49.1753C112.477 49.2662 112.743 49.3505 112.918 49.4284L112.256 51.4141C112.14 51.3751 111.977 51.3265 111.77 51.2681C111.569 51.2097 111.302 51.1805 110.972 51.1805C110.212 51.1805 109.664 51.3719 109.327 51.7548C108.996 52.1376 108.83 52.6989 108.83 53.4387V69.9082H106.533ZM120.719 70.2197C119.369 70.2197 118.185 69.8985 117.166 69.256C116.154 68.6136 115.362 67.7149 114.791 66.5598C114.227 65.4047 113.944 64.055 113.944 62.5106C113.944 60.9532 114.227 59.5937 114.791 58.4321C115.362 57.2705 116.154 56.3686 117.166 55.7261C118.185 55.0837 119.369 54.7625 120.719 54.7625C122.069 54.7625 123.25 55.0837 124.262 55.7261C125.281 56.3686 126.073 57.2705 126.637 58.4321C127.208 59.5937 127.494 60.9532 127.494 62.5106C127.494 64.055 127.208 65.4047 126.637 66.5598C126.073 67.7149 125.281 68.6136 124.262 69.256C123.25 69.8985 122.069 70.2197 120.719 70.2197ZM120.719 68.1561C121.744 68.1561 122.588 67.8933 123.25 67.3677C123.912 66.8421 124.402 66.151 124.72 65.2944C125.038 64.4378 125.197 63.5099 125.197 62.5106C125.197 61.5112 125.038 60.58 124.72 59.717C124.402 58.8539 123.912 58.1563 123.25 57.6242C122.588 57.0921 121.744 56.826 120.719 56.826C119.694 56.826 118.85 57.0921 118.188 57.6242C117.526 58.1563 117.037 58.8539 116.719 59.717C116.401 60.58 116.242 61.5112 116.242 62.5106C116.242 63.5099 116.401 64.4378 116.719 65.2944C117.037 66.151 117.526 66.8421 118.188 67.3677C118.85 67.8933 119.694 68.1561 120.719 68.1561ZM133.161 49.9735V69.9082H130.863V49.9735H133.161ZM142.876 70.2197C141.631 70.2197 140.531 69.905 139.577 69.2755C138.623 68.6396 137.877 67.7441 137.338 66.589C136.799 65.4274 136.53 64.055 136.53 62.4716C136.53 60.9012 136.799 59.5385 137.338 58.3834C137.877 57.2284 138.626 56.3361 139.586 55.7067C140.547 55.0772 141.656 54.7625 142.915 54.7625C143.889 54.7625 144.658 54.9247 145.222 55.2492C145.793 55.5671 146.228 55.9305 146.527 56.3394C146.832 56.7417 147.068 57.0726 147.237 57.3322H147.432V49.9735H149.729V69.9082H147.51V67.611H147.237C147.068 67.8836 146.828 68.2275 146.517 68.6428C146.205 69.0516 145.761 69.4183 145.183 69.7427C144.606 70.0607 143.837 70.2197 142.876 70.2197ZM143.188 68.1561C144.109 68.1561 144.888 67.916 145.524 67.4358C146.16 66.9491 146.643 66.2775 146.974 65.4209C147.305 64.5579 147.471 63.5618 147.471 62.4327C147.471 61.3165 147.309 60.3399 146.984 59.5028C146.66 58.6592 146.179 58.0038 145.543 57.5366C144.908 57.0629 144.122 56.826 143.188 56.826C142.215 56.826 141.403 57.0759 140.754 57.5755C140.112 58.0687 139.629 58.7403 139.304 59.5904C138.986 60.434 138.827 61.3814 138.827 62.4327C138.827 63.4969 138.989 64.4638 139.314 65.3333C139.645 66.1964 140.132 66.8843 140.774 67.3969C141.423 67.9031 142.228 68.1561 143.188 68.1561ZM160.387 70.2197C158.946 70.2197 157.703 69.9017 156.659 69.2658C155.62 68.6233 154.819 67.7278 154.254 66.5793C153.696 65.4242 153.417 64.0809 153.417 62.5495C153.417 61.018 153.696 59.6683 154.254 58.5002C154.819 57.3257 155.604 56.4107 156.61 55.7553C157.622 55.0934 158.803 54.7625 160.153 54.7625C160.932 54.7625 161.701 54.8923 162.46 55.1518C163.219 55.4114 163.91 55.8332 164.533 56.4172C165.156 56.9948 165.653 57.7605 166.023 58.7144C166.392 59.6683 166.577 60.8428 166.577 62.238V63.2114H155.053V61.2257H164.241C164.241 60.3821 164.073 59.6294 163.735 58.9675C163.404 58.3056 162.93 57.7832 162.314 57.4003C161.704 57.0175 160.984 56.826 160.153 56.826C159.238 56.826 158.446 57.0532 157.778 57.5074C157.116 57.9552 156.607 58.5392 156.25 59.2595C155.893 59.9798 155.714 60.752 155.714 61.5761V62.8999C155.714 64.029 155.909 64.9862 156.299 65.7714C156.694 66.5501 157.243 67.1438 157.944 67.5526C158.644 67.955 159.459 68.1561 160.387 68.1561C160.99 68.1561 161.535 68.0718 162.022 67.903C162.515 67.7278 162.94 67.4683 163.297 67.1243C163.654 66.7739 163.93 66.3392 164.124 65.82L166.344 66.443C166.11 67.1957 165.718 67.8576 165.166 68.4287C164.614 68.9932 163.933 69.4345 163.122 69.7525C162.311 70.0639 161.399 70.2197 160.387 70.2197ZM169.935 69.9082V54.9572H172.154V57.2154H172.31C172.582 56.4756 173.075 55.8754 173.789 55.4146C174.503 54.9539 175.308 54.7235 176.203 54.7235C176.372 54.7235 176.583 54.7268 176.836 54.7333C177.089 54.7398 177.28 54.7495 177.41 54.7625V57.0986C177.332 57.0791 177.154 57.0499 176.875 57.011C176.602 56.9656 176.314 56.9428 176.009 56.9428C175.282 56.9428 174.633 57.0953 174.062 57.4003C173.497 57.6988 173.05 58.1141 172.719 58.6463C172.394 59.1719 172.232 59.7721 172.232 60.447V69.9082H169.935ZM193.214 70.2197C191.968 70.2197 190.868 69.905 189.914 69.2755C188.96 68.6396 188.214 67.7441 187.675 66.589C187.137 65.4274 186.867 64.055 186.867 62.4716C186.867 60.9012 187.137 59.5385 187.675 58.3834C188.214 57.2284 188.963 56.3361 189.924 55.7067C190.884 55.0772 191.994 54.7625 193.253 54.7625C194.226 54.7625 194.995 54.9247 195.56 55.2492C196.131 55.5671 196.566 55.9305 196.864 56.3394C197.169 56.7417 197.406 57.0726 197.575 57.3322H197.769V49.9735H200.066V69.9082H197.847V67.611H197.575C197.406 67.8836 197.166 68.2275 196.854 68.6428C196.543 69.0516 196.098 69.4183 195.521 69.7427C194.943 70.0607 194.174 70.2197 193.214 70.2197ZM193.525 68.1561C194.447 68.1561 195.226 67.916 195.861 67.4358C196.497 66.9491 196.981 66.2775 197.312 65.4209C197.643 64.5579 197.808 63.5618 197.808 62.4327C197.808 61.3165 197.646 60.3399 197.322 59.5028C196.997 58.6592 196.517 58.0038 195.881 57.5366C195.245 57.0629 194.46 56.826 193.525 56.826C192.552 56.826 191.741 57.0759 191.092 57.5755C190.449 58.0687 189.966 58.7403 189.642 59.5904C189.324 60.434 189.165 61.3814 189.165 62.4327C189.165 63.4969 189.327 64.4638 189.651 65.3333C189.982 66.1964 190.469 66.8843 191.111 67.3969C191.76 67.9031 192.565 68.1561 193.525 68.1561ZM204.456 69.9082V54.9572H206.753V69.9082H204.456ZM205.624 52.4653C205.176 52.4653 204.79 52.3128 204.465 52.0078C204.147 51.7028 203.988 51.3362 203.988 50.9079C203.988 50.4796 204.147 50.113 204.465 49.808C204.79 49.503 205.176 49.3505 205.624 49.3505C206.071 49.3505 206.454 49.503 206.772 49.808C207.097 50.113 207.259 50.4796 207.259 50.9079C207.259 51.3362 207.097 51.7028 206.772 52.0078C206.454 52.3128 206.071 52.4653 205.624 52.4653ZM216.469 70.2197C215.223 70.2197 214.123 69.905 213.169 69.2755C212.215 68.6396 211.469 67.7441 210.93 66.589C210.392 65.4274 210.122 64.055 210.122 62.4716C210.122 60.9012 210.392 59.5385 210.93 58.3834C211.469 57.2284 212.218 56.3361 213.179 55.7067C214.139 55.0772 215.249 54.7625 216.508 54.7625C217.481 54.7625 218.25 54.9247 218.815 55.2492C219.386 55.5671 219.82 55.9305 220.119 56.3394C220.424 56.7417 220.661 57.0726 220.829 57.3322H221.024V49.9735H223.321V69.9082H221.102V67.611H220.829C220.661 67.8836 220.421 68.2275 220.109 68.6428C219.798 69.0516 219.353 69.4183 218.776 69.7427C218.198 70.0607 217.429 70.2197 216.469 70.2197ZM216.78 68.1561C217.702 68.1561 218.48 67.916 219.116 67.4358C219.752 66.9491 220.236 66.2775 220.567 65.4209C220.898 64.5579 221.063 63.5618 221.063 62.4327C221.063 61.3165 220.901 60.3399 220.576 59.5028C220.252 58.6592 219.772 58.0038 219.136 57.5366C218.5 57.0629 217.715 56.826 216.78 56.826C215.807 56.826 214.996 57.0759 214.347 57.5755C213.704 58.0687 213.221 58.7403 212.896 59.5904C212.578 60.434 212.419 61.3814 212.419 62.4327C212.419 63.4969 212.582 64.4638 212.906 65.3333C213.237 66.1964 213.724 66.8843 214.366 67.3969C215.015 67.9031 215.82 68.1561 216.78 68.1561ZM238.008 49.9735V69.9082H235.594V49.9735H238.008ZM259.394 63.7954V54.9572H261.691V69.9082H259.394V67.3774H259.238C258.888 68.1367 258.343 68.7823 257.603 69.3144C256.863 69.8401 255.929 70.1029 254.8 70.1029C253.865 70.1029 253.034 69.8985 252.308 69.4897C251.581 69.0743 251.01 68.4514 250.595 67.6208C250.179 66.7837 249.972 65.7292 249.972 64.4573V54.9572H252.269V64.3016C252.269 65.3917 252.574 66.2613 253.184 66.9102C253.8 67.5591 254.585 67.8836 255.539 67.8836C256.11 67.8836 256.691 67.7376 257.282 67.4456C257.879 67.1536 258.378 66.7058 258.781 66.1023C259.189 65.4988 259.394 64.7298 259.394 63.7954ZM276.352 58.3056L274.288 58.8896C274.158 58.5457 273.967 58.2115 273.714 57.887C273.467 57.5561 273.13 57.2835 272.702 57.0694C272.273 56.8552 271.725 56.7482 271.057 56.7482C270.142 56.7482 269.379 56.9591 268.769 57.3809C268.166 57.7962 267.864 58.325 267.864 58.9675C267.864 59.5385 268.072 59.9895 268.487 60.3205C268.902 60.6514 269.551 60.9272 270.434 61.1478L272.653 61.6929C273.99 62.0174 274.986 62.5138 275.641 63.1822C276.297 63.8441 276.624 64.6974 276.624 65.7422C276.624 66.5987 276.378 67.3644 275.884 68.0393C275.398 68.7142 274.716 69.2463 273.84 69.6357C272.964 70.025 271.946 70.2197 270.784 70.2197C269.259 70.2197 267.997 69.8887 266.998 69.2268C265.998 68.5649 265.366 67.5981 265.099 66.3262L267.28 65.7811C267.487 66.5857 267.88 67.1892 268.458 67.5916C269.042 67.9939 269.804 68.1951 270.745 68.1951C271.816 68.1951 272.666 67.9679 273.295 67.5137C273.931 67.053 274.249 66.5014 274.249 65.859C274.249 65.3398 274.068 64.9051 273.704 64.5546C273.341 64.1977 272.783 63.9317 272.03 63.7565L269.538 63.1724C268.169 62.848 267.163 62.3451 266.521 61.6637C265.885 60.9759 265.567 60.116 265.567 59.0843C265.567 58.2407 265.804 57.4944 266.277 56.8455C266.757 56.1966 267.41 55.6872 268.234 55.3173C269.064 54.9474 270.005 54.7625 271.057 54.7625C272.536 54.7625 273.698 55.0869 274.541 55.7359C275.391 56.3848 275.995 57.2413 276.352 58.3056ZM286.214 70.2197C284.773 70.2197 283.53 69.9017 282.486 69.2658C281.447 68.6233 280.646 67.7278 280.081 66.5793C279.523 65.4242 279.244 64.0809 279.244 62.5495C279.244 61.018 279.523 59.6683 280.081 58.5002C280.646 57.3257 281.431 56.4107 282.437 55.7553C283.449 55.0934 284.63 54.7625 285.98 54.7625C286.759 54.7625 287.528 54.8923 288.287 55.1518C289.046 55.4114 289.737 55.8332 290.36 56.4172C290.983 56.9948 291.48 57.7605 291.849 58.7144C292.219 59.6683 292.404 60.8428 292.404 62.238V63.2114H280.88V61.2257H290.068C290.068 60.3821 289.899 59.6294 289.562 58.9675C289.231 58.3056 288.757 57.7832 288.141 57.4003C287.531 57.0175 286.811 56.826 285.98 56.826C285.065 56.826 284.273 57.0532 283.605 57.5074C282.943 57.9552 282.434 58.5392 282.077 59.2595C281.72 59.9798 281.541 60.752 281.541 61.5761V62.8999C281.541 64.029 281.736 64.9862 282.125 65.7714C282.521 66.5501 283.07 67.1438 283.77 67.5526C284.471 67.955 285.286 68.1561 286.214 68.1561C286.817 68.1561 287.362 68.0718 287.849 67.903C288.342 67.7278 288.767 67.4683 289.124 67.1243C289.481 66.7739 289.757 66.3392 289.951 65.82L292.171 66.443C291.937 67.1957 291.545 67.8576 290.993 68.4287C290.441 68.9932 289.76 69.4345 288.949 69.7525C288.138 70.0639 287.226 70.2197 286.214 70.2197ZM298.76 64.3016V64.1848C298.773 62.9453 298.902 61.959 299.149 61.2257C299.396 60.4924 299.746 59.8987 300.2 59.4444C300.655 58.9902 301.2 58.5716 301.836 58.1888C302.218 57.9552 302.562 57.6794 302.867 57.3614C303.172 57.0369 303.412 56.6638 303.588 56.242C303.769 55.8202 303.86 55.353 303.86 54.8404C303.86 54.2044 303.711 53.6528 303.412 53.1856C303.114 52.7184 302.715 52.3582 302.215 52.1052C301.715 51.8521 301.161 51.7256 300.551 51.7256C300.019 51.7256 299.506 51.8359 299.013 52.0565C298.52 52.2771 298.108 52.6243 297.777 53.098C297.446 53.5717 297.254 54.1914 297.202 54.9572H294.749C294.801 53.854 295.087 52.9098 295.606 52.1246C296.132 51.3394 296.823 50.7392 297.679 50.3239C298.542 49.9086 299.499 49.7009 300.551 49.7009C301.693 49.7009 302.686 49.9281 303.529 50.3823C304.379 50.8365 305.035 51.4595 305.495 52.2512C305.963 53.0429 306.196 53.9448 306.196 54.9572C306.196 55.671 306.086 56.3166 305.865 56.8942C305.651 57.4717 305.34 57.9876 304.931 58.4418C304.529 58.8961 304.042 59.2984 303.471 59.6488C302.9 60.0057 302.442 60.3821 302.098 60.7779C301.754 61.1673 301.505 61.6313 301.349 62.1699C301.193 62.7085 301.109 63.3801 301.096 64.1848V64.3016H298.76ZM300.006 70.0639C299.525 70.0639 299.113 69.892 298.769 69.5481C298.425 69.2041 298.254 68.7921 298.254 68.3119C298.254 67.8317 298.425 67.4196 298.769 67.0757C299.113 66.7318 299.525 66.5598 300.006 66.5598C300.486 66.5598 300.898 66.7318 301.242 67.0757C301.586 67.4196 301.758 67.8317 301.758 68.3119C301.758 68.6298 301.677 68.9218 301.514 69.1879C301.359 69.454 301.148 69.6681 300.882 69.8303C300.622 69.9861 300.33 70.0639 300.006 70.0639Z" fill="white"/>
<path d="M330.585 20.0555C330.585 9.20162 321.787 0.402832 310.933 0.402832V28.8474H330.585V20.0555Z" fill="#278EFF" stroke="#278EFF" stroke-width="0.805851"/>
<rect width="19.6526" height="32.1217" transform="matrix(-1 0 0 1 330.585 28.8477)" fill="#278EFF" stroke="#278EFF" stroke-width="0.805851"/>
<path d="M310.933 60.9692V89.4136C315.692 89.4136 320.056 87.7211 323.457 84.9058C326.849 87.1658 332.288 89.3156 338.86 88.1206C337.05 87.3447 330.069 82.6904 330.327 73.3813C330.296 73.4236 330.262 73.463 330.229 73.5034C330.462 72.2919 330.586 71.0409 330.586 69.7612V60.9692H310.933Z" fill="#278EFF"/>
<path d="M310.933 60.9692H310.53V60.5663H310.933V60.9692ZM310.933 89.4136V89.8165H310.53V89.4136H310.933ZM323.457 84.9058L323.2 84.5954L323.431 84.4042L323.68 84.5704L323.457 84.9058ZM338.86 88.1206L339.019 87.7503L340.249 88.2776L338.932 88.517L338.86 88.1206ZM330.327 73.3813L330.001 73.1444L330.766 72.0928L330.73 73.3925L330.327 73.3813ZM330.229 73.5034L330.539 73.7597L329.833 73.4271L330.229 73.5034ZM330.586 69.7612H330.989H330.586ZM330.586 60.9692V60.5663H330.989V60.9692H330.586ZM310.933 60.9692H311.336V89.4136H310.933H310.53V60.9692H310.933ZM310.933 89.4136V89.0106C315.595 89.0106 319.869 87.3532 323.2 84.5954L323.457 84.9058L323.714 85.2161C320.244 88.0891 315.79 89.8165 310.933 89.8165V89.4136ZM323.457 84.9058L323.68 84.5704C327.01 86.789 332.344 88.8958 338.788 87.7242L338.86 88.1206L338.932 88.517C332.232 89.7353 326.688 87.5427 323.234 85.2411L323.457 84.9058ZM338.86 88.1206L338.702 88.4909C337.735 88.0766 335.484 86.6779 333.503 84.2026C331.515 81.7174 329.792 78.1359 329.924 73.3702L330.327 73.3813L330.73 73.3925C330.604 77.9358 332.242 81.336 334.133 83.6992C336.031 86.0723 338.176 87.3888 339.019 87.7503L338.86 88.1206ZM330.327 73.3813L330.653 73.6183C330.613 73.6737 330.562 73.7323 330.539 73.7597L330.229 73.5034L329.918 73.2472C329.962 73.1938 329.98 73.1735 330.001 73.1444L330.327 73.3813ZM330.229 73.5034L329.833 73.4271C330.062 72.2403 330.183 71.0149 330.183 69.7612H330.586H330.989C330.989 71.067 330.862 72.3435 330.624 73.5797L330.229 73.5034ZM330.586 69.7612H330.183V60.9692H330.586H330.989V69.7612H330.586ZM330.586 60.9692V61.3722H310.933V60.9692V60.5663H330.586V60.9692Z" fill="#278EFF"/>
</svg>
