<svg width="341" height="120" viewBox="0 0 341 120" fill="none" xmlns="http://www.w3.org/2000/svg">
<path d="M9.66406 20.0556C9.66406 9.20175 18.4628 0.402954 29.3167 0.402954V28.8475H9.66406V20.0556Z" fill="#278EFF" stroke="#278EFF" stroke-width="0.805851"/>
<rect x="9.66406" y="28.8474" width="19.6526" height="62.1217" fill="#278EFF" stroke="#278EFF" stroke-width="0.805851"/>
<path d="M29.3169 90.9692V119.414C24.5572 119.414 20.1931 117.721 16.7925 114.906C13.4001 117.166 7.96139 119.316 1.38916 118.121C3.19942 117.345 10.1809 112.69 9.92236 103.381C9.95309 103.424 9.98772 103.463 10.021 103.503C9.78742 102.292 9.66357 101.041 9.66357 99.7612V90.9692H29.3169Z" fill="#278EFF"/>
<path d="M29.3169 90.9692H29.7198V90.5663H29.3169V90.9692ZM29.3169 119.414V119.816H29.7198V119.414H29.3169ZM16.7925 114.906L17.0494 114.595L16.8185 114.404L16.5691 114.57L16.7925 114.906ZM1.38916 118.121L1.23043 117.75L0.000112771 118.278L1.31708 118.517L1.38916 118.121ZM9.92236 103.381L10.2482 103.144L9.48349 102.093L9.51959 103.393L9.92236 103.381ZM10.021 103.503L9.71006 103.76L10.4166 103.427L10.021 103.503ZM9.66357 99.7612L9.26065 99.7612L9.26065 99.7612L9.66357 99.7612ZM9.66357 90.9692V90.5663H9.26065V90.9692H9.66357ZM29.3169 90.9692H28.914V119.414H29.3169H29.7198V90.9692H29.3169ZM29.3169 119.414V119.011C24.6545 119.011 20.3805 117.353 17.0494 114.595L16.7925 114.906L16.5355 115.216C20.0057 118.089 24.46 119.816 29.3169 119.816V119.414ZM16.7925 114.906L16.5691 114.57C13.2391 116.789 7.90505 118.896 1.46124 117.724L1.38916 118.121L1.31708 118.517C8.01773 119.735 13.5612 117.543 17.0159 115.241L16.7925 114.906ZM1.38916 118.121L1.54789 118.491C2.51474 118.077 4.76599 116.678 6.74621 114.203C8.73435 111.717 10.4575 108.136 10.3251 103.37L9.92236 103.381L9.51959 103.393C9.6458 107.936 8.00749 111.336 6.11695 113.699C4.21849 116.072 2.07385 117.389 1.23043 117.75L1.38916 118.121ZM9.92236 103.381L9.5965 103.618C9.63679 103.674 9.68751 103.732 9.71006 103.76L10.021 103.503L10.3319 103.247C10.2879 103.194 10.2694 103.173 10.2482 103.144L9.92236 103.381ZM10.021 103.503L10.4166 103.427C10.1878 102.24 10.0665 101.015 10.0665 99.7612L9.66357 99.7612L9.26065 99.7612C9.26065 101.067 9.38702 102.343 9.62536 103.58L10.021 103.503ZM9.66357 99.7612H10.0665V90.9692H9.66357H9.26065V99.7612H9.66357ZM9.66357 90.9692V91.3722H29.3169V90.9692V90.5663H9.66357V90.9692Z" fill="#278EFF"/>
<rect x="29.3164" y="0.402954" width="290.877" height="119.011" fill="#278EFF"/>
<rect x="29.3164" y="0.402954" width="290.877" height="119.011" stroke="#278EFF" stroke-width="0.805851"/>
<path d="M34.1443 19.9736V39.9083H31.7304V19.9736H34.1443ZM56.6983 28.3057L54.6348 28.8897C54.505 28.5458 54.3136 28.2116 54.0605 27.8871C53.8139 27.5562 53.4765 27.2836 53.0482 27.0695C52.6199 26.8554 52.0716 26.7483 51.4032 26.7483C50.4882 26.7483 49.7257 26.9592 49.1157 27.381C48.5122 27.7963 48.2105 28.3252 48.2105 28.9676C48.2105 29.5386 48.4181 29.9896 48.8335 30.3206C49.2488 30.6515 49.8977 30.9273 50.7802 31.1479L52.9995 31.693C54.3363 32.0175 55.3324 32.5139 55.9878 33.1823C56.6432 33.8442 56.9709 34.6975 56.9709 35.7423C56.9709 36.5988 56.7243 37.3646 56.2311 38.0394C55.7444 38.7143 55.0631 39.2464 54.187 39.6358C53.311 40.0251 52.2922 40.2198 51.1306 40.2198C49.6057 40.2198 48.3435 39.8889 47.3442 39.227C46.3449 38.5651 45.7122 37.5982 45.4461 36.3263L47.6265 35.7812C47.8341 36.5859 48.2267 37.1894 48.8043 37.5917C49.3883 37.994 50.1508 38.1952 51.0917 38.1952C52.1624 38.1952 53.0125 37.9681 53.6419 37.5138C54.2779 37.0531 54.5958 36.5015 54.5958 35.8591C54.5958 35.34 54.4141 34.9052 54.0507 34.5548C53.6874 34.1979 53.1293 33.9318 52.3765 33.7566L49.8847 33.1726C48.5155 32.8481 47.5097 32.3452 46.8672 31.6638C46.2313 30.976 45.9133 30.1162 45.9133 29.0844C45.9133 28.2408 46.1502 27.4945 46.6239 26.8456C47.1041 26.1967 47.7563 25.6873 48.5804 25.3174C49.411 24.9475 50.3519 24.7626 51.4032 24.7626C52.8827 24.7626 54.0443 25.0871 54.8879 25.736C55.7379 26.3849 56.3414 27.2415 56.6983 28.3057ZM66.5603 40.2198C65.1197 40.2198 63.877 39.9018 62.8322 39.2659C61.794 38.6235 60.9926 37.728 60.428 36.5794C59.8699 35.4243 59.5909 34.0811 59.5909 32.5496C59.5909 31.0182 59.8699 29.6684 60.428 28.5004C60.9926 27.3258 61.7778 26.4109 62.7836 25.7554C63.7959 25.0936 64.9769 24.7626 66.3267 24.7626C67.1054 24.7626 67.8743 24.8924 68.6336 25.152C69.3928 25.4115 70.0839 25.8333 70.7069 26.4173C71.3298 26.9949 71.8262 27.7606 72.1961 28.7145C72.566 29.6684 72.7509 30.843 72.7509 32.2381V33.2115H61.2262V31.2258H70.4148C70.4148 30.3822 70.2461 29.6295 69.9087 28.9676C69.5777 28.3057 69.104 27.7833 68.4876 27.4005C67.8776 27.0176 67.1573 26.8262 66.3267 26.8262C65.4117 26.8262 64.62 27.0533 63.9516 27.5075C63.2897 27.9553 62.7803 28.5393 62.4234 29.2596C62.0665 29.9799 61.8881 30.7521 61.8881 31.5762V32.9C61.8881 34.0291 62.0827 34.9863 62.4721 35.7715C62.8679 36.5502 63.4163 37.1439 64.1171 37.5528C64.8179 37.9551 65.6323 38.1562 66.5603 38.1562C67.1638 38.1562 67.7089 38.0719 68.1955 37.9032C68.6887 37.728 69.1138 37.4684 69.4707 37.1245C69.8276 36.7741 70.1034 36.3393 70.298 35.8201L72.5173 36.4431C72.2837 37.1959 71.8911 37.8577 71.3395 38.4288C70.788 38.9934 70.1066 39.4346 69.2955 39.7526C68.4843 40.0641 67.5726 40.2198 66.5603 40.2198ZM80.508 40.2587C79.5605 40.2587 78.7007 40.0803 77.9285 39.7234C77.1563 39.36 76.5431 38.8376 76.0888 38.1562C75.6346 37.4684 75.4075 36.6378 75.4075 35.6644C75.4075 34.8078 75.5762 34.1135 75.9136 33.5814C76.2511 33.0428 76.7021 32.621 77.2666 32.316C77.8312 32.011 78.4541 31.7839 79.1355 31.6346C79.8234 31.4789 80.5145 31.3556 81.2088 31.2648C82.1173 31.1479 82.8538 31.0603 83.4184 31.0019C83.9894 30.937 84.4047 30.83 84.6643 30.6807C84.9303 30.5315 85.0634 30.2719 85.0634 29.902V29.8242C85.0634 28.8638 84.8005 28.1175 84.2749 27.5854C83.7558 27.0533 82.9674 26.7872 81.9096 26.7872C80.813 26.7872 79.9531 27.0273 79.3302 27.5075C78.7072 27.9877 78.2692 28.5004 78.0161 29.0455L75.8358 28.2668C76.2251 27.3583 76.7442 26.651 77.3932 26.1448C78.0486 25.6322 78.7624 25.2752 79.5346 25.0741C80.3133 24.8664 81.079 24.7626 81.8318 24.7626C82.312 24.7626 82.8635 24.821 83.4865 24.9378C84.1159 25.0481 84.7227 25.2785 85.3067 25.6289C85.8972 25.9793 86.3872 26.5082 86.7765 27.2155C87.1659 27.9228 87.3605 28.8702 87.3605 30.0578V39.9083H85.0634V37.8837H84.9466C84.7908 38.2082 84.5312 38.5553 84.1679 38.9252C83.8045 39.2951 83.321 39.6098 82.7175 39.8694C82.114 40.129 81.3775 40.2587 80.508 40.2587ZM80.8584 38.1952C81.7669 38.1952 82.5326 38.0167 83.1555 37.6598C83.785 37.3029 84.2587 36.8422 84.5767 36.2776C84.9011 35.7131 85.0634 35.1193 85.0634 34.4964V32.3939C84.966 32.5107 84.7519 32.6177 84.4209 32.7151C84.0965 32.8059 83.7201 32.887 83.2918 32.9584C82.87 33.0233 82.458 33.0817 82.0556 33.1336C81.6598 33.1791 81.3386 33.218 81.092 33.2504C80.495 33.3283 79.9369 33.4548 79.4178 33.6301C78.9051 33.7988 78.4898 34.0551 78.1719 34.399C77.8604 34.7365 77.7046 35.1972 77.7046 35.7812C77.7046 36.5794 77.9999 37.1829 78.5904 37.5917C79.1874 37.994 79.9434 38.1952 80.8584 38.1952ZM91.4163 39.9083V24.9573H93.6356V27.2155H93.7913C94.0639 26.4757 94.557 25.8755 95.2709 25.4148C95.9847 24.954 96.7893 24.7237 97.6848 24.7237C97.8535 24.7237 98.0644 24.7269 98.3175 24.7334C98.5706 24.7399 98.762 24.7496 98.8918 24.7626V27.0987C98.8139 27.0792 98.6355 27.05 98.3565 27.0111C98.0839 26.9657 97.7951 26.943 97.4901 26.943C96.7634 26.943 96.1144 27.0955 95.5434 27.4005C94.9788 27.699 94.5311 28.1143 94.2001 28.6464C93.8757 29.172 93.7135 29.7722 93.7135 30.4471V39.9083H91.4163ZM107.097 40.2198C105.695 40.2198 104.488 39.8889 103.476 39.227C102.463 38.5651 101.685 37.6533 101.14 36.4918C100.594 35.3302 100.322 34.0032 100.322 32.5107C100.322 30.9922 100.601 29.6522 101.159 28.4906C101.724 27.3226 102.509 26.4109 103.515 25.7554C104.527 25.0936 105.708 24.7626 107.058 24.7626C108.109 24.7626 109.056 24.9573 109.9 25.3466C110.744 25.736 111.435 26.2811 111.973 26.9819C112.512 27.6827 112.846 28.5004 112.976 29.4348H110.679C110.503 28.7534 110.114 28.15 109.511 27.6243C108.914 27.0922 108.109 26.8262 107.097 26.8262C106.201 26.8262 105.416 27.0598 104.741 27.527C104.073 27.9877 103.55 28.6399 103.174 29.4835C102.804 30.3206 102.619 31.3037 102.619 32.4328C102.619 33.5879 102.801 34.5937 103.164 35.4503C103.534 36.3068 104.053 36.972 104.722 37.4457C105.396 37.9194 106.188 38.1562 107.097 38.1562C107.694 38.1562 108.235 38.0524 108.722 37.8448C109.209 37.6371 109.621 37.3386 109.958 36.9493C110.296 36.5599 110.536 36.0927 110.679 35.5476H112.976C112.846 36.4301 112.525 37.2251 112.012 37.9324C111.506 38.6332 110.834 39.1913 109.997 39.6066C109.167 40.0154 108.2 40.2198 107.097 40.2198ZM118.494 30.9143V39.9083H116.197V19.9736H118.494V27.2934H118.689C119.039 26.5212 119.565 25.9079 120.266 25.4537C120.973 24.993 121.914 24.7626 123.088 24.7626C124.107 24.7626 124.999 24.967 125.765 25.3758C126.531 25.7782 127.125 26.3979 127.546 27.235C127.975 28.0656 128.189 29.1233 128.189 30.4082V39.9083H125.892V30.5639C125.892 29.3764 125.583 28.4582 124.967 27.8093C124.357 27.1539 123.51 26.8262 122.426 26.8262C121.674 26.8262 120.999 26.9851 120.402 27.3031C119.811 27.6211 119.344 28.0851 119 28.695C118.663 29.305 118.494 30.0448 118.494 30.9143ZM138.523 40.2198C137.082 40.2198 135.84 39.9018 134.795 39.2659C133.757 38.6235 132.955 37.728 132.391 36.5794C131.833 35.4243 131.554 34.0811 131.554 32.5496C131.554 31.0182 131.833 29.6684 132.391 28.5004C132.955 27.3258 133.74 26.4109 134.746 25.7554C135.758 25.0936 136.94 24.7626 138.289 24.7626C139.068 24.7626 139.837 24.8924 140.596 25.152C141.355 25.4115 142.047 25.8333 142.669 26.4173C143.292 26.9949 143.789 27.7606 144.159 28.7145C144.529 29.6684 144.714 30.843 144.714 32.2381V33.2115H133.189V31.2258H142.377C142.377 30.3822 142.209 29.6295 141.871 28.9676C141.54 28.3057 141.067 27.7833 140.45 27.4005C139.84 27.0176 139.12 26.8262 138.289 26.8262C137.374 26.8262 136.583 27.0533 135.914 27.5075C135.252 27.9553 134.743 28.5393 134.386 29.2596C134.029 29.9799 133.851 30.7521 133.851 31.5762V32.9C133.851 34.0291 134.045 34.9863 134.435 35.7715C134.831 36.5502 135.379 37.1439 136.08 37.5528C136.781 37.9551 137.595 38.1562 138.523 38.1562C139.126 38.1562 139.671 38.0719 140.158 37.9032C140.651 37.728 141.076 37.4684 141.433 37.1245C141.79 36.7741 142.066 36.3393 142.261 35.8201L144.48 36.4431C144.246 37.1959 143.854 37.8577 143.302 38.4288C142.751 38.9934 142.069 39.4346 141.258 39.7526C140.447 40.0641 139.535 40.2198 138.523 40.2198ZM153.716 40.2198C152.471 40.2198 151.371 39.9051 150.417 39.2756C149.463 38.6397 148.717 37.7442 148.178 36.5891C147.639 35.4276 147.37 34.0551 147.37 32.4717C147.37 30.9014 147.639 29.5386 148.178 28.3836C148.717 27.2285 149.466 26.3362 150.426 25.7068C151.387 25.0773 152.497 24.7626 153.755 24.7626C154.729 24.7626 155.498 24.9248 156.062 25.2493C156.633 25.5673 157.068 25.9307 157.367 26.3395C157.672 26.7418 157.908 27.0727 158.077 27.3323H158.272V19.9736H160.569V39.9083H158.35V37.6112H158.077C157.908 37.8837 157.668 38.2276 157.357 38.6429C157.045 39.0518 156.601 39.4184 156.023 39.7429C155.446 40.0608 154.677 40.2198 153.716 40.2198ZM154.028 38.1562C154.949 38.1562 155.728 37.9162 156.364 37.436C157 36.9493 157.483 36.2776 157.814 35.4211C158.145 34.558 158.311 33.5619 158.311 32.4328C158.311 31.3167 158.149 30.34 157.824 29.5029C157.5 28.6594 157.019 28.0039 156.384 27.5367C155.748 27.063 154.962 26.8262 154.028 26.8262C153.055 26.8262 152.243 27.076 151.595 27.5757C150.952 28.0688 150.469 28.7405 150.144 29.5905C149.826 30.4341 149.667 31.3816 149.667 32.4328C149.667 33.497 149.829 34.4639 150.154 35.3335C150.485 36.1965 150.972 36.8844 151.614 37.397C152.263 37.9032 153.068 38.1562 154.028 38.1562ZM171.752 26.2032V24.4511C171.752 23.919 171.846 23.3545 172.034 22.7575C172.229 22.154 172.508 21.5732 172.871 21.0151C173.241 20.4506 173.685 19.9606 174.204 19.5453L175.45 20.5576C175.042 21.1416 174.685 21.7516 174.38 22.3876C174.081 23.017 173.932 23.6919 173.932 24.4122V26.2032H171.752ZM177.854 39.9083V24.9573H180.073V27.2155H180.229C180.501 26.4757 180.995 25.8755 181.708 25.4148C182.422 24.954 183.227 24.7237 184.122 24.7237C184.291 24.7237 184.502 24.7269 184.755 24.7334C185.008 24.7399 185.2 24.7496 185.329 24.7626V27.0987C185.252 27.0792 185.073 27.05 184.794 27.0111C184.521 26.9657 184.233 26.943 183.928 26.943C183.201 26.943 182.552 27.0955 181.981 27.4005C181.416 27.699 180.969 28.1143 180.638 28.6464C180.313 29.172 180.151 29.7722 180.151 30.4471V39.9083H177.854ZM193.729 40.2198C192.288 40.2198 191.046 39.9018 190.001 39.2659C188.963 38.6235 188.161 37.728 187.597 36.5794C187.038 35.4243 186.759 34.0811 186.759 32.5496C186.759 31.0182 187.038 29.6684 187.597 28.5004C188.161 27.3258 188.946 26.4109 189.952 25.7554C190.964 25.0936 192.145 24.7626 193.495 24.7626C194.274 24.7626 195.043 24.8924 195.802 25.152C196.561 25.4115 197.252 25.8333 197.875 26.4173C198.498 26.9949 198.995 27.7606 199.365 28.7145C199.735 29.6684 199.919 30.843 199.919 32.2381V33.2115H188.395V31.2258H197.583C197.583 30.3822 197.415 29.6295 197.077 28.9676C196.746 28.3057 196.273 27.7833 195.656 27.4005C195.046 27.0176 194.326 26.8262 193.495 26.8262C192.58 26.8262 191.789 27.0533 191.12 27.5075C190.458 27.9553 189.949 28.5393 189.592 29.2596C189.235 29.9799 189.057 30.7521 189.057 31.5762V32.9C189.057 34.0291 189.251 34.9863 189.641 35.7715C190.036 36.5502 190.585 37.1439 191.286 37.5528C191.986 37.9551 192.801 38.1562 193.729 38.1562C194.332 38.1562 194.877 38.0719 195.364 37.9032C195.857 37.728 196.282 37.4684 196.639 37.1245C196.996 36.7741 197.272 36.3393 197.467 35.8201L199.686 36.4431C199.452 37.1959 199.06 37.8577 198.508 38.4288C197.957 38.9934 197.275 39.4346 196.464 39.7526C195.653 40.0641 194.741 40.2198 193.729 40.2198ZM209.351 40.2198C207.949 40.2198 206.742 39.8889 205.73 39.227C204.717 38.5651 203.939 37.6533 203.394 36.4918C202.849 35.3302 202.576 34.0032 202.576 32.5107C202.576 30.9922 202.855 29.6522 203.413 28.4906C203.978 27.3226 204.763 26.4109 205.769 25.7554C206.781 25.0936 207.962 24.7626 209.312 24.7626C210.363 24.7626 211.31 24.9573 212.154 25.3466C212.998 25.736 213.689 26.2811 214.227 26.9819C214.766 27.6827 215.1 28.5004 215.23 29.4348H212.933C212.758 28.7534 212.368 28.15 211.765 27.6243C211.168 27.0922 210.363 26.8262 209.351 26.8262C208.455 26.8262 207.67 27.0598 206.995 27.527C206.327 27.9877 205.804 28.6399 205.428 29.4835C205.058 30.3206 204.873 31.3037 204.873 32.4328C204.873 33.5879 205.055 34.5937 205.418 35.4503C205.788 36.3068 206.307 36.972 206.976 37.4457C207.651 37.9194 208.442 38.1562 209.351 38.1562C209.948 38.1562 210.49 38.0524 210.976 37.8448C211.463 37.6371 211.875 37.3386 212.212 36.9493C212.55 36.5599 212.79 36.0927 212.933 35.5476H215.23C215.1 36.4301 214.779 37.2251 214.266 37.9324C213.76 38.6332 213.088 39.1913 212.251 39.6066C211.421 40.0154 210.454 40.2198 209.351 40.2198ZM218.451 39.9083V24.9573H220.748V39.9083H218.451ZM219.619 22.4654C219.171 22.4654 218.785 22.3129 218.461 22.008C218.143 21.703 217.984 21.3363 217.984 20.908C217.984 20.4798 218.143 20.1131 218.461 19.8081C218.785 19.5031 219.171 19.3506 219.619 19.3506C220.067 19.3506 220.45 19.5031 220.768 19.8081C221.092 20.1131 221.254 20.4798 221.254 20.908C221.254 21.3363 221.092 21.703 220.768 22.008C220.45 22.3129 220.067 22.4654 219.619 22.4654ZM224.819 45.515V24.9573H227.038V27.3323H227.31C227.479 27.0727 227.713 26.7418 228.011 26.3395C228.316 25.9307 228.751 25.5673 229.316 25.2493C229.887 24.9248 230.659 24.7626 231.632 24.7626C232.891 24.7626 234.001 25.0773 234.961 25.7068C235.922 26.3362 236.671 27.2285 237.21 28.3836C237.748 29.5386 238.018 30.9014 238.018 32.4717C238.018 34.0551 237.748 35.4276 237.21 36.5891C236.671 37.7442 235.925 38.6397 234.971 39.2756C234.017 39.9051 232.917 40.2198 231.671 40.2198C230.711 40.2198 229.942 40.0608 229.364 39.7429C228.787 39.4184 228.342 39.0518 228.031 38.6429C227.719 38.2276 227.479 37.8837 227.31 37.6112H227.116V45.515H224.819ZM227.077 32.4328C227.077 33.5619 227.242 34.558 227.573 35.4211C227.904 36.2776 228.388 36.9493 229.024 37.436C229.659 37.9162 230.438 38.1562 231.36 38.1562C232.32 38.1562 233.121 37.9032 233.764 37.397C234.413 36.8844 234.899 36.1965 235.224 35.3335C235.555 34.4639 235.72 33.497 235.72 32.4328C235.72 31.3816 235.558 30.4341 235.234 29.5905C234.916 28.7405 234.432 28.0688 233.783 27.5757C233.141 27.076 232.333 26.8262 231.36 26.8262C230.425 26.8262 229.64 27.063 229.004 27.5367C228.368 28.0039 227.888 28.6594 227.563 29.5029C227.239 30.34 227.077 31.3167 227.077 32.4328ZM247.653 40.2198C246.213 40.2198 244.97 39.9018 243.925 39.2659C242.887 38.6235 242.085 37.728 241.521 36.5794C240.963 35.4243 240.684 34.0811 240.684 32.5496C240.684 31.0182 240.963 29.6684 241.521 28.5004C242.085 27.3258 242.871 26.4109 243.876 25.7554C244.889 25.0936 246.07 24.7626 247.42 24.7626C248.198 24.7626 248.967 24.8924 249.726 25.152C250.486 25.4115 251.177 25.8333 251.8 26.4173C252.423 26.9949 252.919 27.7606 253.289 28.7145C253.659 29.6684 253.844 30.843 253.844 32.2381V33.2115H242.319V31.2258H251.508C251.508 30.3822 251.339 29.6295 251.002 28.9676C250.671 28.3057 250.197 27.7833 249.58 27.4005C248.97 27.0176 248.25 26.8262 247.42 26.8262C246.505 26.8262 245.713 27.0533 245.045 27.5075C244.383 27.9553 243.873 28.5393 243.516 29.2596C243.159 29.9799 242.981 30.7521 242.981 31.5762V32.9C242.981 34.0291 243.176 34.9863 243.565 35.7715C243.961 36.5502 244.509 37.1439 245.21 37.5528C245.911 37.9551 246.725 38.1562 247.653 38.1562C248.257 38.1562 248.802 38.0719 249.288 37.9032C249.782 37.728 250.207 37.4684 250.564 37.1245C250.92 36.7741 251.196 36.3393 251.391 35.8201L253.61 36.4431C253.377 37.1959 252.984 37.8577 252.432 38.4288C251.881 38.9934 251.199 39.4346 250.388 39.7526C249.577 40.0641 248.665 40.2198 247.653 40.2198ZM259.226 19.9736V21.7257C259.226 22.2578 259.128 22.8256 258.934 23.4291C258.746 24.0261 258.467 24.6069 258.097 25.1714C257.733 25.7295 257.292 26.2162 256.773 26.6315L255.527 25.6192C255.936 25.0352 256.289 24.4284 256.588 23.799C256.893 23.163 257.045 22.4849 257.045 21.7646V19.9736H259.226ZM269.695 39.9083V24.9573H271.992V39.9083H269.695ZM270.863 22.4654C270.416 22.4654 270.03 22.3129 269.705 22.008C269.387 21.703 269.228 21.3363 269.228 20.908C269.228 20.4798 269.387 20.1131 269.705 19.8081C270.03 19.5031 270.416 19.3506 270.863 19.3506C271.311 19.3506 271.694 19.5031 272.012 19.8081C272.336 20.1131 272.499 20.4798 272.499 20.908C272.499 21.3363 272.336 21.703 272.012 22.008C271.694 22.3129 271.311 22.4654 270.863 22.4654ZM278.36 30.9143V39.9083H276.063V24.9573H278.282V27.2934H278.477C278.827 26.5341 279.359 25.9242 280.073 25.4634C280.787 24.9962 281.708 24.7626 282.838 24.7626C283.85 24.7626 284.736 24.9703 285.495 25.3856C286.254 25.7944 286.845 26.4173 287.266 27.2544C287.688 28.0851 287.899 29.1363 287.899 30.4082V39.9083H285.602V30.5639C285.602 29.3894 285.297 28.4744 284.687 27.819C284.077 27.1571 283.24 26.8262 282.176 26.8262C281.442 26.8262 280.787 26.9851 280.209 27.3031C279.638 27.6211 279.187 28.0851 278.856 28.695C278.525 29.305 278.36 30.0448 278.36 30.9143ZM37.6874 70.2198C36.2468 70.2198 35.0042 69.9018 33.9594 69.2659C32.9211 68.6235 32.1197 67.728 31.5552 66.5794C30.9971 65.4243 30.7181 64.0811 30.7181 62.5496C30.7181 61.0182 30.9971 59.6684 31.5552 58.5004C32.1197 57.3258 32.9049 56.4109 33.9107 55.7554C34.923 55.0936 36.1041 54.7626 37.4538 54.7626C38.2325 54.7626 39.0015 54.8924 39.7607 55.152C40.52 55.4115 41.2111 55.8333 41.834 56.4173C42.457 56.9949 42.9534 57.7606 43.3233 58.7145C43.6932 59.6684 43.8781 60.843 43.8781 62.2381V63.2115H32.3533V61.2258H41.542C41.542 60.3822 41.3733 59.6295 41.0358 58.9676C40.7049 58.3057 40.2312 57.7833 39.6147 57.4005C39.0047 57.0176 38.2844 56.8262 37.4538 56.8262C36.5389 56.8262 35.7472 57.0533 35.0788 57.5075C34.4169 57.9553 33.9075 58.5393 33.5506 59.2596C33.1937 59.9799 33.0152 60.7521 33.0152 61.5762V62.9C33.0152 64.0291 33.2099 64.9863 33.5993 65.7715C33.9951 66.5502 34.5434 67.1439 35.2443 67.5528C35.9451 67.9551 36.7595 68.1562 37.6874 68.1562C38.2909 68.1562 38.836 68.0719 39.3227 67.9032C39.8159 67.728 40.2409 67.4684 40.5978 67.1245C40.9547 66.7741 41.2305 66.3393 41.4252 65.8201L43.6445 66.4431C43.4109 67.1959 43.0183 67.8577 42.4667 68.4288C41.9151 68.9934 41.2338 69.4346 40.4226 69.7526C39.6115 70.0641 38.6997 70.2198 37.6874 70.2198ZM47.2355 69.9083V54.9573H49.4548V57.2934H49.6494C49.9609 56.4952 50.4638 55.8755 51.1582 55.4342C51.8525 54.9865 52.6864 54.7626 53.6597 54.7626C54.6461 54.7626 55.467 54.9865 56.1224 55.4342C56.7843 55.8755 57.3002 56.4952 57.67 57.2934H57.8258C58.2087 56.5212 58.7829 55.9079 59.5487 55.4537C60.3144 54.993 61.2326 54.7626 62.3033 54.7626C63.6401 54.7626 64.7335 55.1812 65.5836 56.0183C66.4337 56.8489 66.8587 58.1435 66.8587 59.902V69.9083H64.5615V59.902C64.5615 58.7989 64.2598 58.0104 63.6563 57.5367C63.0528 57.063 62.3423 56.8262 61.5246 56.8262C60.4734 56.8262 59.659 57.1441 59.0814 57.7801C58.5039 58.4095 58.2151 59.2077 58.2151 60.1746V69.9083H55.879V59.6684C55.879 58.8183 55.6032 58.1337 55.0517 57.6146C54.5001 57.089 53.7895 56.8262 52.92 56.8262C52.323 56.8262 51.7649 56.9851 51.2458 57.3031C50.7331 57.6211 50.3178 58.0623 49.9999 58.6269C49.6884 59.185 49.5326 59.8306 49.5326 60.5639V69.9083H47.2355ZM75.3214 70.2587C74.374 70.2587 73.5142 70.0803 72.742 69.7234C71.9698 69.36 71.3566 68.8376 70.9023 68.1562C70.4481 67.4684 70.2209 66.6378 70.2209 65.6644C70.2209 64.8078 70.3897 64.1135 70.7271 63.5814C71.0645 63.0428 71.5155 62.621 72.0801 62.316C72.6447 62.011 73.2676 61.7839 73.949 61.6346C74.6368 61.4789 75.3279 61.3556 76.0223 61.2648C76.9307 61.1479 77.6673 61.0603 78.2318 61.0019C78.8029 60.937 79.2182 60.83 79.4777 60.6807C79.7438 60.5315 79.8768 60.2719 79.8768 59.902V59.8242C79.8768 58.8638 79.614 58.1175 79.0884 57.5854C78.5693 57.0533 77.7808 56.7872 76.7231 56.7872C75.6264 56.7872 74.7666 57.0273 74.1436 57.5075C73.5207 57.9877 73.0827 58.5004 72.8296 59.0455L70.6492 58.2668C71.0386 57.3583 71.5577 56.651 72.2066 56.1448C72.862 55.6322 73.5758 55.2752 74.3481 55.0741C75.1268 54.8664 75.8925 54.7626 76.6452 54.7626C77.1254 54.7626 77.677 54.821 78.3 54.9378C78.9294 55.0481 79.5361 55.2785 80.1202 55.6289C80.7107 55.9793 81.2006 56.5082 81.59 57.2155C81.9793 57.9228 82.174 58.8702 82.174 60.0578V69.9083H79.8768V67.8837H79.76C79.6043 68.2082 79.3447 68.5553 78.9813 68.9252C78.6179 69.2951 78.1345 69.6098 77.531 69.8694C76.9275 70.129 76.191 70.2587 75.3214 70.2587ZM75.6718 68.1952C76.5803 68.1952 77.3461 68.0167 77.969 67.6598C78.5985 67.3029 79.0722 66.8422 79.3901 66.2776C79.7146 65.7131 79.8768 65.1193 79.8768 64.4964V62.3939C79.7795 62.5107 79.5653 62.6177 79.2344 62.7151C78.9099 62.8059 78.5336 62.887 78.1053 62.9584C77.6835 63.0233 77.2714 63.0817 76.8691 63.1336C76.4733 63.1791 76.152 63.218 75.9055 63.2504C75.3085 63.3283 74.7504 63.4548 74.2313 63.6301C73.7186 63.7988 73.3033 64.0551 72.9853 64.399C72.6739 64.7365 72.5181 65.1972 72.5181 65.7812C72.5181 66.5794 72.8134 67.1829 73.4039 67.5917C74.0009 67.994 74.7569 68.1952 75.6718 68.1952ZM86.2298 69.9083V54.9573H88.5269V69.9083H86.2298ZM87.3978 52.4654C86.9501 52.4654 86.5639 52.3129 86.2395 52.008C85.9215 51.703 85.7625 51.3363 85.7625 50.908C85.7625 50.4798 85.9215 50.1131 86.2395 49.8081C86.5639 49.5031 86.9501 49.3506 87.3978 49.3506C87.8456 49.3506 88.2284 49.5031 88.5464 49.8081C88.8708 50.1131 89.0331 50.4798 89.0331 50.908C89.0331 51.3363 88.8708 51.703 88.5464 52.008C88.2284 52.3129 87.8456 52.4654 87.3978 52.4654ZM94.8945 49.9736V69.9083H92.5973V49.9736H94.8945ZM109.555 58.3057L107.492 58.8897C107.362 58.5458 107.17 58.2116 106.917 57.8871C106.671 57.5562 106.333 57.2836 105.905 57.0695C105.477 56.8554 104.928 56.7483 104.26 56.7483C103.345 56.7483 102.583 56.9592 101.973 57.381C101.369 57.7963 101.067 58.3252 101.067 58.9676C101.067 59.5386 101.275 59.9896 101.69 60.3206C102.106 60.6515 102.754 60.9273 103.637 61.1479L105.856 61.693C107.193 62.0175 108.189 62.5139 108.845 63.1823C109.5 63.8442 109.828 64.6975 109.828 65.7423C109.828 66.5988 109.581 67.3646 109.088 68.0394C108.601 68.7143 107.92 69.2464 107.044 69.6358C106.168 70.0251 105.149 70.2198 103.987 70.2198C102.462 70.2198 101.2 69.8889 100.201 69.227C99.2017 68.5651 98.569 67.5982 98.3029 66.3263L100.483 65.7812C100.691 66.5859 101.084 67.1894 101.661 67.5917C102.245 67.994 103.008 68.1952 103.949 68.1952C105.019 68.1952 105.869 67.9681 106.499 67.5138C107.135 67.0531 107.453 66.5015 107.453 65.8591C107.453 65.34 107.271 64.9052 106.908 64.5548C106.544 64.1979 105.986 63.9318 105.233 63.7566L102.742 63.1726C101.372 62.8481 100.366 62.3452 99.7241 61.6638C99.0881 60.976 98.7701 60.1162 98.7701 59.0844C98.7701 58.2408 99.007 57.4945 99.4807 56.8456C99.9609 56.1967 100.613 55.6873 101.437 55.3174C102.268 54.9475 103.209 54.7626 104.26 54.7626C105.74 54.7626 106.901 55.0871 107.745 55.736C108.595 56.3849 109.198 57.2415 109.555 58.3057ZM116.575 67.1829L116.419 68.2341C116.309 68.9739 116.14 69.7656 115.913 70.6092C115.692 71.4527 115.462 72.2477 115.222 72.9939C114.982 73.7402 114.784 74.3339 114.628 74.7752H112.876C112.96 74.3599 113.071 73.8116 113.207 73.1302C113.343 72.4488 113.479 71.6864 113.616 70.8428C113.759 70.0057 113.875 69.1491 113.966 68.2731L114.083 67.1829H116.575ZM128.577 69.9083V49.9736H130.875V57.3323H131.069C131.238 57.0727 131.472 56.7418 131.77 56.3395C132.075 55.9307 132.51 55.5673 133.074 55.2493C133.645 54.9248 134.418 54.7626 135.391 54.7626C136.65 54.7626 137.76 55.0773 138.72 55.7068C139.68 56.3362 140.43 57.2285 140.968 58.3836C141.507 59.5386 141.776 60.9014 141.776 62.4717C141.776 64.0551 141.507 65.4276 140.968 66.5891C140.43 67.7442 139.684 68.6397 138.73 69.2756C137.776 69.9051 136.676 70.2198 135.43 70.2198C134.47 70.2198 133.701 70.0608 133.123 69.7429C132.546 69.4184 132.101 69.0518 131.79 68.6429C131.478 68.2276 131.238 67.8837 131.069 67.6112H130.797V69.9083H128.577ZM130.836 62.4328C130.836 63.5619 131.001 64.558 131.332 65.4211C131.663 66.2776 132.146 66.9493 132.782 67.436C133.418 67.9162 134.197 68.1562 135.119 68.1562C136.079 68.1562 136.88 67.9032 137.523 67.397C138.172 66.8844 138.658 66.1965 138.983 65.3335C139.314 64.4639 139.479 63.497 139.479 62.4328C139.479 61.3816 139.317 60.4341 138.993 59.5905C138.675 58.7405 138.191 58.0688 137.542 57.5757C136.9 57.076 136.092 56.8262 135.119 56.8262C134.184 56.8262 133.399 57.063 132.763 57.5367C132.127 58.0039 131.647 58.6594 131.322 59.5029C130.998 60.34 130.836 61.3167 130.836 62.4328ZM154.575 63.7955V54.9573H156.873V69.9083H154.575V67.3775H154.42C154.069 68.1368 153.524 68.7825 152.784 69.3146C152.045 69.8402 151.11 70.103 149.981 70.103C149.047 70.103 148.216 69.8986 147.489 69.4898C146.763 69.0745 146.191 68.4515 145.776 67.6209C145.361 66.7838 145.153 65.7293 145.153 64.4574V54.9573H147.45V64.3017C147.45 65.3919 147.755 66.2614 148.365 66.9103C148.982 67.5592 149.767 67.8837 150.721 67.8837C151.292 67.8837 151.873 67.7377 152.463 67.4457C153.06 67.1537 153.56 66.7059 153.962 66.1024C154.371 65.4989 154.575 64.73 154.575 63.7955ZM167.445 54.9573V56.904H159.697V54.9573H167.445ZM161.955 51.3753H164.252V65.6255C164.252 66.2744 164.347 66.7611 164.535 67.0855C164.729 67.4035 164.976 67.6176 165.275 67.728C165.58 67.8318 165.901 67.8837 166.238 67.8837C166.491 67.8837 166.699 67.8707 166.861 67.8448C167.023 67.8123 167.153 67.7864 167.25 67.7669L167.718 69.8305C167.562 69.8889 167.345 69.9473 167.066 70.0057C166.787 70.0706 166.433 70.103 166.005 70.103C165.356 70.103 164.72 69.9635 164.097 69.6844C163.48 69.4054 162.968 68.9804 162.559 68.4093C162.156 67.8383 161.955 67.118 161.955 66.2484V51.3753ZM178.336 69.9083V54.9573H180.633V69.9083H178.336ZM179.504 52.4654C179.056 52.4654 178.67 52.3129 178.345 52.008C178.027 51.703 177.868 51.3363 177.868 50.908C177.868 50.4798 178.027 50.1131 178.345 49.8081C178.67 49.5031 179.056 49.3506 179.504 49.3506C179.951 49.3506 180.334 49.5031 180.652 49.8081C180.977 50.1131 181.139 50.4798 181.139 50.908C181.139 51.3363 180.977 51.703 180.652 52.008C180.334 52.3129 179.951 52.4654 179.504 52.4654ZM191.205 54.9573V56.904H183.457V54.9573H191.205ZM185.716 51.3753H188.013V65.6255C188.013 66.2744 188.107 66.7611 188.295 67.0855C188.49 67.4035 188.736 67.6176 189.035 67.728C189.34 67.8318 189.661 67.8837 189.998 67.8837C190.251 67.8837 190.459 67.8707 190.621 67.8448C190.784 67.8123 190.913 67.7864 191.011 67.7669L191.478 69.8305C191.322 69.8889 191.105 69.9473 190.826 70.0057C190.547 70.0706 190.193 70.103 189.765 70.103C189.116 70.103 188.48 69.9635 187.857 69.6844C187.24 69.4054 186.728 68.9804 186.319 68.4093C185.917 67.8383 185.716 67.118 185.716 66.2484V51.3753ZM197.325 49.9736V51.7257C197.325 52.2578 197.227 52.8256 197.033 53.4291C196.844 54.0261 196.565 54.6069 196.196 55.1714C195.832 55.7295 195.391 56.2162 194.872 56.6315L193.626 55.6192C194.035 55.0352 194.388 54.4284 194.687 53.799C194.992 53.163 195.144 52.4849 195.144 51.7646V49.9736H197.325ZM208.698 58.3057L206.634 58.8897C206.504 58.5458 206.313 58.2116 206.06 57.8871C205.813 57.5562 205.476 57.2836 205.048 57.0695C204.619 56.8554 204.071 56.7483 203.403 56.7483C202.488 56.7483 201.725 56.9592 201.115 57.381C200.512 57.7963 200.21 58.3252 200.21 58.9676C200.21 59.5386 200.418 59.9896 200.833 60.3206C201.248 60.6515 201.897 60.9273 202.78 61.1479L204.999 61.693C206.336 62.0175 207.332 62.5139 207.987 63.1823C208.643 63.8442 208.97 64.6975 208.97 65.7423C208.97 66.5988 208.724 67.3646 208.231 68.0394C207.744 68.7143 207.063 69.2464 206.186 69.6358C205.31 70.0251 204.292 70.2198 203.13 70.2198C201.605 70.2198 200.343 69.8889 199.344 69.227C198.344 68.5651 197.712 67.5982 197.446 66.3263L199.626 65.7812C199.834 66.5859 200.226 67.1894 200.804 67.5917C201.388 67.994 202.15 68.1952 203.091 68.1952C204.162 68.1952 205.012 67.9681 205.641 67.5138C206.277 67.0531 206.595 66.5015 206.595 65.8591C206.595 65.34 206.414 64.9052 206.05 64.5548C205.687 64.1979 205.129 63.9318 204.376 63.7566L201.884 63.1726C200.515 62.8481 199.509 62.3452 198.867 61.6638C198.231 60.976 197.913 60.1162 197.913 59.0844C197.913 58.2408 198.15 57.4945 198.623 56.8456C199.104 56.1967 199.756 55.6873 200.58 55.3174C201.41 54.9475 202.351 54.7626 203.403 54.7626C204.882 54.7626 206.044 55.0871 206.887 55.736C207.737 56.3849 208.341 57.2415 208.698 58.3057ZM220.175 69.9083V49.9736H222.472V57.3323H222.667C222.835 57.0727 223.069 56.7418 223.367 56.3395C223.672 55.9307 224.107 55.5673 224.672 55.2493C225.243 54.9248 226.015 54.7626 226.988 54.7626C228.247 54.7626 229.357 55.0773 230.317 55.7068C231.278 56.3362 232.027 57.2285 232.566 58.3836C233.104 59.5386 233.374 60.9014 233.374 62.4717C233.374 64.0551 233.104 65.4276 232.566 66.5891C232.027 67.7442 231.281 68.6397 230.327 69.2756C229.373 69.9051 228.273 70.2198 227.027 70.2198C226.067 70.2198 225.298 70.0608 224.72 69.7429C224.143 69.4184 223.698 69.0518 223.387 68.6429C223.075 68.2276 222.835 67.8837 222.667 67.6112H222.394V69.9083H220.175ZM222.433 62.4328C222.433 63.5619 222.598 64.558 222.929 65.4211C223.26 66.2776 223.744 66.9493 224.38 67.436C225.016 67.9162 225.794 68.1562 226.716 68.1562C227.676 68.1562 228.478 67.9032 229.12 67.397C229.769 66.8844 230.256 66.1965 230.58 65.3335C230.911 64.4639 231.077 63.497 231.077 62.4328C231.077 61.3816 230.914 60.4341 230.59 59.5905C230.272 58.7405 229.788 58.0688 229.14 57.5757C228.497 57.076 227.689 56.8262 226.716 56.8262C225.781 56.8262 224.996 57.063 224.36 57.5367C223.724 58.0039 223.244 58.6594 222.92 59.5029C222.595 60.34 222.433 61.3167 222.433 62.4328ZM246.173 63.7955V54.9573H248.47V69.9083H246.173V67.3775H246.017C245.667 68.1368 245.122 68.7825 244.382 69.3146C243.642 69.8402 242.708 70.103 241.579 70.103C240.644 70.103 239.813 69.8986 239.087 69.4898C238.36 69.0745 237.789 68.4515 237.374 67.6209C236.958 66.7838 236.751 65.7293 236.751 64.4574V54.9573H239.048V64.3017C239.048 65.3919 239.353 66.2614 239.963 66.9103C240.579 67.5592 241.364 67.8837 242.318 67.8837C242.889 67.8837 243.47 67.7377 244.061 67.4457C244.658 67.1537 245.157 66.7059 245.56 66.1024C245.968 65.4989 246.173 64.73 246.173 63.7955ZM252.54 69.9083V54.9573H254.76V57.2155H254.915C255.188 56.4757 255.681 55.8755 256.395 55.4148C257.109 54.954 257.913 54.7237 258.809 54.7237C258.978 54.7237 259.189 54.7269 259.442 54.7334C259.695 54.7399 259.886 54.7496 260.016 54.7626V57.0987C259.938 57.0792 259.76 57.05 259.481 57.0111C259.208 56.9657 258.919 56.943 258.614 56.943C257.887 56.943 257.239 57.0955 256.667 57.4005C256.103 57.699 255.655 58.1143 255.324 58.6464C255 59.172 254.838 59.7722 254.838 60.4471V69.9083H252.54ZM262.602 69.9083V54.9573H264.899V69.9083H262.602ZM263.77 52.4654C263.322 52.4654 262.936 52.3129 262.612 52.008C262.294 51.703 262.135 51.3363 262.135 50.908C262.135 50.4798 262.294 50.1131 262.612 49.8081C262.936 49.5031 263.322 49.3506 263.77 49.3506C264.218 49.3506 264.601 49.5031 264.918 49.8081C265.243 50.1131 265.405 50.4798 265.405 50.908C265.405 51.3363 265.243 51.703 264.918 52.008C264.601 52.3129 264.218 52.4654 263.77 52.4654ZM275.238 70.2198C273.797 70.2198 272.555 69.9018 271.51 69.2659C270.472 68.6235 269.67 67.728 269.106 66.5794C268.548 65.4243 268.269 64.0811 268.269 62.5496C268.269 61.0182 268.548 59.6684 269.106 58.5004C269.67 57.3258 270.455 56.4109 271.461 55.7554C272.474 55.0936 273.655 54.7626 275.004 54.7626C275.783 54.7626 276.552 54.8924 277.311 55.152C278.07 55.4115 278.762 55.8333 279.385 56.4173C280.007 56.9949 280.504 57.7606 280.874 58.7145C281.244 59.6684 281.429 60.843 281.429 62.2381V63.2115H269.904V61.2258H279.092C279.092 60.3822 278.924 59.6295 278.586 58.9676C278.255 58.3057 277.782 57.7833 277.165 57.4005C276.555 57.0176 275.835 56.8262 275.004 56.8262C274.089 56.8262 273.298 57.0533 272.629 57.5075C271.967 57.9553 271.458 58.5393 271.101 59.2596C270.744 59.9799 270.566 60.7521 270.566 61.5762V62.9C270.566 64.0291 270.76 64.9863 271.15 65.7715C271.546 66.5502 272.094 67.1439 272.795 67.5528C273.496 67.9551 274.31 68.1562 275.238 68.1562C275.841 68.1562 276.387 68.0719 276.873 67.9032C277.366 67.728 277.791 67.4684 278.148 67.1245C278.505 66.7741 278.781 66.3393 278.976 65.8201L281.195 66.4431C280.961 67.1959 280.569 67.8577 280.017 68.4288C279.466 68.9934 278.784 69.4346 277.973 69.7526C277.162 70.0641 276.25 70.2198 275.238 70.2198ZM290.432 70.2198C289.186 70.2198 288.086 69.9051 287.132 69.2756C286.178 68.6397 285.432 67.7442 284.893 66.5891C284.354 65.4276 284.085 64.0551 284.085 62.4717C284.085 60.9014 284.354 59.5386 284.893 58.3836C285.432 57.2285 286.181 56.3362 287.142 55.7068C288.102 55.0773 289.212 54.7626 290.47 54.7626C291.444 54.7626 292.213 54.9248 292.777 55.2493C293.348 55.5673 293.783 55.9307 294.082 56.3395C294.387 56.7418 294.624 57.0727 294.792 57.3323H294.987V49.9736H297.284V69.9083H295.065V67.6112H294.792C294.624 67.8837 294.383 68.2276 294.072 68.6429C293.76 69.0518 293.316 69.4184 292.738 69.7429C292.161 70.0608 291.392 70.2198 290.432 70.2198ZM290.743 68.1562C291.664 68.1562 292.443 67.9162 293.079 67.436C293.715 66.9493 294.198 66.2776 294.529 65.4211C294.86 64.558 295.026 63.5619 295.026 62.4328C295.026 61.3167 294.864 60.34 294.539 59.5029C294.215 58.6594 293.735 58.0039 293.099 57.5367C292.463 57.063 291.677 56.8262 290.743 56.8262C289.77 56.8262 288.958 57.076 288.31 57.5757C287.667 58.0688 287.184 58.7405 286.859 59.5905C286.541 60.4341 286.382 61.3816 286.382 62.4328C286.382 63.497 286.545 64.4639 286.869 65.3335C287.2 66.1965 287.687 66.8844 288.329 67.397C288.978 67.9032 289.783 68.1562 290.743 68.1562ZM34.8062 99.9083L30.2508 84.9573H32.6648L35.8964 96.4042H36.0522L39.2448 84.9573H41.6977L44.8515 96.3652H45.0072L48.2388 84.9573H50.6528L46.0974 99.9083H43.8392L40.5686 88.4225H40.335L37.0645 99.9083H34.8062ZM53.5527 99.9083V84.9573H55.8498V99.9083H53.5527ZM54.7207 82.4654C54.273 82.4654 53.8869 82.3129 53.5624 82.008C53.2444 81.703 53.0855 81.3363 53.0855 80.908C53.0855 80.4798 53.2444 80.1131 53.5624 79.8081C53.8869 79.5031 54.273 79.3506 54.7207 79.3506C55.1685 79.3506 55.5513 79.5031 55.8693 79.8081C56.1938 80.1131 56.356 80.4798 56.356 80.908C56.356 81.3363 56.1938 81.703 55.8693 82.008C55.5513 82.3129 55.1685 82.4654 54.7207 82.4654ZM66.4223 84.9573V86.904H58.6743V84.9573H66.4223ZM60.9325 81.3753H63.2297V95.6255C63.2297 96.2744 63.3238 96.7611 63.512 97.0855C63.7066 97.4035 63.9532 97.6176 64.2517 97.728C64.5567 97.8318 64.8779 97.8837 65.2154 97.8837C65.4684 97.8837 65.6761 97.8707 65.8383 97.8448C66.0006 97.8123 66.1303 97.7864 66.2277 97.7669L66.6949 99.8305C66.5392 99.8889 66.3218 99.9473 66.0427 100.006C65.7637 100.071 65.41 100.103 64.9818 100.103C64.3328 100.103 63.6969 99.9635 63.0739 99.6844C62.4575 99.4054 61.9448 98.9804 61.536 98.4093C61.1337 97.8383 60.9325 97.118 60.9325 96.2484V81.3753ZM72.3592 90.9143V99.9083H70.062V79.9736H72.3592V87.2934H72.5538C72.9042 86.5212 73.4299 85.9079 74.1307 85.4537C74.838 84.993 75.779 84.7626 76.9535 84.7626C77.9723 84.7626 78.8646 84.967 79.6303 85.3758C80.396 85.7782 80.9898 86.3979 81.4115 87.235C81.8398 88.0656 82.054 89.1233 82.054 90.4082V99.9083H79.7568V90.5639C79.7568 89.3764 79.4486 88.4582 78.8321 87.8093C78.2221 87.1539 77.3753 86.8262 76.2916 86.8262C75.5389 86.8262 74.864 86.9851 74.267 87.3031C73.6765 87.6211 73.2092 88.0851 72.8653 88.695C72.5279 89.305 72.3592 90.0448 72.3592 90.9143ZM98.0912 100.259C97.1438 100.259 96.284 100.08 95.5118 99.7234C94.7396 99.36 94.1263 98.8376 93.6721 98.1562C93.2178 97.4684 92.9907 96.6378 92.9907 95.6644C92.9907 94.8078 93.1594 94.1135 93.4969 93.5814C93.8343 93.0428 94.2853 92.621 94.8499 92.316C95.4144 92.011 96.0374 91.7839 96.7187 91.6346C97.4066 91.4789 98.0977 91.3556 98.792 91.2648C99.7005 91.1479 100.437 91.0603 101.002 91.0019C101.573 90.937 101.988 90.83 102.248 90.6807C102.514 90.5315 102.647 90.2719 102.647 89.902V89.8242C102.647 88.8638 102.384 88.1175 101.858 87.5854C101.339 87.0533 100.551 86.7872 99.4929 86.7872C98.3962 86.7872 97.5364 87.0273 96.9134 87.5075C96.2905 87.9877 95.8524 88.5004 95.5994 89.0455L93.419 88.2668C93.8084 87.3583 94.3275 86.651 94.9764 86.1448C95.6318 85.6322 96.3456 85.2752 97.1178 85.0741C97.8965 84.8664 98.6623 84.7626 99.415 84.7626C99.8952 84.7626 100.447 84.821 101.07 84.9378C101.699 85.0481 102.306 85.2785 102.89 85.6289C103.48 85.9793 103.97 86.5082 104.36 87.2155C104.749 87.9228 104.944 88.8702 104.944 90.0578V99.9083H102.647V97.8837H102.53C102.374 98.2082 102.114 98.5553 101.751 98.9252C101.388 99.2951 100.904 99.6098 100.301 99.8694C99.6973 100.129 98.9608 100.259 98.0912 100.259ZM98.4416 98.1952C99.3501 98.1952 100.116 98.0167 100.739 97.6598C101.368 97.3029 101.842 96.8422 102.16 96.2776C102.484 95.7131 102.647 95.1193 102.647 94.4964V92.3939C102.549 92.5107 102.335 92.6177 102.004 92.7151C101.68 92.8059 101.303 92.887 100.875 92.9584C100.453 93.0233 100.041 93.0817 99.6389 93.1336C99.243 93.1791 98.9218 93.218 98.6752 93.2504C98.0782 93.3283 97.5202 93.4548 97.001 93.6301C96.4884 93.7988 96.0731 94.0551 95.7551 94.399C95.4436 94.7365 95.2879 95.1972 95.2879 95.7812C95.2879 96.5794 95.5831 97.1829 96.1737 97.5917C96.7707 97.994 97.5267 98.1952 98.4416 98.1952ZM111.297 79.9736V99.9083H109V79.9736H111.297ZM117.664 79.9736V99.9083H115.367V79.9736H117.664ZM129.307 99.9083V84.9573H131.526V87.2934H131.721C132.032 86.4952 132.535 85.8755 133.229 85.4342C133.924 84.9865 134.758 84.7626 135.731 84.7626C136.717 84.7626 137.538 84.9865 138.194 85.4342C138.855 85.8755 139.371 86.4952 139.741 87.2934H139.897C140.28 86.5212 140.854 85.9079 141.62 85.4537C142.386 84.993 143.304 84.7626 144.375 84.7626C145.711 84.7626 146.805 85.1812 147.655 86.0183C148.505 86.8489 148.93 88.1435 148.93 89.902V99.9083H146.633V89.902C146.633 88.7989 146.331 88.0104 145.728 87.5367C145.124 87.063 144.413 86.8262 143.596 86.8262C142.545 86.8262 141.73 87.1441 141.153 87.7801C140.575 88.4095 140.286 89.2077 140.286 90.1746V99.9083H137.95V89.6684C137.95 88.8183 137.674 88.1337 137.123 87.6146C136.571 87.089 135.861 86.8262 134.991 86.8262C134.394 86.8262 133.836 86.9851 133.317 87.3031C132.804 87.6211 132.389 88.0623 132.071 88.6269C131.76 89.185 131.604 89.8306 131.604 90.5639V99.9083H129.307ZM153.937 105.515C153.548 105.515 153.201 105.483 152.896 105.418C152.591 105.359 152.38 105.301 152.263 105.242L152.847 103.218C153.405 103.361 153.898 103.412 154.327 103.374C154.755 103.335 155.134 103.143 155.465 102.799C155.803 102.462 156.111 101.913 156.39 101.154L156.818 99.9862L151.29 84.9573H153.781L157.909 96.8714H158.064L162.191 84.9573H164.683L158.337 102.089C158.051 102.861 157.698 103.5 157.276 104.006C156.854 104.519 156.364 104.898 155.806 105.145C155.254 105.392 154.631 105.515 153.937 105.515ZM177.221 91.3771V99.9083H175.042V85.7265H177.147V87.9424H177.332C177.664 87.2222 178.169 86.6436 178.846 86.2066C179.523 85.7634 180.397 85.5418 181.468 85.5418C182.429 85.5418 183.269 85.7388 183.989 86.1328C184.709 86.5205 185.269 87.1115 185.669 87.9055C186.069 88.6934 186.269 89.6905 186.269 90.897V99.9083H184.09V91.0447C184.09 89.9306 183.801 89.0627 183.223 88.441C182.644 87.8132 181.85 87.4992 180.84 87.4992C180.145 87.4992 179.523 87.65 178.975 87.9516C178.434 88.2533 178.006 88.6934 177.692 89.272C177.378 89.8506 177.221 90.5523 177.221 91.3771ZM196.067 100.204C194.701 100.204 193.522 99.9022 192.531 99.299C191.546 98.6896 190.786 97.8401 190.25 96.7507C189.721 95.655 189.456 94.3809 189.456 92.9282C189.456 91.4756 189.721 90.1953 190.25 89.0873C190.786 87.9732 191.531 87.1053 192.485 86.4836C193.445 85.8558 194.565 85.5418 195.846 85.5418C196.584 85.5418 197.314 85.665 198.034 85.9112C198.754 86.1574 199.409 86.5575 200 87.1115C200.591 87.6593 201.062 88.3856 201.413 89.2904C201.764 90.1953 201.939 91.3094 201.939 92.6328V93.5561H191.007V91.6725H199.723C199.723 90.8723 199.563 90.1583 199.243 89.5305C198.929 88.9026 198.48 88.4071 197.895 88.044C197.317 87.6808 196.633 87.4992 195.846 87.4992C194.978 87.4992 194.227 87.7147 193.593 88.1455C192.965 88.5703 192.482 89.1242 192.143 89.8075C191.805 90.4907 191.635 91.2232 191.635 92.0049V93.2606C191.635 94.3316 191.82 95.2395 192.189 95.9843C192.565 96.723 193.085 97.2862 193.75 97.674C194.414 98.0556 195.187 98.2464 196.067 98.2464C196.64 98.2464 197.157 98.1664 197.618 98.0063C198.086 97.8401 198.489 97.5939 198.828 97.2677C199.166 96.9353 199.428 96.5229 199.613 96.0305L201.718 96.6214C201.496 97.3354 201.124 97.9632 200.601 98.5049C200.077 99.0404 199.431 99.459 198.662 99.7606C197.892 100.056 197.027 100.204 196.067 100.204ZM208.337 99.9083L204.016 85.7265H206.306L209.371 96.5845H209.519L212.547 85.7265H214.874L217.865 96.5475H218.013L221.078 85.7265H223.368L219.047 99.9083H216.905L213.803 89.0134H213.581L210.479 99.9083H208.337ZM236.164 88.9026L234.207 89.4566C234.084 89.1304 233.902 88.8134 233.662 88.5056C233.428 88.1917 233.108 87.9332 232.702 87.7301C232.296 87.5269 231.776 87.4254 231.142 87.4254C230.274 87.4254 229.551 87.6254 228.972 88.0255C228.399 88.4195 228.113 88.9211 228.113 89.5305C228.113 90.0722 228.31 90.4999 228.704 90.8139C229.098 91.1278 229.714 91.3894 230.551 91.5987L232.656 92.1157C233.924 92.4235 234.869 92.8944 235.49 93.5284C236.112 94.1562 236.423 94.9656 236.423 95.9566C236.423 96.7691 236.189 97.4954 235.721 98.1356C235.26 98.7757 234.613 99.2805 233.782 99.6498C232.951 100.019 231.985 100.204 230.883 100.204C229.437 100.204 228.239 99.8899 227.292 99.262C226.344 98.6342 225.743 97.717 225.491 96.5106L227.559 95.9936C227.756 96.7568 228.129 97.3293 228.676 97.7109C229.23 98.0925 229.954 98.2833 230.846 98.2833C231.862 98.2833 232.668 98.0679 233.265 97.637C233.868 97.2 234.17 96.6768 234.17 96.0674C234.17 95.575 233.998 95.1626 233.653 94.8302C233.308 94.4917 232.779 94.2393 232.065 94.0731L229.701 93.5191C228.403 93.2114 227.448 92.7343 226.839 92.088C226.236 91.4356 225.934 90.62 225.934 89.6413C225.934 88.8411 226.159 88.1332 226.608 87.5177C227.064 86.9022 227.682 86.419 228.464 86.0681C229.252 85.7173 230.145 85.5418 231.142 85.5418C232.545 85.5418 233.647 85.8496 234.447 86.4651C235.253 87.0807 235.826 87.8932 236.164 88.9026ZM241.752 80.9992V99.9083H239.573V80.9992H241.752ZM251.559 100.204C250.192 100.204 249.014 99.9022 248.023 99.299C247.038 98.6896 246.278 97.8401 245.742 96.7507C245.213 95.655 244.948 94.3809 244.948 92.9282C244.948 91.4756 245.213 90.1953 245.742 89.0873C246.278 87.9732 247.022 87.1053 247.976 86.4836C248.937 85.8558 250.057 85.5418 251.337 85.5418C252.076 85.5418 252.805 85.665 253.525 85.9112C254.246 86.1574 254.901 86.5575 255.492 87.1115C256.083 87.6593 256.554 88.3856 256.905 89.2904C257.256 90.1953 257.431 91.3094 257.431 92.6328V93.5561H246.499V91.6725H255.215C255.215 90.8723 255.055 90.1583 254.735 89.5305C254.421 88.9026 253.972 88.4071 253.387 88.044C252.808 87.6808 252.125 87.4992 251.337 87.4992C250.469 87.4992 249.718 87.7147 249.084 88.1455C248.457 88.5703 247.973 89.1242 247.635 89.8075C247.296 90.4907 247.127 91.2232 247.127 92.0049V93.2606C247.127 94.3316 247.312 95.2395 247.681 95.9843C248.057 96.723 248.577 97.2862 249.241 97.674C249.906 98.0556 250.679 98.2464 251.559 98.2464C252.131 98.2464 252.648 98.1664 253.11 98.0063C253.578 97.8401 253.981 97.5939 254.32 97.2677C254.658 96.9353 254.92 96.5229 255.104 96.0305L257.209 96.6214C256.988 97.3354 256.615 97.9632 256.092 98.5049C255.569 99.0404 254.923 99.459 254.153 99.7606C253.384 100.056 252.519 100.204 251.559 100.204ZM266.783 85.7265V87.5731H259.434V85.7265H266.783ZM261.576 82.3288H263.755V95.8458C263.755 96.4614 263.844 96.923 264.023 97.2308C264.207 97.5324 264.441 97.7355 264.724 97.8401C265.014 97.9386 265.318 97.9879 265.638 97.9879C265.878 97.9879 266.075 97.9756 266.229 97.9509C266.383 97.9202 266.506 97.8955 266.599 97.8771L267.042 99.8345C266.894 99.8899 266.688 99.9453 266.423 100.001C266.159 100.062 265.823 100.093 265.417 100.093C264.801 100.093 264.198 99.9606 263.607 99.696C263.022 99.4313 262.536 99.0281 262.148 98.4865C261.767 97.9448 261.576 97.2615 261.576 96.4367V82.3288ZM276.099 85.7265V87.5731H268.749V85.7265H276.099ZM270.891 82.3288H273.07V95.8458C273.07 96.4614 273.159 96.923 273.338 97.2308C273.523 97.5324 273.756 97.7355 274.04 97.8401C274.329 97.9386 274.634 97.9879 274.954 97.9879C275.194 97.9879 275.391 97.9756 275.545 97.9509C275.698 97.9202 275.822 97.8955 275.914 97.8771L276.357 99.8345C276.209 99.8899 276.003 99.9453 275.738 100.001C275.474 100.062 275.138 100.093 274.732 100.093C274.117 100.093 273.513 99.9606 272.922 99.696C272.338 99.4313 271.851 99.0281 271.464 98.4865C271.082 97.9448 270.891 97.2615 270.891 96.4367V82.3288ZM285.04 100.204C283.673 100.204 282.495 99.9022 281.504 99.299C280.519 98.6896 279.759 97.8401 279.223 96.7507C278.694 95.655 278.429 94.3809 278.429 92.9282C278.429 91.4756 278.694 90.1953 279.223 89.0873C279.759 87.9732 280.504 87.1053 281.458 86.4836C282.418 85.8558 283.538 85.5418 284.818 85.5418C285.557 85.5418 286.286 85.665 287.007 85.9112C287.727 86.1574 288.382 86.5575 288.973 87.1115C289.564 87.6593 290.035 88.3856 290.386 89.2904C290.737 90.1953 290.912 91.3094 290.912 92.6328V93.5561H279.98V91.6725H288.696C288.696 90.8723 288.536 90.1583 288.216 89.5305C287.902 88.9026 287.453 88.4071 286.868 88.044C286.289 87.6808 285.606 87.4992 284.818 87.4992C283.95 87.4992 283.2 87.7147 282.566 88.1455C281.938 88.5703 281.455 89.1242 281.116 89.8075C280.777 90.4907 280.608 91.2232 280.608 92.0049V93.2606C280.608 94.3316 280.793 95.2395 281.162 95.9843C281.538 96.723 282.058 97.2862 282.722 97.674C283.387 98.0556 284.16 98.2464 285.04 98.2464C285.612 98.2464 286.129 98.1664 286.591 98.0063C287.059 97.8401 287.462 97.5939 287.801 97.2677C288.139 96.9353 288.401 96.5229 288.585 96.0305L290.691 96.6214C290.469 97.3354 290.097 97.9632 289.573 98.5049C289.05 99.0404 288.404 99.459 287.634 99.7606C286.865 100.056 286 100.204 285.04 100.204ZM294.097 99.9083V85.7265H296.202V87.8686H296.35C296.608 87.1668 297.076 86.5975 297.753 86.1605C298.43 85.7234 299.193 85.5049 300.043 85.5049C300.203 85.5049 300.403 85.508 300.643 85.5141C300.883 85.5203 301.065 85.5295 301.188 85.5418V87.7578C301.114 87.7393 300.945 87.7116 300.68 87.6747C300.421 87.6316 300.147 87.61 299.858 87.61C299.169 87.61 298.553 87.7547 298.012 88.044C297.476 88.3271 297.051 88.7211 296.737 89.2258C296.43 89.7244 296.276 90.2937 296.276 90.9339V99.9083H294.097ZM313.686 88.9026L311.729 89.4566C311.606 89.1304 311.424 88.8134 311.184 88.5056C310.95 88.1917 310.63 87.9332 310.224 87.7301C309.817 87.5269 309.297 87.4254 308.663 87.4254C307.795 87.4254 307.072 87.6254 306.494 88.0255C305.921 88.4195 305.635 88.9211 305.635 89.5305C305.635 90.0722 305.832 90.4999 306.226 90.8139C306.62 91.1278 307.235 91.3894 308.072 91.5987L310.178 92.1157C311.446 92.4235 312.39 92.8944 313.012 93.5284C313.634 94.1562 313.945 94.9656 313.945 95.9566C313.945 96.7691 313.711 97.4954 313.243 98.1356C312.781 98.7757 312.135 99.2805 311.304 99.6498C310.473 100.019 309.507 100.204 308.405 100.204C306.958 100.204 305.761 99.8899 304.813 99.262C303.865 98.6342 303.265 97.717 303.013 96.5106L305.081 95.9936C305.278 96.7568 305.65 97.3293 306.198 97.7109C306.752 98.0925 307.475 98.2833 308.368 98.2833C309.383 98.2833 310.19 98.0679 310.787 97.637C311.39 97.2 311.692 96.6768 311.692 96.0674C311.692 95.575 311.519 95.1626 311.175 94.8302C310.83 94.4917 310.301 94.2393 309.587 94.0731L307.223 93.5191C305.924 93.2114 304.97 92.7343 304.361 92.088C303.758 91.4356 303.456 90.62 303.456 89.6413C303.456 88.8411 303.681 88.1332 304.13 87.5177C304.585 86.9022 305.204 86.419 305.986 86.0681C306.774 85.7173 307.666 85.5418 308.663 85.5418C310.067 85.5418 311.169 85.8496 311.969 86.4651C312.775 87.0807 313.348 87.8932 313.686 88.9026Z" fill="white"/>
<path d="M339.847 20.0556C339.847 9.20175 331.048 0.402954 320.194 0.402954V28.8475H339.847V20.0556Z" fill="#278EFF" stroke="#278EFF" stroke-width="0.805851"/>
<rect width="19.6526" height="62.1214" transform="matrix(-1 0 0 1 339.847 28.8475)" fill="#278EFF" stroke="#278EFF" stroke-width="0.805851"/>
<path d="M339.847 99.7609C339.847 110.615 331.048 119.414 320.194 119.414V90.969H339.847V99.7609Z" fill="#278EFF" stroke="#278EFF" stroke-width="0.805851"/>
</svg>
