<svg width="341" height="60" viewBox="0 0 341 60" fill="none" xmlns="http://www.w3.org/2000/svg">
<path d="M0.402832 20.0555C0.402832 9.20162 9.20161 0.402832 20.0555 0.402832V28.8474H0.402832V20.0555Z" fill="#278EFF" stroke="#278EFF" stroke-width="0.805851"/>
<rect x="0.402832" y="28.8474" width="19.6526" height="2.12144" fill="#278EFF" stroke="#278EFF" stroke-width="0.805851"/>
<path d="M0.402832 39.7609C0.402832 50.6148 9.20161 59.4136 20.0555 59.4136V30.969H0.402832V39.7609Z" fill="#278EFF" stroke="#278EFF" stroke-width="0.805851"/>
<rect x="20.0557" y="0.402832" width="290.877" height="59.0106" fill="#278EFF"/>
<rect x="20.0557" y="0.402832" width="290.877" height="59.0106" stroke="#278EFF" stroke-width="0.805851"/>
<path d="M20.7565 19.9735H23.5209L29.0497 29.2789H29.2833L34.812 19.9735H37.5764L30.3734 31.6929V39.9082H27.9595V31.6929L20.7565 19.9735ZM44.4039 40.2197C42.9633 40.2197 41.7206 39.9017 40.6758 39.2658C39.6376 38.6233 38.8362 37.7278 38.2716 36.5793C37.7135 35.4242 37.4345 34.0809 37.4345 32.5495C37.4345 31.018 37.7135 29.6683 38.2716 28.5002C38.8362 27.3257 39.6214 26.4107 40.6272 25.7553C41.6395 25.0934 42.8205 24.7625 44.1703 24.7625C44.949 24.7625 45.7179 24.8923 46.4772 25.1518C47.2364 25.4114 47.9275 25.8332 48.5504 26.4172C49.1734 26.9948 49.6698 27.7605 50.0397 28.7144C50.4096 29.6683 50.5945 30.8428 50.5945 32.238V33.2114H39.0698V31.2257H48.2584C48.2584 30.3821 48.0897 29.6294 47.7523 28.9675C47.4213 28.3056 46.9476 27.7832 46.3312 27.4003C45.7212 27.0175 45.0009 26.826 44.1703 26.826C43.2553 26.826 42.4636 27.0532 41.7952 27.5074C41.1333 27.9552 40.6239 28.5392 40.267 29.2595C39.9101 29.9798 39.7317 30.752 39.7317 31.5761V32.8999C39.7317 34.029 39.9263 34.9862 40.3157 35.7714C40.7115 36.5501 41.2599 37.1438 41.9607 37.5526C42.6615 37.955 43.4759 38.1561 44.4039 38.1561C45.0074 38.1561 45.5525 38.0718 46.0391 37.903C46.5323 37.7278 46.9574 37.4683 47.3143 37.1243C47.6712 36.7739 47.947 36.3392 48.1416 35.82L50.3609 36.443C50.1273 37.1957 49.7347 37.8576 49.1831 38.4287C48.6316 38.9932 47.9502 39.4345 47.1391 39.7525C46.3279 40.0639 45.4162 40.2197 44.4039 40.2197ZM64.5422 28.3056L62.4787 28.8896C62.3489 28.5457 62.1575 28.2115 61.9044 27.887C61.6578 27.5561 61.3204 27.2835 60.8921 27.0694C60.4638 26.8552 59.9154 26.7482 59.2471 26.7482C58.3321 26.7482 57.5696 26.9591 56.9596 27.3809C56.3561 27.7962 56.0544 28.325 56.0544 28.9675C56.0544 29.5385 56.262 29.9895 56.6774 30.3205C57.0927 30.6514 57.7416 30.9272 58.6241 31.1478L60.8434 31.6929C62.1802 32.0174 63.1763 32.5138 63.8317 33.1822C64.4871 33.8441 64.8148 34.6974 64.8148 35.7422C64.8148 36.5987 64.5682 37.3644 64.075 38.0393C63.5883 38.7142 62.907 39.2463 62.0309 39.6357C61.1549 40.025 60.1361 40.2197 58.9745 40.2197C57.4496 40.2197 56.1874 39.8887 55.1881 39.2268C54.1888 38.5649 53.5561 37.5981 53.29 36.3262L55.4704 35.7811C55.678 36.5857 56.0706 37.1892 56.6481 37.5916C57.2322 37.9939 57.9947 38.1951 58.9356 38.1951C60.0063 38.1951 60.8564 37.9679 61.4858 37.5137C62.1218 37.053 62.4397 36.5014 62.4397 35.859C62.4397 35.3398 62.258 34.9051 61.8946 34.5546C61.5312 34.1977 60.9732 33.9317 60.2204 33.7565L57.7286 33.1724C56.3594 32.848 55.3536 32.3451 54.7111 31.6637C54.0752 30.9759 53.7572 30.116 53.7572 29.0843C53.7572 28.2407 53.9941 27.4944 54.4678 26.8455C54.948 26.1966 55.6001 25.6872 56.4243 25.3173C57.2549 24.9474 58.1958 24.7625 59.2471 24.7625C60.7266 24.7625 61.8882 25.0869 62.7317 25.7359C63.5818 26.3848 64.1853 27.2413 64.5422 28.3056ZM71.5619 37.1828L71.4062 38.234C71.2959 38.9738 71.1271 39.7654 70.9 40.609C70.6794 41.4526 70.449 42.2475 70.2089 42.9938C69.9688 43.7401 69.7709 44.3338 69.6152 44.7751H67.8631C67.9474 44.3598 68.0578 43.8114 68.194 43.1301C68.3303 42.4487 68.4666 41.6862 68.6029 40.8426C68.7456 40.0055 68.8624 39.149 68.9533 38.2729L69.0701 37.1828H71.5619ZM89.5216 40.2197C88.081 40.2197 86.8383 39.9017 85.7935 39.2658C84.7553 38.6233 83.9539 37.7278 83.3893 36.5793C82.8312 35.4242 82.5522 34.0809 82.5522 32.5495C82.5522 31.018 82.8312 29.6683 83.3893 28.5002C83.9539 27.3257 84.739 26.4107 85.7449 25.7553C86.7572 25.0934 87.9382 24.7625 89.288 24.7625C90.0667 24.7625 90.8356 24.8923 91.5949 25.1518C92.3541 25.4114 93.0452 25.8332 93.6681 26.4172C94.2911 26.9948 94.7875 27.7605 95.1574 28.7144C95.5273 29.6683 95.7122 30.8428 95.7122 32.238V33.2114H84.1875V31.2257H93.3761C93.3761 30.3821 93.2074 29.6294 92.87 28.9675C92.539 28.3056 92.0653 27.7832 91.4488 27.4003C90.8389 27.0175 90.1186 26.826 89.288 26.826C88.373 26.826 87.5813 27.0532 86.9129 27.5074C86.251 27.9552 85.7416 28.5392 85.3847 29.2595C85.0278 29.9798 84.8494 30.752 84.8494 31.5761V32.8999C84.8494 34.029 85.044 34.9862 85.4334 35.7714C85.8292 36.5501 86.3776 37.1438 87.0784 37.5526C87.7792 37.955 88.5936 38.1561 89.5216 38.1561C90.1251 38.1561 90.6701 38.0718 91.1568 37.903C91.65 37.7278 92.0751 37.4683 92.432 37.1243C92.7889 36.7739 93.0646 36.3392 93.2593 35.82L95.4786 36.443C95.245 37.1957 94.8524 37.8576 94.3008 38.4287C93.7493 38.9932 93.0679 39.4345 92.2567 39.7525C91.4456 40.0639 90.5339 40.2197 89.5216 40.2197ZM100.381 24.9572L103.963 31.07L107.545 24.9572H110.193L105.365 32.4327L110.193 39.9082H107.545L103.963 34.1069L100.381 39.9082H97.7336L102.484 32.4327L97.7336 24.9572H100.381ZM117.733 40.2586C116.786 40.2586 115.926 40.0802 115.154 39.7233C114.382 39.3599 113.768 38.8375 113.314 38.1561C112.86 37.4683 112.633 36.6377 112.633 35.6643C112.633 34.8077 112.802 34.1134 113.139 33.5813C113.476 33.0427 113.927 32.6209 114.492 32.3159C115.057 32.0109 115.679 31.7838 116.361 31.6345C117.049 31.4788 117.74 31.3555 118.434 31.2646C119.343 31.1478 120.079 31.0602 120.644 31.0018C121.215 30.9369 121.63 30.8299 121.89 30.6806C122.156 30.5314 122.289 30.2718 122.289 29.9019V29.824C122.289 28.8636 122.026 28.1174 121.5 27.5853C120.981 27.0532 120.193 26.7871 119.135 26.7871C118.038 26.7871 117.178 27.0272 116.556 27.5074C115.933 27.9876 115.495 28.5002 115.241 29.0453L113.061 28.2666C113.45 27.3582 113.97 26.6508 114.618 26.1447C115.274 25.632 115.988 25.2751 116.76 25.074C117.539 24.8663 118.304 24.7625 119.057 24.7625C119.537 24.7625 120.089 24.8209 120.712 24.9377C121.341 25.048 121.948 25.2784 122.532 25.6288C123.123 25.9792 123.612 26.5081 124.002 27.2154C124.391 27.9227 124.586 28.8701 124.586 30.0576V39.9082H122.289V37.8836H122.172C122.016 38.208 121.757 38.5552 121.393 38.9251C121.03 39.295 120.546 39.6097 119.943 39.8693C119.339 40.1288 118.603 40.2586 117.733 40.2586ZM118.084 38.1951C118.992 38.1951 119.758 38.0166 120.381 37.6597C121.01 37.3028 121.484 36.8421 121.802 36.2775C122.126 35.713 122.289 35.1192 122.289 34.4962V32.3937C122.191 32.5106 121.977 32.6176 121.646 32.715C121.322 32.8058 120.945 32.8869 120.517 32.9583C120.095 33.0232 119.683 33.0816 119.281 33.1335C118.885 33.1789 118.564 33.2179 118.317 33.2503C117.72 33.3282 117.162 33.4547 116.643 33.6299C116.13 33.7987 115.715 34.055 115.397 34.3989C115.086 34.7363 114.93 35.1971 114.93 35.7811C114.93 36.5793 115.225 37.1828 115.816 37.5916C116.413 37.9939 117.169 38.1951 118.084 38.1951ZM128.642 39.9082V24.9572H130.861V27.2933H131.056C131.367 26.4951 131.87 25.8754 132.564 25.4341C133.259 24.9864 134.093 24.7625 135.066 24.7625C136.052 24.7625 136.873 24.9864 137.529 25.4341C138.19 25.8754 138.706 26.4951 139.076 27.2933H139.232C139.615 26.521 140.189 25.9078 140.955 25.4536C141.721 24.9928 142.639 24.7625 143.709 24.7625C145.046 24.7625 146.14 25.181 146.99 26.0181C147.84 26.8488 148.265 28.1433 148.265 29.9019V39.9082H145.968V29.9019C145.968 28.7987 145.666 28.0103 145.062 27.5366C144.459 27.0629 143.748 26.826 142.931 26.826C141.88 26.826 141.065 27.144 140.488 27.7799C139.91 28.4094 139.621 29.2076 139.621 30.1744V39.9082H137.285V29.6683C137.285 28.8182 137.009 28.1336 136.458 27.6145C135.906 27.0889 135.196 26.826 134.326 26.826C133.729 26.826 133.171 26.985 132.652 27.303C132.139 27.621 131.724 28.0622 131.406 28.6268C131.095 29.1849 130.939 29.8305 130.939 30.5638V39.9082H128.642ZM166.402 24.9572V26.9039H158.654V24.9572H166.402ZM160.912 21.3751H163.209V35.6254C163.209 36.2743 163.304 36.761 163.492 37.0854C163.686 37.4034 163.933 37.6175 164.232 37.7278C164.537 37.8317 164.858 37.8836 165.195 37.8836C165.448 37.8836 165.656 37.8706 165.818 37.8446C165.98 37.8122 166.11 37.7862 166.207 37.7668L166.675 39.8303C166.519 39.8887 166.302 39.9471 166.023 40.0055C165.744 40.0704 165.39 40.1029 164.962 40.1029C164.313 40.1029 163.677 39.9634 163.054 39.6843C162.437 39.4053 161.925 38.9803 161.516 38.4092C161.113 37.8382 160.912 37.1179 160.912 36.2483V21.3751ZM175.634 40.2197C174.284 40.2197 173.1 39.8985 172.081 39.256C171.069 38.6136 170.277 37.7149 169.706 36.5598C169.141 35.4047 168.859 34.055 168.859 32.5106C168.859 30.9532 169.141 29.5937 169.706 28.4321C170.277 27.2705 171.069 26.3686 172.081 25.7261C173.1 25.0837 174.284 24.7625 175.634 24.7625C176.984 24.7625 178.165 25.0837 179.177 25.7261C180.196 26.3686 180.987 27.2705 181.552 28.4321C182.123 29.5937 182.409 30.9532 182.409 32.5106C182.409 34.055 182.123 35.4047 181.552 36.5598C180.987 37.7149 180.196 38.6136 179.177 39.256C178.165 39.8985 176.984 40.2197 175.634 40.2197ZM175.634 38.1561C176.659 38.1561 177.503 37.8933 178.165 37.3677C178.827 36.8421 179.316 36.151 179.634 35.2944C179.952 34.4378 180.111 33.5099 180.111 32.5106C180.111 31.5112 179.952 30.58 179.634 29.717C179.316 28.8539 178.827 28.1563 178.165 27.6242C177.503 27.0921 176.659 26.826 175.634 26.826C174.609 26.826 173.765 27.0921 173.103 27.6242C172.441 28.1563 171.951 28.8539 171.633 29.717C171.315 30.58 171.156 31.5112 171.156 32.5106C171.156 33.5099 171.315 34.4378 171.633 35.2944C171.951 36.151 172.441 36.8421 173.103 37.3677C173.765 37.8933 174.609 38.1561 175.634 38.1561ZM185.778 39.9082V24.9572H187.997V27.2933H188.192C188.504 26.4951 189.006 25.8754 189.701 25.4341C190.395 24.9864 191.229 24.7625 192.202 24.7625C193.189 24.7625 194.01 24.9864 194.665 25.4341C195.327 25.8754 195.843 26.4951 196.213 27.2933H196.368C196.751 26.521 197.326 25.9078 198.091 25.4536C198.857 24.9928 199.775 24.7625 200.846 24.7625C202.183 24.7625 203.276 25.181 204.126 26.0181C204.976 26.8488 205.401 28.1433 205.401 29.9019V39.9082H203.104V29.9019C203.104 28.7987 202.802 28.0103 202.199 27.5366C201.595 27.0629 200.885 26.826 200.067 26.826C199.016 26.826 198.202 27.144 197.624 27.7799C197.047 28.4094 196.758 29.2076 196.758 30.1744V39.9082H194.422V29.6683C194.422 28.8182 194.146 28.1336 193.594 27.6145C193.043 27.0889 192.332 26.826 191.463 26.826C190.866 26.826 190.307 26.985 189.788 27.303C189.276 27.621 188.86 28.0622 188.542 28.6268C188.231 29.1849 188.075 29.8305 188.075 30.5638V39.9082H185.778ZM215.538 40.2197C214.188 40.2197 213.004 39.8985 211.985 39.256C210.973 38.6136 210.181 37.7149 209.61 36.5598C209.046 35.4047 208.764 34.055 208.764 32.5106C208.764 30.9532 209.046 29.5937 209.61 28.4321C210.181 27.2705 210.973 26.3686 211.985 25.7261C213.004 25.0837 214.188 24.7625 215.538 24.7625C216.888 24.7625 218.069 25.0837 219.081 25.7261C220.1 26.3686 220.892 27.2705 221.456 28.4321C222.027 29.5937 222.313 30.9532 222.313 32.5106C222.313 34.055 222.027 35.4047 221.456 36.5598C220.892 37.7149 220.1 38.6136 219.081 39.256C218.069 39.8985 216.888 40.2197 215.538 40.2197ZM215.538 38.1561C216.564 38.1561 217.407 37.8933 218.069 37.3677C218.731 36.8421 219.221 36.151 219.539 35.2944C219.857 34.4378 220.016 33.5099 220.016 32.5106C220.016 31.5112 219.857 30.58 219.539 29.717C219.221 28.8539 218.731 28.1563 218.069 27.6242C217.407 27.0921 216.564 26.826 215.538 26.826C214.513 26.826 213.669 27.0921 213.007 27.6242C212.346 28.1563 211.856 28.8539 211.538 29.717C211.22 30.58 211.061 31.5112 211.061 32.5106C211.061 33.5099 211.22 34.4378 211.538 35.2944C211.856 36.151 212.346 36.8421 213.007 37.3677C213.669 37.8933 214.513 38.1561 215.538 38.1561ZM225.682 39.9082V24.9572H227.902V27.2154H228.057C228.33 26.4756 228.823 25.8754 229.537 25.4146C230.251 24.9539 231.055 24.7235 231.951 24.7235C232.12 24.7235 232.331 24.7268 232.584 24.7333C232.837 24.7398 233.028 24.7495 233.158 24.7625V27.0986C233.08 27.0791 232.902 27.0499 232.623 27.011C232.35 26.9656 232.061 26.9428 231.756 26.9428C231.03 26.9428 230.381 27.0953 229.81 27.4003C229.245 27.6988 228.797 28.1141 228.466 28.6463C228.142 29.1719 227.98 29.7721 227.98 30.447V39.9082H225.682ZM235.744 39.9082V24.9572H237.963V27.2154H238.119C238.392 26.4756 238.885 25.8754 239.599 25.4146C240.312 24.9539 241.117 24.7235 242.012 24.7235C242.181 24.7235 242.392 24.7268 242.645 24.7333C242.898 24.7398 243.09 24.7495 243.219 24.7625V27.0986C243.142 27.0791 242.963 27.0499 242.684 27.011C242.412 26.9656 242.123 26.9428 241.818 26.9428C241.091 26.9428 240.442 27.0953 239.871 27.4003C239.306 27.6988 238.859 28.1141 238.528 28.6463C238.203 29.1719 238.041 29.7721 238.041 30.447V39.9082H235.744ZM251.424 40.2197C250.074 40.2197 248.89 39.8985 247.871 39.256C246.859 38.6136 246.067 37.7149 245.496 36.5598C244.932 35.4047 244.65 34.055 244.65 32.5106C244.65 30.9532 244.932 29.5937 245.496 28.4321C246.067 27.2705 246.859 26.3686 247.871 25.7261C248.89 25.0837 250.074 24.7625 251.424 24.7625C252.774 24.7625 253.955 25.0837 254.967 25.7261C255.986 26.3686 256.778 27.2705 257.342 28.4321C257.913 29.5937 258.199 30.9532 258.199 32.5106C258.199 34.055 257.913 35.4047 257.342 36.5598C256.778 37.7149 255.986 38.6136 254.967 39.256C253.955 39.8985 252.774 40.2197 251.424 40.2197ZM251.424 38.1561C252.45 38.1561 253.293 37.8933 253.955 37.3677C254.617 36.8421 255.107 36.151 255.425 35.2944C255.743 34.4378 255.902 33.5099 255.902 32.5106C255.902 31.5112 255.743 30.58 255.425 29.717C255.107 28.8539 254.617 28.1563 253.955 27.6242C253.293 27.0921 252.45 26.826 251.424 26.826C250.399 26.826 249.555 27.0921 248.893 27.6242C248.232 28.1563 247.742 28.8539 247.424 29.717C247.106 30.58 246.947 31.5112 246.947 32.5106C246.947 33.5099 247.106 34.4378 247.424 35.2944C247.742 36.151 248.232 36.8421 248.893 37.3677C249.555 37.8933 250.399 38.1561 251.424 38.1561ZM264.447 39.9082L259.892 24.9572H262.306L265.537 36.4041H265.693L268.886 24.9572H271.339L274.492 36.3651H274.648L277.88 24.9572H280.294L275.738 39.9082H273.48L270.21 28.4224H269.976L266.705 39.9082H264.447ZM282.834 40.0639C282.353 40.0639 281.941 39.892 281.597 39.5481C281.253 39.2041 281.081 38.7921 281.081 38.3119C281.081 37.8317 281.253 37.4196 281.597 37.0757C281.941 36.7318 282.353 36.5598 282.834 36.5598C283.314 36.5598 283.726 36.7318 284.07 37.0757C284.414 37.4196 284.586 37.8317 284.586 38.3119C284.586 38.6298 284.504 38.9218 284.342 39.1879C284.187 39.454 283.976 39.6681 283.71 39.8303C283.45 39.9861 283.158 40.0639 282.834 40.0639Z" fill="white"/>
<path d="M330.585 20.0555C330.585 9.20162 321.787 0.402832 310.933 0.402832V28.8474H330.585V20.0555Z" fill="#278EFF" stroke="#278EFF" stroke-width="0.805851"/>
<rect width="19.6526" height="2.1217" transform="matrix(-1 0 0 1 330.585 28.8477)" fill="#278EFF" stroke="#278EFF" stroke-width="0.805851"/>
<path d="M310.933 30.9692V59.4136C315.692 59.4136 320.056 57.7211 323.457 54.9058C326.849 57.1658 332.288 59.3156 338.86 58.1206C337.05 57.3447 330.069 52.6904 330.327 43.3813C330.296 43.4236 330.262 43.463 330.229 43.5034C330.462 42.2919 330.586 41.0409 330.586 39.7612V30.9692H310.933Z" fill="#278EFF"/>
<path d="M310.933 30.9692H310.53V30.5663H310.933V30.9692ZM310.933 59.4136V59.8165H310.53V59.4136H310.933ZM323.457 54.9058L323.2 54.5954L323.431 54.4042L323.68 54.5704L323.457 54.9058ZM338.86 58.1206L339.019 57.7503L340.249 58.2776L338.932 58.517L338.86 58.1206ZM330.327 43.3813L330.001 43.1444L330.766 42.0928L330.73 43.3925L330.327 43.3813ZM330.229 43.5034L330.539 43.7597L329.833 43.4271L330.229 43.5034ZM330.586 39.7612H330.989H330.586ZM330.586 30.9692V30.5663H330.989V30.9692H330.586ZM310.933 30.9692H311.336V59.4136H310.933H310.53V30.9692H310.933ZM310.933 59.4136V59.0106C315.595 59.0106 319.869 57.3532 323.2 54.5954L323.457 54.9058L323.714 55.2161C320.244 58.0891 315.79 59.8165 310.933 59.8165V59.4136ZM323.457 54.9058L323.68 54.5704C327.01 56.789 332.344 58.8958 338.788 57.7242L338.86 58.1206L338.932 58.517C332.232 59.7353 326.688 57.5427 323.234 55.2411L323.457 54.9058ZM338.86 58.1206L338.702 58.4909C337.735 58.0766 335.484 56.6779 333.503 54.2026C331.515 51.7174 329.792 48.1359 329.924 43.3702L330.327 43.3813L330.73 43.3925C330.604 47.9358 332.242 51.336 334.133 53.6992C336.031 56.0723 338.176 57.3888 339.019 57.7503L338.86 58.1206ZM330.327 43.3813L330.653 43.6183C330.613 43.6737 330.562 43.7323 330.539 43.7597L330.229 43.5034L329.918 43.2472C329.962 43.1938 329.98 43.1735 330.001 43.1444L330.327 43.3813ZM330.229 43.5034L329.833 43.4271C330.062 42.2403 330.183 41.0149 330.183 39.7612H330.586H330.989C330.989 41.067 330.862 42.3435 330.624 43.5797L330.229 43.5034ZM330.586 39.7612H330.183V30.9692H330.586H330.989V39.7612H330.586ZM330.586 30.9692V31.3722H310.933V30.9692V30.5663H330.586V30.9692Z" fill="#278EFF"/>
</svg>
