<svg width="341" height="90" viewBox="0 0 341 90" fill="none" xmlns="http://www.w3.org/2000/svg">
<path d="M0.402832 20.0555C0.402832 9.20162 9.20161 0.402832 20.0555 0.402832V28.8474H0.402832V20.0555Z" fill="#278EFF" stroke="#278EFF" stroke-width="0.805851"/>
<rect x="0.402832" y="28.8474" width="19.6526" height="32.1214" fill="#278EFF" stroke="#278EFF" stroke-width="0.805851"/>
<path d="M0.402832 69.7609C0.402832 80.6148 9.20161 89.4136 20.0555 89.4136V60.969H0.402832V69.7609Z" fill="#278EFF" stroke="#278EFF" stroke-width="0.805851"/>
<rect x="20.0557" y="0.402832" width="290.877" height="89.0106" fill="#278EFF"/>
<rect x="20.0557" y="0.402832" width="290.877" height="89.0106" stroke="#278EFF" stroke-width="0.805851"/>
<path d="M22.4696 39.9082V19.9735H29.439C30.8277 19.9735 31.973 20.2136 32.875 20.6938C33.777 21.1675 34.4486 21.8067 34.8899 22.6113C35.3312 23.4095 35.5518 24.2953 35.5518 25.2686C35.5518 26.1252 35.3993 26.8325 35.0943 27.3906C34.7958 27.9487 34.4 28.3899 33.9068 28.7144C33.4201 29.0388 32.8912 29.2789 32.3202 29.4347V29.6294C32.9302 29.6683 33.5434 29.8824 34.1599 30.2718C34.7763 30.6611 35.2922 31.2192 35.7075 31.946C36.1228 32.6728 36.3305 33.5618 36.3305 34.613C36.3305 35.6124 36.1034 36.5111 35.6491 37.3093C35.1949 38.1075 34.4778 38.7402 33.498 39.2074C32.5181 39.6746 31.243 39.9082 29.6726 39.9082H22.4696ZM24.8836 37.7668H29.6726C31.2495 37.7668 32.3689 37.4618 33.0308 36.8518C33.6991 36.2353 34.0333 35.4891 34.0333 34.613C34.0333 33.9382 33.8614 33.3152 33.5174 32.7442C33.1735 32.1666 32.6836 31.7059 32.0476 31.362C31.4117 31.0116 30.659 30.8363 29.7894 30.8363H24.8836V37.7668ZM24.8836 28.7339H29.3611C30.0879 28.7339 30.7433 28.5911 31.3273 28.3056C31.9179 28.02 32.3851 27.6177 32.729 27.0986C33.0794 26.5795 33.2546 25.9695 33.2546 25.2686C33.2546 24.3926 32.9496 23.6496 32.3397 23.0396C31.7297 22.4231 30.7628 22.1149 29.439 22.1149H24.8836V28.7339ZM40.16 39.9082V19.9735H46.8957C48.4531 19.9735 49.7315 20.2395 50.7308 20.7716C51.7301 21.2973 52.4699 22.0208 52.9501 22.9423C53.4303 23.8637 53.6704 24.9117 53.6704 26.0863C53.6704 27.2608 53.4303 28.3023 52.9501 29.2108C52.4699 30.1193 51.7334 30.8331 50.7405 31.3522C49.7477 31.8649 48.4791 32.1212 46.9346 32.1212H41.4837V29.9408H46.8568C47.921 29.9408 48.7776 29.7851 49.4265 29.4736C50.0819 29.1621 50.5556 28.7209 50.8476 28.1498C51.1461 27.5723 51.2954 26.8844 51.2954 26.0863C51.2954 25.2881 51.1461 24.5905 50.8476 23.9935C50.5491 23.3965 50.0722 22.9358 49.4168 22.6113C48.7613 22.2804 47.895 22.1149 46.8178 22.1149H42.5739V39.9082H40.16ZM49.5433 30.9532L54.4491 39.9082H51.6458L46.8178 30.9532H49.5433ZM74.3757 29.9408C74.3757 32.0433 73.9961 33.8603 73.2369 35.3917C72.4777 36.9232 71.4362 38.1042 70.1124 38.9348C68.7886 39.7654 67.2766 40.1807 65.5764 40.1807C63.8763 40.1807 62.3643 39.7654 61.0405 38.9348C59.7167 38.1042 58.6752 36.9232 57.916 35.3917C57.1567 33.8603 56.7771 32.0433 56.7771 29.9408C56.7771 27.8383 57.1567 26.0214 57.916 24.4899C58.6752 22.9585 59.7167 21.7775 61.0405 20.9469C62.3643 20.1162 63.8763 19.7009 65.5764 19.7009C67.2766 19.7009 68.7886 20.1162 70.1124 20.9469C71.4362 21.7775 72.4777 22.9585 73.2369 24.4899C73.9961 26.0214 74.3757 27.8383 74.3757 29.9408ZM72.0396 29.9408C72.0396 28.2147 71.7509 26.7579 71.1733 25.5704C70.6023 24.3829 69.8268 23.4841 68.847 22.8741C67.8736 22.2642 66.7834 21.9592 65.5764 21.9592C64.3695 21.9592 63.276 22.2642 62.2962 22.8741C61.3228 23.4841 60.5473 24.3829 59.9698 25.5704C59.3987 26.7579 59.1132 28.2147 59.1132 29.9408C59.1132 31.667 59.3987 33.1238 59.9698 34.3113C60.5473 35.4988 61.3228 36.3976 62.2962 37.0075C63.276 37.6175 64.3695 37.9225 65.5764 37.9225C66.7834 37.9225 67.8736 37.6175 68.847 37.0075C69.8268 36.3976 70.6023 35.4988 71.1733 34.3113C71.7509 33.1238 72.0396 31.667 72.0396 29.9408ZM88.2837 19.9735V39.9082H85.8698V19.9735H88.2837ZM116.366 19.9735V39.9082H114.03L103.168 24.2563H102.973V39.9082H100.559V19.9735H102.895L113.797 35.6643H113.991V19.9735H116.366ZM121.06 39.9082V19.9735H133.091V22.1149H123.474V28.8507H132.468V30.9921H123.474V37.7668H133.246V39.9082H121.06ZM137.305 39.9082V19.9735H149.336V22.1149H139.719V28.8507H148.713V30.9921H139.719V37.7668H149.491V39.9082H137.305ZM159.701 39.9082H153.55V19.9735H159.974C161.908 19.9735 163.562 20.3726 164.938 21.1707C166.314 21.9624 167.368 23.1013 168.101 24.5873C168.835 26.0668 169.201 27.8383 169.201 29.9019C169.201 31.9784 168.832 33.7662 168.092 35.2652C167.352 36.7577 166.275 37.9063 164.86 38.711C163.445 39.5091 161.726 39.9082 159.701 39.9082ZM155.963 37.7668H159.546C161.194 37.7668 162.56 37.4488 163.643 36.8129C164.727 36.1769 165.535 35.2717 166.067 34.0972C166.599 32.9226 166.865 31.5242 166.865 29.9019C166.865 28.2926 166.602 26.9072 166.077 25.7456C165.551 24.5775 164.766 23.682 163.721 23.0591C162.677 22.4296 161.375 22.1149 159.818 22.1149H155.963V37.7668ZM179.595 22.1149V19.9735H194.547V22.1149H188.278V39.9082H185.864V22.1149H179.595ZM198.135 39.9082V19.9735H200.549V28.8507H211.178V19.9735H213.592V39.9082H211.178V30.9921H200.549V39.9082H198.135ZM218.288 39.9082V19.9735H230.319V22.1149H220.702V28.8507H229.696V30.9921H220.702V37.7668H230.475V39.9082H218.288ZM234.533 19.9735H237.414L244.189 36.5209H244.422L251.197 19.9735H254.078V39.9082H251.82V24.7625H251.625L245.396 39.9082H243.215L236.986 24.7625H236.791V39.9082H234.533V19.9735ZM38.2772 49.9735V69.9082H35.9411L25.0783 54.2563H24.8836V69.9082H22.4696V49.9735H24.8057L35.7075 65.6643H35.9022V49.9735H38.2772ZM59.7905 59.9408C59.7905 62.0433 59.4109 63.8603 58.6516 65.3917C57.8924 66.9232 56.8509 68.1042 55.5271 68.9348C54.2033 69.7654 52.6913 70.1807 50.9912 70.1807C49.291 70.1807 47.779 69.7654 46.4553 68.9348C45.1315 68.1042 44.09 66.9232 43.3307 65.3917C42.5715 63.8603 42.1919 62.0433 42.1919 59.9408C42.1919 57.8383 42.5715 56.0214 43.3307 54.4899C44.09 52.9585 45.1315 51.7775 46.4553 50.9469C47.779 50.1162 49.291 49.7009 50.9912 49.7009C52.6913 49.7009 54.2033 50.1162 55.5271 50.9469C56.8509 51.7775 57.8924 52.9585 58.6516 54.4899C59.4109 56.0214 59.7905 57.8383 59.7905 59.9408ZM57.4544 59.9408C57.4544 58.2147 57.1656 56.7579 56.5881 55.5704C56.017 54.3829 55.2416 53.4841 54.2617 52.8741C53.2884 52.2642 52.1982 51.9592 50.9912 51.9592C49.7842 51.9592 48.6908 52.2642 47.7109 52.8741C46.7375 53.4841 45.9621 54.3829 45.3845 55.5704C44.8135 56.7579 44.528 58.2147 44.528 59.9408C44.528 61.667 44.8135 63.1238 45.3845 64.3113C45.9621 65.4988 46.7375 66.3976 47.7109 67.0075C48.6908 67.6175 49.7842 67.9225 50.9912 67.9225C52.1982 67.9225 53.2884 67.6175 54.2617 67.0075C55.2416 66.3976 56.017 65.4988 56.5881 64.3113C57.1656 63.1238 57.4544 61.667 57.4544 59.9408ZM67.3334 69.9082L61.8825 49.9735H64.3354L68.5014 66.2094H68.6961L72.94 49.9735H75.6655L79.9094 66.2094H80.1041L84.2701 49.9735H86.723L81.2721 69.9082H78.7803L74.3806 54.0227H74.2249L69.8252 69.9082H67.3334ZM92.3191 49.9735L92.1245 64.3016H89.8662L89.6716 49.9735H92.3191ZM90.9954 70.0639C90.5152 70.0639 90.1031 69.892 89.7592 69.5481C89.4152 69.2041 89.2433 68.7921 89.2433 68.3119C89.2433 67.8317 89.4152 67.4196 89.7592 67.0757C90.1031 66.7318 90.5152 66.5598 90.9954 66.5598C91.4756 66.5598 91.8876 66.7318 92.2315 67.0757C92.5755 67.4196 92.7474 67.8317 92.7474 68.3119C92.7474 68.6298 92.6663 68.9218 92.5041 69.1879C92.3483 69.454 92.1375 69.6681 91.8714 69.8303C91.6118 69.9861 91.3198 70.0639 90.9954 70.0639Z" fill="white"/>
<path d="M330.585 20.0555C330.585 9.20162 321.787 0.402832 310.933 0.402832V28.8474H330.585V20.0555Z" fill="#278EFF" stroke="#278EFF" stroke-width="0.805851"/>
<rect width="19.6526" height="32.1217" transform="matrix(-1 0 0 1 330.585 28.8477)" fill="#278EFF" stroke="#278EFF" stroke-width="0.805851"/>
<path d="M310.933 60.9692V89.4136C315.692 89.4136 320.056 87.7211 323.457 84.9058C326.849 87.1658 332.288 89.3156 338.86 88.1206C337.05 87.3447 330.069 82.6904 330.327 73.3813C330.296 73.4236 330.262 73.463 330.229 73.5034C330.462 72.2919 330.586 71.0409 330.586 69.7612V60.9692H310.933Z" fill="#278EFF"/>
<path d="M310.933 60.9692H310.53V60.5663H310.933V60.9692ZM310.933 89.4136V89.8165H310.53V89.4136H310.933ZM323.457 84.9058L323.2 84.5954L323.431 84.4042L323.68 84.5704L323.457 84.9058ZM338.86 88.1206L339.019 87.7503L340.249 88.2776L338.932 88.517L338.86 88.1206ZM330.327 73.3813L330.001 73.1444L330.766 72.0928L330.73 73.3925L330.327 73.3813ZM330.229 73.5034L330.539 73.7597L329.833 73.4271L330.229 73.5034ZM330.586 69.7612H330.989H330.586ZM330.586 60.9692V60.5663H330.989V60.9692H330.586ZM310.933 60.9692H311.336V89.4136H310.933H310.53V60.9692H310.933ZM310.933 89.4136V89.0106C315.595 89.0106 319.869 87.3532 323.2 84.5954L323.457 84.9058L323.714 85.2161C320.244 88.0891 315.79 89.8165 310.933 89.8165V89.4136ZM323.457 84.9058L323.68 84.5704C327.01 86.789 332.344 88.8958 338.788 87.7242L338.86 88.1206L338.932 88.517C332.232 89.7353 326.688 87.5427 323.234 85.2411L323.457 84.9058ZM338.86 88.1206L338.702 88.4909C337.735 88.0766 335.484 86.6779 333.503 84.2026C331.515 81.7174 329.792 78.1359 329.924 73.3702L330.327 73.3813L330.73 73.3925C330.604 77.9358 332.242 81.336 334.133 83.6992C336.031 86.0723 338.176 87.3888 339.019 87.7503L338.86 88.1206ZM330.327 73.3813L330.653 73.6183C330.613 73.6737 330.562 73.7323 330.539 73.7597L330.229 73.5034L329.918 73.2472C329.962 73.1938 329.98 73.1735 330.001 73.1444L330.327 73.3813ZM330.229 73.5034L329.833 73.4271C330.062 72.2403 330.183 71.0149 330.183 69.7612H330.586H330.989C330.989 71.067 330.862 72.3435 330.624 73.5797L330.229 73.5034ZM330.586 69.7612H330.183V60.9692H330.586H330.989V69.7612H330.586ZM330.586 60.9692V61.3722H310.933V60.9692V60.5663H330.586V60.9692Z" fill="#278EFF"/>
</svg>
