<svg width="341" height="120" viewBox="0 0 341 120" fill="none" xmlns="http://www.w3.org/2000/svg">
<path d="M9.66406 20.0556C9.66406 9.20175 18.4628 0.402954 29.3167 0.402954V28.8475H9.66406V20.0556Z" fill="#26252A" stroke="#26252A" stroke-width="0.805851"/>
<rect x="9.66406" y="28.8474" width="19.6526" height="62.1217" fill="#26252A" stroke="#26252A" stroke-width="0.805851"/>
<path d="M29.3169 90.9692V119.414C24.5572 119.414 20.1931 117.721 16.7925 114.906C13.4001 117.166 7.96139 119.316 1.38916 118.121C3.19942 117.345 10.1809 112.69 9.92236 103.381C9.95309 103.424 9.98772 103.463 10.021 103.503C9.78742 102.292 9.66357 101.041 9.66357 99.7612V90.9692H29.3169Z" fill="#26252A"/>
<path d="M29.3169 90.9692H29.7198V90.5663H29.3169V90.9692ZM29.3169 119.414V119.816H29.7198V119.414H29.3169ZM16.7925 114.906L17.0494 114.595L16.8185 114.404L16.5691 114.57L16.7925 114.906ZM1.38916 118.121L1.23043 117.75L0.000112771 118.278L1.31708 118.517L1.38916 118.121ZM9.92236 103.381L10.2482 103.144L9.48349 102.093L9.51959 103.393L9.92236 103.381ZM10.021 103.503L9.71006 103.76L10.4166 103.427L10.021 103.503ZM9.66357 99.7612L9.26065 99.7612L9.26065 99.7612L9.66357 99.7612ZM9.66357 90.9692V90.5663H9.26065V90.9692H9.66357ZM29.3169 90.9692H28.914V119.414H29.3169H29.7198V90.9692H29.3169ZM29.3169 119.414V119.011C24.6545 119.011 20.3805 117.353 17.0494 114.595L16.7925 114.906L16.5355 115.216C20.0057 118.089 24.46 119.816 29.3169 119.816V119.414ZM16.7925 114.906L16.5691 114.57C13.2391 116.789 7.90505 118.896 1.46124 117.724L1.38916 118.121L1.31708 118.517C8.01773 119.735 13.5612 117.543 17.0159 115.241L16.7925 114.906ZM1.38916 118.121L1.54789 118.491C2.51474 118.077 4.76599 116.678 6.74621 114.203C8.73435 111.717 10.4575 108.136 10.3251 103.37L9.92236 103.381L9.51959 103.393C9.6458 107.936 8.00749 111.336 6.11695 113.699C4.21849 116.072 2.07385 117.389 1.23043 117.75L1.38916 118.121ZM9.92236 103.381L9.5965 103.618C9.63679 103.674 9.68751 103.732 9.71006 103.76L10.021 103.503L10.3319 103.247C10.2879 103.194 10.2694 103.173 10.2482 103.144L9.92236 103.381ZM10.021 103.503L10.4166 103.427C10.1878 102.24 10.0665 101.015 10.0665 99.7612L9.66357 99.7612L9.26065 99.7612C9.26065 101.067 9.38702 102.343 9.62536 103.58L10.021 103.503ZM9.66357 99.7612H10.0665V90.9692H9.66357H9.26065V99.7612H9.66357ZM9.66357 90.9692V91.3722H29.3169V90.9692V90.5663H9.66357V90.9692Z" fill="#26252A"/>
<rect x="29.3164" y="0.402954" width="290.877" height="119.011" fill="#26252A"/>
<rect x="29.3164" y="0.402954" width="290.877" height="119.011" stroke="#26252A" stroke-width="0.805851"/>
<path d="M30.6402 22.115V19.9736H45.5912V22.115H39.3227V39.9083H36.9087V22.115H30.6402ZM51.1655 30.9143V39.9083H48.8683V19.9736H51.1655V27.2934H51.3601C51.7106 26.5212 52.2362 25.9079 52.937 25.4537C53.6443 24.993 54.5853 24.7626 55.7598 24.7626C56.7786 24.7626 57.6709 24.967 58.4366 25.3758C59.2023 25.7782 59.7961 26.3979 60.2179 27.235C60.6461 28.0656 60.8603 29.1233 60.8603 30.4082V39.9083H58.5631V30.5639C58.5631 29.3764 58.2549 28.4582 57.6384 27.8093C57.0284 27.1539 56.1816 26.8262 55.0979 26.8262C54.3452 26.8262 53.6703 26.9851 53.0733 27.3031C52.4828 27.6211 52.0156 28.0851 51.6716 28.695C51.3342 29.305 51.1655 30.0448 51.1655 30.9143ZM71.1943 40.2198C69.7537 40.2198 68.511 39.9018 67.4663 39.2659C66.428 38.6235 65.6266 37.728 65.0621 36.5794C64.504 35.4243 64.225 34.0811 64.225 32.5496C64.225 31.0182 64.504 29.6684 65.0621 28.5004C65.6266 27.3258 66.4118 26.4109 67.4176 25.7554C68.4299 25.0936 69.611 24.7626 70.9607 24.7626C71.7394 24.7626 72.5084 24.8924 73.2676 25.152C74.0268 25.4115 74.7179 25.8333 75.3409 26.4173C75.9639 26.9949 76.4603 27.7606 76.8302 28.7145C77.2 29.6684 77.385 30.843 77.385 32.2381V33.2115H65.8602V31.2258H75.0489C75.0489 30.3822 74.8802 29.6295 74.5427 28.9676C74.2118 28.3057 73.7381 27.7833 73.1216 27.4005C72.5116 27.0176 71.7913 26.8262 70.9607 26.8262C70.0457 26.8262 69.2541 27.0533 68.5857 27.5075C67.9238 27.9553 67.4144 28.5393 67.0575 29.2596C66.7006 29.9799 66.5221 30.7521 66.5221 31.5762V32.9C66.5221 34.0291 66.7168 34.9863 67.1061 35.7715C67.502 36.5502 68.0503 37.1439 68.7511 37.5528C69.452 37.9551 70.2664 38.1562 71.1943 38.1562C71.7978 38.1562 72.3429 38.0719 72.8296 37.9032C73.3228 37.728 73.7478 37.4684 74.1047 37.1245C74.4616 36.7741 74.7374 36.3393 74.9321 35.8201L77.1514 36.4431C76.9178 37.1959 76.5252 37.8577 75.9736 38.4288C75.422 38.9934 74.7406 39.4346 73.9295 39.7526C73.1184 40.0641 72.2066 40.2198 71.1943 40.2198ZM93.96 40.2198C92.7141 40.2198 91.6142 39.9051 90.6603 39.2756C89.7064 38.6397 88.9601 37.7442 88.4215 36.5891C87.8829 35.4276 87.6136 34.0551 87.6136 32.4717C87.6136 30.9014 87.8829 29.5386 88.4215 28.3836C88.9601 27.2285 89.7096 26.3362 90.67 25.7068C91.6304 25.0773 92.74 24.7626 93.9989 24.7626C94.9723 24.7626 95.7413 24.9248 96.3058 25.2493C96.8769 25.5673 97.3117 25.9307 97.6102 26.3395C97.9152 26.7418 98.152 27.0727 98.3207 27.3323H98.5154V19.9736H100.813V39.9083H98.5933V37.6112H98.3207C98.152 37.8837 97.9119 38.2276 97.6004 38.6429C97.289 39.0518 96.8444 39.4184 96.2669 39.7429C95.6894 40.0608 94.9204 40.2198 93.96 40.2198ZM94.2715 38.1562C95.193 38.1562 95.9717 37.9162 96.6076 37.436C97.2435 36.9493 97.727 36.2776 98.0579 35.4211C98.3889 34.558 98.5543 33.5619 98.5543 32.4328C98.5543 31.3167 98.3921 30.34 98.0677 29.5029C97.7432 28.6594 97.263 28.0039 96.6271 27.5367C95.9911 27.063 95.2059 26.8262 94.2715 26.8262C93.2981 26.8262 92.487 27.076 91.8381 27.5757C91.1956 28.0688 90.7122 28.7405 90.3877 29.5905C90.0698 30.4341 89.9108 31.3816 89.9108 32.4328C89.9108 33.497 90.073 34.4639 90.3975 35.3335C90.7284 36.1965 91.2151 36.8844 91.8575 37.397C92.5064 37.9032 93.3111 38.1562 94.2715 38.1562ZM105.202 39.9083V24.9573H107.499V39.9083H105.202ZM106.37 22.4654C105.922 22.4654 105.536 22.3129 105.211 22.008C104.893 21.703 104.734 21.3363 104.734 20.908C104.734 20.4798 104.893 20.1131 105.211 19.8081C105.536 19.5031 105.922 19.3506 106.37 19.3506C106.818 19.3506 107.2 19.5031 107.518 19.8081C107.843 20.1131 108.005 20.4798 108.005 20.908C108.005 21.3363 107.843 21.703 107.518 22.008C107.2 22.3129 106.818 22.4654 106.37 22.4654ZM115.969 40.2587C115.021 40.2587 114.162 40.0803 113.389 39.7234C112.617 39.36 112.004 38.8376 111.55 38.1562C111.096 37.4684 110.868 36.6378 110.868 35.6644C110.868 34.8078 111.037 34.1135 111.375 33.5814C111.712 33.0428 112.163 32.621 112.728 32.316C113.292 32.011 113.915 31.7839 114.596 31.6346C115.284 31.4789 115.975 31.3556 116.67 31.2648C117.578 31.1479 118.315 31.0603 118.879 31.0019C119.45 30.937 119.866 30.83 120.125 30.6807C120.391 30.5315 120.524 30.2719 120.524 29.902V29.8242C120.524 28.8638 120.261 28.1175 119.736 27.5854C119.217 27.0533 118.428 26.7872 117.371 26.7872C116.274 26.7872 115.414 27.0273 114.791 27.5075C114.168 27.9877 113.73 28.5004 113.477 29.0455L111.297 28.2668C111.686 27.3583 112.205 26.651 112.854 26.1448C113.51 25.6322 114.223 25.2752 114.996 25.0741C115.774 24.8664 116.54 24.7626 117.293 24.7626C117.773 24.7626 118.324 24.821 118.947 24.9378C119.577 25.0481 120.184 25.2785 120.768 25.6289C121.358 25.9793 121.848 26.5082 122.237 27.2155C122.627 27.9228 122.821 28.8702 122.821 30.0578V39.9083H120.524V37.8837H120.407C120.252 38.2082 119.992 38.5553 119.629 38.9252C119.265 39.2951 118.782 39.6098 118.178 39.8694C117.575 40.129 116.838 40.2587 115.969 40.2587ZM116.319 38.1952C117.228 38.1952 117.994 38.0167 118.616 37.6598C119.246 37.3029 119.72 36.8422 120.038 36.2776C120.362 35.7131 120.524 35.1193 120.524 34.4964V32.3939C120.427 32.5107 120.213 32.6177 119.882 32.7151C119.557 32.8059 119.181 32.887 118.753 32.9584C118.331 33.0233 117.919 33.0817 117.517 33.1336C117.121 33.1791 116.8 33.218 116.553 33.2504C115.956 33.3283 115.398 33.4548 114.879 33.6301C114.366 33.7988 113.951 34.0551 113.633 34.399C113.321 34.7365 113.166 35.1972 113.166 35.7812C113.166 36.5794 113.461 37.1829 114.051 37.5917C114.648 37.994 115.404 38.1952 116.319 38.1952ZM132.912 45.8264C131.803 45.8264 130.849 45.6837 130.05 45.3982C129.252 45.1191 128.587 44.7492 128.055 44.2885C127.529 43.8343 127.111 43.3476 126.799 42.8285L128.629 41.5436C128.837 41.8161 129.1 42.1276 129.418 42.478C129.736 42.8349 130.17 43.1432 130.722 43.4027C131.28 43.6688 132.01 43.8018 132.912 43.8018C134.119 43.8018 135.115 43.5098 135.9 42.9258C136.686 42.3418 137.078 41.4268 137.078 40.1809V37.1439H136.884C136.715 37.4165 136.475 37.7539 136.163 38.1562C135.858 38.5521 135.417 38.9057 134.839 39.2172C134.268 39.5222 133.496 39.6747 132.523 39.6747C131.316 39.6747 130.232 39.3892 129.272 38.8181C128.318 38.2471 127.562 37.4165 127.004 36.3263C126.452 35.2361 126.176 33.9123 126.176 32.3549C126.176 30.8235 126.446 29.49 126.984 28.3544C127.523 27.2123 128.272 26.3297 129.233 25.7068C130.193 25.0773 131.303 24.7626 132.562 24.7626C133.535 24.7626 134.307 24.9248 134.878 25.2493C135.456 25.5673 135.897 25.9307 136.202 26.3395C136.514 26.7418 136.754 27.0727 136.922 27.3323H137.156V24.9573H139.375V40.3366C139.375 41.6215 139.083 42.6662 138.499 43.4709C137.922 44.282 137.143 44.8758 136.163 45.2522C135.19 45.635 134.106 45.8264 132.912 45.8264ZM132.834 37.6112C133.756 37.6112 134.534 37.4003 135.17 36.9785C135.806 36.5567 136.29 35.9499 136.621 35.1583C136.952 34.3666 137.117 33.4192 137.117 32.316C137.117 31.2388 136.955 30.2881 136.63 29.464C136.306 28.6399 135.826 27.9942 135.19 27.527C134.554 27.0598 133.769 26.8262 132.834 26.8262C131.861 26.8262 131.05 27.0727 130.401 27.5659C129.758 28.0591 129.275 28.721 128.951 29.5516C128.633 30.3822 128.474 31.3037 128.474 32.316C128.474 33.3543 128.636 34.2725 128.96 35.0706C129.291 35.8623 129.778 36.4853 130.42 36.9395C131.069 37.3873 131.874 37.6112 132.834 37.6112ZM143.443 39.9083V24.9573H145.663V27.2155H145.818C146.091 26.4757 146.584 25.8755 147.298 25.4148C148.012 24.954 148.816 24.7237 149.712 24.7237C149.881 24.7237 150.091 24.7269 150.345 24.7334C150.598 24.7399 150.789 24.7496 150.919 24.7626V27.0987C150.841 27.0792 150.662 27.05 150.383 27.0111C150.111 26.9657 149.822 26.943 149.517 26.943C148.79 26.943 148.141 27.0955 147.57 27.4005C147.006 27.699 146.558 28.1143 146.227 28.6464C145.903 29.172 145.74 29.7722 145.74 30.4471V39.9083H143.443ZM157.904 40.2587C156.957 40.2587 156.097 40.0803 155.325 39.7234C154.553 39.36 153.94 38.8376 153.485 38.1562C153.031 37.4684 152.804 36.6378 152.804 35.6644C152.804 34.8078 152.973 34.1135 153.31 33.5814C153.648 33.0428 154.099 32.621 154.663 32.316C155.228 32.011 155.851 31.7839 156.532 31.6346C157.22 31.4789 157.911 31.3556 158.605 31.2648C159.514 31.1479 160.25 31.0603 160.815 31.0019C161.386 30.937 161.801 30.83 162.061 30.6807C162.327 30.5315 162.46 30.2719 162.46 29.902V29.8242C162.46 28.8638 162.197 28.1175 161.671 27.5854C161.152 27.0533 160.364 26.7872 159.306 26.7872C158.209 26.7872 157.35 27.0273 156.727 27.5075C156.104 27.9877 155.666 28.5004 155.413 29.0455L153.232 28.2668C153.622 27.3583 154.141 26.651 154.79 26.1448C155.445 25.6322 156.159 25.2752 156.931 25.0741C157.71 24.8664 158.475 24.7626 159.228 24.7626C159.708 24.7626 160.26 24.821 160.883 24.9378C161.512 25.0481 162.119 25.2785 162.703 25.6289C163.294 25.9793 163.784 26.5082 164.173 27.2155C164.562 27.9228 164.757 28.8702 164.757 30.0578V39.9083H162.46V37.8837H162.343C162.187 38.2082 161.928 38.5553 161.564 38.9252C161.201 39.2951 160.717 39.6098 160.114 39.8694C159.511 40.129 158.774 40.2587 157.904 40.2587ZM158.255 38.1952C159.163 38.1952 159.929 38.0167 160.552 37.6598C161.181 37.3029 161.655 36.8422 161.973 36.2776C162.298 35.7131 162.46 35.1193 162.46 34.4964V32.3939C162.362 32.5107 162.148 32.6177 161.817 32.7151C161.493 32.8059 161.117 32.887 160.688 32.9584C160.266 33.0233 159.854 33.0817 159.452 33.1336C159.056 33.1791 158.735 33.218 158.488 33.2504C157.891 33.3283 157.333 33.4548 156.814 33.6301C156.302 33.7988 155.886 34.0551 155.568 34.399C155.257 34.7365 155.101 35.1972 155.101 35.7812C155.101 36.5794 155.396 37.1829 155.987 37.5917C156.584 37.994 157.34 38.1952 158.255 38.1952ZM168.813 39.9083V24.9573H171.032V27.2934H171.227C171.538 26.4952 172.041 25.8755 172.735 25.4342C173.43 24.9865 174.264 24.7626 175.237 24.7626C176.223 24.7626 177.044 24.9865 177.7 25.4342C178.362 25.8755 178.877 26.4952 179.247 27.2934H179.403C179.786 26.5212 180.36 25.9079 181.126 25.4537C181.892 24.993 182.81 24.7626 183.881 24.7626C185.217 24.7626 186.311 25.1812 187.161 26.0183C188.011 26.8489 188.436 28.1435 188.436 29.902V39.9083H186.139V29.902C186.139 28.7989 185.837 28.0104 185.234 27.5367C184.63 27.063 183.92 26.8262 183.102 26.8262C182.051 26.8262 181.236 27.1441 180.659 27.7801C180.081 28.4095 179.792 29.2077 179.792 30.1746V39.9083H177.456V29.6684C177.456 28.8183 177.181 28.1337 176.629 27.6146C176.077 27.089 175.367 26.8262 174.497 26.8262C173.9 26.8262 173.342 26.9851 172.823 27.3031C172.31 27.6211 171.895 28.0623 171.577 28.6269C171.266 29.185 171.11 29.8306 171.11 30.5639V39.9083H168.813ZM200.071 39.9083V24.9573H202.368V39.9083H200.071ZM201.239 22.4654C200.791 22.4654 200.405 22.3129 200.081 22.008C199.763 21.703 199.604 21.3363 199.604 20.908C199.604 20.4798 199.763 20.1131 200.081 19.8081C200.405 19.5031 200.791 19.3506 201.239 19.3506C201.687 19.3506 202.07 19.5031 202.388 19.8081C202.712 20.1131 202.874 20.4798 202.874 20.908C202.874 21.3363 202.712 21.703 202.388 22.008C202.07 22.3129 201.687 22.4654 201.239 22.4654ZM217.029 28.3057L214.965 28.8897C214.836 28.5458 214.644 28.2116 214.391 27.8871C214.145 27.5562 213.807 27.2836 213.379 27.0695C212.951 26.8554 212.402 26.7483 211.734 26.7483C210.819 26.7483 210.056 26.9592 209.446 27.381C208.843 27.7963 208.541 28.3252 208.541 28.9676C208.541 29.5386 208.749 29.9896 209.164 30.3206C209.579 30.6515 210.228 30.9273 211.111 31.1479L213.33 31.693C214.667 32.0175 215.663 32.5139 216.318 33.1823C216.974 33.8442 217.302 34.6975 217.302 35.7423C217.302 36.5988 217.055 37.3646 216.562 38.0394C216.075 38.7143 215.394 39.2464 214.518 39.6358C213.642 40.0251 212.623 40.2198 211.461 40.2198C209.936 40.2198 208.674 39.8889 207.675 39.227C206.676 38.5651 206.043 37.5982 205.777 36.3263L207.957 35.7812C208.165 36.5859 208.557 37.1894 209.135 37.5917C209.719 37.994 210.481 38.1952 211.422 38.1952C212.493 38.1952 213.343 37.9681 213.973 37.5138C214.609 37.0531 214.927 36.5015 214.927 35.8591C214.927 35.34 214.745 34.9052 214.381 34.5548C214.018 34.1979 213.46 33.9318 212.707 33.7566L210.215 33.1726C208.846 32.8481 207.84 32.3452 207.198 31.6638C206.562 30.976 206.244 30.1162 206.244 29.0844C206.244 28.2408 206.481 27.4945 206.955 26.8456C207.435 26.1967 208.087 25.6873 208.911 25.3174C209.742 24.9475 210.683 24.7626 211.734 24.7626C213.213 24.7626 214.375 25.0871 215.219 25.736C216.069 26.3849 216.672 27.2415 217.029 28.3057ZM228.195 39.9083V24.9573H230.492V39.9083H228.195ZM229.363 22.4654C228.915 22.4654 228.529 22.3129 228.204 22.008C227.886 21.703 227.727 21.3363 227.727 20.908C227.727 20.4798 227.886 20.1131 228.204 19.8081C228.529 19.5031 228.915 19.3506 229.363 19.3506C229.81 19.3506 230.193 19.5031 230.511 19.8081C230.836 20.1131 230.998 20.4798 230.998 20.908C230.998 21.3363 230.836 21.703 230.511 22.008C230.193 22.3129 229.81 22.4654 229.363 22.4654ZM236.859 30.9143V39.9083H234.562V24.9573H236.781V27.2934H236.976C237.326 26.5341 237.859 25.9242 238.572 25.4634C239.286 24.9962 240.208 24.7626 241.337 24.7626C242.349 24.7626 243.235 24.9703 243.994 25.3856C244.753 25.7944 245.344 26.4173 245.766 27.2544C246.187 28.0851 246.398 29.1363 246.398 30.4082V39.9083H244.101V30.5639C244.101 29.3894 243.796 28.4744 243.186 27.819C242.576 27.1571 241.739 26.8262 240.675 26.8262C239.942 26.8262 239.286 26.9851 238.709 27.3031C238.138 27.6211 237.687 28.0851 237.356 28.695C237.025 29.305 236.859 30.0448 236.859 30.9143ZM31.7304 69.9083V49.9736H38.4661C40.03 49.9736 41.3084 50.2559 42.3012 50.8204C43.3006 51.3785 44.0403 52.1345 44.5205 53.0884C45.0007 54.0423 45.2408 55.1065 45.2408 56.2811C45.2408 57.4556 45.0007 58.5231 44.5205 59.4835C44.0468 60.4439 43.3135 61.2096 42.3207 61.7806C41.3279 62.3452 40.056 62.6275 38.5051 62.6275H33.6771V60.4861H38.4272C39.4979 60.4861 40.3577 60.3011 41.0066 59.9312C41.6556 59.5613 42.126 59.0617 42.418 58.4322C42.7165 57.7963 42.8658 57.0792 42.8658 56.2811C42.8658 55.4829 42.7165 54.7691 42.418 54.1396C42.126 53.5102 41.6523 53.017 40.9969 52.6601C40.3415 52.2967 39.472 52.115 38.3883 52.115H34.1443V69.9083H31.7304ZM50.9781 60.9143V69.9083H48.6809V49.9736H50.9781V57.2934H51.1728C51.5232 56.5212 52.0488 55.9079 52.7496 55.4537C53.457 54.993 54.3979 54.7626 55.5724 54.7626C56.5912 54.7626 57.4835 54.967 58.2492 55.3758C59.0149 55.7782 59.6087 56.3979 60.0305 57.235C60.4588 58.0656 60.6729 59.1233 60.6729 60.4082V69.9083H58.3757V60.5639C58.3757 59.3764 58.0675 58.4582 57.451 57.8093C56.8411 57.1539 55.9942 56.8262 54.9105 56.8262C54.1578 56.8262 53.4829 56.9851 52.8859 57.3031C52.2954 57.6211 51.8282 58.0851 51.4842 58.695C51.1468 59.305 50.9781 60.0448 50.9781 60.9143ZM70.8123 70.2198C69.4625 70.2198 68.2782 69.8986 67.2595 69.2562C66.2471 68.6137 65.4555 67.715 64.8844 66.5599C64.3199 65.4048 64.0376 64.0551 64.0376 62.5107C64.0376 60.9533 64.3199 59.5938 64.8844 58.4322C65.4555 57.2707 66.2471 56.3687 67.2595 55.7262C68.2782 55.0838 69.4625 54.7626 70.8123 54.7626C72.162 54.7626 73.343 55.0838 74.3554 55.7262C75.3742 56.3687 76.1658 57.2707 76.7304 58.4322C77.3014 59.5938 77.587 60.9533 77.587 62.5107C77.587 64.0551 77.3014 65.4048 76.7304 66.5599C76.1658 67.715 75.3742 68.6137 74.3554 69.2562C73.343 69.8986 72.162 70.2198 70.8123 70.2198ZM70.8123 68.1562C71.8376 68.1562 72.6812 67.8934 73.343 67.3678C74.0049 66.8422 74.4949 66.1511 74.8128 65.2945C75.1308 64.438 75.2898 63.51 75.2898 62.5107C75.2898 61.5113 75.1308 60.5801 74.8128 59.7171C74.4949 58.854 74.0049 58.1564 73.343 57.6243C72.6812 57.0922 71.8376 56.8262 70.8123 56.8262C69.787 56.8262 68.9434 57.0922 68.2815 57.6243C67.6196 58.1564 67.1297 58.854 66.8117 59.7171C66.4937 60.5801 66.3347 61.5113 66.3347 62.5107C66.3347 63.51 66.4937 64.438 66.8117 65.2945C67.1297 66.1511 67.6196 66.8422 68.2815 67.3678C68.9434 67.8934 69.787 68.1562 70.8123 68.1562ZM87.4586 54.9573V56.904H79.7106V54.9573H87.4586ZM81.9688 51.3753H84.266V65.6255C84.266 66.2744 84.3601 66.7611 84.5482 67.0855C84.7429 67.4035 84.9895 67.6176 85.288 67.728C85.593 67.8318 85.9142 67.8837 86.2517 67.8837C86.5047 67.8837 86.7124 67.8707 86.8746 67.8448C87.0368 67.8123 87.1666 67.7864 87.264 67.7669L87.7312 69.8305C87.5754 69.8889 87.3581 69.9473 87.079 70.0057C86.8 70.0706 86.4463 70.103 86.018 70.103C85.3691 70.103 84.7332 69.9635 84.1102 69.6844C83.4938 69.4054 82.9811 68.9804 82.5723 68.4093C82.17 67.8383 81.9688 67.118 81.9688 66.2484V51.3753ZM96.6903 70.2198C95.3406 70.2198 94.1563 69.8986 93.1375 69.2562C92.1252 68.6137 91.3335 67.715 90.7625 66.5599C90.1979 65.4048 89.9156 64.0551 89.9156 62.5107C89.9156 60.9533 90.1979 59.5938 90.7625 58.4322C91.3335 57.2707 92.1252 56.3687 93.1375 55.7262C94.1563 55.0838 95.3406 54.7626 96.6903 54.7626C98.0401 54.7626 99.2211 55.0838 100.233 55.7262C101.252 56.3687 102.044 57.2707 102.608 58.4322C103.179 59.5938 103.465 60.9533 103.465 62.5107C103.465 64.0551 103.179 65.4048 102.608 66.5599C102.044 67.715 101.252 68.6137 100.233 69.2562C99.2211 69.8986 98.0401 70.2198 96.6903 70.2198ZM96.6903 68.1562C97.7156 68.1562 98.5592 67.8934 99.2211 67.3678C99.883 66.8422 100.373 66.1511 100.691 65.2945C101.009 64.438 101.168 63.51 101.168 62.5107C101.168 61.5113 101.009 60.5801 100.691 59.7171C100.373 58.854 99.883 58.1564 99.2211 57.6243C98.5592 57.0922 97.7156 56.8262 96.6903 56.8262C95.665 56.8262 94.8214 57.0922 94.1596 57.6243C93.4977 58.1564 93.0077 58.854 92.6898 59.7171C92.3718 60.5801 92.2128 61.5113 92.2128 62.5107C92.2128 63.51 92.3718 64.438 92.6898 65.2945C93.0077 66.1511 93.4977 66.8422 94.1596 67.3678C94.8214 67.8934 95.665 68.1562 96.6903 68.1562ZM117.425 58.3057L115.361 58.8897C115.232 58.5458 115.04 58.2116 114.787 57.8871C114.54 57.5562 114.203 57.2836 113.775 57.0695C113.346 56.8554 112.798 56.7483 112.13 56.7483C111.215 56.7483 110.452 56.9592 109.842 57.381C109.239 57.7963 108.937 58.3252 108.937 58.9676C108.937 59.5386 109.145 59.9896 109.56 60.3206C109.975 60.6515 110.624 60.9273 111.507 61.1479L113.726 61.693C115.063 62.0175 116.059 62.5139 116.714 63.1823C117.37 63.8442 117.697 64.6975 117.697 65.7423C117.697 66.5988 117.451 67.3646 116.958 68.0394C116.471 68.7143 115.79 69.2464 114.914 69.6358C114.038 70.0251 113.019 70.2198 111.857 70.2198C110.332 70.2198 109.07 69.8889 108.071 69.227C107.071 68.5651 106.439 67.5982 106.173 66.3263L108.353 65.7812C108.561 66.5859 108.953 67.1894 109.531 67.5917C110.115 67.994 110.877 68.1952 111.818 68.1952C112.889 68.1952 113.739 67.9681 114.368 67.5138C115.004 67.0531 115.322 66.5015 115.322 65.8591C115.322 65.34 115.141 64.9052 114.777 64.5548C114.414 64.1979 113.856 63.9318 113.103 63.7566L110.611 63.1726C109.242 62.8481 108.236 62.3452 107.594 61.6638C106.958 60.976 106.64 60.1162 106.64 59.0844C106.64 58.2408 106.877 57.4945 107.35 56.8456C107.831 56.1967 108.483 55.6873 109.307 55.3174C110.138 54.9475 111.078 54.7626 112.13 54.7626C113.609 54.7626 114.771 55.0871 115.614 55.736C116.464 56.3849 117.068 57.2415 117.425 58.3057ZM124.445 67.1829L124.289 68.2341C124.179 68.9739 124.01 69.7656 123.783 70.6092C123.562 71.4527 123.332 72.2477 123.092 72.9939C122.851 73.7402 122.654 74.3339 122.498 74.7752H120.746C120.83 74.3599 120.94 73.8116 121.077 73.1302C121.213 72.4488 121.349 71.6864 121.486 70.8428C121.628 70.0057 121.745 69.1491 121.836 68.2731L121.953 67.1829H124.445ZM140.535 70.2587C139.588 70.2587 138.728 70.0803 137.956 69.7234C137.184 69.36 136.57 68.8376 136.116 68.1562C135.662 67.4684 135.435 66.6378 135.435 65.6644C135.435 64.8078 135.604 64.1135 135.941 63.5814C136.278 63.0428 136.729 62.621 137.294 62.316C137.859 62.011 138.482 61.7839 139.163 61.6346C139.851 61.4789 140.542 61.3556 141.236 61.2648C142.145 61.1479 142.881 61.0603 143.446 61.0019C144.017 60.937 144.432 60.83 144.692 60.6807C144.958 60.5315 145.091 60.2719 145.091 59.902V59.8242C145.091 58.8638 144.828 58.1175 144.302 57.5854C143.783 57.0533 142.995 56.7872 141.937 56.7872C140.84 56.7872 139.981 57.0273 139.358 57.5075C138.735 57.9877 138.297 58.5004 138.043 59.0455L135.863 58.2668C136.252 57.3583 136.772 56.651 137.421 56.1448C138.076 55.6322 138.79 55.2752 139.562 55.0741C140.341 54.8664 141.106 54.7626 141.859 54.7626C142.339 54.7626 142.891 54.821 143.514 54.9378C144.143 55.0481 144.75 55.2785 145.334 55.6289C145.925 55.9793 146.415 56.5082 146.804 57.2155C147.193 57.9228 147.388 58.8702 147.388 60.0578V69.9083H145.091V67.8837H144.974C144.818 68.2082 144.559 68.5553 144.195 68.9252C143.832 69.2951 143.348 69.6098 142.745 69.8694C142.141 70.129 141.405 70.2587 140.535 70.2587ZM140.886 68.1952C141.794 68.1952 142.56 68.0167 143.183 67.6598C143.812 67.3029 144.286 66.8422 144.604 66.2776C144.929 65.7131 145.091 65.1193 145.091 64.4964V62.3939C144.993 62.5107 144.779 62.6177 144.448 62.7151C144.124 62.8059 143.747 62.887 143.319 62.9584C142.897 63.0233 142.485 63.0817 142.083 63.1336C141.687 63.1791 141.366 63.218 141.119 63.2504C140.522 63.3283 139.964 63.4548 139.445 63.6301C138.933 63.7988 138.517 64.0551 138.199 64.399C137.888 64.7365 137.732 65.1972 137.732 65.7812C137.732 66.5794 138.027 67.1829 138.618 67.5917C139.215 67.994 139.971 68.1952 140.886 68.1952ZM153.741 60.9143V69.9083H151.444V54.9573H153.663V57.2934H153.858C154.208 56.5341 154.74 55.9242 155.454 55.4634C156.168 54.9962 157.089 54.7626 158.218 54.7626C159.231 54.7626 160.116 54.9703 160.876 55.3856C161.635 55.7944 162.225 56.4173 162.647 57.2544C163.069 58.0851 163.28 59.1363 163.28 60.4082V69.9083H160.983V60.5639C160.983 59.3894 160.678 58.4744 160.068 57.819C159.458 57.1571 158.621 56.8262 157.556 56.8262C156.823 56.8262 156.168 56.9851 155.59 57.3031C155.019 57.6211 154.568 58.0851 154.237 58.695C153.906 59.305 153.741 60.0448 153.741 60.9143ZM172.986 70.2198C171.74 70.2198 170.64 69.9051 169.686 69.2756C168.732 68.6397 167.986 67.7442 167.448 66.5891C166.909 65.4276 166.64 64.0551 166.64 62.4717C166.64 60.9014 166.909 59.5386 167.448 58.3836C167.986 57.2285 168.736 56.3362 169.696 55.7068C170.656 55.0773 171.766 54.7626 173.025 54.7626C173.998 54.7626 174.767 54.9248 175.332 55.2493C175.903 55.5673 176.338 55.9307 176.636 56.3395C176.941 56.7418 177.178 57.0727 177.347 57.3323H177.542V49.9736H179.839V69.9083H177.619V67.6112H177.347C177.178 67.8837 176.938 68.2276 176.627 68.6429C176.315 69.0518 175.871 69.4184 175.293 69.7429C174.715 70.0608 173.947 70.2198 172.986 70.2198ZM173.298 68.1562C174.219 68.1562 174.998 67.9162 175.634 67.436C176.27 66.9493 176.753 66.2776 177.084 65.4211C177.415 64.558 177.58 63.5619 177.58 62.4328C177.58 61.3167 177.418 60.34 177.094 59.5029C176.769 58.6594 176.289 58.0039 175.653 57.5367C175.017 57.063 174.232 56.8262 173.298 56.8262C172.324 56.8262 171.513 57.076 170.864 57.5757C170.222 58.0688 169.738 58.7405 169.414 59.5905C169.096 60.4341 168.937 61.3816 168.937 62.4328C168.937 63.497 169.099 64.4639 169.424 65.3335C169.754 66.1965 170.241 66.8844 170.884 67.397C171.533 67.9032 172.337 68.1562 173.298 68.1562ZM198.302 54.9573V56.904H190.554V54.9573H198.302ZM192.812 51.3753H195.109V65.6255C195.109 66.2744 195.203 66.7611 195.392 67.0855C195.586 67.4035 195.833 67.6176 196.131 67.728C196.436 67.8318 196.758 67.8837 197.095 67.8837C197.348 67.8837 197.556 67.8707 197.718 67.8448C197.88 67.8123 198.01 67.7864 198.107 67.7669L198.575 69.8305C198.419 69.8889 198.201 69.9473 197.922 70.0057C197.643 70.0706 197.29 70.103 196.861 70.103C196.213 70.103 195.577 69.9635 194.954 69.6844C194.337 69.4054 193.825 68.9804 193.416 68.4093C193.013 67.8383 192.812 67.118 192.812 66.2484V51.3753ZM204.239 60.9143V69.9083H201.942V49.9736H204.239V57.2934H204.434C204.784 56.5212 205.31 55.9079 206.01 55.4537C206.718 54.993 207.659 54.7626 208.833 54.7626C209.852 54.7626 210.744 54.967 211.51 55.3758C212.276 55.7782 212.869 56.3979 213.291 57.235C213.72 58.0656 213.934 59.1233 213.934 60.4082V69.9083H211.637V60.5639C211.637 59.3764 211.328 58.4582 210.712 57.8093C210.102 57.1539 209.255 56.8262 208.171 56.8262C207.419 56.8262 206.744 56.9851 206.147 57.3031C205.556 57.6211 205.089 58.0851 204.745 58.695C204.408 59.305 204.239 60.0448 204.239 60.9143ZM224.268 70.2198C222.827 70.2198 221.584 69.9018 220.54 69.2659C219.501 68.6235 218.7 67.728 218.135 66.5794C217.577 65.4243 217.298 64.0811 217.298 62.5496C217.298 61.0182 217.577 59.6684 218.135 58.5004C218.7 57.3258 219.485 56.4109 220.491 55.7554C221.503 55.0936 222.684 54.7626 224.034 54.7626C224.813 54.7626 225.582 54.8924 226.341 55.152C227.1 55.4115 227.791 55.8333 228.414 56.4173C229.037 56.9949 229.534 57.7606 229.904 58.7145C230.273 59.6684 230.458 60.843 230.458 62.2381V63.2115H218.934V61.2258H228.122C228.122 60.3822 227.954 59.6295 227.616 58.9676C227.285 58.3057 226.811 57.7833 226.195 57.4005C225.585 57.0176 224.865 56.8262 224.034 56.8262C223.119 56.8262 222.327 57.0533 221.659 57.5075C220.997 57.9553 220.488 58.5393 220.131 59.2596C219.774 59.9799 219.596 60.7521 219.596 61.5762V62.9C219.596 64.0291 219.79 64.9863 220.18 65.7715C220.575 66.5502 221.124 67.1439 221.825 67.5528C222.525 67.9551 223.34 68.1562 224.268 68.1562C224.871 68.1562 225.416 68.0719 225.903 67.9032C226.396 67.728 226.821 67.4684 227.178 67.1245C227.535 66.7741 227.811 66.3393 228.005 65.8201L230.225 66.4431C229.991 67.1959 229.599 67.8577 229.047 68.4288C228.495 68.9934 227.814 69.4346 227.003 69.7526C226.192 70.0641 225.28 70.2198 224.268 70.2198ZM247.89 54.9573V56.904H240.142V54.9573H247.89ZM242.4 51.3753H244.697V65.6255C244.697 66.2744 244.791 66.7611 244.98 67.0855C245.174 67.4035 245.421 67.6176 245.719 67.728C246.024 67.8318 246.346 67.8837 246.683 67.8837C246.936 67.8837 247.144 67.8707 247.306 67.8448C247.468 67.8123 247.598 67.7864 247.695 67.7669L248.163 69.8305C248.007 69.8889 247.789 69.9473 247.51 70.0057C247.231 70.0706 246.878 70.103 246.449 70.103C245.8 70.103 245.165 69.9635 244.542 69.6844C243.925 69.4054 243.412 68.9804 243.004 68.4093C242.601 67.8383 242.4 67.118 242.4 66.2484V51.3753ZM255.608 70.2587C254.661 70.2587 253.801 70.0803 253.029 69.7234C252.256 69.36 251.643 68.8376 251.189 68.1562C250.735 67.4684 250.508 66.6378 250.508 65.6644C250.508 64.8078 250.676 64.1135 251.014 63.5814C251.351 63.0428 251.802 62.621 252.367 62.316C252.931 62.011 253.554 61.7839 254.236 61.6346C254.923 61.4789 255.615 61.3556 256.309 61.2648C257.217 61.1479 257.954 61.0603 258.518 61.0019C259.089 60.937 259.505 60.83 259.764 60.6807C260.03 60.5315 260.163 60.2719 260.163 59.902V59.8242C260.163 58.8638 259.901 58.1175 259.375 57.5854C258.856 57.0533 258.067 56.7872 257.01 56.7872C255.913 56.7872 255.053 57.0273 254.43 57.5075C253.807 57.9877 253.369 58.5004 253.116 59.0455L250.936 58.2668C251.325 57.3583 251.844 56.651 252.493 56.1448C253.149 55.6322 253.862 55.2752 254.635 55.0741C255.413 54.8664 256.179 54.7626 256.932 54.7626C257.412 54.7626 257.964 54.821 258.587 54.9378C259.216 55.0481 259.823 55.2785 260.407 55.6289C260.997 55.9793 261.487 56.5082 261.877 57.2155C262.266 57.9228 262.461 58.8702 262.461 60.0578V69.9083H260.163V67.8837H260.047C259.891 68.2082 259.631 68.5553 259.268 68.9252C258.905 69.2951 258.421 69.6098 257.818 69.8694C257.214 70.129 256.478 70.2587 255.608 70.2587ZM255.958 68.1952C256.867 68.1952 257.633 68.0167 258.256 67.6598C258.885 67.3029 259.359 66.8422 259.677 66.2776C260.001 65.7131 260.163 65.1193 260.163 64.4964V62.3939C260.066 62.5107 259.852 62.6177 259.521 62.7151C259.197 62.8059 258.82 62.887 258.392 62.9584C257.97 63.0233 257.558 63.0817 257.156 63.1336C256.76 63.1791 256.439 63.218 256.192 63.2504C255.595 63.3283 255.037 63.4548 254.518 63.6301C254.005 63.7988 253.59 64.0551 253.272 64.399C252.96 64.7365 252.805 65.1972 252.805 65.7812C252.805 66.5794 253.1 67.1829 253.691 67.5917C254.288 67.994 255.044 68.1952 255.958 68.1952ZM277.107 58.3057L275.043 58.8897C274.913 58.5458 274.722 58.2116 274.469 57.8871C274.222 57.5562 273.885 57.2836 273.457 57.0695C273.028 56.8554 272.48 56.7483 271.812 56.7483C270.897 56.7483 270.134 56.9592 269.524 57.381C268.921 57.7963 268.619 58.3252 268.619 58.9676C268.619 59.5386 268.827 59.9896 269.242 60.3206C269.657 60.6515 270.306 60.9273 271.189 61.1479L273.408 61.693C274.745 62.0175 275.741 62.5139 276.396 63.1823C277.052 63.8442 277.379 64.6975 277.379 65.7423C277.379 66.5988 277.133 67.3646 276.639 68.0394C276.153 68.7143 275.471 69.2464 274.595 69.6358C273.719 70.0251 272.701 70.2198 271.539 70.2198C270.014 70.2198 268.752 69.8889 267.753 69.227C266.753 68.5651 266.121 67.5982 265.854 66.3263L268.035 65.7812C268.242 66.5859 268.635 67.1894 269.213 67.5917C269.797 67.994 270.559 68.1952 271.5 68.1952C272.571 68.1952 273.421 67.9681 274.05 67.5138C274.686 67.0531 275.004 66.5015 275.004 65.8591C275.004 65.34 274.823 64.9052 274.459 64.5548C274.096 64.1979 273.538 63.9318 272.785 63.7566L270.293 63.1726C268.924 62.8481 267.918 62.3452 267.276 61.6638C266.64 60.976 266.322 60.1162 266.322 59.0844C266.322 58.2408 266.559 57.4945 267.032 56.8456C267.512 56.1967 268.165 55.6873 268.989 55.3174C269.819 54.9475 270.76 54.7626 271.812 54.7626C273.291 54.7626 274.453 55.0871 275.296 55.736C276.146 56.3849 276.75 57.2415 277.107 58.3057ZM282.842 64.4574L282.803 61.6152H283.27L289.811 54.9573H292.653L285.684 62.0045H285.489L282.842 64.4574ZM280.7 69.9083V49.9736H282.997V69.9083H280.7ZM290.2 69.9083L284.36 62.5107L285.995 60.9143L293.12 69.9083H290.2ZM306.063 58.3057L303.999 58.8897C303.87 58.5458 303.678 58.2116 303.425 57.8871C303.179 57.5562 302.841 57.2836 302.413 57.0695C301.985 56.8554 301.436 56.7483 300.768 56.7483C299.853 56.7483 299.09 56.9592 298.48 57.381C297.877 57.7963 297.575 58.3252 297.575 58.9676C297.575 59.5386 297.783 59.9896 298.198 60.3206C298.613 60.6515 299.262 60.9273 300.145 61.1479L302.364 61.693C303.701 62.0175 304.697 62.5139 305.352 63.1823C306.008 63.8442 306.336 64.6975 306.336 65.7423C306.336 66.5988 306.089 67.3646 305.596 68.0394C305.109 68.7143 304.428 69.2464 303.552 69.6358C302.676 70.0251 301.657 70.2198 300.495 70.2198C298.97 70.2198 297.708 69.8889 296.709 69.227C295.71 68.5651 295.077 67.5982 294.811 66.3263L296.991 65.7812C297.199 66.5859 297.591 67.1894 298.169 67.5917C298.753 67.994 299.515 68.1952 300.456 68.1952C301.527 68.1952 302.377 67.9681 303.007 67.5138C303.643 67.0531 303.961 66.5015 303.961 65.8591C303.961 65.34 303.779 64.9052 303.415 64.5548C303.052 64.1979 302.494 63.9318 301.741 63.7566L299.249 63.1726C297.88 62.8481 296.874 62.3452 296.232 61.6638C295.596 60.976 295.278 60.1162 295.278 59.0844C295.278 58.2408 295.515 57.4945 295.989 56.8456C296.469 56.1967 297.121 55.6873 297.945 55.3174C298.776 54.9475 299.717 54.7626 300.768 54.7626C302.247 54.7626 303.409 55.0871 304.253 55.736C305.103 56.3849 305.706 57.2415 306.063 58.3057ZM35.8186 100.259C34.8711 100.259 34.0113 100.08 33.2391 99.7234C32.4669 99.36 31.8537 98.8376 31.3994 98.1562C30.9452 97.4684 30.7181 96.6378 30.7181 95.6644C30.7181 94.8078 30.8868 94.1135 31.2242 93.5814C31.5617 93.0428 32.0127 92.621 32.5772 92.316C33.1418 92.011 33.7647 91.7839 34.4461 91.6346C35.1339 91.4789 35.825 91.3556 36.5194 91.2648C37.4279 91.1479 38.1644 91.0603 38.7289 91.0019C39.3 90.937 39.7153 90.83 39.9749 90.6807C40.2409 90.5315 40.3739 90.2719 40.3739 89.902V89.8242C40.3739 88.8638 40.1111 88.1175 39.5855 87.5854C39.0664 87.0533 38.2779 86.7872 37.2202 86.7872C36.1235 86.7872 35.2637 87.0273 34.6408 87.5075C34.0178 87.9877 33.5798 88.5004 33.3267 89.0455L31.1464 88.2668C31.5357 87.3583 32.0548 86.651 32.7038 86.1448C33.3592 85.6322 34.073 85.2752 34.8452 85.0741C35.6239 84.8664 36.3896 84.7626 37.1423 84.7626C37.6225 84.7626 38.1741 84.821 38.7971 84.9378C39.4265 85.0481 40.0333 85.2785 40.6173 85.6289C41.2078 85.9793 41.6977 86.5082 42.0871 87.2155C42.4764 87.9228 42.6711 88.8702 42.6711 90.0578V99.9083H40.3739V97.8837H40.2571C40.1014 98.2082 39.8418 98.5553 39.4784 98.9252C39.1151 99.2951 38.6316 99.6098 38.0281 99.8694C37.4246 100.129 36.6881 100.259 35.8186 100.259ZM36.169 98.1952C37.0775 98.1952 37.8432 98.0167 38.4661 97.6598C39.0956 97.3029 39.5693 96.8422 39.8873 96.2776C40.2117 95.7131 40.3739 95.1193 40.3739 94.4964V92.3939C40.2766 92.5107 40.0625 92.6177 39.7315 92.7151C39.4071 92.8059 39.0307 92.887 38.6024 92.9584C38.1806 93.0233 37.7685 93.0817 37.3662 93.1336C36.9704 93.1791 36.6492 93.218 36.4026 93.2504C35.8056 93.3283 35.2475 93.4548 34.7284 93.6301C34.2157 93.7988 33.8004 94.0551 33.4825 94.399C33.171 94.7365 33.0152 95.1972 33.0152 95.7812C33.0152 96.5794 33.3105 97.1829 33.901 97.5917C34.498 97.994 35.254 98.1952 36.169 98.1952ZM46.7269 99.9083V84.9573H48.9462V87.2155H49.1019C49.3745 86.4757 49.8676 85.8755 50.5814 85.4148C51.2953 84.954 52.0999 84.7237 52.9954 84.7237C53.1641 84.7237 53.375 84.7269 53.6281 84.7334C53.8812 84.7399 54.0726 84.7496 54.2024 84.7626V87.0987C54.1245 87.0792 53.9461 87.05 53.667 87.0111C53.3945 86.9657 53.1057 86.943 52.8007 86.943C52.074 86.943 51.425 87.0955 50.854 87.4005C50.2894 87.699 49.8417 88.1143 49.5107 88.6464C49.1863 89.172 49.024 89.7722 49.024 90.4471V99.9083H46.7269ZM62.6018 100.22C61.1613 100.22 59.9186 99.9018 58.8738 99.2659C57.8356 98.6235 57.0341 97.728 56.4696 96.5794C55.9115 95.4243 55.6325 94.0811 55.6325 92.5496C55.6325 91.0182 55.9115 89.6684 56.4696 88.5004C57.0341 87.3258 57.8193 86.4109 58.8252 85.7554C59.8375 85.0936 61.0185 84.7626 62.3682 84.7626C63.1469 84.7626 63.9159 84.8924 64.6751 85.152C65.4344 85.4115 66.1255 85.8333 66.7484 86.4173C67.3714 86.9949 67.8678 87.7606 68.2377 88.7145C68.6076 89.6684 68.7925 90.843 68.7925 92.2381V93.2115H57.2678V91.2258H66.4564C66.4564 90.3822 66.2877 89.6295 65.9503 88.9676C65.6193 88.3057 65.1456 87.7833 64.5291 87.4005C63.9192 87.0176 63.1989 86.8262 62.3682 86.8262C61.4533 86.8262 60.6616 87.0533 59.9932 87.5075C59.3313 87.9553 58.8219 88.5393 58.465 89.2596C58.1081 89.9799 57.9296 90.7521 57.9296 91.5762V92.9C57.9296 94.0291 58.1243 94.9863 58.5137 95.7715C58.9095 96.5502 59.4578 97.1439 60.1587 97.5528C60.8595 97.9551 61.6739 98.1562 62.6018 98.1562C63.2053 98.1562 63.7504 98.0719 64.2371 97.9032C64.7303 97.728 65.1553 97.4684 65.5122 97.1245C65.8691 96.7741 66.1449 96.3393 66.3396 95.8201L68.5589 96.4431C68.3253 97.1959 67.9327 97.8577 67.3811 98.4288C66.8295 98.9934 66.1482 99.4346 65.337 99.7526C64.5259 100.064 63.6142 100.22 62.6018 100.22ZM79.722 99.9083V84.9573H82.0191V99.9083H79.722ZM80.89 82.4654C80.4423 82.4654 80.0562 82.3129 79.7317 82.008C79.4137 81.703 79.2547 81.3363 79.2547 80.908C79.2547 80.4798 79.4137 80.1131 79.7317 79.8081C80.0562 79.5031 80.4423 79.3506 80.89 79.3506C81.3378 79.3506 81.7206 79.5031 82.0386 79.8081C82.3631 80.1131 82.5253 80.4798 82.5253 80.908C82.5253 81.3363 82.3631 81.703 82.0386 82.008C81.7206 82.3129 81.3378 82.4654 80.89 82.4654ZM88.3867 90.9143V99.9083H86.0895V84.9573H88.3088V87.2934H88.5035C88.8539 86.5341 89.386 85.9242 90.0998 85.4634C90.8136 84.9962 91.7351 84.7626 92.8642 84.7626C93.8765 84.7626 94.7623 84.9703 95.5215 85.3856C96.2807 85.7944 96.8712 86.4173 97.293 87.2544C97.7148 88.0851 97.9257 89.1363 97.9257 90.4082V99.9083H95.6286V90.5639C95.6286 89.3894 95.3236 88.4744 94.7136 87.819C94.1036 87.1571 93.2665 86.8262 92.2023 86.8262C91.469 86.8262 90.8136 86.9851 90.2361 87.3031C89.665 87.6211 89.214 88.0851 88.8831 88.695C88.5521 89.305 88.3867 90.0448 88.3867 90.9143ZM125.678 79.9736V99.9083H123.341L112.479 84.2565H112.284V99.9083H109.87V79.9736H112.206L123.108 95.6644H123.303V79.9736H125.678ZM136.133 100.22C134.783 100.22 133.599 99.8986 132.58 99.2562C131.568 98.6137 130.776 97.715 130.205 96.5599C129.641 95.4048 129.359 94.0551 129.359 92.5107C129.359 90.9533 129.641 89.5938 130.205 88.4322C130.776 87.2707 131.568 86.3687 132.58 85.7262C133.599 85.0838 134.783 84.7626 136.133 84.7626C137.483 84.7626 138.664 85.0838 139.676 85.7262C140.695 86.3687 141.487 87.2707 142.051 88.4322C142.622 89.5938 142.908 90.9533 142.908 92.5107C142.908 94.0551 142.622 95.4048 142.051 96.5599C141.487 97.715 140.695 98.6137 139.676 99.2562C138.664 99.8986 137.483 100.22 136.133 100.22ZM136.133 98.1562C137.159 98.1562 138.002 97.8934 138.664 97.3678C139.326 96.8422 139.816 96.1511 140.134 95.2945C140.452 94.438 140.611 93.51 140.611 92.5107C140.611 91.5113 140.452 90.5801 140.134 89.7171C139.816 88.854 139.326 88.1564 138.664 87.6243C138.002 87.0922 137.159 86.8262 136.133 86.8262C135.108 86.8262 134.264 87.0922 133.602 87.6243C132.941 88.1564 132.451 88.854 132.133 89.7171C131.815 90.5801 131.656 91.5113 131.656 92.5107C131.656 93.51 131.815 94.438 132.133 95.2945C132.451 96.1511 132.941 96.8422 133.602 97.3678C134.264 97.8934 135.108 98.1562 136.133 98.1562ZM152.78 84.9573V86.904H145.032V84.9573H152.78ZM147.29 81.3753H149.587V95.6255C149.587 96.2744 149.681 96.7611 149.869 97.0855C150.064 97.4035 150.31 97.6176 150.609 97.728C150.914 97.8318 151.235 97.8837 151.573 97.8837C151.826 97.8837 152.033 97.8707 152.196 97.8448C152.358 97.8123 152.488 97.7864 152.585 97.7669L153.052 99.8305C152.896 99.8889 152.679 99.9473 152.4 100.006C152.121 100.071 151.767 100.103 151.339 100.103C150.69 100.103 150.054 99.9635 149.431 99.6844C148.815 99.4054 148.302 98.9804 147.893 98.4093C147.491 97.8383 147.29 97.118 147.29 96.2484V81.3753ZM162.206 100.22C160.765 100.22 159.523 99.9018 158.478 99.2659C157.44 98.6235 156.638 97.728 156.074 96.5794C155.516 95.4243 155.237 94.0811 155.237 92.5496C155.237 91.0182 155.516 89.6684 156.074 88.5004C156.638 87.3258 157.423 86.4109 158.429 85.7554C159.442 85.0936 160.623 84.7626 161.972 84.7626C162.751 84.7626 163.52 84.8924 164.279 85.152C165.039 85.4115 165.73 85.8333 166.353 86.4173C166.976 86.9949 167.472 87.7606 167.842 88.7145C168.212 89.6684 168.397 90.843 168.397 92.2381V93.2115H156.872V91.2258H166.061C166.061 90.3822 165.892 89.6295 165.554 88.9676C165.223 88.3057 164.75 87.7833 164.133 87.4005C163.523 87.0176 162.803 86.8262 161.972 86.8262C161.057 86.8262 160.266 87.0533 159.597 87.5075C158.935 87.9553 158.426 88.5393 158.069 89.2596C157.712 89.9799 157.534 90.7521 157.534 91.5762V92.9C157.534 94.0291 157.728 94.9863 158.118 95.7715C158.514 96.5502 159.062 97.1439 159.763 97.5528C160.464 97.9551 161.278 98.1562 162.206 98.1562C162.809 98.1562 163.355 98.0719 163.841 97.9032C164.334 97.728 164.759 97.4684 165.116 97.1245C165.473 96.7741 165.749 96.3393 165.944 95.8201L168.163 96.4431C167.929 97.1959 167.537 97.8577 166.985 98.4288C166.434 98.9934 165.752 99.4346 164.941 99.7526C164.13 100.064 163.218 100.22 162.206 100.22ZM182.344 88.3057L180.281 88.8897C180.151 88.5458 179.96 88.2116 179.706 87.8871C179.46 87.5562 179.122 87.2836 178.694 87.0695C178.266 86.8554 177.718 86.7483 177.049 86.7483C176.134 86.7483 175.372 86.9592 174.762 87.381C174.158 87.7963 173.857 88.3252 173.857 88.9676C173.857 89.5386 174.064 89.9896 174.479 90.3206C174.895 90.6515 175.544 90.9273 176.426 91.1479L178.646 91.693C179.982 92.0175 180.978 92.5139 181.634 93.1823C182.289 93.8442 182.617 94.6975 182.617 95.7423C182.617 96.5988 182.37 97.3646 181.877 98.0394C181.39 98.7143 180.709 99.2464 179.833 99.6358C178.957 100.025 177.938 100.22 176.777 100.22C175.252 100.22 173.99 99.8889 172.99 99.227C171.991 98.5651 171.358 97.5982 171.092 96.3263L173.272 95.7812C173.48 96.5859 173.873 97.1894 174.45 97.5917C175.034 97.994 175.797 98.1952 176.738 98.1952C177.808 98.1952 178.658 97.9681 179.288 97.5138C179.924 97.0531 180.242 96.5015 180.242 95.8591C180.242 95.34 180.06 94.9052 179.697 94.5548C179.333 94.1979 178.775 93.9318 178.023 93.7566L175.531 93.1726C174.161 92.8481 173.156 92.3452 172.513 91.6638C171.877 90.976 171.559 90.1162 171.559 89.0844C171.559 88.2408 171.796 87.4945 172.27 86.8456C172.75 86.1967 173.402 85.6873 174.226 85.3174C175.057 84.9475 175.998 84.7626 177.049 84.7626C178.529 84.7626 179.69 85.0871 180.534 85.736C181.384 86.3849 181.987 87.2415 182.344 88.3057ZM187.612 100.064C187.132 100.064 186.72 99.8921 186.376 99.5482C186.032 99.2043 185.86 98.7922 185.86 98.312C185.86 97.8318 186.032 97.4197 186.376 97.0758C186.72 96.7319 187.132 96.5599 187.612 96.5599C188.092 96.5599 188.504 96.7319 188.848 97.0758C189.192 97.4197 189.364 97.8318 189.364 98.312C189.364 98.63 189.283 98.922 189.121 99.188C188.965 99.4541 188.754 99.6682 188.488 99.8305C188.228 99.9862 187.936 100.064 187.612 100.064Z" fill="white"/>
<path d="M339.847 20.0556C339.847 9.20175 331.048 0.402954 320.194 0.402954V28.8475H339.847V20.0556Z" fill="#26252A" stroke="#26252A" stroke-width="0.805851"/>
<rect width="19.6526" height="62.1214" transform="matrix(-1 0 0 1 339.847 28.8475)" fill="#26252A" stroke="#26252A" stroke-width="0.805851"/>
<path d="M339.847 99.7609C339.847 110.615 331.048 119.414 320.194 119.414V90.969H339.847V99.7609Z" fill="#26252A" stroke="#26252A" stroke-width="0.805851"/>
</svg>
