<svg width="341" height="90" viewBox="0 0 341 90" fill="none" xmlns="http://www.w3.org/2000/svg">
<path d="M9.66406 20.0556C9.66406 9.20175 18.4628 0.402954 29.3167 0.402954V28.8475H9.66406V20.0556Z" fill="#26252A" stroke="#26252A" stroke-width="0.805851"/>
<rect x="9.66406" y="28.8474" width="19.6526" height="32.1217" fill="#26252A" stroke="#26252A" stroke-width="0.805851"/>
<path d="M29.3169 60.9692V89.4136C24.5572 89.4136 20.1931 87.7211 16.7925 84.9058C13.4001 87.1658 7.96139 89.3156 1.38916 88.1206C3.19942 87.3447 10.1809 82.6903 9.92236 73.3813C9.95309 73.4236 9.98772 73.463 10.021 73.5034C9.78742 72.2919 9.66357 71.041 9.66357 69.7612V60.9692H29.3169Z" fill="#26252A"/>
<path d="M29.3169 60.9692H29.7198V60.5663H29.3169V60.9692ZM29.3169 89.4136V89.8165H29.7198V89.4136H29.3169ZM16.7925 84.9058L17.0494 84.5954L16.8185 84.4042L16.5691 84.5704L16.7925 84.9058ZM1.38916 88.1206L1.23043 87.7503L0.000112771 88.2776L1.31708 88.517L1.38916 88.1206ZM9.92236 73.3813L10.2482 73.1444L9.48349 72.0929L9.51959 73.3925L9.92236 73.3813ZM10.021 73.5034L9.71006 73.7597L10.4166 73.4271L10.021 73.5034ZM9.66357 69.7612L9.26065 69.7612L9.26065 69.7612L9.66357 69.7612ZM9.66357 60.9692V60.5663H9.26065V60.9692H9.66357ZM29.3169 60.9692H28.914V89.4136H29.3169H29.7198V60.9692H29.3169ZM29.3169 89.4136V89.0106C24.6545 89.0106 20.3805 87.3532 17.0494 84.5954L16.7925 84.9058L16.5355 85.2161C20.0057 88.0891 24.46 89.8165 29.3169 89.8165V89.4136ZM16.7925 84.9058L16.5691 84.5704C13.2391 86.789 7.90505 88.8958 1.46124 87.7242L1.38916 88.1206L1.31708 88.517C8.01773 89.7353 13.5612 87.5427 17.0159 85.2411L16.7925 84.9058ZM1.38916 88.1206L1.54789 88.4909C2.51474 88.0766 4.76599 86.6779 6.74621 84.2026C8.73435 81.7174 10.4575 78.1359 10.3251 73.3702L9.92236 73.3813L9.51959 73.3925C9.6458 77.9358 8.00749 81.336 6.11695 83.6992C4.21849 86.0723 2.07385 87.3888 1.23043 87.7503L1.38916 88.1206ZM9.92236 73.3813L9.5965 73.6183C9.63679 73.6737 9.68751 73.7323 9.71006 73.7597L10.021 73.5034L10.3319 73.2472C10.2879 73.1938 10.2694 73.1735 10.2482 73.1444L9.92236 73.3813ZM10.021 73.5034L10.4166 73.4271C10.1878 72.2403 10.0665 71.0149 10.0665 69.7612L9.66357 69.7612L9.26065 69.7612C9.26065 71.067 9.38702 72.3435 9.62536 73.5797L10.021 73.5034ZM9.66357 69.7612H10.0665V60.9692H9.66357H9.26065V69.7612H9.66357ZM9.66357 60.9692V61.3722H29.3169V60.9692V60.5663H9.66357V60.9692Z" fill="#26252A"/>
<rect x="29.3164" y="0.402954" width="290.877" height="89.0106" fill="#26252A"/>
<rect x="29.3164" y="0.402954" width="290.877" height="89.0106" stroke="#26252A" stroke-width="0.805851"/>
<path d="M44.8125 19.9736H47.2265V33.1726C47.2265 34.5353 46.9053 35.752 46.2629 36.8227C45.6269 37.8869 44.7282 38.7273 43.5666 39.3438C42.4051 39.9537 41.0423 40.2587 39.4784 40.2587C37.9146 40.2587 36.5518 39.9537 35.3903 39.3438C34.2287 38.7273 33.3267 37.8869 32.6843 36.8227C32.0483 35.752 31.7304 34.5353 31.7304 33.1726V19.9736H34.1443V32.9779C34.1443 33.9513 34.3585 34.8176 34.7868 35.5768C35.2151 36.3295 35.825 36.9233 36.6167 37.3581C37.4149 37.7864 38.3688 38.0005 39.4784 38.0005C40.5881 38.0005 41.542 37.7864 42.3402 37.3581C43.1383 36.9233 43.7483 36.3295 44.1701 35.5768C44.5984 34.8176 44.8125 33.9513 44.8125 32.9779V19.9736ZM53.8958 30.9143V39.9083H51.5986V19.9736H53.8958V27.2934H54.0905C54.4409 26.5212 54.9665 25.9079 55.6673 25.4537C56.3747 24.993 57.3156 24.7626 58.4901 24.7626C59.5089 24.7626 60.4012 24.967 61.1669 25.3758C61.9326 25.7782 62.5264 26.3979 62.9482 27.235C63.3765 28.0656 63.5906 29.1233 63.5906 30.4082V39.9083H61.2934V30.5639C61.2934 29.3764 60.9852 28.4582 60.3687 27.8093C59.7588 27.1539 58.9119 26.8262 57.8282 26.8262C57.0755 26.8262 56.4006 26.9851 55.8036 27.3031C55.2131 27.6211 54.7459 28.0851 54.4019 28.695C54.0645 29.305 53.8958 30.0448 53.8958 30.9143ZM69.3303 40.0641C68.8501 40.0641 68.438 39.8921 68.0941 39.5482C67.7502 39.2043 67.5782 38.7922 67.5782 38.312C67.5782 37.8318 67.7502 37.4197 68.0941 37.0758C68.438 36.7319 68.8501 36.5599 69.3303 36.5599C69.8105 36.5599 70.2226 36.7319 70.5665 37.0758C70.9104 37.4197 71.0824 37.8318 71.0824 38.312C71.0824 38.63 71.0013 38.922 70.839 39.188C70.6833 39.4541 70.4724 39.6682 70.2063 39.8305C69.9468 39.9862 69.6548 40.0641 69.3303 40.0641ZM76.8058 40.0641C76.3256 40.0641 75.9136 39.8921 75.5696 39.5482C75.2257 39.2043 75.0538 38.7922 75.0538 38.312C75.0538 37.8318 75.2257 37.4197 75.5696 37.0758C75.9136 36.7319 76.3256 36.5599 76.8058 36.5599C77.286 36.5599 77.6981 36.7319 78.042 37.0758C78.3859 37.4197 78.5579 37.8318 78.5579 38.312C78.5579 38.63 78.4768 38.922 78.3146 39.188C78.1588 39.4541 77.9479 39.6682 77.6819 39.8305C77.4223 39.9862 77.1303 40.0641 76.8058 40.0641ZM84.2814 40.0641C83.8012 40.0641 83.3891 39.8921 83.0452 39.5482C82.7012 39.2043 82.5293 38.7922 82.5293 38.312C82.5293 37.8318 82.7012 37.4197 83.0452 37.0758C83.3891 36.7319 83.8012 36.5599 84.2814 36.5599C84.7616 36.5599 85.1736 36.7319 85.5175 37.0758C85.8615 37.4197 86.0334 37.8318 86.0334 38.312C86.0334 38.63 85.9523 38.922 85.7901 39.188C85.6343 39.4541 85.4234 39.6682 85.1574 39.8305C84.8978 39.9862 84.6058 40.0641 84.2814 40.0641ZM99.9 30.9143V39.9083H97.6029V19.9736H99.9V27.2934H100.095C100.445 26.5212 100.971 25.9079 101.672 25.4537C102.379 24.993 103.32 24.7626 104.494 24.7626C105.513 24.7626 106.405 24.967 107.171 25.3758C107.937 25.7782 108.531 26.3979 108.952 27.235C109.381 28.0656 109.595 29.1233 109.595 30.4082V39.9083H107.298V30.5639C107.298 29.3764 106.989 28.4582 106.373 27.8093C105.763 27.1539 104.916 26.8262 103.832 26.8262C103.08 26.8262 102.405 26.9851 101.808 27.3031C101.217 27.6211 100.75 28.0851 100.406 28.695C100.069 29.305 99.9 30.0448 99.9 30.9143ZM118.06 40.2587C117.113 40.2587 116.253 40.0803 115.481 39.7234C114.708 39.36 114.095 38.8376 113.641 38.1562C113.187 37.4684 112.96 36.6378 112.96 35.6644C112.96 34.8078 113.128 34.1135 113.466 33.5814C113.803 33.0428 114.254 32.621 114.819 32.316C115.383 32.011 116.006 31.7839 116.688 31.6346C117.375 31.4789 118.066 31.3556 118.761 31.2648C119.669 31.1479 120.406 31.0603 120.97 31.0019C121.541 30.937 121.957 30.83 122.216 30.6807C122.482 30.5315 122.615 30.2719 122.615 29.902V29.8242C122.615 28.8638 122.353 28.1175 121.827 27.5854C121.308 27.0533 120.519 26.7872 119.462 26.7872C118.365 26.7872 117.505 27.0273 116.882 27.5075C116.259 27.9877 115.821 28.5004 115.568 29.0455L113.388 28.2668C113.777 27.3583 114.296 26.651 114.945 26.1448C115.601 25.6322 116.314 25.2752 117.087 25.0741C117.865 24.8664 118.631 24.7626 119.384 24.7626C119.864 24.7626 120.416 24.821 121.039 24.9378C121.668 25.0481 122.275 25.2785 122.859 25.6289C123.449 25.9793 123.939 26.5082 124.329 27.2155C124.718 27.9228 124.913 28.8702 124.913 30.0578V39.9083H122.615V37.8837H122.499C122.343 38.2082 122.083 38.5553 121.72 38.9252C121.356 39.2951 120.873 39.6098 120.27 39.8694C119.666 40.129 118.93 40.2587 118.06 40.2587ZM118.41 38.1952C119.319 38.1952 120.085 38.0167 120.708 37.6598C121.337 37.3029 121.811 36.8422 122.129 36.2776C122.453 35.7131 122.615 35.1193 122.615 34.4964V32.3939C122.518 32.5107 122.304 32.6177 121.973 32.7151C121.649 32.8059 121.272 32.887 120.844 32.9584C120.422 33.0233 120.01 33.0817 119.608 33.1336C119.212 33.1791 118.891 33.218 118.644 33.2504C118.047 33.3283 117.489 33.4548 116.97 33.6301C116.457 33.7988 116.042 34.0551 115.724 34.399C115.412 34.7365 115.257 35.1972 115.257 35.7812C115.257 36.5794 115.552 37.1829 116.142 37.5917C116.739 37.994 117.495 38.1952 118.41 38.1952ZM131.265 19.9736V39.9083H128.968V19.9736H131.265ZM141.994 24.9573V26.904H133.934V24.9573H141.994ZM136.348 39.9083V22.8937C136.348 22.0372 136.549 21.3233 136.952 20.7523C137.354 20.1813 137.876 19.753 138.519 19.4674C139.161 19.1819 139.839 19.0392 140.553 19.0392C141.118 19.0392 141.578 19.0846 141.935 19.1754C142.292 19.2663 142.558 19.3506 142.734 19.4285L142.072 21.4142C141.955 21.3753 141.793 21.3266 141.585 21.2682C141.384 21.2098 141.118 21.1806 140.787 21.1806C140.028 21.1806 139.479 21.372 139.142 21.7549C138.811 22.1377 138.645 22.699 138.645 23.4388V39.9083H136.348ZM158.722 40.2198C157.372 40.2198 156.188 39.8986 155.169 39.2562C154.157 38.6137 153.365 37.715 152.794 36.5599C152.23 35.4048 151.947 34.0551 151.947 32.5107C151.947 30.9533 152.23 29.5938 152.794 28.4322C153.365 27.2707 154.157 26.3687 155.169 25.7262C156.188 25.0838 157.372 24.7626 158.722 24.7626C160.072 24.7626 161.253 25.0838 162.265 25.7262C163.284 26.3687 164.076 27.2707 164.64 28.4322C165.211 29.5938 165.497 30.9533 165.497 32.5107C165.497 34.0551 165.211 35.4048 164.64 36.5599C164.076 37.715 163.284 38.6137 162.265 39.2562C161.253 39.8986 160.072 40.2198 158.722 40.2198ZM158.722 38.1562C159.747 38.1562 160.591 37.8934 161.253 37.3678C161.915 36.8422 162.405 36.1511 162.723 35.2945C163.041 34.438 163.2 33.51 163.2 32.5107C163.2 31.5113 163.041 30.5801 162.723 29.7171C162.405 28.854 161.915 28.1564 161.253 27.6243C160.591 27.0922 159.747 26.8262 158.722 26.8262C157.697 26.8262 156.853 27.0922 156.191 27.6243C155.529 28.1564 155.039 28.854 154.722 29.7171C154.404 30.5801 154.245 31.5113 154.245 32.5107C154.245 33.51 154.404 34.438 154.722 35.2945C155.039 36.1511 155.529 36.8422 156.191 37.3678C156.853 37.8934 157.697 38.1562 158.722 38.1562ZM175.524 24.9573V26.904H167.465V24.9573H175.524ZM169.879 39.9083V22.8937C169.879 22.0372 170.08 21.3233 170.482 20.7523C170.884 20.1813 171.407 19.753 172.049 19.4674C172.692 19.1819 173.37 19.0392 174.084 19.0392C174.648 19.0392 175.109 19.0846 175.466 19.1754C175.823 19.2663 176.089 19.3506 176.264 19.4285L175.602 21.4142C175.485 21.3753 175.323 21.3266 175.115 21.2682C174.914 21.2098 174.648 21.1806 174.317 21.1806C173.558 21.1806 173.01 21.372 172.672 21.7549C172.341 22.1377 172.176 22.699 172.176 23.4388V39.9083H169.879ZM186.179 39.9083V24.9573H188.476V39.9083H186.179ZM187.347 22.4654C186.899 22.4654 186.513 22.3129 186.188 22.008C185.87 21.703 185.711 21.3363 185.711 20.908C185.711 20.4798 185.87 20.1131 186.188 19.8081C186.513 19.5031 186.899 19.3506 187.347 19.3506C187.794 19.3506 188.177 19.5031 188.495 19.8081C188.82 20.1131 188.982 20.4798 188.982 20.908C188.982 21.3363 188.82 21.703 188.495 22.008C188.177 22.3129 187.794 22.4654 187.347 22.4654ZM199.048 24.9573V26.904H191.3V24.9573H199.048ZM193.558 21.3753H195.856V35.6255C195.856 36.2744 195.95 36.7611 196.138 37.0855C196.333 37.4035 196.579 37.6176 196.878 37.728C197.183 37.8318 197.504 37.8837 197.841 37.8837C198.094 37.8837 198.302 37.8707 198.464 37.8448C198.627 37.8123 198.756 37.7864 198.854 37.7669L199.321 39.8305C199.165 39.8889 198.948 39.9473 198.669 40.0057C198.39 40.0706 198.036 40.103 197.608 40.103C196.959 40.103 196.323 39.9635 195.7 39.6844C195.083 39.4054 194.571 38.9804 194.162 38.4093C193.76 37.8383 193.558 37.118 193.558 36.2484V21.3753ZM209.939 39.9083V24.9573H212.236V39.9083H209.939ZM211.107 22.4654C210.659 22.4654 210.273 22.3129 209.949 22.008C209.631 21.703 209.472 21.3363 209.472 20.908C209.472 20.4798 209.631 20.1131 209.949 19.8081C210.273 19.5031 210.659 19.3506 211.107 19.3506C211.555 19.3506 211.938 19.5031 212.255 19.8081C212.58 20.1131 212.742 20.4798 212.742 20.908C212.742 21.3363 212.58 21.703 212.255 22.008C211.938 22.3129 211.555 22.4654 211.107 22.4654ZM226.897 28.3057L224.833 28.8897C224.703 28.5458 224.512 28.2116 224.259 27.8871C224.012 27.5562 223.675 27.2836 223.247 27.0695C222.818 26.8554 222.27 26.7483 221.602 26.7483C220.687 26.7483 219.924 26.9592 219.314 27.381C218.711 27.7963 218.409 28.3252 218.409 28.9676C218.409 29.5386 218.617 29.9896 219.032 30.3206C219.447 30.6515 220.096 30.9273 220.979 31.1479L223.198 31.693C224.535 32.0175 225.531 32.5139 226.186 33.1823C226.842 33.8442 227.169 34.6975 227.169 35.7423C227.169 36.5988 226.923 37.3646 226.429 38.0394C225.943 38.7143 225.261 39.2464 224.385 39.6358C223.509 40.0251 222.491 40.2198 221.329 40.2198C219.804 40.2198 218.542 39.8889 217.543 39.227C216.543 38.5651 215.911 37.5982 215.644 36.3263L217.825 35.7812C218.032 36.5859 218.425 37.1894 219.003 37.5917C219.587 37.994 220.349 38.1952 221.29 38.1952C222.361 38.1952 223.211 37.9681 223.84 37.5138C224.476 37.0531 224.794 36.5015 224.794 35.8591C224.794 35.34 224.613 34.9052 224.249 34.5548C223.886 34.1979 223.328 33.9318 222.575 33.7566L220.083 33.1726C218.714 32.8481 217.708 32.3452 217.066 31.6638C216.43 30.976 216.112 30.1162 216.112 29.0844C216.112 28.2408 216.349 27.4945 216.822 26.8456C217.302 26.1967 217.955 25.6873 218.779 25.3174C219.609 24.9475 220.55 24.7626 221.602 24.7626C223.081 24.7626 224.243 25.0871 225.086 25.736C225.936 26.3849 226.54 27.2415 226.897 28.3057ZM238.062 39.9083V24.9573H240.359V39.9083H238.062ZM239.23 22.4654C238.782 22.4654 238.396 22.3129 238.072 22.008C237.754 21.703 237.595 21.3363 237.595 20.908C237.595 20.4798 237.754 20.1131 238.072 19.8081C238.396 19.5031 238.782 19.3506 239.23 19.3506C239.678 19.3506 240.061 19.5031 240.379 19.8081C240.703 20.1131 240.866 20.4798 240.866 20.908C240.866 21.3363 240.703 21.703 240.379 22.008C240.061 22.3129 239.678 22.4654 239.23 22.4654ZM246.727 30.9143V39.9083H244.43V24.9573H246.649V27.2934H246.844C247.194 26.5341 247.726 25.9242 248.44 25.4634C249.154 24.9962 250.075 24.7626 251.204 24.7626C252.217 24.7626 253.102 24.9703 253.862 25.3856C254.621 25.7944 255.211 26.4173 255.633 27.2544C256.055 28.0851 256.266 29.1363 256.266 30.4082V39.9083H253.969V30.5639C253.969 29.3894 253.664 28.4744 253.054 27.819C252.444 27.1571 251.607 26.8262 250.543 26.8262C249.809 26.8262 249.154 26.9851 248.576 27.3031C248.005 27.6211 247.554 28.0851 247.223 28.695C246.892 29.305 246.727 30.0448 246.727 30.9143ZM35.3513 69.9083L29.9004 49.9736H32.3533L36.5194 66.2095H36.7141L40.958 49.9736H43.6834L47.9273 66.2095H48.122L52.2881 49.9736H54.741L49.2901 69.9083H46.7982L42.3986 54.0228H42.2428L37.8432 69.9083H35.3513ZM59.5973 60.9143V69.9083H57.3002V49.9736H59.5973V57.2934H59.792C60.1424 56.5212 60.668 55.9079 61.3689 55.4537C62.0762 54.993 63.0171 54.7626 64.1917 54.7626C65.2105 54.7626 66.1027 54.967 66.8684 55.3758C67.6342 55.7782 68.2279 56.3979 68.6497 57.235C69.078 58.0656 69.2922 59.1233 69.2922 60.4082V69.9083H66.995V60.5639C66.995 59.3764 66.6868 58.4582 66.0703 57.8093C65.4603 57.1539 64.6135 56.8262 63.5298 56.8262C62.777 56.8262 62.1022 56.9851 61.5051 57.3031C60.9146 57.6211 60.4474 58.0851 60.1035 58.695C59.7661 59.305 59.5973 60.0448 59.5973 60.9143ZM77.7573 70.2587C76.8099 70.2587 75.9501 70.0803 75.1779 69.7234C74.4056 69.36 73.7924 68.8376 73.3382 68.1562C72.8839 67.4684 72.6568 66.6378 72.6568 65.6644C72.6568 64.8078 72.8255 64.1135 73.163 63.5814C73.5004 63.0428 73.9514 62.621 74.516 62.316C75.0805 62.011 75.7035 61.7839 76.3848 61.6346C77.0727 61.4789 77.7638 61.3556 78.4581 61.2648C79.3666 61.1479 80.1031 61.0603 80.6677 61.0019C81.2387 60.937 81.6541 60.83 81.9136 60.6807C82.1797 60.5315 82.3127 60.2719 82.3127 59.902V59.8242C82.3127 58.8638 82.0499 58.1175 81.5243 57.5854C81.0051 57.0533 80.2167 56.7872 79.159 56.7872C78.0623 56.7872 77.2025 57.0273 76.5795 57.5075C75.9566 57.9877 75.5185 58.5004 75.2655 59.0455L73.0851 58.2668C73.4745 57.3583 73.9936 56.651 74.6425 56.1448C75.2979 55.6322 76.0117 55.2752 76.7839 55.0741C77.5626 54.8664 78.3284 54.7626 79.0811 54.7626C79.5613 54.7626 80.1129 54.821 80.7358 54.9378C81.3653 55.0481 81.972 55.2785 82.556 55.6289C83.1466 55.9793 83.6365 56.5082 84.0258 57.2155C84.4152 57.9228 84.6099 58.8702 84.6099 60.0578V69.9083H82.3127V67.8837H82.1959C82.0402 68.2082 81.7806 68.5553 81.4172 68.9252C81.0538 69.2951 80.5704 69.6098 79.9669 69.8694C79.3634 70.129 78.6269 70.2587 77.7573 70.2587ZM78.1077 68.1952C79.0162 68.1952 79.7819 68.0167 80.4049 67.6598C81.0343 67.3029 81.508 66.8422 81.826 66.2776C82.1505 65.7131 82.3127 65.1193 82.3127 64.4964V62.3939C82.2154 62.5107 82.0012 62.6177 81.6703 62.7151C81.3458 62.8059 80.9694 62.887 80.5412 62.9584C80.1194 63.0233 79.7073 63.0817 79.305 63.1336C78.9091 63.1791 78.5879 63.218 78.3413 63.2504C77.7443 63.3283 77.1863 63.4548 76.6671 63.6301C76.1545 63.7988 75.7392 64.0551 75.4212 64.399C75.1097 64.7365 74.954 65.1972 74.954 65.7812C74.954 66.5794 75.2492 67.1829 75.8398 67.5917C76.4368 67.994 77.1927 68.1952 78.1077 68.1952ZM95.1678 54.9573V56.904H87.4197V54.9573H95.1678ZM89.6779 51.3753H91.9751V65.6255C91.9751 66.2744 92.0692 66.7611 92.2574 67.0855C92.4521 67.4035 92.6986 67.6176 92.9971 67.728C93.3021 67.8318 93.6234 67.8837 93.9608 67.8837C94.2139 67.8837 94.4215 67.8707 94.5837 67.8448C94.746 67.8123 94.8758 67.7864 94.9731 67.7669L95.4403 69.8305C95.2846 69.8889 95.0672 69.9473 94.7882 70.0057C94.5091 70.0706 94.1555 70.103 93.7272 70.103C93.0783 70.103 92.4423 69.9635 91.8194 69.6844C91.2029 69.4054 90.6902 68.9804 90.2814 68.4093C89.8791 67.8383 89.6779 67.118 89.6779 66.2484V51.3753ZM108.809 58.3057L106.745 58.8897C106.616 58.5458 106.424 58.2116 106.171 57.8871C105.924 57.5562 105.587 57.2836 105.159 57.0695C104.73 56.8554 104.182 56.7483 103.514 56.7483C102.599 56.7483 101.836 56.9592 101.226 57.381C100.623 57.7963 100.321 58.3252 100.321 58.9676C100.321 59.5386 100.529 59.9896 100.944 60.3206C101.359 60.6515 102.008 60.9273 102.891 61.1479L105.11 61.693C106.447 62.0175 107.443 62.5139 108.098 63.1823C108.754 63.8442 109.081 64.6975 109.081 65.7423C109.081 66.5988 108.835 67.3646 108.342 68.0394C107.855 68.7143 107.174 69.2464 106.298 69.6358C105.422 70.0251 104.403 70.2198 103.241 70.2198C101.716 70.2198 100.454 69.8889 99.4547 69.227C98.4554 68.5651 97.8227 67.5982 97.5566 66.3263L99.737 65.7812C99.9446 66.5859 100.337 67.1894 100.915 67.5917C101.499 67.994 102.261 68.1952 103.202 68.1952C104.273 68.1952 105.123 67.9681 105.752 67.5138C106.388 67.0531 106.706 66.5015 106.706 65.8591C106.706 65.34 106.525 64.9052 106.161 64.5548C105.798 64.1979 105.24 63.9318 104.487 63.7566L101.995 63.1726C100.626 62.8481 99.6202 62.3452 98.9778 61.6638C98.3418 60.976 98.0239 60.1162 98.0239 59.0844C98.0239 58.2408 98.2607 57.4945 98.7344 56.8456C99.2146 56.1967 99.8668 55.6873 100.691 55.3174C101.522 54.9475 102.462 54.7626 103.514 54.7626C104.993 54.7626 106.155 55.0871 106.998 55.736C107.848 56.3849 108.452 57.2415 108.809 58.3057ZM113.531 69.9083H111.001L118.32 49.9736H120.812L128.132 69.9083H125.601L119.644 53.1273H119.488L113.531 69.9083ZM114.466 62.1213H124.667V64.2627H114.466V62.1213ZM130.789 75.515V54.9573H133.008V57.3323H133.28C133.449 57.0727 133.683 56.7418 133.981 56.3395C134.286 55.9307 134.721 55.5673 135.286 55.2493C135.857 54.9248 136.629 54.7626 137.602 54.7626C138.861 54.7626 139.971 55.0773 140.931 55.7068C141.892 56.3362 142.641 57.2285 143.18 58.3836C143.718 59.5386 143.988 60.9014 143.988 62.4717C143.988 64.0551 143.718 65.4276 143.18 66.5891C142.641 67.7442 141.895 68.6397 140.941 69.2756C139.987 69.9051 138.887 70.2198 137.641 70.2198C136.681 70.2198 135.912 70.0608 135.334 69.7429C134.757 69.4184 134.312 69.0518 134.001 68.6429C133.689 68.2276 133.449 67.8837 133.28 67.6112H133.086V75.515H130.789ZM133.047 62.4328C133.047 63.5619 133.212 64.558 133.543 65.4211C133.874 66.2776 134.358 66.9493 134.994 67.436C135.629 67.9162 136.408 68.1562 137.33 68.1562C138.29 68.1562 139.091 67.9032 139.734 67.397C140.383 66.8844 140.869 66.1965 141.194 65.3335C141.525 64.4639 141.69 63.497 141.69 62.4328C141.69 61.3816 141.528 60.4341 141.204 59.5905C140.886 58.7405 140.402 58.0688 139.753 57.5757C139.111 57.076 138.303 56.8262 137.33 56.8262C136.395 56.8262 135.61 57.063 134.974 57.5367C134.338 58.0039 133.858 58.6594 133.533 59.5029C133.209 60.34 133.047 61.3167 133.047 62.4328ZM147.355 75.515V54.9573H149.574V57.3323H149.846C150.015 57.0727 150.249 56.7418 150.547 56.3395C150.852 55.9307 151.287 55.5673 151.852 55.2493C152.423 54.9248 153.195 54.7626 154.168 54.7626C155.427 54.7626 156.537 55.0773 157.497 55.7068C158.458 56.3362 159.207 57.2285 159.746 58.3836C160.284 59.5386 160.554 60.9014 160.554 62.4717C160.554 64.0551 160.284 65.4276 159.746 66.5891C159.207 67.7442 158.461 68.6397 157.507 69.2756C156.553 69.9051 155.453 70.2198 154.207 70.2198C153.247 70.2198 152.478 70.0608 151.9 69.7429C151.323 69.4184 150.878 69.0518 150.567 68.6429C150.255 68.2276 150.015 67.8837 149.846 67.6112H149.652V75.515H147.355ZM149.613 62.4328C149.613 63.5619 149.778 64.558 150.109 65.4211C150.44 66.2776 150.924 66.9493 151.56 67.436C152.196 67.9162 152.974 68.1562 153.896 68.1562C154.856 68.1562 155.657 67.9032 156.3 67.397C156.949 66.8844 157.436 66.1965 157.76 65.3335C158.091 64.4639 158.256 63.497 158.256 62.4328C158.256 61.3816 158.094 60.4341 157.77 59.5905C157.452 58.7405 156.968 58.0688 156.319 57.5757C155.677 57.076 154.869 56.8262 153.896 56.8262C152.961 56.8262 152.176 57.063 151.54 57.5367C150.904 58.0039 150.424 58.6594 150.1 59.5029C149.775 60.34 149.613 61.3167 149.613 62.4328ZM175.892 70.2587C174.945 70.2587 174.085 70.0803 173.313 69.7234C172.541 69.36 171.928 68.8376 171.473 68.1562C171.019 67.4684 170.792 66.6378 170.792 65.6644C170.792 64.8078 170.961 64.1135 171.298 63.5814C171.636 63.0428 172.087 62.621 172.651 62.316C173.216 62.011 173.839 61.7839 174.52 61.6346C175.208 61.4789 175.899 61.3556 176.593 61.2648C177.502 61.1479 178.238 61.0603 178.803 61.0019C179.374 60.937 179.789 60.83 180.049 60.6807C180.315 60.5315 180.448 60.2719 180.448 59.902V59.8242C180.448 58.8638 180.185 58.1175 179.659 57.5854C179.14 57.0533 178.352 56.7872 177.294 56.7872C176.197 56.7872 175.338 57.0273 174.715 57.5075C174.092 57.9877 173.654 58.5004 173.401 59.0455L171.22 58.2668C171.61 57.3583 172.129 56.651 172.778 56.1448C173.433 55.6322 174.147 55.2752 174.919 55.0741C175.698 54.8664 176.463 54.7626 177.216 54.7626C177.696 54.7626 178.248 54.821 178.871 54.9378C179.5 55.0481 180.107 55.2785 180.691 55.6289C181.282 55.9793 181.772 56.5082 182.161 57.2155C182.55 57.9228 182.745 58.8702 182.745 60.0578V69.9083H180.448V67.8837H180.331C180.175 68.2082 179.916 68.5553 179.552 68.9252C179.189 69.2951 178.705 69.6098 178.102 69.8694C177.498 70.129 176.762 70.2587 175.892 70.2587ZM176.243 68.1952C177.151 68.1952 177.917 68.0167 178.54 67.6598C179.169 67.3029 179.643 66.8422 179.961 66.2776C180.286 65.7131 180.448 65.1193 180.448 64.4964V62.3939C180.35 62.5107 180.136 62.6177 179.805 62.7151C179.481 62.8059 179.105 62.887 178.676 62.9584C178.254 63.0233 177.842 63.0817 177.44 63.1336C177.044 63.1791 176.723 63.218 176.476 63.2504C175.879 63.3283 175.321 63.4548 174.802 63.6301C174.29 63.7988 173.874 64.0551 173.556 64.399C173.245 64.7365 173.089 65.1972 173.089 65.7812C173.089 66.5794 173.384 67.1829 173.975 67.5917C174.572 67.994 175.328 68.1952 176.243 68.1952ZM189.098 60.9143V69.9083H186.801V54.9573H189.02V57.2934H189.215C189.565 56.5341 190.097 55.9242 190.811 55.4634C191.525 54.9962 192.446 54.7626 193.575 54.7626C194.588 54.7626 195.474 54.9703 196.233 55.3856C196.992 55.7944 197.582 56.4173 198.004 57.2544C198.426 58.0851 198.637 59.1363 198.637 60.4082V69.9083H196.34V60.5639C196.34 59.3894 196.035 58.4744 195.425 57.819C194.815 57.1571 193.978 56.8262 192.914 56.8262C192.18 56.8262 191.525 56.9851 190.947 57.3031C190.376 57.6211 189.925 58.0851 189.594 58.695C189.263 59.305 189.098 60.0448 189.098 60.9143ZM208.343 70.2198C207.097 70.2198 205.997 69.9051 205.043 69.2756C204.09 68.6397 203.343 67.7442 202.805 66.5891C202.266 65.4276 201.997 64.0551 201.997 62.4717C201.997 60.9014 202.266 59.5386 202.805 58.3836C203.343 57.2285 204.093 56.3362 205.053 55.7068C206.014 55.0773 207.123 54.7626 208.382 54.7626C209.356 54.7626 210.124 54.9248 210.689 55.2493C211.26 55.5673 211.695 55.9307 211.993 56.3395C212.298 56.7418 212.535 57.0727 212.704 57.3323H212.899V49.9736H215.196V69.9083H212.976V67.6112H212.704C212.535 67.8837 212.295 68.2276 211.984 68.6429C211.672 69.0518 211.228 69.4184 210.65 69.7429C210.073 70.0608 209.304 70.2198 208.343 70.2198ZM208.655 68.1562C209.576 68.1562 210.355 67.9162 210.991 67.436C211.627 66.9493 212.11 66.2776 212.441 65.4211C212.772 64.558 212.938 63.5619 212.938 62.4328C212.938 61.3167 212.775 60.34 212.451 59.5029C212.126 58.6594 211.646 58.0039 211.01 57.5367C210.374 57.063 209.589 56.8262 208.655 56.8262C207.681 56.8262 206.87 57.076 206.221 57.5757C205.579 58.0688 205.095 58.7405 204.771 59.5905C204.453 60.4341 204.294 61.3816 204.294 62.4328C204.294 63.497 204.456 64.4639 204.781 65.3335C205.112 66.1965 205.598 66.8844 206.241 67.397C206.89 67.9032 207.694 68.1562 208.655 68.1562ZM227.468 69.9083V49.9736H234.204C235.768 49.9736 237.046 50.2559 238.039 50.8204C239.039 51.3785 239.778 52.1345 240.259 53.0884C240.739 54.0423 240.979 55.1065 240.979 56.2811C240.979 57.4556 240.739 58.5231 240.259 59.4835C239.785 60.4439 239.052 61.2096 238.059 61.7806C237.066 62.3452 235.794 62.6275 234.243 62.6275H229.415V60.4861H234.165C235.236 60.4861 236.096 60.3011 236.745 59.9312C237.394 59.5613 237.864 59.0617 238.156 58.4322C238.455 57.7963 238.604 57.0792 238.604 56.2811C238.604 55.4829 238.455 54.7691 238.156 54.1396C237.864 53.5102 237.39 53.017 236.735 52.6601C236.08 52.2967 235.21 52.115 234.126 52.115H229.882V69.9083H227.468ZM250.882 69.9083H244.73V49.9736H251.155C253.089 49.9736 254.743 50.3727 256.119 51.1709C257.495 51.9625 258.549 53.1014 259.282 54.5874C260.016 56.0669 260.382 57.8385 260.382 59.902C260.382 61.9786 260.012 63.7663 259.273 65.2653C258.533 66.7578 257.456 67.9064 256.041 68.7111C254.626 69.5092 252.907 69.9083 250.882 69.9083ZM247.144 67.7669H250.726C252.375 67.7669 253.741 67.4489 254.824 66.813C255.908 66.1771 256.716 65.2718 257.248 64.0973C257.78 62.9227 258.046 61.5243 258.046 59.902C258.046 58.2927 257.783 56.9073 257.258 55.7457C256.732 54.5777 255.947 53.6822 254.902 53.0592C253.857 52.4297 252.556 52.115 250.999 52.115H247.144V67.7669ZM264.295 69.9083V49.9736H276.248V52.115H266.709V58.8508H275.352V60.9922H266.709V69.9083H264.295ZM290.524 58.3057L288.46 58.8897C288.33 58.5458 288.139 58.2116 287.886 57.8871C287.639 57.5562 287.302 57.2836 286.874 57.0695C286.445 56.8554 285.897 56.7483 285.229 56.7483C284.314 56.7483 283.551 56.9592 282.941 57.381C282.338 57.7963 282.036 58.3252 282.036 58.9676C282.036 59.5386 282.244 59.9896 282.659 60.3206C283.074 60.6515 283.723 60.9273 284.606 61.1479L286.825 61.693C288.162 62.0175 289.158 62.5139 289.813 63.1823C290.469 63.8442 290.796 64.6975 290.796 65.7423C290.796 66.5988 290.55 67.3646 290.057 68.0394C289.57 68.7143 288.889 69.2464 288.012 69.6358C287.136 70.0251 286.118 70.2198 284.956 70.2198C283.431 70.2198 282.169 69.8889 281.17 69.227C280.17 68.5651 279.538 67.5982 279.272 66.3263L281.452 65.7812C281.66 66.5859 282.052 67.1894 282.63 67.5917C283.214 67.994 283.976 68.1952 284.917 68.1952C285.988 68.1952 286.838 67.9681 287.467 67.5138C288.103 67.0531 288.421 66.5015 288.421 65.8591C288.421 65.34 288.24 64.9052 287.876 64.5548C287.513 64.1979 286.955 63.9318 286.202 63.7566L283.71 63.1726C282.341 62.8481 281.335 62.3452 280.693 61.6638C280.057 60.976 279.739 60.1162 279.739 59.0844C279.739 58.2408 279.976 57.4945 280.449 56.8456C280.93 56.1967 281.582 55.6873 282.406 55.3174C283.236 54.9475 284.177 54.7626 285.229 54.7626C286.708 54.7626 287.87 55.0871 288.713 55.736C289.563 56.3849 290.167 57.2415 290.524 58.3057ZM295.791 70.0641C295.311 70.0641 294.899 69.8921 294.555 69.5482C294.211 69.2043 294.039 68.7922 294.039 68.312C294.039 67.8318 294.211 67.4197 294.555 67.0758C294.899 66.7319 295.311 66.5599 295.791 66.5599C296.272 66.5599 296.684 66.7319 297.028 67.0758C297.372 67.4197 297.543 67.8318 297.543 68.312C297.543 68.63 297.462 68.922 297.3 69.188C297.144 69.4541 296.933 69.6682 296.667 69.8305C296.408 69.9862 296.116 70.0641 295.791 70.0641Z" fill="white"/>
<path d="M339.847 20.0556C339.847 9.20175 331.048 0.402954 320.194 0.402954V28.8475H339.847V20.0556Z" fill="#26252A" stroke="#26252A" stroke-width="0.805851"/>
<rect width="19.6526" height="32.1214" transform="matrix(-1 0 0 1 339.847 28.8475)" fill="#26252A" stroke="#26252A" stroke-width="0.805851"/>
<path d="M339.847 69.7609C339.847 80.6148 331.048 89.4136 320.194 89.4136V60.969H339.847V69.7609Z" fill="#26252A" stroke="#26252A" stroke-width="0.805851"/>
</svg>
