<svg width="341" height="90" viewBox="0 0 341 90" fill="none" xmlns="http://www.w3.org/2000/svg">
<path d="M0.402832 20.0555C0.402832 9.20162 9.20161 0.402832 20.0555 0.402832V28.8474H0.402832V20.0555Z" fill="#278EFF" stroke="#278EFF" stroke-width="0.805851"/>
<rect x="0.402832" y="28.8474" width="19.6526" height="32.1214" fill="#278EFF" stroke="#278EFF" stroke-width="0.805851"/>
<path d="M0.402832 69.7609C0.402832 80.6148 9.20161 89.4136 20.0555 89.4136V60.969H0.402832V69.7609Z" fill="#278EFF" stroke="#278EFF" stroke-width="0.805851"/>
<rect x="20.0557" y="0.402832" width="290.877" height="89.0106" fill="#278EFF"/>
<rect x="20.0557" y="0.402832" width="290.877" height="89.0106" stroke="#278EFF" stroke-width="0.805851"/>
<path d="M33.3714 24.9572C33.2546 23.9708 32.7809 23.2051 31.9503 22.66C31.1197 22.1149 30.1009 21.8424 28.8939 21.8424C28.0114 21.8424 27.2392 21.9851 26.5773 22.2706C25.9219 22.5562 25.4092 22.9488 25.0393 23.4484C24.676 23.9481 24.4943 24.5159 24.4943 25.1518C24.4943 25.6839 24.6208 26.1414 24.8739 26.5243C25.1334 26.9007 25.4644 27.2154 25.8667 27.4685C26.269 27.7151 26.6908 27.9195 27.1321 28.0817C27.5734 28.2374 27.9789 28.364 28.3488 28.4613L30.3734 29.0064C30.8926 29.1427 31.4701 29.3309 32.1061 29.571C32.7485 29.8111 33.3617 30.1388 33.9457 30.5541C34.5362 30.9629 35.0229 31.4885 35.4058 32.1309C35.7887 32.7734 35.9801 33.5618 35.9801 34.4962C35.9801 35.5734 35.6978 36.5468 35.1332 37.4164C34.5752 38.2859 33.7575 38.977 32.6803 39.4897C31.6096 40.0023 30.3086 40.2586 28.7771 40.2586C27.3495 40.2586 26.1133 40.0283 25.0685 39.5675C24.0303 39.1068 23.2126 38.4644 22.6156 37.6402C22.0251 36.8161 21.6909 35.859 21.6131 34.7688H24.1049C24.1698 35.5215 24.4229 36.1445 24.8641 36.6377C25.3119 37.1243 25.8764 37.4877 26.5578 37.7278C27.2457 37.9615 27.9854 38.0783 28.7771 38.0783C29.6986 38.0783 30.5259 37.929 31.2592 37.6305C31.9925 37.3255 32.5733 36.9037 33.0016 36.3651C33.4298 35.82 33.644 35.1841 33.644 34.4573C33.644 33.7954 33.459 33.2568 33.0892 32.8415C32.7193 32.4262 32.2326 32.0888 31.6291 31.8292C31.0256 31.5696 30.3734 31.3425 29.6726 31.1478L27.2197 30.447C25.6623 29.9992 24.4294 29.3601 23.5209 28.5294C22.6124 27.6988 22.1582 26.6119 22.1582 25.2686C22.1582 24.1525 22.4599 23.1791 23.0634 22.3485C23.6734 21.5114 24.491 20.8625 25.5163 20.4018C26.5481 19.9345 27.6999 19.7009 28.9718 19.7009C30.2566 19.7009 31.3987 19.9313 32.3981 20.392C33.3974 20.8463 34.1891 21.4692 34.7731 22.2609C35.3636 23.0526 35.6751 23.9513 35.7075 24.9572H33.3714ZM41.7977 30.9142V39.9082H39.5005V19.9735H41.7977V27.2933H41.9923C42.3427 26.521 42.8684 25.9078 43.5692 25.4536C44.2765 24.9928 45.2174 24.7625 46.392 24.7625C47.4108 24.7625 48.303 24.9669 49.0688 25.3757C49.8345 25.778 50.4283 26.3978 50.85 27.2349C51.2783 28.0655 51.4925 29.1232 51.4925 30.4081V39.9082H49.1953V30.5638C49.1953 29.3763 48.8871 28.4581 48.2706 27.8091C47.6606 27.1537 46.8138 26.826 45.7301 26.826C44.9773 26.826 44.3025 26.985 43.7055 27.303C43.115 27.621 42.6477 28.0849 42.3038 28.6949C41.9664 29.3049 41.7977 30.0447 41.7977 30.9142ZM61.6318 40.2197C60.2821 40.2197 59.0978 39.8985 58.079 39.256C57.0667 38.6136 56.275 37.7149 55.704 36.5598C55.1394 35.4047 54.8571 34.055 54.8571 32.5106C54.8571 30.9532 55.1394 29.5937 55.704 28.4321C56.275 27.2705 57.0667 26.3686 58.079 25.7261C59.0978 25.0837 60.2821 24.7625 61.6318 24.7625C62.9816 24.7625 64.1626 25.0837 65.1749 25.7261C66.1937 26.3686 66.9854 27.2705 67.55 28.4321C68.121 29.5937 68.4065 30.9532 68.4065 32.5106C68.4065 34.055 68.121 35.4047 67.55 36.5598C66.9854 37.7149 66.1937 38.6136 65.1749 39.256C64.1626 39.8985 62.9816 40.2197 61.6318 40.2197ZM61.6318 38.1561C62.6571 38.1561 63.5007 37.8933 64.1626 37.3677C64.8245 36.8421 65.3144 36.151 65.6324 35.2944C65.9504 34.4378 66.1094 33.5099 66.1094 32.5106C66.1094 31.5112 65.9504 30.58 65.6324 29.717C65.3144 28.8539 64.8245 28.1563 64.1626 27.6242C63.5007 27.0921 62.6571 26.826 61.6318 26.826C60.6065 26.826 59.763 27.0921 59.1011 27.6242C58.4392 28.1563 57.9492 28.8539 57.6313 29.717C57.3133 30.58 57.1543 31.5112 57.1543 32.5106C57.1543 33.5099 57.3133 34.4378 57.6313 35.2944C57.9492 36.151 58.4392 36.8421 59.1011 37.3677C59.763 37.8933 60.6065 38.1561 61.6318 38.1561ZM74.6548 39.9082L70.0994 24.9572H72.5134L75.745 36.4041H75.9007L79.0934 24.9572H81.5463L84.7 36.3651H84.8558L88.0874 24.9572H90.5014L85.946 39.9082H83.6877L80.4172 28.4224H80.1836L76.913 39.9082H74.6548ZM100.973 39.9082V24.9572H103.193V27.2933H103.387C103.699 26.4951 104.202 25.8754 104.896 25.4341C105.59 24.9864 106.424 24.7625 107.398 24.7625C108.384 24.7625 109.205 24.9864 109.86 25.4341C110.522 25.8754 111.038 26.4951 111.408 27.2933H111.564C111.947 26.521 112.521 25.9078 113.287 25.4536C114.052 24.9928 114.97 24.7625 116.041 24.7625C117.378 24.7625 118.471 25.181 119.321 26.0181C120.172 26.8488 120.597 28.1433 120.597 29.9019V39.9082H118.299V29.9019C118.299 28.7987 117.998 28.0103 117.394 27.5366C116.791 27.0629 116.08 26.826 115.262 26.826C114.211 26.826 113.397 27.144 112.819 27.7799C112.242 28.4094 111.953 29.2076 111.953 30.1744V39.9082H109.617V29.6683C109.617 28.8182 109.341 28.1336 108.79 27.6145C108.238 27.0889 107.527 26.826 106.658 26.826C106.061 26.826 105.503 26.985 104.984 27.303C104.471 27.621 104.056 28.0622 103.738 28.6268C103.426 29.1849 103.27 29.8305 103.27 30.5638V39.9082H100.973ZM130.928 40.2197C129.488 40.2197 128.245 39.9017 127.2 39.2658C126.162 38.6233 125.36 37.7278 124.796 36.5793C124.238 35.4242 123.959 34.0809 123.959 32.5495C123.959 31.018 124.238 29.6683 124.796 28.5002C125.36 27.3257 126.146 26.4107 127.151 25.7553C128.164 25.0934 129.345 24.7625 130.695 24.7625C131.473 24.7625 132.242 24.8923 133.001 25.1518C133.761 25.4114 134.452 25.8332 135.075 26.4172C135.698 26.9948 136.194 27.7605 136.564 28.7144C136.934 29.6683 137.119 30.8428 137.119 32.238V33.2114H125.594V31.2257H134.783C134.783 30.3821 134.614 29.6294 134.277 28.9675C133.946 28.3056 133.472 27.7832 132.855 27.4003C132.245 27.0175 131.525 26.826 130.695 26.826C129.78 26.826 128.988 27.0532 128.32 27.5074C127.658 27.9552 127.148 28.5392 126.791 29.2595C126.434 29.9798 126.256 30.752 126.256 31.5761V32.8999C126.256 34.029 126.451 34.9862 126.84 35.7714C127.236 36.5501 127.784 37.1438 128.485 37.5526C129.186 37.955 130 38.1561 130.928 38.1561C131.532 38.1561 132.077 38.0718 132.563 37.903C133.057 37.7278 133.482 37.4683 133.839 37.1243C134.195 36.7739 134.471 36.3392 134.666 35.82L136.885 36.443C136.652 37.1957 136.259 37.8576 135.707 38.4287C135.156 38.9932 134.475 39.4345 133.663 39.7525C132.852 40.0639 131.94 40.2197 130.928 40.2197ZM152.448 40.2586C151.501 40.2586 150.641 40.0802 149.868 39.7233C149.096 39.3599 148.483 38.8375 148.029 38.1561C147.575 37.4683 147.347 36.6377 147.347 35.6643C147.347 34.8077 147.516 34.1134 147.854 33.5813C148.191 33.0427 148.642 32.6209 149.207 32.3159C149.771 32.0109 150.394 31.7838 151.075 31.6345C151.763 31.4788 152.454 31.3555 153.149 31.2646C154.057 31.1478 154.794 31.0602 155.358 31.0018C155.929 30.9369 156.345 30.8299 156.604 30.6806C156.87 30.5314 157.003 30.2718 157.003 29.9019V29.824C157.003 28.8636 156.741 28.1174 156.215 27.5853C155.696 27.0532 154.907 26.7871 153.85 26.7871C152.753 26.7871 151.893 27.0272 151.27 27.5074C150.647 27.9876 150.209 28.5002 149.956 29.0453L147.776 28.2666C148.165 27.3582 148.684 26.6508 149.333 26.1447C149.989 25.632 150.702 25.2751 151.475 25.074C152.253 24.8663 153.019 24.7625 153.772 24.7625C154.252 24.7625 154.804 24.8209 155.426 24.9377C156.056 25.048 156.663 25.2784 157.247 25.6288C157.837 25.9792 158.327 26.5081 158.716 27.2154C159.106 27.9227 159.301 28.8701 159.301 30.0576V39.9082H157.003V37.8836H156.887C156.731 38.208 156.471 38.5552 156.108 38.9251C155.744 39.295 155.261 39.6097 154.658 39.8693C154.054 40.1288 153.317 40.2586 152.448 40.2586ZM152.798 38.1951C153.707 38.1951 154.473 38.0166 155.096 37.6597C155.725 37.3028 156.199 36.8421 156.517 36.2775C156.841 35.713 157.003 35.1192 157.003 34.4962V32.3937C156.906 32.5106 156.692 32.6176 156.361 32.715C156.036 32.8058 155.66 32.8869 155.232 32.9583C154.81 33.0232 154.398 33.0816 153.996 33.1335C153.6 33.1789 153.279 33.2179 153.032 33.2503C152.435 33.3282 151.877 33.4547 151.358 33.6299C150.845 33.7987 150.43 34.055 150.112 34.3989C149.8 34.7363 149.645 35.1971 149.645 35.7811C149.645 36.5793 149.94 37.1828 150.53 37.5916C151.127 37.9939 151.883 38.1951 152.798 38.1951ZM165.653 19.9735V39.9082H163.356V19.9735H165.653ZM172.021 19.9735V39.9082H169.724V19.9735H172.021ZM183.663 39.9082V24.9572H185.883V27.2933H186.077C186.389 26.4951 186.892 25.8754 187.586 25.4341C188.28 24.9864 189.114 24.7625 190.088 24.7625C191.074 24.7625 191.895 24.9864 192.55 25.4341C193.212 25.8754 193.728 26.4951 194.098 27.2933H194.254C194.637 26.521 195.211 25.9078 195.977 25.4536C196.742 24.9928 197.661 24.7625 198.731 24.7625C200.068 24.7625 201.161 25.181 202.012 26.0181C202.862 26.8488 203.287 28.1433 203.287 29.9019V39.9082H200.989V29.9019C200.989 28.7987 200.688 28.0103 200.084 27.5366C199.481 27.0629 198.77 26.826 197.953 26.826C196.901 26.826 196.087 27.144 195.509 27.7799C194.932 28.4094 194.643 29.2076 194.643 30.1744V39.9082H192.307V29.6683C192.307 28.8182 192.031 28.1336 191.48 27.6145C190.928 27.0889 190.217 26.826 189.348 26.826C188.751 26.826 188.193 26.985 187.674 27.303C187.161 27.621 186.746 28.0622 186.428 28.6268C186.116 29.1849 185.961 29.8305 185.961 30.5638V39.9082H183.663ZM208.294 45.5148C207.905 45.5148 207.557 45.4824 207.252 45.4175C206.947 45.3591 206.736 45.3007 206.62 45.2423L207.204 43.2177C207.762 43.3604 208.255 43.4124 208.683 43.3734C209.112 43.3345 209.491 43.1431 209.822 42.7991C210.16 42.4617 210.468 41.9134 210.747 41.1541L211.175 39.9861L205.646 24.9572H208.138L212.265 36.8713H212.421L216.548 24.9572H219.04L212.694 42.0886C212.408 42.8608 212.054 43.5 211.633 44.0061C211.211 44.5188 210.721 44.8984 210.163 45.145C209.611 45.3916 208.988 45.5148 208.294 45.5148ZM242.901 19.9735H245.315V33.1724C245.315 34.5352 244.993 35.7519 244.351 36.8226C243.715 37.8868 242.816 38.7272 241.655 39.3436C240.493 39.9536 239.13 40.2586 237.567 40.2586C236.003 40.2586 234.64 39.9536 233.478 39.3436C232.317 38.7272 231.415 37.8868 230.772 36.8226C230.136 35.7519 229.819 34.5352 229.819 33.1724V19.9735H232.232V32.9778C232.232 33.9511 232.447 34.8175 232.875 35.5767C233.303 36.3294 233.913 36.9232 234.705 37.358C235.503 37.7862 236.457 38.0004 237.567 38.0004C238.676 38.0004 239.63 37.7862 240.428 37.358C241.226 36.9232 241.836 36.3294 242.258 35.5767C242.687 34.8175 242.901 33.9511 242.901 32.9778V19.9735ZM251.984 30.9142V39.9082H249.687V24.9572H251.906V27.2933H252.101C252.451 26.534 252.983 25.924 253.697 25.4633C254.411 24.9961 255.332 24.7625 256.461 24.7625C257.474 24.7625 258.36 24.9701 259.119 25.3854C259.878 25.7943 260.469 26.4172 260.89 27.2543C261.312 28.0849 261.523 29.1362 261.523 30.4081V39.9082H259.226V30.5638C259.226 29.3893 258.921 28.4743 258.311 27.8189C257.701 27.157 256.864 26.826 255.8 26.826C255.066 26.826 254.411 26.985 253.833 27.303C253.262 27.621 252.811 28.0849 252.48 28.6949C252.149 29.3049 251.984 30.0447 251.984 30.9142ZM265.584 39.9082V24.9572H267.881V39.9082H265.584ZM266.752 22.4653C266.304 22.4653 265.918 22.3128 265.593 22.0078C265.275 21.7028 265.116 21.3362 265.116 20.9079C265.116 20.4796 265.275 20.113 265.593 19.808C265.918 19.503 266.304 19.3505 266.752 19.3505C267.199 19.3505 267.582 19.503 267.9 19.808C268.225 20.113 268.387 20.4796 268.387 20.9079C268.387 21.3362 268.225 21.7028 267.9 22.0078C267.582 22.3128 267.199 22.4653 266.752 22.4653ZM278.453 24.9572V26.9039H270.705V24.9572H278.453ZM272.963 21.3751H275.261V35.6254C275.261 36.2743 275.355 36.761 275.543 37.0854C275.738 37.4034 275.984 37.6175 276.283 37.7278C276.588 37.8317 276.909 37.8836 277.246 37.8836C277.499 37.8836 277.707 37.8706 277.869 37.8446C278.032 37.8122 278.161 37.7862 278.259 37.7668L278.726 39.8303C278.57 39.8887 278.353 39.9471 278.074 40.0055C277.795 40.0704 277.441 40.1029 277.013 40.1029C276.364 40.1029 275.728 39.9634 275.105 39.6843C274.488 39.4053 273.976 38.9803 273.567 38.4092C273.165 37.8382 272.963 37.1179 272.963 36.2483V21.3751ZM296.041 40.1807C294.756 40.1807 293.61 39.9601 292.605 39.5189C291.605 39.0776 290.81 38.4644 290.22 37.6792C289.636 36.8875 289.318 35.9693 289.266 34.9245H291.719C291.771 35.5669 291.991 36.1218 292.381 36.589C292.77 37.0497 293.28 37.4066 293.909 37.6597C294.538 37.9128 295.236 38.0393 296.002 38.0393C296.858 38.0393 297.618 37.8901 298.279 37.5916C298.941 37.2931 299.46 36.8778 299.837 36.3456C300.213 35.8135 300.401 35.1971 300.401 34.4962C300.401 33.763 300.22 33.1173 299.856 32.5592C299.493 31.9947 298.961 31.5534 298.26 31.2354C297.559 30.9175 296.703 30.7585 295.69 30.7585H294.094V28.617H295.69C296.482 28.617 297.176 28.4743 297.773 28.1888C298.377 27.9032 298.847 27.5009 299.185 26.9818C299.529 26.4626 299.701 25.8527 299.701 25.1518C299.701 24.477 299.551 23.8897 299.253 23.39C298.954 22.8904 298.532 22.501 297.987 22.222C297.449 21.9429 296.813 21.8034 296.08 21.8034C295.392 21.8034 294.743 21.93 294.133 22.183C293.529 22.4296 293.036 22.7898 292.653 23.2635C292.27 23.7307 292.063 24.2953 292.03 24.9572H289.694C289.733 23.9124 290.048 22.9974 290.638 22.2122C291.229 21.4206 292.001 20.8041 292.955 20.3628C293.915 19.9216 294.97 19.7009 296.119 19.7009C297.351 19.7009 298.409 19.9508 299.292 20.4504C300.174 20.9436 300.852 21.5958 301.326 22.4069C301.8 23.2181 302.037 24.0941 302.037 25.035C302.037 26.1577 301.741 27.1148 301.151 27.9065C300.567 28.6982 299.772 29.2465 298.766 29.5515V29.7072C300.025 29.9149 301.008 30.4502 301.715 31.3133C302.423 32.1699 302.776 33.2308 302.776 34.4962C302.776 35.5799 302.481 36.5533 301.891 37.4164C301.307 38.2729 300.508 38.9478 299.496 39.441C298.484 39.9342 297.332 40.1807 296.041 40.1807ZM24.4553 60.9142V69.9082H22.1582V54.9572H24.3775V57.2933H24.5721C24.9225 56.534 25.4547 55.924 26.1685 55.4633C26.8823 54.9961 27.8037 54.7625 28.9328 54.7625C29.9452 54.7625 30.8309 54.9701 31.5902 55.3854C32.3494 55.7943 32.9399 56.4172 33.3617 57.2543C33.7835 58.0849 33.9944 59.1362 33.9944 60.4081V69.9082H31.6972V60.5638C31.6972 59.3893 31.3922 58.4743 30.7823 57.8189C30.1723 57.157 29.3352 56.826 28.271 56.826C27.5377 56.826 26.8823 56.985 26.3047 57.303C25.7337 57.621 25.2827 58.0849 24.9517 58.6949C24.6208 59.3049 24.4553 60.0447 24.4553 60.9142ZM44.1289 70.2197C42.7791 70.2197 41.5949 69.8985 40.5761 69.256C39.5638 68.6136 38.7721 67.7149 38.201 66.5598C37.6365 65.4047 37.3542 64.055 37.3542 62.5106C37.3542 60.9532 37.6365 59.5937 38.201 58.4321C38.7721 57.2705 39.5638 56.3686 40.5761 55.7261C41.5949 55.0837 42.7791 54.7625 44.1289 54.7625C45.4786 54.7625 46.6597 55.0837 47.672 55.7261C48.6908 56.3686 49.4825 57.2705 50.047 58.4321C50.6181 59.5937 50.9036 60.9532 50.9036 62.5106C50.9036 64.055 50.6181 65.4047 50.047 66.5598C49.4825 67.7149 48.6908 68.6136 47.672 69.256C46.6597 69.8985 45.4786 70.2197 44.1289 70.2197ZM44.1289 68.1561C45.1542 68.1561 45.9978 67.8933 46.6597 67.3677C47.3216 66.8421 47.8115 66.151 48.1295 65.2944C48.4474 64.4378 48.6064 63.5099 48.6064 62.5106C48.6064 61.5112 48.4474 60.58 48.1295 59.717C47.8115 58.8539 47.3216 58.1563 46.6597 57.6242C45.9978 57.0921 45.1542 56.826 44.1289 56.826C43.1036 56.826 42.26 57.0921 41.5981 57.6242C40.9362 58.1563 40.4463 58.8539 40.1283 59.717C39.8103 60.58 39.6514 61.5112 39.6514 62.5106C39.6514 63.5099 39.8103 64.4378 40.1283 65.2944C40.4463 66.151 40.9362 66.8421 41.5981 67.3677C42.26 67.8933 43.1036 68.1561 44.1289 68.1561ZM60.7753 54.9572V56.9039H53.0272V54.9572H60.7753ZM55.2854 51.3751H57.5826V65.6254C57.5826 66.2743 57.6767 66.761 57.8649 67.0854C58.0595 67.4034 58.3061 67.6175 58.6046 67.7278C58.9096 67.8317 59.2308 67.8836 59.5683 67.8836C59.8214 67.8836 60.029 67.8706 60.1912 67.8446C60.3535 67.8122 60.4832 67.7862 60.5806 67.7668L61.0478 69.8303C60.8921 69.8887 60.6747 69.9471 60.3956 70.0055C60.1166 70.0704 59.763 70.1029 59.3347 70.1029C58.6857 70.1029 58.0498 69.9634 57.4269 69.6843C56.8104 69.4053 56.2977 68.9803 55.8889 68.4092C55.4866 67.8382 55.2854 67.1179 55.2854 66.2483V51.3751ZM70.2016 70.2197C68.761 70.2197 67.5184 69.9017 66.4736 69.2658C65.4353 68.6233 64.6339 67.7278 64.0694 66.5793C63.5113 65.4242 63.2323 64.0809 63.2323 62.5495C63.2323 61.018 63.5113 59.6683 64.0694 58.5002C64.6339 57.3257 65.4191 56.4107 66.4249 55.7553C67.4372 55.0934 68.6183 54.7625 69.968 54.7625C70.7467 54.7625 71.5157 54.8923 72.2749 55.1518C73.0341 55.4114 73.7252 55.8332 74.3482 56.4172C74.9712 56.9948 75.4676 57.7605 75.8375 58.7144C76.2074 59.6683 76.3923 60.8428 76.3923 62.238V63.2114H64.8675V61.2257H74.0562C74.0562 60.3821 73.8875 59.6294 73.55 58.9675C73.2191 58.3056 72.7454 57.7832 72.1289 57.4003C71.5189 57.0175 70.7986 56.826 69.968 56.826C69.053 56.826 68.2614 57.0532 67.593 57.5074C66.9311 57.9552 66.4217 58.5392 66.0648 59.2595C65.7079 59.9798 65.5294 60.752 65.5294 61.5761V62.8999C65.5294 64.029 65.7241 64.9862 66.1134 65.7714C66.5093 66.5501 67.0576 67.1438 67.7585 67.5526C68.4593 67.955 69.2737 68.1561 70.2016 68.1561C70.8051 68.1561 71.3502 68.0718 71.8369 67.903C72.3301 67.7278 72.7551 67.4683 73.112 67.1243C73.4689 66.7739 73.7447 66.3392 73.9394 65.82L76.1587 66.443C75.9251 67.1957 75.5325 67.8576 74.9809 68.4287C74.4293 68.9932 73.748 69.4345 72.9368 69.7525C72.1257 70.0639 71.2139 70.2197 70.2016 70.2197ZM90.34 58.3056L88.2764 58.8896C88.1466 58.5457 87.9552 58.2115 87.7021 57.887C87.4555 57.5561 87.1181 57.2835 86.6898 57.0694C86.2615 56.8552 85.7132 56.7482 85.0448 56.7482C84.1298 56.7482 83.3674 56.9591 82.7574 57.3809C82.1539 57.7962 81.8521 58.325 81.8521 58.9675C81.8521 59.5385 82.0598 59.9895 82.4751 60.3205C82.8904 60.6514 83.5393 60.9272 84.4219 61.1478L86.6412 61.6929C87.9779 62.0174 88.974 62.5138 89.6294 63.1822C90.2848 63.8441 90.6125 64.6974 90.6125 65.7422C90.6125 66.5987 90.3659 67.3644 89.8728 68.0393C89.3861 68.7142 88.7047 69.2463 87.8287 69.6357C86.9526 70.025 85.9338 70.2197 84.7723 70.2197C83.2473 70.2197 81.9852 69.8887 80.9858 69.2268C79.9865 68.5649 79.3538 67.5981 79.0878 66.3262L81.2681 65.7811C81.4758 66.5857 81.8684 67.1892 82.4459 67.5916C83.0299 67.9939 83.7924 68.1951 84.7333 68.1951C85.804 68.1951 86.6541 67.9679 87.2836 67.5137C87.9195 67.053 88.2375 66.5014 88.2375 65.859C88.2375 65.3398 88.0558 64.9051 87.6924 64.5546C87.329 64.1977 86.7709 63.9317 86.0182 63.7565L83.5264 63.1724C82.1571 62.848 81.1513 62.3451 80.5089 61.6637C79.8729 60.9759 79.555 60.116 79.555 59.0843C79.555 58.2407 79.7918 57.4944 80.2655 56.8455C80.7457 56.1966 81.3979 55.6872 82.222 55.3173C83.0526 54.9474 83.9936 54.7625 85.0448 54.7625C86.5243 54.7625 87.6859 55.0869 88.5295 55.7359C89.3796 56.3848 89.9831 57.2413 90.34 58.3056Z" fill="white"/>
<path d="M330.585 20.0555C330.585 9.20162 321.787 0.402832 310.933 0.402832V28.8474H330.585V20.0555Z" fill="#278EFF" stroke="#278EFF" stroke-width="0.805851"/>
<rect width="19.6526" height="32.1217" transform="matrix(-1 0 0 1 330.585 28.8477)" fill="#278EFF" stroke="#278EFF" stroke-width="0.805851"/>
<path d="M310.933 60.9692V89.4136C315.692 89.4136 320.056 87.7211 323.457 84.9058C326.849 87.1658 332.288 89.3156 338.86 88.1206C337.05 87.3447 330.069 82.6904 330.327 73.3813C330.296 73.4236 330.262 73.463 330.229 73.5034C330.462 72.2919 330.586 71.0409 330.586 69.7612V60.9692H310.933Z" fill="#278EFF"/>
<path d="M310.933 60.9692H310.53V60.5663H310.933V60.9692ZM310.933 89.4136V89.8165H310.53V89.4136H310.933ZM323.457 84.9058L323.2 84.5954L323.431 84.4042L323.68 84.5704L323.457 84.9058ZM338.86 88.1206L339.019 87.7503L340.249 88.2776L338.932 88.517L338.86 88.1206ZM330.327 73.3813L330.001 73.1444L330.766 72.0928L330.73 73.3925L330.327 73.3813ZM330.229 73.5034L330.539 73.7597L329.833 73.4271L330.229 73.5034ZM330.586 69.7612H330.989H330.586ZM330.586 60.9692V60.5663H330.989V60.9692H330.586ZM310.933 60.9692H311.336V89.4136H310.933H310.53V60.9692H310.933ZM310.933 89.4136V89.0106C315.595 89.0106 319.869 87.3532 323.2 84.5954L323.457 84.9058L323.714 85.2161C320.244 88.0891 315.79 89.8165 310.933 89.8165V89.4136ZM323.457 84.9058L323.68 84.5704C327.01 86.789 332.344 88.8958 338.788 87.7242L338.86 88.1206L338.932 88.517C332.232 89.7353 326.688 87.5427 323.234 85.2411L323.457 84.9058ZM338.86 88.1206L338.702 88.4909C337.735 88.0766 335.484 86.6779 333.503 84.2026C331.515 81.7174 329.792 78.1359 329.924 73.3702L330.327 73.3813L330.73 73.3925C330.604 77.9358 332.242 81.336 334.133 83.6992C336.031 86.0723 338.176 87.3888 339.019 87.7503L338.86 88.1206ZM330.327 73.3813L330.653 73.6183C330.613 73.6737 330.562 73.7323 330.539 73.7597L330.229 73.5034L329.918 73.2472C329.962 73.1938 329.98 73.1735 330.001 73.1444L330.327 73.3813ZM330.229 73.5034L329.833 73.4271C330.062 72.2403 330.183 71.0149 330.183 69.7612H330.586H330.989C330.989 71.067 330.862 72.3435 330.624 73.5797L330.229 73.5034ZM330.586 69.7612H330.183V60.9692H330.586H330.989V69.7612H330.586ZM330.586 60.9692V61.3722H310.933V60.9692V60.5663H330.586V60.9692Z" fill="#278EFF"/>
</svg>
