<svg width="341" height="90" viewBox="0 0 341 90" fill="none" xmlns="http://www.w3.org/2000/svg">
<path d="M9.66406 20.0555C9.66406 9.20162 18.4628 0.402832 29.3167 0.402832V28.8474H9.66406V20.0555Z" fill="#26252A" stroke="#26252A" stroke-width="0.805851"/>
<rect x="9.66406" y="28.8474" width="19.6526" height="32.1217" fill="#26252A" stroke="#26252A" stroke-width="0.805851"/>
<path d="M29.3169 60.9692V89.4136C24.5572 89.4136 20.1931 87.7211 16.7925 84.9058C13.4001 87.1658 7.96139 89.3156 1.38916 88.1206C3.19942 87.3447 10.1809 82.6903 9.92236 73.3813C9.95309 73.4236 9.98772 73.463 10.021 73.5034C9.78742 72.2919 9.66357 71.041 9.66357 69.7612V60.9692H29.3169Z" fill="#26252A"/>
<path d="M29.3169 60.9692H29.7198V60.5663H29.3169V60.9692ZM29.3169 89.4136V89.8165H29.7198V89.4136H29.3169ZM16.7925 84.9058L17.0494 84.5954L16.8185 84.4042L16.5691 84.5704L16.7925 84.9058ZM1.38916 88.1206L1.23043 87.7503L0.000112771 88.2776L1.31708 88.517L1.38916 88.1206ZM9.92236 73.3813L10.2482 73.1444L9.48349 72.0929L9.51959 73.3925L9.92236 73.3813ZM10.021 73.5034L9.71006 73.7597L10.4166 73.4271L10.021 73.5034ZM9.66357 69.7612L9.26065 69.7612L9.26065 69.7612L9.66357 69.7612ZM9.66357 60.9692V60.5663H9.26065V60.9692H9.66357ZM29.3169 60.9692H28.914V89.4136H29.3169H29.7198V60.9692H29.3169ZM29.3169 89.4136V89.0106C24.6545 89.0106 20.3805 87.3532 17.0494 84.5954L16.7925 84.9058L16.5355 85.2161C20.0057 88.0891 24.46 89.8165 29.3169 89.8165V89.4136ZM16.7925 84.9058L16.5691 84.5704C13.2391 86.789 7.90505 88.8958 1.46124 87.7242L1.38916 88.1206L1.31708 88.517C8.01773 89.7353 13.5612 87.5427 17.0159 85.2411L16.7925 84.9058ZM1.38916 88.1206L1.54789 88.4909C2.51474 88.0766 4.76599 86.6779 6.74621 84.2026C8.73435 81.7174 10.4575 78.1359 10.3251 73.3702L9.92236 73.3813L9.51959 73.3925C9.6458 77.9358 8.00749 81.336 6.11695 83.6992C4.21849 86.0723 2.07385 87.3888 1.23043 87.7503L1.38916 88.1206ZM9.92236 73.3813L9.5965 73.6183C9.63679 73.6737 9.68751 73.7323 9.71006 73.7597L10.021 73.5034L10.3319 73.2472C10.2879 73.1938 10.2694 73.1735 10.2482 73.1444L9.92236 73.3813ZM10.021 73.5034L10.4166 73.4271C10.1878 72.2403 10.0665 71.0149 10.0665 69.7612L9.66357 69.7612L9.26065 69.7612C9.26065 71.067 9.38702 72.3435 9.62536 73.5797L10.021 73.5034ZM9.66357 69.7612H10.0665V60.9692H9.66357H9.26065V69.7612H9.66357ZM9.66357 60.9692V61.3722H29.3169V60.9692V60.5663H9.66357V60.9692Z" fill="#26252A"/>
<rect x="29.3164" y="0.402832" width="290.877" height="89.0106" fill="#26252A"/>
<rect x="29.3164" y="0.402832" width="290.877" height="89.0106" stroke="#26252A" stroke-width="0.805851"/>
<path d="M31.7304 39.9082V19.9735H34.1443V28.8507H44.7736V19.9735H47.1876V39.9082H44.7736V30.9921H34.1443V39.9082H31.7304ZM57.8404 40.2197C56.3998 40.2197 55.1571 39.9017 54.1124 39.2658C53.0741 38.6233 52.2727 37.7278 51.7081 36.5793C51.1501 35.4242 50.871 34.0809 50.871 32.5495C50.871 31.018 51.1501 29.6683 51.7081 28.5002C52.2727 27.3257 53.0579 26.4107 54.0637 25.7553C55.076 25.0934 56.257 24.7625 57.6068 24.7625C58.3855 24.7625 59.1544 24.8923 59.9137 25.1518C60.6729 25.4114 61.364 25.8332 61.987 26.4172C62.6099 26.9948 63.1064 27.7605 63.4762 28.7144C63.8461 29.6683 64.0311 30.8428 64.0311 32.238V33.2114H52.5063V31.2257H61.695C61.695 30.3821 61.5262 29.6294 61.1888 28.9675C60.8579 28.3056 60.3841 27.7832 59.7677 27.4003C59.1577 27.0175 58.4374 26.826 57.6068 26.826C56.6918 26.826 55.9001 27.0532 55.2317 27.5074C54.5699 27.9552 54.0605 28.5392 53.7035 29.2595C53.3466 29.9798 53.1682 30.752 53.1682 31.5761V32.8999C53.1682 34.029 53.3629 34.9862 53.7522 35.7714C54.1481 36.5501 54.6964 37.1438 55.3972 37.5526C56.0981 37.955 56.9124 38.1561 57.8404 38.1561C58.4439 38.1561 58.989 38.0718 59.4757 37.903C59.9688 37.7278 60.3939 37.4683 60.7508 37.1243C61.1077 36.7739 61.3835 36.3392 61.5782 35.82L63.7974 36.443C63.5638 37.1957 63.1712 37.8576 62.6197 38.4287C62.0681 38.9932 61.3867 39.4345 60.5756 39.7525C59.7644 40.0639 58.8527 40.2197 57.8404 40.2197ZM67.3884 39.9082V24.9572H69.6077V27.2154H69.7635C70.036 26.4756 70.5292 25.8754 71.243 25.4146C71.9568 24.9539 72.7615 24.7235 73.657 24.7235C73.8257 24.7235 74.0366 24.7268 74.2897 24.7333C74.5427 24.7398 74.7342 24.7495 74.8639 24.7625V27.0986C74.7861 27.0791 74.6076 27.0499 74.3286 27.011C74.056 26.9656 73.7673 26.9428 73.4623 26.9428C72.7355 26.9428 72.0866 27.0953 71.5155 27.4003C70.951 27.6988 70.5032 28.1141 70.1723 28.6463C69.8478 29.1719 69.6856 29.7721 69.6856 30.447V39.9082H67.3884ZM83.2634 40.2197C81.8228 40.2197 80.5801 39.9017 79.5354 39.2658C78.4971 38.6233 77.6957 37.7278 77.1311 36.5793C76.5731 35.4242 76.294 34.0809 76.294 32.5495C76.294 31.018 76.5731 29.6683 77.1311 28.5002C77.6957 27.3257 78.4809 26.4107 79.4867 25.7553C80.499 25.0934 81.68 24.7625 83.0298 24.7625C83.8085 24.7625 84.5775 24.8923 85.3367 25.1518C86.0959 25.4114 86.787 25.8332 87.41 26.4172C88.0329 26.9948 88.5294 27.7605 88.8992 28.7144C89.2691 29.6683 89.4541 30.8428 89.4541 32.238V33.2114H77.9293V31.2257H87.118C87.118 30.3821 86.9492 29.6294 86.6118 28.9675C86.2809 28.3056 85.8072 27.7832 85.1907 27.4003C84.5807 27.0175 83.8604 26.826 83.0298 26.826C82.1148 26.826 81.3231 27.0532 80.6548 27.5074C79.9929 27.9552 79.4835 28.5392 79.1266 29.2595C78.7696 29.9798 78.5912 30.752 78.5912 31.5761V32.8999C78.5912 34.029 78.7859 34.9862 79.1752 35.7714C79.5711 36.5501 80.1194 37.1438 80.8202 37.5526C81.5211 37.955 82.3354 38.1561 83.2634 38.1561C83.8669 38.1561 84.412 38.0718 84.8987 37.903C85.3918 37.7278 85.8169 37.4683 86.1738 37.1243C86.5307 36.7739 86.8065 36.3392 87.0012 35.82L89.2205 36.443C88.9868 37.1957 88.5942 37.8576 88.0427 38.4287C87.4911 38.9932 86.8097 39.4345 85.9986 39.7525C85.1874 40.0639 84.2757 40.2197 83.2634 40.2197ZM94.836 19.9735V21.7256C94.836 22.2577 94.7387 22.8255 94.544 23.429C94.3559 24.026 94.0768 24.6067 93.7069 25.1713C93.3435 25.7294 92.9023 26.2161 92.3831 26.6314L91.1372 25.6191C91.546 25.035 91.8997 24.4283 92.1982 23.7988C92.5032 23.1629 92.6557 22.4848 92.6557 21.7645V19.9735H94.836ZM106.209 28.3056L104.146 28.8896C104.016 28.5457 103.824 28.2115 103.571 27.887C103.325 27.5561 102.987 27.2835 102.559 27.0694C102.131 26.8552 101.582 26.7482 100.914 26.7482C99.999 26.7482 99.2366 26.9591 98.6266 27.3809C98.0231 27.7962 97.7213 28.325 97.7213 28.9675C97.7213 29.5385 97.929 29.9895 98.3443 30.3205C98.7596 30.6514 99.4085 30.9272 100.291 31.1478L102.51 31.6929C103.847 32.0174 104.843 32.5138 105.499 33.1822C106.154 33.8441 106.482 34.6974 106.482 35.7422C106.482 36.5987 106.235 37.3644 105.742 38.0393C105.255 38.7142 104.574 39.2463 103.698 39.6357C102.822 40.025 101.803 40.2197 100.641 40.2197C99.1165 40.2197 97.8544 39.8887 96.855 39.2268C95.8557 38.5649 95.223 37.5981 94.9569 36.3262L97.1373 35.7811C97.345 36.5857 97.7376 37.1892 98.3151 37.5916C98.8991 37.9939 99.6616 38.1951 100.603 38.1951C101.673 38.1951 102.523 37.9679 103.153 37.5137C103.789 37.053 104.107 36.5014 104.107 35.859C104.107 35.3398 103.925 34.9051 103.562 34.5546C103.198 34.1977 102.64 33.9317 101.887 33.7565L99.3955 33.1724C98.0263 32.848 97.0205 32.3451 96.3781 31.6637C95.7421 30.9759 95.4242 30.116 95.4242 29.0843C95.4242 28.2407 95.661 27.4944 96.1347 26.8455C96.6149 26.1966 97.2671 25.6872 98.0912 25.3173C98.9218 24.9474 99.8628 24.7625 100.914 24.7625C102.394 24.7625 103.555 25.0869 104.399 25.7359C105.249 26.3848 105.852 27.2413 106.209 28.3056ZM118.854 45.5148C118.465 45.5148 118.118 45.4824 117.813 45.4175C117.508 45.3591 117.297 45.3007 117.18 45.2423L117.764 43.2177C118.322 43.3604 118.815 43.4124 119.244 43.3734C119.672 43.3345 120.051 43.1431 120.382 42.7991C120.72 42.4617 121.028 41.9134 121.307 41.1541L121.735 39.9861L116.207 24.9572H118.698L122.826 36.8713H122.981L127.108 24.9572H129.6L123.254 42.0886C122.968 42.8608 122.615 43.5 122.193 44.0061C121.771 44.5188 121.281 44.8984 120.723 45.145C120.171 45.3916 119.549 45.5148 118.854 45.5148ZM138.034 40.2197C136.684 40.2197 135.5 39.8985 134.481 39.256C133.469 38.6136 132.677 37.7149 132.106 36.5598C131.541 35.4047 131.259 34.055 131.259 32.5106C131.259 30.9532 131.541 29.5937 132.106 28.4321C132.677 27.2705 133.469 26.3686 134.481 25.7261C135.5 25.0837 136.684 24.7625 138.034 24.7625C139.384 24.7625 140.565 25.0837 141.577 25.7261C142.596 26.3686 143.387 27.2705 143.952 28.4321C144.523 29.5937 144.808 30.9532 144.808 32.5106C144.808 34.055 144.523 35.4047 143.952 36.5598C143.387 37.7149 142.596 38.6136 141.577 39.256C140.565 39.8985 139.384 40.2197 138.034 40.2197ZM138.034 38.1561C139.059 38.1561 139.903 37.8933 140.565 37.3677C141.226 36.8421 141.716 36.151 142.034 35.2944C142.352 34.4378 142.511 33.5099 142.511 32.5106C142.511 31.5112 142.352 30.58 142.034 29.717C141.716 28.8539 141.226 28.1563 140.565 27.6242C139.903 27.0921 139.059 26.826 138.034 26.826C137.008 26.826 136.165 27.0921 135.503 27.6242C134.841 28.1563 134.351 28.8539 134.033 29.717C133.715 30.58 133.556 31.5112 133.556 32.5106C133.556 33.5099 133.715 34.4378 134.033 35.2944C134.351 36.151 134.841 36.8421 135.503 37.3677C136.165 37.8933 137.008 38.1561 138.034 38.1561ZM157.6 33.7954V24.9572H159.897V39.9082H157.6V37.3774H157.445C157.094 38.1367 156.549 38.7823 155.809 39.3144C155.069 39.8401 154.135 40.1029 153.006 40.1029C152.071 40.1029 151.241 39.8985 150.514 39.4897C149.787 39.0743 149.216 38.4514 148.801 37.6208C148.386 36.7837 148.178 35.7292 148.178 34.4573V24.9572H150.475V34.3016C150.475 35.3917 150.78 36.2613 151.39 36.9102C152.007 37.5591 152.792 37.8836 153.746 37.8836C154.317 37.8836 154.898 37.7376 155.488 37.4456C156.085 37.1536 156.585 36.7058 156.987 36.1023C157.396 35.4988 157.6 34.7298 157.6 33.7954ZM163.968 39.9082V24.9572H166.187V27.2154H166.343C166.615 26.4756 167.109 25.8754 167.822 25.4146C168.536 24.9539 169.341 24.7235 170.236 24.7235C170.405 24.7235 170.616 24.7268 170.869 24.7333C171.122 24.7398 171.314 24.7495 171.443 24.7625V27.0986C171.365 27.0791 171.187 27.0499 170.908 27.011C170.635 26.9656 170.347 26.9428 170.042 26.9428C169.315 26.9428 168.666 27.0953 168.095 27.4003C167.53 27.6988 167.083 28.1141 166.752 28.6463C166.427 29.1719 166.265 29.7721 166.265 30.447V39.9082H163.968ZM181.601 39.9082V24.9572H183.821V27.2154H183.976C184.249 26.4756 184.742 25.8754 185.456 25.4146C186.17 24.9539 186.974 24.7235 187.87 24.7235C188.039 24.7235 188.25 24.7268 188.503 24.7333C188.756 24.7398 188.947 24.7495 189.077 24.7625V27.0986C188.999 27.0791 188.821 27.0499 188.542 27.011C188.269 26.9656 187.98 26.9428 187.675 26.9428C186.948 26.9428 186.3 27.0953 185.728 27.4003C185.164 27.6988 184.716 28.1141 184.385 28.6463C184.061 29.1719 183.899 29.7721 183.899 30.447V39.9082H181.601ZM197.476 40.2197C196.036 40.2197 194.793 39.9017 193.748 39.2658C192.71 38.6233 191.909 37.7278 191.344 36.5793C190.786 35.4242 190.507 34.0809 190.507 32.5495C190.507 31.018 190.786 29.6683 191.344 28.5002C191.909 27.3257 192.694 26.4107 193.7 25.7553C194.712 25.0934 195.893 24.7625 197.243 24.7625C198.021 24.7625 198.79 24.8923 199.55 25.1518C200.309 25.4114 201 25.8332 201.623 26.4172C202.246 26.9948 202.742 27.7605 203.112 28.7144C203.482 29.6683 203.667 30.8428 203.667 32.238V33.2114H192.142V31.2257H201.331C201.331 30.3821 201.162 29.6294 200.825 28.9675C200.494 28.3056 200.02 27.7832 199.404 27.4003C198.794 27.0175 198.073 26.826 197.243 26.826C196.328 26.826 195.536 27.0532 194.868 27.5074C194.206 27.9552 193.696 28.5392 193.339 29.2595C192.983 29.9798 192.804 30.752 192.804 31.5761V32.8999C192.804 34.029 192.999 34.9862 193.388 35.7714C193.784 36.5501 194.332 37.1438 195.033 37.5526C195.734 37.955 196.548 38.1561 197.476 38.1561C198.08 38.1561 198.625 38.0718 199.112 37.903C199.605 37.7278 200.03 37.4683 200.387 37.1243C200.744 36.7739 201.019 36.3392 201.214 35.82L203.433 36.443C203.2 37.1957 202.807 37.8576 202.256 38.4287C201.704 38.9932 201.023 39.4345 200.212 39.7525C199.4 40.0639 198.489 40.2197 197.476 40.2197ZM218.795 24.9572L213.266 39.9082H210.93L205.401 24.9572H207.893L212.02 36.8713H212.176L216.303 24.9572H218.795ZM221.69 39.9082V24.9572H223.987V39.9082H221.69ZM222.858 22.4653C222.41 22.4653 222.024 22.3128 221.7 22.0078C221.382 21.7028 221.223 21.3362 221.223 20.9079C221.223 20.4796 221.382 20.113 221.7 19.808C222.024 19.503 222.41 19.3505 222.858 19.3505C223.306 19.3505 223.689 19.503 224.007 19.808C224.331 20.113 224.493 20.4796 224.493 20.9079C224.493 21.3362 224.331 21.7028 224.007 22.0078C223.689 22.3128 223.306 22.4653 222.858 22.4653ZM238.648 28.3056L236.584 28.8896C236.454 28.5457 236.263 28.2115 236.01 27.887C235.763 27.5561 235.426 27.2835 234.998 27.0694C234.569 26.8552 234.021 26.7482 233.353 26.7482C232.438 26.7482 231.675 26.9591 231.065 27.3809C230.462 27.7962 230.16 28.325 230.16 28.9675C230.16 29.5385 230.368 29.9895 230.783 30.3205C231.198 30.6514 231.847 30.9272 232.73 31.1478L234.949 31.6929C236.286 32.0174 237.282 32.5138 237.937 33.1822C238.593 33.8441 238.92 34.6974 238.92 35.7422C238.92 36.5987 238.674 37.3644 238.181 38.0393C237.694 38.7142 237.012 39.2463 236.136 39.6357C235.26 40.025 234.242 40.2197 233.08 40.2197C231.555 40.2197 230.293 39.8887 229.294 39.2268C228.294 38.5649 227.662 37.5981 227.396 36.3262L229.576 35.7811C229.784 36.5857 230.176 37.1892 230.754 37.5916C231.338 37.9939 232.1 38.1951 233.041 38.1951C234.112 38.1951 234.962 37.9679 235.591 37.5137C236.227 37.053 236.545 36.5014 236.545 35.859C236.545 35.3398 236.364 34.9051 236 34.5546C235.637 34.1977 235.079 33.9317 234.326 33.7565L231.834 33.1724C230.465 32.848 229.459 32.3451 228.817 31.6637C228.181 30.9759 227.863 30.116 227.863 29.0843C227.863 28.2407 228.1 27.4944 228.573 26.8455C229.054 26.1966 229.706 25.6872 230.53 25.3173C231.36 24.9474 232.301 24.7625 233.353 24.7625C234.832 24.7625 235.994 25.0869 236.837 25.7359C237.687 26.3848 238.291 27.2413 238.648 28.3056ZM242.241 39.9082V24.9572H244.538V39.9082H242.241ZM243.409 22.4653C242.961 22.4653 242.575 22.3128 242.251 22.0078C241.933 21.7028 241.774 21.3362 241.774 20.9079C241.774 20.4796 241.933 20.113 242.251 19.808C242.575 19.503 242.961 19.3505 243.409 19.3505C243.857 19.3505 244.24 19.503 244.558 19.808C244.882 20.113 245.044 20.4796 245.044 20.9079C245.044 21.3362 244.882 21.7028 244.558 22.0078C244.24 22.3128 243.857 22.4653 243.409 22.4653ZM254.683 40.2197C253.333 40.2197 252.149 39.8985 251.13 39.256C250.117 38.6136 249.326 37.7149 248.755 36.5598C248.19 35.4047 247.908 34.055 247.908 32.5106C247.908 30.9532 248.19 29.5937 248.755 28.4321C249.326 27.2705 250.117 26.3686 251.13 25.7261C252.149 25.0837 253.333 24.7625 254.683 24.7625C256.032 24.7625 257.213 25.0837 258.226 25.7261C259.244 26.3686 260.036 27.2705 260.601 28.4321C261.172 29.5937 261.457 30.9532 261.457 32.5106C261.457 34.055 261.172 35.4047 260.601 36.5598C260.036 37.7149 259.244 38.6136 258.226 39.256C257.213 39.8985 256.032 40.2197 254.683 40.2197ZM254.683 38.1561C255.708 38.1561 256.551 37.8933 257.213 37.3677C257.875 36.8421 258.365 36.151 258.683 35.2944C259.001 34.4378 259.16 33.5099 259.16 32.5106C259.16 31.5112 259.001 30.58 258.683 29.717C258.365 28.8539 257.875 28.1563 257.213 27.6242C256.551 27.0921 255.708 26.826 254.683 26.826C253.657 26.826 252.814 27.0921 252.152 27.6242C251.49 28.1563 251 28.8539 250.682 29.717C250.364 30.58 250.205 31.5112 250.205 32.5106C250.205 33.5099 250.364 34.4378 250.682 35.2944C251 36.151 251.49 36.8421 252.152 37.3677C252.814 37.8933 253.657 38.1561 254.683 38.1561ZM267.124 30.9142V39.9082H264.827V24.9572H267.046V27.2933H267.241C267.591 26.534 268.123 25.924 268.837 25.4633C269.551 24.9961 270.472 24.7625 271.601 24.7625C272.614 24.7625 273.5 24.9701 274.259 25.3854C275.018 25.7943 275.609 26.4172 276.03 27.2543C276.452 28.0849 276.663 29.1362 276.663 30.4081V39.9082H274.366V30.5638C274.366 29.3893 274.061 28.4743 273.451 27.8189C272.841 27.157 272.004 26.826 270.94 26.826C270.206 26.826 269.551 26.985 268.973 27.303C268.402 27.621 267.951 28.0849 267.62 28.6949C267.289 29.3049 267.124 30.0447 267.124 30.9142ZM42.0092 58.3056L39.9457 58.8896C39.8159 58.5457 39.6245 58.2115 39.3714 57.887C39.1248 57.5561 38.7873 57.2835 38.3591 57.0694C37.9308 56.8552 37.3824 56.7482 36.7141 56.7482C35.7991 56.7482 35.0366 56.9591 34.4266 57.3809C33.8231 57.7962 33.5214 58.325 33.5214 58.9675C33.5214 59.5385 33.729 59.9895 34.1443 60.3205C34.5597 60.6514 35.2086 60.9272 36.0911 61.1478L38.3104 61.6929C39.6472 62.0174 40.6433 62.5138 41.2987 63.1822C41.9541 63.8441 42.2818 64.6974 42.2818 65.7422C42.2818 66.5987 42.0352 67.3644 41.542 68.0393C41.0553 68.7142 40.3739 69.2463 39.4979 69.6357C38.6219 70.025 37.6031 70.2197 36.4415 70.2197C34.9166 70.2197 33.6544 69.8887 32.6551 69.2268C31.6558 68.5649 31.0231 67.5981 30.757 66.3262L32.9374 65.7811C33.145 66.5857 33.5376 67.1892 34.1151 67.5916C34.6992 67.9939 35.4616 68.1951 36.4026 68.1951C37.4733 68.1951 38.3234 67.9679 38.9528 67.5137C39.5888 67.053 39.9067 66.5014 39.9067 65.859C39.9067 65.3398 39.725 64.9051 39.3616 64.5546C38.9982 64.1977 38.4402 63.9317 37.6874 63.7565L35.1956 63.1724C33.8264 62.848 32.8206 62.3451 32.1781 61.6637C31.5422 60.9759 31.2242 60.116 31.2242 59.0843C31.2242 58.2407 31.4611 57.4944 31.9348 56.8455C32.415 56.1966 33.0671 55.6872 33.8913 55.3173C34.7219 54.9474 35.6628 54.7625 36.7141 54.7625C38.1936 54.7625 39.3552 55.0869 40.1987 55.7359C41.0488 56.3848 41.6523 57.2413 42.0092 58.3056ZM47.8998 60.9142V69.9082H45.6026V49.9735H47.8998V57.2933H48.0945C48.4449 56.521 48.9705 55.9078 49.6713 55.4536C50.3787 54.9928 51.3196 54.7625 52.4941 54.7625C53.5129 54.7625 54.4052 54.9669 55.1709 55.3757C55.9366 55.778 56.5304 56.3978 56.9522 57.2349C57.3805 58.0655 57.5946 59.1232 57.5946 60.4081V69.9082H55.2974V60.5638C55.2974 59.3763 54.9892 58.4581 54.3727 57.8091C53.7628 57.1537 52.9159 56.826 51.8322 56.826C51.0795 56.826 50.4046 56.985 49.8076 57.303C49.2171 57.621 48.7499 58.0849 48.4059 58.6949C48.0685 59.3049 47.8998 60.0447 47.8998 60.9142ZM67.9286 70.2197C66.488 70.2197 65.2454 69.9017 64.2006 69.2658C63.1624 68.6233 62.3609 67.7278 61.7964 66.5793C61.2383 65.4242 60.9593 64.0809 60.9593 62.5495C60.9593 61.018 61.2383 59.6683 61.7964 58.5002C62.3609 57.3257 63.1461 56.4107 64.1519 55.7553C65.1643 55.0934 66.3453 54.7625 67.695 54.7625C68.4737 54.7625 69.2427 54.8923 70.0019 55.1518C70.7612 55.4114 71.4523 55.8332 72.0752 56.4172C72.6982 56.9948 73.1946 57.7605 73.5645 58.7144C73.9344 59.6683 74.1193 60.8428 74.1193 62.238V63.2114H62.5945V61.2257H71.7832C71.7832 60.3821 71.6145 59.6294 71.2771 58.9675C70.9461 58.3056 70.4724 57.7832 69.8559 57.4003C69.2459 57.0175 68.5256 56.826 67.695 56.826C66.7801 56.826 65.9884 57.0532 65.32 57.5074C64.6581 57.9552 64.1487 58.5392 63.7918 59.2595C63.4349 59.9798 63.2564 60.752 63.2564 61.5761V62.8999C63.2564 64.029 63.4511 64.9862 63.8405 65.7714C64.2363 66.5501 64.7846 67.1438 65.4855 67.5526C66.1863 67.955 67.0007 68.1561 67.9286 68.1561C68.5321 68.1561 69.0772 68.0718 69.5639 67.903C70.0571 67.7278 70.4821 67.4683 70.839 67.1243C71.1959 66.7739 71.4717 66.3392 71.6664 65.82L73.8857 66.443C73.6521 67.1957 73.2595 67.8576 72.7079 68.4287C72.1563 68.9932 71.475 69.4345 70.6638 69.7525C69.8527 70.0639 68.941 70.2197 67.9286 70.2197ZM83.7452 70.2197C82.3046 70.2197 81.0619 69.9017 80.0172 69.2658C78.9789 68.6233 78.1775 67.7278 77.613 66.5793C77.0549 65.4242 76.7758 64.0809 76.7758 62.5495C76.7758 61.018 77.0549 59.6683 77.613 58.5002C78.1775 57.3257 78.9627 56.4107 79.9685 55.7553C80.9808 55.0934 82.1619 54.7625 83.5116 54.7625C84.2903 54.7625 85.0593 54.8923 85.8185 55.1518C86.5777 55.4114 87.2688 55.8332 87.8918 56.4172C88.5148 56.9948 89.0112 57.7605 89.3811 58.7144C89.7509 59.6683 89.9359 60.8428 89.9359 62.238V63.2114H78.4111V61.2257H87.5998C87.5998 60.3821 87.4311 59.6294 87.0936 58.9675C86.7627 58.3056 86.289 57.7832 85.6725 57.4003C85.0625 57.0175 84.3422 56.826 83.5116 56.826C82.5966 56.826 81.805 57.0532 81.1366 57.5074C80.4747 57.9552 79.9653 58.5392 79.6084 59.2595C79.2515 59.9798 79.073 60.752 79.073 61.5761V62.8999C79.073 64.029 79.2677 64.9862 79.657 65.7714C80.0529 66.5501 80.6012 67.1438 81.302 67.5526C82.0029 67.955 82.8173 68.1561 83.7452 68.1561C84.3487 68.1561 84.8938 68.0718 85.3805 67.903C85.8737 67.7278 86.2987 67.4683 86.6556 67.1243C87.0125 66.7739 87.2883 66.3392 87.483 65.82L89.7023 66.443C89.4687 67.1957 89.0761 67.8576 88.5245 68.4287C87.9729 68.9932 87.2915 69.4345 86.4804 69.7525C85.6693 70.0639 84.7575 70.2197 83.7452 70.2197ZM99.7954 54.9572V56.9039H92.0473V54.9572H99.7954ZM94.3056 51.3751H96.6027V65.6254C96.6027 66.2743 96.6968 66.761 96.885 67.0854C97.0797 67.4034 97.3263 67.6175 97.6248 67.7278C97.9298 67.8317 98.251 67.8836 98.5884 67.8836C98.8415 67.8836 99.0491 67.8706 99.2114 67.8446C99.3736 67.8122 99.5034 67.7862 99.6007 67.7668L100.068 69.8303C99.9122 69.8887 99.6948 69.9471 99.4158 70.0055C99.1367 70.0704 98.7831 70.1029 98.3548 70.1029C97.7059 70.1029 97.0699 69.9634 96.447 69.6843C95.8305 69.4053 95.3179 68.9803 94.9091 68.4092C94.5067 67.8382 94.3056 67.1179 94.3056 66.2483V51.3751ZM104.788 70.0639C104.308 70.0639 103.896 69.892 103.552 69.5481C103.208 69.2041 103.036 68.7921 103.036 68.3119C103.036 67.8317 103.208 67.4196 103.552 67.0757C103.896 66.7318 104.308 66.5598 104.788 66.5598C105.268 66.5598 105.68 66.7318 106.024 67.0757C106.368 67.4196 106.54 67.8317 106.54 68.3119C106.54 68.6298 106.459 68.9218 106.297 69.1879C106.141 69.454 105.93 69.6681 105.664 69.8303C105.405 69.9861 105.112 70.0639 104.788 70.0639ZM116.696 49.9735H119.46L124.989 59.2789H125.222L130.751 49.9735H133.516L126.313 61.6929V69.9082H123.899V61.6929L116.696 49.9735ZM140.148 70.2197C138.799 70.2197 137.614 69.8985 136.596 69.256C135.583 68.6136 134.792 67.7149 134.221 66.5598C133.656 65.4047 133.374 64.055 133.374 62.5106C133.374 60.9532 133.656 59.5937 134.221 58.4321C134.792 57.2705 135.583 56.3686 136.596 55.7261C137.614 55.0837 138.799 54.7625 140.148 54.7625C141.498 54.7625 142.679 55.0837 143.692 55.7261C144.71 56.3686 145.502 57.2705 146.067 58.4321C146.638 59.5937 146.923 60.9532 146.923 62.5106C146.923 64.055 146.638 65.4047 146.067 66.5598C145.502 67.7149 144.71 68.6136 143.692 69.256C142.679 69.8985 141.498 70.2197 140.148 70.2197ZM140.148 68.1561C141.174 68.1561 142.017 67.8933 142.679 67.3677C143.341 66.8421 143.831 66.151 144.149 65.2944C144.467 64.4378 144.626 63.5099 144.626 62.5106C144.626 61.5112 144.467 60.58 144.149 59.717C143.831 58.8539 143.341 58.1563 142.679 57.6242C142.017 57.0921 141.174 56.826 140.148 56.826C139.123 56.826 138.28 57.0921 137.618 57.6242C136.956 58.1563 136.466 58.8539 136.148 59.717C135.83 60.58 135.671 61.5112 135.671 62.5106C135.671 63.5099 135.83 64.4378 136.148 65.2944C136.466 66.151 136.956 66.8421 137.618 67.3677C138.28 67.8933 139.123 68.1561 140.148 68.1561ZM159.715 63.7954V54.9572H162.012V69.9082H159.715V67.3774H159.559C159.209 68.1367 158.664 68.7823 157.924 69.3144C157.184 69.8401 156.25 70.1029 155.121 70.1029C154.186 70.1029 153.356 69.8985 152.629 69.4897C151.902 69.0743 151.331 68.4514 150.916 67.6208C150.5 66.7837 150.293 65.7292 150.293 64.4573V54.9572H152.59V64.3016C152.59 65.3917 152.895 66.2613 153.505 66.9102C154.121 67.5591 154.906 67.8836 155.86 67.8836C156.431 67.8836 157.012 67.7376 157.603 67.4456C158.2 67.1536 158.699 66.7058 159.102 66.1023C159.511 65.4988 159.715 64.7298 159.715 63.7954ZM179.689 75.8263C178.58 75.8263 177.626 75.6836 176.828 75.398C176.03 75.119 175.364 74.7491 174.832 74.2884C174.307 73.8342 173.888 73.3475 173.577 72.8283L175.407 71.5435C175.614 71.816 175.877 72.1275 176.195 72.4779C176.513 72.8348 176.948 73.1431 177.499 73.4026C178.057 73.6687 178.787 73.8017 179.689 73.8017C180.896 73.8017 181.893 73.5097 182.678 72.9257C183.463 72.3416 183.855 71.4267 183.855 70.1807V67.1438H183.661C183.492 67.4164 183.252 67.7538 182.941 68.1561C182.636 68.552 182.194 68.9056 181.617 69.2171C181.046 69.5221 180.273 69.6746 179.3 69.6746C178.093 69.6746 177.009 69.3891 176.049 68.818C175.095 68.247 174.339 67.4164 173.781 66.3262C173.229 65.236 172.954 63.9122 172.954 62.3548C172.954 60.8234 173.223 59.4898 173.762 58.3542C174.3 57.2121 175.05 56.3296 176.01 55.7067C176.97 55.0772 178.08 54.7625 179.339 54.7625C180.312 54.7625 181.085 54.9247 181.656 55.2492C182.233 55.5671 182.674 55.9305 182.979 56.3394C183.291 56.7417 183.531 57.0726 183.7 57.3322H183.933V54.9572H186.153V70.3365C186.153 71.6213 185.861 72.6661 185.277 73.4708C184.699 74.2819 183.92 74.8757 182.941 75.252C181.967 75.6349 180.883 75.8263 179.689 75.8263ZM179.612 67.611C180.533 67.611 181.312 67.4001 181.948 66.9783C182.584 66.5565 183.067 65.9498 183.398 65.1581C183.729 64.3665 183.894 63.419 183.894 62.3159C183.894 61.2387 183.732 60.288 183.408 59.4639C183.083 58.6398 182.603 57.9941 181.967 57.5269C181.331 57.0596 180.546 56.826 179.612 56.826C178.638 56.826 177.827 57.0726 177.178 57.5658C176.536 58.059 176.052 58.7209 175.728 59.5515C175.41 60.3821 175.251 61.3036 175.251 62.3159C175.251 63.3541 175.413 64.2724 175.738 65.0705C176.068 65.8622 176.555 66.4852 177.198 66.9394C177.847 67.3872 178.651 67.611 179.612 67.611ZM196.294 70.2197C194.945 70.2197 193.76 69.8985 192.742 69.256C191.729 68.6136 190.938 67.7149 190.367 66.5598C189.802 65.4047 189.52 64.055 189.52 62.5106C189.52 60.9532 189.802 59.5937 190.367 58.4321C190.938 57.2705 191.729 56.3686 192.742 55.7261C193.76 55.0837 194.945 54.7625 196.294 54.7625C197.644 54.7625 198.825 55.0837 199.838 55.7261C200.856 56.3686 201.648 57.2705 202.213 58.4321C202.784 59.5937 203.069 60.9532 203.069 62.5106C203.069 64.055 202.784 65.4047 202.213 66.5598C201.648 67.7149 200.856 68.6136 199.838 69.256C198.825 69.8985 197.644 70.2197 196.294 70.2197ZM196.294 68.1561C197.32 68.1561 198.163 67.8933 198.825 67.3677C199.487 66.8421 199.977 66.151 200.295 65.2944C200.613 64.4378 200.772 63.5099 200.772 62.5106C200.772 61.5112 200.613 60.58 200.295 59.717C199.977 58.8539 199.487 58.1563 198.825 57.6242C198.163 57.0921 197.32 56.826 196.294 56.826C195.269 56.826 194.426 57.0921 193.764 57.6242C193.102 58.1563 192.612 58.8539 192.294 59.717C191.976 60.58 191.817 61.5112 191.817 62.5106C191.817 63.5099 191.976 64.4378 192.294 65.2944C192.612 66.151 193.102 66.8421 193.764 67.3677C194.426 67.8933 195.269 68.1561 196.294 68.1561ZM212.941 54.9572V56.9039H205.193V54.9572H212.941ZM207.451 51.3751H209.748V65.6254C209.748 66.2743 209.842 66.761 210.03 67.0854C210.225 67.4034 210.472 67.6175 210.77 67.7278C211.075 67.8317 211.396 67.8836 211.734 67.8836C211.987 67.8836 212.195 67.8706 212.357 67.8446C212.519 67.8122 212.649 67.7862 212.746 67.7668L213.213 69.8303C213.058 69.8887 212.84 69.9471 212.561 70.0055C212.282 70.0704 211.929 70.1029 211.5 70.1029C210.851 70.1029 210.215 69.9634 209.592 69.6843C208.976 69.4053 208.463 68.9803 208.054 68.4092C207.652 67.8382 207.451 67.1179 207.451 66.2483V51.3751ZM230.333 54.9572V56.9039H222.585V54.9572H230.333ZM224.844 51.3751H227.141V65.6254C227.141 66.2743 227.235 66.761 227.423 67.0854C227.618 67.4034 227.864 67.6175 228.163 67.7278C228.468 67.8317 228.789 67.8836 229.127 67.8836C229.38 67.8836 229.587 67.8706 229.749 67.8446C229.912 67.8122 230.041 67.7862 230.139 67.7668L230.606 69.8303C230.45 69.8887 230.233 69.9471 229.954 70.0055C229.675 70.0704 229.321 70.1029 228.893 70.1029C228.244 70.1029 227.608 69.9634 226.985 69.6843C226.369 69.4053 225.856 68.9803 225.447 68.4092C225.045 67.8382 224.844 67.1179 224.844 66.2483V51.3751ZM236.27 60.9142V69.9082H233.973V49.9735H236.27V57.2933H236.465C236.815 56.521 237.341 55.9078 238.042 55.4536C238.749 54.9928 239.69 54.7625 240.865 54.7625C241.883 54.7625 242.776 54.9669 243.541 55.3757C244.307 55.778 244.901 56.3978 245.323 57.2349C245.751 58.0655 245.965 59.1232 245.965 60.4081V69.9082H243.668V60.5638C243.668 59.3763 243.36 58.4581 242.743 57.8091C242.133 57.1537 241.286 56.826 240.203 56.826C239.45 56.826 238.775 56.985 238.178 57.303C237.588 57.621 237.12 58.0849 236.776 58.6949C236.439 59.3049 236.27 60.0447 236.27 60.9142ZM250.031 69.9082V54.9572H252.328V69.9082H250.031ZM251.199 52.4653C250.751 52.4653 250.365 52.3128 250.04 52.0078C249.722 51.7028 249.563 51.3362 249.563 50.9079C249.563 50.4796 249.722 50.113 250.04 49.808C250.365 49.503 250.751 49.3505 251.199 49.3505C251.646 49.3505 252.029 49.503 252.347 49.808C252.672 50.113 252.834 50.4796 252.834 50.9079C252.834 51.3362 252.672 51.7028 252.347 52.0078C252.029 52.3128 251.646 52.4653 251.199 52.4653ZM266.988 58.3056L264.925 58.8896C264.795 58.5457 264.604 58.2115 264.351 57.887C264.104 57.5561 263.767 57.2835 263.338 57.0694C262.91 56.8552 262.362 56.7482 261.693 56.7482C260.778 56.7482 260.016 56.9591 259.406 57.3809C258.802 57.7962 258.501 58.325 258.501 58.9675C258.501 59.5385 258.708 59.9895 259.124 60.3205C259.539 60.6514 260.188 60.9272 261.07 61.1478L263.29 61.6929C264.626 62.0174 265.622 62.5138 266.278 63.1822C266.933 63.8441 267.261 64.6974 267.261 65.7422C267.261 66.5987 267.014 67.3644 266.521 68.0393C266.035 68.7142 265.353 69.2463 264.477 69.6357C263.601 70.025 262.582 70.2197 261.421 70.2197C259.896 70.2197 258.634 69.8887 257.634 69.2268C256.635 68.5649 256.002 67.5981 255.736 66.3262L257.917 65.7811C258.124 66.5857 258.517 67.1892 259.094 67.5916C259.678 67.9939 260.441 68.1951 261.382 68.1951C262.453 68.1951 263.303 67.9679 263.932 67.5137C264.568 67.053 264.886 66.5014 264.886 65.859C264.886 65.3398 264.704 64.9051 264.341 64.5546C263.977 64.1977 263.419 63.9317 262.667 63.7565L260.175 63.1724C258.806 62.848 257.8 62.3451 257.157 61.6637C256.521 60.9759 256.203 60.116 256.203 59.0843C256.203 58.2407 256.44 57.4944 256.914 56.8455C257.394 56.1966 258.046 55.6872 258.871 55.3173C259.701 54.9474 260.642 54.7625 261.693 54.7625C263.173 54.7625 264.334 55.0869 265.178 55.7359C266.028 56.3848 266.632 57.2413 266.988 58.3056ZM273.619 49.9735L273.424 64.3016H271.166L270.971 49.9735H273.619ZM272.295 70.0639C271.815 70.0639 271.403 69.892 271.059 69.5481C270.715 69.2041 270.543 68.7921 270.543 68.3119C270.543 67.8317 270.715 67.4196 271.059 67.0757C271.403 66.7318 271.815 66.5598 272.295 66.5598C272.775 66.5598 273.187 66.7318 273.531 67.0757C273.875 67.4196 274.047 67.8317 274.047 68.3119C274.047 68.6298 273.966 68.9218 273.804 69.1879C273.648 69.454 273.437 69.6681 273.171 69.8303C272.911 69.9861 272.619 70.0639 272.295 70.0639Z" fill="white"/>
<path d="M339.847 20.0555C339.847 9.20162 331.048 0.402832 320.194 0.402832V28.8474H339.847V20.0555Z" fill="#26252A" stroke="#26252A" stroke-width="0.805851"/>
<rect width="19.6526" height="32.1214" transform="matrix(-1 0 0 1 339.847 28.8474)" fill="#26252A" stroke="#26252A" stroke-width="0.805851"/>
<path d="M339.847 69.7609C339.847 80.6148 331.048 89.4136 320.194 89.4136V60.969H339.847V69.7609Z" fill="#26252A" stroke="#26252A" stroke-width="0.805851"/>
</svg>
