<svg width="341" height="90" viewBox="0 0 341 90" fill="none" xmlns="http://www.w3.org/2000/svg">
<path d="M0.402832 20.0556C0.402832 9.20175 9.20161 0.402954 20.0555 0.402954V28.8475H0.402832V20.0556Z" fill="#278EFF" stroke="#278EFF" stroke-width="0.805851"/>
<rect x="0.402832" y="28.8475" width="19.6526" height="32.1214" fill="#278EFF" stroke="#278EFF" stroke-width="0.805851"/>
<path d="M0.402832 69.7609C0.402832 80.6148 9.20161 89.4136 20.0555 89.4136V60.969H0.402832V69.7609Z" fill="#278EFF" stroke="#278EFF" stroke-width="0.805851"/>
<rect x="20.0557" y="0.402954" width="290.877" height="89.0106" fill="#278EFF"/>
<rect x="20.0557" y="0.402954" width="290.877" height="89.0106" stroke="#278EFF" stroke-width="0.805851"/>
<path d="M26.0906 39.9082L20.6397 19.9735H23.0926L27.2586 36.2094H27.4533L31.6972 19.9735H34.4227L38.6666 36.2094H38.8613L43.0273 19.9735H45.4802L40.0293 39.9082H37.5375L33.1378 24.0227H32.9821L28.5824 39.9082H26.0906ZM50.3366 30.9142V39.9082H48.0394V19.9735H50.3366V27.2933H50.5313C50.8817 26.521 51.4073 25.9078 52.1081 25.4536C52.8155 24.9928 53.7564 24.7625 54.9309 24.7625C55.9497 24.7625 56.842 24.9669 57.6077 25.3757C58.3734 25.778 58.9672 26.3978 59.389 27.2349C59.8173 28.0655 60.0314 29.1232 60.0314 30.4081V39.9082H57.7342V30.5638C57.7342 29.3763 57.426 28.4581 56.8095 27.8091C56.1996 27.1537 55.3527 26.826 54.269 26.826C53.5163 26.826 52.8414 26.985 52.2444 27.303C51.6539 27.621 51.1867 28.0849 50.8427 28.6949C50.5053 29.3049 50.3366 30.0447 50.3366 30.9142ZM70.3654 40.2197C68.9248 40.2197 67.6822 39.9017 66.6374 39.2658C65.5991 38.6233 64.7977 37.7278 64.2332 36.5793C63.6751 35.4242 63.3961 34.0809 63.3961 32.5495C63.3961 31.018 63.6751 29.6683 64.2332 28.5002C64.7977 27.3257 65.5829 26.4107 66.5887 25.7553C67.6011 25.0934 68.7821 24.7625 70.1318 24.7625C70.9105 24.7625 71.6795 24.8923 72.4387 25.1518C73.198 25.4114 73.8891 25.8332 74.512 26.4172C75.135 26.9948 75.6314 27.7605 76.0013 28.7144C76.3712 29.6683 76.5561 30.8428 76.5561 32.238V33.2114H65.0313V31.2257H74.22C74.22 30.3821 74.0513 29.6294 73.7139 28.9675C73.3829 28.3056 72.9092 27.7832 72.2927 27.4003C71.6827 27.0175 70.9624 26.826 70.1318 26.826C69.2169 26.826 68.4252 27.0532 67.7568 27.5074C67.0949 27.9552 66.5855 28.5392 66.2286 29.2595C65.8717 29.9798 65.6932 30.752 65.6932 31.5761V32.8999C65.6932 34.029 65.8879 34.9862 66.2773 35.7714C66.6731 36.5501 67.2214 37.1438 67.9223 37.5526C68.6231 37.955 69.4375 38.1561 70.3654 38.1561C70.9689 38.1561 71.514 38.0718 72.0007 37.903C72.4939 37.7278 72.9189 37.4683 73.2758 37.1243C73.6327 36.7739 73.9085 36.3392 74.1032 35.82L76.3225 36.443C76.0889 37.1957 75.6963 37.8576 75.1447 38.4287C74.5931 38.9932 73.9118 39.4345 73.1006 39.7525C72.2895 40.0639 71.3778 40.2197 70.3654 40.2197ZM79.9135 39.9082V24.9572H82.1328V27.2154H82.2885C82.5611 26.4756 83.0542 25.8754 83.768 25.4146C84.4819 24.9539 85.2865 24.7235 86.182 24.7235C86.3507 24.7235 86.5616 24.7268 86.8147 24.7333C87.0678 24.7398 87.2592 24.7495 87.389 24.7625V27.0986C87.3111 27.0791 87.1327 27.0499 86.8536 27.011C86.5811 26.9656 86.2923 26.9428 85.9873 26.9428C85.2606 26.9428 84.6116 27.0953 84.0406 27.4003C83.476 27.6988 83.0283 28.1141 82.6973 28.6463C82.3729 29.1719 82.2106 29.7721 82.2106 30.447V39.9082H79.9135ZM95.7884 40.2197C94.3479 40.2197 93.1052 39.9017 92.0604 39.2658C91.0222 38.6233 90.2207 37.7278 89.6562 36.5793C89.0981 35.4242 88.8191 34.0809 88.8191 32.5495C88.8191 31.018 89.0981 29.6683 89.6562 28.5002C90.2207 27.3257 91.0059 26.4107 92.0118 25.7553C93.0241 25.0934 94.2051 24.7625 95.5548 24.7625C96.3335 24.7625 97.1025 24.8923 97.8617 25.1518C98.621 25.4114 99.3121 25.8332 99.935 26.4172C100.558 26.9948 101.054 27.7605 101.424 28.7144C101.794 29.6683 101.979 30.8428 101.979 32.238V33.2114H90.4544V31.2257H99.643C99.643 30.3821 99.4743 29.6294 99.1369 28.9675C98.8059 28.3056 98.3322 27.7832 97.7157 27.4003C97.1057 27.0175 96.3855 26.826 95.5548 26.826C94.6399 26.826 93.8482 27.0532 93.1798 27.5074C92.5179 27.9552 92.0085 28.5392 91.6516 29.2595C91.2947 29.9798 91.1162 30.752 91.1162 31.5761V32.8999C91.1162 34.029 91.3109 34.9862 91.7003 35.7714C92.0961 36.5501 92.6444 37.1438 93.3453 37.5526C94.0461 37.955 94.8605 38.1561 95.7884 38.1561C96.3919 38.1561 96.937 38.0718 97.4237 37.903C97.9169 37.7278 98.3419 37.4683 98.6988 37.1243C99.0557 36.7739 99.3315 36.3392 99.5262 35.82L101.746 36.443C101.512 37.1957 101.119 37.8576 100.568 38.4287C100.016 38.9932 99.3348 39.4345 98.5236 39.7525C97.7125 40.0639 96.8008 40.2197 95.7884 40.2197ZM107.361 19.9735V21.7256C107.361 22.2577 107.264 22.8255 107.069 23.429C106.881 24.026 106.602 24.6067 106.232 25.1713C105.869 25.7294 105.427 26.2161 104.908 26.6314L103.662 25.6191C104.071 25.035 104.425 24.4283 104.723 23.7988C105.028 23.1629 105.181 22.4848 105.181 21.7645V19.9735H107.361ZM118.734 28.3056L116.671 28.8896C116.541 28.5457 116.349 28.2115 116.096 27.887C115.85 27.5561 115.512 27.2835 115.084 27.0694C114.656 26.8552 114.107 26.7482 113.439 26.7482C112.524 26.7482 111.762 26.9591 111.152 27.3809C110.548 27.7962 110.246 28.325 110.246 28.9675C110.246 29.5385 110.454 29.9895 110.869 30.3205C111.285 30.6514 111.934 30.9272 112.816 31.1478L115.035 31.6929C116.372 32.0174 117.368 32.5138 118.024 33.1822C118.679 33.8441 119.007 34.6974 119.007 35.7422C119.007 36.5987 118.76 37.3644 118.267 38.0393C117.78 38.7142 117.099 39.2463 116.223 39.6357C115.347 40.025 114.328 40.2197 113.167 40.2197C111.642 40.2197 110.379 39.8887 109.38 39.2268C108.381 38.5649 107.748 37.5981 107.482 36.3262L109.662 35.7811C109.87 36.5857 110.263 37.1892 110.84 37.5916C111.424 37.9939 112.187 38.1951 113.128 38.1951C114.198 38.1951 115.048 37.9679 115.678 37.5137C116.314 37.053 116.632 36.5014 116.632 35.859C116.632 35.3398 116.45 34.9051 116.087 34.5546C115.723 34.1977 115.165 33.9317 114.412 33.7565L111.921 33.1724C110.551 32.848 109.546 32.3451 108.903 31.6637C108.267 30.9759 107.949 30.116 107.949 29.0843C107.949 28.2407 108.186 27.4944 108.66 26.8455C109.14 26.1966 109.792 25.6872 110.616 25.3173C111.447 24.9474 112.388 24.7625 113.439 24.7625C114.919 24.7625 116.08 25.0869 116.924 25.7359C117.774 26.3848 118.377 27.2413 118.734 28.3056ZM136.402 24.9572V26.9039H128.654V24.9572H136.402ZM130.912 21.3751H133.209V35.6254C133.209 36.2743 133.303 36.761 133.491 37.0854C133.686 37.4034 133.933 37.6175 134.231 37.7278C134.536 37.8317 134.857 37.8836 135.195 37.8836C135.448 37.8836 135.656 37.8706 135.818 37.8446C135.98 37.8122 136.11 37.7862 136.207 37.7668L136.674 39.8303C136.519 39.8887 136.301 39.9471 136.022 40.0055C135.743 40.0704 135.39 40.1029 134.961 40.1029C134.312 40.1029 133.676 39.9634 133.053 39.6843C132.437 39.4053 131.924 38.9803 131.516 38.4092C131.113 37.8382 130.912 37.1179 130.912 36.2483V21.3751ZM142.339 30.9142V39.9082H140.041V19.9735H142.339V27.2933H142.533C142.884 26.521 143.409 25.9078 144.11 25.4536C144.818 24.9928 145.758 24.7625 146.933 24.7625C147.952 24.7625 148.844 24.9669 149.61 25.3757C150.375 25.778 150.969 26.3978 151.391 27.2349C151.819 28.0655 152.033 29.1232 152.033 30.4081V39.9082H149.736V30.5638C149.736 29.3763 149.428 28.4581 148.812 27.8091C148.202 27.1537 147.355 26.826 146.271 26.826C145.518 26.826 144.843 26.985 144.246 27.303C143.656 27.621 143.189 28.0849 142.845 28.6949C142.507 29.3049 142.339 30.0447 142.339 30.9142ZM162.368 40.2197C160.927 40.2197 159.684 39.9017 158.639 39.2658C157.601 38.6233 156.8 37.7278 156.235 36.5793C155.677 35.4242 155.398 34.0809 155.398 32.5495C155.398 31.018 155.677 29.6683 156.235 28.5002C156.8 27.3257 157.585 26.4107 158.591 25.7553C159.603 25.0934 160.784 24.7625 162.134 24.7625C162.913 24.7625 163.682 24.8923 164.441 25.1518C165.2 25.4114 165.891 25.8332 166.514 26.4172C167.137 26.9948 167.633 27.7605 168.003 28.7144C168.373 29.6683 168.558 30.8428 168.558 32.238V33.2114H157.033V31.2257H166.222C166.222 30.3821 166.053 29.6294 165.716 28.9675C165.385 28.3056 164.911 27.7832 164.295 27.4003C163.685 27.0175 162.965 26.826 162.134 26.826C161.219 26.826 160.427 27.0532 159.759 27.5074C159.097 27.9552 158.588 28.5392 158.231 29.2595C157.874 29.9798 157.695 30.752 157.695 31.5761V32.8999C157.695 34.029 157.89 34.9862 158.279 35.7714C158.675 36.5501 159.224 37.1438 159.924 37.5526C160.625 37.955 161.44 38.1561 162.368 38.1561C162.971 38.1561 163.516 38.0718 164.003 37.903C164.496 37.7278 164.921 37.4683 165.278 37.1243C165.635 36.7739 165.911 36.3392 166.105 35.82L168.325 36.443C168.091 37.1957 167.698 37.8576 167.147 38.4287C166.595 38.9932 165.914 39.4345 165.103 39.7525C164.292 40.0639 163.38 40.2197 162.368 40.2197ZM179.488 45.5148V24.9572H181.707V27.3322H181.979C182.148 27.0726 182.382 26.7417 182.68 26.3394C182.985 25.9305 183.42 25.5671 183.985 25.2492C184.556 24.9247 185.328 24.7625 186.301 24.7625C187.56 24.7625 188.67 25.0772 189.63 25.7067C190.591 26.3361 191.34 27.2284 191.879 28.3834C192.417 29.5385 192.687 30.9012 192.687 32.4716C192.687 34.055 192.417 35.4274 191.879 36.589C191.34 37.7441 190.594 38.6396 189.64 39.2755C188.686 39.905 187.586 40.2197 186.34 40.2197C185.38 40.2197 184.611 40.0607 184.033 39.7427C183.456 39.4183 183.011 39.0516 182.7 38.6428C182.388 38.2275 182.148 37.8836 181.979 37.611H181.785V45.5148H179.488ZM181.746 32.4327C181.746 33.5618 181.911 34.5579 182.242 35.4209C182.573 36.2775 183.057 36.9491 183.693 37.4358C184.329 37.916 185.107 38.1561 186.029 38.1561C186.989 38.1561 187.791 37.9031 188.433 37.3969C189.082 36.8843 189.569 36.1964 189.893 35.3333C190.224 34.4638 190.389 33.4969 190.389 32.4327C190.389 31.3814 190.227 30.434 189.903 29.5904C189.585 28.7403 189.101 28.0687 188.452 27.5755C187.81 27.0759 187.002 26.826 186.029 26.826C185.094 26.826 184.309 27.0629 183.673 27.5366C183.037 28.0038 182.557 28.6592 182.233 29.5028C181.908 30.3399 181.746 31.3165 181.746 32.4327ZM198.351 19.9735V39.9082H196.054V19.9735H198.351ZM206.821 40.2586C205.873 40.2586 205.014 40.0802 204.241 39.7233C203.469 39.3599 202.856 38.8375 202.402 38.1561C201.948 37.4683 201.72 36.6377 201.72 35.6643C201.72 34.8077 201.889 34.1134 202.227 33.5813C202.564 33.0427 203.015 32.6209 203.58 32.3159C204.144 32.0109 204.767 31.7838 205.448 31.6345C206.136 31.4788 206.827 31.3555 207.522 31.2646C208.43 31.1478 209.167 31.0602 209.731 31.0018C210.302 30.9369 210.718 30.8299 210.977 30.6806C211.243 30.5314 211.376 30.2718 211.376 29.9019V29.824C211.376 28.8636 211.113 28.1174 210.588 27.5853C210.069 27.0532 209.28 26.7871 208.223 26.7871C207.126 26.7871 206.266 27.0272 205.643 27.5074C205.02 27.9876 204.582 28.5002 204.329 29.0453L202.149 28.2666C202.538 27.3582 203.057 26.6508 203.706 26.1447C204.361 25.632 205.075 25.2751 205.847 25.074C206.626 24.8663 207.392 24.7625 208.145 24.7625C208.625 24.7625 209.176 24.8209 209.799 24.9377C210.429 25.048 211.036 25.2784 211.62 25.6288C212.21 25.9792 212.7 26.5081 213.089 27.2154C213.479 27.9227 213.673 28.8701 213.673 30.0576V39.9082H211.376V37.8836H211.259C211.104 38.208 210.844 38.5552 210.481 38.9251C210.117 39.295 209.634 39.6097 209.03 39.8693C208.427 40.1288 207.69 40.2586 206.821 40.2586ZM207.171 38.1951C208.08 38.1951 208.845 38.0166 209.468 37.6597C210.098 37.3028 210.572 36.8421 210.89 36.2775C211.214 35.713 211.376 35.1192 211.376 34.4962V32.3937C211.279 32.5106 211.065 32.6176 210.734 32.715C210.409 32.8058 210.033 32.8869 209.605 32.9583C209.183 33.0232 208.771 33.0816 208.369 33.1335C207.973 33.1789 207.651 33.2179 207.405 33.2503C206.808 33.3282 206.25 33.4547 205.731 33.6299C205.218 33.7987 204.803 34.055 204.485 34.3989C204.173 34.7363 204.018 35.1971 204.018 35.7811C204.018 36.5793 204.313 37.1828 204.903 37.5916C205.5 37.9939 206.256 38.1951 207.171 38.1951ZM220.026 30.9142V39.9082H217.729V24.9572H219.948V27.2933H220.143C220.494 26.534 221.026 25.924 221.74 25.4633C222.453 24.9961 223.375 24.7625 224.504 24.7625C225.516 24.7625 226.402 24.9701 227.161 25.3854C227.92 25.7943 228.511 26.4172 228.933 27.2543C229.355 28.0849 229.565 29.1362 229.565 30.4081V39.9082H227.268V30.5638C227.268 29.3893 226.963 28.4743 226.353 27.8189C225.743 27.157 224.906 26.826 223.842 26.826C223.109 26.826 222.453 26.985 221.876 27.303C221.305 27.621 220.854 28.0849 220.523 28.6949C220.192 29.3049 220.026 30.0447 220.026 30.9142ZM244.585 39.9082L240.03 24.9572H242.444L245.676 36.4041H245.831L249.024 24.9572H251.477L254.631 36.3651H254.786L258.018 24.9572H260.432L255.877 39.9082H253.618L250.348 28.4224H250.114L246.844 39.9082H244.585ZM269.092 40.2197C267.651 40.2197 266.409 39.9017 265.364 39.2658C264.326 38.6233 263.524 37.7278 262.96 36.5793C262.402 35.4242 262.123 34.0809 262.123 32.5495C262.123 31.018 262.402 29.6683 262.96 28.5002C263.524 27.3257 264.309 26.4107 265.315 25.7553C266.327 25.0934 267.509 24.7625 268.858 24.7625C269.637 24.7625 270.406 24.8923 271.165 25.1518C271.924 25.4114 272.616 25.8332 273.238 26.4172C273.861 26.9948 274.358 27.7605 274.728 28.7144C275.098 29.6683 275.283 30.8428 275.283 32.238V33.2114H263.758V31.2257H272.946C272.946 30.3821 272.778 29.6294 272.44 28.9675C272.109 28.3056 271.636 27.7832 271.019 27.4003C270.409 27.0175 269.689 26.826 268.858 26.826C267.943 26.826 267.152 27.0532 266.483 27.5074C265.821 27.9552 265.312 28.5392 264.955 29.2595C264.598 29.9798 264.42 30.752 264.42 31.5761V32.8999C264.42 34.029 264.614 34.9862 265.004 35.7714C265.4 36.5501 265.948 37.1438 266.649 37.5526C267.35 37.955 268.164 38.1561 269.092 38.1561C269.695 38.1561 270.24 38.0718 270.727 37.903C271.22 37.7278 271.645 37.4683 272.002 37.1243C272.359 36.7739 272.635 36.3392 272.83 35.82L275.049 36.443C274.815 37.1957 274.423 37.8576 273.871 38.4287C273.32 38.9932 272.638 39.4345 271.827 39.7525C271.016 40.0639 270.104 40.2197 269.092 40.2197ZM22.1582 69.9082V54.9572H24.3775V57.2933H24.5721C24.8836 56.4951 25.3865 55.8754 26.0809 55.4341C26.7752 54.9864 27.6091 54.7625 28.5824 54.7625C29.5688 54.7625 30.3897 54.9864 31.0451 55.4341C31.707 55.8754 32.2229 56.4951 32.5927 57.2933H32.7485C33.1313 56.521 33.7056 55.9078 34.4714 55.4536C35.2371 54.9928 36.1553 54.7625 37.226 54.7625C38.5628 54.7625 39.6562 55.181 40.5063 56.0181C41.3564 56.8488 41.7814 58.1433 41.7814 59.9019V69.9082H39.4842V59.9019C39.4842 58.7987 39.1825 58.0103 38.579 57.5366C37.9755 57.0629 37.2649 56.826 36.4473 56.826C35.3961 56.826 34.5817 57.144 34.0041 57.7799C33.4266 58.4094 33.1378 59.2076 33.1378 60.1744V69.9082H30.8017V59.6683C30.8017 58.8182 30.5259 58.1336 29.9744 57.6145C29.4228 57.0889 28.7122 56.826 27.8427 56.826C27.2457 56.826 26.6876 56.985 26.1685 57.303C25.6558 57.621 25.2405 58.0622 24.9225 58.6268C24.6111 59.1849 24.4553 59.8305 24.4553 60.5638V69.9082H22.1582ZM50.2441 70.2586C49.2967 70.2586 48.4369 70.0802 47.6647 69.7233C46.8925 69.3599 46.2792 68.8375 45.825 68.1561C45.3708 67.4683 45.1436 66.6377 45.1436 65.6643C45.1436 64.8077 45.3124 64.1134 45.6498 63.5813C45.9872 63.0427 46.4382 62.6209 47.0028 62.3159C47.5673 62.0109 48.1903 61.7838 48.8717 61.6345C49.5595 61.4788 50.2506 61.3555 50.945 61.2646C51.8534 61.1478 52.59 61.0602 53.1545 61.0018C53.7256 60.9369 54.1409 60.8299 54.4004 60.6806C54.6665 60.5314 54.7995 60.2718 54.7995 59.9019V59.824C54.7995 58.8636 54.5367 58.1174 54.0111 57.5853C53.492 57.0532 52.7035 56.7871 51.6458 56.7871C50.5491 56.7871 49.6893 57.0272 49.0663 57.5074C48.4434 57.9876 48.0054 58.5002 47.7523 59.0453L45.5719 58.2666C45.9613 57.3582 46.4804 56.6508 47.1293 56.1447C47.7847 55.632 48.4985 55.2751 49.2707 55.074C50.0494 54.8663 50.8152 54.7625 51.5679 54.7625C52.0481 54.7625 52.5997 54.8209 53.2226 54.9377C53.8521 55.048 54.4588 55.2784 55.0429 55.6288C55.6334 55.9792 56.1233 56.5081 56.5127 57.2154C56.902 57.9227 57.0967 58.8701 57.0967 60.0576V69.9082H54.7995V67.8836H54.6827C54.527 68.208 54.2674 68.5552 53.904 68.9251C53.5406 69.295 53.0572 69.6097 52.4537 69.8693C51.8502 70.1288 51.1137 70.2586 50.2441 70.2586ZM50.5945 68.1951C51.503 68.1951 52.2687 68.0166 52.8917 67.6597C53.5212 67.3028 53.9949 66.8421 54.3128 66.2775C54.6373 65.713 54.7995 65.1192 54.7995 64.4962V62.3937C54.7022 62.5106 54.488 62.6176 54.1571 62.715C53.8326 62.8058 53.4563 62.8869 53.028 62.9583C52.6062 63.0232 52.1941 63.0816 51.7918 63.1335C51.3959 63.1789 51.0747 63.2179 50.8281 63.2503C50.2311 63.3282 49.6731 63.4547 49.1539 63.6299C48.6413 63.7987 48.226 64.055 47.908 64.3989C47.5965 64.7363 47.4408 65.1971 47.4408 65.7811C47.4408 66.5793 47.7361 67.1828 48.3266 67.5916C48.9236 67.9939 49.6796 68.1951 50.5945 68.1951ZM66.798 70.2197C65.5521 70.2197 64.4522 69.905 63.4983 69.2755C62.5444 68.6396 61.7981 67.7441 61.2595 66.589C60.7209 65.4274 60.4516 64.055 60.4516 62.4716C60.4516 60.9012 60.7209 59.5385 61.2595 58.3834C61.7981 57.2284 62.5476 56.3361 63.508 55.7067C64.4684 55.0772 65.5781 54.7625 66.837 54.7625C67.8103 54.7625 68.5793 54.9247 69.1439 55.2492C69.7149 55.5671 70.1497 55.9305 70.4482 56.3394C70.7532 56.7417 70.99 57.0726 71.1587 57.3322H71.3534V49.9735H73.6506V69.9082H71.4313V67.611H71.1587C70.99 67.8836 70.7499 68.2275 70.4384 68.6428C70.127 69.0516 69.6825 69.4183 69.1049 69.7427C68.5274 70.0607 67.7584 70.2197 66.798 70.2197ZM67.1095 68.1561C68.031 68.1561 68.8097 67.916 69.4456 67.4358C70.0815 66.9491 70.565 66.2775 70.8959 65.4209C71.2269 64.5579 71.3924 63.5618 71.3924 62.4327C71.3924 61.3165 71.2301 60.3399 70.9057 59.5028C70.5812 58.6592 70.101 58.0038 69.4651 57.5366C68.8291 57.0629 68.0439 56.826 67.1095 56.826C66.1361 56.826 65.325 57.0759 64.6761 57.5755C64.0336 58.0687 63.5502 58.7403 63.2257 59.5904C62.9078 60.434 62.7488 61.3814 62.7488 62.4327C62.7488 63.4969 62.911 64.4638 63.2355 65.3333C63.5664 66.1964 64.0531 66.8843 64.6955 67.3969C65.3444 67.9031 66.1491 68.1561 67.1095 68.1561ZM84.3083 70.2197C82.8677 70.2197 81.625 69.9017 80.5802 69.2658C79.542 68.6233 78.7406 67.7278 78.176 66.5793C77.6179 65.4242 77.3389 64.0809 77.3389 62.5495C77.3389 61.018 77.6179 59.6683 78.176 58.5002C78.7406 57.3257 79.5257 56.4107 80.5316 55.7553C81.5439 55.0934 82.7249 54.7625 84.0747 54.7625C84.8534 54.7625 85.6223 54.8923 86.3816 55.1518C87.1408 55.4114 87.8319 55.8332 88.4548 56.4172C89.0778 56.9948 89.5742 57.7605 89.9441 58.7144C90.314 59.6683 90.4989 60.8428 90.4989 62.238V63.2114H78.9742V61.2257H88.1628C88.1628 60.3821 87.9941 59.6294 87.6567 58.9675C87.3257 58.3056 86.852 57.7832 86.2355 57.4003C85.6256 57.0175 84.9053 56.826 84.0747 56.826C83.1597 56.826 82.368 57.0532 81.6996 57.5074C81.0377 57.9552 80.5283 58.5392 80.1714 59.2595C79.8145 59.9798 79.6361 60.752 79.6361 61.5761V62.8999C79.6361 64.029 79.8307 64.9862 80.2201 65.7714C80.6159 66.5501 81.1643 67.1438 81.8651 67.5526C82.5659 67.955 83.3803 68.1561 84.3083 68.1561C84.9118 68.1561 85.4568 68.0718 85.9435 67.903C86.4367 67.7278 86.8618 67.4683 87.2187 67.1243C87.5756 66.7739 87.8514 66.3392 88.046 65.82L90.2653 66.443C90.0317 67.1957 89.6391 67.8576 89.0875 68.4287C88.536 68.9932 87.8546 69.4345 87.0434 69.7525C86.2323 70.0639 85.3206 70.2197 84.3083 70.2197ZM108.086 54.9572V56.9039H100.027V54.9572H108.086ZM102.441 69.9082V52.8936C102.441 52.037 102.642 51.3232 103.044 50.7522C103.447 50.1811 103.969 49.7528 104.611 49.4673C105.254 49.1818 105.932 49.039 106.646 49.039C107.21 49.039 107.671 49.0845 108.028 49.1753C108.385 49.2662 108.651 49.3505 108.826 49.4284L108.164 51.4141C108.047 51.3751 107.885 51.3265 107.677 51.2681C107.476 51.2097 107.21 51.1805 106.879 51.1805C106.12 51.1805 105.572 51.3719 105.234 51.7548C104.903 52.1376 104.738 52.6989 104.738 53.4387V69.9082H102.441ZM116.627 70.2197C115.277 70.2197 114.093 69.8985 113.074 69.256C112.062 68.6136 111.27 67.7149 110.699 66.5598C110.134 65.4047 109.852 64.055 109.852 62.5106C109.852 60.9532 110.134 59.5937 110.699 58.4321C111.27 57.2705 112.062 56.3686 113.074 55.7261C114.093 55.0837 115.277 54.7625 116.627 54.7625C117.977 54.7625 119.158 55.0837 120.17 55.7261C121.189 56.3686 121.98 57.2705 122.545 58.4321C123.116 59.5937 123.402 60.9532 123.402 62.5106C123.402 64.055 123.116 65.4047 122.545 66.5598C121.98 67.7149 121.189 68.6136 120.17 69.256C119.158 69.8985 117.977 70.2197 116.627 70.2197ZM116.627 68.1561C117.652 68.1561 118.496 67.8933 119.158 67.3677C119.82 66.8421 120.309 66.151 120.627 65.2944C120.945 64.4378 121.104 63.5099 121.104 62.5106C121.104 61.5112 120.945 60.58 120.627 59.717C120.309 58.8539 119.82 58.1563 119.158 57.6242C118.496 57.0921 117.652 56.826 116.627 56.826C115.602 56.826 114.758 57.0921 114.096 57.6242C113.434 58.1563 112.944 58.8539 112.626 59.717C112.308 60.58 112.149 61.5112 112.149 62.5106C112.149 63.5099 112.308 64.4378 112.626 65.2944C112.944 66.151 113.434 66.8421 114.096 67.3677C114.758 67.8933 115.602 68.1561 116.627 68.1561ZM126.771 69.9082V54.9572H128.99V57.2154H129.146C129.419 56.4756 129.912 55.8754 130.626 55.4146C131.339 54.9539 132.144 54.7235 133.04 54.7235C133.208 54.7235 133.419 54.7268 133.672 54.7333C133.925 54.7398 134.117 54.7495 134.247 54.7625V57.0986C134.169 57.0791 133.99 57.0499 133.711 57.011C133.439 56.9656 133.15 56.9428 132.845 56.9428C132.118 56.9428 131.469 57.0953 130.898 57.4003C130.334 57.6988 129.886 58.1141 129.555 58.6463C129.23 59.1719 129.068 59.7721 129.068 60.447V69.9082H126.771ZM150.907 54.9572V56.9039H143.159V54.9572H150.907ZM145.417 51.3751H147.714V65.6254C147.714 66.2743 147.808 66.761 147.996 67.0854C148.191 67.4034 148.438 67.6175 148.736 67.7278C149.041 67.8317 149.362 67.8836 149.7 67.8836C149.953 67.8836 150.161 67.8706 150.323 67.8446C150.485 67.8122 150.615 67.7862 150.712 67.7668L151.179 69.8303C151.024 69.8887 150.806 69.9471 150.527 70.0055C150.248 70.0704 149.894 70.1029 149.466 70.1029C148.817 70.1029 148.181 69.9634 147.558 69.6843C146.942 69.4053 146.429 68.9803 146.02 68.4092C145.618 67.8382 145.417 67.1179 145.417 66.2483V51.3751ZM156.844 60.9142V69.9082H154.546V49.9735H156.844V57.2933H157.038C157.389 56.521 157.914 55.9078 158.615 55.4536C159.322 54.9928 160.263 54.7625 161.438 54.7625C162.457 54.7625 163.349 54.9669 164.115 55.3757C164.88 55.778 165.474 56.3978 165.896 57.2349C166.324 58.0655 166.538 59.1232 166.538 60.4081V69.9082H164.241V60.5638C164.241 59.3763 163.933 58.4581 163.317 57.8091C162.707 57.1537 161.86 56.826 160.776 56.826C160.023 56.826 159.348 56.985 158.751 57.303C158.161 57.621 157.694 58.0849 157.35 58.6949C157.012 59.3049 156.844 60.0447 156.844 60.9142ZM176.872 70.2197C175.432 70.2197 174.189 69.9017 173.144 69.2658C172.106 68.6233 171.305 67.7278 170.74 66.5793C170.182 65.4242 169.903 64.0809 169.903 62.5495C169.903 61.018 170.182 59.6683 170.74 58.5002C171.305 57.3257 172.09 56.4107 173.096 55.7553C174.108 55.0934 175.289 54.7625 176.639 54.7625C177.418 54.7625 178.187 54.8923 178.946 55.1518C179.705 55.4114 180.396 55.8332 181.019 56.4172C181.642 56.9948 182.138 57.7605 182.508 58.7144C182.878 59.6683 183.063 60.8428 183.063 62.238V63.2114H171.538V61.2257H180.727C180.727 60.3821 180.558 59.6294 180.221 58.9675C179.89 58.3056 179.416 57.7832 178.8 57.4003C178.19 57.0175 177.469 56.826 176.639 56.826C175.724 56.826 174.932 57.0532 174.264 57.5074C173.602 57.9552 173.093 58.5392 172.736 59.2595C172.379 59.9798 172.2 60.752 172.2 61.5761V62.8999C172.2 64.029 172.395 64.9862 172.784 65.7714C173.18 66.5501 173.728 67.1438 174.429 67.5526C175.13 67.955 175.945 68.1561 176.872 68.1561C177.476 68.1561 178.021 68.0718 178.508 67.903C179.001 67.7278 179.426 67.4683 179.783 67.1243C180.14 66.7739 180.416 66.3392 180.61 65.82L182.83 66.443C182.596 67.1957 182.203 67.8576 181.652 68.4287C181.1 68.9932 180.419 69.4345 179.608 69.7525C178.797 70.0639 177.885 70.2197 176.872 70.2197ZM193.993 75.5148V54.9572H196.212V57.3322H196.484C196.653 57.0726 196.887 56.7417 197.185 56.3394C197.49 55.9305 197.925 55.5671 198.49 55.2492C199.061 54.9247 199.833 54.7625 200.806 54.7625C202.065 54.7625 203.175 55.0772 204.135 55.7067C205.096 56.3361 205.845 57.2284 206.384 58.3834C206.922 59.5385 207.192 60.9012 207.192 62.4716C207.192 64.055 206.922 65.4274 206.384 66.589C205.845 67.7441 205.099 68.6396 204.145 69.2755C203.191 69.905 202.091 70.2197 200.845 70.2197C199.885 70.2197 199.116 70.0607 198.538 69.7427C197.961 69.4183 197.516 69.0516 197.205 68.6428C196.893 68.2275 196.653 67.8836 196.484 67.611H196.29V75.5148H193.993ZM196.251 62.4327C196.251 63.5618 196.416 64.5579 196.747 65.4209C197.078 66.2775 197.562 66.9491 198.198 67.4358C198.833 67.916 199.612 68.1561 200.534 68.1561C201.494 68.1561 202.295 67.9031 202.938 67.3969C203.587 66.8843 204.073 66.1964 204.398 65.3333C204.729 64.4638 204.894 63.4969 204.894 62.4327C204.894 61.3814 204.732 60.434 204.408 59.5904C204.09 58.7403 203.606 58.0687 202.957 57.5755C202.315 57.0759 201.507 56.826 200.534 56.826C199.599 56.826 198.814 57.0629 198.178 57.5366C197.542 58.0038 197.062 58.6592 196.737 59.5028C196.413 60.3399 196.251 61.3165 196.251 62.4327ZM210.559 69.9082V54.9572H212.778V57.2154H212.934C213.206 56.4756 213.699 55.8754 214.413 55.4146C215.127 54.9539 215.932 54.7235 216.827 54.7235C216.996 54.7235 217.207 54.7268 217.46 54.7333C217.713 54.7398 217.904 54.7495 218.034 54.7625V57.0986C217.956 57.0791 217.778 57.0499 217.499 57.011C217.226 56.9656 216.937 56.9428 216.632 56.9428C215.906 56.9428 215.257 57.0953 214.686 57.4003C214.121 57.6988 213.673 58.1141 213.342 58.6463C213.018 59.1719 212.856 59.7721 212.856 60.447V69.9082H210.559ZM226.239 70.2197C224.889 70.2197 223.705 69.8985 222.686 69.256C221.674 68.6136 220.882 67.7149 220.311 66.5598C219.747 65.4047 219.464 64.055 219.464 62.5106C219.464 60.9532 219.747 59.5937 220.311 58.4321C220.882 57.2705 221.674 56.3686 222.686 55.7261C223.705 55.0837 224.889 54.7625 226.239 54.7625C227.589 54.7625 228.77 55.0837 229.782 55.7261C230.801 56.3686 231.592 57.2705 232.157 58.4321C232.728 59.5937 233.014 60.9532 233.014 62.5106C233.014 64.055 232.728 65.4047 232.157 66.5598C231.592 67.7149 230.801 68.6136 229.782 69.256C228.77 69.8985 227.589 70.2197 226.239 70.2197ZM226.239 68.1561C227.264 68.1561 228.108 67.8933 228.77 67.3677C229.432 66.8421 229.922 66.151 230.24 65.2944C230.557 64.4378 230.716 63.5099 230.716 62.5106C230.716 61.5112 230.557 60.58 230.24 59.717C229.922 58.8539 229.432 58.1563 228.77 57.6242C228.108 57.0921 227.264 56.826 226.239 56.826C225.214 56.826 224.37 57.0921 223.708 57.6242C223.046 58.1563 222.556 58.8539 222.238 59.717C221.92 60.58 221.761 61.5112 221.761 62.5106C221.761 63.5099 221.92 64.4378 222.238 65.2944C222.556 66.151 223.046 66.8421 223.708 67.3677C224.37 67.8933 225.214 68.1561 226.239 68.1561ZM236.383 54.9572H238.68V70.9984C238.68 71.9198 238.521 72.718 238.203 73.3929C237.892 74.0678 237.418 74.5901 236.782 74.96C236.153 75.3299 235.358 75.5148 234.397 75.5148C234.32 75.5148 234.242 75.5148 234.164 75.5148C234.086 75.5148 234.008 75.5148 233.93 75.5148V73.3734C234.008 73.3734 234.08 73.3734 234.144 73.3734C234.209 73.3734 234.281 73.3734 234.359 73.3734C235.059 73.3734 235.572 73.1658 235.896 72.7505C236.221 72.3416 236.383 71.7576 236.383 70.9984V54.9572ZM237.512 52.4653C237.065 52.4653 236.678 52.3128 236.354 52.0078C236.036 51.7028 235.877 51.3362 235.877 50.9079C235.877 50.4796 236.036 50.113 236.354 49.808C236.678 49.503 237.065 49.3505 237.512 49.3505C237.96 49.3505 238.343 49.503 238.661 49.808C238.985 50.113 239.148 50.4796 239.148 50.9079C239.148 51.3362 238.985 51.7028 238.661 52.0078C238.343 52.3128 237.96 52.4653 237.512 52.4653ZM249.019 70.2197C247.579 70.2197 246.336 69.9017 245.291 69.2658C244.253 68.6233 243.452 67.7278 242.887 66.5793C242.329 65.4242 242.05 64.0809 242.05 62.5495C242.05 61.018 242.329 59.6683 242.887 58.5002C243.452 57.3257 244.237 56.4107 245.243 55.7553C246.255 55.0934 247.436 54.7625 248.786 54.7625C249.564 54.7625 250.333 54.8923 251.093 55.1518C251.852 55.4114 252.543 55.8332 253.166 56.4172C253.789 56.9948 254.285 57.7605 254.655 58.7144C255.025 59.6683 255.21 60.8428 255.21 62.238V63.2114H243.685V61.2257H252.874C252.874 60.3821 252.705 59.6294 252.368 58.9675C252.037 58.3056 251.563 57.7832 250.947 57.4003C250.337 57.0175 249.616 56.826 248.786 56.826C247.871 56.826 247.079 57.0532 246.411 57.5074C245.749 57.9552 245.239 58.5392 244.882 59.2595C244.525 59.9798 244.347 60.752 244.347 61.5761V62.8999C244.347 64.029 244.542 64.9862 244.931 65.7714C245.327 66.5501 245.875 67.1438 246.576 67.5526C247.277 67.955 248.091 68.1561 249.019 68.1561C249.623 68.1561 250.168 68.0718 250.654 67.903C251.148 67.7278 251.573 67.4683 251.93 67.1243C252.287 66.7739 252.562 66.3392 252.757 65.82L254.976 66.443C254.743 67.1957 254.35 67.8576 253.798 68.4287C253.247 68.9932 252.566 69.4345 251.754 69.7525C250.943 70.0639 250.032 70.2197 249.019 70.2197ZM264.641 70.2197C263.239 70.2197 262.032 69.8887 261.02 69.2268C260.008 68.5649 259.229 67.6532 258.684 66.4917C258.139 65.3301 257.866 64.0031 257.866 62.5106C257.866 60.9921 258.145 59.6521 258.704 58.4905C259.268 57.3225 260.053 56.4107 261.059 55.7553C262.071 55.0934 263.252 54.7625 264.602 54.7625C265.653 54.7625 266.601 54.9572 267.444 55.3465C268.288 55.7359 268.979 56.2809 269.518 56.9818C270.056 57.6826 270.391 58.5002 270.52 59.4347H268.223C268.048 58.7533 267.659 58.1498 267.055 57.6242C266.458 57.0921 265.653 56.826 264.641 56.826C263.746 56.826 262.96 57.0596 262.286 57.5269C261.617 57.9876 261.095 58.6398 260.718 59.4834C260.349 60.3205 260.164 61.3036 260.164 62.4327C260.164 63.5878 260.345 64.5936 260.709 65.4501C261.079 66.3067 261.598 66.9719 262.266 67.4456C262.941 67.9193 263.733 68.1561 264.641 68.1561C265.238 68.1561 265.78 68.0523 266.267 67.8446C266.753 67.637 267.165 67.3385 267.503 66.9491C267.84 66.5598 268.08 66.0926 268.223 65.5475H270.52C270.391 66.43 270.069 67.2249 269.557 67.9323C269.051 68.6331 268.379 69.1911 267.542 69.6065C266.711 70.0153 265.744 70.2197 264.641 70.2197ZM280.244 54.9572V56.9039H272.495V54.9572H280.244ZM274.754 51.3751H277.051V65.6254C277.051 66.2743 277.145 66.761 277.333 67.0854C277.528 67.4034 277.774 67.6175 278.073 67.7278C278.378 67.8317 278.699 67.8836 279.037 67.8836C279.29 67.8836 279.497 67.8706 279.66 67.8446C279.822 67.8122 279.952 67.7862 280.049 67.7668L280.516 69.8303C280.36 69.8887 280.143 69.9471 279.864 70.0055C279.585 70.0704 279.231 70.1029 278.803 70.1029C278.154 70.1029 277.518 69.9634 276.895 69.6843C276.279 69.4053 275.766 68.9803 275.357 68.4092C274.955 67.8382 274.754 67.1179 274.754 66.2483V51.3751ZM286.56 64.3016V64.1848C286.573 62.9453 286.703 61.959 286.949 61.2257C287.196 60.4924 287.546 59.8987 288.001 59.4444C288.455 58.9902 289 58.5716 289.636 58.1888C290.019 57.9552 290.363 57.6794 290.668 57.3614C290.973 57.0369 291.213 56.6638 291.388 56.242C291.57 55.8202 291.66 55.353 291.66 54.8404C291.66 54.2044 291.511 53.6528 291.213 53.1856C290.914 52.7184 290.515 52.3582 290.015 52.1052C289.516 51.8521 288.961 51.7256 288.351 51.7256C287.819 51.7256 287.306 51.8359 286.813 52.0565C286.32 52.2771 285.908 52.6243 285.577 53.098C285.246 53.5717 285.055 54.1914 285.003 54.9572H282.55C282.602 53.854 282.887 52.9098 283.406 52.1246C283.932 51.3394 284.623 50.7392 285.48 50.3239C286.343 49.9086 287.3 49.7009 288.351 49.7009C289.493 49.7009 290.486 49.9281 291.33 50.3823C292.18 50.8365 292.835 51.4595 293.296 52.2512C293.763 53.0429 293.997 53.9448 293.997 54.9572C293.997 55.671 293.886 56.3166 293.666 56.8942C293.451 57.4717 293.14 57.9876 292.731 58.4418C292.329 58.8961 291.842 59.2984 291.271 59.6488C290.7 60.0057 290.243 60.3821 289.899 60.7779C289.555 61.1673 289.305 61.6313 289.149 62.1699C288.993 62.7085 288.909 63.3801 288.896 64.1848V64.3016H286.56ZM287.806 70.0639C287.326 70.0639 286.914 69.892 286.57 69.5481C286.226 69.2041 286.054 68.7921 286.054 68.3119C286.054 67.8317 286.226 67.4196 286.57 67.0757C286.914 66.7318 287.326 66.5598 287.806 66.5598C288.286 66.5598 288.698 66.7318 289.042 67.0757C289.386 67.4196 289.558 67.8317 289.558 68.3119C289.558 68.6298 289.477 68.9218 289.315 69.1879C289.159 69.454 288.948 69.6681 288.682 69.8303C288.422 69.9861 288.13 70.0639 287.806 70.0639Z" fill="white"/>
<path d="M330.585 20.0556C330.585 9.20175 321.787 0.402954 310.933 0.402954V28.8475H330.585V20.0556Z" fill="#278EFF" stroke="#278EFF" stroke-width="0.805851"/>
<rect width="19.6526" height="32.1217" transform="matrix(-1 0 0 1 330.585 28.8477)" fill="#278EFF" stroke="#278EFF" stroke-width="0.805851"/>
<path d="M310.933 60.9692V89.4136C315.692 89.4136 320.056 87.7211 323.457 84.9058C326.849 87.1658 332.288 89.3156 338.86 88.1206C337.05 87.3447 330.069 82.6904 330.327 73.3813C330.296 73.4236 330.262 73.463 330.229 73.5034C330.462 72.2919 330.586 71.0409 330.586 69.7612V60.9692H310.933Z" fill="#278EFF"/>
<path d="M310.933 60.9692H310.53V60.5663H310.933V60.9692ZM310.933 89.4136V89.8165H310.53V89.4136H310.933ZM323.457 84.9058L323.2 84.5954L323.431 84.4042L323.68 84.5704L323.457 84.9058ZM338.86 88.1206L339.019 87.7503L340.249 88.2776L338.932 88.517L338.86 88.1206ZM330.327 73.3813L330.001 73.1444L330.766 72.0928L330.73 73.3925L330.327 73.3813ZM330.229 73.5034L330.539 73.7597L329.833 73.4271L330.229 73.5034ZM330.586 69.7612H330.989H330.586ZM330.586 60.9692V60.5663H330.989V60.9692H330.586ZM310.933 60.9692H311.336V89.4136H310.933H310.53V60.9692H310.933ZM310.933 89.4136V89.0106C315.595 89.0106 319.869 87.3532 323.2 84.5954L323.457 84.9058L323.714 85.2161C320.244 88.0891 315.79 89.8165 310.933 89.8165V89.4136ZM323.457 84.9058L323.68 84.5704C327.01 86.789 332.344 88.8958 338.788 87.7242L338.86 88.1206L338.932 88.517C332.232 89.7353 326.688 87.5427 323.234 85.2411L323.457 84.9058ZM338.86 88.1206L338.702 88.4909C337.735 88.0766 335.484 86.6779 333.503 84.2026C331.515 81.7174 329.792 78.1359 329.924 73.3702L330.327 73.3813L330.73 73.3925C330.604 77.9358 332.242 81.336 334.133 83.6992C336.031 86.0723 338.176 87.3888 339.019 87.7503L338.86 88.1206ZM330.327 73.3813L330.653 73.6183C330.613 73.6737 330.562 73.7323 330.539 73.7597L330.229 73.5034L329.918 73.2472C329.962 73.1938 329.98 73.1735 330.001 73.1444L330.327 73.3813ZM330.229 73.5034L329.833 73.4271C330.062 72.2403 330.183 71.0149 330.183 69.7612H330.586H330.989C330.989 71.067 330.862 72.3435 330.624 73.5797L330.229 73.5034ZM330.586 69.7612H330.183V60.9692H330.586H330.989V69.7612H330.586ZM330.586 60.9692V61.3722H310.933V60.9692V60.5663H330.586V60.9692Z" fill="#278EFF"/>
</svg>
