<svg width="341" height="150" viewBox="0 0 341 150" fill="none" xmlns="http://www.w3.org/2000/svg">
<path d="M9.66406 20.0555C9.66406 9.20162 18.4628 0.402832 29.3167 0.402832V28.8474H9.66406V20.0555Z" fill="#26252A" stroke="#26252A" stroke-width="0.805851"/>
<rect x="9.66406" y="28.8474" width="19.6526" height="92.1217" fill="#26252A" stroke="#26252A" stroke-width="0.805851"/>
<path d="M29.3169 120.969V149.414C24.5572 149.414 20.1931 147.721 16.7925 144.906C13.4001 147.166 7.96139 149.316 1.38916 148.121C3.19942 147.345 10.1809 142.69 9.92236 133.381C9.95309 133.424 9.98772 133.463 10.021 133.503C9.78742 132.292 9.66357 131.041 9.66357 129.761V120.969H29.3169Z" fill="#26252A"/>
<path d="M29.3169 120.969H29.7198V120.566H29.3169V120.969ZM29.3169 149.414V149.816H29.7198V149.414H29.3169ZM16.7925 144.906L17.0494 144.595L16.8185 144.404L16.5691 144.57L16.7925 144.906ZM1.38916 148.121L1.23043 147.75L0.000112771 148.278L1.31708 148.517L1.38916 148.121ZM9.92236 133.381L10.2482 133.144L9.48349 132.093L9.51959 133.393L9.92236 133.381ZM10.021 133.503L9.71006 133.76L10.4166 133.427L10.021 133.503ZM9.66357 129.761L9.26065 129.761L9.26065 129.761L9.66357 129.761ZM9.66357 120.969V120.566H9.26065V120.969H9.66357ZM29.3169 120.969H28.914V149.414H29.3169H29.7198V120.969H29.3169ZM29.3169 149.414V149.011C24.6545 149.011 20.3805 147.353 17.0494 144.595L16.7925 144.906L16.5355 145.216C20.0057 148.089 24.46 149.816 29.3169 149.816V149.414ZM16.7925 144.906L16.5691 144.57C13.2391 146.789 7.90505 148.896 1.46124 147.724L1.38916 148.121L1.31708 148.517C8.01773 149.735 13.5612 147.543 17.0159 145.241L16.7925 144.906ZM1.38916 148.121L1.54789 148.491C2.51474 148.077 4.76599 146.678 6.74621 144.203C8.73435 141.717 10.4575 138.136 10.3251 133.37L9.92236 133.381L9.51959 133.393C9.6458 137.936 8.00749 141.336 6.11695 143.699C4.21849 146.072 2.07385 147.389 1.23043 147.75L1.38916 148.121ZM9.92236 133.381L9.5965 133.618C9.63679 133.674 9.68751 133.732 9.71006 133.76L10.021 133.503L10.3319 133.247C10.2879 133.194 10.2694 133.173 10.2482 133.144L9.92236 133.381ZM10.021 133.503L10.4166 133.427C10.1878 132.24 10.0665 131.015 10.0665 129.761L9.66357 129.761L9.26065 129.761C9.26065 131.067 9.38702 132.343 9.62536 133.58L10.021 133.503ZM9.66357 129.761H10.0665V120.969H9.66357H9.26065V129.761H9.66357ZM9.66357 120.969V121.372H29.3169V120.969V120.566H9.66357V120.969Z" fill="#26252A"/>
<rect x="29.3164" y="0.402832" width="290.877" height="149.011" fill="#26252A"/>
<rect x="29.3164" y="0.402832" width="290.877" height="149.011" stroke="#26252A" stroke-width="0.805851"/>
<path d="M31.7304 39.9082V19.9735H43.6834V22.1149H34.1443V28.8507H42.7879V30.9921H34.1443V39.9082H31.7304ZM52.3457 40.2197C50.9959 40.2197 49.8117 39.8985 48.7929 39.256C47.7806 38.6136 46.9889 37.7149 46.4178 36.5598C45.8533 35.4047 45.571 34.055 45.571 32.5106C45.571 30.9532 45.8533 29.5937 46.4178 28.4321C46.9889 27.2705 47.7806 26.3686 48.7929 25.7261C49.8117 25.0837 50.9959 24.7625 52.3457 24.7625C53.6954 24.7625 54.8765 25.0837 55.8888 25.7261C56.9076 26.3686 57.6993 27.2705 58.2638 28.4321C58.8349 29.5937 59.1204 30.9532 59.1204 32.5106C59.1204 34.055 58.8349 35.4047 58.2638 36.5598C57.6993 37.7149 56.9076 38.6136 55.8888 39.256C54.8765 39.8985 53.6954 40.2197 52.3457 40.2197ZM52.3457 38.1561C53.371 38.1561 54.2146 37.8933 54.8765 37.3677C55.5384 36.8421 56.0283 36.151 56.3463 35.2944C56.6642 34.4378 56.8232 33.5099 56.8232 32.5106C56.8232 31.5112 56.6642 30.58 56.3463 29.717C56.0283 28.8539 55.5384 28.1563 54.8765 27.6242C54.2146 27.0921 53.371 26.826 52.3457 26.826C51.3204 26.826 50.4768 27.0921 49.8149 27.6242C49.153 28.1563 48.6631 28.8539 48.3451 29.717C48.0271 30.58 47.8682 31.5112 47.8682 32.5106C47.8682 33.5099 48.0271 34.4378 48.3451 35.2944C48.6631 36.151 49.153 36.8421 49.8149 37.3677C50.4768 37.8933 51.3204 38.1561 52.3457 38.1561ZM71.9122 33.7954V24.9572H74.2093V39.9082H71.9122V37.3774H71.7564C71.406 38.1367 70.8609 38.7823 70.1212 39.3144C69.3814 39.8401 68.447 40.1029 67.3179 40.1029C66.3834 40.1029 65.5528 39.8985 64.826 39.4897C64.0992 39.0743 63.5282 38.4514 63.1129 37.6208C62.6976 36.7837 62.4899 35.7292 62.4899 34.4573V24.9572H64.7871V34.3016C64.7871 35.3917 65.0921 36.2613 65.702 36.9102C66.3185 37.5591 67.1037 37.8836 68.0576 37.8836C68.6287 37.8836 69.2094 37.7376 69.8 37.4456C70.397 37.1536 70.8966 36.7058 71.299 36.1023C71.7078 35.4988 71.9122 34.7298 71.9122 33.7954ZM80.5769 30.9142V39.9082H78.2797V24.9572H80.499V27.2933H80.6937C81.0441 26.534 81.5762 25.924 82.29 25.4633C83.0038 24.9961 83.9253 24.7625 85.0544 24.7625C86.0667 24.7625 86.9525 24.9701 87.7117 25.3854C88.471 25.7943 89.0615 26.4172 89.4833 27.2543C89.9051 28.0849 90.116 29.1362 90.116 30.4081V39.9082H87.8188V30.5638C87.8188 29.3893 87.5138 28.4743 86.9038 27.8189C86.2938 27.157 85.4567 26.826 84.3925 26.826C83.6592 26.826 83.0038 26.985 82.4263 27.303C81.8552 27.621 81.4042 28.0849 81.0733 28.6949C80.7424 29.3049 80.5769 30.0447 80.5769 30.9142ZM99.8222 40.2197C98.5762 40.2197 97.4763 39.905 96.5224 39.2755C95.5685 38.6396 94.8223 37.7441 94.2837 36.589C93.7451 35.4274 93.4758 34.055 93.4758 32.4716C93.4758 30.9012 93.7451 29.5385 94.2837 28.3834C94.8223 27.2284 95.5718 26.3361 96.5322 25.7067C97.4926 25.0772 98.6022 24.7625 99.8611 24.7625C100.834 24.7625 101.603 24.9247 102.168 25.2492C102.739 25.5671 103.174 25.9305 103.472 26.3394C103.777 26.7417 104.014 27.0726 104.183 27.3322H104.378V19.9735H106.675V39.9082H104.455V37.611H104.183C104.014 37.8836 103.774 38.2275 103.463 38.6428C103.151 39.0516 102.707 39.4183 102.129 39.7427C101.552 40.0607 100.783 40.2197 99.8222 40.2197ZM100.134 38.1561C101.055 38.1561 101.834 37.916 102.47 37.4358C103.106 36.9491 103.589 36.2775 103.92 35.4209C104.251 34.5579 104.416 33.5618 104.416 32.4327C104.416 31.3165 104.254 30.3399 103.93 29.5028C103.605 28.6592 103.125 28.0038 102.489 27.5366C101.853 27.0629 101.068 26.826 100.134 26.826C99.1603 26.826 98.3491 27.0759 97.7002 27.5755C97.0578 28.0687 96.5743 28.7403 96.2499 29.5904C95.9319 30.434 95.7729 31.3814 95.7729 32.4327C95.7729 33.4969 95.9352 34.4638 96.2596 35.3333C96.5906 36.1964 97.0772 36.8843 97.7197 37.3969C98.3686 37.9031 99.1732 38.1561 100.134 38.1561ZM112.738 40.0639C112.258 40.0639 111.846 39.892 111.502 39.5481C111.158 39.2041 110.986 38.7921 110.986 38.3119C110.986 37.8317 111.158 37.4196 111.502 37.0757C111.846 36.7318 112.258 36.5598 112.738 36.5598C113.218 36.5598 113.63 36.7318 113.974 37.0757C114.318 37.4196 114.49 37.8317 114.49 38.3119C114.49 38.6298 114.409 38.9218 114.247 39.1879C114.091 39.454 113.88 39.6681 113.614 39.8303C113.355 39.9861 113.063 40.0639 112.738 40.0639ZM112.738 28.9675C112.258 28.9675 111.846 28.7955 111.502 28.4516C111.158 28.1077 110.986 27.6956 110.986 27.2154C110.986 26.7352 111.158 26.3231 111.502 25.9792C111.846 25.6353 112.258 25.4633 112.738 25.4633C113.218 25.4633 113.63 25.6353 113.974 25.9792C114.318 26.3231 114.49 26.7352 114.49 27.2154C114.49 27.5334 114.409 27.8254 114.247 28.0914C114.091 28.3575 113.88 28.5716 113.614 28.7339C113.355 28.8896 113.063 28.9675 112.738 28.9675ZM133.017 19.9735V39.9082H130.603V22.5043H130.486L125.619 25.7359V23.283L130.603 19.9735H133.017ZM138.613 39.9082V38.1561L145.193 30.9532C145.965 30.1096 146.601 29.3763 147.101 28.7533C147.6 28.1239 147.97 27.5334 148.21 26.9818C148.457 26.4237 148.58 25.8397 148.58 25.2297C148.58 24.5289 148.412 23.9221 148.074 23.4095C147.743 22.8968 147.289 22.501 146.711 22.222C146.134 21.9429 145.485 21.8034 144.765 21.8034C143.999 21.8034 143.331 21.9624 142.759 22.2804C142.195 22.5919 141.757 23.0299 141.445 23.5944C141.14 24.159 140.988 24.8209 140.988 25.5801H138.691C138.691 24.4121 138.96 23.3868 139.499 22.5043C140.037 21.6217 140.771 20.9339 141.699 20.4407C142.633 19.9475 143.681 19.7009 144.843 19.7009C146.011 19.7009 147.046 19.9475 147.948 20.4407C148.85 20.9339 149.557 21.599 150.07 22.4361C150.582 23.2732 150.839 24.2044 150.839 25.2297C150.839 25.963 150.705 26.68 150.439 27.3809C150.18 28.0752 149.726 28.8507 149.077 29.7072C148.434 30.5573 147.542 31.5956 146.4 32.822L141.922 37.611V37.7668H151.189V39.9082H138.613ZM42.0092 58.3056L39.9457 58.8896C39.8159 58.5457 39.6245 58.2115 39.3714 57.887C39.1248 57.5561 38.7873 57.2835 38.3591 57.0694C37.9308 56.8552 37.3824 56.7482 36.7141 56.7482C35.7991 56.7482 35.0366 56.9591 34.4266 57.3809C33.8231 57.7962 33.5214 58.325 33.5214 58.9675C33.5214 59.5385 33.729 59.9895 34.1443 60.3205C34.5597 60.6514 35.2086 60.9272 36.0911 61.1478L38.3104 61.6929C39.6472 62.0174 40.6433 62.5138 41.2987 63.1822C41.9541 63.8441 42.2818 64.6974 42.2818 65.7422C42.2818 66.5987 42.0352 67.3644 41.542 68.0393C41.0553 68.7142 40.3739 69.2463 39.4979 69.6357C38.6219 70.025 37.6031 70.2197 36.4415 70.2197C34.9166 70.2197 33.6544 69.8887 32.6551 69.2268C31.6558 68.5649 31.0231 67.5981 30.757 66.3262L32.9374 65.7811C33.145 66.5857 33.5376 67.1892 34.1151 67.5916C34.6992 67.9939 35.4616 68.1951 36.4026 68.1951C37.4733 68.1951 38.3234 67.9679 38.9528 67.5137C39.5888 67.053 39.9067 66.5014 39.9067 65.859C39.9067 65.3398 39.725 64.9051 39.3616 64.5546C38.9982 64.1977 38.4402 63.9317 37.6874 63.7565L35.1956 63.1724C33.8264 62.848 32.8206 62.3451 32.1781 61.6637C31.5422 60.9759 31.2242 60.116 31.2242 59.0843C31.2242 58.2407 31.4611 57.4944 31.9348 56.8455C32.415 56.1966 33.0671 55.6872 33.8913 55.3173C34.7219 54.9474 35.6628 54.7625 36.7141 54.7625C38.1936 54.7625 39.3552 55.0869 40.1987 55.7359C41.0488 56.3848 41.6523 57.2413 42.0092 58.3056ZM51.6765 70.2197C50.2748 70.2197 49.0678 69.8887 48.0555 69.2268C47.0432 68.5649 46.2645 67.6532 45.7194 66.4917C45.1743 65.3301 44.9018 64.0031 44.9018 62.5106C44.9018 60.9921 45.1808 59.6521 45.7389 58.4905C46.3035 57.3225 47.0886 56.4107 48.0945 55.7553C49.1068 55.0934 50.2878 54.7625 51.6376 54.7625C52.6888 54.7625 53.6362 54.9572 54.4798 55.3465C55.3234 55.7359 56.0145 56.2809 56.5531 56.9818C57.0917 57.6826 57.4259 58.5002 57.5557 59.4347H55.2585C55.0833 58.7533 54.694 58.1498 54.0905 57.6242C53.4935 57.0921 52.6888 56.826 51.6765 56.826C50.781 56.826 49.9958 57.0596 49.3209 57.5269C48.6525 57.9876 48.1302 58.6398 47.7538 59.4834C47.3839 60.3205 47.199 61.3036 47.199 62.4327C47.199 63.5878 47.3807 64.5936 47.7441 65.4501C48.1139 66.3067 48.6331 66.9719 49.3015 67.4456C49.9763 67.9193 50.768 68.1561 51.6765 68.1561C52.2735 68.1561 52.8153 68.0523 53.302 67.8446C53.7887 67.637 54.2008 67.3385 54.5382 66.9491C54.8757 66.5598 55.1158 66.0926 55.2585 65.5475H57.5557C57.4259 66.43 57.1047 67.2249 56.592 67.9323C56.0859 68.6331 55.4143 69.1911 54.5771 69.6065C53.7465 70.0153 52.7796 70.2197 51.6765 70.2197ZM60.7768 69.9082V54.9572H62.9961V57.2154H63.1518C63.4244 56.4756 63.9175 55.8754 64.6313 55.4146C65.3451 54.9539 66.1498 54.7235 67.0453 54.7235C67.214 54.7235 67.4249 54.7268 67.678 54.7333C67.9311 54.7398 68.1225 54.7495 68.2523 54.7625V57.0986C68.1744 57.0791 67.996 57.0499 67.7169 57.011C67.4444 56.9656 67.1556 56.9428 66.8506 56.9428C66.1238 56.9428 65.4749 57.0953 64.9039 57.4003C64.3393 57.6988 63.8916 58.1141 63.5606 58.6463C63.2362 59.1719 63.0739 59.7721 63.0739 60.447V69.9082H60.7768ZM76.6517 70.2197C75.2111 70.2197 73.9685 69.9017 72.9237 69.2658C71.8854 68.6233 71.084 67.7278 70.5195 66.5793C69.9614 65.4242 69.6824 64.0809 69.6824 62.5495C69.6824 61.018 69.9614 59.6683 70.5195 58.5002C71.084 57.3257 71.8692 56.4107 72.875 55.7553C73.8874 55.0934 75.0684 54.7625 76.4181 54.7625C77.1968 54.7625 77.9658 54.8923 78.725 55.1518C79.4843 55.4114 80.1754 55.8332 80.7983 56.4172C81.4213 56.9948 81.9177 57.7605 82.2876 58.7144C82.6575 59.6683 82.8424 60.8428 82.8424 62.238V63.2114H71.3176V61.2257H80.5063C80.5063 60.3821 80.3376 59.6294 80.0002 58.9675C79.6692 58.3056 79.1955 57.7832 78.579 57.4003C77.969 57.0175 77.2487 56.826 76.4181 56.826C75.5032 56.826 74.7115 57.0532 74.0431 57.5074C73.3812 57.9552 72.8718 58.5392 72.5149 59.2595C72.158 59.9798 71.9795 60.752 71.9795 61.5761V62.8999C71.9795 64.029 72.1742 64.9862 72.5636 65.7714C72.9594 66.5501 73.5077 67.1438 74.2086 67.5526C74.9094 67.955 75.7238 68.1561 76.6517 68.1561C77.2552 68.1561 77.8003 68.0718 78.287 67.903C78.7802 67.7278 79.2052 67.4683 79.5621 67.1243C79.919 66.7739 80.1948 66.3392 80.3895 65.82L82.6088 66.443C82.3752 67.1957 81.9826 67.8576 81.431 68.4287C80.8794 68.9932 80.1981 69.4345 79.3869 69.7525C78.5758 70.0639 77.6641 70.2197 76.6517 70.2197ZM92.4683 70.2197C91.0277 70.2197 89.785 69.9017 88.7403 69.2658C87.702 68.6233 86.9006 67.7278 86.336 66.5793C85.778 65.4242 85.4989 64.0809 85.4989 62.5495C85.4989 61.018 85.778 59.6683 86.336 58.5002C86.9006 57.3257 87.6858 56.4107 88.6916 55.7553C89.7039 55.0934 90.885 54.7625 92.2347 54.7625C93.0134 54.7625 93.7824 54.8923 94.5416 55.1518C95.3008 55.4114 95.9919 55.8332 96.6149 56.4172C97.2379 56.9948 97.7343 57.7605 98.1042 58.7144C98.474 59.6683 98.659 60.8428 98.659 62.238V63.2114H87.1342V61.2257H96.3229C96.3229 60.3821 96.1542 59.6294 95.8167 58.9675C95.4858 58.3056 95.0121 57.7832 94.3956 57.4003C93.7856 57.0175 93.0653 56.826 92.2347 56.826C91.3197 56.826 90.5281 57.0532 89.8597 57.5074C89.1978 57.9552 88.6884 58.5392 88.3315 59.2595C87.9746 59.9798 87.7961 60.752 87.7961 61.5761V62.8999C87.7961 64.029 87.9908 64.9862 88.3801 65.7714C88.776 66.5501 89.3243 67.1438 90.0251 67.5526C90.726 67.955 91.5404 68.1561 92.4683 68.1561C93.0718 68.1561 93.6169 68.0718 94.1036 67.903C94.5968 67.7278 95.0218 67.4683 95.3787 67.1243C95.7356 66.7739 96.0114 66.3392 96.2061 65.82L98.4254 66.443C98.1918 67.1957 97.7992 67.8576 97.2476 68.4287C96.696 68.9932 96.0146 69.4345 95.2035 69.7525C94.3924 70.0639 93.4806 70.2197 92.4683 70.2197ZM104.314 60.9142V69.9082H102.016V54.9572H104.236V57.2933H104.43C104.781 56.534 105.313 55.924 106.027 55.4633C106.74 54.9961 107.662 54.7625 108.791 54.7625C109.803 54.7625 110.689 54.9701 111.448 55.3854C112.208 55.7943 112.798 56.4172 113.22 57.2543C113.642 58.0849 113.853 59.1362 113.853 60.4081V69.9082H111.555V60.5638C111.555 59.3893 111.25 58.4743 110.64 57.8189C110.03 57.157 109.193 56.826 108.129 56.826C107.396 56.826 106.74 56.985 106.163 57.303C105.592 57.621 105.141 58.0849 104.81 58.6949C104.479 59.3049 104.314 60.0447 104.314 60.9142ZM128.504 58.3056L126.44 58.8896C126.31 58.5457 126.119 58.2115 125.866 57.887C125.619 57.5561 125.282 57.2835 124.853 57.0694C124.425 56.8552 123.877 56.7482 123.208 56.7482C122.293 56.7482 121.531 56.9591 120.921 57.3809C120.317 57.7962 120.016 58.325 120.016 58.9675C120.016 59.5385 120.223 59.9895 120.639 60.3205C121.054 60.6514 121.703 60.9272 122.585 61.1478L124.805 61.6929C126.141 62.0174 127.138 62.5138 127.793 63.1822C128.448 63.8441 128.776 64.6974 128.776 65.7422C128.776 66.5987 128.53 67.3644 128.036 68.0393C127.55 68.7142 126.868 69.2463 125.992 69.6357C125.116 70.025 124.097 70.2197 122.936 70.2197C121.411 70.2197 120.149 69.8887 119.149 69.2268C118.15 68.5649 117.517 67.5981 117.251 66.3262L119.432 65.7811C119.639 66.5857 120.032 67.1892 120.609 67.5916C121.193 67.9939 121.956 68.1951 122.897 68.1951C123.968 68.1951 124.818 67.9679 125.447 67.5137C126.083 67.053 126.401 66.5014 126.401 65.859C126.401 65.3398 126.219 64.9051 125.856 64.5546C125.493 64.1977 124.935 63.9317 124.182 63.7565L121.69 63.1724C120.321 62.848 119.315 62.3451 118.672 61.6637C118.037 60.9759 117.719 60.116 117.719 59.0843C117.719 58.2407 117.955 57.4944 118.429 56.8455C118.909 56.1966 119.561 55.6872 120.386 55.3173C121.216 54.9474 122.157 54.7625 123.208 54.7625C124.688 54.7625 125.849 55.0869 126.693 55.7359C127.543 56.3848 128.147 57.2413 128.504 58.3056ZM134.394 60.9142V69.9082H132.097V49.9735H134.394V57.2933H134.589C134.939 56.521 135.465 55.9078 136.166 55.4536C136.873 54.9928 137.814 54.7625 138.988 54.7625C140.007 54.7625 140.9 54.9669 141.665 55.3757C142.431 55.778 143.025 56.3978 143.447 57.2349C143.875 58.0655 144.089 59.1232 144.089 60.4081V69.9082H141.792V60.5638C141.792 59.3763 141.484 58.4581 140.867 57.8091C140.257 57.1537 139.41 56.826 138.327 56.826C137.574 56.826 136.899 56.985 136.302 57.303C135.711 57.621 135.244 58.0849 134.9 58.6949C134.563 59.3049 134.394 60.0447 134.394 60.9142ZM154.228 70.2197C152.879 70.2197 151.694 69.8985 150.675 69.256C149.663 68.6136 148.871 67.7149 148.3 66.5598C147.736 65.4047 147.454 64.055 147.454 62.5106C147.454 60.9532 147.736 59.5937 148.3 58.4321C148.871 57.2705 149.663 56.3686 150.675 55.7261C151.694 55.0837 152.879 54.7625 154.228 54.7625C155.578 54.7625 156.759 55.0837 157.771 55.7261C158.79 56.3686 159.582 57.2705 160.146 58.4321C160.717 59.5937 161.003 60.9532 161.003 62.5106C161.003 64.055 160.717 65.4047 160.146 66.5598C159.582 67.7149 158.79 68.6136 157.771 69.256C156.759 69.8985 155.578 70.2197 154.228 70.2197ZM154.228 68.1561C155.254 68.1561 156.097 67.8933 156.759 67.3677C157.421 66.8421 157.911 66.151 158.229 65.2944C158.547 64.4378 158.706 63.5099 158.706 62.5106C158.706 61.5112 158.547 60.58 158.229 59.717C157.911 58.8539 157.421 58.1563 156.759 57.6242C156.097 57.0921 155.254 56.826 154.228 56.826C153.203 56.826 152.359 57.0921 151.698 57.6242C151.036 58.1563 150.546 58.8539 150.228 59.717C149.91 60.58 149.751 61.5112 149.751 62.5106C149.751 63.5099 149.91 64.4378 150.228 65.2944C150.546 66.151 151.036 66.8421 151.698 67.3677C152.359 67.8933 153.203 68.1561 154.228 68.1561ZM170.875 54.9572V56.9039H163.127V54.9572H170.875ZM165.385 51.3751H167.682V65.6254C167.682 66.2743 167.776 66.761 167.964 67.0854C168.159 67.4034 168.406 67.6175 168.704 67.7278C169.009 67.8317 169.33 67.8836 169.668 67.8836C169.921 67.8836 170.128 67.8706 170.291 67.8446C170.453 67.8122 170.583 67.7862 170.68 67.7668L171.147 69.8303C170.991 69.8887 170.774 69.9471 170.495 70.0055C170.216 70.0704 169.862 70.1029 169.434 70.1029C168.785 70.1029 168.149 69.9634 167.526 69.6843C166.91 69.4053 166.397 68.9803 165.988 68.4092C165.586 67.8382 165.385 67.1179 165.385 66.2483V51.3751ZM184.516 58.3056L182.452 58.8896C182.322 58.5457 182.131 58.2115 181.878 57.887C181.631 57.5561 181.294 57.2835 180.866 57.0694C180.437 56.8552 179.889 56.7482 179.221 56.7482C178.306 56.7482 177.543 56.9591 176.933 57.3809C176.33 57.7962 176.028 58.325 176.028 58.9675C176.028 59.5385 176.236 59.9895 176.651 60.3205C177.066 60.6514 177.715 60.9272 178.598 61.1478L180.817 61.6929C182.154 62.0174 183.15 62.5138 183.805 63.1822C184.461 63.8441 184.788 64.6974 184.788 65.7422C184.788 66.5987 184.542 67.3644 184.049 68.0393C183.562 68.7142 182.88 69.2463 182.004 69.6357C181.128 70.025 180.11 70.2197 178.948 70.2197C177.423 70.2197 176.161 69.8887 175.162 69.2268C174.162 68.5649 173.53 67.5981 173.264 66.3262L175.444 65.7811C175.652 66.5857 176.044 67.1892 176.622 67.5916C177.206 67.9939 177.968 68.1951 178.909 68.1951C179.98 68.1951 180.83 67.9679 181.459 67.5137C182.095 67.053 182.413 66.5014 182.413 65.859C182.413 65.3398 182.232 64.9051 181.868 64.5546C181.505 64.1977 180.947 63.9317 180.194 63.7565L177.702 63.1724C176.333 62.848 175.327 62.3451 174.685 61.6637C174.049 60.9759 173.731 60.116 173.731 59.0843C173.731 58.2407 173.968 57.4944 174.441 56.8455C174.921 56.1966 175.574 55.6872 176.398 55.3173C177.228 54.9474 178.169 54.7625 179.221 54.7625C180.7 54.7625 181.862 55.0869 182.705 55.7359C183.555 56.3848 184.159 57.2413 184.516 58.3056ZM191.535 67.1828L191.38 68.234C191.269 68.9738 191.101 69.7654 190.874 70.609C190.653 71.4526 190.423 72.2475 190.182 72.9938C189.942 73.7401 189.744 74.3338 189.589 74.7751H187.837C187.921 74.3598 188.031 73.8114 188.168 73.1301C188.304 72.4487 188.44 71.6862 188.576 70.8426C188.719 70.0055 188.836 69.149 188.927 68.2729L189.044 67.1828H191.535ZM209.923 70.1807C208.639 70.1807 207.493 69.9601 206.487 69.5189C205.488 69.0776 204.693 68.4644 204.103 67.6792C203.519 66.8875 203.201 65.9693 203.149 64.9245H205.602C205.653 65.5669 205.874 66.1218 206.263 66.589C206.653 67.0497 207.162 67.4066 207.792 67.6597C208.421 67.9128 209.119 68.0393 209.884 68.0393C210.741 68.0393 211.5 67.8901 212.162 67.5916C212.824 67.2931 213.343 66.8778 213.72 66.3456C214.096 65.8135 214.284 65.1971 214.284 64.4962C214.284 63.763 214.102 63.1173 213.739 62.5592C213.376 61.9947 212.843 61.5534 212.143 61.2354C211.442 60.9175 210.585 60.7585 209.573 60.7585H207.977V58.617H209.573C210.365 58.617 211.059 58.4743 211.656 58.1888C212.259 57.9032 212.73 57.5009 213.067 56.9818C213.411 56.4626 213.583 55.8527 213.583 55.1518C213.583 54.477 213.434 53.8897 213.136 53.39C212.837 52.8904 212.415 52.501 211.87 52.222C211.332 51.9429 210.696 51.8034 209.962 51.8034C209.274 51.8034 208.626 51.93 208.016 52.183C207.412 52.4296 206.919 52.7898 206.536 53.2635C206.153 53.7307 205.946 54.2953 205.913 54.9572H203.577C203.616 53.9124 203.931 52.9974 204.521 52.2122C205.112 51.4206 205.884 50.8041 206.838 50.3628C207.798 49.9216 208.853 49.7009 210.001 49.7009C211.234 49.7009 212.292 49.9508 213.174 50.4504C214.057 50.9436 214.735 51.5958 215.209 52.4069C215.683 53.2181 215.919 54.0941 215.919 55.035C215.919 56.1577 215.624 57.1148 215.034 57.9065C214.45 58.6982 213.655 59.2465 212.649 59.5515V59.7072C213.908 59.9149 214.891 60.4502 215.598 61.3133C216.305 62.1699 216.659 63.2308 216.659 64.4962C216.659 65.5799 216.364 66.5533 215.773 67.4164C215.189 68.2729 214.391 68.9478 213.379 69.441C212.367 69.9342 211.215 70.1807 209.923 70.1807ZM228.426 69.9082V49.9735H235.161C236.725 49.9735 238.004 50.2558 238.997 50.8203C239.996 51.3784 240.736 52.1344 241.216 53.0883C241.696 54.0422 241.936 55.1064 241.936 56.2809C241.936 57.4555 241.696 58.523 241.216 59.4834C240.742 60.4438 240.009 61.2095 239.016 61.7805C238.023 62.3451 236.751 62.6274 235.2 62.6274H230.372V60.4859H235.122C236.193 60.4859 237.053 60.301 237.702 59.9311C238.351 59.5612 238.821 59.0616 239.113 58.4321C239.412 57.7962 239.561 57.0791 239.561 56.2809C239.561 55.4828 239.412 54.769 239.113 54.1395C238.821 53.5101 238.348 53.0169 237.692 52.66C237.037 52.2966 236.167 52.1149 235.084 52.1149H230.84V69.9082H228.426ZM251.839 69.9082H245.688V49.9735H252.112C254.046 49.9735 255.7 50.3726 257.076 51.1707C258.452 51.9624 259.506 53.1013 260.24 54.5873C260.973 56.0668 261.34 57.8383 261.34 59.9019C261.34 61.9784 260.97 63.7662 260.23 65.2652C259.49 66.7577 258.413 67.9063 256.998 68.711C255.584 69.5091 253.864 69.9082 251.839 69.9082ZM248.102 67.7668H251.684C253.332 67.7668 254.698 67.4488 255.782 66.8129C256.865 66.1769 257.673 65.2717 258.205 64.0972C258.737 62.9226 259.003 61.5242 259.003 59.9019C259.003 58.2926 258.741 56.9072 258.215 55.7456C257.689 54.5775 256.904 53.682 255.859 53.0591C254.815 52.4296 253.514 52.1149 251.956 52.1149H248.102V67.7668ZM265.252 69.9082V49.9735H277.205V52.1149H267.666V58.8507H276.309V60.9921H267.666V69.9082H265.252ZM291.481 58.3056L289.417 58.8896C289.288 58.5457 289.096 58.2115 288.843 57.887C288.597 57.5561 288.259 57.2835 287.831 57.0694C287.403 56.8552 286.854 56.7482 286.186 56.7482C285.271 56.7482 284.508 56.9591 283.898 57.3809C283.295 57.7962 282.993 58.325 282.993 58.9675C282.993 59.5385 283.201 59.9895 283.616 60.3205C284.031 60.6514 284.68 60.9272 285.563 61.1478L287.782 61.6929C289.119 62.0174 290.115 62.5138 290.77 63.1822C291.426 63.8441 291.754 64.6974 291.754 65.7422C291.754 66.5987 291.507 67.3644 291.014 68.0393C290.527 68.7142 289.846 69.2463 288.97 69.6357C288.094 70.025 287.075 70.2197 285.913 70.2197C284.388 70.2197 283.126 69.8887 282.127 69.2268C281.128 68.5649 280.495 67.5981 280.229 66.3262L282.409 65.7811C282.617 66.5857 283.009 67.1892 283.587 67.5916C284.171 67.9939 284.933 68.1951 285.874 68.1951C286.945 68.1951 287.795 67.9679 288.425 67.5137C289.061 67.053 289.379 66.5014 289.379 65.859C289.379 65.3398 289.197 64.9051 288.833 64.5546C288.47 64.1977 287.912 63.9317 287.159 63.7565L284.667 63.1724C283.298 62.848 282.292 62.3451 281.65 61.6637C281.014 60.9759 280.696 60.116 280.696 59.0843C280.696 58.2407 280.933 57.4944 281.407 56.8455C281.887 56.1966 282.539 55.6872 283.363 55.3173C284.194 54.9474 285.135 54.7625 286.186 54.7625C287.665 54.7625 288.827 55.0869 289.671 55.7359C290.521 56.3848 291.124 57.2413 291.481 58.3056ZM298.501 67.1828L298.345 68.234C298.235 68.9738 298.066 69.7654 297.839 70.609C297.618 71.4526 297.388 72.2475 297.148 72.9938C296.908 73.7401 296.71 74.3338 296.554 74.7751H294.802C294.886 74.3598 294.997 73.8114 295.133 73.1301C295.269 72.4487 295.405 71.6862 295.542 70.8426C295.684 70.0055 295.801 69.149 295.892 68.2729L296.009 67.1828H298.501ZM35.3513 99.9082L29.9004 79.9735H32.3533L36.5194 96.2094H36.7141L40.958 79.9735H43.6834L47.9273 96.2094H48.122L52.2881 79.9735H54.741L49.2901 99.9082H46.7982L42.3986 84.0227H42.2428L37.8432 99.9082H35.3513ZM60.3079 100.259C59.3605 100.259 58.5007 100.08 57.7285 99.7233C56.9562 99.3599 56.343 98.8375 55.8888 98.1561C55.4345 97.4683 55.2074 96.6377 55.2074 95.6643C55.2074 94.8077 55.3761 94.1134 55.7136 93.5813C56.051 93.0427 56.502 92.6209 57.0666 92.3159C57.6311 92.0109 58.2541 91.7838 58.9354 91.6345C59.6233 91.4788 60.3144 91.3555 61.0087 91.2646C61.9172 91.1478 62.6537 91.0602 63.2183 91.0018C63.7893 90.9369 64.2046 90.8299 64.4642 90.6806C64.7303 90.5314 64.8633 90.2718 64.8633 89.9019V89.824C64.8633 88.8636 64.6005 88.1174 64.0749 87.5853C63.5557 87.0532 62.7673 86.7871 61.7096 86.7871C60.6129 86.7871 59.7531 87.0272 59.1301 87.5074C58.5072 87.9876 58.0691 88.5002 57.8161 89.0453L55.6357 88.2666C56.025 87.3582 56.5442 86.6508 57.1931 86.1447C57.8485 85.632 58.5623 85.2751 59.3345 85.074C60.1132 84.8663 60.8789 84.7625 61.6317 84.7625C62.1119 84.7625 62.6635 84.8209 63.2864 84.9377C63.9159 85.048 64.5226 85.2784 65.1066 85.6288C65.6972 85.9792 66.1871 86.5081 66.5764 87.2154C66.9658 87.9227 67.1605 88.8701 67.1605 90.0576V99.9082H64.8633V97.8836H64.7465C64.5907 98.208 64.3312 98.5552 63.9678 98.9251C63.6044 99.295 63.121 99.6097 62.5175 99.8693C61.914 100.129 61.1774 100.259 60.3079 100.259ZM60.6583 98.1951C61.5668 98.1951 62.3325 98.0166 62.9555 97.6597C63.5849 97.3028 64.0586 96.8421 64.3766 96.2775C64.7011 95.713 64.8633 95.1192 64.8633 94.4962V92.3937C64.766 92.5106 64.5518 92.6176 64.2209 92.715C63.8964 92.8058 63.52 92.8869 63.0917 92.9583C62.67 93.0232 62.2579 93.0816 61.8556 93.1335C61.4597 93.1789 61.1385 93.2179 60.8919 93.2503C60.2949 93.3282 59.7369 93.4547 59.2177 93.6299C58.7051 93.7987 58.2898 94.055 57.9718 94.3989C57.6603 94.7363 57.5046 95.1971 57.5046 95.7811C57.5046 96.5793 57.7998 97.1828 58.3903 97.5916C58.9874 97.9939 59.7433 98.1951 60.6583 98.1951ZM73.5134 90.9142V99.9082H71.2162V84.9572H73.4355V87.2933H73.6302C73.9806 86.534 74.5127 85.924 75.2265 85.4633C75.9403 84.9961 76.8618 84.7625 77.9909 84.7625C79.0032 84.7625 79.889 84.9701 80.6482 85.3854C81.4075 85.7943 81.998 86.4172 82.4198 87.2543C82.8416 88.0849 83.0525 89.1362 83.0525 90.4081V99.9082H80.7553V90.5638C80.7553 89.3893 80.4503 88.4743 79.8403 87.8189C79.2303 87.157 78.3932 86.826 77.329 86.826C76.5957 86.826 75.9403 86.985 75.3628 87.303C74.7918 87.621 74.3408 88.0849 74.0098 88.6949C73.6789 89.3049 73.5134 90.0447 73.5134 90.9142ZM93.6152 84.9572V86.9039H85.8672V84.9572H93.6152ZM88.1254 81.3751H90.4226V95.6254C90.4226 96.2743 90.5167 96.761 90.7049 97.0854C90.8995 97.4034 91.1461 97.6175 91.4446 97.7278C91.7496 97.8317 92.0708 97.8836 92.4083 97.8836C92.6613 97.8836 92.869 97.8706 93.0312 97.8446C93.1934 97.8122 93.3232 97.7862 93.4206 97.7668L93.8878 99.8303C93.732 99.8887 93.5147 99.9471 93.2356 100.006C92.9566 100.07 92.6029 100.103 92.1746 100.103C91.5257 100.103 90.8898 99.9634 90.2668 99.6843C89.6504 99.4053 89.1377 98.9803 88.7289 98.4092C88.3266 97.8382 88.1254 97.1179 88.1254 96.2483V81.3751ZM108.905 100.259C107.958 100.259 107.098 100.08 106.326 99.7233C105.554 99.3599 104.941 98.8375 104.486 98.1561C104.032 97.4683 103.805 96.6377 103.805 95.6643C103.805 94.8077 103.974 94.1134 104.311 93.5813C104.649 93.0427 105.1 92.6209 105.664 92.3159C106.229 92.0109 106.852 91.7838 107.533 91.6345C108.221 91.4788 108.912 91.3555 109.606 91.2646C110.515 91.1478 111.251 91.0602 111.816 91.0018C112.387 90.9369 112.802 90.8299 113.062 90.6806C113.328 90.5314 113.461 90.2718 113.461 89.9019V89.824C113.461 88.8636 113.198 88.1174 112.672 87.5853C112.153 87.0532 111.365 86.7871 110.307 86.7871C109.21 86.7871 108.351 87.0272 107.728 87.5074C107.105 87.9876 106.667 88.5002 106.414 89.0453L104.233 88.2666C104.623 87.3582 105.142 86.6508 105.791 86.1447C106.446 85.632 107.16 85.2751 107.932 85.074C108.711 84.8663 109.476 84.7625 110.229 84.7625C110.709 84.7625 111.261 84.8209 111.884 84.9377C112.513 85.048 113.12 85.2784 113.704 85.6288C114.295 85.9792 114.785 86.5081 115.174 87.2154C115.563 87.9227 115.758 88.8701 115.758 90.0576V99.9082H113.461V97.8836H113.344C113.188 98.208 112.929 98.5552 112.565 98.9251C112.202 99.295 111.718 99.6097 111.115 99.8693C110.511 100.129 109.775 100.259 108.905 100.259ZM109.256 98.1951C110.164 98.1951 110.93 98.0166 111.553 97.6597C112.182 97.3028 112.656 96.8421 112.974 96.2775C113.299 95.713 113.461 95.1192 113.461 94.4962V92.3937C113.363 92.5106 113.149 92.6176 112.818 92.715C112.494 92.8058 112.118 92.8869 111.689 92.9583C111.267 93.0232 110.855 93.0816 110.453 93.1335C110.057 93.1789 109.736 93.2179 109.489 93.2503C108.892 93.3282 108.334 93.4547 107.815 93.6299C107.303 93.7987 106.887 94.055 106.569 94.3989C106.258 94.7363 106.102 95.1971 106.102 95.7811C106.102 96.5793 106.397 97.1828 106.988 97.5916C107.585 97.9939 108.341 98.1951 109.256 98.1951ZM137.587 105.515V97.611H137.392C137.223 97.8836 136.983 98.2275 136.672 98.6428C136.36 99.0516 135.916 99.4183 135.338 99.7427C134.761 100.061 133.992 100.22 133.031 100.22C131.785 100.22 130.686 99.905 129.732 99.2755C128.778 98.6396 128.031 97.7441 127.493 96.589C126.954 95.4274 126.685 94.055 126.685 92.4716C126.685 90.9012 126.954 89.5385 127.493 88.3834C128.031 87.2284 128.781 86.3361 129.741 85.7067C130.702 85.0772 131.811 84.7625 133.07 84.7625C134.044 84.7625 134.813 84.9247 135.377 85.2492C135.948 85.5671 136.383 85.9305 136.682 86.3394C136.987 86.7417 137.223 87.0726 137.392 87.3322H137.665V84.9572H139.884V105.515H137.587ZM133.343 98.1561C134.264 98.1561 135.043 97.916 135.679 97.4358C136.315 96.9491 136.798 96.2775 137.129 95.4209C137.46 94.5579 137.626 93.5618 137.626 92.4327C137.626 91.3165 137.463 90.3399 137.139 89.5028C136.815 88.6592 136.334 88.0038 135.698 87.5366C135.063 87.0629 134.277 86.826 133.343 86.826C132.369 86.826 131.558 87.0759 130.909 87.5755C130.267 88.0687 129.784 88.7403 129.459 89.5904C129.141 90.434 128.982 91.3814 128.982 92.4327C128.982 93.4969 129.144 94.4638 129.469 95.3333C129.8 96.1964 130.286 96.8843 130.929 97.3969C131.578 97.9031 132.382 98.1561 133.343 98.1561ZM153.374 93.7954V84.9572H155.671V99.9082H153.374V97.3774H153.218C152.868 98.1367 152.323 98.7823 151.583 99.3144C150.843 99.8401 149.909 100.103 148.78 100.103C147.845 100.103 147.015 99.8985 146.288 99.4897C145.561 99.0743 144.99 98.4514 144.575 97.6208C144.16 96.7837 143.952 95.7292 143.952 94.4573V84.9572H146.249V94.3016C146.249 95.3917 146.554 96.2613 147.164 96.9102C147.78 97.5591 148.566 97.8836 149.52 97.8836C150.091 97.8836 150.671 97.7376 151.262 97.4456C151.859 97.1536 152.359 96.7058 152.761 96.1023C153.17 95.4988 153.374 94.7298 153.374 93.7954ZM159.742 99.9082V84.9572H162.039V99.9082H159.742ZM160.91 82.4653C160.462 82.4653 160.076 82.3128 159.751 82.0078C159.433 81.7028 159.274 81.3362 159.274 80.9079C159.274 80.4796 159.433 80.113 159.751 79.808C160.076 79.503 160.462 79.3505 160.91 79.3505C161.357 79.3505 161.74 79.503 162.058 79.808C162.383 80.113 162.545 80.4796 162.545 80.9079C162.545 81.3362 162.383 81.7028 162.058 82.0078C161.74 82.3128 161.357 82.4653 160.91 82.4653ZM172.183 100.22C170.781 100.22 169.574 99.8887 168.562 99.2268C167.55 98.5649 166.771 97.6532 166.226 96.4917C165.681 95.3301 165.408 94.0031 165.408 92.5106C165.408 90.9921 165.687 89.6521 166.245 88.4905C166.81 87.3225 167.595 86.4107 168.601 85.7553C169.613 85.0934 170.794 84.7625 172.144 84.7625C173.195 84.7625 174.143 84.9572 174.986 85.3465C175.83 85.7359 176.521 86.2809 177.06 86.9818C177.598 87.6826 177.932 88.5002 178.062 89.4347H175.765C175.59 88.7533 175.201 88.1498 174.597 87.6242C174 87.0921 173.195 86.826 172.183 86.826C171.288 86.826 170.502 87.0596 169.828 87.5269C169.159 87.9876 168.637 88.6398 168.26 89.4834C167.89 90.3205 167.706 91.3036 167.706 92.4327C167.706 93.5878 167.887 94.5936 168.251 95.4501C168.621 96.3067 169.14 96.9719 169.808 97.4456C170.483 97.9193 171.275 98.1561 172.183 98.1561C172.78 98.1561 173.322 98.0523 173.809 97.8446C174.295 97.637 174.707 97.3385 175.045 96.9491C175.382 96.5598 175.622 96.0926 175.765 95.5475H178.062C177.932 96.43 177.611 97.2249 177.099 97.9323C176.592 98.6331 175.921 99.1911 175.084 99.6065C174.253 100.015 173.286 100.22 172.183 100.22ZM183.425 94.4573L183.386 91.615H183.853L190.394 84.9572H193.236L186.267 92.0044H186.072L183.425 94.4573ZM181.283 99.9082V79.9735H183.581V99.9082H181.283ZM190.783 99.9082L184.943 92.5106L186.579 90.9142L193.704 99.9082H190.783ZM42.0092 118.306L39.9457 118.89C39.8159 118.546 39.6245 118.211 39.3714 117.887C39.1248 117.556 38.7873 117.284 38.3591 117.069C37.9308 116.855 37.3824 116.748 36.7141 116.748C35.7991 116.748 35.0366 116.959 34.4266 117.381C33.8231 117.796 33.5214 118.325 33.5214 118.967C33.5214 119.539 33.729 119.99 34.1443 120.32C34.5597 120.651 35.2086 120.927 36.0911 121.148L38.3104 121.693C39.6472 122.017 40.6433 122.514 41.2987 123.182C41.9541 123.844 42.2818 124.697 42.2818 125.742C42.2818 126.599 42.0352 127.364 41.542 128.039C41.0553 128.714 40.3739 129.246 39.4979 129.636C38.6219 130.025 37.6031 130.22 36.4415 130.22C34.9166 130.22 33.6544 129.889 32.6551 129.227C31.6558 128.565 31.0231 127.598 30.757 126.326L32.9374 125.781C33.145 126.586 33.5376 127.189 34.1151 127.592C34.6992 127.994 35.4616 128.195 36.4026 128.195C37.4733 128.195 38.3234 127.968 38.9528 127.514C39.5888 127.053 39.9067 126.501 39.9067 125.859C39.9067 125.34 39.725 124.905 39.3616 124.555C38.9982 124.198 38.4402 123.932 37.6874 123.756L35.1956 123.172C33.8264 122.848 32.8206 122.345 32.1781 121.664C31.5422 120.976 31.2242 120.116 31.2242 119.084C31.2242 118.241 31.4611 117.494 31.9348 116.846C32.415 116.197 33.0671 115.687 33.8913 115.317C34.7219 114.947 35.6628 114.762 36.7141 114.762C38.1936 114.762 39.3552 115.087 40.1987 115.736C41.0488 116.385 41.6523 117.241 42.0092 118.306ZM55.0249 123.795V114.957H57.3221V129.908H55.0249V127.377H54.8692C54.5187 128.137 53.9737 128.782 53.2339 129.314C52.4941 129.84 51.5597 130.103 50.4306 130.103C49.4961 130.103 48.6655 129.898 47.9387 129.49C47.2119 129.074 46.6409 128.451 46.2256 127.621C45.8103 126.784 45.6026 125.729 45.6026 124.457V114.957H47.8998V124.302C47.8998 125.392 48.2048 126.261 48.8148 126.91C49.4312 127.559 50.2164 127.884 51.1703 127.884C51.7414 127.884 52.3222 127.738 52.9127 127.446C53.5097 127.154 54.0093 126.706 54.4117 126.102C54.8205 125.499 55.0249 124.73 55.0249 123.795ZM61.3924 129.908V114.957H63.6117V117.293H63.8064C64.1179 116.495 64.6208 115.875 65.3151 115.434C66.0095 114.986 66.8433 114.762 67.8167 114.762C68.8031 114.762 69.6239 114.986 70.2793 115.434C70.9412 115.875 71.4571 116.495 71.827 117.293H71.9828C72.3656 116.521 72.9399 115.908 73.7056 115.454C74.4714 114.993 75.3896 114.762 76.4603 114.762C77.797 114.762 78.8905 115.181 79.7406 116.018C80.5906 116.849 81.0157 118.143 81.0157 119.902V129.908H78.7185V119.902C78.7185 118.799 78.4168 118.01 77.8133 117.537C77.2098 117.063 76.4992 116.826 75.6816 116.826C74.6303 116.826 73.8159 117.144 73.2384 117.78C72.6609 118.409 72.3721 119.208 72.3721 120.174V129.908H70.036V119.668C70.036 118.818 69.7602 118.134 69.2086 117.614C68.6571 117.089 67.9465 116.826 67.0769 116.826C66.4799 116.826 65.9219 116.985 65.4027 117.303C64.8901 117.621 64.4748 118.062 64.1568 118.627C63.8453 119.185 63.6896 119.831 63.6896 120.564V129.908H61.3924ZM85.0787 129.908V114.957H87.298V117.293H87.4927C87.8042 116.495 88.3071 115.875 89.0014 115.434C89.6958 114.986 90.5296 114.762 91.503 114.762C92.4894 114.762 93.3103 114.986 93.9657 115.434C94.6276 115.875 95.1434 116.495 95.5133 117.293H95.6691C96.0519 116.521 96.6262 115.908 97.3919 115.454C98.1577 114.993 99.0759 114.762 100.147 114.762C101.483 114.762 102.577 115.181 103.427 116.018C104.277 116.849 104.702 118.143 104.702 119.902V129.908H102.405V119.902C102.405 118.799 102.103 118.01 101.5 117.537C100.896 117.063 100.186 116.826 99.3679 116.826C98.3166 116.826 97.5023 117.144 96.9247 117.78C96.3472 118.409 96.0584 119.208 96.0584 120.174V129.908H93.7223V119.668C93.7223 118.818 93.4465 118.134 92.8949 117.614C92.3434 117.089 91.6328 116.826 90.7633 116.826C90.1662 116.826 89.6082 116.985 89.089 117.303C88.5764 117.621 88.1611 118.062 87.8431 118.627C87.5316 119.185 87.3759 119.831 87.3759 120.564V129.908H85.0787ZM113.165 130.259C112.217 130.259 111.357 130.08 110.585 129.723C109.813 129.36 109.2 128.837 108.746 128.156C108.291 127.468 108.064 126.638 108.064 125.664C108.064 124.808 108.233 124.113 108.57 123.581C108.908 123.043 109.359 122.621 109.923 122.316C110.488 122.011 111.111 121.784 111.792 121.635C112.48 121.479 113.171 121.355 113.866 121.265C114.774 121.148 115.511 121.06 116.075 121.002C116.646 120.937 117.061 120.83 117.321 120.681C117.587 120.531 117.72 120.272 117.72 119.902V119.824C117.72 118.864 117.457 118.117 116.932 117.585C116.413 117.053 115.624 116.787 114.566 116.787C113.47 116.787 112.61 117.027 111.987 117.507C111.364 117.988 110.926 118.5 110.673 119.045L108.493 118.267C108.882 117.358 109.401 116.651 110.05 116.145C110.705 115.632 111.419 115.275 112.191 115.074C112.97 114.866 113.736 114.762 114.488 114.762C114.969 114.762 115.52 114.821 116.143 114.938C116.773 115.048 117.379 115.278 117.963 115.629C118.554 115.979 119.044 116.508 119.433 117.215C119.823 117.923 120.017 118.87 120.017 120.058V129.908H117.72V127.884H117.603C117.448 128.208 117.188 128.555 116.825 128.925C116.461 129.295 115.978 129.61 115.374 129.869C114.771 130.129 114.034 130.259 113.165 130.259ZM113.515 128.195C114.424 128.195 115.189 128.017 115.812 127.66C116.442 127.303 116.915 126.842 117.233 126.278C117.558 125.713 117.72 125.119 117.72 124.496V122.394C117.623 122.511 117.409 122.618 117.078 122.715C116.753 122.806 116.377 122.887 115.949 122.958C115.527 123.023 115.115 123.082 114.712 123.134C114.317 123.179 113.995 123.218 113.749 123.25C113.152 123.328 112.594 123.455 112.075 123.63C111.562 123.799 111.147 124.055 110.829 124.399C110.517 124.736 110.361 125.197 110.361 125.781C110.361 126.579 110.657 127.183 111.247 127.592C111.844 127.994 112.6 128.195 113.515 128.195ZM124.073 129.908V114.957H126.292V117.215H126.448C126.721 116.476 127.214 115.875 127.928 115.415C128.641 114.954 129.446 114.724 130.342 114.724C130.51 114.724 130.721 114.727 130.974 114.733C131.227 114.74 131.419 114.75 131.549 114.762V117.099C131.471 117.079 131.292 117.05 131.013 117.011C130.741 116.966 130.452 116.943 130.147 116.943C129.42 116.943 128.771 117.095 128.2 117.4C127.636 117.699 127.188 118.114 126.857 118.646C126.532 119.172 126.37 119.772 126.37 120.447V129.908H124.073ZM136.069 135.515C135.68 135.515 135.333 135.482 135.028 135.418C134.723 135.359 134.512 135.301 134.395 135.242L134.979 133.218C135.537 133.36 136.03 133.412 136.458 133.373C136.887 133.334 137.266 133.143 137.597 132.799C137.935 132.462 138.243 131.913 138.522 131.154L138.95 129.986L133.422 114.957H135.913L140.04 126.871H140.196L144.323 114.957H146.815L140.469 132.089C140.183 132.861 139.83 133.5 139.408 134.006C138.986 134.519 138.496 134.898 137.938 135.145C137.386 135.392 136.763 135.515 136.069 135.515ZM152.708 124.302V124.185C152.721 122.945 152.851 121.959 153.098 121.226C153.344 120.492 153.695 119.899 154.149 119.444C154.603 118.99 155.148 118.572 155.784 118.189C156.167 117.955 156.511 117.679 156.816 117.361C157.121 117.037 157.361 116.664 157.536 116.242C157.718 115.82 157.809 115.353 157.809 114.84C157.809 114.204 157.659 113.653 157.361 113.186C157.062 112.718 156.663 112.358 156.164 112.105C155.664 111.852 155.109 111.726 154.499 111.726C153.967 111.726 153.454 111.836 152.961 112.056C152.468 112.277 152.056 112.624 151.725 113.098C151.394 113.572 151.203 114.191 151.151 114.957H148.698C148.75 113.854 149.035 112.91 149.554 112.125C150.08 111.339 150.771 110.739 151.628 110.324C152.491 109.909 153.448 109.701 154.499 109.701C155.641 109.701 156.634 109.928 157.478 110.382C158.328 110.837 158.983 111.459 159.444 112.251C159.911 113.043 160.145 113.945 160.145 114.957C160.145 115.671 160.034 116.317 159.814 116.894C159.6 117.472 159.288 117.988 158.879 118.442C158.477 118.896 157.99 119.298 157.419 119.649C156.848 120.006 156.391 120.382 156.047 120.778C155.703 121.167 155.453 121.631 155.297 122.17C155.142 122.708 155.057 123.38 155.044 124.185V124.302H152.708ZM153.954 130.064C153.474 130.064 153.062 129.892 152.718 129.548C152.374 129.204 152.202 128.792 152.202 128.312C152.202 127.832 152.374 127.42 152.718 127.076C153.062 126.732 153.474 126.56 153.954 126.56C154.434 126.56 154.846 126.732 155.19 127.076C155.534 127.42 155.706 127.832 155.706 128.312C155.706 128.63 155.625 128.922 155.463 129.188C155.307 129.454 155.096 129.668 154.83 129.83C154.571 129.986 154.279 130.064 153.954 130.064Z" fill="white"/>
<path d="M339.847 20.0555C339.847 9.20162 331.048 0.402832 320.194 0.402832V28.8474H339.847V20.0555Z" fill="#26252A" stroke="#26252A" stroke-width="0.805851"/>
<rect width="19.6526" height="92.1214" transform="matrix(-1 0 0 1 339.847 28.8474)" fill="#26252A" stroke="#26252A" stroke-width="0.805851"/>
<path d="M339.847 129.761C339.847 140.615 331.048 149.414 320.194 149.414V120.969H339.847V129.761Z" fill="#26252A" stroke="#26252A" stroke-width="0.805851"/>
</svg>
