<svg width="301" height="301" viewBox="0 0 301 301" fill="none" xmlns="http://www.w3.org/2000/svg">
<rect x="0.5" y="0.5" width="300" height="300" rx="19.5" fill="url(#paint0_linear_2206_140)" stroke="url(#paint1_linear_2206_140)"/>
<path d="M20.8182 45V21.7273H23.6364V42.5H34.4545V45H20.8182ZM38.4364 21.7273V45H35.6182V21.7273H38.4364ZM40.8869 21.7273H44.2506L52.1597 41.0455H52.4324L60.3415 21.7273H63.7051V45H61.0688V27.3182H60.8415L53.5688 45H51.0233L43.7506 27.3182H43.5233V45H40.8869V21.7273ZM66.1557 45V21.7273H80.2011V24.2273H68.9739V32.0909H79.4739V34.5909H68.9739V42.5H80.383V45H66.1557ZM82.0807 45V21.7273H84.8989V42.5H95.717V45H82.0807ZM99.6989 21.7273V45H96.8807V21.7273H99.6989ZM118.059 29C117.809 28.2348 117.479 27.5492 117.07 26.9432C116.668 26.3295 116.187 25.8068 115.627 25.375C115.074 24.9432 114.445 24.6136 113.74 24.3864C113.036 24.1591 112.263 24.0455 111.422 24.0455C110.043 24.0455 108.79 24.4015 107.661 25.1136C106.532 25.8258 105.634 26.875 104.968 28.2614C104.301 29.6477 103.968 31.3485 103.968 33.3636C103.968 35.3788 104.305 37.0795 104.979 38.4659C105.653 39.8523 106.566 40.9015 107.718 41.6136C108.869 42.3258 110.165 42.6818 111.604 42.6818C112.937 42.6818 114.112 42.3977 115.127 41.8295C116.149 41.2538 116.945 40.4432 117.513 39.3977C118.089 38.3447 118.377 37.1061 118.377 35.6818L119.24 35.8636H112.24V33.3636H121.104V35.8636C121.104 37.7803 120.695 39.447 119.877 40.8636C119.066 42.2803 117.945 43.3788 116.513 44.1591C115.089 44.9318 113.452 45.3182 111.604 45.3182C109.543 45.3182 107.733 44.8333 106.172 43.8636C104.619 42.8939 103.407 41.5152 102.536 39.7273C101.672 37.9394 101.24 35.8182 101.24 33.3636C101.24 31.5227 101.487 29.8674 101.979 28.3977C102.479 26.9205 103.184 25.6629 104.093 24.625C105.002 23.5871 106.077 22.7917 107.32 22.2386C108.562 21.6856 109.93 21.4091 111.422 21.4091C112.649 21.4091 113.793 21.5947 114.854 21.9659C115.922 22.3295 116.873 22.8485 117.706 23.5227C118.547 24.1894 119.248 24.9886 119.809 25.9205C120.369 26.8447 120.755 27.8712 120.968 29H118.059ZM122.731 45V21.7273H125.549V32.0909H137.958V21.7273H140.776V45H137.958V34.5909H125.549V45H122.731ZM141.945 24.2273V21.7273H159.4V24.2273H152.082V45H149.264V24.2273H141.945Z" fill="#727272"/>
<path d="M19.7614 66V51.4545H28.5398V53.017H21.5227V57.9318H28.0852V59.4943H21.5227V64.4375H28.6534V66H19.7614ZM41.2486 51.4545V66H39.544L31.6179 54.5795H31.4759V66H29.7145V51.4545H31.419L39.3736 62.9034H39.5156V51.4545H41.2486ZM52.7163 56C52.56 55.5218 52.354 55.0933 52.0984 54.7145C51.8474 54.331 51.5468 54.0043 51.1964 53.7344C50.8507 53.4645 50.4577 53.2585 50.0174 53.1165C49.5771 52.9744 49.0941 52.9034 48.5685 52.9034C47.7068 52.9034 46.9232 53.1259 46.2177 53.571C45.5122 54.0161 44.9511 54.6719 44.5344 55.5384C44.1178 56.4048 43.9094 57.4678 43.9094 58.7273C43.9094 59.9867 44.1201 61.0497 44.5415 61.9162C44.9629 62.7827 45.5335 63.4384 46.2532 63.8835C46.9729 64.3286 47.7826 64.5511 48.6822 64.5511C49.5155 64.5511 50.2494 64.3736 50.8839 64.0185C51.5231 63.6586 52.0202 63.152 52.3754 62.4986C52.7352 61.8404 52.9151 61.0663 52.9151 60.1761L53.4549 60.2898H49.0799V58.7273H54.6197V60.2898C54.6197 61.4877 54.364 62.5294 53.8526 63.4148C53.346 64.3002 52.6452 64.9867 51.7504 65.4744C50.8602 65.9574 49.8375 66.1989 48.6822 66.1989C47.3943 66.1989 46.2627 65.8958 45.2873 65.2898C44.3166 64.6837 43.5591 63.822 43.0146 62.7045C42.4748 61.5871 42.2049 60.2614 42.2049 58.7273C42.2049 57.5767 42.3588 56.5421 42.6665 55.6236C42.979 54.7003 43.4194 53.9143 43.9876 53.2656C44.5558 52.617 45.2281 52.1198 46.0046 51.7741C46.7811 51.4285 47.6358 51.2557 48.5685 51.2557C49.3356 51.2557 50.0505 51.3717 50.7134 51.6037C51.381 51.831 51.9753 52.1553 52.4961 52.5767C53.0217 52.9934 53.4596 53.4929 53.81 54.0753C54.1604 54.6529 54.4019 55.2945 54.5344 56H52.7163ZM57.3977 51.4545V66H55.6364V51.4545H57.3977ZM70.4634 51.4545V66H68.7589L60.8327 54.5795H60.6907V66H58.9293V51.4545H60.6339L68.5884 62.9034H68.7305V51.4545H70.4634ZM71.9879 66V51.4545H80.7663V53.017H73.7493V57.9318H80.3118V59.4943H73.7493V64.4375H80.88V66H71.9879Z" fill="#727272"/>
<path d="M241.358 266.455L245.676 278.699H245.847L250.165 266.455H252.011L246.67 281H244.852L239.511 266.455H241.358ZM257.135 266.455V281H255.374V268.301H255.288L251.737 270.659V268.869L255.374 266.455H257.135ZM259.709 281.114C259.358 281.114 259.058 280.988 258.807 280.737C258.556 280.486 258.43 280.186 258.43 279.835C258.43 279.485 258.556 279.184 258.807 278.933C259.058 278.682 259.358 278.557 259.709 278.557C260.059 278.557 260.36 278.682 260.611 278.933C260.862 279.184 260.987 279.485 260.987 279.835C260.987 280.067 260.928 280.28 260.81 280.474C260.696 280.669 260.542 280.825 260.348 280.943C260.159 281.057 259.946 281.114 259.709 281.114ZM266.203 281.199C265.133 281.199 264.222 280.908 263.469 280.325C262.716 279.738 262.141 278.888 261.743 277.776C261.345 276.658 261.146 275.309 261.146 273.727C261.146 272.155 261.345 270.813 261.743 269.7C262.145 268.583 262.723 267.731 263.476 267.143C264.233 266.552 265.143 266.256 266.203 266.256C267.264 266.256 268.17 266.552 268.923 267.143C269.681 267.731 270.259 268.583 270.656 269.7C271.059 270.813 271.26 272.155 271.26 273.727C271.26 275.309 271.061 276.658 270.663 277.776C270.266 278.888 269.69 279.738 268.938 280.325C268.185 280.908 267.273 281.199 266.203 281.199ZM266.203 279.636C267.264 279.636 268.088 279.125 268.675 278.102C269.262 277.08 269.555 275.621 269.555 273.727C269.555 272.468 269.42 271.395 269.151 270.51C268.885 269.625 268.502 268.95 268 268.486C267.503 268.022 266.904 267.79 266.203 267.79C265.152 267.79 264.33 268.308 263.739 269.345C263.147 270.377 262.851 271.838 262.851 273.727C262.851 274.987 262.983 276.057 263.249 276.938C263.514 277.818 263.895 278.488 264.392 278.947C264.894 279.407 265.498 279.636 266.203 279.636ZM277.072 266.455V281H275.311V268.301H275.226L271.675 270.659V268.869L275.311 266.455H277.072Z" fill="#727272"/>
<path d="M19.7614 281V266.455H24.6761C25.8125 266.455 26.7453 266.649 27.4744 267.037C28.2036 267.42 28.7434 267.948 29.0938 268.621C29.4441 269.293 29.6193 270.058 29.6193 270.915C29.6193 271.772 29.4441 272.532 29.0938 273.195C28.7434 273.857 28.206 274.378 27.4815 274.757C26.7571 275.131 25.8314 275.318 24.7045 275.318H20.7273V273.727H24.6477C25.4242 273.727 26.0492 273.614 26.5227 273.386C27.0009 273.159 27.3466 272.837 27.5597 272.42C27.7775 271.999 27.8864 271.497 27.8864 270.915C27.8864 270.332 27.7775 269.823 27.5597 269.388C27.3419 268.952 26.9938 268.616 26.5156 268.379C26.0374 268.138 25.4053 268.017 24.6193 268.017H21.5227V281H19.7614ZM26.608 274.466L30.1875 281H28.142L24.6193 274.466H26.608ZM31.1509 281H29.3043L34.6452 266.455H36.4634L41.8043 281H39.9577L35.6112 268.756H35.4975L31.1509 281ZM31.8327 275.318H39.2759V276.881H31.8327V275.318ZM51.3295 271C51.1733 270.522 50.9673 270.093 50.7116 269.714C50.4607 269.331 50.16 269.004 49.8097 268.734C49.464 268.464 49.071 268.259 48.6307 268.116C48.1903 267.974 47.7074 267.903 47.1818 267.903C46.3201 267.903 45.5365 268.126 44.831 268.571C44.1255 269.016 43.5644 269.672 43.1477 270.538C42.7311 271.405 42.5227 272.468 42.5227 273.727C42.5227 274.987 42.7334 276.05 43.1548 276.916C43.5762 277.783 44.1468 278.438 44.8665 278.884C45.5862 279.329 46.3958 279.551 47.2955 279.551C48.1288 279.551 48.8627 279.374 49.4972 279.018C50.1364 278.659 50.6335 278.152 50.9886 277.499C51.3485 276.84 51.5284 276.066 51.5284 275.176L52.0682 275.29H47.6932V273.727H53.233V275.29C53.233 276.488 52.9773 277.529 52.4659 278.415C51.9593 279.3 51.2585 279.987 50.3636 280.474C49.4735 280.957 48.4508 281.199 47.2955 281.199C46.0076 281.199 44.8759 280.896 43.9006 280.29C42.9299 279.684 42.1723 278.822 41.6278 277.705C41.0881 276.587 40.8182 275.261 40.8182 273.727C40.8182 272.577 40.9721 271.542 41.2798 270.624C41.5923 269.7 42.0327 268.914 42.6009 268.266C43.169 267.617 43.8414 267.12 44.6179 266.774C45.3944 266.429 46.2491 266.256 47.1818 266.256C47.9489 266.256 48.6638 266.372 49.3267 266.604C49.9943 266.831 50.5885 267.155 51.1094 267.577C51.6349 267.993 52.0729 268.493 52.4233 269.075C52.7737 269.653 53.0152 270.295 53.1477 271H51.3295Z" fill="#727272"/>
<path d="M123.469 110.833L132.829 93H172.17L182.438 110.833V172.781H164.653V110.833H123.469Z" fill="url(#paint2_linear_2206_140)" fill-opacity="0.933333"/>
<path d="M178.969 185.391L169.609 204L130.268 204L120 185.391L120 120.75L137.784 120.75L137.784 185.391L178.969 185.391Z" fill="url(#paint3_linear_2206_140)" fill-opacity="0.933333"/>
<defs>
<linearGradient id="paint0_linear_2206_140" x1="150.5" y1="0" x2="150.5" y2="301" gradientUnits="userSpaceOnUse">
<stop stop-color="#2E2E2E"/>
<stop offset="0.524038" stop-color="#222222"/>
</linearGradient>
<linearGradient id="paint1_linear_2206_140" x1="150.5" y1="0" x2="150.5" y2="301" gradientUnits="userSpaceOnUse">
<stop stop-color="#FF8E2B"/>
<stop offset="1" stop-color="#FF7BCA"/>
</linearGradient>
<linearGradient id="paint2_linear_2206_140" x1="182.438" y1="132.891" x2="123.469" y2="132.891" gradientUnits="userSpaceOnUse">
<stop stop-color="#2E2E2E"/>
<stop offset="1" stop-color="#222222"/>
</linearGradient>
<linearGradient id="paint3_linear_2206_140" x1="178.969" y1="162.375" x2="120" y2="162.375" gradientUnits="userSpaceOnUse">
<stop stop-color="#222222"/>
<stop offset="0.5" stop-color="#282828"/>
</linearGradient>
</defs>
</svg>
