<svg width="873" height="502" viewBox="0 0 873 502" fill="none" xmlns="http://www.w3.org/2000/svg">
<path d="M720 167V240C720 246.627 714.627 252 708 252H579" stroke="#575757"/>
<path d="M189 57V210C189 216.627 194.373 222 201 222H278" stroke="#575757"/>
<path d="M98 385V356C98 349.373 103.373 344 110 344H278" stroke="#575757"/>
<path d="M84 234V288C84 294.627 89.3726 300 96 300H281" stroke="#575757"/>
<path d="M776 363V307C776 300.373 770.627 295 764 295H579" stroke="#575757"/>
<rect x="92.5" y="0.5" width="194" height="56" rx="9.5" fill="#363636" stroke="#363636"/>
<path d="M137.761 36V21.4545H146.54V23.017H139.523V27.9318H146.085V29.4943H139.523V34.4375H146.653V36H137.761ZM150.763 29.4375V36H149.087V25.0909H150.707V26.7955H150.849C151.104 26.2415 151.493 25.7964 152.013 25.4602C152.534 25.1193 153.207 24.9489 154.03 24.9489C154.769 24.9489 155.415 25.1004 155.969 25.4034C156.523 25.7017 156.954 26.1562 157.262 26.767C157.57 27.3731 157.724 28.1402 157.724 29.0682V36H156.047V29.1818C156.047 28.3248 155.825 27.6572 155.38 27.179C154.935 26.696 154.324 26.4545 153.547 26.4545C153.012 26.4545 152.534 26.5705 152.113 26.8026C151.696 27.0346 151.367 27.3731 151.126 27.8182C150.884 28.2633 150.763 28.803 150.763 29.4375ZM164.79 40.3182C163.98 40.3182 163.284 40.214 162.702 40.0057C162.119 39.8021 161.634 39.5322 161.246 39.196C160.862 38.8646 160.557 38.5095 160.33 38.1307L161.665 37.1932C161.816 37.392 162.008 37.6193 162.24 37.875C162.472 38.1354 162.789 38.3603 163.192 38.5497C163.599 38.7438 164.132 38.8409 164.79 38.8409C165.671 38.8409 166.397 38.6278 166.97 38.2017C167.543 37.7756 167.83 37.108 167.83 36.1989V33.983H167.688C167.564 34.1818 167.389 34.428 167.162 34.7216C166.939 35.0104 166.617 35.2685 166.196 35.4957C165.779 35.7183 165.216 35.8295 164.506 35.8295C163.625 35.8295 162.834 35.6212 162.134 35.2045C161.438 34.7879 160.886 34.1818 160.479 33.3864C160.076 32.5909 159.875 31.625 159.875 30.4886C159.875 29.3712 160.072 28.3982 160.465 27.5696C160.858 26.7363 161.404 26.0923 162.105 25.6378C162.806 25.1785 163.616 24.9489 164.534 24.9489C165.244 24.9489 165.808 25.0672 166.225 25.304C166.646 25.536 166.968 25.8011 167.19 26.0994C167.418 26.393 167.593 26.6345 167.716 26.8239H167.886V25.0909H169.506V36.3125C169.506 37.25 169.293 38.0123 168.867 38.5994C168.445 39.1913 167.877 39.6245 167.162 39.8991C166.452 40.1785 165.661 40.3182 164.79 40.3182ZM164.733 34.3239C165.405 34.3239 165.974 34.17 166.438 33.8622C166.902 33.5545 167.254 33.1117 167.496 32.5341C167.737 31.9564 167.858 31.2652 167.858 30.4602C167.858 29.6742 167.74 28.9806 167.503 28.3793C167.266 27.7779 166.916 27.3068 166.452 26.9659C165.988 26.625 165.415 26.4545 164.733 26.4545C164.023 26.4545 163.431 26.6345 162.957 26.9943C162.489 27.3542 162.136 27.8371 161.899 28.4432C161.667 29.0492 161.551 29.7216 161.551 30.4602C161.551 31.2178 161.67 31.8878 161.906 32.4702C162.148 33.0478 162.503 33.5024 162.972 33.8338C163.445 34.1605 164.032 34.3239 164.733 34.3239ZM172.174 36V25.0909H173.85V36H172.174ZM173.026 23.2727C172.7 23.2727 172.418 23.1615 172.181 22.9389C171.949 22.7164 171.833 22.4489 171.833 22.1364C171.833 21.8239 171.949 21.5563 172.181 21.3338C172.418 21.1113 172.7 21 173.026 21C173.353 21 173.632 21.1113 173.864 21.3338C174.101 21.5563 174.219 21.8239 174.219 22.1364C174.219 22.4489 174.101 22.7164 173.864 22.9389C173.632 23.1615 173.353 23.2727 173.026 23.2727ZM178.196 29.4375V36H176.52V25.0909H178.139V26.7955H178.281C178.537 26.2415 178.925 25.7964 179.446 25.4602C179.967 25.1193 180.639 24.9489 181.463 24.9489C182.202 24.9489 182.848 25.1004 183.402 25.4034C183.956 25.7017 184.387 26.1562 184.695 26.767C185.003 27.3731 185.156 28.1402 185.156 29.0682V36H183.48V29.1818C183.48 28.3248 183.258 27.6572 182.813 27.179C182.368 26.696 181.757 26.4545 180.98 26.4545C180.445 26.4545 179.967 26.5705 179.546 26.8026C179.129 27.0346 178.8 27.3731 178.558 27.8182C178.317 28.2633 178.196 28.803 178.196 29.4375ZM192.393 36.2273C191.342 36.2273 190.435 35.9953 189.673 35.5312C188.915 35.0625 188.331 34.4091 187.919 33.571C187.511 32.7282 187.308 31.7481 187.308 30.6307C187.308 29.5133 187.511 28.5284 187.919 27.6761C188.331 26.8191 188.904 26.1515 189.637 25.6733C190.376 25.1903 191.238 24.9489 192.223 24.9489C192.791 24.9489 193.352 25.0436 193.906 25.233C194.46 25.4223 194.964 25.7301 195.419 26.1562C195.873 26.5777 196.235 27.1364 196.505 27.8324C196.775 28.5284 196.91 29.3854 196.91 30.4034V31.1136H188.501V29.6648H195.206C195.206 29.0492 195.083 28.5 194.836 28.017C194.595 27.5341 194.249 27.1529 193.799 26.8736C193.354 26.5942 192.829 26.4545 192.223 26.4545C191.555 26.4545 190.977 26.6203 190.49 26.9517C190.007 27.2784 189.635 27.7045 189.375 28.2301C189.114 28.7557 188.984 29.3191 188.984 29.9205V30.8864C188.984 31.7102 189.126 32.4086 189.41 32.9815C189.699 33.5497 190.099 33.983 190.61 34.2812C191.122 34.5748 191.716 34.7216 192.393 34.7216C192.833 34.7216 193.231 34.66 193.586 34.5369C193.946 34.4091 194.256 34.2197 194.517 33.9688C194.777 33.7131 194.978 33.3958 195.12 33.017L196.74 33.4716C196.569 34.0208 196.283 34.5038 195.88 34.9205C195.478 35.3324 194.981 35.6544 194.389 35.8864C193.797 36.1136 193.132 36.2273 192.393 36.2273ZM203.634 36.2273C202.583 36.2273 201.676 35.9953 200.914 35.5312C200.156 35.0625 199.571 34.4091 199.159 33.571C198.752 32.7282 198.549 31.7481 198.549 30.6307C198.549 29.5133 198.752 28.5284 199.159 27.6761C199.571 26.8191 200.144 26.1515 200.878 25.6733C201.617 25.1903 202.478 24.9489 203.463 24.9489C204.031 24.9489 204.593 25.0436 205.147 25.233C205.7 25.4223 206.205 25.7301 206.659 26.1562C207.114 26.5777 207.476 27.1364 207.746 27.8324C208.016 28.5284 208.151 29.3854 208.151 30.4034V31.1136H199.742V29.6648H206.446C206.446 29.0492 206.323 28.5 206.077 28.017C205.835 27.5341 205.49 27.1529 205.04 26.8736C204.595 26.5942 204.069 26.4545 203.463 26.4545C202.796 26.4545 202.218 26.6203 201.73 26.9517C201.247 27.2784 200.876 27.7045 200.615 28.2301C200.355 28.7557 200.225 29.3191 200.225 29.9205V30.8864C200.225 31.7102 200.367 32.4086 200.651 32.9815C200.94 33.5497 201.34 33.983 201.851 34.2812C202.362 34.5748 202.957 34.7216 203.634 34.7216C204.074 34.7216 204.472 34.66 204.827 34.5369C205.187 34.4091 205.497 34.2197 205.757 33.9688C206.018 33.7131 206.219 33.3958 206.361 33.017L207.98 33.4716C207.81 34.0208 207.523 34.5038 207.121 34.9205C206.718 35.3324 206.221 35.6544 205.629 35.8864C205.038 36.1136 204.372 36.2273 203.634 36.2273ZM210.3 36V25.0909H211.92V26.7386H212.033C212.232 26.1989 212.592 25.7609 213.113 25.4247C213.634 25.0885 214.221 24.9205 214.874 24.9205C214.997 24.9205 215.151 24.9228 215.336 24.9276C215.521 24.9323 215.66 24.9394 215.755 24.9489V26.6534C215.698 26.6392 215.568 26.6179 215.364 26.5895C215.166 26.5563 214.955 26.5398 214.732 26.5398C214.202 26.5398 213.729 26.651 213.312 26.8736C212.9 27.0914 212.573 27.3944 212.332 27.7827C212.095 28.1662 211.977 28.6042 211.977 29.0966V36H210.3ZM217.342 36V25.0909H219.018V36H217.342ZM218.194 23.2727C217.867 23.2727 217.586 23.1615 217.349 22.9389C217.117 22.7164 217.001 22.4489 217.001 22.1364C217.001 21.8239 217.117 21.5563 217.349 21.3338C217.586 21.1113 217.867 21 218.194 21C218.521 21 218.8 21.1113 219.032 21.3338C219.269 21.5563 219.387 21.8239 219.387 22.1364C219.387 22.4489 219.269 22.7164 219.032 22.9389C218.8 23.1615 218.521 23.2727 218.194 23.2727ZM223.364 29.4375V36H221.688V25.0909H223.307V26.7955H223.449C223.705 26.2415 224.093 25.7964 224.614 25.4602C225.135 25.1193 225.807 24.9489 226.631 24.9489C227.37 24.9489 228.016 25.1004 228.57 25.4034C229.124 25.7017 229.555 26.1562 229.863 26.767C230.17 27.3731 230.324 28.1402 230.324 29.0682V36H228.648V29.1818C228.648 28.3248 228.426 27.6572 227.981 27.179C227.536 26.696 226.925 26.4545 226.148 26.4545C225.613 26.4545 225.135 26.5705 224.714 26.8026C224.297 27.0346 223.968 27.3731 223.726 27.8182C223.485 28.2633 223.364 28.803 223.364 29.4375ZM237.391 40.3182C236.581 40.3182 235.885 40.214 235.303 40.0057C234.72 39.8021 234.235 39.5322 233.847 39.196C233.463 38.8646 233.158 38.5095 232.93 38.1307L234.266 37.1932C234.417 37.392 234.609 37.6193 234.841 37.875C235.073 38.1354 235.39 38.3603 235.793 38.5497C236.2 38.7438 236.732 38.8409 237.391 38.8409C238.271 38.8409 238.998 38.6278 239.571 38.2017C240.144 37.7756 240.43 37.108 240.43 36.1989V33.983H240.288C240.165 34.1818 239.99 34.428 239.763 34.7216C239.54 35.0104 239.218 35.2685 238.797 35.4957C238.38 35.7183 237.817 35.8295 237.107 35.8295C236.226 35.8295 235.435 35.6212 234.734 35.2045C234.038 34.7879 233.487 34.1818 233.08 33.3864C232.677 32.5909 232.476 31.625 232.476 30.4886C232.476 29.3712 232.672 28.3982 233.065 27.5696C233.458 26.7363 234.005 26.0923 234.706 25.6378C235.407 25.1785 236.216 24.9489 237.135 24.9489C237.845 24.9489 238.409 25.0672 238.825 25.304C239.247 25.536 239.569 25.8011 239.791 26.0994C240.018 26.393 240.194 26.6345 240.317 26.8239H240.487V25.0909H242.107V36.3125C242.107 37.25 241.893 38.0123 241.467 38.5994C241.046 39.1913 240.478 39.6245 239.763 39.8991C239.053 40.1785 238.262 40.3182 237.391 40.3182ZM237.334 34.3239C238.006 34.3239 238.574 34.17 239.038 33.8622C239.502 33.5545 239.855 33.1117 240.097 32.5341C240.338 31.9564 240.459 31.2652 240.459 30.4602C240.459 29.6742 240.34 28.9806 240.104 28.3793C239.867 27.7779 239.517 27.3068 239.053 26.9659C238.589 26.625 238.016 26.4545 237.334 26.4545C236.624 26.4545 236.032 26.6345 235.558 26.9943C235.089 27.3542 234.737 27.8371 234.5 28.4432C234.268 29.0492 234.152 29.7216 234.152 30.4602C234.152 31.2178 234.27 31.8878 234.507 32.4702C234.749 33.0478 235.104 33.5024 235.572 33.8338C236.046 34.1605 236.633 34.3239 237.334 34.3239Z" fill="white"/>
<rect x="622.5" y="110.5" width="194" height="56" rx="9.5" fill="#363636" stroke="#363636"/>
<path d="M675.761 131.455H677.864L682.807 143.528H682.977L687.92 131.455H690.023V146H688.375V134.949H688.233L683.688 146H682.097L677.551 134.949H677.409V146H675.761V131.455ZM696.137 146.256C695.446 146.256 694.819 146.125 694.255 145.865C693.692 145.6 693.244 145.219 692.913 144.722C692.581 144.22 692.416 143.614 692.416 142.903C692.416 142.278 692.539 141.772 692.785 141.384C693.031 140.991 693.36 140.683 693.772 140.46C694.184 140.238 694.639 140.072 695.136 139.963C695.638 139.849 696.142 139.759 696.649 139.693C697.312 139.608 697.849 139.544 698.261 139.501C698.678 139.454 698.981 139.376 699.17 139.267C699.364 139.158 699.461 138.969 699.461 138.699V138.642C699.461 137.941 699.269 137.397 698.886 137.009C698.507 136.62 697.932 136.426 697.16 136.426C696.36 136.426 695.732 136.601 695.278 136.952C694.823 137.302 694.504 137.676 694.319 138.074L692.728 137.506C693.012 136.843 693.391 136.327 693.865 135.957C694.343 135.583 694.864 135.323 695.427 135.176C695.995 135.025 696.554 134.949 697.103 134.949C697.454 134.949 697.856 134.991 698.311 135.077C698.77 135.157 699.213 135.325 699.639 135.581C700.07 135.837 700.427 136.223 700.711 136.739C700.995 137.255 701.137 137.946 701.137 138.812V146H699.461V144.523H699.376C699.262 144.759 699.073 145.013 698.808 145.283C698.543 145.553 698.19 145.782 697.75 145.972C697.309 146.161 696.772 146.256 696.137 146.256ZM696.393 144.75C697.056 144.75 697.615 144.62 698.069 144.359C698.528 144.099 698.874 143.763 699.106 143.351C699.343 142.939 699.461 142.506 699.461 142.051V140.517C699.39 140.602 699.234 140.68 698.992 140.751C698.756 140.818 698.481 140.877 698.169 140.929C697.861 140.976 697.56 141.019 697.267 141.057C696.978 141.09 696.743 141.118 696.563 141.142C696.128 141.199 695.721 141.291 695.342 141.419C694.968 141.542 694.665 141.729 694.433 141.98C694.205 142.226 694.092 142.562 694.092 142.989C694.092 143.571 694.307 144.011 694.738 144.31C695.174 144.603 695.725 144.75 696.393 144.75ZM703.797 146V135.091H705.416V136.739H705.53C705.728 136.199 706.088 135.761 706.609 135.425C707.13 135.089 707.717 134.92 708.37 134.92C708.494 134.92 708.647 134.923 708.832 134.928C709.017 134.932 709.156 134.939 709.251 134.949V136.653C709.194 136.639 709.064 136.618 708.861 136.589C708.662 136.556 708.451 136.54 708.228 136.54C707.698 136.54 707.225 136.651 706.808 136.874C706.396 137.091 706.069 137.394 705.828 137.783C705.591 138.166 705.473 138.604 705.473 139.097V146H703.797ZM712.4 142.023L712.372 139.949H712.713L717.486 135.091H719.56L714.474 140.233H714.332L712.4 142.023ZM710.838 146V131.455H712.514V146H710.838ZM717.77 146L713.508 140.602L714.702 139.438L719.9 146H717.77ZM725.442 146.227C724.39 146.227 723.484 145.995 722.721 145.531C721.964 145.062 721.379 144.409 720.967 143.571C720.56 142.728 720.356 141.748 720.356 140.631C720.356 139.513 720.56 138.528 720.967 137.676C721.379 136.819 721.952 136.152 722.686 135.673C723.425 135.19 724.286 134.949 725.271 134.949C725.839 134.949 726.4 135.044 726.954 135.233C727.508 135.422 728.013 135.73 728.467 136.156C728.922 136.578 729.284 137.136 729.554 137.832C729.824 138.528 729.959 139.385 729.959 140.403V141.114H721.55V139.665H728.254C728.254 139.049 728.131 138.5 727.885 138.017C727.643 137.534 727.298 137.153 726.848 136.874C726.403 136.594 725.877 136.455 725.271 136.455C724.603 136.455 724.026 136.62 723.538 136.952C723.055 137.278 722.684 137.705 722.423 138.23C722.163 138.756 722.032 139.319 722.032 139.92V140.886C722.032 141.71 722.175 142.409 722.459 142.982C722.747 143.55 723.148 143.983 723.659 144.281C724.17 144.575 724.764 144.722 725.442 144.722C725.882 144.722 726.28 144.66 726.635 144.537C726.995 144.409 727.305 144.22 727.565 143.969C727.826 143.713 728.027 143.396 728.169 143.017L729.788 143.472C729.618 144.021 729.331 144.504 728.929 144.92C728.526 145.332 728.029 145.654 727.437 145.886C726.845 146.114 726.18 146.227 725.442 146.227ZM736.853 135.091V136.511H731.199V135.091H736.853ZM732.847 132.477H734.523V142.875C734.523 143.348 734.592 143.704 734.729 143.94C734.871 144.172 735.051 144.329 735.269 144.409C735.491 144.485 735.726 144.523 735.972 144.523C736.157 144.523 736.308 144.513 736.426 144.494C736.545 144.471 736.64 144.452 736.711 144.438L737.051 145.943C736.938 145.986 736.779 146.028 736.576 146.071C736.372 146.118 736.114 146.142 735.801 146.142C735.328 146.142 734.864 146.04 734.409 145.837C733.96 145.633 733.586 145.323 733.287 144.906C732.994 144.49 732.847 143.964 732.847 143.33V132.477ZM738.974 146V135.091H740.65V146H738.974ZM739.826 133.273C739.5 133.273 739.218 133.161 738.981 132.939C738.749 132.716 738.633 132.449 738.633 132.136C738.633 131.824 738.749 131.556 738.981 131.334C739.218 131.111 739.5 131 739.826 131C740.153 131 740.432 131.111 740.664 131.334C740.901 131.556 741.019 131.824 741.019 132.136C741.019 132.449 740.901 132.716 740.664 132.939C740.432 133.161 740.153 133.273 739.826 133.273ZM744.996 139.438V146H743.32V135.091H744.939V136.795H745.081C745.337 136.241 745.725 135.796 746.246 135.46C746.767 135.119 747.439 134.949 748.263 134.949C749.002 134.949 749.648 135.1 750.202 135.403C750.756 135.702 751.187 136.156 751.495 136.767C751.803 137.373 751.956 138.14 751.956 139.068V146H750.28V139.182C750.28 138.325 750.058 137.657 749.613 137.179C749.168 136.696 748.557 136.455 747.78 136.455C747.245 136.455 746.767 136.571 746.346 136.803C745.929 137.035 745.6 137.373 745.358 137.818C745.117 138.263 744.996 138.803 744.996 139.438ZM759.023 150.318C758.213 150.318 757.517 150.214 756.935 150.006C756.352 149.802 755.867 149.532 755.479 149.196C755.095 148.865 754.79 148.509 754.562 148.131L755.898 147.193C756.049 147.392 756.241 147.619 756.473 147.875C756.705 148.135 757.022 148.36 757.425 148.55C757.832 148.744 758.365 148.841 759.023 148.841C759.903 148.841 760.63 148.628 761.203 148.202C761.776 147.776 762.062 147.108 762.062 146.199V143.983H761.92C761.797 144.182 761.622 144.428 761.395 144.722C761.172 145.01 760.85 145.268 760.429 145.496C760.012 145.718 759.449 145.83 758.739 145.83C757.858 145.83 757.067 145.621 756.366 145.205C755.67 144.788 755.119 144.182 754.712 143.386C754.309 142.591 754.108 141.625 754.108 140.489C754.108 139.371 754.304 138.398 754.697 137.57C755.09 136.736 755.637 136.092 756.338 135.638C757.039 135.179 757.848 134.949 758.767 134.949C759.477 134.949 760.041 135.067 760.457 135.304C760.879 135.536 761.201 135.801 761.423 136.099C761.651 136.393 761.826 136.634 761.949 136.824H762.119V135.091H763.739V146.312C763.739 147.25 763.526 148.012 763.099 148.599C762.678 149.191 762.11 149.625 761.395 149.899C760.685 150.179 759.894 150.318 759.023 150.318ZM758.966 144.324C759.638 144.324 760.206 144.17 760.67 143.862C761.134 143.554 761.487 143.112 761.729 142.534C761.97 141.956 762.091 141.265 762.091 140.46C762.091 139.674 761.972 138.981 761.736 138.379C761.499 137.778 761.149 137.307 760.685 136.966C760.221 136.625 759.648 136.455 758.966 136.455C758.256 136.455 757.664 136.634 757.19 136.994C756.722 137.354 756.369 137.837 756.132 138.443C755.9 139.049 755.784 139.722 755.784 140.46C755.784 141.218 755.902 141.888 756.139 142.47C756.381 143.048 756.736 143.502 757.204 143.834C757.678 144.161 758.265 144.324 758.966 144.324Z" fill="white"/>
<rect x="678.5" y="363.5" width="194" height="56" rx="9.5" fill="#363636" stroke="#363636"/>
<path d="M739.034 391.727C739.034 393.261 738.757 394.587 738.203 395.705C737.649 396.822 736.889 397.684 735.923 398.29C734.957 398.896 733.854 399.199 732.614 399.199C731.373 399.199 730.27 398.896 729.304 398.29C728.338 397.684 727.578 396.822 727.024 395.705C726.47 394.587 726.193 393.261 726.193 391.727C726.193 390.193 726.47 388.867 727.024 387.75C727.578 386.633 728.338 385.771 729.304 385.165C730.27 384.559 731.373 384.256 732.614 384.256C733.854 384.256 734.957 384.559 735.923 385.165C736.889 385.771 737.649 386.633 738.203 387.75C738.757 388.867 739.034 390.193 739.034 391.727ZM737.33 391.727C737.33 390.468 737.119 389.405 736.697 388.538C736.281 387.672 735.715 387.016 735 386.571C734.29 386.126 733.494 385.903 732.614 385.903C731.733 385.903 730.935 386.126 730.22 386.571C729.51 387.016 728.944 387.672 728.523 388.538C728.106 389.405 727.898 390.468 727.898 391.727C727.898 392.987 728.106 394.05 728.523 394.916C728.944 395.783 729.51 396.438 730.22 396.884C730.935 397.329 731.733 397.551 732.614 397.551C733.494 397.551 734.29 397.329 735 396.884C735.715 396.438 736.281 395.783 736.697 394.916C737.119 394.05 737.33 392.987 737.33 391.727ZM741.368 403.091V388.091H742.988V389.824H743.187C743.31 389.634 743.48 389.393 743.698 389.099C743.921 388.801 744.238 388.536 744.65 388.304C745.066 388.067 745.63 387.949 746.34 387.949C747.259 387.949 748.068 388.179 748.769 388.638C749.47 389.097 750.017 389.748 750.41 390.591C750.803 391.434 750.999 392.428 750.999 393.574C750.999 394.729 750.803 395.731 750.41 396.578C750.017 397.421 749.472 398.074 748.776 398.538C748.08 398.998 747.278 399.227 746.368 399.227C745.668 399.227 745.107 399.111 744.685 398.879C744.264 398.643 743.939 398.375 743.712 398.077C743.485 397.774 743.31 397.523 743.187 397.324H743.045V403.091H741.368ZM743.016 393.545C743.016 394.369 743.137 395.096 743.378 395.726C743.62 396.351 743.973 396.841 744.437 397.196C744.901 397.546 745.469 397.722 746.141 397.722C746.842 397.722 747.427 397.537 747.895 397.168C748.369 396.794 748.724 396.292 748.961 395.662C749.202 395.027 749.323 394.322 749.323 393.545C749.323 392.778 749.205 392.087 748.968 391.472C748.736 390.851 748.383 390.361 747.91 390.001C747.441 389.637 746.851 389.455 746.141 389.455C745.459 389.455 744.886 389.627 744.422 389.973C743.958 390.314 743.608 390.792 743.371 391.408C743.135 392.018 743.016 392.731 743.016 393.545ZM757.73 399.227C756.679 399.227 755.772 398.995 755.01 398.531C754.252 398.062 753.667 397.409 753.255 396.571C752.848 395.728 752.645 394.748 752.645 393.631C752.645 392.513 752.848 391.528 753.255 390.676C753.667 389.819 754.24 389.152 754.974 388.673C755.713 388.19 756.575 387.949 757.559 387.949C758.128 387.949 758.689 388.044 759.243 388.233C759.797 388.422 760.301 388.73 760.755 389.156C761.21 389.578 761.572 390.136 761.842 390.832C762.112 391.528 762.247 392.385 762.247 393.403V394.114H753.838V392.665H760.542C760.542 392.049 760.419 391.5 760.173 391.017C759.932 390.534 759.586 390.153 759.136 389.874C758.691 389.594 758.165 389.455 757.559 389.455C756.892 389.455 756.314 389.62 755.826 389.952C755.343 390.278 754.972 390.705 754.711 391.23C754.451 391.756 754.321 392.319 754.321 392.92V393.886C754.321 394.71 754.463 395.409 754.747 395.982C755.036 396.55 755.436 396.983 755.947 397.281C756.459 397.575 757.053 397.722 757.73 397.722C758.17 397.722 758.568 397.66 758.923 397.537C759.283 397.409 759.593 397.22 759.853 396.969C760.114 396.713 760.315 396.396 760.457 396.017L762.076 396.472C761.906 397.021 761.62 397.504 761.217 397.92C760.815 398.332 760.317 398.654 759.726 398.886C759.134 399.114 758.468 399.227 757.73 399.227ZM764.397 399V388.091H766.016V389.739H766.13C766.328 389.199 766.688 388.761 767.209 388.425C767.73 388.089 768.317 387.92 768.97 387.92C769.094 387.92 769.247 387.923 769.432 387.928C769.617 387.932 769.756 387.939 769.851 387.949V389.653C769.794 389.639 769.664 389.618 769.461 389.589C769.262 389.556 769.051 389.54 768.828 389.54C768.298 389.54 767.825 389.651 767.408 389.874C766.996 390.091 766.669 390.394 766.428 390.783C766.191 391.166 766.073 391.604 766.073 392.097V399H764.397ZM774.648 399.256C773.957 399.256 773.33 399.125 772.766 398.865C772.203 398.6 771.755 398.219 771.424 397.722C771.092 397.22 770.927 396.614 770.927 395.903C770.927 395.278 771.05 394.772 771.296 394.384C771.542 393.991 771.871 393.683 772.283 393.46C772.695 393.238 773.15 393.072 773.647 392.963C774.149 392.849 774.653 392.759 775.16 392.693C775.822 392.608 776.36 392.544 776.772 392.501C777.188 392.454 777.492 392.376 777.681 392.267C777.875 392.158 777.972 391.969 777.972 391.699V391.642C777.972 390.941 777.78 390.397 777.397 390.009C777.018 389.62 776.443 389.426 775.671 389.426C774.871 389.426 774.243 389.601 773.789 389.952C773.334 390.302 773.015 390.676 772.83 391.074L771.239 390.506C771.523 389.843 771.902 389.327 772.375 388.957C772.854 388.583 773.375 388.323 773.938 388.176C774.506 388.025 775.065 387.949 775.614 387.949C775.965 387.949 776.367 387.991 776.822 388.077C777.281 388.157 777.724 388.325 778.15 388.581C778.581 388.837 778.938 389.223 779.222 389.739C779.506 390.255 779.648 390.946 779.648 391.812V399H777.972V397.523H777.887C777.773 397.759 777.584 398.013 777.319 398.283C777.054 398.553 776.701 398.782 776.26 398.972C775.82 399.161 775.283 399.256 774.648 399.256ZM774.904 397.75C775.567 397.75 776.125 397.62 776.58 397.359C777.039 397.099 777.385 396.763 777.617 396.351C777.854 395.939 777.972 395.506 777.972 395.051V393.517C777.901 393.602 777.745 393.68 777.503 393.751C777.267 393.818 776.992 393.877 776.679 393.929C776.372 393.976 776.071 394.019 775.777 394.057C775.489 394.09 775.254 394.118 775.074 394.142C774.639 394.199 774.232 394.291 773.853 394.419C773.479 394.542 773.176 394.729 772.944 394.98C772.716 395.226 772.603 395.562 772.603 395.989C772.603 396.571 772.818 397.011 773.249 397.31C773.685 397.603 774.236 397.75 774.904 397.75ZM787.052 388.091V389.511H781.398V388.091H787.052ZM783.046 385.477H784.722V395.875C784.722 396.348 784.791 396.704 784.928 396.94C785.07 397.172 785.25 397.329 785.468 397.409C785.691 397.485 785.925 397.523 786.171 397.523C786.356 397.523 786.507 397.513 786.626 397.494C786.744 397.471 786.839 397.452 786.91 397.438L787.251 398.943C787.137 398.986 786.978 399.028 786.775 399.071C786.571 399.118 786.313 399.142 786.001 399.142C785.527 399.142 785.063 399.04 784.609 398.837C784.159 398.633 783.785 398.323 783.487 397.906C783.193 397.49 783.046 396.964 783.046 396.33V385.477ZM789.173 399V388.091H790.849V399H789.173ZM790.025 386.273C789.699 386.273 789.417 386.161 789.18 385.939C788.948 385.716 788.832 385.449 788.832 385.136C788.832 384.824 788.948 384.556 789.18 384.334C789.417 384.111 789.699 384 790.025 384C790.352 384 790.631 384.111 790.863 384.334C791.1 384.556 791.219 384.824 791.219 385.136C791.219 385.449 791.1 385.716 790.863 385.939C790.631 386.161 790.352 386.273 790.025 386.273ZM797.951 399.227C796.966 399.227 796.102 398.993 795.359 398.524C794.62 398.055 794.042 397.4 793.626 396.557C793.214 395.714 793.008 394.729 793.008 393.602C793.008 392.466 793.214 391.474 793.626 390.626C794.042 389.779 794.62 389.121 795.359 388.652C796.102 388.183 796.966 387.949 797.951 387.949C798.936 387.949 799.798 388.183 800.536 388.652C801.28 389.121 801.857 389.779 802.269 390.626C802.686 391.474 802.894 392.466 802.894 393.602C802.894 394.729 802.686 395.714 802.269 396.557C801.857 397.4 801.28 398.055 800.536 398.524C799.798 398.993 798.936 399.227 797.951 399.227ZM797.951 397.722C798.699 397.722 799.315 397.53 799.798 397.146C800.281 396.763 800.638 396.259 800.87 395.634C801.102 395.009 801.218 394.331 801.218 393.602C801.218 392.873 801.102 392.194 800.87 391.564C800.638 390.934 800.281 390.425 799.798 390.037C799.315 389.649 798.699 389.455 797.951 389.455C797.203 389.455 796.587 389.649 796.104 390.037C795.622 390.425 795.264 390.934 795.032 391.564C794.8 392.194 794.684 392.873 794.684 393.602C794.684 394.331 794.8 395.009 795.032 395.634C795.264 396.259 795.622 396.763 796.104 397.146C796.587 397.53 797.203 397.722 797.951 397.722ZM806.729 392.438V399H805.053V388.091H806.672V389.795H806.814C807.07 389.241 807.458 388.796 807.979 388.46C808.5 388.119 809.172 387.949 809.996 387.949C810.735 387.949 811.381 388.1 811.935 388.403C812.489 388.702 812.92 389.156 813.228 389.767C813.535 390.373 813.689 391.14 813.689 392.068V399H812.013V392.182C812.013 391.325 811.791 390.657 811.345 390.179C810.9 389.696 810.29 389.455 809.513 389.455C808.978 389.455 808.5 389.571 808.078 389.803C807.662 390.035 807.333 390.373 807.091 390.818C806.85 391.263 806.729 391.803 806.729 392.438ZM824.079 390.534L822.574 390.96C822.479 390.709 822.339 390.465 822.155 390.229C821.975 389.987 821.728 389.788 821.416 389.632C821.103 389.476 820.703 389.398 820.216 389.398C819.548 389.398 818.992 389.552 818.547 389.859C818.106 390.162 817.886 390.548 817.886 391.017C817.886 391.434 818.038 391.763 818.341 392.004C818.644 392.246 819.117 392.447 819.761 392.608L821.38 393.006C822.356 393.242 823.083 393.605 823.561 394.092C824.039 394.575 824.278 395.198 824.278 395.96C824.278 396.585 824.098 397.144 823.738 397.636C823.383 398.129 822.886 398.517 822.247 398.801C821.608 399.085 820.864 399.227 820.017 399.227C818.904 399.227 817.983 398.986 817.254 398.503C816.525 398.02 816.063 397.314 815.869 396.386L817.46 395.989C817.612 396.576 817.898 397.016 818.319 397.31C818.746 397.603 819.302 397.75 819.988 397.75C820.77 397.75 821.39 397.584 821.849 397.253C822.313 396.917 822.545 396.514 822.545 396.045C822.545 395.667 822.413 395.349 822.148 395.094C821.882 394.833 821.475 394.639 820.926 394.511L819.108 394.085C818.109 393.848 817.375 393.482 816.906 392.984C816.442 392.482 816.21 391.855 816.21 391.102C816.21 390.487 816.383 389.942 816.728 389.469C817.079 388.995 817.555 388.624 818.156 388.354C818.762 388.084 819.449 387.949 820.216 387.949C821.295 387.949 822.143 388.186 822.758 388.659C823.379 389.133 823.819 389.758 824.079 390.534Z" fill="white"/>
<rect x="0.5" y="385.5" width="194" height="56" rx="9.5" fill="#363636" stroke="#363636"/>
<path d="M75.7045 411C75.5483 410.522 75.3423 410.093 75.0866 409.714C74.8357 409.331 74.535 409.004 74.1847 408.734C73.839 408.464 73.446 408.259 73.0057 408.116C72.5653 407.974 72.0824 407.903 71.5568 407.903C70.6951 407.903 69.9115 408.126 69.206 408.571C68.5005 409.016 67.9394 409.672 67.5227 410.538C67.1061 411.405 66.8977 412.468 66.8977 413.727C66.8977 414.987 67.1084 416.05 67.5298 416.916C67.9512 417.783 68.5218 418.438 69.2415 418.884C69.9612 419.329 70.7708 419.551 71.6705 419.551C72.5038 419.551 73.2377 419.374 73.8722 419.018C74.5114 418.659 75.0085 418.152 75.3636 417.499C75.7235 416.84 75.9034 416.066 75.9034 415.176L76.4432 415.29H72.0682V413.727H77.608V415.29C77.608 416.488 77.3523 417.529 76.8409 418.415C76.3343 419.3 75.6335 419.987 74.7386 420.474C73.8485 420.957 72.8258 421.199 71.6705 421.199C70.3826 421.199 69.2509 420.896 68.2756 420.29C67.3049 419.684 66.5473 418.822 66.0028 417.705C65.4631 416.587 65.1932 415.261 65.1932 413.727C65.1932 412.577 65.3471 411.542 65.6548 410.624C65.9673 409.7 66.4077 408.914 66.9759 408.266C67.544 407.617 68.2164 407.12 68.9929 406.774C69.7694 406.429 70.6241 406.256 71.5568 406.256C72.3239 406.256 73.0388 406.372 73.7017 406.604C74.3693 406.831 74.9635 407.155 75.4844 407.577C76.0099 407.993 76.4479 408.493 76.7983 409.075C77.1487 409.653 77.3902 410.295 77.5227 411H75.7045ZM79.9974 421V410.091H81.6167V411.739H81.7303C81.9292 411.199 82.289 410.761 82.8099 410.425C83.3307 410.089 83.9178 409.92 84.5712 409.92C84.6943 409.92 84.8482 409.923 85.0329 409.928C85.2175 409.932 85.3572 409.939 85.4519 409.949V411.653C85.3951 411.639 85.2649 411.618 85.0613 411.589C84.8624 411.556 84.6517 411.54 84.4292 411.54C83.8989 411.54 83.4254 411.651 83.0087 411.874C82.5968 412.091 82.2701 412.394 82.0286 412.783C81.7919 413.166 81.6735 413.604 81.6735 414.097V421H79.9974ZM91.1386 421.227C90.1537 421.227 89.2896 420.993 88.5462 420.524C87.8076 420.055 87.2299 419.4 86.8133 418.557C86.4014 417.714 86.1954 416.729 86.1954 415.602C86.1954 414.466 86.4014 413.474 86.8133 412.626C87.2299 411.779 87.8076 411.121 88.5462 410.652C89.2896 410.183 90.1537 409.949 91.1386 409.949C92.1234 409.949 92.9852 410.183 93.7238 410.652C94.4672 411.121 95.0448 411.779 95.4567 412.626C95.8734 413.474 96.0817 414.466 96.0817 415.602C96.0817 416.729 95.8734 417.714 95.4567 418.557C95.0448 419.4 94.4672 420.055 93.7238 420.524C92.9852 420.993 92.1234 421.227 91.1386 421.227ZM91.1386 419.722C91.8867 419.722 92.5022 419.53 92.9852 419.146C93.4681 418.763 93.8256 418.259 94.0576 417.634C94.2896 417.009 94.4056 416.331 94.4056 415.602C94.4056 414.873 94.2896 414.194 94.0576 413.564C93.8256 412.934 93.4681 412.425 92.9852 412.037C92.5022 411.649 91.8867 411.455 91.1386 411.455C90.3905 411.455 89.7749 411.649 89.292 412.037C88.809 412.425 88.4515 412.934 88.2195 413.564C87.9875 414.194 87.8715 414.873 87.8715 415.602C87.8715 416.331 87.9875 417.009 88.2195 417.634C88.4515 418.259 88.809 418.763 89.292 419.146C89.7749 419.53 90.3905 419.722 91.1386 419.722ZM100.341 421L97.017 410.091H98.7783L101.136 418.443H101.25L103.579 410.091H105.369L107.67 418.415H107.784L110.142 410.091H111.903L108.579 421H106.932L104.545 412.619H104.375L101.989 421H100.341ZM118.464 410.091V411.511H112.81V410.091H118.464ZM114.458 407.477H116.134V417.875C116.134 418.348 116.203 418.704 116.34 418.94C116.482 419.172 116.662 419.329 116.88 419.409C117.102 419.485 117.337 419.523 117.583 419.523C117.768 419.523 117.919 419.513 118.037 419.494C118.156 419.471 118.25 419.452 118.322 419.438L118.662 420.943C118.549 420.986 118.39 421.028 118.187 421.071C117.983 421.118 117.725 421.142 117.412 421.142C116.939 421.142 116.475 421.04 116.02 420.837C115.571 420.633 115.197 420.323 114.898 419.906C114.605 419.49 114.458 418.964 114.458 418.33V407.477ZM122.495 414.438V421H120.819V406.455H122.495V411.795H122.637C122.893 411.232 123.277 410.785 123.788 410.453C124.304 410.117 124.991 409.949 125.848 409.949C126.591 409.949 127.242 410.098 127.801 410.396C128.359 410.69 128.793 411.142 129.1 411.753C129.413 412.359 129.569 413.131 129.569 414.068V421H127.893V414.182C127.893 413.315 127.668 412.645 127.218 412.172C126.773 411.694 126.155 411.455 125.365 411.455C124.815 411.455 124.323 411.571 123.887 411.803C123.457 412.035 123.116 412.373 122.865 412.818C122.618 413.263 122.495 413.803 122.495 414.438Z" fill="white"/>
<rect x="0.5" y="185.5" width="167" height="48" rx="9.5" fill="#363636" stroke="#363636"/>
<path d="M69.7727 206.273C69.7045 205.697 69.428 205.25 68.9432 204.932C68.4583 204.614 67.8636 204.455 67.1591 204.455C66.6439 204.455 66.1932 204.538 65.8068 204.705C65.4242 204.871 65.125 205.1 64.9091 205.392C64.697 205.684 64.5909 206.015 64.5909 206.386C64.5909 206.697 64.6648 206.964 64.8125 207.188C64.964 207.407 65.1572 207.591 65.392 207.739C65.6269 207.883 65.8731 208.002 66.1307 208.097C66.3883 208.187 66.625 208.261 66.8409 208.318L68.0227 208.636C68.3258 208.716 68.6629 208.826 69.0341 208.966C69.4091 209.106 69.767 209.297 70.108 209.54C70.4527 209.778 70.7367 210.085 70.9602 210.46C71.1837 210.835 71.2955 211.295 71.2955 211.841C71.2955 212.47 71.1307 213.038 70.8011 213.545C70.4754 214.053 69.9981 214.456 69.3693 214.756C68.7443 215.055 67.9848 215.205 67.0909 215.205C66.2576 215.205 65.536 215.07 64.9261 214.801C64.3201 214.532 63.8428 214.157 63.4943 213.676C63.1496 213.195 62.9545 212.636 62.9091 212H64.3636C64.4015 212.439 64.5492 212.803 64.8068 213.091C65.0682 213.375 65.3977 213.587 65.7955 213.727C66.197 213.864 66.6288 213.932 67.0909 213.932C67.6288 213.932 68.1117 213.845 68.5398 213.67C68.9678 213.492 69.3068 213.246 69.5568 212.932C69.8068 212.614 69.9318 212.242 69.9318 211.818C69.9318 211.432 69.8239 211.117 69.608 210.875C69.392 210.633 69.108 210.436 68.7557 210.284C68.4034 210.133 68.0227 210 67.6136 209.886L66.1818 209.477C65.2727 209.216 64.553 208.843 64.0227 208.358C63.4924 207.873 63.2273 207.239 63.2273 206.455C63.2273 205.803 63.4034 205.235 63.7557 204.75C64.1117 204.261 64.589 203.883 65.1875 203.614C65.7898 203.341 66.4621 203.205 67.2045 203.205C67.9545 203.205 68.6212 203.339 69.2045 203.608C69.7879 203.873 70.25 204.237 70.5909 204.699C70.9356 205.161 71.1174 205.686 71.1364 206.273H69.7727ZM75.6786 215.205C75.1255 215.205 74.6237 215.1 74.1729 214.892C73.7221 214.68 73.3642 214.375 73.099 213.977C72.8339 213.576 72.7013 213.091 72.7013 212.523C72.7013 212.023 72.7998 211.617 72.9968 211.307C73.1937 210.992 73.457 210.746 73.7865 210.568C74.1161 210.39 74.4797 210.258 74.8774 210.17C75.279 210.08 75.6824 210.008 76.0877 209.955C76.618 209.886 77.0479 209.835 77.3774 209.801C77.7108 209.763 77.9532 209.701 78.1047 209.614C78.26 209.527 78.3377 209.375 78.3377 209.159V209.114C78.3377 208.553 78.1843 208.117 77.8774 207.807C77.5744 207.496 77.1142 207.341 76.4968 207.341C75.8566 207.341 75.3547 207.481 74.9911 207.761C74.6274 208.042 74.3718 208.341 74.224 208.659L72.9513 208.205C73.1786 207.674 73.4816 207.261 73.8604 206.966C74.243 206.667 74.6596 206.458 75.1104 206.341C75.5649 206.22 76.0119 206.159 76.4513 206.159C76.7316 206.159 77.0536 206.193 77.4172 206.261C77.7846 206.326 78.1388 206.46 78.4797 206.665C78.8244 206.869 79.1104 207.178 79.3377 207.591C79.5649 208.004 79.6786 208.557 79.6786 209.25V215H78.3377V213.818H78.2695C78.1786 214.008 78.0271 214.21 77.8149 214.426C77.6028 214.642 77.3206 214.826 76.9684 214.977C76.6161 215.129 76.1862 215.205 75.6786 215.205ZM75.8831 214C76.4134 214 76.8604 213.896 77.224 213.688C77.5915 213.479 77.868 213.21 78.0536 212.881C78.243 212.551 78.3377 212.205 78.3377 211.841V210.614C78.2809 210.682 78.1559 210.744 77.9627 210.801C77.7733 210.854 77.5536 210.902 77.3036 210.943C77.0574 210.981 76.8168 211.015 76.582 211.045C76.3509 211.072 76.1634 211.095 76.0195 211.114C75.671 211.159 75.3452 211.233 75.0422 211.335C74.743 211.434 74.5005 211.583 74.3149 211.784C74.1331 211.981 74.0422 212.25 74.0422 212.591C74.0422 213.057 74.2146 213.409 74.5593 213.648C74.9077 213.883 75.349 214 75.8831 214ZM83.1469 203.364V215H81.806V203.364H83.1469ZM88.942 215.182C88.1011 215.182 87.3757 214.996 86.7659 214.625C86.1598 214.25 85.692 213.727 85.3624 213.057C85.0367 212.383 84.8738 211.598 84.8738 210.705C84.8738 209.811 85.0367 209.023 85.3624 208.341C85.692 207.655 86.1503 207.121 86.7374 206.739C87.3284 206.352 88.0177 206.159 88.8056 206.159C89.2602 206.159 89.709 206.235 90.1522 206.386C90.5954 206.538 90.9988 206.784 91.3624 207.125C91.7261 207.462 92.0159 207.909 92.2318 208.466C92.4477 209.023 92.5556 209.708 92.5556 210.523V211.091H85.8284V209.932H91.192C91.192 209.439 91.0935 209 90.8965 208.614C90.7034 208.227 90.4268 207.922 90.067 207.699C89.7109 207.475 89.2905 207.364 88.8056 207.364C88.2715 207.364 87.8094 207.496 87.4193 207.761C87.0329 208.023 86.7356 208.364 86.5272 208.784C86.3189 209.205 86.2147 209.655 86.2147 210.136V210.909C86.2147 211.568 86.3284 212.127 86.5556 212.585C86.7867 213.04 87.1068 213.386 87.5159 213.625C87.9249 213.86 88.4003 213.977 88.942 213.977C89.2943 213.977 89.6124 213.928 89.8965 213.83C90.1844 213.727 90.4325 213.576 90.6409 213.375C90.8492 213.17 91.0102 212.917 91.1238 212.614L92.4193 212.977C92.2829 213.417 92.0537 213.803 91.7318 214.136C91.4098 214.466 91.0121 214.723 90.5386 214.909C90.0651 215.091 89.5329 215.182 88.942 215.182ZM100.457 208.227L99.2527 208.568C99.1769 208.367 99.0652 208.172 98.9174 207.983C98.7735 207.79 98.5765 207.631 98.3265 207.506C98.0765 207.381 97.7565 207.318 97.3663 207.318C96.8322 207.318 96.3871 207.441 96.0311 207.688C95.6788 207.93 95.5027 208.239 95.5027 208.614C95.5027 208.947 95.6239 209.21 95.8663 209.403C96.1087 209.597 96.4875 209.758 97.0027 209.886L98.2981 210.205C99.0784 210.394 99.6599 210.684 100.042 211.074C100.425 211.46 100.616 211.958 100.616 212.568C100.616 213.068 100.472 213.515 100.184 213.909C99.9004 214.303 99.5027 214.614 98.9913 214.841C98.4799 215.068 97.8852 215.182 97.2072 215.182C96.3171 215.182 95.5803 214.989 94.997 214.602C94.4137 214.216 94.0443 213.652 93.889 212.909L95.1618 212.591C95.283 213.061 95.5121 213.413 95.8493 213.648C96.1902 213.883 96.6352 214 97.1845 214C97.8095 214 98.3057 213.867 98.6731 213.602C99.0443 213.333 99.2299 213.011 99.2299 212.636C99.2299 212.333 99.1239 212.08 98.9118 211.875C98.6996 211.667 98.3739 211.511 97.9345 211.409L96.4799 211.068C95.6807 210.879 95.0936 210.585 94.7186 210.188C94.3474 209.786 94.1618 209.284 94.1618 208.682C94.1618 208.189 94.3 207.754 94.5765 207.375C94.8568 206.996 95.2375 206.699 95.7186 206.483C96.2034 206.267 96.7527 206.159 97.3663 206.159C98.2299 206.159 98.908 206.348 99.4004 206.727C99.8966 207.106 100.249 207.606 100.457 208.227Z" fill="white"/>
<g filter="url(#filter0_d_29_1978)">
<rect x="278.5" y="101.5" width="300" height="300" rx="19.5" fill="url(#paint0_linear_29_1978)" stroke="url(#paint1_linear_29_1978)"/>
<path d="M298.818 146V122.727H301.636V143.5H312.455V146H298.818ZM316.436 122.727V146H313.618V122.727H316.436ZM318.887 122.727H322.251L330.16 142.045H330.432L338.341 122.727H341.705V146H339.069V128.318H338.841L331.569 146H329.023L321.751 128.318H321.523V146H318.887V122.727ZM344.156 146V122.727H358.201V125.227H346.974V133.091H357.474V135.591H346.974V143.5H358.383V146H344.156ZM360.081 146V122.727H362.899V143.5H373.717V146H360.081ZM377.699 122.727V146H374.881V122.727H377.699ZM396.059 130C395.809 129.235 395.479 128.549 395.07 127.943C394.668 127.33 394.187 126.807 393.627 126.375C393.074 125.943 392.445 125.614 391.74 125.386C391.036 125.159 390.263 125.045 389.422 125.045C388.043 125.045 386.79 125.402 385.661 126.114C384.532 126.826 383.634 127.875 382.968 129.261C382.301 130.648 381.968 132.348 381.968 134.364C381.968 136.379 382.305 138.08 382.979 139.466C383.653 140.852 384.566 141.902 385.718 142.614C386.869 143.326 388.165 143.682 389.604 143.682C390.937 143.682 392.112 143.398 393.127 142.83C394.149 142.254 394.945 141.443 395.513 140.398C396.089 139.345 396.377 138.106 396.377 136.682L397.24 136.864H390.24V134.364H399.104V136.864C399.104 138.78 398.695 140.447 397.877 141.864C397.066 143.28 395.945 144.379 394.513 145.159C393.089 145.932 391.452 146.318 389.604 146.318C387.543 146.318 385.733 145.833 384.172 144.864C382.619 143.894 381.407 142.515 380.536 140.727C379.672 138.939 379.24 136.818 379.24 134.364C379.24 132.523 379.487 130.867 379.979 129.398C380.479 127.92 381.184 126.663 382.093 125.625C383.002 124.587 384.077 123.792 385.32 123.239C386.562 122.686 387.93 122.409 389.422 122.409C390.649 122.409 391.793 122.595 392.854 122.966C393.922 123.33 394.873 123.848 395.706 124.523C396.547 125.189 397.248 125.989 397.809 126.92C398.369 127.845 398.755 128.871 398.968 130H396.059ZM400.731 146V122.727H403.549V133.091H415.958V122.727H418.776V146H415.958V135.591H403.549V146H400.731ZM419.945 125.227V122.727H437.4V125.227H430.082V146H427.264V125.227H419.945Z" fill="#727272"/>
<path d="M297.761 167V152.455H306.54V154.017H299.523V158.932H306.085V160.494H299.523V165.438H306.653V167H297.761ZM319.249 152.455V167H317.544L309.618 155.58H309.476V167H307.714V152.455H309.419L317.374 163.903H317.516V152.455H319.249ZM330.716 157C330.56 156.522 330.354 156.093 330.098 155.714C329.847 155.331 329.547 155.004 329.196 154.734C328.851 154.464 328.458 154.259 328.017 154.116C327.577 153.974 327.094 153.903 326.569 153.903C325.707 153.903 324.923 154.126 324.218 154.571C323.512 155.016 322.951 155.672 322.534 156.538C322.118 157.405 321.909 158.468 321.909 159.727C321.909 160.987 322.12 162.05 322.542 162.916C322.963 163.783 323.533 164.438 324.253 164.884C324.973 165.329 325.783 165.551 326.682 165.551C327.516 165.551 328.249 165.374 328.884 165.018C329.523 164.659 330.02 164.152 330.375 163.499C330.735 162.84 330.915 162.066 330.915 161.176L331.455 161.29H327.08V159.727H332.62V161.29C332.62 162.488 332.364 163.529 331.853 164.415C331.346 165.3 330.645 165.987 329.75 166.474C328.86 166.957 327.837 167.199 326.682 167.199C325.394 167.199 324.263 166.896 323.287 166.29C322.317 165.684 321.559 164.822 321.015 163.705C320.475 162.587 320.205 161.261 320.205 159.727C320.205 158.577 320.359 157.542 320.667 156.624C320.979 155.7 321.419 154.914 321.988 154.266C322.556 153.617 323.228 153.12 324.005 152.774C324.781 152.429 325.636 152.256 326.569 152.256C327.336 152.256 328.051 152.372 328.713 152.604C329.381 152.831 329.975 153.155 330.496 153.577C331.022 153.993 331.46 154.493 331.81 155.075C332.16 155.653 332.402 156.295 332.534 157H330.716ZM335.398 152.455V167H333.636V152.455H335.398ZM348.463 152.455V167H346.759L338.833 155.58H338.691V167H336.929V152.455H338.634L346.588 163.903H346.73V152.455H348.463ZM349.988 167V152.455H358.766V154.017H351.749V158.932H358.312V160.494H351.749V165.438H358.88V167H349.988Z" fill="#727272"/>
<path d="M519.358 367.455L523.676 379.699H523.847L528.165 367.455H530.011L524.67 382H522.852L517.511 367.455H519.358ZM535.135 367.455V382H533.374V369.301H533.288L529.737 371.659V369.869L533.374 367.455H535.135ZM537.709 382.114C537.358 382.114 537.058 381.988 536.807 381.737C536.556 381.486 536.43 381.186 536.43 380.835C536.43 380.485 536.556 380.184 536.807 379.933C537.058 379.682 537.358 379.557 537.709 379.557C538.059 379.557 538.36 379.682 538.611 379.933C538.862 380.184 538.987 380.485 538.987 380.835C538.987 381.067 538.928 381.28 538.81 381.474C538.696 381.669 538.542 381.825 538.348 381.943C538.159 382.057 537.946 382.114 537.709 382.114ZM544.203 382.199C543.133 382.199 542.222 381.908 541.469 381.325C540.716 380.738 540.141 379.888 539.743 378.776C539.345 377.658 539.146 376.309 539.146 374.727C539.146 373.155 539.345 371.813 539.743 370.7C540.145 369.583 540.723 368.731 541.476 368.143C542.233 367.552 543.143 367.256 544.203 367.256C545.264 367.256 546.17 367.552 546.923 368.143C547.681 368.731 548.259 369.583 548.656 370.7C549.059 371.813 549.26 373.155 549.26 374.727C549.26 376.309 549.061 377.658 548.663 378.776C548.266 379.888 547.69 380.738 546.938 381.325C546.185 381.908 545.273 382.199 544.203 382.199ZM544.203 380.636C545.264 380.636 546.088 380.125 546.675 379.102C547.262 378.08 547.555 376.621 547.555 374.727C547.555 373.468 547.42 372.395 547.151 371.51C546.885 370.625 546.502 369.95 546 369.486C545.503 369.022 544.904 368.79 544.203 368.79C543.152 368.79 542.33 369.308 541.739 370.345C541.147 371.377 540.851 372.838 540.851 374.727C540.851 375.987 540.983 377.057 541.249 377.938C541.514 378.818 541.895 379.488 542.392 379.947C542.894 380.407 543.498 380.636 544.203 380.636ZM555.072 367.455V382H553.311V369.301H553.226L549.675 371.659V369.869L553.311 367.455H555.072Z" fill="#727272"/>
<path d="M297.761 382V367.455H302.676C303.813 367.455 304.745 367.649 305.474 368.037C306.204 368.42 306.743 368.948 307.094 369.621C307.444 370.293 307.619 371.058 307.619 371.915C307.619 372.772 307.444 373.532 307.094 374.195C306.743 374.857 306.206 375.378 305.482 375.757C304.757 376.131 303.831 376.318 302.705 376.318H298.727V374.727H302.648C303.424 374.727 304.049 374.614 304.523 374.386C305.001 374.159 305.347 373.837 305.56 373.42C305.777 372.999 305.886 372.497 305.886 371.915C305.886 371.332 305.777 370.823 305.56 370.388C305.342 369.952 304.994 369.616 304.516 369.379C304.037 369.138 303.405 369.017 302.619 369.017H299.523V382H297.761ZM304.608 375.466L308.188 382H306.142L302.619 375.466H304.608ZM309.151 382H307.304L312.645 367.455H314.463L319.804 382H317.958L313.611 369.756H313.498L309.151 382ZM309.833 376.318H317.276V377.881H309.833V376.318ZM329.33 372C329.173 371.522 328.967 371.093 328.712 370.714C328.461 370.331 328.16 370.004 327.81 369.734C327.464 369.464 327.071 369.259 326.631 369.116C326.19 368.974 325.707 368.903 325.182 368.903C324.32 368.903 323.536 369.126 322.831 369.571C322.125 370.016 321.564 370.672 321.148 371.538C320.731 372.405 320.523 373.468 320.523 374.727C320.523 375.987 320.733 377.05 321.155 377.916C321.576 378.783 322.147 379.438 322.866 379.884C323.586 380.329 324.396 380.551 325.295 380.551C326.129 380.551 326.863 380.374 327.497 380.018C328.136 379.659 328.634 379.152 328.989 378.499C329.348 377.84 329.528 377.066 329.528 376.176L330.068 376.29H325.693V374.727H331.233V376.29C331.233 377.488 330.977 378.529 330.466 379.415C329.959 380.3 329.259 380.987 328.364 381.474C327.473 381.957 326.451 382.199 325.295 382.199C324.008 382.199 322.876 381.896 321.901 381.29C320.93 380.684 320.172 379.822 319.628 378.705C319.088 377.587 318.818 376.261 318.818 374.727C318.818 373.577 318.972 372.542 319.28 371.624C319.592 370.7 320.033 369.914 320.601 369.266C321.169 368.617 321.841 368.12 322.618 367.774C323.394 367.429 324.249 367.256 325.182 367.256C325.949 367.256 326.664 367.372 327.327 367.604C327.994 367.831 328.589 368.155 329.109 368.577C329.635 368.993 330.073 369.493 330.423 370.075C330.774 370.653 331.015 371.295 331.148 372H329.33Z" fill="#727272"/>
<path d="M401.469 211.833L410.829 194H450.17L460.438 211.833V273.781H442.653V211.833H401.469Z" fill="url(#paint2_linear_29_1978)" fill-opacity="0.933333" stroke="url(#paint3_linear_29_1978)"/>
<path d="M456.969 286.391L447.609 305L408.268 305L398 286.391L398 221.75L415.784 221.75L415.784 286.391L456.969 286.391Z" fill="url(#paint4_linear_29_1978)" fill-opacity="0.933333" stroke="url(#paint5_linear_29_1978)"/>
</g>
<defs>
<filter id="filter0_d_29_1978" x="179.8" y="27.8" width="473.4" height="473.4" filterUnits="userSpaceOnUse" color-interpolation-filters="sRGB">
<feFlood flood-opacity="0" result="BackgroundImageFix"/>
<feColorMatrix in="SourceAlpha" type="matrix" values="0 0 0 0 0 0 0 0 0 0 0 0 0 0 0 0 0 0 127 0" result="hardAlpha"/>
<feOffset dx="-12" dy="13"/>
<feGaussianBlur stdDeviation="43.1"/>
<feComposite in2="hardAlpha" operator="out"/>
<feColorMatrix type="matrix" values="0 0 0 0 0.929412 0 0 0 0 0.211765 0 0 0 0 0.345098 0 0 0 1 0"/>
<feBlend mode="normal" in2="BackgroundImageFix" result="effect1_dropShadow_29_1978"/>
<feBlend mode="normal" in="SourceGraphic" in2="effect1_dropShadow_29_1978" result="shape"/>
</filter>
<linearGradient id="paint0_linear_29_1978" x1="428.5" y1="101" x2="428.5" y2="402" gradientUnits="userSpaceOnUse">
<stop stop-color="#2E2E2E"/>
<stop offset="0.524038" stop-color="#222222"/>
</linearGradient>
<linearGradient id="paint1_linear_29_1978" x1="428.5" y1="101" x2="428.5" y2="402" gradientUnits="userSpaceOnUse">
<stop stop-color="#FF8E2B"/>
<stop offset="1" stop-color="#ED3658"/>
</linearGradient>
<linearGradient id="paint2_linear_29_1978" x1="460.438" y1="233.891" x2="401.469" y2="233.891" gradientUnits="userSpaceOnUse">
<stop stop-color="#2E2E2E"/>
<stop offset="1" stop-color="#222222"/>
</linearGradient>
<linearGradient id="paint3_linear_29_1978" x1="430.953" y1="194" x2="430.953" y2="273.781" gradientUnits="userSpaceOnUse">
<stop stop-color="#FF8E2B"/>
<stop offset="1" stop-color="#ED3658"/>
</linearGradient>
<linearGradient id="paint4_linear_29_1978" x1="456.969" y1="263.375" x2="398" y2="263.375" gradientUnits="userSpaceOnUse">
<stop stop-color="#222222"/>
<stop offset="0.5" stop-color="#282828"/>
</linearGradient>
<linearGradient id="paint5_linear_29_1978" x1="427.484" y1="305" x2="427.484" y2="221.75" gradientUnits="userSpaceOnUse">
<stop stop-color="#FF8E2B"/>
<stop offset="1" stop-color="#ED3658"/>
</linearGradient>
</defs>
</svg>
