<svg width="1512" height="121" viewBox="0 0 1512 121" fill="none" xmlns="http://www.w3.org/2000/svg">
<path d="M1192 84V0H1194V84C1194 91.1797 1188.18 97 1181 97H-1V95H1181C1187.08 95 1192 90.0751 1192 84Z" fill="url(#paint0_linear_2181_510)"/>
<path d="M1205 96V0H1207V96C1207 103.18 1201.18 109 1194 109H-1V107H1194C1200.08 107 1205 102.075 1205 96Z" fill="url(#paint1_linear_2181_510)"/>
<path d="M1217 108V0H1219V108C1219 115.18 1213.18 121 1206 121H-1V119H1206C1212.08 119 1217 114.075 1217 108Z" fill="url(#paint2_linear_2181_510)"/>
<path d="M1255 84V0H1253V84C1253 91.1797 1258.82 97 1266 97H2448V95H1266C1259.92 95 1255 90.0751 1255 84Z" fill="url(#paint3_linear_2181_510)"/>
<path d="M1242 96V0H1240V96C1240 103.18 1245.82 109 1253 109H2448V107H1253C1246.92 107 1242 102.075 1242 96Z" fill="url(#paint4_linear_2181_510)"/>
<path d="M1230 108V0H1228V108C1228 115.18 1233.82 121 1241 121H2448V119H1241C1234.92 119 1230 114.075 1230 108Z" fill="url(#paint5_linear_2181_510)"/>
<defs>
<linearGradient id="paint0_linear_2181_510" x1="-1" y1="59.8763" x2="2445.95" y2="59.8763" gradientUnits="userSpaceOnUse">
<stop offset="0.625" stop-color="#FF8E2B"/>
<stop offset="1" stop-color="#FF7BCA"/>
</linearGradient>
<linearGradient id="paint1_linear_2181_510" x1="-1" y1="59.945" x2="2445.97" y2="59.945" gradientUnits="userSpaceOnUse">
<stop offset="0.63" stop-color="#FF8E2B"/>
<stop offset="1" stop-color="#FF7BCA"/>
</linearGradient>
<linearGradient id="paint2_linear_2181_510" x1="2448" y1="60" x2="1229" y2="60" gradientUnits="userSpaceOnUse">
<stop offset="0.63" stop-color="#FF8E2B"/>
<stop offset="1" stop-color="#FF7BCA"/>
</linearGradient>
<linearGradient id="paint3_linear_2181_510" x1="-1" y1="59.8763" x2="2445.95" y2="59.8763" gradientUnits="userSpaceOnUse">
<stop offset="0.625" stop-color="#FF8E2B"/>
<stop offset="1" stop-color="#FF7BCA"/>
</linearGradient>
<linearGradient id="paint4_linear_2181_510" x1="-1" y1="59.945" x2="2445.97" y2="59.945" gradientUnits="userSpaceOnUse">
<stop offset="0.63" stop-color="#FF8E2B"/>
<stop offset="1" stop-color="#FF7BCA"/>
</linearGradient>
<linearGradient id="paint5_linear_2181_510" x1="2448" y1="60" x2="1229" y2="60" gradientUnits="userSpaceOnUse">
<stop offset="0.63" stop-color="#FF8E2B"/>
<stop offset="1" stop-color="#FF7BCA"/>
</linearGradient>
</defs>
</svg>
